<?xml version="1.0" encoding="UTF-8" standalone="no"?>
<!-- Created with Inkscape (http://www.inkscape.org/) -->

<svg
   xmlns:dc="http://purl.org/dc/elements/1.1/"
   xmlns:cc="http://creativecommons.org/ns#"
   xmlns:rdf="http://www.w3.org/1999/02/22-rdf-syntax-ns#"
   xmlns:svg="http://www.w3.org/2000/svg"
   xmlns="http://www.w3.org/2000/svg"
   xmlns:sodipodi="http://sodipodi.sourceforge.net/DTD/sodipodi-0.dtd"
   xmlns:inkscape="http://www.inkscape.org/namespaces/inkscape"
   width="16.724804mm"
   height="19.398972mm"
   viewBox="0 0 16.724804 19.398972"
   version="1.1"
   id="svg3787"
   inkscape:version="0.92.4 (5da689c313, 2019-01-14)"
   sodipodi:docname="TileableKingdomHex.svg">
  <defs
     id="defs3781" />
  <sodipodi:namedview
     id="base"
     pagecolor="#ffffff"
     bordercolor="#666666"
     borderopacity="1.0"
     inkscape:pageopacity="0.0"
     inkscape:pageshadow="2"
     inkscape:zoom="0.9899495"
     inkscape:cx="344.7756"
     inkscape:cy="106.74387"
     inkscape:document-units="mm"
     inkscape:current-layer="layer1"
     showgrid="false"
     inkscape:window-width="1920"
     inkscape:window-height="1017"
     inkscape:window-x="1912"
     inkscape:window-y="-8"
     inkscape:window-maximized="1" />
  <metadata
     id="metadata3784">
    <rdf:RDF>
      <cc:Work
         rdf:about="">
        <dc:format>image/svg+xml</dc:format>
        <dc:type
           rdf:resource="http://purl.org/dc/dcmitype/StillImage" />
        <dc:title></dc:title>
      </cc:Work>
    </rdf:RDF>
  </metadata>
  <g
     inkscape:label="Layer 1"
     inkscape:groupmode="layer"
     id="layer1"
     transform="translate(-63.313892,-204.16378)">
    <path
       style="opacity:1;fill:none;fill-opacity:1;fill-rule:nonzero;stroke:#000000;stroke-width:0.11576109;stroke-linejoin:round;stroke-miterlimit:4;stroke-dasharray:none;stroke-dashoffset:0;stroke-opacity:1"
       d="m 80.038694,223.50487 h -2.787468 c -0.929155,-1.60935 -1.858312,-3.21869 -2.787467,-4.82804 0.929157,-1.60934 1.858312,-3.21869 2.787469,-4.82803 h 2.787466 m 2e-6,0 h -2.787467 c -0.929156,-1.60935 -1.858312,-3.2187 -2.787468,-4.82804 0.929156,-1.60935 1.858312,-3.21869 2.787468,-4.82804 m -11.149868,0 c 0.929156,1.60935 1.858311,3.2187 2.787467,4.82804 -0.929156,1.60935 -1.858312,3.21869 -2.787468,4.82804 h -2.787467 m 11.149868,4.82803 h -5.574934 l -2.787467,-4.82803 2.787467,-4.82803 h 5.574935 c 0.929156,1.60935 1.858312,3.21868 2.787468,4.82803 -0.929157,1.60934 -1.858312,3.21869 -2.787469,4.82803 z M 63.313893,213.8488 h 2.787467 l 2.787467,4.82803 -2.787467,4.82804 h -2.787468"
       id="path4342"
       inkscape:connector-curvature="0"
       sodipodi:nodetypes="ccccccccccccccccccccccccc" />
  </g>
</svg>
