<?xml version="1.0" encoding="UTF-8" standalone="no"?>
<!-- Created with Inkscape (http://www.inkscape.org/) -->

<svg
   xmlns:dc="http://purl.org/dc/elements/1.1/"
   xmlns:cc="http://creativecommons.org/ns#"
   xmlns:rdf="http://www.w3.org/1999/02/22-rdf-syntax-ns#"
   xmlns:svg="http://www.w3.org/2000/svg"
   xmlns="http://www.w3.org/2000/svg"
   xmlns:sodipodi="http://sodipodi.sourceforge.net/DTD/sodipodi-0.dtd"
   xmlns:inkscape="http://www.inkscape.org/namespaces/inkscape"
   width="2.787524mm"
   height="3.2332304mm"
   viewBox="0 0 2.787524 3.2332305"
   version="1.1"
   id="svg3787"
   inkscape:version="0.92.4 (5da689c313, 2019-01-14)"
   sodipodi:docname="TileableProvinceHex.svg">
  <defs
     id="defs3781" />
  <sodipodi:namedview
     id="base"
     pagecolor="#ffffff"
     bordercolor="#666666"
     borderopacity="1.0"
     inkscape:pageopacity="0.0"
     inkscape:pageshadow="2"
     inkscape:zoom="7.919596"
     inkscape:cx="49.866966"
     inkscape:cy="33.597919"
     inkscape:document-units="mm"
     inkscape:current-layer="layer1"
     showgrid="false"
     inkscape:window-width="1920"
     inkscape:window-height="1017"
     inkscape:window-x="1912"
     inkscape:window-y="-8"
     inkscape:window-maximized="1" />
  <metadata
     id="metadata3784">
    <rdf:RDF>
      <cc:Work
         rdf:about="">
        <dc:format>image/svg+xml</dc:format>
        <dc:type
           rdf:resource="http://purl.org/dc/dcmitype/StillImage" />
        <dc:title></dc:title>
      </cc:Work>
    </rdf:RDF>
  </metadata>
  <g
     inkscape:label="Layer 1"
     inkscape:groupmode="layer"
     id="layer1"
     transform="translate(-70.282532,-212.24666)">
    <path
       style="opacity:1;fill:none;fill-opacity:1;fill-rule:nonzero;stroke:#000000;stroke-width:0.0192939;stroke-linejoin:round;stroke-miterlimit:4;stroke-dasharray:none;stroke-dashoffset:0;stroke-opacity:1"
       d="m 73.070055,215.47024 h -0.464587 c -0.154862,-0.26823 -0.309725,-0.53646 -0.464587,-0.80469 0.154862,-0.26823 0.309725,-0.53646 0.464587,-0.80469 h 0.464587 m 10e-7,0 h -0.464588 c -0.154862,-0.26823 -0.309724,-0.53646 -0.464587,-0.80469 0.154863,-0.26823 0.309725,-0.53646 0.464587,-0.80469 m -1.858348,0 c 0.154862,0.26823 0.309725,0.53646 0.464587,0.80469 -0.154862,0.26823 -0.309725,0.53646 -0.464587,0.80469 h -0.464587 m 1.858348,0.80469 h -0.929174 l -0.464587,-0.80469 0.464587,-0.80469 h 0.929174 c 0.154863,0.26823 0.309725,0.53646 0.464588,0.80469 -0.154863,0.26823 -0.309725,0.53646 -0.464588,0.80469 z m -1.858348,-0.80469 h 0.464587 l 0.464587,0.80469 -0.464587,0.80469 h -0.464588"
       id="path4342"
       inkscape:connector-curvature="0"
       sodipodi:nodetypes="ccccccccccccccccccccccccc" />
  </g>
</svg>
