<?xml version="1.0" encoding="UTF-8" standalone="no"?>
<!-- Created with Inkscape (http://www.inkscape.org/) -->

<svg
   xmlns:dc="http://purl.org/dc/elements/1.1/"
   xmlns:cc="http://creativecommons.org/ns#"
   xmlns:rdf="http://www.w3.org/1999/02/22-rdf-syntax-ns#"
   xmlns:svg="http://www.w3.org/2000/svg"
   xmlns="http://www.w3.org/2000/svg"
   xmlns:sodipodi="http://sodipodi.sourceforge.net/DTD/sodipodi-0.dtd"
   xmlns:inkscape="http://www.inkscape.org/namespaces/inkscape"
   version="1.1"
   id="svg2"
   width="1024"
   height="1024"
   viewBox="0 0 1024 1024"
   sodipodi:docname="godfall.svg"
   inkscape:version="0.92.4 (5da689c313, 2019-01-14)">
  <metadata
     id="metadata8">
    <rdf:RDF>
      <cc:Work
         rdf:about="">
        <dc:format>image/svg+xml</dc:format>
        <dc:type
           rdf:resource="http://purl.org/dc/dcmitype/StillImage" />
        <dc:title></dc:title>
      </cc:Work>
    </rdf:RDF>
  </metadata>
  <defs
     id="defs6" />
  <sodipodi:namedview
     pagecolor="#ffffff"
     bordercolor="#666666"
     borderopacity="1"
     objecttolerance="10"
     gridtolerance="10"
     guidetolerance="10"
     inkscape:pageopacity="0"
     inkscape:pageshadow="2"
     inkscape:window-width="1920"
     inkscape:window-height="1017"
     id="namedview4"
     showgrid="false"
     inkscape:zoom="0.921875"
     inkscape:cx="664.76867"
     inkscape:cy="547.17934"
     inkscape:window-x="-8"
     inkscape:window-y="-8"
     inkscape:window-maximized="1"
     inkscape:current-layer="layer1" />
  <g
     inkscape:groupmode="layer"
     id="layer1"
     inkscape:label="Layer 1"
     style="display:inline">
    <path
       style="fill:#000000"
       d="M 565.63683,929.11919 C 621.42622,921.45388 672.68963,904.27508 720.5,877.22325 734.53469,869.2822 762.0616,850.52405 776,839.40288 793.33209,825.57396 825.57396,793.33209 839.40288,776 875.35751,730.93728 901.18963,680.58292 917.05642,624.63056 920.86159,611.21207 927,583.0337 927,578.98455 927,577.0151 925.9883,577 794,577 H 661 v 35 35 h 89.44294 89.44294 l -3.16969,7.25 C 797.40352,744.16961 720.1086,815.31334 627.21329,847.0805 588.6158,860.27958 553.03631,866.17678 512,866.17678 c -31.32606,0 -58.31083,-3.29606 -87.05765,-10.63367 C 284.36863,819.66176 180.36782,702.87464 160.64328,558.75 L 159.30892,549 H 354.15446 549 V 514 479 H 353.90616 158.81232 l 0.64881,-5.25 c 1.74298,-14.10383 5.91392,-36.73384 8.99576,-48.80765 6.80779,-26.67113 19.00883,-58.15638 31.17272,-80.44235 l 4.91228,-9 239.72905,-0.25205 L 684,334.99589 V 299.99795 265 l -213.25,-0.0481 -213.25,-0.0481 8.5,-8.01612 c 60.34361,-56.90841 131.87142,-89.72593 213.5,-97.95546 14.16129,-1.4277 50.83871,-1.4277 65,0 98.27324,9.90759 185.70493,57.50593 245.80514,133.81779 l 8.0725,10.25 h 39.27745 39.27746 l -2.12496,-3.75 C 868.96543,288.94014 848.94366,259.95767 839.40288,248 825.57396,230.66791 793.33209,198.42604 776,184.59712 762.0616,173.47595 734.53469,154.7178 720.5,146.77675 672.34908,119.53223 621.4134,102.52993 564.60112,94.737799 550.43186,92.794404 544.12062,92.529438 512,92.529438 c -32.12062,0 -38.43186,0.264966 -52.60112,2.208361 C 402.5866,102.52993 351.65092,119.53223 303.5,146.77675 289.46531,154.7178 261.9384,173.47595 248,184.59712 230.66791,198.42604 198.42604,230.66791 184.59712,248 c -11.12117,13.9384 -29.87932,41.46531 -37.82037,55.5 -27.24452,48.15092 -44.24682,99.0866 -52.038951,155.89888 -1.943395,14.16926 -2.208361,20.4805 -2.208361,52.60112 0,32.12062 0.264966,38.43186 2.208361,52.60112 7.792131,56.81228 24.794431,107.74796 52.038951,155.89888 7.94105,14.03469 26.6992,41.5616 37.82037,55.5 13.82892,17.33209 46.07079,49.57396 63.40288,63.40288 13.9384,11.12117 41.46531,29.87932 55.5,37.82037 48.23327,27.29112 101.53759,45.05217 155.39888,51.77906 22.65163,2.82902 21.63691,2.78573 58.10112,2.47871 27.25184,-0.22946 36.3232,-0.66997 48.63683,-2.36183 z"
       id="path823"
       inkscape:connector-curvature="0"
       sodipodi:nodetypes="ssssssscccccssssscccccccssscccccccsssscccsssssssssssssssssssss" />
  </g>
</svg>
