<svg xmlns="http://www.w3.org/2000/svg"
     width="1024" height="1024"
     viewBox="0 0 1024 1024">
	 <defs>
	 	<pattern id="map-grid" width="1" height="1" patternUnits="userSpaceOnUse">
		 <path d="M 0 0 L 1 0 1 1 0 1 z" stroke="#000" stroke-width="0.05" fill="none"></path></pattern>
	 </defs>
	<rect x="0" y="0" width="1024" height="1024" fill="black"/>
	<path id="Good"
			fill="#76d7ea" stroke="black" stroke-width="1"
			d="M 118.00,30.00
			C 122.39,35.39 131.95,41.59 139.00,42.00
				139.00,42.00 136.00,49.00 136.00,49.00
				136.00,49.00 151.70,46.41 151.70,46.41
				151.70,46.41 159.00,39.00 159.00,39.00
				159.00,39.00 158.00,48.00 158.00,48.00
				158.00,48.00 166.00,51.00 166.00,51.00
				166.00,51.00 166.00,47.00 166.00,47.00
				166.00,47.00 171.00,53.00 171.00,53.00
				171.00,53.00 178.00,51.00 178.00,51.00
				178.00,51.00 179.00,58.00 179.00,58.00
				182.14,51.93 177.31,49.54 187.00,47.00
				187.00,47.00 186.00,53.00 186.00,53.00
				187.57,54.37 193.66,61.25 188.02,61.90
				186.45,62.08 184.70,60.49 182.91,60.00
				182.91,60.00 175.00,60.00 175.00,60.00
				175.00,60.00 177.29,72.91 177.29,72.91
				177.21,76.38 174.88,76.76 175.78,81.01
				175.78,81.01 186.28,108.00 186.28,108.00
				186.28,108.00 187.81,115.00 187.81,115.00
				187.81,115.00 191.07,123.00 191.07,123.00
				192.10,126.68 191.93,129.42 193.92,132.96
				198.20,140.58 202.66,136.10 207.00,144.97
				211.25,144.23 218.88,142.36 222.61,144.97
				225.19,146.71 225.82,150.04 230.04,152.08
				233.73,153.86 239.29,152.95 241.92,156.31
				245.15,160.43 243.03,163.40 244.13,166.92
				245.05,169.85 247.51,171.17 249.49,173.32
				254.60,178.89 254.28,183.30 263.00,184.00
				264.25,191.43 268.00,189.79 274.00,189.00
				274.00,189.00 272.00,192.00 272.00,192.00
				272.00,192.00 279.00,190.00 279.00,190.00
				279.00,190.00 277.00,201.00 277.00,201.00
				277.00,201.00 281.00,201.00 281.00,201.00
				278.73,204.74 278.54,207.47 274.00,208.00
				270.80,216.66 272.40,225.38 271.46,230.00
				271.46,230.00 266.49,244.58 266.49,244.58
				265.56,252.39 266.29,261.96 256.00,263.00
				256.53,269.21 252.62,276.95 246.98,279.99
				244.82,281.16 236.63,282.95 234.00,283.00
				234.00,283.00 232.00,281.00 232.00,281.00
				231.61,272.54 231.35,274.68 227.40,267.98
				225.96,265.56 226.24,264.89 224.00,263.00
				224.00,263.00 221.00,266.00 221.00,266.00
				220.16,258.42 221.32,259.81 223.00,253.00
				223.00,253.00 230.00,254.00 230.00,254.00
				230.00,254.00 229.00,257.00 229.00,257.00
				229.00,257.00 233.00,258.00 233.00,258.00
				235.34,249.96 239.58,250.41 241.32,239.00
				241.57,236.95 241.98,235.04 241.32,233.00
				240.83,231.12 239.08,228.70 238.00,227.00
				238.00,227.00 250.29,217.79 250.29,217.79
				250.29,217.79 256.29,210.67 256.29,210.67
				256.29,210.67 264.91,208.36 264.91,208.36
				264.91,208.36 271.00,204.00 271.00,204.00
				271.00,204.00 268.00,192.00 268.00,192.00
				261.62,191.57 251.85,186.76 246.00,189.08
				242.78,190.35 234.79,198.62 238.64,202.17
				240.23,203.64 244.75,202.94 247.00,203.00
				247.00,203.00 243.00,209.00 243.00,209.00
				243.00,209.00 238.00,205.00 238.00,205.00
				239.37,208.01 238.73,208.43 236.00,210.00
				235.58,204.76 232.37,202.75 228.90,207.28
				227.12,209.60 227.35,213.15 227.00,216.00
				218.48,210.02 218.70,221.27 213.79,223.40
				209.15,225.41 201.28,221.91 197.00,220.00
				197.00,220.00 192.44,229.71 192.44,229.71
				192.44,229.71 180.33,243.10 180.33,243.10
				178.43,246.88 179.48,251.36 184.00,252.00
				184.00,252.00 185.00,253.00 185.00,253.00
				185.00,253.00 184.00,255.00 184.00,255.00
				184.00,255.00 188.31,262.13 188.31,262.13
				188.31,262.13 197.00,266.00 197.00,266.00
				207.53,261.08 204.15,265.39 213.00,265.00
				213.00,265.00 215.65,274.58 215.65,274.58
				215.94,279.25 208.71,288.60 220.00,286.84
				220.00,286.84 225.00,286.00 225.00,286.00
				225.22,292.64 223.66,290.35 222.42,295.09
				220.35,302.99 225.28,300.93 215.00,309.00
				215.00,309.00 217.00,315.00 217.00,315.00
				217.00,315.00 220.00,316.00 220.00,316.00
				215.27,318.23 206.59,321.73 204.69,327.04
				204.25,328.77 204.59,331.13 204.69,333.00
				204.47,336.98 203.59,337.41 207.00,340.00
				199.08,349.36 196.06,357.37 190.73,368.00
				190.73,368.00 185.13,378.00 185.13,378.00
				185.13,378.00 181.84,387.00 181.84,387.00
				181.84,387.00 174.59,398.00 174.59,398.00
				171.27,404.28 169.59,406.47 165.60,412.09
				164.42,413.74 163.60,416.06 161.63,416.94
				160.13,417.52 158.54,417.16 157.00,416.94
				157.59,413.67 158.71,411.47 156.00,409.00
				156.00,409.00 157.00,407.00 157.00,407.00
				157.00,407.00 155.00,407.00 155.00,407.00
				155.00,407.00 157.20,398.00 157.20,398.00
				157.20,398.00 144.00,377.00 144.00,377.00
				144.00,377.00 137.00,378.00 137.00,378.00
				137.00,378.00 136.00,374.00 136.00,374.00
				136.00,374.00 124.00,373.00 124.00,373.00
				121.88,365.14 115.60,365.25 109.00,368.00
				109.54,356.25 112.06,357.23 104.33,346.00
				102.54,343.40 100.68,340.18 97.00,341.15
				89.53,343.13 92.01,352.67 81.00,353.00
				75.58,358.93 74.66,353.36 70.13,355.81
				67.91,357.00 59.55,368.41 58.26,371.00
				55.40,376.72 57.01,378.49 56.40,383.00
				56.04,385.63 55.19,386.99 55.16,390.00
				55.36,393.43 56.85,395.52 55.16,399.00
				51.26,406.35 44.52,406.76 40.14,411.17
				33.90,417.45 35.73,420.38 35.18,428.00
				35.15,431.99 34.55,432.63 35.18,437.00
				24.62,441.22 18.86,452.71 7.00,447.00
				2.33,449.83 1.45,450.51 1.00,456.00
				1.00,456.00 8.00,451.00 8.00,451.00
				8.00,451.00 9.00,452.00 9.00,452.00
				9.00,452.00 8.00,455.00 8.00,455.00
				9.60,459.44 4.81,463.87 2.00,467.00
				7.52,473.81 7.70,470.05 13.00,472.00
				18.03,464.09 23.10,463.99 30.00,470.13
				32.02,471.94 34.45,474.42 35.40,477.00
				37.32,482.17 34.24,487.60 36.04,496.91
				37.13,502.52 41.15,503.70 42.00,509.56
				42.94,514.79 42.40,524.62 42.00,530.00
				41.61,533.05 40.24,535.91 40.63,539.00
				40.63,539.00 42.12,545.00 42.12,545.00
				43.42,553.37 43.14,561.46 35.00,566.00
				35.00,566.00 36.00,571.00 36.00,571.00
				36.00,571.00 40.00,571.00 40.00,571.00
				38.13,573.39 34.30,578.29 31.87,579.79
				26.76,582.94 20.98,582.56 17.03,588.10
				11.07,596.44 18.11,608.36 21.00,617.00
				21.00,617.00 23.00,614.00 23.00,614.00
				26.99,616.56 26.84,617.41 27.00,622.00
				27.00,622.00 22.00,619.00 22.00,619.00
				22.00,619.00 27.00,629.00 27.00,629.00
				27.00,629.00 27.00,624.00 27.00,624.00
				27.00,624.00 29.00,620.00 29.00,620.00
				34.13,624.64 30.97,624.93 32.60,630.00
				34.52,635.98 38.25,634.62 37.00,646.00
				41.05,641.55 38.30,639.91 44.00,638.00
				44.00,638.00 43.00,645.00 43.00,645.00
				45.72,643.63 48.28,641.79 49.61,638.91
				50.78,636.35 50.00,633.66 52.35,632.02
				54.24,630.71 57.46,631.23 60.00,630.57
				60.00,630.57 68.00,627.30 68.00,627.30
				72.56,626.30 82.14,627.34 86.98,619.89
				91.98,612.21 84.87,607.61 83.26,602.04
				81.88,597.30 78.53,577.97 78.80,573.49
				78.80,573.49 80.70,565.00 80.70,565.00
				80.70,565.00 80.70,559.00 80.70,559.00
				81.55,553.82 83.25,554.71 80.70,549.00
				83.49,547.24 83.80,545.13 87.00,546.00
				87.00,546.00 88.00,543.00 88.00,543.00
				88.00,543.00 92.00,548.00 92.00,548.00
				99.72,545.30 98.50,544.02 102.74,538.09
				106.16,533.30 111.79,529.21 102.00,525.00
				101.72,519.59 98.44,519.31 97.82,514.71
				97.10,512.18 97.78,510.41 97.82,508.00
				97.82,508.00 98.57,503.04 98.57,503.04
				99.88,499.00 107.31,493.98 111.00,492.00
				114.65,496.05 118.32,492.26 122.09,490.52
				122.09,490.52 129.00,488.00 129.00,488.00
				131.54,500.88 123.34,501.05 124.00,511.00
				124.00,511.00 119.00,512.00 119.00,512.00
				119.00,512.00 119.00,516.00 119.00,516.00
				122.02,517.91 125.02,521.10 128.00,518.00
				131.30,518.31 132.74,518.62 135.00,516.00
				143.14,517.14 143.66,513.62 148.00,508.00
				148.00,508.00 149.48,519.00 149.48,519.00
				149.48,519.00 149.48,530.00 149.48,530.00
				149.48,530.00 152.82,546.00 152.82,546.00
				152.82,546.00 151.36,559.28 151.36,559.28
				151.36,559.28 153.69,572.00 153.69,572.00
				153.69,572.00 153.69,581.00 153.69,581.00
				153.69,581.00 155.78,591.05 155.78,591.05
				155.78,591.05 152.00,596.00 152.00,596.00
				152.00,596.00 147.00,593.00 147.00,593.00
				147.00,593.00 150.00,598.00 150.00,598.00
				145.57,598.28 145.48,599.94 145.00,604.00
				145.00,604.00 143.00,600.00 143.00,600.00
				143.00,600.00 139.00,605.00 139.00,605.00
				143.29,618.14 140.29,616.51 140.27,625.28
				140.27,625.28 140.94,632.00 140.94,632.00
				140.97,635.34 140.44,636.31 140.94,640.00
				135.55,643.76 127.22,660.49 129.29,666.99
				130.77,671.66 137.61,680.41 137.38,685.00
				137.25,687.63 129.95,700.79 127.62,701.71
				125.98,702.36 124.50,701.53 123.00,701.00
				123.00,701.00 122.00,702.00 122.00,702.00
				122.00,702.00 123.00,704.00 123.00,704.00
				119.11,704.54 109.43,705.98 106.83,708.87
				105.29,710.57 106.01,712.63 104.91,715.00
				103.42,718.18 99.82,720.99 97.00,723.00
				97.00,723.00 97.00,728.00 97.00,728.00
				101.44,728.03 106.54,731.62 107.86,736.04
				109.32,740.93 106.99,747.16 106.66,752.00
				106.66,752.00 108.12,775.00 108.12,775.00
				107.87,787.01 116.37,787.76 112.01,799.00
				108.48,808.09 97.81,810.09 94.00,823.00
				91.20,822.75 82.79,823.57 80.46,824.99
				78.85,825.98 77.01,828.46 75.89,830.00
				74.91,831.35 73.44,833.34 73.15,835.00
				72.69,837.66 74.88,840.55 75.90,843.00
				78.80,849.97 79.54,859.76 90.00,858.00
				90.50,858.83 90.23,858.98 91.54,860.26
				91.54,860.26 106.17,869.63 106.17,869.63
				107.89,870.00 116.19,869.01 120.96,870.89
				124.10,872.12 125.35,874.14 128.09,875.71
				128.09,875.71 135.00,878.87 135.00,878.87
				135.00,878.87 144.28,885.52 144.28,885.52
				146.88,887.04 158.83,890.20 162.00,890.13
				171.70,889.93 170.18,895.94 174.26,901.91
				178.48,908.08 185.64,915.43 193.00,917.51
				193.00,917.51 211.00,920.78 211.00,920.78
				212.77,920.90 214.31,920.70 216.00,920.15
				219.82,918.88 231.80,911.87 235.09,912.02
				244.73,912.48 245.48,920.84 248.27,924.73
				249.81,926.87 253.59,928.67 256.00,929.70
				262.54,932.50 263.10,929.86 266.42,930.37
				268.31,930.66 270.17,932.28 273.00,932.69
				276.02,933.13 278.18,931.94 281.00,931.96
				281.00,931.96 286.00,932.54 286.00,932.54
				289.33,932.54 292.21,930.78 294.38,931.26
				296.70,931.77 298.38,934.57 299.93,936.24
				299.93,936.24 310.00,945.00 310.00,945.00
				308.08,947.52 300.68,961.18 299.56,964.09
				298.62,966.56 299.23,967.46 297.39,970.72
				291.79,980.65 287.60,980.49 285.17,986.09
				282.49,992.26 278.06,994.15 281.00,1001.00
				281.00,1001.00 283.00,997.00 283.00,997.00
				290.71,1003.88 283.35,1013.34 295.00,1012.03
				295.00,1012.03 300.00,1011.00 300.00,1011.00
				300.00,1011.00 309.00,1019.00 309.00,1019.00
				311.96,1016.60 311.84,1017.34 315.00,1019.00
				315.00,1019.00 314.00,1016.00 314.00,1016.00
				317.33,1017.22 319.41,1018.15 322.94,1016.70
				326.34,1015.30 328.01,1012.75 325.00,1010.00
				325.00,1010.00 324.42,1002.00 324.42,1002.00
				324.42,1002.00 325.00,994.00 325.00,994.00
				325.00,994.00 328.11,995.00 328.11,995.00
				328.11,995.00 328.11,987.01 328.11,987.01
				328.84,984.39 334.09,976.75 336.89,976.32
				339.25,975.96 340.95,978.10 343.04,978.84
				346.63,980.12 359.99,978.54 361.84,974.61
				362.93,972.27 360.71,969.48 359.87,967.00
				359.87,967.00 357.00,951.00 357.00,951.00
				347.96,942.88 352.75,939.94 349.52,934.13
				347.43,930.39 343.93,929.62 342.81,924.96
				341.80,920.79 343.25,911.37 336.00,907.00
				336.25,903.25 333.21,890.11 331.30,887.30
				329.85,885.16 328.22,884.13 326.00,883.00
				326.00,883.00 326.00,873.00 326.00,873.00
				330.04,870.07 327.51,868.02 326.96,864.00
				326.96,864.00 326.96,853.00 326.96,853.00
				322.96,851.05 320.11,849.03 318.00,845.00
				311.11,845.50 308.21,843.46 306.00,837.00
				306.00,837.00 318.09,821.45 318.09,821.45
				318.09,821.45 324.00,814.00 324.00,814.00
				329.64,813.56 335.46,807.76 340.00,814.00
				340.00,814.00 351.00,814.00 351.00,814.00
				351.00,814.00 356.00,817.00 356.00,817.00
				363.24,804.48 369.02,807.01 376.00,803.72
				380.28,801.70 389.62,796.17 394.00,795.31
				398.06,794.52 402.61,796.99 408.96,793.93
				413.87,791.56 415.18,786.68 420.96,782.68
				424.99,779.91 427.13,781.10 431.96,776.79
				436.07,773.11 437.44,769.07 441.59,765.88
				441.59,765.88 448.41,762.18 448.41,762.18
				448.41,762.18 462.13,748.99 462.13,748.99
				464.20,746.51 465.75,732.31 467.01,728.00
				469.07,720.91 470.78,721.73 472.99,716.96
				472.99,716.96 475.91,707.42 475.91,707.42
				476.78,705.16 478.57,703.21 478.88,701.01
				479.20,698.74 477.90,696.89 477.62,694.72
				477.28,691.96 478.13,690.39 478.29,688.00
				478.66,682.25 475.55,679.89 483.86,673.00
				483.86,673.00 483.86,666.27 483.86,666.27
				483.86,666.27 485.97,659.00 485.97,659.00
				485.97,659.00 489.75,638.99 489.75,638.99
				489.75,638.99 490.40,613.00 490.40,613.00
				490.40,613.00 488.80,605.00 488.80,605.00
				488.80,605.00 489.84,589.00 489.84,589.00
				489.84,589.00 489.84,576.00 489.84,576.00
				489.84,576.00 492.22,565.00 492.22,565.00
				492.22,565.00 491.37,559.00 491.37,559.00
				491.37,559.00 491.37,553.28 491.37,553.28
				491.37,553.28 491.37,547.96 491.37,547.96
				491.37,547.96 492.92,530.00 492.92,530.00
				492.92,530.00 492.02,523.00 492.02,523.00
				492.02,523.00 493.01,511.00 493.01,511.00
				493.01,511.00 490.21,502.00 490.21,502.00
				490.21,502.00 491.57,489.58 491.57,489.58
				491.57,489.58 489.53,477.28 489.53,477.28
				489.53,477.28 486.68,470.99 486.68,470.99
				486.68,470.99 486.68,454.00 486.68,454.00
				486.68,454.00 483.60,434.00 483.60,434.00
				483.60,434.00 486.69,415.47 486.69,415.47
				486.69,415.47 485.24,397.00 485.24,397.00
				485.24,397.00 490.21,386.42 490.21,386.42
				490.21,386.42 490.21,375.00 490.21,375.00
				491.76,374.10 493.16,373.47 494.19,371.54
				495.06,369.47 494.17,365.64 494.19,363.00
				494.62,356.93 493.54,354.00 495.58,348.00
				495.58,348.00 501.13,334.01 501.13,334.01
				503.00,330.62 505.17,329.60 506.94,325.91
				509.77,320.00 507.14,318.27 509.23,313.00
				510.99,308.53 515.66,304.44 520.01,291.96
				520.01,291.96 521.84,283.00 521.84,283.00
				521.84,283.00 524.32,276.28 524.32,276.28
				526.24,268.91 523.32,267.69 532.00,262.00
				532.00,262.00 533.21,248.00 533.21,248.00
				533.21,248.00 542.36,232.00 542.36,232.00
				542.36,232.00 544.52,218.00 544.52,218.00
				544.52,218.00 550.44,207.00 550.44,207.00
				550.44,207.00 553.72,190.00 553.72,190.00
				553.72,190.00 556.65,184.00 556.65,184.00
				556.65,184.00 563.03,169.00 563.03,169.00
				563.03,169.00 566.16,151.91 566.16,151.91
				566.16,151.91 573.46,140.96 573.46,140.96
				573.46,140.96 574.00,129.00 574.00,129.00
				574.00,129.00 571.00,132.00 571.00,132.00
				571.00,132.00 569.00,132.00 569.00,132.00
				564.93,122.29 562.95,129.69 557.00,120.00
				557.00,120.00 555.96,125.00 555.96,125.00
				553.64,116.69 555.38,107.42 555.96,99.00
				555.96,99.00 555.00,85.00 555.00,85.00
				555.00,85.00 546.00,85.61 546.00,85.61
				546.00,85.61 535.00,87.00 535.00,87.00
				535.00,87.00 532.32,89.55 532.32,89.55
				523.94,96.14 523.84,83.49 522.22,81.27
				520.81,79.33 513.38,75.62 511.00,75.43
				506.88,75.09 504.20,78.58 501.00,80.44
				497.35,82.57 495.64,81.54 492.00,82.81
				489.63,83.64 486.27,85.90 484.00,86.22
				479.83,86.80 478.90,83.52 474.91,82.56
				471.98,81.85 459.25,80.66 456.00,80.74
				451.21,80.86 446.33,79.43 442.04,82.15
				435.14,86.51 437.54,90.04 426.01,94.89
				424.47,95.54 422.21,96.67 420.58,96.77
				418.01,96.92 412.76,94.85 410.00,94.57
				405.68,93.63 404.20,95.05 401.00,94.57
				395.85,94.27 384.64,91.35 380.51,95.44
				378.75,97.18 377.79,100.67 377.00,103.00
				377.00,103.00 382.00,104.00 382.00,104.00
				382.86,108.47 382.89,111.45 387.00,114.00
				385.85,118.68 381.97,127.37 376.10,127.37
				373.85,127.37 372.88,125.53 371.69,124.00
				371.69,124.00 362.86,114.83 362.86,114.83
				361.84,112.97 361.82,111.02 361.36,109.00
				358.57,96.77 360.70,102.74 362.36,94.00
				362.36,94.00 362.93,87.09 362.93,87.09
				363.52,84.79 364.96,83.30 364.90,79.98
				364.76,72.55 358.72,74.49 357.00,69.00
				353.43,67.76 349.91,66.25 346.17,65.59
				341.34,64.75 333.81,64.63 329.79,61.21
				324.85,57.01 326.45,46.65 322.69,44.18
				317.25,40.59 311.49,47.23 307.05,45.55
				302.32,43.75 304.91,40.25 297.00,32.00
				297.00,32.00 301.00,28.00 301.00,28.00
				295.43,28.59 289.08,29.97 284.00,32.37
				279.48,34.51 273.35,39.19 268.00,38.17
				264.23,37.45 261.79,34.03 257.96,32.22
				253.23,29.99 247.70,30.45 242.71,31.48
				237.95,32.47 235.73,35.36 232.00,36.20
				227.91,36.68 226.40,34.02 220.00,36.20
				220.00,36.20 211.00,41.35 211.00,41.35
				209.00,42.13 197.50,43.64 195.00,43.69
				191.82,43.75 188.80,45.10 187.24,44.57
				184.52,43.63 184.94,40.24 183.86,38.13
				182.83,36.12 180.60,34.57 179.00,33.00
				172.65,33.46 160.68,31.22 157.00,37.00
				152.55,33.17 151.98,31.27 146.00,30.00
				145.95,19.71 136.61,25.67 133.00,26.60
				133.00,26.60 127.00,26.60 127.00,26.60
				127.00,26.60 118.00,30.00 118.00,30.00 Z
			M 140.00,26.00
			C 140.00,26.00 142.00,31.00 142.00,31.00
				142.00,31.00 138.00,33.00 138.00,33.00
				136.48,29.07 136.20,28.21 140.00,26.00 Z
			M 351.00,104.00
			C 353.59,107.17 353.74,107.94 354.00,112.00
				351.39,109.35 350.06,107.80 351.00,104.00 Z
			M 330.00,156.00
			C 330.00,156.00 330.00,157.00 330.00,157.00
				330.00,157.00 329.00,156.00 329.00,156.00
				329.00,156.00 330.00,156.00 330.00,156.00 Z
			M 333.00,169.00
			C 333.00,169.00 334.00,178.00 334.00,178.00
				334.00,178.00 332.00,181.00 332.00,181.00
				332.00,181.00 329.00,180.00 329.00,180.00
				329.00,180.00 324.00,179.00 324.00,179.00
				327.28,173.85 327.62,172.22 333.00,169.00 Z
			M 330.00,181.00
			C 330.00,181.00 330.00,182.00 330.00,182.00
				330.00,182.00 329.00,181.00 329.00,181.00
				329.00,181.00 330.00,181.00 330.00,181.00 Z
			M 324.00,182.00
			C 324.00,182.00 324.00,183.00 324.00,183.00
				324.00,183.00 323.00,182.00 323.00,182.00
				323.00,182.00 324.00,182.00 324.00,182.00 Z
			M 324.00,184.00
			C 324.00,184.00 324.00,185.00 324.00,185.00
				324.00,185.00 323.00,184.00 323.00,184.00
				323.00,184.00 324.00,184.00 324.00,184.00 Z
			M 329.00,184.00
			C 329.00,184.00 329.00,185.00 329.00,185.00
				329.00,185.00 328.00,184.00 328.00,184.00
				328.00,184.00 329.00,184.00 329.00,184.00 Z
			M 278.00,185.00
			C 278.00,185.00 274.00,187.00 274.00,187.00
				274.00,187.00 278.00,185.00 278.00,185.00 Z
			M 329.00,186.00
			C 326.97,190.65 325.82,191.45 321.00,193.00
				322.22,188.10 323.43,185.30 329.00,186.00 Z
			M 248.00,211.00
			C 248.00,211.00 241.00,220.00 241.00,220.00
				241.00,220.00 241.00,212.00 241.00,212.00
				241.00,212.00 248.00,211.00 248.00,211.00 Z
			M 239.00,220.00
			C 239.00,220.00 239.00,221.00 239.00,221.00
				239.00,221.00 238.00,220.00 238.00,220.00
				238.00,220.00 239.00,220.00 239.00,220.00 Z
			M 229.00,225.00
			C 229.00,225.00 230.00,229.00 230.00,229.00
				230.00,229.00 229.00,225.00 229.00,225.00 Z
			M 222.00,236.00
			C 222.00,236.00 219.00,240.00 219.00,240.00
				219.00,240.00 222.00,236.00 222.00,236.00 Z
			M 224.00,267.00
			C 224.00,267.00 224.00,268.00 224.00,268.00
				224.00,268.00 223.00,267.00 223.00,267.00
				223.00,267.00 224.00,267.00 224.00,267.00 Z
			M 150.00,411.00
			C 150.00,411.00 155.00,412.00 155.00,412.00
				153.08,414.11 150.06,414.54 150.00,411.00 Z
			M 81.00,537.00
			C 81.00,537.00 81.00,538.00 81.00,538.00
				81.00,538.00 80.00,537.00 80.00,537.00
				80.00,537.00 81.00,537.00 81.00,537.00 Z
			M 81.00,539.00
			C 81.00,539.00 81.00,540.00 81.00,540.00
				81.00,540.00 80.00,539.00 80.00,539.00
				80.00,539.00 81.00,539.00 81.00,539.00 Z
			M 151.00,599.00
			C 151.00,599.00 151.00,600.00 151.00,600.00
				151.00,600.00 150.00,599.00 150.00,599.00
				150.00,599.00 151.00,599.00 151.00,599.00 Z
			M 148.00,605.00
			C 148.00,605.00 148.00,606.00 148.00,606.00
				148.00,606.00 147.00,605.00 147.00,605.00
				147.00,605.00 148.00,605.00 148.00,605.00 Z
			M 304.00,827.00
			C 304.00,827.00 307.00,828.00 307.00,828.00
				305.42,828.54 304.00,829.23 304.00,827.00 Z
			M 289.00,911.00
			C 284.73,909.57 283.81,909.62 283.00,905.00
				288.09,905.18 290.20,905.29 289.00,911.00 Z
			M 273.00,915.00
			C 273.00,915.00 273.00,920.00 273.00,920.00
				270.35,917.95 270.98,917.34 273.00,915.00 Z
			M 275.00,915.00
			C 275.00,915.00 275.00,916.00 275.00,916.00
				275.00,916.00 274.00,915.00 274.00,915.00
				274.00,915.00 275.00,915.00 275.00,915.00 Z
			M 282.00,997.00
			C 282.00,997.00 282.00,998.00 282.00,998.00
				282.00,998.00 281.00,997.00 281.00,997.00
				281.00,997.00 282.00,997.00 282.00,997.00 Z" />
	<path id="Bad"
			fill="#ff7034" stroke="black" stroke-width="1"
			d="M 599.00,139.00
			C 599.00,139.00 595.84,150.00 595.84,150.00
				594.20,153.12 591.56,154.84 590.57,157.28
				589.32,160.38 590.99,164.03 589.77,168.00
				589.77,168.00 585.77,176.00 585.77,176.00
				585.77,176.00 581.94,187.00 581.94,187.00
				581.94,187.00 576.34,199.00 576.34,199.00
				574.66,203.70 575.95,205.27 574.40,209.00
				572.46,213.64 568.65,216.17 568.11,226.00
				567.83,231.30 568.62,232.16 566.83,238.00
				564.69,244.96 561.34,245.29 559.56,249.28
				559.56,249.28 558.32,254.00 558.32,254.00
				558.32,254.00 556.53,259.00 556.53,259.00
				555.85,262.09 556.90,264.19 556.02,267.00
				554.55,271.69 549.17,274.81 547.02,279.00
				544.36,284.18 544.80,293.82 544.07,296.00
				542.68,300.17 539.10,302.06 538.51,307.00
				538.19,309.59 539.19,311.74 537.67,315.00
				535.89,318.82 532.65,320.16 530.85,324.09
				530.85,324.09 522.93,346.00 522.93,346.00
				522.93,346.00 521.77,352.00 521.77,352.00
				519.99,357.35 516.61,357.75 517.17,365.00
				517.47,368.85 518.68,375.25 518.16,379.00
				517.71,382.26 515.63,384.91 514.63,388.00
				512.86,393.49 510.29,408.26 510.00,414.00
				510.00,414.00 510.00,424.00 510.00,424.00
				509.12,427.38 506.20,430.23 506.48,434.00
				506.72,437.13 509.18,439.36 509.39,443.00
				509.85,447.57 506.79,453.27 509.39,463.00
				510.53,467.81 513.13,468.21 514.04,475.00
				514.71,480.01 512.89,483.97 513.02,489.00
				513.18,495.17 515.30,495.89 515.69,500.00
				515.69,500.00 515.00,516.00 515.00,516.00
				515.00,516.00 516.34,527.00 516.34,527.00
				516.25,530.72 513.96,532.75 514.26,537.00
				514.26,537.00 515.63,543.00 515.63,543.00
				515.63,543.00 517.69,562.00 517.69,562.00
				517.41,566.26 514.39,568.59 513.81,574.00
				513.81,574.00 513.81,583.00 513.81,583.00
				513.81,583.00 511.84,592.00 511.84,592.00
				511.76,595.66 513.56,598.15 513.17,603.00
				512.28,613.88 514.00,610.91 514.08,618.00
				514.08,618.00 512.63,637.00 512.63,637.00
				512.68,640.95 514.36,642.83 514.14,646.00
				513.90,649.56 511.24,652.42 510.01,656.00
				510.01,656.00 504.52,679.00 504.52,679.00
				503.46,684.62 505.43,686.22 505.15,690.00
				504.90,693.38 502.84,695.59 502.18,699.00
				502.18,699.00 502.18,706.00 502.18,706.00
				502.18,706.00 499.41,714.00 499.41,714.00
				499.41,714.00 498.82,721.00 498.82,721.00
				498.82,721.00 490.77,738.00 490.77,738.00
				490.77,738.00 478.24,769.00 478.24,769.00
				473.71,778.03 469.27,774.88 464.86,779.31
				461.25,782.93 458.32,787.16 453.96,790.04
				449.89,792.73 446.32,793.04 442.00,796.39
				442.00,796.39 424.96,812.58 424.96,812.58
				421.09,815.43 419.41,814.46 416.00,815.85
				416.00,815.85 409.00,820.20 409.00,820.20
				403.80,822.80 402.45,820.86 398.00,820.20
				392.66,819.76 385.80,822.41 383.00,827.00
				390.95,825.44 394.65,827.91 399.84,833.58
				401.27,835.14 402.59,836.13 403.46,838.13
				404.94,841.58 404.56,845.42 404.00,849.00
				387.59,846.91 390.33,843.73 371.00,845.00
				371.00,845.00 368.00,843.00 368.00,843.00
				365.51,854.75 375.06,856.72 379.39,862.09
				381.59,864.83 386.77,873.61 387.58,877.04
				387.58,877.04 389.14,889.00 389.14,889.00
				390.61,893.74 394.08,896.98 393.89,900.99
				393.78,903.32 392.30,905.19 391.45,907.28
				390.18,910.41 389.66,912.77 387.71,915.79
				384.45,920.87 378.03,925.24 372.00,925.00
				372.00,925.00 377.96,940.00 377.96,940.00
				377.96,940.00 381.65,946.00 381.65,946.00
				381.65,946.00 382.95,956.00 382.95,956.00
				382.95,956.00 388.00,966.00 388.00,966.00
				392.29,965.72 399.36,965.14 398.99,959.00
				398.99,959.00 395.00,948.00 395.00,948.00
				398.60,946.15 398.83,945.87 400.00,942.00
				400.00,942.00 403.00,943.00 403.00,943.00
				403.00,943.00 402.00,946.00 402.00,946.00
				403.28,946.75 404.53,947.67 406.00,948.03
				409.49,948.89 416.88,944.41 418.92,941.61
				420.14,939.94 420.53,937.97 421.00,936.00
				421.00,936.00 418.00,935.00 418.00,935.00
				418.00,935.00 417.00,927.00 417.00,927.00
				421.10,929.64 422.15,930.00 422.00,935.00
				426.73,934.25 427.49,932.83 429.15,932.71
				431.80,932.53 438.91,938.21 441.00,940.00
				446.73,934.59 443.68,932.12 457.00,932.00
				457.00,932.00 458.00,926.00 458.00,926.00
				460.53,931.02 461.30,932.32 467.00,933.00
				467.00,933.00 468.00,937.00 468.00,937.00
				473.62,930.86 468.29,929.84 467.05,923.99
				465.77,917.94 470.26,914.26 463.00,910.00
				464.20,906.25 467.05,901.21 466.59,897.58
				465.84,891.69 461.12,889.56 464.00,883.00
				464.00,883.00 461.00,882.00 461.00,882.00
				464.04,874.33 471.58,872.39 478.19,877.17
				481.41,879.49 482.46,882.27 485.18,884.50
				488.60,887.31 492.16,887.26 495.32,890.01
				500.28,894.34 501.19,905.19 499.00,911.00
				502.24,912.90 503.77,915.67 507.00,916.37
				510.42,917.12 520.35,911.81 521.81,908.74
				522.85,906.53 521.63,903.22 521.00,901.00
				524.43,899.49 531.60,893.79 532.13,889.96
				532.13,889.96 527.32,872.00 527.32,872.00
				526.64,867.45 527.52,866.66 527.32,863.04
				527.32,863.04 527.32,858.00 527.32,858.00
				527.32,858.00 522.00,856.00 522.00,856.00
				520.23,850.42 515.90,848.73 516.78,844.00
				517.78,838.66 524.32,836.24 529.00,835.31
				529.00,835.31 541.00,833.57 541.00,833.57
				541.00,833.57 569.00,827.87 569.00,827.87
				633.17,812.30 684.98,785.02 732.00,738.00
				744.91,725.09 757.59,710.04 767.98,695.00
				777.86,680.68 776.43,679.32 785.00,682.00
				785.00,682.00 785.00,684.00 785.00,684.00
				785.00,684.00 781.00,685.00 781.00,685.00
				781.00,685.00 780.00,693.00 780.00,693.00
				780.00,693.00 784.00,697.00 784.00,697.00
				784.00,697.00 781.00,698.00 781.00,698.00
				782.01,699.73 784.44,704.83 784.52,706.58
				784.96,708.65 783.87,710.70 784.52,712.89
				785.04,715.98 787.23,716.03 789.26,717.74
				794.42,722.08 791.85,723.38 803.00,726.00
				803.00,726.00 802.00,728.00 802.00,728.00
				802.00,728.00 801.00,728.00 801.00,728.00
				801.00,728.00 805.00,731.00 805.00,731.00
				805.00,731.00 806.00,723.00 806.00,723.00
				816.70,720.74 823.14,714.35 823.42,703.00
				823.42,703.00 822.47,694.00 822.47,694.00
				821.90,686.94 826.92,682.14 825.00,674.00
				825.00,674.00 829.17,673.00 829.17,673.00
				829.17,673.00 829.17,659.00 829.17,659.00
				828.91,656.63 827.33,654.24 826.36,652.00
				823.51,645.44 822.72,642.18 817.00,637.00
				819.56,632.16 820.18,627.34 819.00,622.00
				819.00,622.00 830.00,620.00 830.00,620.00
				831.34,624.86 833.91,627.45 839.00,628.00
				839.00,628.00 838.00,632.00 838.00,632.00
				838.00,632.00 850.00,634.88 850.00,634.88
				850.00,634.88 858.00,637.00 858.00,637.00
				858.00,637.00 860.00,623.00 860.00,623.00
				860.00,623.00 854.00,623.00 854.00,623.00
				853.35,621.08 852.28,618.43 852.25,616.44
				852.20,613.92 853.55,611.04 854.78,608.91
				858.51,602.45 859.38,602.48 866.00,601.12
				873.06,599.93 870.41,599.46 878.00,601.12
				878.00,601.12 882.00,598.00 882.00,598.00
				879.22,588.26 885.67,591.24 889.71,585.75
				892.03,582.60 891.71,579.63 892.00,576.00
				892.00,576.00 884.00,569.00 884.00,569.00
				886.26,566.40 888.81,562.29 884.00,561.00
				884.00,561.00 883.00,560.00 883.00,560.00
				883.00,560.00 884.00,558.00 884.00,558.00
				884.00,558.00 879.00,559.00 879.00,559.00
				879.00,559.00 876.00,557.00 876.00,557.00
				874.28,548.84 874.68,549.13 870.00,542.00
				870.00,542.00 872.84,541.00 872.84,541.00
				872.84,541.00 872.84,535.91 872.84,535.91
				872.13,532.41 869.58,529.02 871.69,526.72
				872.47,525.87 876.64,524.57 878.00,524.00
				878.00,524.00 875.00,520.00 875.00,520.00
				875.00,520.00 876.00,522.00 876.00,522.00
				873.46,519.22 874.82,518.32 876.00,515.00
				876.00,515.00 871.00,511.00 871.00,511.00
				871.00,511.00 864.00,511.00 864.00,511.00
				864.00,511.00 865.00,506.00 865.00,506.00
				865.00,506.00 860.00,508.00 860.00,508.00
				860.00,508.00 862.00,511.00 862.00,511.00
				858.83,516.06 855.81,521.95 855.12,528.00
				854.86,531.54 855.97,537.21 855.12,539.95
				853.86,543.34 851.18,544.06 848.30,547.13
				843.51,552.24 844.10,553.83 844.79,560.00
				845.33,564.86 843.24,565.36 843.54,570.00
				844.17,579.79 852.50,582.42 845.00,588.00
				845.00,588.00 850.00,596.00 850.00,596.00
				850.00,596.00 839.00,598.00 839.00,598.00
				839.00,598.00 836.00,596.00 836.00,596.00
				832.85,592.42 828.99,598.02 823.42,596.89
				823.42,596.89 816.00,594.00 816.00,594.00
				816.00,594.00 823.57,558.00 823.57,558.00
				823.57,558.00 825.83,541.00 825.83,541.00
				825.83,541.00 826.48,534.01 826.48,534.01
				827.69,528.29 830.11,528.52 831.35,522.01
				831.35,522.01 833.26,502.00 833.26,502.00
				834.30,495.97 838.20,486.89 845.82,489.93
				847.68,490.67 848.82,491.45 850.00,493.00
				850.00,493.00 856.00,491.00 856.00,491.00
				861.78,495.39 871.95,497.58 876.00,490.00
				883.11,491.15 891.03,490.06 893.00,499.00
				893.00,499.00 900.00,500.00 900.00,500.00
				900.00,500.00 900.00,498.00 900.00,498.00
				909.52,503.54 904.47,503.20 916.00,504.23
				918.23,504.35 919.71,504.75 922.00,504.23
				922.00,504.23 930.99,501.05 930.99,501.05
				936.34,500.17 938.29,502.18 940.60,501.05
				943.45,499.26 944.08,493.04 946.81,489.04
				949.88,484.55 953.25,484.67 956.40,479.70
				962.08,470.75 957.45,464.11 964.19,460.00
				964.19,460.00 964.19,439.00 964.19,439.00
				967.37,426.56 968.00,430.55 970.12,425.74
				970.12,425.74 975.27,408.00 975.27,408.00
				975.61,404.99 974.26,403.82 974.00,400.00
				974.00,400.00 969.00,401.00 969.00,401.00
				969.65,396.44 969.41,392.35 964.00,392.00
				964.00,392.00 960.00,384.00 960.00,384.00
				952.78,384.47 950.20,381.57 944.00,379.00
				944.00,379.00 946.00,373.00 946.00,373.00
				946.00,373.00 951.00,373.00 951.00,373.00
				950.18,364.91 949.69,368.16 953.00,361.00
				953.00,361.00 957.00,363.00 957.00,363.00
				960.86,355.96 962.97,352.27 956.00,346.00
				956.00,346.00 950.00,352.00 950.00,352.00
				950.00,352.00 949.00,347.00 949.00,347.00
				949.00,347.00 954.00,347.00 954.00,347.00
				955.34,342.32 955.45,334.53 952.43,330.44
				950.95,328.43 950.19,328.77 947.00,324.00
				947.00,324.00 939.00,324.00 939.00,324.00
				936.33,333.18 931.91,330.10 933.00,341.00
				933.00,341.00 923.00,338.54 923.00,338.54
				923.00,338.54 907.91,339.80 907.91,339.80
				907.91,339.80 902.01,343.50 902.01,343.50
				902.01,343.50 896.27,348.14 896.27,348.14
				896.27,348.14 892.00,361.00 892.00,361.00
				892.00,361.00 894.00,358.00 894.00,358.00
				899.55,360.32 900.06,360.33 905.00,357.00
				905.00,357.00 904.00,367.00 904.00,367.00
				904.00,367.00 901.00,366.00 901.00,366.00
				900.87,376.05 898.36,373.26 896.61,378.17
				894.64,383.69 900.10,385.34 892.00,389.00
				891.83,398.47 884.80,407.61 888.02,412.53
				889.33,414.53 892.88,416.00 895.00,417.00
				895.00,417.00 893.00,425.00 893.00,425.00
				893.00,425.00 882.00,423.96 882.00,423.96
				882.00,423.96 866.00,420.00 866.00,420.00
				863.09,423.11 863.59,423.95 863.00,428.00
				863.00,428.00 862.00,425.00 862.00,425.00
				862.00,425.00 857.00,425.00 857.00,425.00
				857.00,425.00 858.00,422.00 858.00,422.00
				858.00,422.00 855.00,421.00 855.00,421.00
				855.00,421.00 856.00,417.00 856.00,417.00
				856.00,417.00 851.00,415.00 851.00,415.00
				855.52,410.71 857.48,407.88 864.00,409.00
				866.99,406.91 867.93,406.94 870.00,410.00
				877.41,407.44 873.86,399.56 885.00,398.00
				885.00,398.00 878.49,379.00 878.49,379.00
				878.49,379.00 876.70,368.24 876.70,368.24
				876.70,368.24 869.00,360.00 869.00,360.00
				865.93,361.07 866.07,360.93 865.00,364.00
				862.45,358.98 861.77,357.58 863.00,352.00
				863.00,352.00 865.00,353.00 865.00,353.00
				866.23,345.88 862.29,346.42 857.00,348.00
				856.03,341.28 857.51,339.92 864.00,338.00
				864.00,338.00 863.00,335.00 863.00,335.00
				863.00,335.00 864.00,335.00 864.00,335.00
				864.00,335.00 866.00,337.00 866.00,337.00
				869.03,334.38 869.36,333.98 870.00,330.00
				870.00,330.00 868.00,332.00 868.00,332.00
				868.00,332.00 864.00,329.00 864.00,329.00
				864.88,324.53 865.11,321.67 861.00,319.00
				861.00,319.00 864.00,318.00 864.00,318.00
				862.95,312.52 860.74,304.04 855.07,302.00
				855.11,300.68 855.34,299.34 855.07,298.02
				853.70,289.14 845.76,294.59 840.73,293.49
				837.38,292.75 833.22,290.13 830.01,288.69
				830.01,288.69 823.04,286.51 823.04,286.51
				818.84,284.22 817.84,278.30 818.00,274.00
				818.00,274.00 808.10,268.00 808.10,268.00
				808.11,267.17 808.53,266.69 808.10,265.25
				807.85,263.74 801.53,254.07 798.27,254.30
				795.89,254.46 795.48,257.83 792.95,258.21
				789.68,259.21 788.33,254.88 785.00,258.21
				785.00,258.21 792.00,250.00 792.00,250.00
				784.84,247.13 771.77,249.86 766.97,256.41
				765.78,258.03 764.46,262.84 763.58,265.00
				762.76,267.03 761.02,269.94 760.68,271.91
				760.38,273.61 762.24,281.16 763.17,282.59
				764.06,283.94 764.78,284.17 766.00,285.00
				762.67,292.50 763.03,292.36 765.00,300.00
				765.00,300.00 751.17,291.56 751.17,291.56
				751.17,291.56 739.83,279.00 739.83,279.00
				739.83,279.00 721.00,260.28 721.00,260.28
				695.13,237.49 674.82,223.16 644.00,207.75
				636.08,203.79 627.25,198.88 619.00,196.00
				624.57,182.25 628.71,182.68 632.00,176.00
				628.80,175.27 627.22,175.03 624.32,177.00
				622.21,178.44 620.18,182.15 617.24,180.26
				615.84,179.36 615.02,177.52 614.57,176.00
				614.57,176.00 614.00,172.00 614.00,172.00
				614.00,172.00 609.00,173.00 609.00,173.00
				609.00,173.00 602.81,166.86 602.81,166.86
				602.81,166.86 602.81,155.00 602.81,155.00
				602.81,155.00 607.00,155.00 607.00,155.00
				606.90,147.77 607.04,142.01 599.00,139.00 Z
			M 616.00,191.00
			C 616.00,191.00 616.00,192.00 616.00,192.00
				616.00,192.00 615.00,191.00 615.00,191.00
				615.00,191.00 616.00,191.00 616.00,191.00 Z
			M 950.00,358.00
			C 950.00,358.00 950.00,359.00 950.00,359.00
				950.00,359.00 949.00,358.00 949.00,358.00
				949.00,358.00 950.00,358.00 950.00,358.00 Z
			M 850.00,449.00
			C 850.00,449.00 857.00,458.00 857.00,458.00
				857.00,458.00 856.00,462.00 856.00,462.00
				851.56,459.77 850.29,460.94 848.31,459.74
				844.06,457.17 846.92,451.25 850.00,449.00 Z
			M 845.00,457.00
			C 845.00,457.00 845.00,458.00 845.00,458.00
				845.00,458.00 844.00,457.00 844.00,457.00
				844.00,457.00 845.00,457.00 845.00,457.00 Z
			M 850.00,481.00
			C 850.00,481.00 850.00,482.00 850.00,482.00
				850.00,482.00 849.00,481.00 849.00,481.00
				849.00,481.00 850.00,481.00 850.00,481.00 Z
			M 864.00,509.00
			C 864.00,509.00 864.00,510.00 864.00,510.00
				864.00,510.00 863.00,509.00 863.00,509.00
				863.00,509.00 864.00,509.00 864.00,509.00 Z
			M 864.00,511.00
			C 864.00,511.00 864.00,512.00 864.00,512.00
				864.00,512.00 863.00,511.00 863.00,511.00
				863.00,511.00 864.00,511.00 864.00,511.00 Z
			M 835.00,598.00
			C 835.85,601.68 835.71,601.68 834.00,605.00
				834.00,605.00 830.00,604.00 830.00,604.00
				830.00,604.00 833.00,598.00 833.00,598.00
				833.00,598.00 835.00,598.00 835.00,598.00 Z
			M 831.00,599.00
			C 831.00,599.00 831.00,600.00 831.00,600.00
				831.00,600.00 830.00,599.00 830.00,599.00
				830.00,599.00 831.00,599.00 831.00,599.00 Z
			M 814.00,673.00
			C 814.00,673.00 811.00,674.00 811.00,674.00
				811.00,674.00 809.00,679.00 809.00,679.00
				809.00,679.00 806.00,677.00 806.00,677.00
				806.00,677.00 807.00,681.00 807.00,681.00
				804.44,678.68 805.22,676.29 805.00,673.00
				805.00,673.00 814.00,673.00 814.00,673.00 Z
			M 809.00,680.00
			C 809.00,680.00 809.00,681.00 809.00,681.00
				809.00,681.00 808.00,680.00 808.00,680.00
				808.00,680.00 809.00,680.00 809.00,680.00 Z
			M 804.00,725.00
			C 804.00,725.00 804.00,726.00 804.00,726.00
				804.00,726.00 803.00,725.00 803.00,725.00
				803.00,725.00 804.00,725.00 804.00,725.00 Z
			M 806.00,725.00
			C 806.00,725.00 806.00,726.00 806.00,726.00
				806.00,726.00 805.00,725.00 805.00,725.00
				805.00,725.00 806.00,725.00 806.00,725.00 Z
			M 403.00,895.00
			C 403.00,895.00 403.00,896.00 403.00,896.00
				403.00,896.00 402.00,895.00 402.00,895.00
				402.00,895.00 403.00,895.00 403.00,895.00 Z" />
	<path id="River" fill="#63b400" stroke="black" stroke-width="1" d="M 573.00,120.00 C 572.44,125.03 573.95,129.86 574.05,134.96 574.26,145.21 568.02,142.83 566.15,151.00 564.83,156.79 566.98,156.38 563.03,168.00 563.03,168.00 556.65,183.00 556.65,183.00 556.65,183.00 553.72,189.00 553.72,189.00 553.72,189.00 550.44,206.00 550.44,206.00 549.11,210.01 545.25,213.42 543.82,219.00 543.82,219.00 542.64,230.00 542.64,230.00 541.44,234.62 536.65,239.84 534.12,245.00 531.61,250.14 531.25,256.39 532.00,262.00 523.59,265.69 525.77,268.94 524.08,276.00 524.08,276.00 521.69,281.98 521.69,281.98 521.69,281.98 520.31,290.04 520.31,290.04 516.14,303.84 511.80,305.64 509.22,312.00 507.04,317.40 509.29,320.54 506.46,325.91 506.46,325.91 501.13,333.04 501.13,333.04 499.67,335.65 494.60,349.12 494.23,352.00 494.23,352.00 494.23,361.00 494.23,361.00 494.04,367.92 495.94,370.18 489.84,375.00 489.84,375.00 489.84,387.58 489.84,387.58 488.81,389.76 485.49,392.62 484.79,397.00 484.79,397.00 486.31,415.09 486.31,415.09 486.10,427.56 483.35,428.80 483.34,434.00 483.34,434.00 486.25,453.00 486.25,453.00 486.25,453.00 486.25,466.00 486.25,466.00 486.08,476.30 490.34,473.82 491.50,491.28 491.83,496.36 489.75,498.23 490.12,503.00 490.49,507.72 492.85,508.86 492.94,512.28 492.94,512.28 491.63,522.00 491.63,522.00 491.63,522.00 492.81,530.00 492.81,530.00 492.81,530.00 490.69,546.99 490.69,546.99 490.69,546.99 491.73,564.00 491.73,564.00 491.78,567.71 489.88,569.43 489.66,573.00 489.66,573.00 489.66,589.00 489.66,589.00 489.66,589.00 488.49,605.00 488.49,605.00 488.49,605.00 490.05,613.00 490.05,613.00 490.98,621.98 490.16,630.14 489.52,639.00 489.22,643.03 486.86,655.01 485.71,659.00 484.01,664.88 482.21,666.65 484.00,673.00 475.47,677.93 478.11,682.70 477.88,688.00 477.79,690.33 477.05,692.12 477.30,694.71 477.30,694.71 478.66,700.59 478.66,700.59 478.53,702.39 476.63,704.82 475.84,706.84 475.84,706.84 472.81,716.57 472.81,716.57 471.38,719.70 469.21,720.72 467.60,725.04 467.60,725.04 462.65,747.49 462.65,747.49 462.65,747.49 447.63,762.15 447.63,762.15 447.63,762.15 441.59,765.25 441.59,765.25 437.12,768.27 436.06,772.38 430.99,776.79 426.04,781.08 424.29,779.64 419.99,782.66 414.99,786.17 412.91,792.12 407.00,794.34 401.63,796.35 397.27,794.38 393.00,795.30 388.31,796.31 379.52,801.60 375.00,803.71 368.64,806.69 360.91,804.88 356.00,817.00 356.00,817.00 369.00,820.00 369.00,820.00 369.00,820.00 368.00,822.00 368.00,822.00 372.02,824.76 376.96,827.12 382.00,825.82 385.99,824.79 391.63,819.84 398.00,820.60 400.91,820.95 402.71,822.16 406.00,821.57 410.28,820.80 413.26,817.36 417.00,815.85 420.41,814.46 422.16,815.42 425.91,812.58 425.91,812.58 442.00,797.21 442.00,797.21 447.46,792.60 451.14,792.95 455.83,789.38 460.17,786.08 465.08,779.62 466.37,778.58 469.52,776.06 472.98,777.14 476.49,772.87 479.33,769.42 486.97,749.29 488.86,744.00 488.86,744.00 498.95,722.00 498.95,722.00 499.88,718.84 499.08,716.91 499.72,714.00 499.72,714.00 502.48,706.00 502.48,706.00 502.48,706.00 502.48,699.00 502.48,699.00 503.15,696.14 505.28,693.51 505.49,690.00 505.71,686.33 503.84,684.66 504.55,680.00 504.55,680.00 510.01,657.00 510.01,657.00 511.64,652.24 515.11,649.51 514.39,644.00 513.80,639.49 512.79,640.68 512.96,634.00 512.96,634.00 514.37,617.00 514.37,617.00 514.37,617.00 512.92,608.00 512.92,608.00 512.92,608.00 513.45,600.00 513.45,600.00 513.17,597.34 511.80,593.96 512.01,591.41 512.22,588.82 513.73,587.37 514.06,582.00 514.08,579.10 513.51,575.50 514.06,572.83 515.16,568.84 517.63,566.66 517.86,562.00 517.86,562.00 515.63,542.00 515.63,542.00 515.63,542.00 514.50,537.00 514.50,537.00 514.23,533.15 516.59,530.90 516.63,527.00 516.67,524.05 515.08,521.71 515.00,515.00 515.00,515.00 515.76,499.00 515.76,499.00 515.23,495.12 513.29,493.76 513.07,489.00 512.79,482.98 515.24,482.03 514.23,475.00 512.95,466.06 510.26,467.15 509.11,461.00 507.41,451.94 510.18,445.73 509.62,442.00 509.05,438.24 506.68,436.12 506.86,433.00 507.03,430.06 509.66,427.40 510.22,424.00 510.22,424.00 510.22,414.00 510.22,414.00 510.22,414.00 511.99,400.00 511.99,400.00 513.61,390.66 518.05,381.65 518.36,380.00 518.36,380.00 517.35,362.00 517.35,362.00 518.05,358.35 520.77,356.60 522.18,352.00 522.18,352.00 525.31,340.00 525.31,340.00 525.31,340.00 528.76,332.00 528.76,332.00 528.76,332.00 530.85,325.04 530.85,325.04 532.75,320.77 535.76,319.90 537.69,315.99 539.30,312.71 538.50,311.12 538.76,308.00 539.23,302.41 543.07,301.06 544.42,296.00 545.13,293.31 544.57,284.77 547.02,280.00 549.14,275.87 554.37,272.83 556.10,268.00 556.74,266.20 556.38,257.47 559.58,250.17 560.68,247.67 562.93,246.14 564.50,243.96 566.51,241.16 568.08,235.46 568.37,232.00 568.78,227.10 567.32,225.09 570.01,218.00 570.01,218.00 574.84,209.00 574.84,209.00 576.21,205.26 575.03,203.83 576.77,199.00 576.77,199.00 581.94,188.00 581.94,188.00 581.94,188.00 585.77,177.00 585.77,177.00 585.77,177.00 589.84,169.00 589.84,169.00 591.55,164.14 589.37,161.48 590.61,158.17 591.79,155.03 594.90,154.07 596.89,149.00 598.31,144.25 599.24,136.75 596.89,132.02 594.61,126.44 586.82,127.71 583.00,131.00 583.00,131.00 582.00,128.00 582.00,128.00 582.00,128.00 585.00,127.00 585.00,127.00 585.00,127.00 579.07,125.00 579.07,125.00 579.21,123.29 579.41,122.83 579.07,121.00 578.98,119.91 578.55,118.24 577.90,117.33 574.80,112.97 567.18,118.47 573.00,120.00 Z M 574.00,123.00 C 574.00,123.00 574.00,124.00 574.00,124.00 574.00,124.00 573.00,123.00 573.00,123.00 573.00,123.00 574.00,123.00 574.00,123.00 Z M 327.00,860.00 C 325.57,867.61 329.80,868.08 326.00,873.00 326.00,873.00 326.00,883.00 326.00,883.00 326.00,883.00 331.30,888.17 331.30,888.17 331.30,888.17 336.00,907.00 336.00,907.00 344.19,914.69 340.77,921.19 343.01,926.83 344.61,930.86 348.07,931.39 349.80,936.04 352.14,942.35 349.21,946.03 357.00,951.00 356.99,955.03 357.87,955.45 358.61,959.00 360.03,965.81 357.59,967.67 364.00,973.00 364.00,973.00 366.00,964.00 366.00,964.00 366.00,964.00 378.00,966.66 378.00,966.66 378.00,966.66 388.00,966.00 388.00,966.00 388.00,966.00 383.30,956.00 383.30,956.00 382.20,952.46 383.14,949.94 382.40,947.00 381.53,943.56 379.45,941.91 377.96,939.00 374.94,933.09 374.50,927.34 369.00,922.00 365.39,927.48 359.43,932.46 353.00,934.00 353.58,928.98 354.18,928.27 358.00,925.00 358.00,925.00 356.00,919.00 356.00,919.00 356.00,919.00 353.00,922.00 353.00,922.00 353.00,922.00 350.00,919.00 350.00,919.00 350.00,919.00 353.00,918.00 353.00,918.00 352.69,907.84 365.54,909.76 360.00,902.00 363.32,897.53 365.58,895.64 366.00,890.00 366.00,890.00 351.96,878.94 351.96,878.94 351.96,878.94 341.00,880.00 341.00,880.00 340.57,873.04 331.51,865.60 327.00,860.00 Z" />
	<circle cx="923" cy="374" r="13" stroke-width="0.1" stroke="#777" fill="#aaa" />
	<circle cx="923" cy="374" r="11.2" stroke-width="0.3" stroke="#d11" fill="none" />
	<circle cx="923" cy="374" r="11" stroke-width="0.1" stroke="#777" fill="#aaa" />
	<circle cx="923" cy="374" r="6.2" stroke-width="0.3" stroke="#d11" fill="none" />
	<circle cx="923" cy="374" r="6" stroke-width="0.1" stroke="#777" fill="#aaa" />
	<rect x="0" y="0" width="1024" height="1024" fill="url(#map-grid)"/>
</svg>