<svg xmlns="http://www.w3.org/2000/svg" width="300" height="316">
	<defs>
		<pattern id="map-grid" width="1" height="1" patternUnits="userSpaceOnUse">
		<path d="M 0 0 L 1 0 1 1 0 1 z" stroke="#000" stroke-width="0.05" fill="none"></path></pattern>
	</defs>
    <g id="map" stroke="#2A0D25" stroke-width="0.25">
		<g id="roads" fill="none">
			<path d="M150 295 L 150 252 Q111, 237, 80, 217 Q75, 213, 70, 158 M45, 157 Q99,158 149, 164 M149, 166 L197, 164 Q213, 163 224,133 A14,14 0 0,0 224,105 A14,14 0 0,0 224,133 M150 252 Q147,166 150,80" stroke-width="3.5"/>
			<path d="M150 295 L 150 252 Q111, 237, 80, 217 Q75, 213, 70, 158 M45, 157 Q99,158 149, 164 M149, 166 L197, 164 Q213, 163 224,133 A14,14 0 0,0 224,105 A14,14 0 0,0 224,133 M150 252 Q147,166 150,80" stroke="#9b9b9b" stroke-width="3"/>
		</g>
		<polygon id="castle" points="105, 35, 126, 35, 126, 15, 174, 15, 174, 35, 195, 35, 195, 82, 165, 82, 165, 84, 135,84, 135,82, 105,82" fill="#A4878E"/>
		<polygon id="barracks" points="30, 74, 30, 108, 68, 108, 68, 104, 73, 104, 73, 78, 68, 78, 68, 74" fill="#A4878E"/>
		<g id="shops" fill="#CC00cc" class="poi">
			<rect id="shops1" width="12" height="12" x="43" y="113" />
			<rect id="shops1" width="12" height="12" x="56" y="113" />
			<rect id="shops1" width="12" height="12" x="43" y="126" />
			<rect id="shops1" width="12" height="12" x="56" y="126" />
			<rect id="shops1" width="27" height="7" x="10" y="132" />
			<rect id="shops1" width="26" height="7" x="10" y="140" />
			<rect id="shops1" width="27" height="7" x="9" y="148" />
			<rect id="shops1" width="27" height="7" x="9" y="156" />
			<rect id="shops1" width="27" height="7" x="10" y="164" />
            <polygon id="lowershops" points="37, 179, 43, 179, 43, 170, 66, 170, 66, 193, 37, 193"/>
		</g>
		<g id="wealthy" fill="#0243ba">
			<rect id="mansion1" width="37" height="17" x="206" y="73" />
			<rect id="mansion2" width="37" height="17" x="171" y="92" />
			<rect id="mansion3" width="37" height="17" x="168" y="111" />
			<rect id="mansion4" width="37" height="17" x="171" y="130" />
			<rect id="mansion5" width="37" height="17" x="241" y="92" />
			<rect id="mansion6" width="37" height="17" x="244" y="111" />
			<rect id="mansion7" width="37" height="17" x="241" y="130" />
			<g id="fountain">
				<circle cx="224" cy="119" r="8.5" fill="#bbb" />
				<circle cx="224" cy="119" r="7.5" fill="#aac" />
				<circle cx="224" cy="119" r="3" fill="#bbb" />
				<circle cx="224" cy="119" r="5" fill="rgba(100,100,200,0.3)" />
			</g>
		</g>
		<path id="barracks" fill="#ff0084" d="M80 279
		L 80 254
		L 87 247
		L 122 247
		L 129 254
		L 129 290
		L 121 293
		L 98 287
		"/>
		<g id="slums">
            <path id="slumhouses" d="M158, 170, L188, 168, L216, 168, L234, 166, L292, 166 Q273,278, 160, 293 Z" fill="#ff0000" />
		</g>
		<g id="slum-roads">
			<path d="M152 262
			L 166 258
			Q193, 258, 217, 254
			Q218, 248, 217, 239
			" fill="none" stroke="#bc7e5b" stroke-width="2"/>
			<path id="Selection #1"
        fill="#bc7e5b"  stroke="#bc7e5b" stroke-width="0.1"
        d="M 216.00,162.00
           C 216.00,162.00 218.00,177.00 218.00,177.00
             218.00,177.00 203.00,177.00 203.00,177.00
             203.00,177.00 173.00,179.00 173.00,179.00
             173.00,179.00 151.00,179.00 151.00,179.00
             151.00,179.00 151.00,181.00 151.00,181.00
             151.00,181.00 174.00,181.00 174.00,181.00
             174.00,181.00 205.00,179.00 205.00,179.00
             205.00,179.00 218.00,179.00 218.00,179.00
             218.00,179.00 217.04,189.00 217.04,189.00
             217.04,189.00 217.04,202.04 217.04,202.04
             217.04,202.04 200.00,202.04 200.00,202.04
             200.00,202.04 193.00,202.91 193.00,202.91
             193.00,202.91 180.00,202.04 180.00,202.04
             180.00,202.04 168.00,203.00 168.00,203.00
             168.00,203.00 166.79,225.00 166.79,225.00
             167.10,232.85 170.50,248.47 166.79,254.89
             162.51,261.58 156.10,257.72 152.00,263.00
             152.00,263.00 168.00,260.17 168.00,260.17
             168.00,260.17 200.00,258.00 200.00,258.00
             203.79,257.67 215.85,256.95 218.07,254.42
             221.31,250.92 218.66,234.97 218.07,230.00
             218.07,230.00 227.00,229.08 227.00,229.08
             227.00,229.08 237.00,229.97 237.00,229.97
             237.00,229.97 246.00,229.26 246.00,229.26
             246.00,229.26 254.00,230.85 254.00,230.85
             254.00,230.85 265.00,230.85 265.00,230.85
             265.00,230.85 266.91,218.00 266.91,218.00
             267.08,215.53 266.72,210.20 267.60,208.22
             269.11,204.83 272.12,205.83 274.44,201.86
             279.52,193.17 277.08,186.10 277.00,177.04
             277.00,177.04 267.00,177.04 267.00,177.04
             267.00,177.04 259.00,177.92 259.00,177.92
             259.00,177.92 246.00,177.00 246.00,177.00
             246.00,177.00 220.00,177.00 220.00,177.00
             220.00,170.59 220.83,166.90 216.00,162.00 Z
           M 275.00,179.00
           C 275.30,185.49 277.44,197.18 271.49,202.05
             267.15,205.77 255.09,202.07 249.00,202.05
             249.00,202.05 219.04,202.05 219.04,202.05
             219.04,202.05 219.04,189.00 219.04,189.00
             219.04,189.00 220.00,179.00 220.00,179.00
             220.00,179.00 248.00,179.00 248.00,179.00
             248.00,179.00 258.00,179.91 258.00,179.91
             258.00,179.91 275.00,179.00 275.00,179.00 Z
           M 217.00,204.00
           C 217.00,204.00 216.00,228.00 216.00,228.00
             216.00,228.00 184.00,228.00 184.00,228.00
             184.00,228.00 184.00,230.00 184.00,230.00
             184.00,230.00 216.00,230.00 216.00,230.00
             216.54,234.08 218.89,249.66 216.83,252.47
             214.83,255.18 208.19,255.00 205.00,255.42
             205.00,255.42 183.00,257.09 183.00,257.09
             183.00,257.09 168.00,258.00 168.00,258.00
             168.00,258.00 170.59,249.00 170.59,249.00
             170.59,249.00 169.00,221.00 169.00,221.00
             169.00,221.00 170.00,205.00 170.00,205.00
             170.00,205.00 182.00,204.04 182.00,204.04
             182.00,204.04 190.00,204.91 190.00,204.91
             190.00,204.91 203.00,204.00 203.00,204.00
             203.00,204.00 217.00,204.00 217.00,204.00 Z
           M 265.00,206.00
           C 265.00,210.36 265.58,225.35 262.26,228.01
             259.10,230.55 250.69,227.70 247.00,227.34
             247.00,227.34 237.00,227.97 237.00,227.97
             237.00,227.97 227.00,227.08 227.00,227.08
             227.00,227.08 218.00,228.00 218.00,228.00
             218.00,228.00 219.00,204.00 219.00,204.00
             234.49,204.00 249.71,203.21 265.00,206.00 Z" />
		</g>
		<g id="walls">
			<circle cx="150" cy="152" r="145" stroke="black" stroke-width="5" fill="none" />
			<circle cx="150" cy="152" r="145" stroke="gray" stroke-width="4" fill="none" />
			<circle cx="150" cy="150" r="145" stroke="black" stroke-width="5" fill="none" />
			<circle cx="150" cy="150" r="145" stroke="gray" stroke-width="4" fill="none" />
			<circle cx="130" cy="302" r="8" stroke="black" stroke-width="5" fill="none" />
			<circle cx="130" cy="302" r="8" stroke="gray" stroke-width="4" fill="none" />
			<line x1="119.75" y1="299" x2="119.75" y2="302" />
			<line x1="140.25" y1="299" x2="140.25" y2="302" />
			<circle cx="130" cy="299" r="8" stroke="black" stroke-width="5" fill="none" />
			<circle cx="130" cy="299" r="8" stroke="gray" stroke-width="4" fill="none" />
			<circle cx="170" cy="302" r="8" stroke="black" stroke-width="5" fill="none" />
			<circle cx="170" cy="302" r="8" stroke="gray" stroke-width="4" fill="none" />
			<line x1="159.75" y1="299" x2="159.75" y2="302" />
			<line x1="180.25" y1="299" x2="180.25" y2="302" />
			<circle cx="170" cy="299" r="8" stroke="black" stroke-width="5" fill="none" />
			<circle cx="170" cy="299" r="8" stroke="gray" stroke-width="4" fill="none" />
		</g>
    </g>
	<rect x="-300" y="-316" width="900" height="948" fill="url(#map-grid)"/>
</svg>
