<?xml version="1.0" encoding="UTF-8" standalone="no"?>
<svg xmlns="http://www.w3.org/2000/svg" xmlns:svg="http://www.w3.org/2000/svg" width="5000" height="5000" viewBox="0 0 750 750" version="1.1">
    <g id="mountain" style="fill:#866; stroke:#655; stroke-width:0.1;" transform="translate(500 100)">
		<path d="M 50,50 q-15,25 -20,80 q-10,20 20,80 q50,50 100,0 q15,-25 20,-80 q0,-25 -20,-80 q-52,-80 -100,0 Z" />
		<path fill="#fff" fill-opacity="0.1" d="M 50,50 q-15,25 -20,80 q-10,20 20,80 q50,50 100,0 q15,-25 20,-80 q0,-25 -20,-80 q-52,-80 -100,0 Z" transform="translate(20 20) scale(0.8 0.8)" />
		<path fill="#fff" fill-opacity="0.1" d="M 50,50 q-15,25 -20,80 q-10,20 20,80 q50,50 100,0 q15,-25 20,-80 q0,-25 -20,-80 q-52,-80 -100,0 Z" transform="translate(40 35) scale(0.6 0.65)" />
		<path fill="#fff" fill-opacity="0.1" d="M 50,50 q-15,25 -20,80 q-10,20 20,80 q50,50 100,0 q15,-25 20,-80 q0,-25 -20,-80 q-52,-80 -100,0 Z" transform="translate(60 50) scale(0.4 0.5)" />
		<path fill="#fff" fill-opacity="0.1" d="M 50,50 q-15,25 -20,80 q-10,20 20,80 q50,50 100,0 q15,-25 20,-80 q0,-25 -20,-80 q-52,-80 -100,0 Z" transform="translate(75 65) scale(0.25 0.35)" />
		<path fill="#fff" fill-opacity="0.1" d="M 50,50 q-15,25 -20,80 q-10,20 20,80 q50,50 100,0 q15,-25 20,-80 q0,-25 -20,-80 q-52,-80 -100,0 Z" transform="translate(88 75) scale(0.12 0.25)" />
	</g>
</svg>