<?xml version="1.0" encoding="UTF-8" standalone="no"?>
<svg xmlns="http://www.w3.org/2000/svg" xmlns:svg="http://www.w3.org/2000/svg" width="5000" height="5000" viewBox="0 0 750 750" version="1.1">
	<defs>
		<linearGradient id="fadetop" x1="0%" y1="0%" x2="0%" y2="100%">
			<stop offset="0%" style="stop-color:rgb(255,255,255);stop-opacity:0.2" />
			<stop offset="100%" style="stop-opacity:0.05" />
		</linearGradient>
		<linearGradient id="fadeleft" x1="0%" y1="0%" x2="100%" y2="0%">
			<stop offset="0%" style="stop-color:rgb(255,255,255);stop-opacity:0.2" />
			<stop offset="100%" style="stop-opacity:0.05" />
		</linearGradient>
		<linearGradient id="fadebottom" x1="0%" y1="100%" x2="0%" y2="0%">
			<stop offset="0%" style="stop-color:rgb(255,255,255);stop-opacity:0.2" />
			<stop offset="100%" style="stop-opacity:0.05" />
		</linearGradient>
		<linearGradient id="faderight" x1="100%" y1="0%" x2="0%" y2="0%">
			<stop offset="0%" style="stop-color:rgb(255,255,255);stop-opacity:0.2" />
			<stop offset="100%" style="stop-opacity:0.05" />
		</linearGradient>
	</defs>
    <g id="map">
		<!-- <rect id="bg" x="0" y="0" width="750" height="750" /> -->
		<g id="forests" style="fill:#583; stroke:#472; stroke-width:1;">
			<!-- <path d="M 150,50 q-10,50 0,100 Z" /> -->
			<circle cx="411" cy="158" r="50" />
			<circle cx="420" cy="180" r="50" />
			<circle cx="410" cy="215" r="50" />
			<circle cx="383" cy="135" r="50" />
			<circle cx="383" cy="158" r="50" />
			<circle cx="390" cy="180" r="50" />
			<circle cx="380" cy="215" r="50" />
			<circle cx="350" cy="150" r="50" />
			<circle cx="340" cy="180" r="50" />
			<circle cx="350" cy="210" r="50" />
		</g>
		<g id="water" style="fill:#138; stroke:#155; stroke-width:0.1;">
			<path d="M 100,100 q-50,20 -25,70  q0,10 25,20 q50,10 70,-5 q30,-30 5,-60 q-5,-30 -70,-26 Z" />
			<!-- <circle cx="350" cy="150" r="50" /> -->
		</g>
		<g id="temple" style="fill:#358; stroke:#000; stroke-width:0.1;">
			<path d="M 550,150 q-15,25 -20,80 q-10,20 20,80 q50,50 100,0 q15,-25 20,-80 q0,-25 -20,-80 q-52,-80 -100,0 Z"  style="fill:#333; stroke:#000; stroke-width:0.1;" />
			<rect x="598" y="110" width="4" height="70" />
			<rect x="578" y="153" width="44" height="54" />
			<rect x="598" y="153.5" width="4" height="1.5" fill="black" />
			<polygon points="578,153 622,153 620,155 580,155" fill="url(#fadetop)" />
			<polygon points="578,153 578,207 580,205 580,155" fill="url(#fadeleft)" />
			<polygon points="578,207 580,205 620,205 622,207" fill="url(#fadebottom)" />
			<polygon points="622,153 620,155 620,205 622,207" fill="url(#faderight)" />
			<rect x="580" y="155" width="40" height="50" />
			<rect x="598" y="205" width="4" height="1.5" fill="black" />
			<rect x="580" y="172" width="40" height="16" style="fill:#000; stroke:#333; stroke-width:0.1;" />
			<polygon points="580,172 620,172 615,177 585,177" fill="url(#fadetop)" />
			<polygon points="580,172 580,188 585,183 585,177" fill="url(#fadeleft)" />
			<polygon points="580,188 585,183 615,183 620,188" fill="url(#fadebottom)" />
			<polygon points="615,183 620,188 620,172 615,177" fill="url(#faderight)" />

			<rect x="583" y="207" width="34" height="34" />
			<rect x="598" y="207.5" width="4" height="1.5" fill="black" />
			<polygon points="583,207 617,207 615,209 585,209" fill="url(#fadetop)" />
			<polygon points="583,207 583,241 585,239 585,209" fill="url(#fadeleft)" />
			<polygon points="583,241 585,239 615,239 617,241" fill="url(#fadebottom)" />
			<polygon points="617,207 615,209 615,239 617,241" fill="url(#faderight)" />
			<rect x="585" y="209" width="30" height="30" />

			<g id="artifact-platform" transform="translate(595.5, 221.5)">
				<rect x="0" y="0" width="9" height="7" style="fill:#fff; fill-opacity:0.05" />
				<line x1="0" x2="9" y1="0" y2="7" />
				<line x1="9" x2="0" y1="0" y2="7" />
				<rect x="0.6" y="0.5" width="7.8" height="6" style="fill:#586f9b;" />
				<g id="chest" transform="translate(3, 2.5)">
					<rect width="3" height="2" style="fill:#55342b;" />
				</g>
			</g>
		</g>
		<g id="city" transform="translate(110 450)">
			<g id="roads" style="fill:none">
				<g id="g320">
					<path id="path316" d="m 33.272472,13.95619 5.875185,12.80262 11.170016,16.484623 c 4.500811,6.64226 9.785387,16.310927 19.723718,24.874327 9.936599,8.561909 18.044729,15.814622 24.664741,21.252469 4.841524,3.976951 9.135068,10.478561 16.432268,13.497891 8.10292,3.3527 16.96864,5.59293 24.76692,10.24768 9.01684,5.3821 15.89531,15.08414 23.83579,14.22744 4.70309,-0.50742 13.01323,2.57476 20.99044,-2.26467 11.85587,-7.19245 11.85587,-7.19245 35.60322,-21.59894" style="stroke:#888888;stroke-width:2.0999999;stroke-linecap:butt;stroke-linejoin:round"/>
					<path id="path318" d="m 33.272472,13.95619 5.875185,12.80262 11.170016,16.484623 c 4.500811,6.64226 9.785387,16.310927 19.723718,24.874327 9.936599,8.561909 18.044729,15.814622 24.664741,21.252469 4.841524,3.976951 9.135068,10.478561 16.432268,13.497891 8.10292,3.3527 16.96864,5.59293 24.76692,10.24768 9.01684,5.3821 15.89531,15.08414 23.83579,14.22744 4.70309,-0.50742 13.01323,2.57476 20.99044,-2.26467 11.85587,-7.19245 11.85587,-7.19245 35.60322,-21.59894" style="stroke:#dea681;stroke-width:1.89999998;stroke-linecap:round;stroke-linejoin:round"/>
				</g>
				<g id="g326">
					<path id="path322" d="m -37.634315,-16.312992 -13.233601,-3.739956 c -2.853181,-0.80634 -10.846081,-5.410129 -24.940458,-5.891797 -12.394418,-0.423572 -25.841476,4.811121 -40.431946,3.65773 -13.56929,-1.072665 -26.44824,-4.066522 -36.52318,-9.741108 -8.39921,-4.730749 -12.84518,-15.14997 -20.61453,-22.440999 -8.73412,-8.196403 -20.93199,-15.701549 -32.23841,-27.158055 C -218.6131,-94.79636 -218.6131,-94.79636 -241.7968,-123.7961" style="stroke:#888888;stroke-width:2.0999999;stroke-linecap:butt;stroke-linejoin:round"/>
					<path id="path324" d="m -37.634315,-16.312992 -13.233601,-3.739956 c -2.853181,-0.80634 -10.846081,-5.410129 -24.940458,-5.891797 -12.394418,-0.423572 -25.841476,4.811121 -40.431946,3.65773 -13.56929,-1.072665 -26.44824,-4.066522 -36.52318,-9.741108 -8.39921,-4.730749 -12.84518,-15.14997 -20.61453,-22.440999 -8.73412,-8.196403 -20.93199,-15.701549 -32.23841,-27.158055 C -218.6131,-94.79636 -218.6131,-94.79636 -241.7968,-123.7961" style="stroke:#dea681;stroke-width:1.89999998;stroke-linecap:round;stroke-linejoin:round"/>
				</g>
				<g id="g332">
					<path id="path328" d="m -14.246854,33.67843 1.169893,12.432273 c 0.222291,2.362252 -1.434212,6.501613 -0.816269,12.317915 0.571173,5.37609 3.603415,11.23371 4.0684341,18.292643 0.4801473,7.288581 1.5470713,15.217637 -1.4206941,21.899737 -2.439752,5.493242 -9.229785,9.254902 -14.944846,14.948242 -7.540151,7.51151 -15.319469,15.30808 -23.391036,23.24199 -5.980051,5.87807 -13.213795,10.46252 -17.64669,17.09587 -5.385566,8.05892 -8.052805,18.42107 -12.773774,28.42506 -4.766662,10.10082 -11.870685,18.59828 -13.892701,28.08264 -1.743432,8.17766 -1.743432,8.17766 2.580791,24.97644" style="stroke:#888888;stroke-width:2.0999999;stroke-linecap:butt;stroke-linejoin:round"/>
					<path id="path330" d="m -14.246854,33.67843 1.169893,12.432273 c 0.222291,2.362252 -1.434212,6.501613 -0.816269,12.317915 0.571173,5.37609 3.603415,11.23371 4.0684341,18.292643 0.4801473,7.288581 1.5470713,15.217637 -1.4206941,21.899737 -2.439752,5.493242 -9.229785,9.254902 -14.944846,14.948242 -7.540151,7.51151 -15.319469,15.30808 -23.391036,23.24199 -5.980051,5.87807 -13.213795,10.46252 -17.64669,17.09587 -5.385566,8.05892 -8.052805,18.42107 -12.773774,28.42506 -4.766662,10.10082 -11.870685,18.59828 -13.892701,28.08264 -1.743432,8.17766 -1.743432,8.17766 2.580791,24.97644" style="stroke:#dea681;stroke-width:1.89999998;stroke-linecap:round;stroke-linejoin:round"/>
				</g>
			</g>
			<g id="buildings" style="fill:#853; stroke:#000000; stroke-width:0.1;">
				<g id="NorthEastDistrict">
					<polygon points="-15.881569,-24.922001 -12.226475,-31.955418 -7.1762353,-28.664737 -14.569587,-22.742199 " />
					<polygon points="-2.3301985,-25.507112 -12.152496,-18.726307 -14.257397,-22.223509 -6.6470147,-28.319903 " />
					<polygon points="-22.988984,-11.245358 -16.206052,-24.297605 -12.647227,-18.38477 " />
					<polygon points="20.203511,-12.838607 28.679245,-20.571894 36.502376,-8.5808668 28.282304,-2.3021597 20.675361,-10.470075 " />
					<polygon points="23.092289,1.6621102 20.89847,-9.3501413 27.803209,-1.9362141 " />
					<polygon points="33.538257,12.974381 24.477838,8.6171075 23.222834,2.3174031 28.559109,-1.7585838 36.883627,9.5809389 " />
					<polygon points="36.831127,-8.0769687 43.784492,2.5809117 37.310254,9.1481817 29.036012,-2.1228551 " />
					<polygon points="8.4604707,9.6200939 -9.6251611,10.548656 -9.5723707,-1.0078551 7.2640092,-3.6899703 " />
					<polygon points="6.6472127,-10.551537 7.2101652,-4.2889584 0.36296327,-3.1981666 -1.2386984,-6.1073621 " />
					<polygon points="-22.994897,-10.512188 -12.570914,-17.708365 -9.5478146,-14.106507 -14.967998,-5.4053047 " />
					<polygon points="-14.461745,-5.0832161 -9.1420647,-13.623078 -6.2862144,-10.220489 -12.501077,-3.8357974 " />
					<polygon points="-2.9757765,-6.2762833 -10.060978,-2.2833548 -11.98399,-3.5068153 -5.8985225,-9.7585752 " />
					<polygon points="-5.712006,-14.681891 -8.8387034,-14.194933 -12.074955,-18.050749 -10.07351,-19.432444 -5.0101447,-15.334271 " />
					<polygon points="-1.8793555,-25.089263 0.8316357,-20.764205 -2.076551,-18.061046 -7.0377377,-21.528183 " />
					<polygon points="-2.4439871,-6.5759779 -8.3879621,-13.657899 -5.4381081,-14.117315 -0.85151439,-7.4734301 " />
					<polygon points="1.1560726,-20.246606 6.5484387,-11.643739 -0.85151439,-7.4734301 -5.4381081,-14.117315 " />
					<polygon points="9.4592177,9.5612996 8.6894451,0.99794631 13.778145,0.32868322 16.23619,9.1046756 " />
					<polygon points="14.379098,0.24964619 21.602007,-0.70030688 22.463636,3.624787 16.295737,7.0926499 " />
					<polygon points="23.458376,8.6180537 16.847739,9.0634702 16.462301,7.6873338 22.586951,4.2437871 " />
					<polygon points="19.219903,-12.657684 21.484526,-1.2900228 16.869333,-0.68303512 13.031933,-11.845877 " />
					<polygon points="16.262315,-0.60320041 8.6356814,0.39985033 8.104858,-5.5053064 13.957251,-7.3085396 " />
					<polygon points="7.5989654,-11.133121 12.424849,-11.766233 13.762093,-7.8762435 8.049942,-6.1162213 " />
					<polygon points="6.5449879,-33.149956 12.397172,-38.80281 14.315723,-36.705023 8.7366246,-29.45234 " />
					<polygon points="14.72688,-36.255456 19.601497,-30.925441 16.263702,-27.994703 10.763651,-31.103361 " />
					<polygon points="13.48836,-25.557824 9.2633551,-28.563667 9.066059,-28.896535 10.394139,-30.623005 15.786166,-27.575404 " />
					<polygon points="6.1014499,-32.721525 8.8119967,-28.148431 4.4487502,-24.15798 1.6081127,-28.381235 " />
					<polygon points="1.2475901,-21.230328 -1.4083334,-25.467531 1.1697945,-27.957846 4.0010535,-23.748535 " />
					<polygon points="13.025097,-25.151057 3.8433694,-17.089077 1.2475901,-21.230328 8.8119967,-28.148431 " />
					<polygon points="7.2278348,-11.689573 4.1661873,-16.57406 9.4855324,-21.244691 15.731221,-12.805141 " />
					<polygon points="20.006508,-30.482593 28.217613,-21.50439 19.178907,-13.257446 16.411598,-12.8944 9.9379716,-21.641953 " />
					<polygon points="-24.155677,-11.16892 -36.81132,-17.033762 -33.605693,-25.13346 -21.188385,-16.878815 " />
					<polygon points="-20.321196,-40.522398 -24.637985,-37.698028 -28.014294,-39.261317 -27.218565,-41.271894 -22.924843,-43.447451 " />
					<polygon points="-13.110936,-32.422074 -13.1366,-32.372689 -23.996243,-37.400891 -19.917863,-40.069276 " />
					<polygon points="-13.413564,-31.839733 -20.910106,-17.414302 -27.355118,-21.698749 -28.893254,-27.660809 -21.255161,-35.470527 " />
					<polygon points="-28.103032,-22.195939 -33.379942,-25.703867 -32.074171,-29.003175 -29.558738,-27.838486 " />
					<polygon points="12.145627,-39.394036 8.5084569,-35.88075 3.713506,-45.803044 7.2907927,-47.640645 12.212238,-39.616365 " />
					<polygon points="15.948836,-52.08816 12.443231,-40.38736 7.8260251,-47.915586 " />
					<polygon points="16.520276,-53.995477 16.187689,-52.885388 3.4523636,-46.343431 0.74521683,-51.945387 7.1560913,-56.863618 " />
					<polygon points="2.5205892,-30.096834 -1.8282133,-25.896155 -8.1815025,-30.03589 -2.6610384,-36.276473 " />
					<polygon points="-11.673512,-32.311245 -14.691153,-35.701396 -8.0486489,-42.701768 -3.0508551,-36.741371 -8.6896656,-30.367004 " />
					<polygon points="7.0581503,-37.502932 8.0541407,-35.441908 2.9532075,-30.514717 1.1725553,-32.638333 5.0683966,-37.627305 " />
					<polygon points="4.1577843,-43.504721 6.7585856,-38.122828 4.7901612,-38.245867 1.7071513,-41.922683 " />
					<polygon points="0.77838188,-33.108427 -3.6905635,-38.438117 1.7071513,-41.922683 4.7901612,-38.245867 " />
					<polygon points="-4.0790829,-38.901467 -7.632965,-43.139847 -4.3837163,-46.564151 -0.036603552,-41.511143 " />
					<polygon points="0.29600149,-51.49599 3.8947291,-44.049067 0.47226366,-41.839649 -3.9686002,-47.001631 " />
					<polygon points="-8.7369201,-42.848101 -15.091501,-36.151165 -19.830257,-41.474893 -12.238148,-47.355086 " />
					<polygon points="-17.076448,-53.583228 -12.606237,-47.828912 -18.148119,-43.536648 -20.931255,-50.281994 " />
					<polygon points="-20.230117,-41.924113 -24.754897,-47.007451 -21.410855,-49.871268 -18.639998,-43.155682 " />
					<polygon points="-4.0103532,-47.829314 -8.3191632,-43.288365 -16.620206,-53.973951 -12.406297,-57.582717 -8.4889088,-55.717443 " />
					<polygon points="39.570447,-5.7083617 44.762276,-10.950303 48.702509,-8.0435502 43.035503,-0.39724143 " />
					<polygon points="40.375836,-27.716282 46.820116,-31.584127 47.950576,-26.770249 43.273961,-23.274136 " />
					<polygon points="49.737153,-33.334928 56.082195,-25.875793 49.48723,-22.851162 47.360301,-31.908345 " />
					<polygon points="40.375836,-27.716282 45.116805,-20.449488 39.042858,-16.108393 32.444178,-22.955715 " />
					<polygon points="34.775237,-13.058294 29.479077,-21.176067 31.916262,-22.638861 38.549438,-15.755743 " />
					<polygon points="39.235084,-6.2223947 35.103379,-12.55533 39.137266,-15.438379 42.685471,-9.7060859 " /><polygon points="35.413147,-33.253705 30.542075,-22.980369 28.694819,-21.87165 23.349819,-27.715991 30.393123,-37.638294 " />
					<polygon points="24.22587,-43.024895 29.938926,-38.034999 27.392359,-34.447505 19.509363,-39.365134 " />
					<polygon points="22.935556,-28.168955 19.8677,-31.523417 18.826891,-38.835572 19.004156,-38.97312 27.044439,-33.957371 " />
					<polygon points="13.54486,-41.973716 17.066066,-53.726589 23.082857,-49.994107 14.68342,-41.267416 " />
					<polygon points="28.165382,-46.841192 18.183775,-39.095991 15.204853,-40.943948 23.60429,-49.670639 " />
					<polygon points="19.149942,-32.308229 12.746702,-39.309673 13.54486,-41.973716 18.183775,-39.095991 " />
					<polygon points="36.169607,-33.448647 39.257168,-39.960467 48.883475,-33.988844 42.285934,-30.029012 37.759225,-29.863144 " />
					<polygon points="31.470243,-23.537454 35.830429,-32.733303 37.375325,-29.248675 35.233617,-25.796224 " />
					<polygon points="41.220552,-29.389571 35.233617,-25.796224 37.375325,-29.248675 " />
				</g>
				<g id="WesterDistrict">
					<polygon points="-11.572999,-0.8748683 -11.628516,11.278623 -21.378489,11.055397 -20.997029,-6.8706361 " />
					<polygon points="-21.777036,1.5820618 -21.978332,11.041664 -27.144287,10.923389 -26.813608,1.6278229 " />
					<polygon points="-24.186351,-8.89975 -21.589149,-7.247355 -21.764265,0.98192097 -29.128862,1.048834 " />
					<polygon points="-38.872466,-15.62374 -45.080952,-8.0040994 -46.529971,-11.566351 -42.409526,-16.62335 " />
					<polygon points="-46.529971,-11.566351 -50.77944,-12.647229 -50.431856,-18.890546 -46.017758,-17.643075 -46.254135,-11.904884 " />
					<polygon points="-42.409526,-16.62335 -45.621649,-12.681129 -45.424159,-17.475318 " />
					<polygon points="-25.062065,-9.3846367 -30.073026,0.70172649 -36.010792,-3.4398391 -29.797783,-11.579249 " />
					<polygon points="-43.671965,-8.7834732 -38.243375,-15.445952 -37.98271,-15.372285 -30.355368,-11.837644 -36.503364,-3.7834054 " />
					<polygon points="-36.147243,-2.8034802 -39.074913,1.7689529 -41.84484,-3.077913 -40.108906,-5.5667226 " />
					<polygon points="-30.342929,1.2450031 -34.920746,10.459507 -42.570699,8.3413765 -35.654741,-2.4599621 " />
					<polygon points="-25.881439,11.552459 -19.547534,11.697474 -19.446328,17.191416 -25.014577,18.063507 " />
					<polygon points="-19.292527,25.540483 -24.037025,25.405955 -24.935373,18.658417 -19.435173,17.796983 " />
					<polygon points="-11.678151,11.877644 -13.216605,22.911 -13.746697,25.697733 -18.692112,25.557508 -18.947179,11.711219 " />
					<polygon points="-15.139107,33.017732 -23.208272,31.630758 -23.956807,26.008471 -13.860262,26.294754 " />
					<polygon points="-35.179253,29.573119 -34.172965,11.362625 -26.488584,11.538559 -23.827743,31.52428 " />
				</g>
				<g id="SouthernDistrict">
					<polygon points="9.5194895,25.678428 -11.170613,22.719924 -9.7536533,12.557887 8.6146073,11.614814 " />
					<polygon points="23.535626,21.60532 32.827288,15.383688 34.310725,18.616248 26.519735,25.97262 " />
					<polygon points="38.056973,26.779698 28.975406,29.566539 26.862464,26.47421 34.574932,19.19198 " />
					<polygon points="16.358177,11.100991 23.96266,10.58861 32.514034,14.701077 32.573808,14.83133 23.197113,21.1099 " />
					<polygon points="28.374677,29.750883 13.881152,34.198479 12.332888,30.45393 23.991321,23.33576 " />
					<polygon points="12.937656,17.4997 18.165184,14.809101 23.652377,22.839711 18.251624,26.137193 14.637922,23.391027 " />
					<polygon points="10.089638,18.96557 12.393935,17.779552 14.116584,23.748436 10.537963,25.933399 " />
					<polygon points="14.116584,23.748436 17.701755,26.472921 15.219986,27.988189 12.451373,24.765147 " />
					<polygon points="9.6128576,11.555482 15.663472,11.147799 17.824063,14.309865 10.047611,18.31239 " />
					<polygon points="-12.124107,45.562746 -13.237964,33.725958 -11.332157,23.706996 -2.462421,24.975291 -1.7619876,45.047926 " />
					<polygon points="12.990376,34.661224 10.474636,44.439975 -1.1626614,45.01815 -1.4328803,37.274366 12.713116,33.990659 " />
					<polygon points="-1.8590451,25.061568 9.7048845,26.715109 12.48074,33.428647 -1.4542012,36.663362 " />
					<polygon points="49.101589,43.231429 39.119423,47.615506 35.746792,40.840894 43.648683,35.184073 " />
					<polygon points="30.251531,29.802552 38.323677,27.32547 43.312,34.687199 35.475961,40.296877 " />
					<polygon points="25.653173,31.213639 29.670114,29.98097 32.230897,35.124822 26.260657,37.711486 " />
					<polygon points="23.001117,43.693517 18.554593,33.391965 25.067363,31.393406 26.125361,42.710101 " />
					<polygon points="13.989041,34.792986 17.977522,33.56905 20.744161,39.978702 15.090837,42.618096 12.976147,38.730132 " />
					<polygon points="11.550696,44.270897 12.756825,39.582642 14.546145,42.872398 " />
					<polygon points="23.663194,46.741416 14.957866,49.739055 11.506949,44.953493 20.98204,40.529813 " />
				</g>
			</g>
		</g>
    </g>
    <!-- <g id="scaleBar" fill="none" stroke="#000000" stroke-linecap="butt" stroke-linejoin="miter" stroke-width="1" transform="translate(4 149.419890143379) scale(0.37428429773710414 0.37428429773710414)">
        <path id="path603" d="M 0,-5 L 0,0 L 66.79414592369542,0 L 66.79414592369542,-5 M 16.698536480923856,0 L 16.698536480923856,-2.5 M 33.39707296184771,0 L 33.39707296184771,-5 M 50.09560944277157,0 L 50.09560944277157,-2.5"/>
        <text id="text605" x="0" y="-6" fill="#000000" stroke="none" style="font:bold 4px &quot;Archivo Narrow&quot;, sans-serif" text-anchor="middle">
            0
        </text>
        <text id="text607" x="33.39707296184771" y="-6" fill="#000000" stroke="none" style="font:bold 4px &quot;Archivo Narrow&quot;, sans-serif" text-anchor="middle">
            50
        </text>
        <text id="text609" x="66.79414592369542" y="-6" fill="#000000" stroke="none" style="font:bold 4px &quot;Archivo Narrow&quot;, sans-serif" text-anchor="middle">
            100m
        </text>
    </g> -->
</svg>
