<?xml version="1.0" encoding="UTF-8" standalone="no"?><svg width="181.947" height="170.474" xmlns="http://www.w3.org/2000/svg"><style><![CDATA[@import url("https://fonts.googleapis.com/css?family=IM+Fell+Great+Primer");]]></style><rect x="0" y="0" width="181.947" height="170.474" id="background" fill="#009DC4"/><g id="map" transform="translate(55.008 89.614)"><polygon points="-41.996,-8.917 -51.328,-24.591 -51.265,-24.496 -61.084,-37.387 -60.221,-38.991 -34.262,-37.221 -33.34,-36.36 -30.536,-16.095 -30.964,-15.131 -40.575,-8.602" fill="#FFFFFF"/><g id="land"><polygon points="479.763,118.53 471.948,146.585 468.78,156.422 435.835,232.959 395.026,296.945 358.641,339.999 306.986,387.275 219.418,442.807 174.86,462.219 158.688,468.018 135.459,475.261 28.592,493.361 -30.669,493.236 -74.761,488.501 -145.348,472.331 -167.304,465.007 -246.979,428.046 -247.346,427.834 -151.453,252.31 -151.342,247.886 -150.315,244.088 -148.506,240.072 -145.916,235.839 -142.588,231.109 -138.524,225.881 -133.723,220.156 -128.185,213.934 -122.811,208.3 -117.602,203.255 -112.558,198.799 -107.677,194.932 -102.962,191.653 -98.411,188.963 -94.024,186.862 -89.802,185.35 -85.521,183.892 -81.183,182.488 -76.785,181.138 -72.33,179.843 -67.816,178.601 -63.244,177.414 -58.613,176.281 -53.924,175.203 -49.928,173.585 -46.625,171.427 -44.015,168.73 -42.098,165.494 -40.873,161.718 -40.342,157.403 -40.504,152.548 -41.359,147.154 -41.966,142.169 -42.324,137.594 -42.435,133.429 -42.297,129.673 -41.912,126.327 -41.278,123.391 -40.396,120.864 -39.267,118.747 -38.185,116.609 -37.152,114.45 -36.168,112.27 -35.231,110.07 -34.343,107.85 -33.504,105.608 -32.712,103.346 -31.97,101.063 -31.245,98.76 -30.538,96.436 -29.849,94.092 -29.178,91.728 -28.526,89.343 -27.891,86.938 -27.274,84.513 -26.676,82.067 -26.135,79.66 -25.653,77.292 -25.228,74.963 -24.861,72.673 -24.552,70.422 -24.301,68.209 -24.108,66.036 -23.973,63.901 -23.837,61.741 -23.701,59.555 -23.564,57.344 -23.427,55.107 -23.272,52.551 -23.099,49.678 -22.856,45.609 -22.387,37.713 -28.075,17.539 -34.086,8.119 -41.137,-9.429 -50.469,-25.102 -60.289,-37.993 -67.175,-44.467 -71.037,-48.098 -74.171,-51.043 -77.342,-54.022 -80.549,-57.035 -84.048,-60.322 -87.84,-63.882 -91.923,-67.715 -96.297,-71.823 -100.994,-75.659 -106.012,-79.224 -111.353,-82.517 -117.014,-85.54 -122.998,-88.291 -129.304,-90.771 -135.931,-92.979 -142.88,-94.916 -149.225,-96.673 -154.966,-98.248 -160.102,-99.642 -164.635,-100.855 -168.563,-101.886 -171.887,-102.737 -174.607,-103.406 -176.723,-103.895 -178.996,-104.259 -181.427,-104.499 -184.015,-104.615 -186.76,-104.606 -189.663,-104.473 -192.724,-104.216 -195.942,-103.835 -199.317,-103.33 -202.778,-102.878 -206.326,-102.481 -209.96,-102.137 -213.679,-101.847 -217.485,-101.611 -221.377,-101.429 -225.355,-101.301 -229.419,-101.227 -234.021,-101.219 -239.16,-101.277 -244.836,-101.402 -251.049,-101.592 -258.846,-101.905 -268.224,-102.342 -282.322,-103.071 -468.332,-157.757 -435.453,-233.673 -421.756,-257.573 -398.671,-292.033 -363.548,-334.746 -322.883,-374.124 -265.013,-417.122 -236.865,-433.725 -194.738,-454.202 -193.163,-454.874 -111.833,-481.369 -31.075,-493.211 22.613,-493.671 30.722,-493.233 133.053,-475.94 192.078,-455.333 192.873,-454.997 251.361,-425.488 324.313,-372.885 354.491,-344.323 398.598,-292.133 407.294,-279.882 450.83,-202.423 462.114,-175.137 477.363,-127.855 475.789,-133.593 493.742,-20.995 492.417,41.805" fill="#6C823A" stroke="#000000" stroke-width="0.253"/></g><g fill="none"><polyline points="42.52,-23.442 58.375,-32.018 78.398,-32.944 92.089,-38.278 99.381,-41.102 104.837,-43.193 109.979,-45.145 114.808,-46.957 119.829,-48.827 125.042,-50.756 130.449,-52.742 136.049,-54.785 141.514,-56.921 146.843,-59.148 152.038,-61.466 157.098,-63.876 162.023,-66.378 166.813,-68.971 171.468,-71.655 175.988,-74.431 180.267,-77.125 184.305,-79.738 188.102,-82.269 191.659,-84.718 194.974,-87.086 198.049,-89.371 200.882,-91.576 203.475,-93.698 205.845,-95.976 207.994,-98.41 209.92,-101 211.625,-103.745 213.107,-106.646 214.367,-109.702 215.405,-112.915 216.221,-116.283 217.161,-119.736 218.225,-123.275 219.413,-126.9 220.726,-130.61 222.388,-134.912 224.401,-139.806 227.443,-146.812 233.548,-160.488" stroke="#888888" stroke-width="2.253" stroke-linejoin="round" stroke-linecap="butt"/><polyline points="10.899,2.708 20.989,6.216 33.42,-6.27 42.52,-23.442 58.375,-32.018 78.398,-32.944 92.089,-38.278 99.381,-41.102 104.837,-43.193 109.979,-45.145 114.808,-46.957 119.829,-48.827 125.042,-50.756 130.449,-52.742 136.049,-54.785 141.514,-56.921 146.843,-59.148 152.038,-61.466 157.098,-63.876 162.023,-66.378 166.813,-68.971 171.468,-71.655 175.988,-74.431 180.267,-77.125 184.305,-79.738 188.102,-82.269 191.659,-84.718 194.974,-87.086 198.049,-89.371 200.882,-91.576 203.475,-93.698 205.845,-95.976 207.994,-98.41 209.92,-101 211.625,-103.745 213.107,-106.646 214.367,-109.702 215.405,-112.915 216.221,-116.283 217.161,-119.736 218.225,-123.275 219.413,-126.9 220.726,-130.61 222.388,-134.912 224.401,-139.806 227.443,-146.812 233.548,-160.488" stroke="#FFFFFF" stroke-width="1.747" stroke-linejoin="round" stroke-linecap="round"/></g><g fill="none"><polyline points="22.597,-43.645 30.073,-52.877 49.639,-61.304 54.203,-70.124 56.371,-74.695 57.664,-77.958 58.59,-80.892 59.148,-83.497 59.508,-86.1 59.669,-88.701 59.632,-91.3 59.396,-93.897 59.186,-96.612 59.001,-99.445 58.842,-102.395 58.709,-105.463 58.601,-108.648 58.519,-111.952 58.463,-115.373 58.433,-118.911 58.213,-122.424 57.806,-125.91 57.209,-129.369 56.424,-132.802 55.45,-136.209 54.288,-139.589 52.937,-142.943 51.398,-146.27 50.071,-149.618 48.958,-152.986 48.058,-156.375 47.371,-159.785 46.897,-163.215 46.636,-166.665 46.589,-170.136 46.754,-173.627 47.219,-177.108 47.983,-180.578 49.045,-184.037 50.407,-187.485 52.067,-190.923 54.026,-194.35 56.285,-197.766 58.842,-201.171 61.175,-204.878 63.285,-208.889 65.171,-213.201 66.832,-217.816 68.27,-222.734 69.484,-227.954 70.474,-233.477 71.241,-239.302 72.757,-245.062 75.024,-250.757 78.042,-256.387 81.81,-261.953 87.174,-268.116 94.134,-274.878 105.23,-284.229 128.076,-302.136" stroke="#888888" stroke-width="2.253" stroke-linejoin="round" stroke-linecap="butt"/><polyline points="10.899,2.708 12.421,-9.883 16.155,-22.446 21.488,-32.515 22.597,-43.645 30.073,-52.877 49.639,-61.304 54.203,-70.124 56.371,-74.695 57.664,-77.958 58.59,-80.892 59.148,-83.497 59.508,-86.1 59.669,-88.701 59.632,-91.3 59.396,-93.897 59.186,-96.612 59.001,-99.445 58.842,-102.395 58.709,-105.463 58.601,-108.648 58.519,-111.952 58.463,-115.373 58.433,-118.911 58.213,-122.424 57.806,-125.91 57.209,-129.369 56.424,-132.802 55.45,-136.209 54.288,-139.589 52.937,-142.943 51.398,-146.27 50.071,-149.618 48.958,-152.986 48.058,-156.375 47.371,-159.785 46.897,-163.215 46.636,-166.665 46.589,-170.136 46.754,-173.627 47.219,-177.108 47.983,-180.578 49.045,-184.037 50.407,-187.485 52.067,-190.923 54.026,-194.35 56.285,-197.766 58.842,-201.171 61.175,-204.878 63.285,-208.889 65.171,-213.201 66.832,-217.816 68.27,-222.734 69.484,-227.954 70.474,-233.477 71.241,-239.302 72.757,-245.062 75.024,-250.757 78.042,-256.387 81.81,-261.953 87.174,-268.116 94.134,-274.878 105.23,-284.229 128.076,-302.136" stroke="#FFFFFF" stroke-width="1.747" stroke-linejoin="round" stroke-linecap="round"/></g><g fill="none"><polyline points="12.798,34.01 8.934,47.033 2.427,58.774 3.818,79.366 3.659,86.024 3.457,89.546 3.161,92.153 2.751,94.583 2.228,96.836 1.586,99.16 0.825,101.554 -0.055,104.018 -1.053,106.552 -2.205,109.231 -3.509,112.055 -4.966,115.023 -6.576,118.136 -8.339,121.394 -10.255,124.796 -12.323,128.344 -14.544,132.036 -16.725,135.68 -18.866,139.276 -20.967,142.824 -23.027,146.324 -25.047,149.777 -27.026,153.181 -28.966,156.538 -30.865,159.847 -32.237,163.428 -33.083,167.281 -33.401,171.407 -33.193,175.805 -32.458,180.475 -31.196,185.418 -29.407,190.633 -27.091,196.12 -24.8,201.54 -22.536,206.893 -20.297,212.179 -18.085,217.398 -15.898,222.55 -13.737,227.634 -11.601,232.651 -9.492,237.602 -7.452,242.231 -5.481,246.539 -3.581,250.526 -1.75,254.193 0.012,257.538 1.704,260.563 3.327,263.266 4.879,265.649 6.337,268.054 7.699,270.483 8.966,272.935 10.137,275.409 11.213,277.907 12.193,280.428 13.079,282.971 13.868,285.538 15.885,288.744 19.128,292.589 23.598,297.074 29.294,302.197 37.543,308.921 48.344,317.243 65.673,330.046 101.458,355.97" stroke="#888888" stroke-width="2.253" stroke-linejoin="round" stroke-linecap="butt"/><polyline points="20.989,6.216 20.878,19.188 12.798,34.01 8.934,47.033 2.427,58.774 3.818,79.366 3.659,86.024 3.457,89.546 3.161,92.153 2.751,94.583 2.228,96.836 1.586,99.16 0.825,101.554 -0.055,104.018 -1.053,106.552 -2.205,109.231 -3.509,112.055 -4.966,115.023 -6.576,118.136 -8.339,121.394 -10.255,124.796 -12.323,128.344 -14.544,132.036 -16.725,135.68 -18.866,139.276 -20.967,142.824 -23.027,146.324 -25.047,149.777 -27.026,153.181 -28.966,156.538 -30.865,159.847 -32.237,163.428 -33.083,167.281 -33.401,171.407 -33.193,175.805 -32.458,180.475 -31.196,185.418 -29.407,190.633 -27.091,196.12 -24.8,201.54 -22.536,206.893 -20.297,212.179 -18.085,217.398 -15.898,222.55 -13.737,227.634 -11.601,232.651 -9.492,237.602 -7.452,242.231 -5.481,246.539 -3.581,250.526 -1.75,254.193 0.012,257.538 1.704,260.563 3.327,263.266 4.879,265.649 6.337,268.054 7.699,270.483 8.966,272.935 10.137,275.409 11.213,277.907 12.193,280.428 13.079,282.971 13.868,285.538 15.885,288.744 19.128,292.589 23.598,297.074 29.294,302.197 37.543,308.921 48.344,317.243 65.673,330.046 101.458,355.97" stroke="#FFFFFF" stroke-width="1.747" stroke-linejoin="round" stroke-linecap="round"/></g><g fill="none"><polyline points="39.753,26.072 56.026,24.34" stroke="#888888" stroke-width="2.253" stroke-linejoin="round" stroke-linecap="butt"/><polyline points="20.878,19.188 39.753,26.072 56.026,24.34" stroke="#FFFFFF" stroke-width="1.747" stroke-linejoin="round" stroke-linecap="round"/></g><g fill="#888888" stroke="#000000" stroke-width="0.253"><polygon points="-6.523,-0.043 -2.906,0.247 -3.132,3.065 -6.748,2.775"/><polygon points="-0.523,6.435 -3.799,7.627 -4.795,4.888 -1.519,3.697"/><polygon points="-2.906,0.247 0.582,0.526 0.392,2.903 -3.096,2.624"/><polygon points="2.621,5.292 -0.523,6.435 -1.235,4.476 1.909,3.333"/><polygon points="-3.799,7.627 -6.577,8.637 -7.161,7.03 -4.384,6.02"/><polygon points="-8.679,6.588 -8.596,2.74 -6.741,2.781 -6.824,6.628"/><polygon points="0.582,0.526 4.342,0.827 4.224,2.302 0.464,2.002"/><polygon points="-6.523,-0.043 -6.748,2.775 -8.596,2.735 -8.532,-0.204"/><polygon points="5.148,4.374 2.621,5.292 1.909,3.333 4.435,2.414"/><polygon points="-8.7,7.549 -7.616,7.572 -7.153,8.846 -8.741,9.423"/><polygon points="8.142,1.131 7.964,3.35 6.923,3.728 4.224,2.302 4.342,0.827"/><polygon points="7.964,3.35 8.142,1.131 10.064,1.285 9.899,2.646"/><polygon points="-5.485,-11.886 -1.499,-11.35 -1.841,-8.809 -5.826,-9.344"/><polygon points="0.644,-0.272 -4.082,-0.65 -3.78,-4.422 0.946,-4.044"/><polygon points="4.588,-10.532 4.094,-6.857 -1.993,-7.675 -1.499,-11.35"/><polygon points="-8.473,-2.929 -8.395,-6.515 -4.686,-6.435 -4.763,-2.848"/><polygon points="-8.395,-6.515 -8.335,-9.292 -5.728,-9.235 -5.788,-6.458"/><polygon points="0.644,-0.272 0.989,-4.583 4.654,-4.29 4.309,0.021"/><polygon points="-8.473,-2.929 -4.763,-2.848 -4.934,-0.718 -8.515,-1.005"/><polygon points="-6.334,-12 -6.578,-10.181 -8.315,-10.219 -8.271,-12.26"/><polygon points="4.588,-10.532 8.895,-9.953 8.552,-7.4 4.245,-7.979"/><polygon points="8.068,0.322 4.309,0.021 4.573,-3.276 8.332,-2.975"/><polygon points="11.07,-7.045 10.574,-2.937 7.997,-3.249 8.493,-7.356"/><polygon points="11.157,-7.762 9.328,-7.983 9.58,-9.861 11.382,-9.619"/><polygon points="8.068,0.322 8.332,-2.975 10.546,-2.707 10.16,0.49"/></g><g fill="#888888" stroke="#000000" stroke-width="0.253"><polygon points="-2.82,16.061 -1.546,18.079 -2.101,19.307 -3.604,20.068 -4.952,17.408"/><polygon points="2.833,19.005 -0.524,21.462 -1.949,19.514 1.408,17.057"/><polygon points="-2.82,16.061 0.954,13.678 2.229,15.696 -1.546,18.079"/><polygon points="-3.604,20.068 -2.101,19.307 -0.524,21.462 -2.257,22.729"/><polygon points="6.184,16.553 2.833,19.005 1.408,17.057 4.759,14.606"/><polygon points="7.016,12.852 4.223,13.874 3.433,13.697 2.718,12.564 6.123,10.413"/><polygon points="6.184,16.553 4.223,13.874 7.016,12.852 7.908,15.291"/><polygon points="4.321,10.606 1.337,12.49 -0.028,10.328 2.955,8.444"/><polygon points="1.354,6.604 1.906,8.123 -0.028,10.328 -2.165,10.888 -3.13,8.235"/><polygon points="1.337,12.49 -2.18,14.711 -3.545,12.549 -0.028,10.328"/><polygon points="-5.493,9.094 -3.13,8.235 -2.165,10.888 -4.528,11.747"/><polygon points="5.087,7.583 2.914,8.378 1.906,8.123 1.354,6.604 4.333,5.521"/><polygon points="4.321,10.606 2.914,8.378 5.087,7.583 5.842,9.645"/><polygon points="-6.135,15.073 -7.773,11.838 -6.077,10.979 -4.438,14.214"/><polygon points="-6.135,15.073 -3.537,13.758 -2.72,15.052 -5.315,16.691"/><polygon points="-6.614,9.501 -6.077,10.979 -7.773,11.838 -8.593,10.221"/><polygon points="15.184,9.968 13.592,7.791 16.456,5.713 18.04,7.878"/><polygon points="11.691,4.042 14.55,5.036 13.592,7.791 10.733,6.797"/><polygon points="15.184,9.968 12.103,12.222 10.511,10.046 13.592,7.791"/><polygon points="7.94,13.051 6.259,8.457 8.937,7.477 10.618,12.071"/><polygon points="18.04,7.878 16.456,5.713 16.461,5.7 19.549,6.774"/><polygon points="11.691,4.042 10.329,7.958 8.647,7.377 7.547,4.353 10.009,3.457"/><polygon points="7.94,13.051 10.618,12.071 11.208,12.877 8.58,14.8"/><polygon points="7.547,4.353 8.647,7.377 6.193,8.275 5.085,5.248"/></g><g fill="#888888" stroke="#000000" stroke-width="0.253"><polygon points="-20.946,-12.765 -15.741,-12.575 -15.858,-9.37 -21.064,-9.561"/><polygon points="-15.532,-2.901 -18.794,-2.444 -19.149,-4.974 -15.886,-5.431"/><polygon points="-13.266,-3.218 -15.532,-2.901 -16.188,-7.583 -13.922,-7.901"/><polygon points="-15.741,-12.575 -10.972,-12.4 -11.056,-10.1 -15.825,-10.274"/><polygon points="-21.798,-4.388 -22.386,-8.7 -19.906,-9.039 -19.317,-4.726"/><polygon points="-9.132,-9.458 -9.209,-5.918 -11.893,-5.976 -11.816,-9.516"/><polygon points="-21.742,-3.982 -19.626,-4.271 -19.359,-2.365 -21.481,-2.068"/><polygon points="-11.541,-3.46 -11.893,-5.976 -9.209,-5.918 -9.255,-3.78"/><polygon points="-20.946,-12.765 -21.064,-9.561 -22.477,-9.368 -22.951,-12.838"/><polygon points="-9.116,-10.193 -10.884,-10.231 -10.805,-12.394 -9.07,-12.331"/><polygon points="-9.345,0.365 -9.452,5.319 -12.176,5.26 -12.069,0.306"/><polygon points="-15.22,-2.137 -11.979,-2.591 -11.634,-0.131 -14.876,0.323"/><polygon points="-19.168,-1.584 -15.22,-2.137 -14.719,1.444 -18.667,1.997"/><polygon points="-20.148,7.706 -20.784,3.046 -17.353,2.578 -16.717,7.238"/><polygon points="-11.554,9.586 -15.841,9.561 -15.819,5.579 -11.531,5.603"/><polygon points="-9.323,-0.635 -11.094,-0.674 -11.375,-2.675 -9.272,-2.97"/><polygon points="-19.168,-1.584 -18.667,1.997 -20.885,2.3 -21.373,-1.275"/><polygon points="-11.554,9.586 -11.531,5.603 -9.459,5.648 -9.545,9.597"/><polygon points="-20.148,7.706 -16.717,7.238 -16.73,9.556 -19.898,9.539"/></g><g fill="#888888" stroke="#000000" stroke-width="0.253"><polygon points="-4.038,-20.126 0.011,-19.8 -0.251,-16.544 -4.3,-16.87"/><polygon points="-2.299,-12.265 -4.401,-12.547 -3.895,-16.311 -1.793,-16.029"/><polygon points="1.253,-11.787 -2.299,-12.265 -1.998,-14.501 1.553,-14.024"/><polygon points="-7.947,-14.926 -7.438,-18.549 -5.3,-18.249 -5.809,-14.626"/><polygon points="4.401,-17.436 3.882,-13.581 1.656,-13.881 2.175,-17.736"/><polygon points="-5.142,-20.215 -5.3,-18.249 -7.438,-18.549 -7.182,-20.379"/><polygon points="1.486,-11.756 1.753,-13.745 3.865,-13.46 3.598,-11.472"/><polygon points="-7.952,-14.889 -5.846,-14.593 -6.091,-12.774 -8.209,-13.059"/><polygon points="4.401,-17.436 0.639,-17.943 0.783,-19.737 4.669,-19.424"/><polygon points="2.371,-20.412 2.626,-23.578 5.182,-23.234 4.776,-20.218"/><polygon points="5.182,-23.234 2.626,-23.578 1.139,-25.06 2.165,-27.621 5.588,-26.249"/><polygon points="2.371,-20.412 -2.724,-20.822 -2.469,-23.988 2.626,-23.578"/><polygon points="-3.165,-29.757 2.165,-27.621 1.139,-25.06 -4.192,-27.196"/><polygon points="-6.822,-22.943 -6.37,-26.16 -2.974,-25.683 -3.425,-22.466"/><polygon points="-6.822,-22.943 -3.425,-22.466 -3.552,-20.889 -7.07,-21.172"/><polygon points="-3.49,-29.887 -4.443,-27.508 -6.147,-27.747 -5.721,-30.781"/><polygon points="4.875,-14.966 5.365,-18.604 8.946,-18.122 8.456,-14.484"/><polygon points="13.331,-16.455 12.503,-13.669 8.852,-14.754 9.68,-17.54"/><polygon points="14.475,-20.301 13.331,-16.455 10.342,-17.343 11.485,-21.19"/><polygon points="5.365,-18.604 5.75,-21.458 9.331,-20.976 8.946,-18.122"/><polygon points="9.227,-24.791 12.416,-23.513 11.485,-21.19 8.296,-22.468"/><polygon points="9.747,-10.646 6.804,-11.041 7.147,-13.589 10.09,-13.194"/><polygon points="14.475,-20.301 11.485,-21.19 12.416,-23.513 15.109,-22.434"/><polygon points="9.747,-10.646 10.09,-13.194 12.177,-12.573 11.533,-10.406"/><polygon points="4.658,-13.349 6.442,-13.108 6.176,-11.126 4.39,-11.366"/><polygon points="8.039,-25.267 7.423,-23.729 6.08,-23.909 6.354,-25.942"/></g><g fill="#888888" stroke="#000000" stroke-width="0.253"><polygon points="27.454,-1.696 24.858,0.912 22.599,-1.338 25.195,-3.946"/><polygon points="20.544,-8.079 25.752,-7.183 25.195,-3.946 19.987,-4.842"/><polygon points="24.858,0.912 23.085,2.693 19.385,-0.991 21.158,-2.772"/><polygon points="16.093,-8.845 20.544,-8.079 20.091,-5.444 15.639,-6.21"/><polygon points="19.056,4.485 15.039,3.089 16.099,0.041 20.115,1.438"/><polygon points="12.235,-0.012 12.684,-3.73 16.118,-3.315 15.669,0.403"/><polygon points="29.596,-3.847 27.454,-1.696 26.319,-2.826 28.461,-4.978"/><polygon points="25.931,-7.153 29.224,-6.586 28.97,-5.109 25.677,-5.675"/><polygon points="19.135,4.513 20.157,1.575 22.186,3.596 20.724,5.065"/><polygon points="12.684,-3.73 13.014,-6.456 15.7,-6.131 15.371,-3.405"/><polygon points="15.235,-8.993 14.917,-7.145 13.123,-7.361 13.36,-9.316"/><polygon points="12.235,-0.012 15.669,0.403 14.768,2.994 11.989,2.028"/><polygon points="30.356,-4.61 29.673,-5.289 29.877,-6.474 31.87,-6.131"/></g><g fill="#888888" stroke="#000000" stroke-width="0.253"><polygon points="7.479,16.597 9.559,19.44 5.832,22.167 3.751,19.324"/><polygon points="16.313,25.474 13.469,23.923 16.009,19.263 18.853,20.813"/><polygon points="7.479,16.597 10.751,14.203 13.891,18.494 10.618,20.888"/><polygon points="13.483,30.664 12.197,29.963 11.224,28.041 13.469,23.923 16.313,25.474"/><polygon points="10.751,14.203 14.433,11.509 16.513,14.352 12.831,17.046"/><polygon points="18.853,20.813 14.246,18.302 16.655,15.368 19.911,15.396 19.88,18.929"/><polygon points="6.467,29.073 2.037,25.96 3.655,23.657 8.086,26.77"/><polygon points="10.565,31.952 6.467,29.073 8.001,26.89 12.099,29.769"/><polygon points="-0.101,22.143 3.751,19.324 5.399,21.575 1.546,24.394"/><polygon points="10.722,32.062 12.197,29.963 13.483,30.664 12.167,33.078"/><polygon points="-0.101,22.143 1.546,24.394 0.972,25.211 -1.714,23.323"/><polygon points="19.93,13.074 19.911,15.396 16.655,15.368 16.675,13.046"/><polygon points="18.514,8.522 19.341,9.652 16.383,13.418 14.793,11.245"/><polygon points="19.959,9.657 19.341,9.652 18.514,8.522 19.978,7.451"/></g><g fill="#888888" stroke="#000000" stroke-width="0.253"><polygon points="-5.958,25.397 -9.517,27.958 -11.966,24.555 -8.407,21.994"/><polygon points="-8.1,12.964 -6.167,16.781 -10.467,18.959 -12.4,15.142"/><polygon points="-9.517,27.958 -13.692,30.963 -17.152,26.156 -12.976,23.151"/><polygon points="-6.167,16.781 -4.423,20.222 -8.098,22.084 -9.841,18.642"/><polygon points="-25.611,18.91 -21.871,17.855 -16.446,18.998 -15.332,20.022 -15.21,20.357 -15.699,21.187 -24.286,23.608"/><polygon points="-17.414,10.353 -13.001,10.377 -13.034,16.198 -17.447,16.173"/><polygon points="-23.095,27.832 -24.286,23.608 -18.343,21.932 -17.152,26.156"/><polygon points="-23.856,13.999 -21.645,11.851 -17.447,16.173 -19.659,18.321"/><polygon points="-17.414,10.353 -17.447,16.173 -21.645,11.851 -20.086,10.338"/><polygon points="-8.242,12.683 -12.095,14.635 -12.071,10.383 -9.4,10.398"/><polygon points="-24.762,14.879 -21.871,17.855 -25.611,18.91 -26.32,16.393"/><polygon points="-13.692,30.963 -17.291,33.553 -18.962,31.231 -15.363,28.641"/><polygon points="-5.243,24.883 -7.033,22.394 -4.081,20.899 -2.912,23.205"/><polygon points="-21.75,32.603 -22.963,28.3 -20.351,27.564 -19.138,31.866"/><polygon points="-21.515,33.436 -19.409,32.842 -18.35,34.315 -20.775,36.06"/></g><g fill="#888888" stroke="#000000" stroke-width="0.253"><polygon points="-20.499,-31.226 -20.655,-27.005 -23.314,-27.103 -23.159,-31.324"/><polygon points="-20.483,-31.656 -22.694,-31.737 -22.347,-33.749 -20.419,-33.416"/><polygon points="-27.387,-34.619 -24.093,-34.051 -24.819,-29.846 -28.112,-30.415"/><polygon points="-27.387,-34.619 -28.112,-30.415 -32.795,-31.875 -32.179,-35.446"/><polygon points="-22.845,-23.408 -26.59,-23.588 -26.433,-26.857 -22.688,-26.677"/><polygon points="-26.59,-23.588 -29.922,-23.748 -29.787,-26.559 -26.455,-26.399"/><polygon points="-22.845,-23.408 -22.688,-26.677 -20.67,-26.603 -20.791,-23.31"/><polygon points="-32.542,-26.215 -33.167,-30.732 -30.371,-31.119 -29.746,-26.602"/><polygon points="-32.179,-35.446 -32.795,-31.875 -33.315,-31.803 -33.859,-35.736"/><polygon points="-32.493,-25.864 -30.131,-26.191 -30.248,-23.764 -32.216,-23.859"/><polygon points="-25.924,-22.755 -20.82,-22.51 -21.15,-13.573 -23.339,-13.653 -26.314,-14.644"/><polygon points="-7.517,-23.744 -8.206,-18.838 -13.988,-19.65 -13.299,-24.555"/><polygon points="-19.85,-27.11 -14.399,-26.909 -14.54,-23.081 -19.991,-23.282"/><polygon points="-19.991,-23.282 -15.146,-23.103 -15.282,-19.414 -20.127,-19.592"/><polygon points="-7.517,-23.744 -11.233,-24.265 -10.722,-27.902 -8.692,-29.216 -6.786,-28.949"/><polygon points="-8.206,-18.838 -8.626,-15.846 -11.617,-16.265 -11.197,-19.258"/><polygon points="-20.275,-15.577 -20.127,-19.592 -16.413,-19.455 -16.561,-15.44"/><polygon points="-19.85,-27.11 -19.745,-29.965 -16.91,-29.861 -17.015,-27.006"/><polygon points="-16.708,-32.776 -13.105,-32.154 -13.56,-29.514 -17.163,-30.135"/><polygon points="-13.105,-32.154 -9.266,-31.492 -9.78,-28.512 -13.619,-29.174"/><polygon points="-11.701,-13.228 -16.101,-13.388 -15.991,-16.396 -11.591,-16.235"/><polygon points="-6.786,-28.949 -8.692,-29.216 -8.327,-31.33 -6.496,-31.014"/><polygon points="-10.964,-13.201 -10.883,-15.403 -8.73,-15.101 -9.007,-13.129"/><polygon points="-20.275,-15.577 -16.561,-15.44 -16.635,-13.408 -20.35,-13.544"/><polygon points="-17.837,-32.971 -18.143,-31.198 -19.698,-31.255 -19.623,-33.279"/></g><g fill="#888888" stroke="#000000" stroke-width="0.253"><polygon points="-22.451,-3.261 -28.292,-2.465 -28.793,-6.134 -22.952,-6.931"/><polygon points="-35.948,-1.878 -37.24,-5.093 -31.118,-7.553 -29.826,-4.337"/><polygon points="-34.488,1.754 -35.948,-1.878 -30.174,-4.198 -28.715,-0.566"/><polygon points="-23.464,-10.684 -22.952,-6.931 -26.578,-6.436 -27.09,-10.189"/><polygon points="-22.451,-3.261 -21.953,0.393 -27.902,1.204 -28.401,-2.45"/><polygon points="-37.24,-5.093 -38.412,-8.012 -35.352,-9.241 -34.179,-6.323"/><polygon points="-36.284,-12.242 -33.422,-14.187 -30.972,-10.581 -33.835,-8.636"/><polygon points="-33,5.457 -34.488,1.754 -29.149,-0.391 -27.662,3.312"/><polygon points="-29.542,-14.876 -26.439,-13.842 -27.869,-9.548 -30.972,-10.581"/><polygon points="-23.497,-10.925 -26.733,-10.484 -25.697,-13.595 -23.774,-12.955"/><polygon points="-21.953,0.393 -21.452,4.063 -26.973,4.816 -27.474,1.146"/><polygon points="-37.335,-11.528 -35.941,-9.476 -38.575,-8.418 -39.291,-10.199"/><polygon points="-29.542,-14.876 -30.972,-10.581 -33.422,-14.187 -31.465,-15.516"/><polygon points="-33,5.457 -27.662,3.312 -26.973,4.816 -26.736,6.666 -30.932,9.343 -32.3,7.2"/><polygon points="-21.452,4.063 -20.991,7.447 -25.759,8.097 -26.22,4.714"/><polygon points="-28.652,12.918 -30.932,9.343 -28.812,7.99 -26.531,11.564"/><polygon points="-22.211,11.286 -25.063,8.349 -20.944,7.787 -20.671,9.791"/><polygon points="-22.211,11.286 -25.044,14.037 -26.702,12.33 -23.869,9.579"/><polygon points="-28.198,13.629 -26.791,12.732 -25.29,14.277 -26.83,15.773"/></g><g fill="#888888" stroke="#000000" stroke-width="0.253"><polygon points="40.516,-21.796 38.911,-22.646 39.609,-24.262 41.411,-23.485"/><polygon points="36.004,-25.817 39.116,-24.475 38.217,-22.39 35.105,-23.733"/><polygon points="40.286,-21.363 38.38,-17.766 36.388,-18.822 38.294,-22.419"/><polygon points="35.221,-16 31.739,-17.823 33.061,-20.347 36.543,-18.524"/><polygon points="35.221,-16 36.543,-18.524 38.291,-17.598 36.962,-15.089"/><polygon points="32.627,-25.38 34.672,-22.729 34.844,-21.401 33.351,-20.901 30.525,-21.45 31.052,-24.165"/><polygon points="36.004,-25.817 34.672,-22.729 32.627,-25.38 34.201,-26.595"/><polygon points="30.525,-21.45 33.351,-20.901 31.739,-17.823 29.999,-18.735"/><polygon points="26.9,-20.357 27.885,-22.238 29.792,-21.868 29.259,-19.122"/><polygon points="29.792,-21.868 27.885,-22.238 26.103,-25.649 26.532,-25.968 31.06,-26.799 31.843,-25.785 30.324,-24.613"/><polygon points="21.525,-23.172 22.437,-24.915 23.769,-25.749 26.909,-24.105 27.885,-22.238 26.9,-20.357"/><polygon points="25.37,-30.404 27.963,-29.286 26.532,-25.968 23.939,-27.087"/><polygon points="31.843,-25.785 31.06,-26.799 31.479,-27.769 33.361,-26.957"/><polygon points="27.963,-29.286 30.447,-28.214 29.732,-26.555 27.248,-27.627"/><polygon points="19.436,-26.504 20.814,-29.105 23.815,-27.515 22.437,-24.915"/><polygon points="19.436,-26.504 22.437,-24.915 21.525,-23.172 18.508,-24.751"/><polygon points="24.276,-30.876 23.417,-28.885 21.293,-30.01 22.221,-31.763"/><polygon points="20.703,-22.699 23.729,-21.114 22.51,-18.786 19.484,-20.37"/><polygon points="19.468,-23.346 19.489,-19.451 16.567,-20.32 17.086,-22.065 18.134,-24.044"/><polygon points="15.261,-15.928 16.398,-19.754 19.943,-18.701 18.805,-14.874"/><polygon points="24.296,-16.621 23.383,-14.151 19.455,-15.601 20.368,-18.072"/><polygon points="24.785,-17.945 22.51,-18.786 23.729,-21.114 25.595,-20.138"/><polygon points="23.383,-14.151 22.591,-12.005 18.68,-13.45 19.472,-15.595"/><polygon points="14.073,-11.932 15.261,-15.928 17.17,-15.36 15.982,-11.364"/><polygon points="19.422,-9.084 16.394,-9.605 16.806,-12.001 19.834,-11.48"/><polygon points="19.422,-9.084 19.834,-11.48 22.089,-10.647 21.387,-8.746"/><polygon points="14.001,-11.69 15.736,-11.174 15.493,-9.76 13.528,-10.098"/><polygon points="30.501,-7.178 31,-10.079 33.581,-8.711 32.58,-6.82"/><polygon points="35.585,-12.492 33.816,-9.154 30.617,-10.849 32.386,-14.187"/><polygon points="30.501,-7.178 26.162,-7.925 26.661,-10.825 31,-10.079"/><polygon points="35.585,-12.492 32.386,-14.187 33.37,-16.067 36.587,-14.382"/><polygon points="28.231,-18.757 32.836,-16.346 31.379,-13.563 26.774,-15.975"/><polygon points="23.073,-11.003 24.896,-15.936 27.468,-14.986 25.646,-10.052"/><polygon points="23.073,-11.003 25.646,-10.052 25.305,-8.072 22.189,-8.608"/><polygon points="28.231,-18.757 26.774,-15.975 25.134,-16.58 26.309,-19.764"/></g><g fill="#888888" stroke="#000000" stroke-width="0.253"><polygon points="11.201,-33.991 10.919,-31.842 8.313,-32.361 8.703,-34.319"/><polygon points="7.537,-28.462 8.313,-32.361 10.919,-31.842 10.143,-27.944"/><polygon points="11.35,-33.972 16.064,-33.353 15.756,-31.006 11.042,-31.624"/><polygon points="7.534,-28.445 10.121,-27.93 9.211,-25.659 7.144,-26.487"/><polygon points="13.344,-24.003 10.118,-25.296 11.508,-28.765 14.734,-27.472"/><polygon points="19.58,-31.05 17.129,-26.421 14.539,-27.792 16.991,-32.421"/><polygon points="19.58,-31.05 16.991,-32.421 17.095,-33.217 20.492,-32.772"/><polygon points="13.344,-24.003 14.734,-27.472 17.039,-26.251 15.41,-23.175"/><polygon points="12.85,-43.305 12.834,-40.719 10.086,-41.266 10.495,-43.32"/><polygon points="9.431,-37.973 10.086,-41.266 12.834,-40.719 12.179,-37.426"/><polygon points="12.85,-43.305 18.019,-43.273 18.003,-40.687 12.834,-40.719"/><polygon points="14.865,-34.317 11.325,-34.782 11.616,-37.001 15.156,-36.536"/><polygon points="9.269,-37.159 11.292,-36.756 11.038,-34.819 8.86,-35.105"/><polygon points="18.55,-33.833 14.865,-34.317 15.173,-36.667 18.859,-36.184"/><polygon points="21.312,-40.83 20.913,-36.833 17.968,-37.127 18.366,-41.124"/><polygon points="21.312,-40.83 18.366,-41.124 18.379,-43.271 21.553,-43.251"/><polygon points="18.55,-33.833 18.859,-36.184 20.829,-35.987 20.588,-33.566"/><polygon points="5.108,-35.618 5.71,-37.326 8.38,-36.795 7.947,-34.618"/><polygon points="9.006,-39.937 8.38,-36.795 5.71,-37.326 6.335,-40.468"/><polygon points="-1.265,-37.864 -0.732,-39.375 2.994,-40.631 4.906,-39.561 5.71,-37.326 5.108,-35.618"/><polygon points="3.011,-43.367 6.574,-43.345 6.557,-40.609 2.994,-40.631"/><polygon points="9.247,-41.148 7.846,-41.427 7.858,-43.337 9.681,-43.325"/><polygon points="-1.865,-43.397 3.011,-43.367 2.994,-40.631 -1.882,-40.661"/><polygon points="-4.564,-41.261 -2.186,-41.002 -0.732,-39.375 -1.265,-37.864 -4.798,-39.109"/><polygon points="-2.171,-43.399 -2.186,-41.002 -4.564,-41.261 -4.33,-43.412"/><polygon points="3.812,-27.823 4.298,-29.035 6.739,-28.549 6.389,-26.79"/><polygon points="7.439,-32.066 6.739,-28.549 4.298,-29.035 4.998,-32.552"/><polygon points="3.112,-28.103 -2.19,-30.228 -1.315,-32.412 3.987,-30.287"/><polygon points="7.439,-32.066 3.359,-32.879 4.145,-35.109 7.789,-33.825"/><polygon points="-1.367,-37.051 4.139,-35.111 3.347,-32.866 -2.158,-34.806"/><polygon points="-5.434,-33.273 -1.669,-32.864 -1.315,-32.412 -2.19,-30.228 -5.616,-31.601"/><polygon points="-5.434,-33.273 -5.069,-36.619 -2.545,-36.344 -2.909,-32.999"/><polygon points="-2.193,-37.343 -2.545,-36.344 -5.069,-36.619 -4.887,-38.292"/></g><g fill="#888888" stroke="#000000" stroke-width="0.253"><polygon points="48.271,24.159 47.99,21.519 51.216,21.377 51.829,21.883 50.113,23.963"/><polygon points="48.277,18.499 51.717,19.35 51.216,21.377 47.776,20.525"/><polygon points="48.271,24.159 44.48,24.563 44.199,21.923 47.99,21.519"/><polygon points="45.003,17.688 48.277,18.499 47.592,21.267 44.318,20.456"/><polygon points="51.829,21.883 51.216,21.377 51.717,19.35 53.546,19.803"/><polygon points="44.712,17.616 44.11,20.051 41.896,19.06 42.758,17.132"/><polygon points="40.337,22.545 41.716,19.463 44.431,20.678 43.053,23.759"/><polygon points="40.162,22.937 43.053,23.759 43.153,24.704 39.877,25.053 39.308,24.845"/><polygon points="52.984,9.244 49.935,9.504 50.206,5.494 51.228,4.676 52.797,7.056"/><polygon points="46.72,8.275 48.338,4.658 50.206,5.494 48.588,9.111"/><polygon points="52.984,9.244 53.379,13.886 50.33,14.146 49.935,9.504"/><polygon points="45.334,11.374 46.72,8.275 49.809,9.657 48.423,12.756"/><polygon points="43.873,14.641 45.334,11.374 48.155,12.636 46.694,15.903"/><polygon points="51.228,4.676 50.206,5.494 48.338,4.658 49.249,2.623 50.213,3.137"/><polygon points="51.737,18.531 47.557,17.496 48.351,14.286 52.531,15.321"/><polygon points="43.873,14.641 46.694,15.903 46.372,17.203 43.09,16.39"/><polygon points="51.737,18.531 52.531,15.321 53.494,15.239 53.818,19.046"/><polygon points="40.942,13.723 42.298,11.425 42.591,11.355 44.153,12.054 42.892,14.874"/><polygon points="44.153,12.054 42.591,11.355 43.343,8.656 45.415,9.234"/><polygon points="43.343,8.656 42.591,11.355 42.298,11.425 36.798,8.633 36.779,8.313 37.8,7.11"/><polygon points="35.641,10.595 36.798,8.633 42.298,11.425 40.942,13.723"/><polygon points="37.8,7.11 36.779,8.313 34.284,6.23 36.278,3.842 37.13,6.923"/><polygon points="34.284,6.23 36.779,8.313 36.798,8.633 35.641,10.595 32.29,8.617"/><polygon points="43.754,7.94 44.302,5.975 46.444,6.933 45.745,8.496"/><polygon points="47.804,3.892 46.444,6.933 44.302,5.975 45.662,2.934"/><polygon points="42.961,7.719 39.771,6.829 40.623,3.777 43.812,4.667"/><polygon points="42.869,-0.779 45.429,0.586 43.69,3.848 41.13,2.483"/><polygon points="47.842,3.808 45.773,2.882 46.65,1.237 48.541,2.245"/><polygon points="37.341,4.684 40.623,3.777 39.771,6.829 37.78,6.274"/><polygon points="38.94,0.654 41.13,2.483 41.316,2.992 40.623,3.777 37.341,4.684 36.902,3.095"/><polygon points="42.869,-0.779 41.13,2.483 38.94,0.654 40.979,-1.787"/><polygon points="38.713,-0.321 36.481,2.35 35.088,1.186 37.319,-1.485"/><polygon points="29.284,-0.699 32.358,-3.786 34.591,-1.562 31.517,1.525"/><polygon points="36.481,2.35 33.742,5.631 31.155,3.47 33.895,0.19"/><polygon points="35.599,-4.655 38.521,-3.097 37.688,-1.534 34.766,-3.091"/><polygon points="35.599,-4.655 34.436,-2.472 32.735,-4.165 34.047,-5.482"/><polygon points="39.008,-0.675 37.941,-1.567 38.705,-2.999 40.257,-2.171"/><polygon points="26.191,2.408 29.284,-0.699 30.677,0.688 27.584,3.795"/><polygon points="29.832,7.167 26.971,5.478 28.016,3.709 30.877,5.397"/><polygon points="29.832,7.167 31.454,4.419 33.398,6.042 31.592,8.205"/><polygon points="25.849,2.751 27.011,3.908 26.314,5.09 24.554,4.052"/><polygon points="32.953,22.527 28.325,20.839 30.16,15.806 34.789,17.494"/><polygon points="35.225,11.278 38.305,13.096 35.623,17.639 32.544,15.821"/><polygon points="31.976,9.361 35.225,11.278 32.364,16.127 29.115,14.21"/><polygon points="36.649,23.875 32.953,22.527 34.069,19.468 37.765,20.816"/><polygon points="28.325,20.839 23.685,19.147 24.637,16.537 29.277,18.229"/><polygon points="28.653,7.4 31.976,9.361 29.829,12.999 26.506,11.038"/><polygon points="41.827,17.256 40.179,20.94 36.843,19.448 38.491,15.764"/><polygon points="41.827,17.256 38.491,15.764 39.611,13.866 42.563,15.609"/><polygon points="36.649,23.875 37.765,20.816 39.823,21.736 38.555,24.57"/><polygon points="21.915,14.931 21.935,12.59 26.964,12.633 26.944,14.974"/><polygon points="21.901,16.513 24.637,16.537 23.685,19.147 21.884,18.49"/><polygon points="21.935,12.59 21.972,8.184 24.251,8.203 24.214,12.609"/><polygon points="25.559,5.574 28.653,7.4 27.205,9.853 24.111,8.027"/><polygon points="25.559,5.574 24.111,8.027 21.979,7.31 21.985,6.632 23.972,4.637"/></g><g fill="#888888" stroke="#000000" stroke-width="0.253"><polygon points="-9.637,45.245 -7.552,47.309 -8.771,48.745 -11.125,46.748"/><polygon points="-3.681,53.065 -7.033,50.22 -3.767,46.373 -0.416,49.217"/><polygon points="-6.113,41.686 -3.723,39.272 -1.381,41.591 -3.771,44.005"/><polygon points="0.847,39.107 3.371,41.661 1.13,43.876 -1.394,41.322"/><polygon points="3.371,41.661 6.856,45.187 4.397,47.617 0.912,44.091"/><polygon points="0.451,56.572 -3.681,53.065 -1.503,50.498 2.629,54.005"/><polygon points="0.451,56.572 2.629,54.005 3.622,54.555 1.847,57.757"/><polygon points="6.757,48.897 4.397,47.617 6.856,45.187 8.073,46.418 8.006,46.643"/><polygon points="11.184,35.934 8.624,35.175 10.321,32.759 11.815,33.808"/><polygon points="7.335,30.66 10.055,32.571 8.131,35.309 5.411,33.397"/><polygon points="0.755,34.748 3.73,31.744 5.416,33.413 2.441,36.417"/><polygon points="-9.848,44.321 -11.295,42.889 -11.775,40.723 -9.092,38.013 -6.32,40.757"/><polygon points="-6.32,40.757 -9.488,37.621 -5.43,33.522 -2.262,36.659"/><polygon points="-11.779,30.572 -8.738,28.383 -5.585,32.765 -8.626,34.953"/><polygon points="-19.015,35.779 -15.919,33.552 -14.378,35.693 -17.474,37.921"/><polygon points="-16.581,42.116 -19.119,39.962 -17.389,37.923 -14.851,40.077"/><polygon points="-13.127,45.048 -11.295,42.889 -9.848,44.321 -11.736,46.228"/><polygon points="-8.738,28.383 -5.514,26.063 -2.747,29.908 -5.971,32.228"/><polygon points="-2.262,36.659 -5.034,33.914 -1.406,30.25 1.366,32.995"/><polygon points="3.877,30.458 1.366,32.995 -0.449,31.198 2.062,28.662"/><polygon points="2.865,27.519 2.062,28.662 -0.599,29.578 -3.036,27.865 -0.923,24.858"/><polygon points="-0.923,24.858 -3.101,27.957 -4.822,25.566 -2.398,23.821"/><polygon points="3.877,30.458 2.062,28.662 2.865,27.519 5.178,29.144"/></g><g fill="#888888" stroke="#000000" stroke-width="0.253"><polygon points="24.746,39.032 27.22,40.521 25.766,42.937 23.292,41.448"/><polygon points="28.108,44.55 26.094,47.879 23.525,46.325 25.539,42.996"/><polygon points="28.752,43.485 27.219,42.558 28.119,41.062 29.658,41.988"/><polygon points="10.526,45.181 11.564,41.682 14.8,42.642 13.762,46.141"/><polygon points="10.526,45.181 13.762,46.141 13.314,47.8 10.013,46.91"/><polygon points="16.081,33.817 14.315,36.751 13.149,36.343 13.726,34.396 14.546,32.893"/><polygon points="31.604,38.77 29.953,37.771 28.709,35.206 31.08,31.286 34.778,33.523"/><polygon points="30.441,23.74 34.068,25.063 32.791,28.565 29.164,27.242"/><polygon points="30.441,23.74 28.398,29.344 24.822,28.039 26.866,22.436"/><polygon points="19.734,35.081 21.315,32.454 25.592,35.029 24.011,37.656"/><polygon points="37.631,28.806 34.778,33.523 32.051,31.873 34.904,27.157"/><polygon points="28.424,40.311 24.011,37.656 25.54,35.115 29.953,37.771"/><polygon points="18.185,26.217 19.95,22.98 22.953,24.617 21.189,27.854"/><polygon points="16.278,29.716 18.185,26.217 20.754,27.617 18.847,31.116"/><polygon points="28.424,40.311 29.953,37.771 31.604,38.77 30.072,41.303"/><polygon points="24.17,21.453 26.866,22.436 25.68,25.687 22.984,24.704"/><polygon points="37.631,28.806 34.904,27.157 35.48,25.578 38.842,26.804"/><polygon points="23.155,21.083 22.416,23.11 20.46,22.044 21.344,20.422"/><polygon points="15.862,30.479 17.623,31.439 16.576,33.18 14.929,32.19"/></g><g stroke="#000000" stroke-width="0.8" stroke-linecap="butt"><polyline points="-26.859,21.851 -34.559,24.022"/><polyline points="-25.231,27.626 -32.931,29.797"/><polyline points="-23.603,33.401 -31.303,35.572"/></g><g fill="#888888" stroke="#000000" stroke-width="0.253"><polygon points="-20.325,-34.212 -19.241,-40.491 -15.082,-39.773 -16.166,-33.494"/><polygon points="-9.596,-53.41 -7.839,-49.634 -14.517,-46.525 -16.275,-50.301"/><polygon points="-24.314,-34.9 -22.688,-44.319 -18.7,-43.63 -20.325,-34.212"/><polygon points="-24.314,-34.9 -28.176,-35.567 -26.918,-42.858 -23.055,-42.191"/><polygon points="-5.337,-41.548 -13.573,-42.444 -6.109,-45.919 -5.098,-43.747"/><polygon points="-5.987,-35.579 -7.752,-35.771 -10.132,-37.43 -9.633,-42.015 -5.337,-41.548"/><polygon points="-8.377,-32.15 -12.082,-32.79 -11.457,-36.41 -7.752,-35.771"/><polygon points="-34.076,-38.554 -31.469,-38.717 -31.901,-36.21 -33.951,-36.563"/><polygon points="-8.377,-32.15 -7.752,-35.771 -5.987,-35.579 -6.398,-31.809"/></g><g fill="#888888" stroke="#000000" stroke-width="0.253"><polygon points="-45.694,-32.19 -44.235,-32.09 -44.306,-31.047 -45.766,-31.147"/></g><g stroke="#000000" stroke-width="0.8" stroke-linecap="butt"><polyline points="-39.849,-6.222 -47.272,-3.24"/><polyline points="-37.612,-0.655 -45.035,2.328"/><polyline points="-35.375,4.912 -42.798,7.895"/></g><g fill="#888888" stroke="#000000" stroke-width="0.253"><polygon points="2.472,-49.896 4.679,-47.379 1.129,-46.193 -0.848,-46.93 -0.774,-48.858 1.202,-48.782"/><polygon points="4.679,-44.156 1.116,-44.179 1.129,-46.193 4.691,-46.171"/><polygon points="1.116,-44.179 -2.472,-44.201 -2.459,-46.17 1.128,-46.148"/><polygon points="-4.725,-49.01 -0.922,-48.864 -0.999,-46.859 -4.802,-47.005"/><polygon points="-5.567,-46.65 -4.802,-47.005 -2.459,-46.17 -2.472,-44.201 -4.432,-44.213"/><polygon points="15.198,-44.091 9.912,-44.124 9.928,-46.741 15.215,-46.708"/><polygon points="-4.725,-49.01 -4.802,-47.005 -5.567,-46.65 -6.701,-49.086"/><polygon points="15.198,-44.091 15.215,-46.708 15.798,-46.986 17.188,-44.079"/><polygon points="-10.33,-56.883 -9.313,-57.357 -7.534,-57.163 -5.554,-52.909 -7.959,-51.79"/><polygon points="-9.939,-60.468 -9.313,-57.357 -10.33,-56.883 -11.823,-60.089"/><polygon points="-7.959,-51.79 -4.952,-53.19 -5.082,-49.824 -7.08,-49.902"/><polygon points="2.316,-50.822 0.193,-53.242 3.72,-56.335 5.842,-53.915"/><polygon points="-1.084,-49.67 -0.899,-54.487 2.316,-50.822 0.914,-49.593"/><polygon points="27.369,-51.126 23.973,-46.932 20.801,-49.5 24.198,-53.695"/><polygon points="15.82,-48.793 14.151,-52.285 18.858,-54.535 20.527,-51.043"/><polygon points="19.858,-44.062 19.876,-46.911 20.959,-48.615 23.602,-46.474 21.639,-44.051"/><polygon points="17.307,-45.683 19.876,-46.911 19.858,-44.062 18.077,-44.073"/><polygon points="15.266,-59.102 19.219,-60.272 20.18,-57.026 16.228,-55.855"/><polygon points="23.84,-59.975 26.591,-56.56 22.932,-53.611 20.18,-57.026"/><polygon points="27.369,-51.126 24.198,-53.695 27.049,-55.992 29.174,-53.355"/></g><g fill="#888888" stroke="#000000" stroke-width="0.253"><polygon points="39.958,-36.006 38.434,-34.63 35.645,-37.719 37.169,-39.095"/><polygon points="39.285,-43.038 36.756,-40.904 33.5,-44.764 36.029,-46.897"/><polygon points="34.288,-30.885 32.056,-33.356 36.203,-37.101 38.434,-34.63"/><polygon points="41.467,-37.369 40.118,-38.862 41.689,-40.187 42.942,-38.701"/><polygon points="24.931,-44.938 27.561,-42.808 26.71,-41.757 26.503,-39.675 23.239,-40 23.563,-43.248"/><polygon points="30.002,-29.278 31.856,-33.578 34.288,-30.885 31.697,-28.546"/><polygon points="30.002,-29.278 26.105,-30.959 27.96,-35.259 31.856,-33.578"/><polygon points="22.793,-35.53 23.239,-40 28.134,-39.512 27.689,-35.042"/><polygon points="32.553,-51.018 30.099,-48.044 28.497,-49.342 30.695,-52.056 31.416,-52.366"/><polygon points="22.704,-34.634 26.683,-34.238 25.399,-31.263 22.493,-32.517"/><polygon points="39.882,-25.015 37.588,-26.005 39.12,-29.558 41.415,-28.568"/><polygon points="36.825,-32.099 40.618,-35.524 42.584,-33.347 38.791,-29.922"/><polygon points="39.882,-25.015 41.806,-29.475 42.385,-29.703 44.56,-25.682 41.799,-24.189"/><polygon points="33.979,-29.529 35.562,-27.777 35.235,-27.02 32.505,-28.198"/><polygon points="44.56,-25.682 43.318,-27.979 47.913,-30.464 49.156,-28.168"/><polygon points="45.192,-36.034 48.002,-32.703 45.36,-30.475 42.55,-33.806"/><polygon points="49.156,-28.168 47.83,-30.618 48.958,-31.57 50.99,-29.16"/><polygon points="39.277,-44.288 41.834,-46.445 42.505,-43.272 40.492,-42.847"/><polygon points="41.752,-53.746 43.411,-51.498 40.372,-49.255 38.713,-51.503"/><polygon points="36.318,-47.796 33.637,-50.974 35.099,-52.207 37.78,-49.029"/><polygon points="35.336,-54.055 38.069,-55.232 39.041,-52.974 36.308,-51.797"/><polygon points="34.145,-53.542 34.655,-52.358 33.378,-51.28 32.183,-52.697"/><polygon points="48.169,-46.401 45.033,-50.649 46.92,-52.043 50.056,-47.795"/><polygon points="52.325,-50.898 53.34,-47.495 51.288,-46.883 50.273,-50.285"/><polygon points="48.169,-46.401 50.056,-47.795 51.288,-46.883 51.643,-45.202 49.403,-44.729"/><polygon points="45.033,-50.649 43.041,-53.346 45.465,-55.136 47.456,-52.439"/><polygon points="42.905,-57.314 46.613,-58.911 47.381,-57.128 43.673,-55.532"/><polygon points="42.469,-57.127 43.101,-55.658 41.958,-54.814 40.786,-56.402"/><polygon points="55.637,-39.794 56.656,-36.38 52.784,-35.224 51.765,-38.639"/><polygon points="48.332,-33.553 45.385,-37.047 48.526,-39.696 51.473,-36.203"/><polygon points="56.22,-31.989 54.042,-30.811 52.492,-33.678 54.669,-34.856"/><polygon points="54.804,-42.59 55.637,-39.794 53.176,-39.06 52.342,-41.855"/><polygon points="50.608,-30.854 52.214,-32.209 53.213,-30.362 51.709,-29.549"/><polygon points="56.22,-31.989 54.669,-34.856 56.911,-35.525 57.723,-32.802"/><polygon points="45.385,-37.047 43.343,-39.468 44.928,-40.805 46.971,-38.384"/><polygon points="54.644,-43.124 52.786,-42.569 52.37,-44.538 54.113,-44.906"/><polygon points="43.662,-42.699 47.512,-43.512 47.872,-41.81 44.022,-40.997"/></g><g fill="#888888" stroke="#000000" stroke-width="0.253"><polygon points="53.55,-16.507 57.273,-18.571 58.843,-15.74 55.12,-13.675"/><polygon points="53.55,-16.507 55.12,-13.675 53.251,-12.706 51.787,-15.529"/><polygon points="59.127,-1.382 61.148,-2.431 61.98,-0.7 59.98,0.262"/><polygon points="48.87,-25.74 52.99,-27.968 54.462,-25.247 50.342,-23.019"/><polygon points="52.99,-27.968 56.949,-30.11 59.074,-26.183 55.114,-24.041"/><polygon points="50.429,-18.145 48.457,-21.946 50.49,-23.001 52.462,-19.2"/><polygon points="48.87,-25.74 50.342,-23.019 48.418,-22.021 47.01,-24.734"/><polygon points="60.495,-31.115 60.7,-26.697 59.309,-25.746 56.949,-30.11 58.649,-31.029"/><polygon points="65.89,-24.265 61.257,-21.696 59.514,-24.839 64.146,-27.408"/><polygon points="60.495,-31.115 64.188,-31.285 64.358,-27.604 60.666,-27.434"/><polygon points="65.89,-24.265 64.146,-27.408 64.358,-27.604 66.911,-28.344 67.788,-25.317"/><polygon points="66.911,-28.344 64.358,-27.604 64.188,-31.285 66.034,-31.371"/><polygon points="77.923,-29.914 77.782,-24.166 74.869,-24.238 75.011,-29.986"/><polygon points="73.501,-8.477 72.398,-12.282 74.098,-12.774 75.201,-8.97"/><polygon points="76.019,-8.274 75.201,-8.97 75.171,-12.468 77.493,-12.411 77.445,-10.481"/><polygon points="77.923,-29.914 75.011,-29.986 74.928,-31.782 77.973,-31.923"/><polygon points="69.37,-31.525 69.503,-28.647 67.799,-28.153 66.856,-31.409"/><polygon points="73.501,-8.477 75.201,-8.97 76.019,-8.274 75.246,-7.077 74.07,-6.512"/><polygon points="37.24,-11.344 39.714,-16.011 44.796,-13.317 42.323,-8.65"/><polygon points="52.794,-11.85 47.995,-9.359 45.772,-13.642 50.572,-16.132"/><polygon points="39.724,-16.03 41.503,-19.387 45.366,-17.34 43.586,-13.983"/><polygon points="47.987,-21.115 48.974,-19.213 45.814,-17.573 44.827,-19.475"/><polygon points="55.024,-7.553 52.024,-5.997 49.794,-10.293 52.794,-11.85"/><polygon points="45.305,-0.386 40.948,-2.71 43.959,-8.358 48.317,-6.034"/><polygon points="44.784,-23.53 45.748,-21.747 44.827,-19.475 42.268,-20.831 43.262,-22.706"/><polygon points="40.948,-2.71 37.154,-4.732 38.539,-7.331 42.333,-5.308"/><polygon points="35.789,-8.605 37.24,-11.344 39.782,-9.997 38.33,-7.258"/><polygon points="47.253,-22.528 45.748,-21.747 44.784,-23.53 46.306,-24.353"/><polygon points="35.398,-7.868 37.256,-6.883 36.341,-5.166 34.489,-6.153"/><polygon points="55.024,-7.553 56.603,-4.509 52.369,-2.312 50.789,-5.356"/><polygon points="48.64,1.392 45.305,-0.386 47.738,-4.949 51.073,-3.171"/><polygon points="56.603,-4.509 58.179,-1.471 56.145,-0.415 54.569,-3.453"/><polygon points="48.64,1.392 51.073,-3.171 52.369,-2.312 53.009,-1.481 52.929,2.369 50.374,2.316"/><polygon points="52.929,2.369 53.009,-1.481 56.502,-0.294 57.371,1.515 55.484,2.423"/><polygon points="57.371,1.515 56.502,-0.294 58.305,-1.23 59.258,0.608"/></g><g fill="#888888" stroke="#000000" stroke-width="0.253"><polygon points="60.337,52.349 55.315,49.394 57.263,46.084 62.285,49.039"/><polygon points="63.462,44.846 56.559,44.665 57.47,42.157 62.073,39.764 63.522,42.551"/><polygon points="60.273,36.303 62.073,39.764 59.798,40.947 57.999,37.486"/><polygon points="59.8,35.393 58.157,36.247 57.281,35.07 58.976,33.808"/><polygon points="37.951,29.823 41.451,31.941 38.014,37.623 34.514,35.505"/><polygon points="48.797,40.392 44.882,43.307 40.832,37.869 44.747,34.954"/><polygon points="53.077,37.204 48.797,40.392 45.629,36.139 49.91,32.951"/><polygon points="46.156,26.396 46.533,29.934 41.774,30.441 41.397,26.902"/><polygon points="31.766,40.048 34.625,41.778 33.683,43.357 30.804,41.639"/><polygon points="51.144,27.167 48.201,32.649 46.848,32.894 46.156,26.396 49.119,26.08"/><polygon points="51.144,27.167 55.561,29.538 54.218,32.041 49.801,29.67"/><polygon points="56.697,34.508 53.077,37.204 51.152,34.619 54.772,31.924"/><polygon points="56.697,34.508 54.772,31.924 56.463,30.022 57.219,30.428 58.602,33.089"/></g><g fill="#888888" stroke="#000000" stroke-width="0.505"><polygon points="54.37,4.9 77.743,-6.336 90.671,4.758 85.19,37.801 65.998,43.518 56.026,24.34" fill="#FFFFFF"/><polygon points="84.313,19.254 83.162,26.19 82.163,32.215 77.393,31.424 70.633,30.302 62.85,29.011 63.85,22.987 65,16.05 66.15,9.12 73.932,10.411 74.934,4.374 81.694,5.495 80.693,11.533 79.543,18.463"/></g><g stroke="#888888" stroke-width="0.253" stroke-linecap="butt"><g fill="#888888" stroke="#000000" stroke-width="0.253"/></g><g stroke="#888888" stroke-width="0.253" stroke-linecap="butt"><g fill="#888888" stroke="#000000" stroke-width="0.253"/></g><g stroke="#888888" stroke-width="0.253" stroke-linecap="butt"><g fill="#888888" stroke="#000000" stroke-width="0.253"/></g><g stroke="#000000" stroke-width="0.8" stroke-linecap="butt"><polyline points="-57.197,-33.934 -63.561,-29.086"/><polyline points="-53.561,-29.161 -59.925,-24.313"/></g><g stroke="#888888" stroke-width="0.253" stroke-linecap="butt"><g fill="#888888" stroke="#000000" stroke-width="0.253"/></g><g stroke="#888888" stroke-width="0.253" stroke-linecap="butt"><g fill="#888888" stroke="#000000" stroke-width="0.253"/></g><g stroke="#888888" stroke-width="0.253" stroke-linecap="butt"><g fill="#888888" stroke="#000000" stroke-width="0.253"/></g><g stroke="#888888" stroke-width="0.253" stroke-linecap="butt"><g fill="#888888" stroke="#000000" stroke-width="0.253"/></g><g stroke="#888888" stroke-width="0.253" stroke-linecap="butt"><g fill="#888888" stroke="#000000" stroke-width="0.253"/></g><g><path fill="none" stroke="#000000" stroke-width="1.9" stroke-linejoin="round" stroke-linecap="round" d="M 54.37,4.9 L 77.743,-6.336 L 90.671,4.758 L 85.19,37.801 L 65.998,43.518 L 57.363,26.913 M 55.779,21.45 L 54.37,4.9"/><g stroke="#000000" stroke-width="3.8" stroke-linecap="butt"><line x1="56.487" y1="25.227" x2="55.941" y2="23.343" stroke="#FFFFFF" stroke-width="3.8" stroke-linecap="butt"/><line x1="57.545" y1="28.877" x2="56.487" y2="25.227"/><line x1="55.941" y1="23.343" x2="54.882" y2="19.694"/></g><circle cx="54.37" cy="4.9" r="2.5" stroke="none" fill="#000000"/><circle cx="77.743" cy="-6.336" r="2.5" stroke="none" fill="#000000"/><circle cx="90.671" cy="4.758" r="2.5" stroke="none" fill="#000000"/><circle cx="85.19" cy="37.801" r="2.5" stroke="none" fill="#000000"/><circle cx="65.998" cy="43.518" r="2.5" stroke="none" fill="#000000"/></g></g></svg>