<svg xmlns="http://www.w3.org/2000/svg" width="500" height="500">
	<defs>
		<pattern id="map-grid" width="1" height="1" patternUnits="userSpaceOnUse">
		<path d="M 0 0 L 1 0 1 1 0 1 z" stroke="#000" stroke-width="0.05" fill="none"></path></pattern>
	</defs>
		<path id="barracks" fill="#ff0084" d="M110, 183
		L 110, 175
		L 104, 170
		Q100,156 114,160
		L 120, 166
		L 127, 166
		L 133, 160
		Q146,157 143,170
		L 137, 176
		L 137, 183
		L 142, 188
		Q146,201 132,198
		L 127, 193
		L 120, 193
		L 115, 198
		Q 103,201 105,188
		L 110,183
		Z
		"/>
		<path id="barracks" fill="#ff0084" d="M199, 147
		L 242, 147
		Q246,147 246,151
		L 246, 170
		Q246,174 242,174
		L 199, 174
		Q195,174 195,170
		L 195, 151
		Q195,147 199,147


		Z
		"/>
		<g id="silos" fill="#0243ba">
			<circle cx="347" cy="79" r="19" />
			<circle cx="373" cy="37" r="19" />
			<circle cx="422" cy="37" r="19" />
		</g>
		<g id="huts" fill="#0243ba">
            <circle cx="153" cy="282" r="7" />
            <circle cx="158" cy="239" r="6" />
            <circle cx="170" cy="295" r="12" />
            <circle cx="193" cy="298" r="7" />
            <circle cx="194" cy="278" r="7" />
            <circle cx="213" cy="289" r="7" />
            <circle cx="215" cy="265" r="9" />
            <circle cx="219" cy="246" r="7" />

            <circle cx="257" cy="207" r="7" />
            <circle cx="274" cy="218" r="7" />
            <circle cx="290" cy="231" r="7" />
            <circle cx="255" cy="227" r="7" />
            <circle cx="270" cy="235" r="7" />

            <circle cx="79" cy="195" r="7" />
            <circle cx="73" cy="175" r="7" />
            <circle cx="92" cy="179" r="7" />
            <circle cx="83" cy="159" r="7" />
            <circle cx="104" cy="149" r="7" />
            <circle cx="125" cy="147" r="7" />
            <circle cx="147" cy="147" r="7" />
            <circle cx="165" cy="158" r="7" />
            <circle cx="159" cy="178" r="7" />

            <circle cx="129" cy="336" r="7" />
            <circle cx="134" cy="358" r="7" />
            <circle cx="136" cy="380" r="7" />
            <circle cx="143" cy="310" r="7" />
            <circle cx="146" cy="327" r="7" />
            <circle cx="149" cy="346" r="7" />
            <circle cx="151" cy="367" r="7" />
            <circle cx="154" cy="389" r="7" />
            <circle cx="165" cy="327" r="7" />
            <circle cx="166" cy="346" r="7" />
            <circle cx="169" cy="367" r="7" />
            <circle cx="175" cy="389" r="7" />

            <circle cx="187" cy="329" r="7" />
            <circle cx="196" cy="344" r="7" />
            <circle cx="208" cy="359" r="7" />
            <circle cx="222" cy="368" r="7" />

            <circle cx="205" cy="325" r="7" />
            <circle cx="217" cy="335" r="7" />
            <circle cx="230" cy="347" r="7" />
            <circle cx="242" cy="359" r="7" />
            <circle cx="254" cy="373" r="7" />

            <circle cx="220" cy="317" r="7" />
            <circle cx="235" cy="328" r="7" />
            <circle cx="251" cy="343" r="7" />
            <circle cx="266" cy="355" r="7" />

            <circle cx="234" cy="306" r="7" />
            <circle cx="253" cy="322" r="7" />
            <circle cx="270" cy="331" r="7" />

            <circle cx="241" cy="289" r="7" />
            <circle cx="251" cy="304" r="7" />
            <circle cx="269" cy="312" r="7" />

            <circle cx="260" cy="284" r="7" />
            <circle cx="281" cy="294" r="7" />
		</g>
		<g id="slum-roads">
			<path d="M152 262
			L 166 258
			Q193, 258, 217, 254
			Q218, 248, 217, 239
			" fill="none" stroke="#bc7e5b" stroke-width="2"/>
			<path id="Selection #1"
        fill="#bc7e5b"  stroke="#bc7e5b" stroke-width="0.1"
        d="M 216.00,162.00
           C 216.00,162.00 218.00,177.00 218.00,177.00
             218.00,177.00 203.00,177.00 203.00,177.00
             203.00,177.00 173.00,179.00 173.00,179.00
             173.00,179.00 151.00,179.00 151.00,179.00
             151.00,179.00 151.00,181.00 151.00,181.00
             151.00,181.00 174.00,181.00 174.00,181.00
             174.00,181.00 205.00,179.00 205.00,179.00
             205.00,179.00 218.00,179.00 218.00,179.00
             218.00,179.00 217.04,189.00 217.04,189.00
             217.04,189.00 217.04,202.04 217.04,202.04
             217.04,202.04 200.00,202.04 200.00,202.04
             200.00,202.04 193.00,202.91 193.00,202.91
             193.00,202.91 180.00,202.04 180.00,202.04
             180.00,202.04 168.00,203.00 168.00,203.00
             168.00,203.00 166.79,225.00 166.79,225.00
             167.10,232.85 170.50,248.47 166.79,254.89
             162.51,261.58 156.10,257.72 152.00,263.00
             152.00,263.00 168.00,260.17 168.00,260.17
             168.00,260.17 200.00,258.00 200.00,258.00
             203.79,257.67 215.85,256.95 218.07,254.42
             221.31,250.92 218.66,234.97 218.07,230.00
             218.07,230.00 227.00,229.08 227.00,229.08
             227.00,229.08 237.00,229.97 237.00,229.97
             237.00,229.97 246.00,229.26 246.00,229.26
             246.00,229.26 254.00,230.85 254.00,230.85
             254.00,230.85 265.00,230.85 265.00,230.85
             265.00,230.85 266.91,218.00 266.91,218.00
             267.08,215.53 266.72,210.20 267.60,208.22
             269.11,204.83 272.12,205.83 274.44,201.86
             279.52,193.17 277.08,186.10 277.00,177.04
             277.00,177.04 267.00,177.04 267.00,177.04
             267.00,177.04 259.00,177.92 259.00,177.92
             259.00,177.92 246.00,177.00 246.00,177.00
             246.00,177.00 220.00,177.00 220.00,177.00
             220.00,170.59 220.83,166.90 216.00,162.00 Z
           M 275.00,179.00
           C 275.30,185.49 277.44,197.18 271.49,202.05
             267.15,205.77 255.09,202.07 249.00,202.05
             249.00,202.05 219.04,202.05 219.04,202.05
             219.04,202.05 219.04,189.00 219.04,189.00
             219.04,189.00 220.00,179.00 220.00,179.00
             220.00,179.00 248.00,179.00 248.00,179.00
             248.00,179.00 258.00,179.91 258.00,179.91
             258.00,179.91 275.00,179.00 275.00,179.00 Z
           M 217.00,204.00
           C 217.00,204.00 216.00,228.00 216.00,228.00
             216.00,228.00 184.00,228.00 184.00,228.00
             184.00,228.00 184.00,230.00 184.00,230.00
             184.00,230.00 216.00,230.00 216.00,230.00
             216.54,234.08 218.89,249.66 216.83,252.47
             214.83,255.18 208.19,255.00 205.00,255.42
             205.00,255.42 183.00,257.09 183.00,257.09
             183.00,257.09 168.00,258.00 168.00,258.00
             168.00,258.00 170.59,249.00 170.59,249.00
             170.59,249.00 169.00,221.00 169.00,221.00
             169.00,221.00 170.00,205.00 170.00,205.00
             170.00,205.00 182.00,204.04 182.00,204.04
             182.00,204.04 190.00,204.91 190.00,204.91
             190.00,204.91 203.00,204.00 203.00,204.00
             203.00,204.00 217.00,204.00 217.00,204.00 Z
           M 265.00,206.00
           C 265.00,210.36 265.58,225.35 262.26,228.01
             259.10,230.55 250.69,227.70 247.00,227.34
             247.00,227.34 237.00,227.97 237.00,227.97
             237.00,227.97 227.00,227.08 227.00,227.08
             227.00,227.08 218.00,228.00 218.00,228.00
             218.00,228.00 219.00,204.00 219.00,204.00
             234.49,204.00 249.71,203.21 265.00,206.00 Z" />
		</g>
		<g id="walls">
			<circle cx="186.5" cy="266.5" r="48.5" stroke="black" stroke-width="5" fill="none" />
			<circle cx="186.5" cy="266.5" r="48.5" stroke="gray" stroke-width="4.25" fill="none" />
		</g>
    </g>
	<rect x="-300" y="-316" width="900" height="948" fill="url(#map-grid)"/>
</svg>
