<?xml version="1.0" encoding="UTF-8" standalone="no"?><svg width="228.845" height="200.353" xmlns="http://www.w3.org/2000/svg"><style><![CDATA[@import url("https://fonts.googleapis.com/css?family=IM+Fell+Great+Primer");]]></style><rect x="0" y="0" width="228.845" height="200.353" id="background" fill="#009DC4"/><g id="map" transform="translate(120.317 92.708)"><polygon points="10.033,-3.249 4.748,9.417 3.44,9.955 -9.496,4.557 -10.076,3.375 -5.921,-12.123 -4.45,-12.727 9.616,-4.497" fill="#FFFFFF"/><polygon points="13.926,-39.195 29.169,-29.534 29.378,-28.022 18.549,-15.956 16.96,-16.09 2.17,-39.496 3.175,-41.017 13.551,-39.337" fill="#FFFFFF"/><g id="land"><polygon points="-456.868,66.253 -459.656,-42.832 -459.63,-43.105 -437.873,-146.236 -439.646,-140.818 -402.912,-225.344 -397.681,-234.453 -351.102,-299.742 -317.398,-335.226 -293.33,-356.477 -282.779,-364.902 -207.599,-412.336 -158.183,-345.691 -147.54,-339.022 -141.037,-334.046 -136.212,-329.367 -133.064,-324.986 -130.771,-320.44 -129.333,-315.726 -128.751,-310.847 -129.025,-305.801 -129.564,-300.936 -130.369,-296.252 -131.439,-291.749 -132.775,-287.428 -134.376,-283.287 -136.243,-279.327 -138.376,-275.548 -140.774,-271.95 -142.802,-268.213 -144.46,-264.337 -145.747,-260.321 -146.665,-256.166 -147.212,-251.872 -147.389,-247.439 -147.196,-242.867 -146.632,-238.155 -145.863,-233.663 -144.887,-229.389 -143.705,-225.335 -142.316,-221.5 -140.721,-217.884 -138.92,-214.487 -136.912,-211.309 -134.699,-208.351 -132.64,-205.36 -130.735,-202.339 -128.985,-199.285 -127.39,-196.2 -125.949,-193.084 -124.663,-189.936 -123.532,-186.756 -122.555,-183.545 -121.621,-180.197 -120.73,-176.714 -119.883,-173.094 -119.078,-169.338 -118.317,-165.446 -117.599,-161.418 -116.924,-157.253 -116.291,-152.953 -115.071,-148.915 -113.261,-145.139 -110.863,-141.625 -107.875,-138.374 -104.3,-135.385 -100.135,-132.658 -95.382,-130.194 -90.039,-127.991 -85.223,-125.759 -80.931,-123.495 -77.164,-121.201 -73.922,-118.877 -71.206,-116.522 -69.015,-114.136 -67.349,-111.72 -66.208,-109.272 -64.746,-106.628 -62.963,-103.786 -60.858,-100.747 -58.433,-97.511 -55.223,-93.574 -51.228,-88.937 -45.058,-82.089 -32.538,-68.502 -20.71,-57.786 -7.39,-44.73 3.015,-40.03 13.391,-38.35 28.634,-28.69 47.001,-26.279 54.273,-24.032 58.064,-22.932 60.796,-22.228 63.28,-21.67 65.513,-21.261 67.767,-20.915 70.04,-20.632 72.333,-20.414 74.646,-20.26 76.924,-20.108 79.168,-19.959 81.378,-19.812 83.553,-19.668 85.694,-19.527 87.8,-19.388 89.872,-19.252 91.909,-19.118 94.394,-19.097 97.326,-19.188 100.706,-19.392 104.533,-19.708 108.807,-20.136 113.529,-20.677 118.699,-21.331 124.315,-22.097 129.463,-22.84 134.141,-23.56 138.349,-24.258 142.088,-24.933 145.358,-25.585 148.158,-26.215 150.488,-26.822 152.35,-27.406 154.257,-28.016 156.21,-28.653 158.209,-29.316 160.254,-30.006 162.345,-30.722 164.482,-31.464 166.665,-32.233 168.893,-33.028 170.974,-33.753 172.907,-34.407 174.692,-34.991 176.329,-35.505 177.818,-35.948 179.159,-36.32 180.352,-36.622 181.397,-36.853 182.852,-38.036 184.717,-40.168 186.991,-43.252 189.676,-47.287 192.77,-52.272 196.274,-58.208 200.188,-65.094 204.512,-72.932 208.755,-80.289 212.918,-87.168 216.999,-93.566 221,-99.486 224.921,-104.926 228.76,-109.886 232.519,-114.367 236.197,-118.368 240.071,-121.936 244.142,-125.071 248.409,-127.773 252.873,-130.042 257.532,-131.878 262.388,-133.281 267.441,-134.251 272.689,-134.788 277.711,-135.595 282.506,-136.671 287.074,-138.017 291.415,-139.633 295.959,-141.855 300.704,-144.683 306.94,-149.128 413.45,-205.371 442.474,-131.663 452.201,-92.91 457.273,-63.395 461.598,-6.745 461.571,8.374 457.644,60.662 447.693,112.647 438.747,143.592 433.479,158.789 398.427,233.182 397.926,234.037 340.78,311.428 339.36,312.974 273.092,372.208 230.216,400.148 170.989,428.813 111.703,447.929 13.47,461.45 7.123,461.592 -48.871,459.053 -91.875,452.412 -133.475,441.93 -276.15,369.945 -274.849,370.913 -286.731,361.806 -326.242,326.625 -348.189,303.121 -388.666,249.112 -413.833,204.599 -426.813,175.923 -453.516,86.261" fill="#6C823A" stroke="#000000" stroke-width="0.398"/></g><g fill="none"><polyline points="28.832,46.561 37.944,64.959 45.3,77.482 49.288,84.178 52.36,89.221 55.333,94.002 58.208,98.523 61.256,103.245 64.478,108.171 67.873,113.298 71.442,118.629 75.393,123.822 79.724,128.879 84.436,133.8 89.53,138.583 95.004,143.23 100.86,147.741 107.097,152.115 113.714,156.352 120.222,160.485 126.62,164.514 132.907,168.44 139.084,172.261 145.151,175.979 151.108,179.593 156.955,183.103 162.692,186.509 167.938,189.867 172.692,193.179 176.956,196.442 180.728,199.659 184.009,202.828 186.8,205.95 189.098,209.024 190.906,212.051 192.327,215.201 193.36,218.474 194.005,221.87 194.263,225.388 193.972,229.531 193.132,234.299 191.258,241.194 186.897,254.729" stroke="#888888" stroke-width="2.398" stroke-linejoin="round" stroke-linecap="butt"/><polyline points="3.825,9.032 8.934,17.489 17.533,23.09 25.997,34.263 28.832,46.561 37.944,64.959 45.3,77.482 49.288,84.178 52.36,89.221 55.333,94.002 58.208,98.523 61.256,103.245 64.478,108.171 67.873,113.298 71.442,118.629 75.393,123.822 79.724,128.879 84.436,133.8 89.53,138.583 95.004,143.23 100.86,147.741 107.097,152.115 113.714,156.352 120.222,160.485 126.62,164.514 132.907,168.44 139.084,172.261 145.151,175.979 151.108,179.593 156.955,183.103 162.692,186.509 167.938,189.867 172.692,193.179 176.956,196.442 180.728,199.659 184.009,202.828 186.8,205.95 189.098,209.024 190.906,212.051 192.327,215.201 193.36,218.474 194.005,221.87 194.263,225.388 193.972,229.531 193.132,234.299 191.258,241.194 186.897,254.729" stroke="#FFFFFF" stroke-width="1.602" stroke-linejoin="round" stroke-linecap="round"/></g><g fill="none"><polyline points="-36.958,30.929 -58.406,31.18 -82.557,33.74 -91.728,40.57 -96.433,43.927 -99.729,46.088 -102.634,47.812 -105.15,49.099 -107.616,50.201 -110.031,51.12 -112.396,51.854 -114.711,52.404 -117.079,53.029 -119.502,53.73 -121.98,54.506 -124.511,55.357 -127.097,56.284 -129.738,57.285 -132.432,58.362 -135.181,59.514 -138.005,60.764 -140.904,62.111 -143.878,63.556 -146.928,65.098 -150.053,66.738 -153.253,68.475 -156.528,70.31 -159.878,72.242 -163.313,74.039 -166.832,75.7 -170.435,77.226 -174.123,78.617 -177.895,79.873 -181.752,80.993 -185.693,81.978 -189.719,82.828 -193.545,84.019 -197.173,85.551 -200.602,87.424 -203.832,89.637 -206.863,92.192 -209.695,95.088 -212.329,98.325 -214.763,101.903 -217.243,105.617 -219.77,109.466 -222.342,113.45 -224.96,117.569 -227.625,121.824 -230.335,126.215 -233.092,130.74 -235.894,135.401 -238.559,139.706 -241.086,143.655 -243.475,147.247 -245.726,150.483 -248.053,153.589 -250.454,156.564 -253.567,160.089 -259.307,166.2" stroke="#888888" stroke-width="2.398" stroke-linejoin="round" stroke-linecap="butt"/><polyline points="-9.111,3.634 -17.131,7.669 -25.75,14.476 -28.943,23.155 -36.958,30.929 -58.406,31.18 -82.557,33.74 -91.728,40.57 -96.433,43.927 -99.729,46.088 -102.634,47.812 -105.15,49.099 -107.616,50.201 -110.031,51.12 -112.396,51.854 -114.711,52.404 -117.079,53.029 -119.502,53.73 -121.98,54.506 -124.511,55.357 -127.097,56.284 -129.738,57.285 -132.432,58.362 -135.181,59.514 -138.005,60.764 -140.904,62.111 -143.878,63.556 -146.928,65.098 -150.053,66.738 -153.253,68.475 -156.528,70.31 -159.878,72.242 -163.313,74.039 -166.832,75.7 -170.435,77.226 -174.123,78.617 -177.895,79.873 -181.752,80.993 -185.693,81.978 -189.719,82.828 -193.545,84.019 -197.173,85.551 -200.602,87.424 -203.832,89.637 -206.863,92.192 -209.695,95.088 -212.329,98.325 -214.763,101.903 -217.243,105.617 -219.77,109.466 -222.342,113.45 -224.96,117.569 -227.625,121.824 -230.335,126.215 -233.092,130.74 -235.894,135.401 -238.559,139.706 -241.086,143.655 -243.475,147.247 -245.726,150.483 -248.053,153.589 -250.454,156.564 -253.567,160.089 -259.307,166.2" stroke="#FFFFFF" stroke-width="1.602" stroke-linejoin="round" stroke-linecap="round"/></g><g fill="none"><polyline points="42.617,0.072 59.065,0.146 78.472,11.411 89.745,8.658 95.628,7.147 99.877,5.962 103.746,4.796 107.234,3.65 110.759,2.421 114.321,1.109 117.921,-0.285 121.557,-1.762 125.099,-2.943 128.546,-3.83 131.9,-4.421 135.159,-4.717 138.324,-4.718 141.394,-4.424 144.371,-3.835 147.253,-2.95 150.093,-2.078 152.892,-1.218 155.649,-0.37 158.365,0.467 161.039,1.29 163.671,2.102 166.262,2.902 168.812,3.689 171.46,4.455 174.207,5.198 177.052,5.919 179.996,6.619 183.04,7.296 186.181,7.95 189.422,8.583 192.761,9.194 196.105,9.636 199.454,9.908 202.807,10.012 206.164,9.946 209.526,9.712 212.893,9.308 216.264,8.736 219.639,7.994 223.036,7.334 226.452,6.756 229.89,6.259 233.347,5.844 236.826,5.51 240.325,5.258 243.844,5.087 247.384,4.998 251.016,4.695 254.738,4.179 258.552,3.449 262.458,2.505 266.454,1.347 270.542,-0.024 274.721,-1.609 278.992,-3.407 283.298,-4.905 287.638,-6.101 292.012,-6.997 296.422,-7.591 301.434,-7.809 307.05,-7.649 314.975,-6.884 330.325,-4.827" stroke="#888888" stroke-width="2.398" stroke-linejoin="round" stroke-linecap="butt"/><polyline points="9.111,-3.634 17.006,-3.848 27.86,1.506 42.617,0.072 59.065,0.146 78.472,11.411 89.745,8.658 95.628,7.147 99.877,5.962 103.746,4.796 107.234,3.65 110.759,2.421 114.321,1.109 117.921,-0.285 121.557,-1.762 125.099,-2.943 128.546,-3.83 131.9,-4.421 135.159,-4.717 138.324,-4.718 141.394,-4.424 144.371,-3.835 147.253,-2.95 150.093,-2.078 152.892,-1.218 155.649,-0.37 158.365,0.467 161.039,1.29 163.671,2.102 166.262,2.902 168.812,3.689 171.46,4.455 174.207,5.198 177.052,5.919 179.996,6.619 183.04,7.296 186.181,7.95 189.422,8.583 192.761,9.194 196.105,9.636 199.454,9.908 202.807,10.012 206.164,9.946 209.526,9.712 212.893,9.308 216.264,8.736 219.639,7.994 223.036,7.334 226.452,6.756 229.89,6.259 233.347,5.844 236.826,5.51 240.325,5.258 243.844,5.087 247.384,4.998 251.016,4.695 254.738,4.179 258.552,3.449 262.458,2.505 266.454,1.347 270.542,-0.024 274.721,-1.609 278.992,-3.407 283.298,-4.905 287.638,-6.101 292.012,-6.997 296.422,-7.591 301.434,-7.809 307.05,-7.649 314.975,-6.884 330.325,-4.827" stroke="#FFFFFF" stroke-width="1.602" stroke-linejoin="round" stroke-linecap="round"/></g><g fill="none"><polyline points="-1.141,46.809 -9.29,64.285 -31.285,76.027 -36.013,84.118 -38.566,88.476 -40.521,91.8 -42.403,94.987 -44.212,98.038 -46.124,101.253 -48.137,104.632 -50.252,108.174 -52.47,111.879 -54.429,115.543 -56.129,119.165 -57.571,122.745 -58.754,126.284 -59.679,129.78 -60.345,133.235 -60.752,136.649 -60.9,140.02 -60.963,143.404 -60.938,146.799 -60.828,150.206 -60.631,153.626 -60.347,157.057 -59.977,160.5 -59.52,163.955 -58.977,167.422 -58.602,171.039 -58.394,174.805 -58.354,178.721 -58.481,182.787 -58.776,187.002 -59.238,191.367 -59.868,195.881 -60.666,200.546 -61.281,205.032 -61.714,209.342 -61.966,213.474 -62.035,217.428 -61.922,221.205 -61.628,224.805 -61.151,228.227 -60.492,231.472 -59.572,234.465 -58.389,237.206 -56.945,239.695 -55.24,241.931 -53.272,243.916 -51.043,245.649 -48.552,247.13 -45.799,248.358 -42.746,250.626 -39.393,253.932 -35.739,258.278 -31.785,263.662 -26.887,271.277 -21.043,281.124 -12.322,296.779 5.077,328.975" stroke="#888888" stroke-width="2.398" stroke-linejoin="round" stroke-linecap="butt"/><polyline points="8.934,17.489 0.913,28.955 -1.141,46.809 -9.29,64.285 -31.285,76.027 -36.013,84.118 -38.566,88.476 -40.521,91.8 -42.403,94.987 -44.212,98.038 -46.124,101.253 -48.137,104.632 -50.252,108.174 -52.47,111.879 -54.429,115.543 -56.129,119.165 -57.571,122.745 -58.754,126.284 -59.679,129.78 -60.345,133.235 -60.752,136.649 -60.9,140.02 -60.963,143.404 -60.938,146.799 -60.828,150.206 -60.631,153.626 -60.347,157.057 -59.977,160.5 -59.52,163.955 -58.977,167.422 -58.602,171.039 -58.394,174.805 -58.354,178.721 -58.481,182.787 -58.776,187.002 -59.238,191.367 -59.868,195.881 -60.666,200.546 -61.281,205.032 -61.714,209.342 -61.966,213.474 -62.035,217.428 -61.922,221.205 -61.628,224.805 -61.151,228.227 -60.492,231.472 -59.572,234.465 -58.389,237.206 -56.945,239.695 -55.24,241.931 -53.272,243.916 -51.043,245.649 -48.552,247.13 -45.799,248.358 -42.746,250.626 -39.393,253.932 -35.739,258.278 -31.785,263.662 -26.887,271.277 -21.043,281.124 -12.322,296.779 5.077,328.975" stroke="#FFFFFF" stroke-width="1.602" stroke-linejoin="round" stroke-linecap="round"/></g><g fill="none"><polyline points="-30.988,-21.942 -47.784,-29.351 -57.034,-30.93 -61.798,-31.685 -65.157,-32.141 -68.141,-32.475 -70.749,-32.686 -73.324,-32.834 -75.866,-32.916 -78.374,-32.935 -80.849,-32.89 -83.334,-32.991 -85.828,-33.239 -88.331,-33.633 -90.844,-34.174 -93.367,-34.862 -95.899,-35.697 -98.44,-36.678 -100.991,-37.805 -103.638,-38.911 -106.38,-39.996 -109.219,-41.059 -112.154,-42.101 -115.185,-43.121 -118.312,-44.119 -121.535,-45.096 -124.855,-46.052 -128.08,-47.243 -131.212,-48.669 -134.251,-50.331 -137.197,-52.229 -140.048,-54.361 -142.807,-56.73 -145.472,-59.334 -148.043,-62.173 -150.604,-64.86 -153.153,-67.394 -155.69,-69.775 -158.217,-72.003 -160.732,-74.079 -163.236,-76.002 -165.729,-77.772 -168.21,-79.389 -170.855,-81.184 -173.663,-83.157 -176.634,-85.307 -179.768,-87.635 -183.065,-90.141 -186.526,-92.824 -190.15,-95.685 -193.937,-98.724 -197.923,-101.708 -202.107,-104.637 -206.49,-107.511 -211.071,-110.33 -215.851,-113.095 -220.829,-115.804 -226.006,-118.459 -231.381,-121.059 -236.464,-123.281 -241.253,-125.126 -245.75,-126.593 -249.953,-127.682 -253.864,-128.393 -257.481,-128.727 -260.805,-128.684 -263.837,-128.262 -267.258,-128.893 -271.068,-130.577 -275.267,-133.314 -279.856,-137.103 -285.602,-142.945 -292.506,-150.84 -302.872,-163.787 -323.615,-190.788" stroke="#888888" stroke-width="2.398" stroke-linejoin="round" stroke-linecap="butt"/><polyline points="-4.955,-11.864 -20.709,-15.765 -30.988,-21.942 -47.784,-29.351 -57.034,-30.93 -61.798,-31.685 -65.157,-32.141 -68.141,-32.475 -70.749,-32.686 -73.324,-32.834 -75.866,-32.916 -78.374,-32.935 -80.849,-32.89 -83.334,-32.991 -85.828,-33.239 -88.331,-33.633 -90.844,-34.174 -93.367,-34.862 -95.899,-35.697 -98.44,-36.678 -100.991,-37.805 -103.638,-38.911 -106.38,-39.996 -109.219,-41.059 -112.154,-42.101 -115.185,-43.121 -118.312,-44.119 -121.535,-45.096 -124.855,-46.052 -128.08,-47.243 -131.212,-48.669 -134.251,-50.331 -137.197,-52.229 -140.048,-54.361 -142.807,-56.73 -145.472,-59.334 -148.043,-62.173 -150.604,-64.86 -153.153,-67.394 -155.69,-69.775 -158.217,-72.003 -160.732,-74.079 -163.236,-76.002 -165.729,-77.772 -168.21,-79.389 -170.855,-81.184 -173.663,-83.157 -176.634,-85.307 -179.768,-87.635 -183.065,-90.141 -186.526,-92.824 -190.15,-95.685 -193.937,-98.724 -197.923,-101.708 -202.107,-104.637 -206.49,-107.511 -211.071,-110.33 -215.851,-113.095 -220.829,-115.804 -226.006,-118.459 -231.381,-121.059 -236.464,-123.281 -241.253,-125.126 -245.75,-126.593 -249.953,-127.682 -253.864,-128.393 -257.481,-128.727 -260.805,-128.684 -263.837,-128.262 -267.258,-128.893 -271.068,-130.577 -275.267,-133.314 -279.856,-137.103 -285.602,-142.945 -292.506,-150.84 -302.872,-163.787 -323.615,-190.788" stroke="#FFFFFF" stroke-width="1.602" stroke-linejoin="round" stroke-linecap="round"/></g><g fill="none"><polyline points="46.453,29.024 61.965,33.47 71.102,46.661 79.666,55.623 84.316,60.335 87.908,63.783 91.393,66.965 94.771,69.879 98.359,72.858 102.157,75.901 106.165,79.01 110.383,82.183 114.81,85.361 119.446,88.545 124.291,91.734 129.344,94.928 134.606,98.128 140.076,101.333 145.756,104.543 151.644,107.759 157.653,110.933 163.783,114.067 170.034,117.16 176.407,120.212 182.9,123.223 189.515,126.193 196.251,129.122 203.107,132.011 209.75,134.691 216.178,137.162 222.392,139.425 228.391,141.479 234.176,143.325 239.747,144.963 245.104,146.392 250.246,147.613 255.146,149.008 259.803,150.578 264.219,152.323 268.392,154.243 272.723,156.666 277.212,159.59 283.061,163.999 293.874,172.84" stroke="#888888" stroke-width="2.398" stroke-linejoin="round" stroke-linecap="butt"/><polyline points="25.997,34.263 46.453,29.024 61.965,33.47 71.102,46.661 79.666,55.623 84.316,60.335 87.908,63.783 91.393,66.965 94.771,69.879 98.359,72.858 102.157,75.901 106.165,79.01 110.383,82.183 114.81,85.361 119.446,88.545 124.291,91.734 129.344,94.928 134.606,98.128 140.076,101.333 145.756,104.543 151.644,107.759 157.653,110.933 163.783,114.067 170.034,117.16 176.407,120.212 182.9,123.223 189.515,126.193 196.251,129.122 203.107,132.011 209.75,134.691 216.178,137.162 222.392,139.425 228.391,141.479 234.176,143.325 239.747,144.963 245.104,146.392 250.246,147.613 255.146,149.008 259.803,150.578 264.219,152.323 268.392,154.243 272.723,156.666 277.212,159.59 283.061,163.999 293.874,172.84" stroke="#FFFFFF" stroke-width="1.602" stroke-linejoin="round" stroke-linecap="round"/></g><g fill="#888888" stroke="#000000" stroke-width="0.398"><polygon points="-0.073,-3.96 1.468,-3.058 0.665,-1.685 -0.877,-2.587"/></g><g fill="#888888" stroke="#000000" stroke-width="0.398"><polygon points="-3.015,7.261 0.991,8.933 -1.102,13.947 -5.108,12.275"/><polygon points="-7.998,17.825 -10.974,14.314 -7.326,11.221 -4.35,14.732"/><polygon points="-4.723,21.689 -7.998,17.825 -3.64,14.131 -0.365,17.994"/><polygon points="-6.973,5.61 -3.015,7.261 -4.67,11.226 -8.627,9.575"/><polygon points="4.289,11.734 -1.285,15.101 -1.496,14.891 0.991,8.933 3.138,9.829"/><polygon points="6.591,15.544 3.705,17.287 -0.262,17.18 -1.285,15.101 4.289,11.734"/><polygon points="-10.974,14.314 -12.502,12.512 -8.897,9.456 -7.369,11.258"/><polygon points="5.926,20.045 4.226,22.475 0.215,19.669 1.915,17.239"/><polygon points="-6.973,5.61 -8.627,9.575 -8.897,9.456 -10.828,5.618 -9.072,4.734"/><polygon points="-1.774,25.168 -4.723,21.689 -2.788,20.049 0.161,23.528"/><polygon points="6.491,19.236 3.705,17.287 6.591,15.544 7.742,17.449"/><polygon points="-14.341,7.385 -10.828,5.618 -9.755,7.751 -13.268,9.518"/><polygon points="4.226,22.475 2.159,25.429 0.154,24.026 2.22,21.072"/><polygon points="-14.341,7.385 -13.268,9.518 -14.299,10.392 -16.098,8.269"/><polygon points="-1.209,25.834 0.145,24.687 1.846,25.877 0.481,27.828"/></g><g fill="#888888" stroke="#000000" stroke-width="0.398"><polygon points="-13.044,-12.836 -9.492,-11.957 -10.261,-8.85 -13.813,-9.729"/><polygon points="-19.005,-7.257 -19.554,-10.852 -17.137,-11.221 -16.588,-7.626"/><polygon points="-18.469,-3.745 -19.005,-7.257 -14.121,-8.003 -13.585,-4.491"/><polygon points="-16.757,-13.756 -13.044,-12.836 -13.621,-10.506 -17.334,-11.426"/><polygon points="-6.885,-8.528 -8.026,-4.271 -10.764,-5.005 -9.623,-9.262"/><polygon points="-8.026,-4.271 -9.277,0.395 -13.35,-0.697 -12.099,-5.363"/><polygon points="-17.88,0.115 -18.469,-3.745 -14.017,-4.425 -13.428,-0.565"/><polygon points="-6.821,-8.764 -9.345,-9.441 -8.767,-11.777 -6.185,-11.138"/><polygon points="-17.432,-13.923 -17.904,-12.016 -19.69,-11.743 -20.125,-14.59"/><polygon points="-17.406,3.215 -17.88,0.115 -15.654,-0.225 -15.18,2.875"/><polygon points="-11.699,3.817 -13.513,0.21 -13.428,-0.565 -13.35,-0.697 -9.277,0.395 -9.96,2.942"/><polygon points="-11.699,3.817 -14.669,5.311 -15.576,3.508 -12.606,2.014"/><polygon points="-17.245,4.271 -15.928,4.07 -15.175,5.566 -16.914,6.441"/></g><g fill="#888888" stroke="#000000" stroke-width="0.398"><polygon points="9.079,-17.844 8.176,-15.19 5.713,-16.028 6.616,-18.682"/><polygon points="4.552,-22.105 7.312,-21.047 6.349,-18.538 3.59,-19.597"/><polygon points="8.176,-15.19 7.31,-12.644 2.384,-14.32 3.25,-16.866"/><polygon points="-3.665,-14.952 -2.444,-19.269 1.702,-18.096 0.481,-13.779"/><polygon points="0.953,-23.486 4.552,-22.105 3.315,-18.879 -0.285,-20.26"/><polygon points="9.275,-18.421 7.347,-19.076 8.001,-20.782 9.839,-20.077"/><polygon points="3.614,-8.009 -1.235,-10.846 0.362,-13.575 5.211,-10.738"/><polygon points="0.953,-23.486 -0.285,-20.26 -2.024,-20.752 -1.035,-24.248"/><polygon points="-3.665,-14.952 0.481,-13.779 -1.235,-10.846 -4.317,-12.649"/><polygon points="3.614,-8.009 5.211,-10.738 6.511,-10.296 5.382,-6.974"/><polygon points="17.272,-14.512 13.896,-14.371 15.283,-17.988 16.849,-17.388 17.398,-16.52"/><polygon points="12.511,-19.052 15.283,-17.988 14.51,-15.972 11.738,-17.036"/><polygon points="17.231,-13.863 16.935,-9.121 13.05,-9.364 13.347,-14.105"/><polygon points="8.336,-13.174 9.294,-15.992 13.003,-14.731 12.045,-11.912"/><polygon points="12.152,-19.19 11.495,-17.477 9.975,-17.994 10.586,-19.79"/><polygon points="7.116,-9.589 8.336,-13.174 12.045,-11.912 10.825,-8.327"/><polygon points="14.843,-4.79 11.194,-4.691 11.097,-8.26 14.746,-8.359"/><polygon points="14.843,-4.79 14.746,-8.359 16.879,-8.225 16.667,-4.84"/><polygon points="7.728,-5.602 8.901,-7.606 11.092,-8.427 11.194,-4.691 9.369,-4.642"/><polygon points="6.697,-8.356 8.901,-7.606 7.728,-5.602 6.087,-6.562"/><polygon points="10.513,-20.675 5.575,-22.57 6.264,-24.367 11.203,-22.473"/><polygon points="10.851,-26.881 12.942,-23.572 11.203,-22.473 9.111,-25.782"/><polygon points="8.737,-30.226 10.316,-27.727 6.669,-25.423 5.09,-27.922"/><polygon points="5.575,-22.57 1.641,-24.079 2.736,-26.932 6.669,-25.423"/><polygon points="6.634,-33.554 8.737,-30.226 6.591,-28.871 4.489,-32.198"/><polygon points="10.513,-20.675 11.203,-22.473 13.477,-22.725 14.829,-20.584 14.306,-19.22"/><polygon points="0.086,-28.211 0.835,-30.856 4.235,-29.894 3.486,-27.249"/><polygon points="-0.242,-27.052 1.711,-26.499 0.892,-24.366 -0.816,-25.021"/><polygon points="0.835,-30.856 1.457,-33.056 4.489,-32.198 3.866,-29.998"/><polygon points="6.634,-33.554 4.489,-32.198 2.33,-35.82 4.382,-37.117"/><polygon points="4.382,-37.117 2.33,-35.82 2.246,-35.844 3.156,-39.059"/></g><g fill="#888888" stroke="#000000" stroke-width="0.398"><polygon points="12.511,-2.726 15.035,-2.795 15.148,1.361 12.623,1.429"/><polygon points="12.335,6.096 10.579,5.125 12.623,1.429 14.379,2.4"/><polygon points="12.335,6.096 13.978,3.126 18.058,5.382 16.416,8.353"/><polygon points="18.649,-1.923 16.512,2.41 15.167,2.071 15.035,-2.795 16.785,-2.842"/><polygon points="8.175,1.205 9.162,-1.162 11.604,-0.143 10.616,2.224"/><polygon points="11.535,-2.7 11.604,-0.143 9.162,-1.162 9.784,-2.652"/><polygon points="23.792,0.614 22.97,2.279 21.807,3.172 17.246,0.922 18.649,-1.923"/><polygon points="7.918,1.819 9.73,2.575 8.849,4.168 7.297,3.31"/><polygon points="19.411,10.009 16.416,8.353 17.975,5.533 20.97,7.19"/><polygon points="26.287,3.867 24.784,7.01 21.466,5.423 22.97,2.279"/><polygon points="24.784,7.01 23.398,9.905 21.287,8.895 22.673,6"/><polygon points="20.544,10.636 21.342,9.191 23.293,10.125 22.525,11.731"/><polygon points="26.287,3.867 22.97,2.279 23.792,0.614 27.07,2.231"/><polygon points="16.136,20.986 12.156,18.394 13.805,15.863 17.785,18.455"/><polygon points="17.373,9.797 20.183,11.35 18.915,13.644 16.105,12.09"/><polygon points="12.923,7.336 17.373,9.797 15.642,12.927 11.192,10.466"/><polygon points="8.827,15.378 12.373,13.236 12.62,13.645 14.466,14.848 12.156,18.394 9.672,16.776"/><polygon points="21.012,14.893 19.362,18.341 16.926,17.176 18.576,13.728"/><polygon points="8.827,15.378 6.463,11.465 9.063,9.894 11.427,13.807"/><polygon points="21.298,14.294 19.588,13.476 20.628,11.596 22.179,12.454"/><polygon points="16.136,20.986 17.785,18.455 19.024,19.047 17.631,21.96"/><polygon points="8.582,4.935 12.923,7.336 11.729,9.495 7.387,7.094"/><polygon points="5.965,6.501 7.387,7.094 9.063,9.894 6.463,11.465 4.943,8.949"/><polygon points="8.582,4.935 7.387,7.094 5.965,6.501 6.987,4.053"/></g><g fill="#888888" stroke="#000000" stroke-width="0.398"><polygon points="-9.994,26.429 -13.767,25.696 -13.161,22.577 -9.388,23.31"/><polygon points="-9.939,16.772 -7.292,19.895 -10.148,22.315 -12.794,19.193"/><polygon points="-13.767,25.696 -17.358,24.998 -16.449,20.32 -12.858,21.018"/><polygon points="-12.544,13.699 -9.939,16.772 -13.824,20.066 -16.429,16.992"/><polygon points="-7.292,19.895 -5.184,22.381 -8.04,24.802 -10.148,22.315"/><polygon points="-17.358,24.998 -21.554,24.183 -20.532,18.919 -16.336,19.734"/><polygon points="-23.431,13.919 -20.563,11.654 -17.69,15.292 -20.558,17.557"/><polygon points="-4.972,22.632 -3.303,24.601 -4.519,25.632 -6.188,23.662"/><polygon points="-8.588,26.702 -8.225,24.833 -7.404,24.693 -2.282,26.359 -2.576,27.87"/><polygon points="-21.554,24.183 -24.746,23.563 -24.236,20.935 -21.044,21.556"/><polygon points="-23.431,13.919 -19.814,18.499 -20.532,18.919 -20.559,18.923 -25.634,17.056 -24.909,15.086"/><polygon points="-15.269,10.485 -12.544,13.699 -15.113,15.877 -17.838,12.663"/><polygon points="-15.269,10.485 -17.838,12.663 -19.376,10.716 -16.798,8.68"/><polygon points="-26.703,19.964 -25.634,17.056 -23.096,17.99 -24.166,20.897"/><polygon points="-2.576,27.87 -2.282,26.359 -2.009,26.127 -0.129,28.346"/><polygon points="-27.083,20.998 -25.448,21.599 -25.79,23.36 -27.808,22.968"/></g><g fill="#888888" stroke="#000000" stroke-width="0.398"><polygon points="-19.28,-3.758 -18.649,0.377 -23.326,1.091 -23.957,-3.044"/><polygon points="-29.655,-4.175 -26.808,-7.662 -24.045,-5.407 -26.892,-1.92"/><polygon points="-32.949,-0.141 -29.655,-4.175 -25.051,-0.417 -28.345,3.618"/><polygon points="-18.649,0.377 -18.134,3.751 -23.193,4.524 -23.709,1.149"/><polygon points="-19.93,-8.012 -19.28,-3.758 -21.856,-3.364 -22.505,-7.619"/><polygon points="-19.93,-8.012 -22.505,-7.619 -22.845,-12.121 -20.609,-12.462"/><polygon points="-26.808,-7.662 -25.108,-9.744 -22.505,-7.619 -24.205,-5.537"/><polygon points="-19.179,8.012 -21.468,5.114 -18.006,4.586 -17.666,6.817"/><polygon points="-19.179,8.012 -23.471,11.402 -25.76,8.504 -21.468,5.114"/><polygon points="-28.332,12.142 -31.741,9.711 -29.164,6.099 -25.756,8.531"/><polygon points="-31.741,9.711 -34.326,7.867 -32.316,5.05 -29.731,6.894"/><polygon points="-35.93,3.511 -32.949,-0.141 -30.576,1.796 -33.558,5.447"/><polygon points="-36.341,4.014 -34.295,5.684 -35.338,7.145 -37.587,5.54"/><polygon points="-28.332,12.142 -25.756,8.531 -23.482,11.41 -26.271,13.613"/><polygon points="-20.609,-12.462 -22.845,-12.121 -23.039,-12.279 -20.969,-14.814"/></g><g fill="#888888" stroke="#000000" stroke-width="0.398"><polygon points="-15.323,-36.513 -12.4,-39.335 -10.435,-37.301 -13.358,-34.479"/><polygon points="-12.075,-30.356 -14.221,-30.869 -13.358,-34.479 -11.211,-33.965"/><polygon points="-12.075,-30.356 -11.292,-33.626 -6.611,-32.506 -7.394,-29.236"/><polygon points="-15.323,-36.513 -13.358,-34.479 -16.714,-31.723 -18.437,-33.506"/><polygon points="-12.4,-39.335 -10.212,-41.449 -7.988,-39.146 -10.176,-37.032"/><polygon points="-7.394,-29.236 -6.611,-32.506 -2.654,-31.559 -2.447,-32.29 -1.784,-31.698 -2.645,-28.1"/><polygon points="-6.076,-41.942 -3.313,-40.694 -5.006,-36.944 -7.769,-38.192"/><polygon points="-18.437,-33.506 -16.714,-31.723 -16.773,-31.48 -19.788,-32.201"/><polygon points="-7.087,-42.398 -8.179,-39.981 -9.893,-41.756 -8.546,-43.057"/><polygon points="-3.313,-40.694 0.33,-39.048 -0.658,-36.861 -4.301,-38.506"/><polygon points="0.092,-31.168 -1.784,-31.698 -3.559,-33.281 -2.797,-35.972 -0.333,-36.996 1.587,-36.453"/><polygon points="-2.645,-28.1 -1.784,-31.698 0.092,-31.168 -0.895,-27.681"/><polygon points="1.587,-36.453 -0.333,-36.996 0.549,-38.949 2.096,-38.251"/><polygon points="-16.976,-30.706 -14.346,-30.076 -15.87,-23.707 -18.5,-24.337"/><polygon points="-21.945,-17.674 -19.423,-21.872 -17.346,-20.624 -18.434,-16.232 -20.323,-16.699"/><polygon points="-18.434,-16.232 -16.885,-22.487 -12.707,-21.452 -14.256,-15.197"/><polygon points="-9.249,-28.857 -10.604,-23.196 -15.7,-24.415 -14.346,-30.076"/><polygon points="-21.945,-17.674 -24.878,-19.437 -22.356,-23.635 -19.423,-21.872"/><polygon points="-25.182,-26.992 -21.757,-30.299 -19.568,-28.032 -22.993,-24.725"/><polygon points="-18.823,-31.147 -19.568,-28.032 -21.757,-30.299 -20.471,-31.542"/><polygon points="-14.256,-15.197 -13.224,-19.367 -9.099,-18.346 -10.132,-14.176"/><polygon points="-25.078,-19.557 -27.33,-20.91 -26.181,-22.823 -23.929,-21.469"/><polygon points="-27.962,-24.308 -25.182,-26.992 -23.7,-25.458 -26.48,-22.773"/><polygon points="-9.249,-28.857 -4.047,-27.612 -4.52,-25.637 -9.722,-26.881"/><polygon points="-2.853,-20.762 -3.715,-17.713 -8.893,-19.178 -8.03,-22.227"/><polygon points="-28.605,-23.687 -27.552,-22.597 -28.238,-21.456 -29.888,-22.448"/><polygon points="-6.683,-13.322 -10.132,-14.176 -9.389,-17.174 -5.941,-16.32"/><polygon points="-1.699,-24.838 -2.853,-20.762 -5.673,-21.56 -4.52,-25.637"/><polygon points="-6.683,-13.322 -5.941,-16.32 -4.245,-15.84 -5.071,-12.923"/><polygon points="-1.699,-24.838 -4.52,-25.637 -4.047,-27.612 -1.113,-26.911"/></g><g fill="#888888" stroke="#000000" stroke-width="0.398"><polygon points="18.244,-29.515 17.665,-28.117 16.268,-27.539 14.87,-28.117 14.292,-29.515 14.87,-30.912 16.268,-31.491 17.665,-30.912"/></g><g fill="#888888" stroke="#000000" stroke-width="0.398"><polygon points="19.513,-17.928 23.068,-14.737 22.894,-14.42 22.201,-14.084 18.063,-14.343 18.195,-16.46"/><polygon points="29.229,-12.343 24.623,-10.608 23.068,-14.737 27.675,-16.472"/><polygon points="19.513,-17.928 22.252,-20.98 25.807,-17.789 23.068,-14.737"/><polygon points="24.366,-10.512 20.616,-9.1 19.893,-11.021 23.643,-12.433"/><polygon points="17.867,-11.208 18.063,-14.343 20.132,-14.213 19.936,-11.078"/><polygon points="22.252,-20.98 24.721,-23.731 27.587,-21.159 25.118,-18.408"/><polygon points="31.036,-22.835 32.541,-19.738 29.093,-18.062 27.587,-21.159"/><polygon points="17.798,-10.107 19.14,-10.023 19.628,-8.728 17.666,-7.989"/><polygon points="24.759,-23.774 26.694,-25.929 28.095,-24.672 26.16,-22.516"/><polygon points="29.792,-25.393 31.036,-22.835 29.321,-22.002 28.077,-24.559"/><polygon points="32.344,-13.516 29.229,-12.343 28.301,-14.809 31.416,-15.982"/><polygon points="32.541,-19.738 33.821,-17.107 31.465,-15.962 30.186,-18.593"/><polygon points="33.192,-13.835 32.56,-15.514 34.206,-16.314 35.068,-14.541"/><polygon points="29.434,-26.131 28.232,-25.546 27.19,-26.481 28.535,-27.98"/><polygon points="25.142,-7.751 23.337,-6.76 22.509,-8.958 24.142,-9.573"/><polygon points="19.362,-7.773 22.509,-8.958 23.337,-6.76 20.189,-5.574"/><polygon points="25.142,-7.751 26.793,-4.745 24.988,-3.753 23.337,-6.76"/><polygon points="26.448,-0.306 21.439,-2.777 22.466,-4.86 27.475,-2.389"/><polygon points="18.293,-7.37 21.453,-4.377 20.815,-3.084 17.462,-4.738 17.611,-7.113"/><polygon points="26.748,-0.157 27.553,-2.628 27.863,-2.798 29.583,0.334 28.047,0.483"/><polygon points="29.514,-1.453 27.246,-5.582 30.19,-7.199 32.458,-3.07"/><polygon points="38.174,-8.153 39.732,-4.949 37.275,-3.755 35.718,-6.959"/><polygon points="36.625,-11.339 38.174,-8.153 35.687,-6.944 34.138,-10.13"/><polygon points="39.641,-0.644 34.003,-0.096 33.745,-2.75 39.383,-3.298"/><polygon points="30.17,-11.842 33.36,-13.043 34.317,-10.502 31.127,-9.3"/><polygon points="29.514,-1.453 33.65,-3.724 34.003,-0.096 30.449,0.25"/><polygon points="26.767,-10.561 30.17,-11.842 31.43,-8.495 28.027,-7.214"/><polygon points="36.432,-11.735 34.446,-10.769 33.561,-13.119 35.419,-13.819"/><polygon points="26.767,-10.561 28.027,-7.214 26.739,-6.506 24.898,-9.857"/><polygon points="39.641,-0.644 39.383,-3.298 40.314,-3.751 41.726,-0.846"/></g><g fill="#888888" stroke="#000000" stroke-width="0.398"><polygon points="24.706,46.195 22.067,46.217 22.047,43.859 24.686,43.837"/><polygon points="26.333,40.173 27.109,43.537 24.919,44.042 24.144,40.678"/><polygon points="22.067,46.217 19.21,46.24 19.171,41.525 22.028,41.501"/><polygon points="25.399,36.121 26.333,40.173 22.561,41.043 21.627,36.991"/><polygon points="25.817,46.186 25.805,44.82 27.324,44.47 27.716,46.17"/><polygon points="14.114,43.494 14.704,38.02 17.623,38.334 17.034,43.808"/><polygon points="16.751,34.411 21.206,34.284 21.304,37.725 16.85,37.852"/><polygon points="25.334,35.841 21.627,36.991 21.549,34.274 24.682,34.185 25.07,34.697"/><polygon points="14.11,43.539 16.995,43.849 17.015,46.258 13.814,46.285"/><polygon points="16.751,34.411 16.85,37.852 14.746,37.626 15.087,34.458"/><polygon points="15.394,31.608 17.969,31.885 18.017,33.575 15.173,33.656"/><polygon points="22.41,31.185 22.475,33.447 18.017,33.575 17.969,31.885 19.363,30.025 21.132,29.497"/><polygon points="15.394,31.608 15.705,28.717 18.28,28.995 17.969,31.885"/><polygon points="15.978,26.184 17.58,24.807 21.132,29.497 19.363,30.025 15.917,26.746"/><polygon points="17.58,24.807 15.978,26.184 16.271,23.461 16.842,23.833"/><polygon points="2.825,27.967 4.694,25.295 7.799,27.467 5.93,30.139"/><polygon points="15.338,24.651 14.731,30.294 11.775,29.975 12.382,24.333"/><polygon points="4.694,25.295 6.498,22.715 10.327,25.394 8.523,27.973"/><polygon points="7.65,34.445 8.05,31.248 12.828,31.847 12.428,35.044"/><polygon points="7.65,34.445 3.009,33.863 3.283,31.68 7.923,32.262"/><polygon points="2.825,27.967 5.93,30.139 3.283,31.68 1.628,31.49 1.877,29.321"/><polygon points="12.428,35.044 12.983,30.615 14.676,30.798 14.196,35.265"/><polygon points="10.779,19.884 13.778,21.838 12.038,24.51 9.038,22.557"/><polygon points="15.338,24.651 12.382,24.333 13.939,21.942 15.519,22.971"/><polygon points="1.628,31.49 3.283,31.68 3.009,33.863 1.378,33.658"/><polygon points="10.779,19.884 9.038,22.557 7.407,21.416 9.199,18.855"/><polygon points="11.288,46.306 7.696,46.336 7.666,42.722 11.258,42.692"/><polygon points="7.775,35.267 11.424,35.724 11.086,38.424 7.436,37.967"/><polygon points="7.696,46.336 4.649,46.361 4.613,42.04 7.661,42.015"/><polygon points="13.892,38.083 13.372,42.92 11.258,42.692 11.778,37.856"/><polygon points="3.17,34.689 7.775,35.267 7.433,37.99 2.828,37.413"/><polygon points="0.469,41.563 0.789,38.78 4.933,39.257 4.613,42.04"/><polygon points="11.288,46.306 11.258,42.692 13.372,42.92 13.009,46.292"/><polygon points="0.098,44.791 0.469,41.563 3.23,41.881 2.859,45.109"/><polygon points="13.922,37.804 12.082,37.606 12.304,35.834 14.11,36.061"/><polygon points="3.17,34.689 2.828,37.413 0.971,37.199 1.287,34.453"/><polygon points="0.098,44.791 2.859,45.109 2.869,46.376 -0.087,46.4"/></g><g fill="#888888" stroke="#000000" stroke-width="0.398"><polygon points="31.281,15.877 32.947,15.263 34.011,17.885 32.279,18.587"/><polygon points="38.275,16.156 34.011,17.885 32.947,15.263 37.211,13.534"/><polygon points="29.226,10.299 32.408,9.126 34.094,13.704 32.947,15.263 31.281,15.877"/><polygon points="42.421,14.475 38.275,16.156 37.465,14.161 41.612,12.479"/><polygon points="29.226,10.299 28.197,7.508 32.016,6.101 33.044,8.892"/><polygon points="33.912,1.923 37.413,1.582 37.936,6.966 34.436,7.306"/><polygon points="29.61,2.341 33.912,1.923 34.174,4.614 29.871,5.033"/><polygon points="42.421,14.475 41.612,12.479 43.819,12.187 44.035,13.82"/><polygon points="43.208,7.578 43.687,11.192 40.25,11.647 39.771,8.034"/><polygon points="28.459,2.453 29.826,5.01 27.582,5.837 26.994,4.242 27.821,2.515"/><polygon points="42.64,3.291 43.208,7.578 40.206,7.976 39.638,3.689"/><polygon points="42.582,2.853 39.887,3.21 39.707,1.359 42.35,1.103"/><polygon points="29.433,13.175 30.579,16.286 27.856,17.289 26.71,14.178"/><polygon points="22.162,14.343 23.073,12.438 26.71,14.178 25.798,16.083"/><polygon points="20.862,17.06 22.162,14.343 25.705,16.038 24.405,18.755"/><polygon points="28.984,19.923 25.459,21.353 24.405,18.755 27.931,17.325"/><polygon points="28.31,10.127 29.433,13.175 26.71,14.178 25.587,11.13"/><polygon points="29.929,19.54 29.298,17.984 30.977,17.365 31.538,18.888"/><polygon points="18.969,21.017 20.605,17.596 22.008,18.267 20.371,21.688"/><polygon points="20.973,23.172 20.371,21.688 23.385,18.926 24.405,18.755 25.459,21.353"/><polygon points="25.796,6.747 27.336,7.483 27.584,8.156 25.479,11.291 23.968,10.568"/><polygon points="18.718,21.541 20.371,21.688 20.973,23.172 19.349,23.831 18.291,22.434"/><polygon points="31.865,19.618 32.718,21.722 26.928,24.07 26.075,21.967"/><polygon points="34.318,31.1 30.394,32.105 29.017,26.726 32.94,25.721"/><polygon points="34.318,31.1 33.246,26.913 38.037,25.686 39.11,29.873"/><polygon points="36.676,17.668 38.382,21.875 33.571,23.826 31.865,19.618"/><polygon points="39.11,29.873 38.497,27.48 42.862,26.362 42.68,24.988 43.151,25.172 44.032,28.612"/><polygon points="25.17,31.516 22.783,28.365 25.54,26.277 27.927,29.428"/><polygon points="25.17,31.516 28.595,28.922 29.471,32.341 26.392,33.13"/><polygon points="21.455,23.84 26.075,21.967 27.22,24.792 22.6,26.665"/><polygon points="36.676,17.668 40.293,16.201 41.36,18.831 37.742,20.298"/><polygon points="44.847,19.945 45.386,24.011 41.499,24.526 40.96,20.46"/><polygon points="21.455,23.84 22.6,26.665 21.899,27.197 19.849,24.491"/><polygon points="44.032,28.612 43.151,25.172 45.498,24.861 45.931,28.126"/><polygon points="44.386,16.467 41.857,16.802 41.427,15.741 44.144,14.64"/><polygon points="44.386,16.467 44.847,19.945 42.318,20.28 41.857,16.802"/></g><g fill="#888888"><polygon points="-9.735,27.294 -7.987,27.634 -6.238,27.974 -4.723,28.405 -3.443,28.927 -2.396,29.54 -1.583,30.245 -1.004,31.041 -0.659,31.929 -0.548,32.907 -0.672,33.977 -0.795,35.047 -0.918,36.117 -1.041,37.187 -1.164,38.257 -1.287,39.326 -1.41,40.396 -1.533,41.466 -1.656,42.536 -1.972,43.445 -2.483,44.192 -3.186,44.778 -4.083,45.202 -5.174,45.466 -6.458,45.568 -7.935,45.509 -9.606,45.288 -11.277,45.068 -12.949,44.847 -14.62,44.627 -16.291,44.406 -17.962,44.186 -19.633,43.965 -21.304,43.745 -22.975,43.524 -24.494,43.243 -25.861,42.902 -27.076,42.501 -28.14,42.039 -29.051,41.517 -29.81,40.934 -30.418,40.291 -30.873,39.588 -31.329,38.885 -31.784,38.181 -32.239,37.478 -32.695,36.775 -33.15,36.072 -33.606,35.368 -34.061,34.665 -34.517,33.962 -34.853,33.286 -35.069,32.637 -35.166,32.015 -35.143,31.421 -35.001,30.853 -34.739,30.313 -34.357,29.8 -33.857,29.314 -33.356,28.828 -32.855,28.343 -32.354,27.857 -31.853,27.371 -31.352,26.885 -30.851,26.399 -30.35,25.914 -29.849,25.428 -29.192,25.045 -28.379,24.766 -27.411,24.589 -26.286,24.516 -25.005,24.547 -23.568,24.68 -21.976,24.916 -20.227,25.256 -18.478,25.596 -16.73,25.935 -14.981,26.275 -13.233,26.615 -11.484,26.955"/></g><g fill="#888888" stroke="#000000" stroke-width="0.398"><polygon points="-48.219,-18.042 -47.957,-21.586 -43.433,-21.252 -43.695,-17.708"/><polygon points="-48.49,-14.37 -48.219,-18.042 -44.35,-17.756 -44.622,-14.084"/><polygon points="-47.957,-21.586 -47.722,-24.757 -45.618,-24.601 -45.852,-21.431"/><polygon points="-42.157,-25.775 -38.653,-24.23 -40.165,-20.803 -43.668,-22.348"/><polygon points="-45.756,-27.363 -42.157,-25.775 -42.917,-24.052 -46.516,-25.64"/><polygon points="-42.203,-9.863 -43.669,-7.546 -46.389,-9.267 -44.923,-11.584"/><polygon points="-35.596,-20.303 -38.074,-21.872 -37.298,-23.632 -34.321,-22.319"/><polygon points="-45.756,-27.363 -46.516,-25.64 -47.651,-25.724 -47.474,-28.121"/><polygon points="-48.078,-0.578 -49.446,-1.444 -49.236,-4.287 -45.853,-5.645 -45.152,-5.201"/><polygon points="-49.446,-1.444 -48.078,-0.578 -49.152,1.119 -49.623,0.944"/><polygon points="-26.059,-9.844 -28.452,-6.914 -32.881,-10.53 -30.488,-13.461"/><polygon points="-38.476,-14.255 -36.733,-17.01 -31.487,-13.69 -33.23,-10.936"/><polygon points="-28.452,-6.914 -31.492,-3.19 -35.891,-6.782 -32.851,-10.506"/><polygon points="-30.45,-20.452 -26.05,-17.807 -28.108,-14.382 -32.509,-17.026"/><polygon points="-40.741,-10.677 -37.187,-8.428 -40.359,-3.415 -43.913,-5.664"/><polygon points="-23.274,-13.256 -26.059,-9.844 -28.549,-11.877 -25.764,-15.289"/><polygon points="-34.374,0.34 -38.948,-3.393 -35.891,-6.782 -31.492,-3.19"/><polygon points="-30.601,-20.543 -32.509,-17.026 -35.518,-18.93 -33.58,-21.992 -31.449,-21.052"/><polygon points="-23.274,-13.256 -25.764,-15.289 -24.728,-17.013 -21.695,-15.19"/><polygon points="-36.849,3.372 -39.047,1.578 -40.143,-1.693 -39.633,-2.956 -38.948,-3.393 -34.374,0.34"/><polygon points="-47.113,-0.607 -43.913,-5.664 -41.371,-4.056 -44.571,1.001"/><polygon points="-40.118,4.468 -39.047,1.578 -36.849,3.372 -38.296,5.144"/><polygon points="-40.118,4.468 -44.14,2.977 -43.068,0.087 -39.047,1.578"/><polygon points="-47.113,-0.607 -44.571,1.001 -45.163,2.598 -48.385,1.403"/></g><g fill="#888888" stroke="#000000" stroke-width="0.398"><polygon points="-50.59,14.443 -46.395,15.896 -47.574,19.298 -51.768,17.845"/><polygon points="-55.758,23.18 -54.609,19.064 -49.738,20.423 -50.887,24.539"/><polygon points="-46.395,15.896 -42.593,17.213 -44.704,23.306 -48.506,21.989"/><polygon points="-44.984,30.023 -49.605,30.077 -49.675,24.097 -45.054,24.043"/><polygon points="-49.605,30.077 -53.569,30.123 -53.602,27.347 -49.637,27.301"/><polygon points="-57.013,27.676 -55.758,23.18 -53.322,23.859 -54.577,28.356"/><polygon points="-42.593,17.213 -37.914,18.834 -39.756,24.151 -44.435,22.53"/><polygon points="-39.916,29.963 -44.984,30.023 -45.051,24.27 -39.983,24.211"/><polygon points="-50.59,14.443 -51.768,17.845 -54.088,17.197 -53.079,13.581"/><polygon points="-57.064,27.859 -54.727,28.511 -54.708,30.136 -57.709,30.171"/><polygon points="-37.914,18.834 -33.503,20.363 -34.411,22.984 -38.822,21.456"/><polygon points="-39.916,29.963 -39.983,24.211 -39.756,24.151 -39.197,24.263 -35.476,28.099 -37.368,29.933"/><polygon points="-32.04,24.766 -35.476,28.099 -37.337,26.181 -33.9,22.848"/><polygon points="-31.394,24.14 -33.064,22.625 -32.412,20.741 -29.492,21.752 -29.802,22.596"/><polygon points="-47.387,2.626 -41.81,4.694 -42.78,7.309 -48.357,5.242"/><polygon points="-46.018,15.18 -50.319,13.69 -49.323,10.814 -45.022,12.304"/><polygon points="-40.936,16.941 -46.018,15.18 -44.394,10.49 -39.311,12.251"/><polygon points="-36.285,7.452 -39.506,11.966 -43.594,9.506 -41.81,4.694 -38.356,5.975"/><polygon points="-52.092,10.042 -50.716,5.111 -47.947,5.884 -49.323,10.814"/><polygon points="-52.092,10.042 -49.323,10.814 -50.319,13.69 -52.864,12.808"/><polygon points="-47.52,2.577 -48.452,5.092 -50.547,4.508 -49.775,1.741"/><polygon points="-36.285,7.452 -32.624,10.063 -35.257,13.754 -38.918,11.142"/><polygon points="-35.91,18.682 -40.936,16.941 -39.491,12.768 -34.464,14.51"/><polygon points="-32.624,10.063 -29.531,12.27 -31.86,15.534 -34.953,13.328"/><polygon points="-33.268,19.597 -35.91,18.682 -34.502,14.619 -31.86,15.534"/><polygon points="-27.357,15.947 -30.386,14.833 -28.885,12.73 -26.737,14.263"/><polygon points="-27.357,15.947 -28.596,19.317 -31.108,18.393 -29.869,15.023"/><polygon points="-31.712,20.136 -31.108,18.393 -28.596,19.317 -29.216,21.001"/></g><g stroke="#000000" stroke-width="0.8" stroke-linecap="butt"><polyline points="-9.765,-47.058 -4.165,-52.771"/><polyline points="-14.05,-51.258 -8.45,-56.971"/><polyline points="-18.335,-55.458 -12.735,-61.171"/></g><g fill="#888888" stroke="#000000" stroke-width="0.398"><polygon points="-14.157,-48.562 -17.848,-44.797 -21.3,-48.18 -17.609,-51.946"/><polygon points="-25.614,-51.672 -23.384,-53.883 -21.44,-51.922 -23.67,-49.711"/><polygon points="-25.614,-51.672 -23.18,-49.216 -26.736,-45.69 -29.171,-48.145"/><polygon points="-19.473,-53.773 -17.609,-51.946 -19.581,-49.934 -21.445,-51.761"/><polygon points="-20.136,-54.423 -21.406,-53.127 -22.765,-54.497 -21.496,-55.756"/><polygon points="-14.157,-48.562 -11.114,-45.579 -13.035,-43.62 -16.078,-46.603"/><polygon points="-15.713,-37.248 -19.286,-40.948 -16.746,-43.401 -13.173,-39.701"/><polygon points="-31.478,-45.858 -29.171,-48.145 -26.806,-45.76 -29.113,-43.473"/><polygon points="-11.172,-41.634 -13.173,-39.701 -15.092,-41.687 -13.09,-43.62"/><polygon points="-29.27,-38.782 -31.629,-41.215 -29.293,-43.479 -26.934,-41.046"/><polygon points="-32.498,-44.845 -31.212,-43.548 -32.593,-42.21 -33.849,-43.506"/><polygon points="-10.531,-42.253 -11.835,-43.603 -10.494,-44.971 -9.115,-43.62"/><polygon points="-23.241,-32.561 -25.869,-35.273 -23.41,-37.656 -20.782,-34.945"/><polygon points="-23.241,-32.561 -20.782,-34.945 -19.487,-33.604 -21.948,-31.228"/><polygon points="-23.918,-54.48 -25.901,-52.514 -27.68,-54.307 -25.696,-56.274"/><polygon points="-27.484,-61.225 -25.375,-59.314 -28.236,-56.157 -30.345,-58.067"/><polygon points="-26.003,-52.413 -28.519,-49.918 -32.25,-53.681 -29.734,-56.176"/><polygon points="-34.255,-62.991 -33.463,-62.683 -32.218,-60.841 -34.225,-55.689 -36.72,-56.66"/><polygon points="-23.401,-54.993 -24.716,-56.319 -23.523,-57.636 -22.082,-56.331 -22.067,-56.316"/><polygon points="-31.494,-64.857 -27.484,-61.225 -29.454,-59.051 -33.463,-62.683"/><polygon points="-28.519,-49.918 -31.054,-47.405 -34.219,-50.596 -31.684,-53.11"/><polygon points="-38.441,-52.241 -36.72,-56.66 -32.498,-55.016 -34.219,-50.596"/><polygon points="-31.494,-64.857 -33.463,-62.683 -34.255,-62.991 -32.998,-66.22"/><polygon points="-35.693,-45.407 -38.265,-48.062 -36.037,-50.221 -33.465,-47.567"/><polygon points="-35.693,-45.407 -33.465,-47.567 -32.188,-46.28 -34.406,-44.08"/><polygon points="-37.255,-25.799 -35.616,-29.514 -31.377,-27.644 -30.693,-28.304 -30.486,-27.781 -32.32,-23.622"/><polygon points="-28.522,-36.861 -25.8,-34.053 -28.86,-31.087 -31.581,-33.895"/><polygon points="-37.255,-25.799 -42.834,-28.26 -41.196,-31.975 -35.616,-29.514"/><polygon points="-24.171,-29.081 -28.088,-25.298 -30.486,-27.781 -26.568,-31.564"/><polygon points="-32.32,-23.622 -30.486,-27.781 -28.088,-25.298 -30.606,-22.866"/><polygon points="-24.047,-29.201 -26.369,-31.605 -24.852,-33.075 -22.523,-30.672"/><polygon points="-34.116,-42.631 -31.34,-39.768 -35.008,-36.213 -37.784,-39.076"/><polygon points="-46.271,-32.133 -44.855,-35.769 -41.414,-34.429 -42.83,-30.792"/><polygon points="-41.207,-45.137 -40.795,-44.977 -37.803,-41.044 -39.043,-37.861 -43.383,-39.551"/><polygon points="-46.271,-32.133 -42.83,-30.792 -43.765,-28.671 -47.054,-30.122"/></g><g fill="#888888" stroke="#000000" stroke-width="0.398"><polygon points="37.352,-11.673 35.708,-15.054 38.658,-16.488 40.302,-13.107"/><polygon points="37.706,-10.945 39.605,-11.869 41.533,-7.587 39.758,-6.724"/><polygon points="30.808,-25.133 30.958,-25.206 34.771,-24.483 36.476,-20.977 33.526,-19.543"/><polygon points="39.758,-6.724 41.533,-7.587 41.606,-7.556 40.557,-5.081"/><polygon points="35.88,-26.932 35.54,-24.337 30.958,-25.206 31.264,-27.538"/><polygon points="31.264,-27.538 30.958,-25.206 30.808,-25.133 29.528,-27.766"/><polygon points="41.711,-5.755 43.387,-9.71 46.431,-8.421 44.755,-4.465"/><polygon points="47.865,-0.904 44.739,-0.919 44.755,-4.465 47.881,-4.451"/><polygon points="54.935,-11.462 53.59,-8.096 49.222,-9.842 50.567,-13.208"/><polygon points="41.711,-5.755 44.755,-4.465 44.279,-3.733 41.798,-2.527 41.021,-4.126"/><polygon points="41.798,-2.527 44.279,-3.733 44.266,-0.921 42.576,-0.928"/><polygon points="52.363,-0.884 52.378,-4.345 56.052,-4.329 58.328,-0.857"/><polygon points="47.338,-14.498 46.696,-12.892 45.034,-13.596 45.694,-15.155"/><polygon points="59.316,-9.711 58.239,-7.018 57.929,-6.924 58.094,-7.597 54.038,-9.218 54.935,-11.462"/><polygon points="58.328,-0.857 54.945,-6.017 58.239,-7.018 60.287,-6.516 58.899,-0.854"/><polygon points="60.287,-6.516 58.239,-7.018 59.316,-9.711 60.914,-9.073"/></g><g stroke="#000000" stroke-width="0.8" stroke-linecap="butt"><polyline points="26.081,-30.308 30.363,-37.065"/><polyline points="21.013,-33.52 25.295,-40.277"/><polyline points="15.945,-36.732 20.227,-43.489"/></g><g fill="#888888" stroke="#000000" stroke-width="0.398"><polygon points="46.056,22.979 45.494,18.738 47.827,18.429 48.389,22.67"/><polygon points="46.474,26.133 46.056,22.979 48.389,22.67 48.807,25.823"/><polygon points="52.604,20.404 50.917,23.892 48.389,22.67 50.076,19.181"/><polygon points="46.606,27.133 49.199,25.59 49.926,25.941 48.636,28.609 46.73,28.063"/><polygon points="46.918,15.26 50.364,14.881 50.682,17.772 47.236,18.151"/><polygon points="46.918,15.26 47.236,18.151 45.448,18.388 45.06,15.464"/><polygon points="49.429,1.103 49.413,4.683 47.328,4.674 44.842,2.859 44.85,1.082"/><polygon points="44.065,7.954 43.581,4.301 46.32,3.938 46.804,7.591"/><polygon points="55.552,1.13 55.539,4.114 49.416,4.086 49.429,1.103"/><polygon points="44.564,11.717 44.065,7.954 46.966,7.57 47.465,11.333"/><polygon points="44.85,1.082 44.842,2.859 43.415,3.049 43.153,1.074"/><polygon points="50.213,14.092 49.838,10.688 53.947,10.236 54.322,13.641"/><polygon points="44.842,13.815 48.747,10.119 49.764,10.007 50.213,14.092 44.955,14.671"/><polygon points="54.322,13.641 53.639,7.435 53.774,7.395 57.925,9.403 55.963,13.46"/><polygon points="59.498,6.15 57.925,9.403 53.965,7.488 55.538,4.235"/><polygon points="61.128,2.78 55.538,4.235 55.552,1.13 58.794,1.145 61.234,2.561"/><polygon points="56.415,14.361 59.172,15.695 57.304,19.557 54.547,18.224"/><polygon points="65.976,27.442 63.169,31.193 61.091,29.638 63.898,25.887"/><polygon points="59.726,31.788 57.071,31.027 58.06,27.574 60.715,28.335"/><polygon points="57.071,31.027 53.343,29.958 54.104,27.303 57.832,28.371"/><polygon points="50.2,27.213 52.369,22.727 54.98,23.99 52.81,28.475"/><polygon points="60.418,31.986 61.091,29.638 63.169,31.193 62.195,32.495"/><polygon points="59.738,7.491 62.495,8.824 60.987,11.941 58.231,10.608"/><polygon points="70.183,7.756 68.9,9.966 64.809,7.592 66.092,5.382"/><polygon points="50.2,27.213 52.81,28.475 52.458,29.705 49.416,28.833"/><polygon points="59.738,7.491 60.871,5.148 62.882,6.121 61.749,8.464"/><polygon points="76.433,13.468 73.305,17.647 71.312,16.156 74.44,11.977"/><polygon points="70.183,7.756 74.542,10.287 73.259,12.497 68.9,9.966"/><polygon points="63.979,4.155 66.092,5.382 64.979,7.299 62.867,6.072"/><polygon points="63.312,3.768 62.551,5.079 61.217,4.434 61.928,2.964"/></g><g fill="#888888" stroke="#000000" stroke-width="0.398"><polygon points="-15.527,66.481 -19.357,68.526 -20.885,65.665 -17.055,63.62"/><polygon points="-22.178,61.331 -17.686,61.086 -17.556,63.468 -22.048,63.712"/><polygon points="-24.758,71.409 -26.003,69.077 -20.602,66.194 -19.357,68.526"/><polygon points="-11.82,64.502 -15.137,66.273 -16.052,64.559 -12.735,62.788"/><polygon points="-11.82,64.502 -12.735,62.788 -11.732,60.974 -9.364,62.078 -10.055,63.56"/><polygon points="-17.686,61.086 -12.842,60.823 -12.735,62.788 -17.579,63.052"/><polygon points="-26.859,61.585 -26.743,63.721 -30.037,63.498 -29.919,61.752"/><polygon points="-30.585,71.602 -30.352,68.161 -28.638,68.277 -28.871,71.718"/><polygon points="-29.363,53.542 -27.011,53.701 -27.366,58.957 -29.719,58.798"/><polygon points="-17.098,51.756 -17.838,57.712 -21.381,57.271 -20.641,51.315"/><polygon points="-29.363,53.542 -29.078,49.331 -23.786,49.689 -24.07,53.9"/><polygon points="-21.207,60.477 -21.381,57.271 -17.838,57.712 -18.161,60.311"/><polygon points="-16.483,46.807 -17.098,51.756 -20.545,51.327 -19.929,46.378"/><polygon points="-29.719,58.798 -27.157,58.972 -27.058,60.795 -29.864,60.948"/><polygon points="-25.918,43.943 -20.445,44.665 -20.867,47.86 -26.34,47.138"/><polygon points="-25.918,43.943 -26.345,47.18 -28.921,47.006 -28.689,43.577"/><polygon points="-16.483,46.807 -19.929,46.378 -19.716,44.761 -16.285,45.214"/><polygon points="-17.141,58.592 -16.605,54.274 -13.972,54.601 -14.508,58.92"/><polygon points="-9.914,59.862 -12.208,59.987 -12.464,55.282 -10.17,55.157"/><polygon points="-9.914,59.862 -10.17,55.157 -6.857,56.702 -8.289,59.774"/><polygon points="-17.141,58.592 -14.508,58.92 -14.444,60.109 -17.35,60.267"/><polygon points="-13.642,45.563 -8.914,46.187 -9.328,49.325 -14.056,48.701"/><polygon points="-3.612,49.743 -4.727,52.134 -6.647,51.239 -5.532,48.848"/><polygon points="-8.914,46.187 -5.01,46.702 -5.277,48.722 -9.181,48.207"/><polygon points="-13.642,45.563 -14.056,48.701 -15.884,48.474 -15.492,45.319"/><polygon points="-3.194,48.845 -4.392,48.286 -4.197,46.809 -2.357,47.052"/></g><g fill="#888888" stroke="#000000" stroke-width="0.398"><polygon points="32.884,56.995 26.54,60.137 24.478,55.973 30.822,52.831"/><polygon points="12.517,55.131 15.281,54.695 16.08,59.764 13.317,60.2"/><polygon points="13.317,60.2 16.08,59.764 17.065,66.009 14.302,66.445"/><polygon points="32.884,56.995 34.874,61.015 32.155,62.361 30.165,58.342"/><polygon points="28.698,48.544 30.822,52.831 26.769,54.839 24.645,50.551"/><polygon points="22.723,70.66 21.088,66.602 24.615,65.181 26.25,69.239"/><polygon points="18.118,47.049 24.607,46.996 24.637,50.572 18.147,50.626"/><polygon points="28.698,48.544 24.645,50.551 24.616,46.996 27.918,46.968"/><polygon points="35.239,65.618 30.821,67.398 29.505,64.132 33.923,62.352"/><polygon points="35.239,65.618 33.923,62.352 35.219,61.71 36.835,64.974"/><polygon points="15.116,71.611 14.302,66.445 16.858,66.042 17.672,71.207"/><polygon points="13.086,47.091 18.118,47.049 18.141,49.858 13.11,49.9"/><polygon points="13.086,47.091 13.11,49.9 11.726,50.118 11.251,47.106"/><polygon points="12.399,59.516 6.729,60.411 6.129,56.606 11.799,55.712"/><polygon points="-3.403,54.027 1.251,56.197 -0.883,60.774 -5.537,58.604"/><polygon points="-3.058,68.714 -1.147,66.302 2.61,69.28 0.699,71.691"/><polygon points="-3.403,54.027 -1.954,50.919 3.631,53.523 2.182,56.631"/><polygon points="-3.058,68.714 -6.933,65.643 -5.604,63.965 -1.728,67.036"/><polygon points="10.71,48.809 11.252,52.248 7.759,52.799 7.217,49.36"/><polygon points="-7.602,63.033 -5.537,58.604 -3.538,59.536 -5.604,63.965"/><polygon points="-7.602,63.033 -5.604,63.965 -6.933,65.643 -8.31,64.551"/><polygon points="1.867,47.184 6.262,47.147 6.297,51.295 1.901,51.332"/><polygon points="5.916,75.825 3.266,73.725 5.299,71.159 7.949,73.259"/><polygon points="1.867,47.184 1.901,51.332 -1.424,49.782 -0.22,47.201"/><polygon points="10.71,48.809 7.217,49.36 7.198,47.14 10.442,47.113"/></g><g fill="#888888" stroke="#000000" stroke-width="0.398"><polygon points="64.781,39.291 60.621,42.172 58.226,38.715 62.386,35.833"/><polygon points="49.247,39.265 51.433,38.085 53.547,42.003 51.362,43.183"/><polygon points="54.467,32.361 58.491,33.514 57.105,38.348 53.082,37.195"/><polygon points="64.781,39.291 67.63,43.404 65.253,45.051 62.404,40.938"/><polygon points="49.247,39.265 47.918,36.801 51.752,34.732 53.082,37.195"/><polygon points="50.118,31.115 52.604,31.827 51.77,34.737 49.284,34.024"/><polygon points="56.351,52.429 53.853,47.8 56.917,46.146 59.415,50.775"/><polygon points="45.384,32.106 47.019,31.224 49.296,34.039 47.074,35.238"/><polygon points="68.232,47.788 64.871,49.642 63.326,46.841 66.686,44.987"/><polygon points="56.351,52.429 59.415,50.775 60.21,52.215 57.148,53.905"/><polygon points="68.232,47.788 66.686,44.987 68.065,44.032 69.993,46.816"/><polygon points="47.099,30.249 47.019,31.224 45.384,32.106 44.542,30.546 46.439,30.06"/><polygon points="29.223,43.806 28.388,40.185 33.923,38.909 34.758,42.529"/><polygon points="29.223,43.806 35.579,42.34 35.61,42.475 35.955,43.17 35.205,45.385 35.123,45.498 30.544,47.765 29.78,46.222"/><polygon points="36.08,32.713 36.914,35.97 33.401,36.87 32.567,33.613"/><polygon points="40.71,31.527 41.336,33.97 36.705,35.156 36.08,32.713"/><polygon points="37.525,50.077 35.183,51.235 34.038,48.918 36.379,47.76"/><polygon points="28.921,34.547 32.567,33.613 33.393,36.837 29.747,37.77"/><polygon points="31.72,50.14 30.544,47.765 32.834,46.631 34.01,49.006"/><polygon points="46.527,35.908 47.896,38.445 42.306,41.462 40.936,38.925"/><polygon points="46.527,35.908 43.949,37.299 42.147,33.96 44.725,32.569"/><polygon points="28.921,34.547 29.747,37.77 27.928,38.19 27.19,34.99"/><polygon points="32.073,50.852 33.676,50.058 34.44,51.603 32.837,52.395"/><polygon points="44.725,32.569 41.432,34.346 40.71,31.527 43.743,30.75"/><polygon points="38.05,50.71 41.245,49.131 43.488,53.667 40.293,55.246"/><polygon points="47.212,59.388 43.08,61.668 40.703,57.36 44.834,55.08"/><polygon points="47.212,59.388 45.503,56.293 49.765,53.941 51.473,57.036"/><polygon points="36.361,59.51 35.27,57.307 39.612,55.157 40.703,57.36"/><polygon points="34.754,52.34 38.05,50.71 39.203,53.042 35.907,54.671"/><polygon points="34.754,52.34 35.907,54.671 34.347,55.444 33.192,53.112"/><polygon points="37.931,62.68 36.361,59.51 39.348,58.031 40.918,61.201"/><polygon points="37.931,62.68 40.918,61.201 41.62,62.473 38.642,64.117"/><polygon points="54.06,55.609 51.473,57.036 50.138,54.617 52.725,53.189"/><polygon points="52.058,46.158 50.211,47.155 49.234,45.18 51.047,44.284"/></g><g fill="#888888" stroke="#000000" stroke-width="0.398"><polygon points="-30.32,55.839 -39.366,55.227 -39.081,51.009 -30.035,51.621"/><polygon points="-29.75,47.416 -30.035,51.621 -41.665,50.834 -41.381,46.629"/><polygon points="-33.009,37.762 -30.692,41.34 -37.764,45.92 -40.081,42.342"/><polygon points="-29.686,46.466 -37.764,45.92 -30.692,41.34 -29.467,43.231"/><polygon points="-50.095,32.083 -45.185,32.025 -45.107,38.701 -50.017,38.758"/><polygon points="-35.063,34.59 -33.009,37.762 -38.18,41.111 -40.235,37.939"/><polygon points="-45.185,32.025 -40.431,31.969 -40.358,38.197 -45.112,38.253"/><polygon points="-57.057,38.856 -57.508,35.197 -54.595,34.838 -54.144,38.497"/><polygon points="-53.994,32.128 -50.095,32.083 -50.056,35.42 -53.955,35.466"/><polygon points="-35.445,34.001 -39.656,36.728 -39.712,31.961 -36.788,31.927"/><polygon points="-55.168,32.142 -55.143,34.3 -57.581,34.6 -57.88,32.174"/></g><g fill="#888888" stroke="#000000" stroke-width="0.398"><polygon points="-69.526,22.428 -67.788,28.064 -70.911,29.027 -72.649,23.391"/><polygon points="-71.737,31.587 -75.197,31.954 -75.589,28.252 -72.13,27.885"/><polygon points="-75.197,31.954 -78.704,32.326 -79.073,28.847 -75.565,28.476"/><polygon points="-70.173,31.422 -70.374,29.53 -67.6,28.674 -66.861,31.07"/><polygon points="-55.854,20.548 -57.527,26.545 -60.929,25.595 -59.256,19.599"/><polygon points="-53.392,11.723 -54.598,16.047 -62.24,13.914 -61.034,9.591"/><polygon points="-68.09,24.369 -62.669,22.697 -61.924,24.846 -64.455,28.13 -66.715,28.827"/><polygon points="-60.421,30.388 -64.018,30.769 -64.317,27.95 -60.72,27.569"/><polygon points="-60.421,30.388 -60.929,25.595 -57.527,26.545 -58.544,30.189"/><polygon points="-66.715,28.827 -64.455,28.13 -64.174,30.786 -66.05,30.985"/><polygon points="-51.168,3.754 -53.084,3.219 -53.044,1.543 -50.567,1.602"/></g><g stroke="#888888" stroke-width="0.398" stroke-linecap="butt"><line x1="-65.946" y1="-0.777" x2="-52.147" y2="-0.446"/><line x1="-66.649" y1="-2.014" x2="-51.249" y2="-1.645"/><line x1="-67.147" y1="-3.246" x2="-50.746" y2="-2.853"/><line x1="-67.118" y1="-4.466" x2="-50.656" y2="-4.071"/><line x1="-67.089" y1="-5.685" x2="-50.566" y2="-5.289"/><line x1="-67.059" y1="-6.905" x2="-50.475" y2="-6.507"/><line x1="-67.03" y1="-8.125" x2="-50.385" y2="-7.725"/><line x1="-67.001" y1="-9.344" x2="-50.295" y2="-8.944"/><line x1="-66.972" y1="-10.564" x2="-50.205" y2="-10.162"/><line x1="-66.942" y1="-11.783" x2="-50.115" y2="-11.38"/><line x1="-66.913" y1="-13.003" x2="-50.025" y2="-12.598"/><line x1="-66.884" y1="-14.222" x2="-49.935" y2="-13.816"/><line x1="-66.855" y1="-15.442" x2="-49.845" y2="-15.034"/><line x1="-66.825" y1="-16.661" x2="-49.755" y2="-16.252"/><line x1="-66.796" y1="-17.881" x2="-49.665" y2="-17.47"/><line x1="-66.767" y1="-19.1" x2="-49.575" y2="-18.688"/><line x1="-66.738" y1="-20.32" x2="-49.485" y2="-19.906"/><line x1="-66.708" y1="-21.54" x2="-49.395" y2="-21.124"/><line x1="-66.679" y1="-22.759" x2="-49.619" y2="-22.35"/><line x1="-66.65" y1="-23.979" x2="-50.321" y2="-23.587"/><line x1="-66.176" y1="-25.188" x2="-52.357" y2="-24.856"/><line x1="-65.279" y1="-26.386" x2="-60.672" y2="-26.276"/><line x1="-69.754" y1="-14.376" x2="-84.819" y2="-14.737"/><line x1="-68.921" y1="-12.695" x2="-91.106" y2="-13.227"/><line x1="-68.961" y1="-11.035" x2="-91.327" y2="-11.571"/><line x1="-69.001" y1="-9.375" x2="-91.547" y2="-9.916"/><line x1="-69.041" y1="-7.715" x2="-91.631" y2="-8.257"/><line x1="-69.08" y1="-6.055" x2="-90.76" y2="-6.575"/><line x1="-69.12" y1="-4.395" x2="-89.373" y2="-4.881"/><line x1="-69.16" y1="-2.735" x2="-87.987" y2="-3.187"/><line x1="-69.95" y1="-1.093" x2="-86.601" y2="-1.493"/><line x1="-89.871" y1="-22.479" x2="-89.775" y2="-17.254"/><line x1="-88.48" y1="-26.912" x2="-88.291" y2="-16.612"/><line x1="-87.019" y1="-27.576" x2="-86.819" y2="-16.665"/><line x1="-85.546" y1="-27.603" x2="-85.346" y2="-16.719"/><line x1="-84.074" y1="-27.63" x2="-83.874" y2="-16.773"/><line x1="-82.601" y1="-27.657" x2="-82.402" y2="-16.826"/><line x1="-81.129" y1="-27.684" x2="-80.93" y2="-16.88"/><line x1="-79.656" y1="-27.711" x2="-79.458" y2="-16.933"/><line x1="-78.184" y1="-27.738" x2="-77.986" y2="-16.987"/><line x1="-76.711" y1="-27.765" x2="-76.514" y2="-17.041"/><line x1="-75.239" y1="-27.792" x2="-75.042" y2="-17.094"/><line x1="-73.766" y1="-27.819" x2="-73.57" y2="-17.148"/><line x1="-72.293" y1="-27.846" x2="-72.098" y2="-17.201"/><line x1="-70.821" y1="-27.856" x2="-70.629" y2="-17.426"/><line x1="-69.346" y1="-27.757" x2="-69.17" y2="-18.158"/><g fill="#888888" stroke="#000000" stroke-width="0.398"><polygon points="-88.726,-14.595 -87.279,-14.647 -85.667,-14.706 -83.745,-14.776 -83.69,-13.274 -83.661,-12.478 -85.584,-12.408 -87.195,-12.349 -87.224,-13.145 -88.672,-13.092"/></g></g><g stroke="#888888" stroke-width="0.398" stroke-linecap="butt"><line x1="-65.462" y1="-53.108" x2="-67.279" y2="-39.132"/><line x1="-64.102" y1="-53.748" x2="-66.155" y2="-37.955"/><line x1="-62.79" y1="-54.014" x2="-64.93" y2="-37.553"/><line x1="-61.534" y1="-53.851" x2="-63.681" y2="-37.34"/><line x1="-60.278" y1="-53.687" x2="-62.431" y2="-37.127"/><line x1="-59.022" y1="-53.524" x2="-61.182" y2="-36.913"/><line x1="-57.767" y1="-53.361" x2="-59.932" y2="-36.7"/><line x1="-56.511" y1="-53.197" x2="-58.683" y2="-36.487"/><line x1="-55.255" y1="-53.034" x2="-57.434" y2="-36.273"/><line x1="-53.999" y1="-52.871" x2="-56.184" y2="-36.06"/><line x1="-52.743" y1="-52.708" x2="-54.935" y2="-35.847"/><line x1="-51.487" y1="-52.544" x2="-53.685" y2="-35.633"/><line x1="-50.231" y1="-52.381" x2="-52.436" y2="-35.42"/><line x1="-48.975" y1="-52.218" x2="-51.186" y2="-35.207"/><line x1="-47.719" y1="-52.055" x2="-49.937" y2="-34.994"/><line x1="-46.463" y1="-51.891" x2="-48.661" y2="-34.982"/><line x1="-45.207" y1="-51.728" x2="-47.301" y2="-35.622"/><line x1="-43.951" y1="-51.565" x2="-45.828" y2="-37.13"/><line x1="-42.721" y1="-51.203" x2="-43.911" y2="-42.053"/><line x1="-41.597" y1="-50.026" x2="-41.993" y2="-46.977"/><line x1="-35.895" y1="-66.587" x2="-63.919" y2="-64.577"/><line x1="-34.852" y1="-65.317" x2="-64.793" y2="-63.17"/><line x1="-35.39" y1="-63.934" x2="-64.969" y2="-61.813"/><line x1="-35.929" y1="-62.551" x2="-65.146" y2="-60.456"/><line x1="-36.467" y1="-61.168" x2="-65.322" y2="-59.099"/><line x1="-37.006" y1="-59.785" x2="-65.499" y2="-57.742"/><line x1="-37.544" y1="-58.402" x2="-63.968" y2="-56.507"/><line x1="-38.083" y1="-57.019" x2="-58.905" y2="-55.526"/><line x1="-38.621" y1="-55.636" x2="-52.24" y2="-54.659"/><line x1="-39.804" y1="-54.207" x2="-45.575" y2="-53.793"/><g fill="#888888" stroke="#000000" stroke-width="0.398"><polygon points="-46.913,-51.95 -44.359,-51.618 -42.941,-51.434 -43.069,-50.45 -43.294,-48.724 -44.711,-48.909 -44.487,-50.634 -47.041,-50.966"/></g></g><g stroke="#000000" stroke-width="0.8" stroke-linecap="butt"><polyline points="-24.401,-61.13 -19.03,-67.059"/><polyline points="-28.848,-65.158 -23.476,-71.087"/></g><g stroke="#888888" stroke-width="0.398" stroke-linecap="butt"><line x1="91.811" y1="34.555" x2="79.602" y2="46.222"/><line x1="93.742" y1="34.928" x2="79.807" y2="48.244"/><line x1="94.849" y1="36.086" x2="80.914" y2="49.402"/><line x1="95.957" y1="37.245" x2="82.021" y2="50.561"/><line x1="97.064" y1="38.404" x2="83.129" y2="51.72"/><line x1="98.171" y1="39.563" x2="84.236" y2="52.879"/><line x1="99.279" y1="40.722" x2="85.344" y2="54.038"/><line x1="100.386" y1="41.881" x2="86.451" y2="55.197"/><line x1="101.494" y1="43.04" x2="87.558" y2="56.356"/><line x1="102.601" y1="44.199" x2="88.666" y2="57.515"/><line x1="103.708" y1="45.358" x2="89.773" y2="58.674"/><line x1="104.32" y1="46.99" x2="90.881" y2="59.832"/><line x1="103.93" y1="49.58" x2="91.988" y2="60.991"/><line x1="98.005" y1="57.459" x2="93.919" y2="61.364"/><line x1="107.54" y1="19.358" x2="94.946" y2="31.393"/><line x1="108.887" y1="19.955" x2="94.937" y2="33.284"/><line x1="109.342" y1="21.402" x2="95.878" y2="34.268"/><line x1="109.797" y1="22.85" x2="96.818" y2="35.252"/><line x1="110.253" y1="24.298" x2="97.759" y2="36.237"/><line x1="110.708" y1="25.745" x2="98.699" y2="37.221"/><line x1="111.164" y1="27.193" x2="99.64" y2="38.205"/><line x1="111.619" y1="28.641" x2="100.58" y2="39.189"/><line x1="112.075" y1="30.089" x2="101.521" y2="40.173"/><line x1="112.53" y1="31.536" x2="102.461" y2="41.158"/><line x1="112.986" y1="32.984" x2="103.402" y2="42.142"/><line x1="113.411" y1="34.46" x2="104.342" y2="43.126"/><line x1="113.314" y1="36.436" x2="105.283" y2="44.11"/><line x1="110.061" y1="41.428" x2="106.74" y2="44.601"/><line x1="106.413" y1="12.092" x2="104.983" y2="10.596"/><line x1="107.321" y1="14.978" x2="103.245" y2="10.713"/><line x1="106.717" y1="16.282" x2="101.746" y2="11.079"/><line x1="105.828" y1="17.287" x2="100.246" y2="11.446"/><line x1="104.861" y1="18.211" x2="98.746" y2="11.812"/><line x1="103.894" y1="19.135" x2="97.246" y2="12.178"/><line x1="102.927" y1="20.059" x2="95.747" y2="12.545"/><line x1="101.96" y1="20.983" x2="94.247" y2="12.911"/><line x1="100.993" y1="21.907" x2="92.747" y2="13.277"/><line x1="100.026" y1="22.831" x2="91.247" y2="13.644"/><line x1="99.059" y1="23.754" x2="89.748" y2="14.01"/><line x1="97.574" y1="24.136" x2="88.844" y2="15"/><line x1="95.454" y1="26.814" x2="84.526" y2="15.377"/><line x1="94.615" y1="28.001" x2="82.854" y2="15.694"/><line x1="93.583" y1="28.988" x2="81.253" y2="16.085"/><line x1="92.551" y1="29.974" x2="79.653" y2="16.476"/><line x1="91.519" y1="30.96" x2="78.052" y2="16.867"/><line x1="90.396" y1="31.851" x2="79.438" y2="20.384"/><line x1="74.848" y1="19.392" x2="71.749" y2="22.064"/><line x1="76.472" y1="20.007" x2="67.496" y2="27.747"/><line x1="77.469" y1="21.162" x2="66.766" y2="30.392"/><line x1="78.466" y1="22.318" x2="67.26" y2="31.982"/><line x1="79.463" y1="23.474" x2="68.134" y2="33.244"/><line x1="80.459" y1="24.63" x2="69.008" y2="34.506"/><line x1="81.456" y1="25.786" x2="69.882" y2="35.768"/><line x1="82.453" y1="26.942" x2="70.756" y2="37.03"/><line x1="83.45" y1="28.098" x2="71.63" y2="38.291"/><line x1="84.447" y1="29.254" x2="72.504" y2="39.553"/><line x1="85.444" y1="30.41" x2="73.378" y2="40.815"/><line x1="86.441" y1="31.566" x2="74.253" y2="42.076"/><line x1="87.13" y1="32.987" x2="75.15" y2="43.318"/><line x1="87.27" y1="34.882" x2="76.179" y2="44.447"/><g fill="#888888" stroke="#000000" stroke-width="0.398"/></g><g stroke="#888888" stroke-width="0.398" stroke-linecap="butt"><line x1="-68.314" y1="-57.708" x2="-67.089" y2="-61.021"/><line x1="-69.888" y1="-57.814" x2="-66.868" y2="-65.983"/><line x1="-71.387" y1="-58.122" x2="-67.797" y2="-67.835"/><line x1="-72.807" y1="-58.647" x2="-68.848" y2="-69.356"/><line x1="-74.226" y1="-59.172" x2="-69.899" y2="-70.878"/><line x1="-75.646" y1="-59.696" x2="-70.95" y2="-72.4"/><line x1="-77.065" y1="-60.221" x2="-72.001" y2="-73.922"/><line x1="-78.485" y1="-60.746" x2="-73.344" y2="-74.652"/><line x1="-79.904" y1="-61.27" x2="-74.918" y2="-74.758"/><line x1="-81.324" y1="-61.795" x2="-76.623" y2="-74.511"/><line x1="-82.743" y1="-62.32" x2="-78.438" y2="-73.965"/><line x1="-84.162" y1="-62.845" x2="-80.254" y2="-73.419"/><line x1="-85.582" y1="-63.369" x2="-82.069" y2="-72.874"/><line x1="-87.001" y1="-63.894" x2="-83.884" y2="-72.328"/><line x1="-88.421" y1="-64.419" x2="-85.699" y2="-71.783"/><line x1="-89.84" y1="-64.943" x2="-87.514" y2="-71.237"/><line x1="-91.26" y1="-65.468" x2="-89.329" y2="-70.691"/><line x1="-92.679" y1="-65.993" x2="-91.144" y2="-70.146"/><line x1="-94.099" y1="-66.517" x2="-92.959" y2="-69.6"/><line x1="-95.326" y1="-67.562" x2="-94.774" y2="-69.055"/><line x1="-102.29" y1="-66.796" x2="-105.705" y2="-55.914"/><line x1="-100.763" y1="-66.813" x2="-106.776" y2="-47.654"/><line x1="-99.39" y1="-66.341" x2="-104.438" y2="-50.259"/><line x1="-98.027" y1="-65.837" x2="-102.097" y2="-52.872"/><line x1="-96.665" y1="-65.334" x2="-99.755" y2="-55.485"/><line x1="-95.302" y1="-64.83" x2="-97.414" y2="-58.098"/><line x1="-93.939" y1="-64.326" x2="-95.073" y2="-60.711"/><line x1="-87.652" y1="-61.302" x2="-90.593" y2="-62.389"/><line x1="-87.923" y1="-60.002" x2="-91.726" y2="-61.408"/><line x1="-88.341" y1="-58.757" x2="-92.697" y2="-60.367"/><line x1="-88.796" y1="-57.525" x2="-93.639" y2="-59.315"/><line x1="-89.251" y1="-56.293" x2="-94.581" y2="-58.264"/><line x1="-89.706" y1="-55.062" x2="-95.523" y2="-57.212"/><line x1="-90.162" y1="-53.83" x2="-96.466" y2="-56.16"/><line x1="-90.617" y1="-52.598" x2="-97.408" y2="-55.109"/><line x1="-91.072" y1="-51.367" x2="-98.35" y2="-54.057"/><line x1="-91.528" y1="-50.135" x2="-99.292" y2="-53.005"/><line x1="-91.983" y1="-48.903" x2="-100.234" y2="-51.954"/><line x1="-92.438" y1="-47.672" x2="-101.177" y2="-50.902"/><line x1="-92.893" y1="-46.44" x2="-102.119" y2="-49.85"/><line x1="-93.349" y1="-45.208" x2="-103.061" y2="-48.799"/><line x1="-93.804" y1="-43.977" x2="-104.003" y2="-47.747"/><line x1="-94.36" y1="-42.782" x2="-104.504" y2="-46.532"/><line x1="-95.493" y1="-41.801" x2="-104.776" y2="-45.233"/><line x1="-85.116" y1="-59.607" x2="-92.466" y2="-39.722"/><line x1="-83.273" y1="-60.384" x2="-91.129" y2="-39.131"/><line x1="-81.905" y1="-59.878" x2="-89.792" y2="-38.54"/><line x1="-80.536" y1="-59.372" x2="-88.392" y2="-38.118"/><line x1="-79.167" y1="-58.866" x2="-86.878" y2="-38.004"/><line x1="-77.798" y1="-58.36" x2="-85.321" y2="-38.009"/><line x1="-76.43" y1="-57.854" x2="-83.755" y2="-38.037"/><line x1="-75.061" y1="-57.348" x2="-82.188" y2="-38.066"/><line x1="-73.692" y1="-56.842" x2="-80.622" y2="-38.095"/><line x1="-72.323" y1="-56.336" x2="-79.055" y2="-38.124"/><line x1="-70.955" y1="-55.83" x2="-77.489" y2="-38.152"/><line x1="-69.604" y1="-55.276" x2="-75.923" y2="-38.181"/><line x1="-68.602" y1="-53.778" x2="-74.356" y2="-38.21"/><line x1="-68.565" y1="-49.669" x2="-72.79" y2="-38.239"/><line x1="-69.409" y1="-43.177" x2="-70.944" y2="-39.023"/><g fill="#888888" stroke="#000000" stroke-width="0.398"><polygon points="-92.354,-42.13 -91.758,-43.744 -90.829,-46.256 -89.779,-45.868 -88.581,-45.425 -89.509,-42.913 -90.708,-43.356 -91.304,-41.742"/></g></g><g stroke="#888888" stroke-width="0.398" stroke-linecap="butt"><line x1="150.635" y1="20.812" x2="154.155" y2="5.601"/><line x1="148.72" y1="21.346" x2="152.697" y2="4.16"/><line x1="147.02" y1="20.953" x2="151.025" y2="3.647"/><line x1="145.32" y1="20.559" x2="149.352" y2="3.133"/><line x1="143.62" y1="20.166" x2="147.68" y2="2.62"/><line x1="141.919" y1="19.772" x2="146.007" y2="2.107"/><line x1="140.219" y1="19.379" x2="144.335" y2="1.594"/><line x1="138.519" y1="18.986" x2="142.663" y2="1.08"/><line x1="136.819" y1="18.592" x2="140.99" y2="0.567"/><line x1="135.119" y1="18.199" x2="139.318" y2="0.054"/><line x1="133.65" y1="16.806" x2="137.414" y2="0.54"/><line x1="132.484" y1="21.014" x2="128.379" y2="38.752"/><line x1="134.121" y1="20.021" x2="129.376" y2="40.529"/><line x1="135.457" y1="20.33" x2="130.673" y2="41.002"/><line x1="136.793" y1="20.639" x2="131.971" y2="41.476"/><line x1="138.129" y1="20.948" x2="133.269" y2="41.949"/><line x1="139.465" y1="21.257" x2="134.567" y2="42.423"/><line x1="140.801" y1="21.566" x2="135.865" y2="42.896"/><line x1="142.136" y1="21.876" x2="137.162" y2="43.37"/><line x1="143.472" y1="22.185" x2="138.46" y2="43.844"/><line x1="144.808" y1="22.494" x2="139.758" y2="44.317"/><line x1="146.144" y1="22.803" x2="141.056" y2="44.791"/><line x1="147.48" y1="23.112" x2="142.354" y2="45.264"/><line x1="148.816" y1="23.421" x2="143.652" y2="45.738"/><line x1="149.816" y1="25.181" x2="145.285" y2="44.761"/><line x1="116.951" y1="6.528" x2="117.714" y2="8.407"/><line x1="117.831" y1="5.364" x2="119.703" y2="9.974"/><line x1="118.992" y1="4.893" x2="121.692" y2="11.542"/><line x1="120.152" y1="4.421" x2="123.681" y2="13.109"/><line x1="121.313" y1="3.95" x2="125.67" y2="14.677"/><line x1="122.474" y1="3.478" x2="127.659" y2="16.244"/><line x1="123.635" y1="3.007" x2="129.309" y2="16.977"/><line x1="124.796" y1="2.535" x2="130.475" y2="16.518"/><line x1="125.957" y1="2.064" x2="131.153" y2="14.856"/><line x1="127.118" y1="1.592" x2="131.643" y2="12.734"/><line x1="128.279" y1="1.121" x2="132.134" y2="10.613"/><line x1="129.44" y1="0.649" x2="132.625" y2="8.492"/><line x1="130.601" y1="0.178" x2="133.116" y2="6.371"/><line x1="131.762" y1="-0.294" x2="133.607" y2="4.249"/><line x1="132.93" y1="-0.748" x2="134.098" y2="2.128"/><line x1="134.116" y1="-1.156" x2="134.541" y2="-0.11"/><line x1="108.401" y1="9.194" x2="116.77" y2="35.796"/><line x1="109.825" y1="8.616" x2="118.632" y2="36.608"/><line x1="111.25" y1="8.037" x2="120.446" y2="37.27"/><line x1="112.721" y1="7.607" x2="122.261" y2="37.932"/><line x1="114.625" y1="8.555" x2="124.075" y2="38.594"/><line x1="116.746" y1="10.19" x2="125.442" y2="37.834"/><line x1="118.881" y1="11.873" x2="126.349" y2="35.612"/><line x1="121.017" y1="13.556" x2="127.03" y2="32.67"/><line x1="123.153" y1="15.239" x2="127.711" y2="29.728"/><line x1="125.289" y1="16.922" x2="128.392" y2="26.786"/><line x1="127.424" y1="18.605" x2="129.072" y2="23.844"/><g fill="#888888" stroke="#000000" stroke-width="0.398"><polygon points="114.492,31.107 114.135,29.973 113.624,28.35 114.321,28.131 115.76,27.678 116.271,29.302 116.628,30.435 117.224,32.33 115.785,32.782 115.189,30.888"/></g></g><g stroke="#888888" stroke-width="0.398" stroke-linecap="butt"><line x1="121.192" y1="58.842" x2="135.642" y2="65.563"/><line x1="120.779" y1="57.066" x2="137.315" y2="64.758"/><line x1="121.385" y1="55.764" x2="137.921" y2="63.456"/><line x1="121.99" y1="54.462" x2="138.527" y2="62.154"/><line x1="122.596" y1="53.16" x2="139.132" y2="60.852"/><line x1="123.201" y1="51.858" x2="139.738" y2="59.55"/><line x1="123.807" y1="50.556" x2="140.343" y2="58.248"/><line x1="124.413" y1="49.254" x2="140.949" y2="56.946"/><line x1="125.018" y1="47.952" x2="141.555" y2="55.644"/><line x1="125.624" y1="46.65" x2="142.16" y2="54.342"/><line x1="126.229" y1="45.348" x2="142.766" y2="53.04"/><line x1="126.835" y1="44.046" x2="143.372" y2="51.738"/><line x1="128.357" y1="43.17" x2="143.977" y2="50.436"/><line x1="135.332" y1="44.831" x2="143.564" y2="48.66"/><line x1="117.977" y1="56.925" x2="124.948" y2="41.939"/><line x1="116.424" y1="57.416" x2="124.172" y2="40.759"/><line x1="115.336" y1="56.91" x2="123.04" y2="40.346"/><line x1="114.247" y1="56.404" x2="121.908" y2="39.933"/><line x1="113.159" y1="55.897" x2="120.777" y2="39.52"/><line x1="112.07" y1="55.391" x2="119.645" y2="39.107"/><line x1="110.982" y1="54.885" x2="118.513" y2="38.694"/><line x1="109.893" y1="54.378" x2="117.381" y2="38.281"/><line x1="108.805" y1="53.872" x2="116.118" y2="38.148"/><line x1="107.716" y1="53.366" x2="114.395" y2="39.006"/><line x1="106.628" y1="52.859" x2="110.942" y2="43.583"/><line x1="105.877" y1="51.625" x2="107.472" y2="48.198"/><line x1="120.256" y1="81.63" x2="121.487" y2="79.994"/><line x1="118.306" y1="81.636" x2="121.936" y2="76.81"/><line x1="117.064" y1="80.701" x2="122.386" y2="73.627"/><line x1="115.822" y1="79.767" x2="122.835" y2="70.444"/><line x1="114.58" y1="78.832" x2="123.284" y2="67.26"/><line x1="113.337" y1="77.898" x2="123.299" y2="64.655"/><line x1="112.095" y1="76.963" x2="122.449" y2="63.199"/><line x1="110.853" y1="76.029" x2="121.44" y2="61.955"/><line x1="109.61" y1="75.095" x2="119.999" y2="61.285"/><line x1="108.368" y1="74.16" x2="118.558" y2="60.614"/><line x1="107.126" y1="73.226" x2="117.117" y2="59.944"/><line x1="105.884" y1="72.291" x2="115.676" y2="59.274"/><line x1="104.641" y1="71.357" x2="114.235" y2="58.604"/><line x1="103.399" y1="70.422" x2="112.794" y2="57.933"/><line x1="102.157" y1="69.488" x2="111.353" y2="57.263"/><line x1="100.915" y1="68.553" x2="109.912" y2="56.593"/><line x1="99.672" y1="67.619" x2="108.471" y2="55.922"/><line x1="98.43" y1="66.684" x2="107.03" y2="55.252"/><line x1="97.41" y1="65.455" x2="105.589" y2="54.582"/><line x1="96.56" y1="63.999" x2="103.623" y2="54.609"/><line x1="126.989" y1="64.536" x2="125.122" y2="68.55"/><line x1="128.308" y1="65.15" x2="124.423" y2="73.502"/><line x1="129.627" y1="65.763" x2="123.724" y2="78.455"/><line x1="130.946" y1="66.377" x2="123.106" y2="83.233"/><line x1="132.266" y1="66.99" x2="123.601" y2="85.618"/><line x1="133.585" y1="67.604" x2="124.79" y2="86.513"/><line x1="134.61" y1="68.849" x2="125.978" y2="87.407"/><g fill="#888888" stroke="#000000" stroke-width="0.398"><polygon points="143.259,51.979 142.758,53.057 142.04,54.6 141.378,54.292 140.01,53.656 140.728,52.113 141.229,51.035 142.067,49.234 143.434,49.87 142.597,51.671"/><polygon points="134.664,70.457 134.147,71.57 133.564,72.822 132.724,74.629 131.41,74.018 130.608,73.645 131.449,71.838 132.25,72.211 132.833,70.959 133.35,69.846"/></g></g><g stroke="#888888" stroke-width="0.398" stroke-linecap="butt"><line x1="182.067" y1="24.763" x2="180.219" y2="25.294"/><line x1="182.892" y1="26.303" x2="179.691" y2="27.222"/><line x1="183.363" y1="27.945" x2="179.163" y2="29.151"/><line x1="183.834" y1="29.586" x2="178.634" y2="31.08"/><line x1="184.306" y1="31.228" x2="178.106" y2="33.008"/><line x1="184.777" y1="32.87" x2="177.578" y2="34.937"/><line x1="185.249" y1="34.511" x2="177.05" y2="36.866"/><line x1="185.72" y1="36.153" x2="176.522" y2="38.795"/><line x1="186.192" y1="37.795" x2="175.994" y2="40.723"/><line x1="186.663" y1="39.436" x2="175.466" y2="42.652"/><line x1="187.135" y1="41.078" x2="174.938" y2="44.581"/><line x1="187.606" y1="42.72" x2="174.41" y2="46.51"/><line x1="188.078" y1="44.361" x2="173.882" y2="48.438"/><line x1="188.549" y1="46.003" x2="173.354" y2="50.367"/><line x1="189.021" y1="47.644" x2="173.707" y2="52.043"/><line x1="189.492" y1="49.286" x2="174.179" y2="53.684"/><line x1="189.964" y1="50.928" x2="176.129" y2="54.901"/><line x1="190.435" y1="52.569" x2="179.297" y2="55.768"/><line x1="190.907" y1="54.211" x2="182.465" y2="56.636"/><line x1="191.176" y1="55.911" x2="185.632" y2="57.503"/><line x1="190.648" y1="57.84" x2="188.8" y2="58.37"/><line x1="174.463" y1="36.072" x2="179.946" y2="16.046"/><line x1="172.793" y1="36.827" x2="179.197" y2="13.438"/><line x1="171.37" y1="36.683" x2="178.179" y2="11.813"/><line x1="170.022" y1="36.263" x2="176.786" y2="11.559"/><line x1="168.674" y1="35.843" x2="175.431" y2="11.165"/><line x1="167.326" y1="35.423" x2="174.079" y2="10.759"/><line x1="165.978" y1="35.003" x2="172.73" y2="10.343"/><line x1="164.63" y1="34.583" x2="171.381" y2="9.926"/><line x1="163.282" y1="34.163" x2="170.033" y2="9.509"/><line x1="161.935" y1="33.744" x2="168.684" y2="9.093"/><line x1="160.587" y1="33.324" x2="167.335" y2="8.676"/><line x1="159.239" y1="32.904" x2="165.986" y2="8.259"/><line x1="157.891" y1="32.484" x2="164.638" y2="7.843"/><line x1="156.543" y1="32.064" x2="163.289" y2="7.426"/><line x1="155.195" y1="31.644" x2="161.94" y2="7.009"/><line x1="153.847" y1="31.224" x2="160.591" y2="6.593"/><line x1="152.83" y1="29.598" x2="159.243" y2="6.176"/><line x1="152.553" y1="25.268" x2="157.467" y2="7.319"/><line x1="170.155" y1="52.17" x2="173.348" y2="40.509"/><line x1="168.79" y1="52.549" x2="172.373" y2="39.464"/><line x1="167.529" y1="52.546" x2="171.304" y2="38.757"/><line x1="166.355" y1="52.225" x2="170.142" y2="38.395"/><line x1="165.181" y1="51.903" x2="168.979" y2="38.033"/><line x1="164.008" y1="51.582" x2="167.817" y2="37.671"/><line x1="162.834" y1="51.261" x2="166.654" y2="37.309"/><line x1="161.66" y1="50.939" x2="165.491" y2="36.946"/><line x1="160.486" y1="50.618" x2="164.329" y2="36.584"/><line x1="159.313" y1="50.297" x2="163.166" y2="36.222"/><line x1="158.139" y1="49.975" x2="162.004" y2="35.86"/><line x1="156.965" y1="49.654" x2="160.841" y2="35.498"/><line x1="155.791" y1="49.332" x2="159.678" y2="35.135"/><line x1="154.618" y1="49.011" x2="158.516" y2="34.773"/><line x1="153.444" y1="48.69" x2="157.353" y2="34.411"/><line x1="152.27" y1="48.368" x2="156.191" y2="34.049"/><line x1="151.096" y1="48.047" x2="155.028" y2="33.687"/><line x1="149.923" y1="47.726" x2="153.865" y2="33.325"/><line x1="148.927" y1="46.754" x2="152.611" y2="33.3"/><line x1="147.951" y1="45.709" x2="151.245" y2="33.678"/><line x1="182.616" y1="15.197" x2="193.709" y2="53.821"/><line x1="183.595" y1="12.804" x2="195.168" y2="53.099"/><line x1="185.354" y1="13.126" x2="195.848" y2="49.663"/><line x1="187.113" y1="13.447" x2="196.528" y2="46.226"/><line x1="188.872" y1="13.769" x2="197.207" y2="42.79"/><line x1="190.631" y1="14.091" x2="197.887" y2="39.353"/><line x1="192.391" y1="14.412" x2="198.567" y2="35.917"/><line x1="194.15" y1="14.734" x2="199.246" y2="32.481"/><line x1="195.909" y1="15.056" x2="199.926" y2="29.044"/><line x1="197.668" y1="15.377" x2="200.606" y2="25.608"/><line x1="199.427" y1="15.699" x2="201.285" y2="22.171"/><g fill="#888888" stroke="#000000" stroke-width="0.398"><polygon points="192.281,51.752 191.953,50.609 191.483,48.973 192.186,48.772 193.635,48.355 194.105,49.991 194.433,51.134 194.981,53.043 193.532,53.459 192.984,51.55"/></g></g><g stroke="#888888" stroke-width="0.398" stroke-linecap="butt"><line x1="201.939" y1="-33.578" x2="202.447" y2="-23.064"/><line x1="203.424" y1="-34.334" x2="203.998" y2="-22.455"/><line x1="204.933" y1="-34.612" x2="205.526" y2="-22.324"/><line x1="206.451" y1="-34.686" x2="207.045" y2="-22.397"/><line x1="207.969" y1="-34.759" x2="208.563" y2="-22.47"/><line x1="209.487" y1="-34.832" x2="210.081" y2="-22.544"/><line x1="211.005" y1="-34.906" x2="211.599" y2="-22.617"/><line x1="212.523" y1="-34.979" x2="213.117" y2="-22.69"/><line x1="214.042" y1="-35.053" x2="214.636" y2="-22.764"/><line x1="215.56" y1="-35.126" x2="216.154" y2="-22.837"/><line x1="217.078" y1="-35.199" x2="217.672" y2="-22.911"/><line x1="218.596" y1="-35.273" x2="219.19" y2="-22.984"/><line x1="220.114" y1="-35.346" x2="220.708" y2="-23.057"/><line x1="221.632" y1="-35.419" x2="222.226" y2="-23.131"/><line x1="223.151" y1="-35.493" x2="223.745" y2="-23.204"/><line x1="224.669" y1="-35.566" x2="225.263" y2="-23.277"/><line x1="226.197" y1="-35.435" x2="226.771" y2="-23.556"/><line x1="227.748" y1="-34.825" x2="228.256" y2="-24.312"/><line x1="227.741" y1="-50.72" x2="222.743" y2="-50.479"/><line x1="227.824" y1="-48.991" x2="218.296" y2="-48.53"/><line x1="227.908" y1="-47.261" x2="213.849" y2="-46.581"/><line x1="227.991" y1="-45.531" x2="209.402" y2="-44.633"/><line x1="228.075" y1="-43.801" x2="204.955" y2="-42.684"/><line x1="228.159" y1="-42.072" x2="201.421" y2="-40.779"/><line x1="228.242" y1="-40.342" x2="200.915" y2="-39.021"/><line x1="227.181" y1="-38.557" x2="200.999" y2="-37.291"/><line x1="198.266" y1="-38.777" x2="195.762" y2="-38.656"/><line x1="198.988" y1="-37.467" x2="192.314" y2="-37.145"/><line x1="199.053" y1="-36.126" x2="188.866" y2="-35.634"/><line x1="199.118" y1="-34.785" x2="186.102" y2="-34.156"/><line x1="199.182" y1="-33.444" x2="184.924" y2="-32.754"/><line x1="199.247" y1="-32.102" x2="184.675" y2="-31.398"/><line x1="199.312" y1="-30.761" x2="184.463" y2="-30.044"/><line x1="199.377" y1="-29.42" x2="184.25" y2="-28.689"/><line x1="199.442" y1="-28.079" x2="184.038" y2="-27.334"/><line x1="199.506" y1="-26.738" x2="183.826" y2="-25.98"/><line x1="199.571" y1="-25.397" x2="183.614" y2="-24.625"/><line x1="199.636" y1="-24.055" x2="183.402" y2="-23.271"/><line x1="198.657" y1="-22.664" x2="183.969" y2="-21.954"/><line x1="191.434" y1="-17.989" x2="192.276" y2="-0.561"/><line x1="192.547" y1="-19.458" x2="193.673" y2="3.826"/><line x1="193.717" y1="-19.75" x2="194.88" y2="4.295"/><line x1="194.899" y1="-19.808" x2="196.074" y2="4.514"/><line x1="196.08" y1="-19.865" x2="197.269" y2="4.732"/><line x1="197.262" y1="-19.922" x2="198.464" y2="4.951"/><line x1="198.444" y1="-19.979" x2="199.659" y2="5.169"/><line x1="199.625" y1="-20.036" x2="200.854" y2="5.388"/><line x1="200.807" y1="-20.093" x2="202.049" y2="5.606"/><line x1="201.988" y1="-20.15" x2="203.243" y2="5.818"/><line x1="203.17" y1="-20.207" x2="204.432" y2="5.902"/><line x1="204.352" y1="-20.264" x2="205.609" y2="5.752"/><line x1="205.533" y1="-20.322" x2="206.781" y2="5.495"/><line x1="206.715" y1="-20.379" x2="207.953" y2="5.238"/><line x1="207.896" y1="-20.436" x2="209.023" y2="2.867"/><line x1="209.078" y1="-20.493" x2="209.817" y2="-5.204"/><line x1="210.34" y1="-18.89" x2="210.588" y2="-13.757"/><line x1="188.275" y1="-18.941" x2="183.032" y2="-18.501"/><line x1="188.759" y1="-17.539" x2="182.421" y2="-17.008"/><line x1="188.966" y1="-16.114" x2="182.192" y2="-15.546"/><line x1="189.086" y1="-14.682" x2="181.963" y2="-14.085"/><line x1="189.206" y1="-13.25" x2="181.734" y2="-12.623"/><line x1="189.326" y1="-11.817" x2="181.505" y2="-11.162"/><line x1="189.446" y1="-10.385" x2="181.276" y2="-9.701"/><line x1="189.566" y1="-8.953" x2="181.047" y2="-8.239"/><line x1="189.686" y1="-7.521" x2="180.818" y2="-6.778"/><line x1="189.806" y1="-6.089" x2="180.589" y2="-5.316"/><line x1="189.926" y1="-4.656" x2="180.36" y2="-3.855"/><line x1="190.046" y1="-3.224" x2="180.131" y2="-2.393"/><line x1="190.166" y1="-1.792" x2="179.902" y2="-0.932"/><line x1="190.286" y1="-0.36" x2="180.216" y2="0.484"/><line x1="190.406" y1="1.072" x2="181.389" y2="1.828"/><line x1="189.828" y1="2.563" x2="186.798" y2="2.817"/><line x1="229.358" y1="-0.767" x2="228.413" y2="-20.332"/><line x1="227.844" y1="0.868" x2="226.77" y2="-21.348"/><line x1="226.267" y1="1.214" x2="225.181" y2="-21.271"/><line x1="224.691" y1="1.561" x2="223.591" y2="-21.194"/><line x1="223.114" y1="1.907" x2="222.001" y2="-21.118"/><line x1="221.537" y1="2.253" x2="220.412" y2="-21.041"/><line x1="219.961" y1="2.6" x2="218.822" y2="-20.964"/><line x1="218.384" y1="2.946" x2="217.232" y2="-20.887"/><line x1="216.807" y1="3.292" x2="215.642" y2="-20.81"/><line x1="215.231" y1="3.639" x2="214.1" y2="-19.749"/><line x1="213.654" y1="3.985" x2="212.727" y2="-15.207"/><line x1="212.018" y1="3.103" x2="211.689" y2="-3.7"/><g fill="#888888" stroke="#000000" stroke-width="0.398"/></g></g></svg>