<?xml version="1.0" standalone="no"?>
<!DOCTYPE svg PUBLIC "-//W3C//DTD SVG 20010904//EN"
 "http://www.w3.org/TR/2001/REC-SVG-20010904/DTD/svg10.dtd">
<svg version="1.0" xmlns="http://www.w3.org/2000/svg"
 width="1000.000000pt" height="1000.000000pt" viewBox="0 0 1000.000000 1000.000000"
 preserveAspectRatio="xMidYMid meet">
<metadata>
Created by potrace 1.11, written by Peter Selinger 2001-2013
</metadata>
<g transform="translate(0.000000,1000.000000) scale(0.100000,-0.100000)"
fill="#000000" stroke="none">
<path d="M4935 9113 c-34 -34 -35 -43 -38 -223 l-2 -155 -50 -1 c-62 -2 -210
-13 -250 -18 -16 -3 -52 -7 -80 -11 -27 -3 -59 -8 -70 -9 -18 -2 -113 -18
-125 -21 -3 -1 -25 -5 -50 -9 -25 -5 -90 -19 -145 -33 -55 -14 -107 -26 -115
-28 -21 -4 -209 -64 -245 -78 -16 -6 -35 -12 -41 -13 -6 -1 -27 -9 -47 -19
-19 -9 -41 -18 -49 -19 -14 -2 -49 -17 -158 -68 -35 -17 -69 -31 -75 -32 -5
-1 -16 -6 -24 -10 -8 -5 -42 -23 -75 -40 -60 -31 -86 -38 -86 -23 1 4 -6 15
-15 23 -8 9 -13 20 -10 25 4 5 1 9 -4 9 -6 0 -11 7 -11 15 0 8 -5 15 -11 15
-5 0 -8 4 -5 9 3 5 -1 12 -10 15 -9 4 -14 13 -10 21 3 8 1 15 -5 15 -5 0 -17
16 -25 35 -8 19 -19 35 -24 35 -6 0 -9 3 -9 8 3 19 -2 33 -11 27 -5 -3 -10 1
-10 10 0 9 -12 18 -30 22 -17 3 -33 9 -36 14 -12 21 -104 -45 -96 -69 2 -7 -1
-12 -8 -12 -6 0 -8 -5 -3 -12 4 -7 9 -23 11 -36 1 -12 11 -38 21 -56 11 -18
25 -44 33 -57 7 -13 21 -35 30 -48 10 -13 16 -27 13 -31 -3 -4 2 -11 11 -14 9
-4 14 -13 10 -22 -3 -8 -2 -13 3 -10 4 3 14 -7 20 -21 11 -24 10 -29 -11 -44
-13 -10 -34 -24 -48 -31 -14 -7 -27 -16 -30 -19 -5 -6 -148 -105 -179 -124 -9
-5 -18 -13 -21 -16 -3 -3 -43 -37 -90 -74 -221 -178 -478 -445 -645 -670 -16
-22 -33 -41 -37 -43 -4 -2 -8 -10 -8 -17 0 -7 -4 -15 -8 -17 -4 -1 -36 -46
-71 -99 -61 -94 -77 -107 -103 -81 -7 7 -18 12 -25 12 -7 0 -13 5 -13 10 0 6
-9 10 -20 10 -10 0 -24 8 -29 18 -6 9 -11 13 -11 9 0 -5 -12 1 -26 12 -15 11
-30 18 -35 15 -5 -3 -9 0 -9 5 0 12 -65 44 -90 45 -8 0 -18 5 -22 11 -5 7 -8
7 -8 0 0 -6 -9 -11 -20 -12 -19 -2 -60 -33 -43 -33 4 0 1 -5 -7 -10 -8 -5 -15
-20 -15 -32 -1 -13 -5 -29 -9 -37 -6 -10 -5 -12 2 -7 8 5 12 -1 12 -14 0 -12
5 -18 10 -15 6 3 10 0 10 -7 0 -7 12 -22 27 -32 14 -11 23 -14 19 -7 -6 10 -4
10 12 0 12 -7 18 -17 16 -21 -3 -4 4 -8 15 -8 12 0 21 -4 21 -8 0 -4 16 -14
35 -21 19 -7 33 -17 29 -22 -3 -5 -2 -9 3 -8 14 3 73 -23 73 -32 0 -5 7 -9 15
-9 8 0 15 -3 15 -6 0 -4 -24 -56 -54 -118 -157 -323 -243 -571 -320 -923 -2
-10 -7 -38 -11 -63 -4 -25 -9 -54 -11 -65 -4 -20 -6 -35 -18 -125 -14 -99 -16
-118 -21 -201 -4 -48 -8 -106 -10 -130 -1 -24 -3 -47 -4 -51 0 -4 -70 -8 -153
-8 -196 0 -199 -1 -231 -51 -33 -51 0 -133 59 -145 16 -3 96 -6 179 -7 l150
-2 1 -40 c4 -72 14 -219 19 -260 4 -36 8 -67 20 -155 2 -14 6 -38 9 -55 3 -16
8 -48 11 -70 4 -22 8 -48 11 -57 3 -9 7 -25 9 -36 27 -142 97 -376 166 -560
45 -119 60 -153 141 -320 33 -68 58 -125 56 -127 -1 -1 -30 -17 -63 -35 -33
-17 -65 -37 -70 -43 -10 -12 -29 -19 -52 -20 -7 0 -10 -3 -8 -7 2 -3 -16 -17
-40 -30 -48 -26 -89 -88 -74 -111 5 -8 9 -24 9 -37 0 -13 4 -20 10 -17 5 3 10
2 10 -4 0 -5 10 -13 23 -17 12 -4 25 -12 29 -18 5 -8 8 -8 8 0 0 6 10 10 22 9
25 -2 98 34 98 47 0 5 4 7 10 3 5 -3 18 3 30 15 11 11 20 17 20 13 0 -4 5 -2
12 5 7 7 20 12 31 12 10 0 15 4 12 10 -3 5 0 10 7 10 8 0 29 11 47 24 l33 25
70 -107 c68 -102 214 -299 247 -333 9 -9 34 -38 56 -65 53 -65 295 -307 365
-364 30 -25 62 -53 72 -63 25 -24 250 -191 287 -213 17 -10 31 -22 31 -26 0
-4 5 -8 10 -8 6 0 28 -12 50 -26 41 -28 51 -50 25 -60 -8 -4 -13 -10 -10 -14
3 -5 -1 -15 -9 -22 -7 -8 -17 -24 -20 -36 -4 -12 -12 -22 -17 -22 -5 0 -9 -6
-9 -14 0 -8 -7 -21 -15 -30 -9 -8 -16 -18 -15 -21 1 -17 -2 -23 -20 -43 -12
-12 -18 -22 -14 -22 3 0 1 -7 -6 -15 -7 -8 -9 -15 -5 -15 4 0 2 -7 -5 -15 -7
-8 -8 -15 -3 -15 5 0 10 -12 11 -26 1 -15 12 -35 24 -45 19 -18 27 -20 44 -18
4 0 11 -5 15 -13 6 -9 9 -9 9 -1 0 6 9 10 20 8 11 -2 20 0 20 6 0 5 5 9 10 9
12 0 51 37 49 46 -1 3 3 13 10 23 16 22 38 61 51 91 6 13 14 27 18 30 4 3 18
25 31 50 13 25 25 47 27 49 5 5 64 -23 64 -31 0 -5 5 -8 11 -8 6 0 43 -15 82
-34 105 -50 209 -95 262 -115 17 -6 44 -16 60 -22 17 -7 32 -13 35 -14 3 -1
12 -4 20 -8 20 -8 241 -78 260 -82 8 -2 74 -17 145 -34 72 -17 146 -33 165
-36 19 -3 49 -8 65 -11 37 -7 54 -9 130 -19 33 -3 71 -9 85 -11 31 -5 176 -16
247 -17 l52 -2 0 -161 c1 -89 4 -170 8 -179 25 -66 107 -84 162 -36 29 25 31
40 32 212 1 81 4 151 8 156 3 5 20 9 36 9 50 1 228 13 255 18 14 2 50 7 80 11
107 13 125 16 150 21 14 3 34 6 45 8 224 38 636 161 750 224 17 9 31 15 32 14
5 -2 76 29 202 90 68 32 124 58 125 56 16 -22 61 -105 61 -111 0 -4 6 -12 14
-16 7 -5 11 -13 7 -19 -3 -5 1 -12 9 -16 8 -3 15 -10 15 -15 0 -18 58 -103 81
-119 18 -12 21 -12 14 -1 -8 12 -6 12 8 1 9 -8 21 -11 27 -7 5 3 10 0 10 -7 0
-10 3 -9 10 2 5 8 12 12 15 8 8 -8 45 28 45 43 0 5 5 7 12 3 6 -4 8 -3 4 4 -3
6 -2 13 4 17 6 4 8 11 5 16 -4 5 -8 18 -10 29 -2 11 -10 32 -19 47 -8 16 -22
44 -32 63 -10 19 -20 37 -23 40 -4 3 -13 19 -21 35 -8 17 -18 32 -22 35 -4 3
-14 22 -23 43 -15 36 -15 37 12 53 66 40 168 110 171 117 2 4 10 7 17 7 7 0
15 4 17 8 2 4 21 21 43 37 177 131 447 382 590 549 28 32 58 68 69 80 62 70
286 389 286 407 0 5 13 1 29 -9 16 -9 27 -21 24 -26 -4 -5 -1 -6 7 -1 7 4 15
3 19 -2 3 -5 22 -17 41 -26 19 -10 58 -31 85 -48 69 -41 89 -48 122 -45 15 2
34 4 41 5 7 0 10 5 7 11 -3 5 1 10 9 10 8 0 18 5 22 12 5 7 2 9 -7 4 -9 -5 -8
-3 2 6 20 17 30 46 19 53 -6 4 -10 15 -10 25 0 23 -36 58 -87 85 -21 11 -40
22 -43 25 -3 3 -18 12 -35 20 -16 8 -32 17 -35 20 -3 3 -25 16 -50 29 -25 13
-47 26 -49 27 -5 4 51 117 62 125 5 3 8 9 8 13 -1 3 9 30 22 59 22 47 55 122
77 172 8 19 25 65 69 185 17 48 32 94 36 110 1 3 10 32 20 65 10 33 20 65 21
70 1 6 9 37 18 70 9 33 18 69 20 80 2 11 10 54 19 95 9 41 18 93 22 115 3 23
7 51 10 64 2 13 7 49 11 80 4 31 8 70 10 86 4 30 13 152 19 235 1 25 3 48 4
51 0 4 67 7 149 8 149 1 160 1 200 15 40 14 62 78 42 126 -21 51 -58 61 -235
63 l-159 2 -2 52 c-2 55 -12 187 -18 238 -2 17 -6 55 -10 85 -3 30 -8 65 -10
76 -3 12 -7 37 -10 55 -3 19 -11 61 -17 94 -6 33 -12 69 -14 80 -17 106 -140
504 -185 602 -11 24 -20 45 -20 48 0 7 -34 81 -102 224 -33 68 -58 124 -56
125 2 1 27 16 56 34 29 18 60 32 68 32 8 0 17 7 21 16 3 8 11 13 18 10 8 -3
16 2 19 10 3 8 12 14 20 14 9 0 32 17 53 37 20 21 33 31 29 23 -7 -12 -6 -13
4 -3 8 7 14 34 14 60 0 55 -25 93 -61 93 -12 0 -25 5 -28 10 -4 7 -13 7 -26 0
-10 -6 -19 -7 -19 -3 0 4 -4 3 -8 -3 -4 -6 -27 -22 -52 -34 -25 -12 -47 -26
-50 -29 -6 -8 -63 -34 -69 -31 -2 1 -7 -2 -10 -8 -3 -5 -24 -20 -45 -33 l-39
-25 -88 130 c-80 119 -178 250 -262 349 -39 46 -344 357 -350 357 -2 0 -22 16
-43 35 -79 72 -233 189 -360 275 -73 48 -128 92 -124 97 11 11 48 73 60 101 5
12 14 22 19 22 6 0 8 7 5 15 -4 8 -2 15 2 15 5 0 15 14 22 30 8 17 17 28 22
25 5 -3 7 3 6 12 -2 10 3 24 11 31 7 8 11 18 8 23 -3 5 -1 17 4 28 8 14 7 22
-4 31 -8 7 -15 19 -15 26 0 14 -60 51 -60 37 0 -5 -5 -1 -10 7 -6 9 -10 10
-10 3 0 -6 -9 -10 -20 -8 -11 2 -20 0 -20 -6 0 -5 -6 -9 -12 -9 -13 0 -53 -53
-75 -99 -7 -14 -21 -39 -32 -56 -10 -16 -16 -33 -14 -37 2 -5 -4 -8 -13 -8
-10 0 -14 -3 -11 -6 4 -4 -3 -20 -14 -35 -11 -16 -17 -29 -12 -29 4 0 1 -5 -8
-10 -12 -7 -45 4 -125 44 -103 51 -165 80 -244 113 -19 8 -50 21 -68 29 -18 8
-37 14 -43 14 -6 0 -25 7 -42 14 -90 42 -466 144 -592 162 -23 3 -89 14 -114
19 -16 3 -101 14 -165 21 -17 2 -67 6 -111 9 -135 10 -170 13 -177 14 -3 1 -8
80 -10 175 -3 170 -4 176 -27 197 -37 34 -102 35 -136 2z m-307 -3634 c-3 -8
-7 -3 -11 10 -4 17 -3 21 5 13 5 -5 8 -16 6 -23z m748 3 c-18 -16 -18 -16 -6
6 6 13 14 21 18 18 3 -4 -2 -14 -12 -24z m-753 -977 c-3 -9 -8 -14 -10 -11 -3
3 -2 9 2 15 9 16 15 13 8 -4z m767 -5 c0 -5 -2 -10 -4 -10 -3 0 -8 5 -11 10
-3 6 -1 10 4 10 6 0 11 -4 11 -10z"/>
</g>
</svg>
