<svg xmlns="http://www.w3.org/2000/svg" width="200" height="200">
	<defs>
		<radialGradient id="beach" fx="0.5" fy="0.5" r="1" >
			<stop stop-opacity="1" offset="0%" style="stop-color:#41980a" />
			<stop stop-opacity="1" offset="40%" style="stop-color:#41980a" />
			<stop stop-opacity="0.9" offset="48%" style="stop-color:#EED6AF"/>
		</radialGradient>
	</defs>
    <g id="map" stroke="#2A0D25" stroke-width="0.5">
		<circle cx="100" cy="100" r="100" fill="url(#beach)" />

		<g id="monument">
			<circle cx="100" cy="100" r="20" fill="#9b9b9b" />
			<circle cx="100" cy="100" r="17" fill="#7b9b9b" />
			<g id="tick-marks" opacity="0.5">
				<line x1="83" y1="100" x2="117" y2="100" />
				<line x1="100" y1="83" x2="100" y2="117" />
				<line x1="85.28" y1="108.5" x2="114.72" y2="91.5" />
				<line x1="85.28" y1="91.5" x2="114.72" y2="108.5" />
				<line x1="108.5" y1="85.28" x2="91.5" y2="114.72" />
				<line x1="91.5" y1="85.28" x2="108.5" y2="114.72" />
			</g>
			<circle cx="100" cy="100" r="15" fill="#9b9b9b" />
			<circle cx="100" cy="100" r="12" fill="#5b9b9b" />
			<circle cx="100" cy="100" r="10" fill="#9b9b9b" />
			<polygon id="diamond" points="100, 95, 103.54, 96.46, 105, 100, 103.54, 103.54, 100, 105, 96.46, 103.54, 95, 100, 96.46, 96.46" fill="#7af"/>
			<g id="tick-marks" opacity="0.5" stroke-width="0.25">
				<line x1="95" y1="100" x2="105" y2="100" />
				<line x1="100" y1="95" x2="100" y2="105" />
				<line x1="96.46" y1="103.54" x2="103.54" y2="96.46" />
				<line x1="96.46" y1="96.46" x2="103.54" y2="103.54" />
			</g>
		</g>
		<g id="roads" fill="none">
			<circle cx="100" cy="100" r="40" fill="none" stroke-width="0.7" />
			<circle cx="100" cy="100" r="40" fill="none" stroke="#9b9b9b" stroke-width="0.5" />
			<circle cx="43" cy="100" r="22" fill="none" stroke-width="0.7" />
			<circle cx="43" cy="100" r="22" fill="none" stroke="#9b9b9b" stroke-width="0.5" />
			<circle cx="157" cy="100" r="22" fill="none" stroke-width="0.7" />
			<circle cx="157" cy="100" r="22" fill="none" stroke="#9b9b9b" stroke-width="0.5" />
			<circle cx="100" cy="157" r="22" fill="none" stroke-width="0.7" />
			<circle cx="100" cy="157" r="22" fill="none" stroke="#9b9b9b" stroke-width="0.5" />
			<circle cx="100" cy="43" r="22" fill="none" stroke-width="0.7" />
			<circle cx="100" cy="43" r="22" fill="none" stroke="#9b9b9b" stroke-width="0.5" />
			<circle cx="59.7" cy="59.7" r="22" fill="none" stroke-width="0.7" />
			<circle cx="59.7" cy="59.7" r="22" fill="none" stroke="#9b9b9b" stroke-width="0.5" />
			<circle cx="140.3" cy="59.7" r="22" fill="none" stroke-width="0.7" />
			<circle cx="140.3" cy="59.7" r="22" fill="none" stroke="#9b9b9b" stroke-width="0.5" />
			<circle cx="140.3" cy="140.3" r="22" fill="none" stroke-width="0.7" />
			<circle cx="140.3" cy="140.3" r="22" fill="none" stroke="#9b9b9b" stroke-width="0.5" />
			<circle cx="59.7" cy="140.3" r="22" fill="none" stroke-width="0.7" />
			<circle cx="59.7" cy="140.3" r="22" fill="none" stroke="#9b9b9b" stroke-width="0.5" />
			<circle cx="59.7" cy="59.7" r="22" fill="none" stroke-width="0.7" />
			<circle cx="59.7" cy="59.7" r="22" fill="none" stroke="#9b9b9b" stroke-width="0.5" />
		</g>
		<g id="trees" fill="#007f5c">
			<circle cx="43" cy="100" r="14" />
			<circle cx="157" cy="100" r="14" />
			<circle cx="100" cy="43" r="14" />
			<circle cx="100" cy="157" r="14" />
		</g>
		<g id="houses">
			<polygon points="128.3, 56.7,
					143.3, 70.7,
					154.3, 59.7,
					140.3, 45.7" fill="#dba"/>
			<polygon points="128.3, 143.3,
					143.3, 129.3,
					154.3, 140.3,
					140.3, 154.3" fill="#dba"/>
			<polygon points="45.7, 140.3,
			59.7, 154.3,
			70.7, 143.3,
			67.7, 140.3,
			69.7, 138.3,
			61.7, 130.3,
			59.7, 132.3,
			56.7, 129.3,
			" fill="#dba"/>
			<polygon points="45.7, 59.7, 59.7, 45.7, 70.7, 56.7, 56.7, 70.7" fill="#dba"/>
		</g>
    </g>
</svg>
