<?xml version="1.0" encoding="UTF-8" standalone="no"?>
<!DOCTYPE svg PUBLIC "-//W3C//DTD SVG 20010904//EN"
              "http://www.w3.org/TR/2001/REC-SVG-20010904/DTD/svg10.dtd">

<svg xmlns="http://www.w3.org/2000/svg"
     width="1.66667in" height="1.66667in"
     viewBox="0 0 150 150">
  <path id="path322"
        fill="none" stroke="black" stroke-width="1"
        d="M 39.61,59.05
           C 39.61,59.05 27.17,55.39 27.17,55.39
             24.48,54.61 16.97,50.10 3.71,49.63
             -7.94,49.22 -20.59,54.34 -34.31,53.21
             -47.07,52.16 -59.18,49.23 -68.65,43.69
             -76.55,39.06 -80.73,28.87 -88.04,21.75
             -96.25,13.73 -107.72,6.39 -118.35,-4.81
             -130.57,-17.68 -130.57,-17.68 -152.38,-46.04" />
  <path id="path318"
        fill="none" stroke="black" stroke-width="1"
        d="M 278.43,176.17
           C 256.10,190.26 256.10,190.26 244.95,197.29
             237.45,202.02 229.64,199.01 225.21,199.50
             217.75,200.34 211.28,190.86 202.80,185.59
             195.47,181.04 187.13,178.85 179.51,175.58
             172.65,172.62 168.61,166.27 164.06,162.38
             157.83,157.06 150.21,149.97 140.86,141.60
             131.52,133.23 126.55,123.77 122.32,117.28
             122.32,117.28 111.81,101.16 111.81,101.16
             111.81,101.16 106.29,88.65 106.29,88.65
             106.29,88.65 97.69,84.00 97.69,84.00
             97.69,84.00 64.94,85.56 64.94,85.56
             64.94,85.56 61.60,107.93 61.60,107.93
             61.60,107.93 62.70,120.08 62.70,120.08
             62.91,122.39 61.35,126.44 61.94,132.13
             62.47,137.38 65.32,143.11 65.76,150.01
             66.21,157.14 67.22,164.89 64.43,171.42
             62.13,176.79 55.75,180.47 50.37,186.04
             43.28,193.38 35.97,201.00 28.38,208.76
             22.75,214.51 15.95,218.99 11.78,225.48
             6.72,233.36 4.21,243.49 -0.23,253.27
             -4.71,263.14 -11.39,271.45 -13.29,280.72
             -14.93,288.72 -14.93,288.72 -10.87,305.14" />
</svg>
