<?xml version="1.0" encoding="UTF-8" standalone="no"?>
<!-- Created with Inkscape (http://www.inkscape.org/) -->

<svg
   xmlns:dc="http://purl.org/dc/elements/1.1/"
   xmlns:cc="http://creativecommons.org/ns#"
   xmlns:rdf="http://www.w3.org/1999/02/22-rdf-syntax-ns#"
   xmlns:svg="http://www.w3.org/2000/svg"
   xmlns="http://www.w3.org/2000/svg"
   xmlns:xlink="http://www.w3.org/1999/xlink"
   xmlns:sodipodi="http://sodipodi.sourceforge.net/DTD/sodipodi-0.dtd"
   xmlns:inkscape="http://www.inkscape.org/namespaces/inkscape"
   width="210mm"
   height="297mm"
   viewBox="0 0 210 297"
   version="1.1"
   id="svg8"
   inkscape:version="0.92.4 (5da689c313, 2019-01-14)"
   sodipodi:docname="Lagos.svg">
  <defs
     id="defs2" />
  <sodipodi:namedview
     id="base"
     pagecolor="#ffffff"
     bordercolor="#666666"
     borderopacity="1.0"
     inkscape:pageopacity="0.0"
     inkscape:pageshadow="2"
     inkscape:zoom="0.7"
     inkscape:cx="417.53788"
     inkscape:cy="581.76167"
     inkscape:document-units="mm"
     inkscape:current-layer="layer1"
     showgrid="false"
     inkscape:window-width="1920"
     inkscape:window-height="1017"
     inkscape:window-x="-8"
     inkscape:window-y="-8"
     inkscape:window-maximized="1" />
  <metadata
     id="metadata5">
    <rdf:RDF>
      <cc:Work
         rdf:about="">
        <dc:format>image/svg+xml</dc:format>
        <dc:type
           rdf:resource="http://purl.org/dc/dcmitype/StillImage" />
        <dc:title></dc:title>
      </cc:Work>
    </rdf:RDF>
  </metadata>
  <g
     inkscape:label="Reference"
     inkscape:groupmode="layer"
     id="layer1"
     style="display:inline;opacity:0.824">
    <image
       sodipodi:absref="C:\Information\Misc, Other\Let's Do A Science\res\Maps\MapPhotoReal_Unlabeled.png"
       xlink:href="MapPhotoReal_Unlabeled.png"
       style=""
       width="661.45831"
       height="661.45831"
       preserveAspectRatio="none"
       id="image827"
       x="-182.56248"
       y="-104.03273" />
  </g>
  <g
     inkscape:groupmode="layer"
     id="layer2"
     inkscape:label="Terrain Base"
     style="display:none">
    <path
       style="fill:#57a316;fill-opacity:1;stroke:#000000;stroke-width:0.26499999;stroke-linecap:butt;stroke-linejoin:round;stroke-miterlimit:4;stroke-dasharray:none;stroke-opacity:1"
       d="m 58.264755,257.44411 c -5.687762,-0.39549 -12.839628,-2.8936 -21.077352,-9.51875 -4.118865,-3.31258 -7.580274,-8.56408 -13.07647,-13.73492 -5.606707,-5.2748 -13.138496,-13.2282 -16.5477141,-21.01858 -2.2793284,-8.60692 -2.5429477,-14.80555 -1.9787944,-20.61362 0.6201818,-6.3849 1.5362667,-12.09983 4.195232,-16.80412 5.4878205,-11.07333 3.5957855,-18.21479 2.5147415,-25.48509 -1.686476,-11.06314 -2.279852,-19.80017 1.295894,-24.95593 4.09084,-5.89846 9.186208,-9.11503 12.86939,-12.46181 3.708537,-4.63177 7.709438,-9.01344 11.353866,-12.68067 4.101918,-3.737342 7.091911,-6.867072 9.225889,-10.304506 C 53.460292,77.215357 60.321378,64.564599 68.688267,51.913842 74.055369,38.276273 78.402453,21.758651 86.595325,16.099726 100.20373,9.3200753 116.72824,2.6099274 167.97889,5.8098495 c 20.65577,3.8858794 29.09416,12.3532785 35.68049,21.5151975 6.93164,11.162825 14.99091,23.49087 16.83798,29.399648 2.10064,5.321045 3.74415,11.060234 4.41545,18.173266 0.7485,7.930977 1.03726,16.227705 0.86787,25.658929 0.12483,7.89454 -1.47003,21.12469 1.76411,29.2243 0.38864,2.37254 4.2533,6.27629 8.26983,9.00716 3.94638,2.68318 6.93419,5.76127 9.80607,10.4116 3.8059,5.33641 7.42054,10.90345 10.12913,17.33358 2.69841,6.40598 4.13633,13.49311 5.37251,22.22231 4.81148,16.78984 12.92078,31.04879 25.39059,41.96131 7.67097,6.04963 19.5532,3.56792 29.53331,3.60815 20.72129,0.24696 41.04944,5.48686 60.00198,28.19693 5.3064,6.44948 10.50025,10.68542 16.83798,37.41774 23.10977,18.30815 37.10206,35.76816 44.9013,52.65208 6.073,11.98694 8.34971,27.48896 4.81084,48.37578 0.60675,12.22353 -2.04326,23.0513 -6.41445,33.14142 -4.31269,6.02174 -7.1862,13.48264 -10.15625,20.84702 -8.24392,15.49646 -18.9655,17.98524 -29.66693,20.57977 -9.29046,0.0279 -17.85199,1.56395 -23.51971,9.08717 -9.03085,10.91201 -22.32326,15.53817 -38.19653,17.61761 -8.35526,1.5678 -18.76121,3.16249 -27.44128,2.04392 -7.82963,-1.21305 -12.42147,-3.53296 -19.3539,-6.29806 -4.34439,-3.78285 -13.51852,-10.79956 -21.10366,-10.84163 -7.0615,-0.69661 -11.9707,4.87729 -24.06489,9.77255 -9.43771,3.58972 -13.31428,4.94676 -28.4477,5.94414 -14.38334,1.32554 -41.51396,1.63934 -62.22013,-0.12629 -21.45131,-5.04991 -43.90158,-11.84798 -67.870247,-21.30327 -4.947389,-2.03891 -10.261795,-3.46845 -14.783252,-6.21457 -3.14944,-2.23162 -7.159824,-6.87842 -9.505848,-14.39762 -3.691155,-9.95193 -9.197025,-19.39928 -8.003266,-30.18522 0.189412,-17.14795 4.793573,-29.62887 17.430985,-33.6175 23.059596,-7.76141 25.310711,-24.05052 17.64814,-37.8103 -7.062072,-23.19782 -7.661089,-47.00759 -3.975632,-57.21238 3.605221,-6.26008 2.880021,-10.37241 1.479311,-16.21206 -1.342399,-5.59656 -3.44292,-10.24709 -6.487718,-15.53824 -4.399788,-6.96247 -11.306195,-10.79721 -19.680618,-12.80018 z"
       id="path830"
       inkscape:connector-curvature="0"
       sodipodi:nodetypes="csscsccsccccccccsccscscccccccccccccccccccccccccscc" />
  </g>
  <g
     inkscape:groupmode="layer"
     id="layer3"
     inkscape:label="Forests"
     style="display:none">
    <path
       style="fill:none;stroke:#000000;stroke-width:0.26458332px;stroke-linecap:butt;stroke-linejoin:miter;stroke-opacity:1"
       d="m 141.07962,127.66666 c 9.2009,-8.02703 17.52471,-9.70447 23.43452,-9.82738 11.35968,-0.45354 21.65517,-1.24914 39.78199,0.47247 9.16685,2.30576 10.97545,6.9599 8.31547,13.04018 -6.11025,7.72279 -12.8379,18.99562 -18.04836,21.54465 -5.62224,3.0709 -11.52277,6.42009 -17.3869,9.73288 -8.39632,8.62981 -14.54752,6.72164 -20.97768,7.46503 -6.87155,0.79442 -16.31764,-3.72934 -16.3711,-5.14993 l -0.16536,-4.39397 c -3.16415,-6.13619 -6.94493,-7.95588 -10.58333,-10.77232 -1.66771,-5.17561 -0.77782,-9.49869 1.32291,-13.41815 3.89372,-3.22264 8.49044,-6.78514 10.67784,-8.69346 z"
       id="path832"
       inkscape:connector-curvature="0"
       sodipodi:nodetypes="scccccsscccs" />
    <path
       style="fill:none;stroke:#000000;stroke-width:0.26458332px;stroke-linecap:butt;stroke-linejoin:miter;stroke-opacity:1"
       d="m 151.87591,60.199198 c -2.7875,-2.514603 -3.18088,-4.946651 -0.80181,-7.283096 5.01918,-2.657879 8.75282,-1.673421 12.76212,-1.469982 5.03358,-0.263672 10.06715,0.90367 15.10073,2.405427 0.28531,-0.109687 0.37798,-0.249788 10.55714,1.202712 2.97092,0.656259 4.85524,2.682571 11.69304,-1.536798 1.72246,-1.61043 3.57953,-1.740123 5.47903,-1.403168 2.00085,0.75006 4.12297,1.285564 3.87541,6.013567 -0.39583,3.728522 -0.38842,7.530361 -6.48129,10.223058 -1.5819,1.49469 -4.21689,2.331201 -7.21628,2.939965 -1.98225,-0.312607 -3.96449,1.34612 -5.94674,-1.336347 l -0.53454,-6.949009 c -0.4767,-1.419058 -1.57577,-1.468892 -2.93997,-0.935442 -3.18471,2.531292 -6.61645,1.727699 -10.15624,-0.53454 -1.28479,-1.501099 -4.00842,-0.535601 -6.48128,0 -4.49533,1.439223 -9.08808,3.101128 -11.15851,-1.00226 -2.72257,0.722438 -5.18906,-0.0916 -7.75081,-0.334087 z"
       id="path836"
       inkscape:connector-curvature="0"
       sodipodi:nodetypes="ccccccccccccccccc" />
  </g>
  <g
     inkscape:groupmode="layer"
     id="layer4"
     inkscape:label="Water"
     style="display:none" />
  <g
     inkscape:groupmode="layer"
     id="layer5"
     inkscape:label="Mountains"
     style="display:inline;opacity:0">
    <path
       style="fill:#c7c7c7;fill-opacity:1;stroke:#000000;stroke-width:0.26499999;stroke-linecap:butt;stroke-linejoin:miter;stroke-miterlimit:4;stroke-dasharray:none;stroke-opacity:1"
       d="m 75.570457,41.724192 c 2.045888,-5.61372 4.702685,-10.968122 7.283096,-16.403667 3.013075,-4.093221 5.270324,-8.776355 11.759858,-10.156242 9.916739,-3.706641 18.662509,-4.558654 27.929669,-6.6817383 l 20.31248,-0.8018086 c 9.31934,-0.05348 18.47298,-0.2457923 34.2105,5.0781209 6.52138,2.967013 10.89958,3.297723 26.99422,18.040693 1.80477,2.979693 3.4566,6.038911 3.0736,10.156243 -1.46517,5.002399 -1.25985,10.300459 -12.36121,13.597337 -3.66879,-0.01577 -3.12772,0.206168 -7.94012,-0.723952 -4.54795,-0.879009 -15.88517,-2.987842 -20.5575,-3.385317 -6.96251,-0.832887 -12.19303,-0.655443 -18.20773,-0.935444 -7.02195,-0.854733 -11.47124,0.711858 -15.50164,2.672694 -5.43356,2.245364 -10.87946,4.546291 -16.43707,7.349913 -3.44153,1.503248 -5.48181,3.692844 -8.52268,5.576906 -3.04087,1.884063 -6.7516,4.053181 -9.518016,5.113875 -2.830075,0.974247 -5.942253,1.811991 -11.492589,1.469983 -4.611181,-1.30033 -7.961967,-3.336002 -10.540932,-7.868934 -0.787892,-1.610201 -0.859178,-2.881976 -1.806116,-4.916612 -0.693769,-1.490668 -0.975631,-3.182441 -1.016427,-4.987879 2.141536,-12.171099 1.770918,-10.294491 2.338607,-12.194171 z"
       id="path838"
       inkscape:connector-curvature="0"
       sodipodi:nodetypes="cccccccccsccccscccscc" />
  </g>
</svg>
