<?xml version="1.0" encoding="UTF-8" standalone="no"?>
<!-- Created with Inkscape (http://www.inkscape.org/) -->

<svg
   xmlns:dc="http://purl.org/dc/elements/1.1/"
   xmlns:cc="http://creativecommons.org/ns#"
   xmlns:rdf="http://www.w3.org/1999/02/22-rdf-syntax-ns#"
   xmlns:svg="http://www.w3.org/2000/svg"
   xmlns="http://www.w3.org/2000/svg"
   xmlns:sodipodi="http://sodipodi.sourceforge.net/DTD/sodipodi-0.dtd"
   xmlns:inkscape="http://www.inkscape.org/namespaces/inkscape"
   version="1.1"
   id="svg815"
   width="256"
   height="256"
   viewBox="0 0 256 256"
   sodipodi:docname="dm.svg"
   inkscape:version="0.92.4 (5da689c313, 2019-01-14)">
  <metadata
     id="metadata821">
    <rdf:RDF>
      <cc:Work
         rdf:about="">
        <dc:format>image/svg+xml</dc:format>
        <dc:type
           rdf:resource="http://purl.org/dc/dcmitype/StillImage" />
        <dc:title></dc:title>
      </cc:Work>
    </rdf:RDF>
  </metadata>
  <defs
     id="defs819" />
  <sodipodi:namedview
     pagecolor="#ffffff"
     bordercolor="#666666"
     borderopacity="1"
     objecttolerance="10"
     gridtolerance="10"
     guidetolerance="10"
     inkscape:pageopacity="0"
     inkscape:pageshadow="2"
     inkscape:window-width="1920"
     inkscape:window-height="1017"
     id="namedview817"
     showgrid="false"
     inkscape:zoom="2.3422912"
     inkscape:cx="82.358355"
     inkscape:cy="143.70179"
     inkscape:window-x="-8"
     inkscape:window-y="-8"
     inkscape:window-maximized="1"
     inkscape:current-layer="layer1" />
  <g
     inkscape:groupmode="layer"
     id="layer1"
     inkscape:label="Layer 1">
    <path
       style="fill:#000000"
       d="m 67,211 v -41 h 61 61 v 41 41 H 128 67 Z M 33.75,238.29485 6,225.67157 V 184.83578 C 6,162.3761 6.3454998,144 6.7677774,144 7.190055,144 19.902555,149.604 35.017777,156.45334 L 62.5,168.90668 l 0.261093,41.04666 c 0.143601,22.57566 -0.0814,41.02824 -0.5,41.00573 C 61.842492,250.93656 49.0125,245.23766 33.75,238.29485 Z M 193.23882,210.01072 193.5,168.79887 221.75,156.00795 250,143.21703 v 41.21685 41.21685 l -27.05545,12.2273 c -14.8805,6.72501 -27.71053,12.47867 -28.51118,12.78591 -1.26238,0.48442 -1.42105,-4.91539 -1.19455,-40.65322 z M 56.042705,162.10509 c -4.651512,-2.11687 -8.605652,-4.29393 -8.786978,-4.83791 -0.665936,-1.99781 10.463414,-17.03141 19.383235,-26.18301 l 9.177359,-9.41582 4.841839,4.26383 c 6.030228,5.31036 20.58602,12.46352 29.84184,14.66519 9.18906,2.18578 25.81094,2.18578 35,0 9.25582,-2.20167 23.81161,-9.35483 29.84184,-14.66519 l 4.84184,-4.26383 9.17736,9.41582 c 8.71673,8.94324 20.05344,24.17239 19.41652,26.08316 -0.16302,0.48906 -4.11716,2.67163 -8.78698,4.85016 L 191.5,165.97845 128,165.9662 64.5,165.95395 Z M 119.40211,125.05481 C 96.18365,121.41436 77.169251,104.50713 70.418994,81.5 c -2.356051,-8.030209 -2.356051,-22.969791 0,-31 C 75.017999,34.825052 86.146159,20.792675 99.5,13.829459 109.80644,8.4552779 116.94718,6.6586035 128,6.6586035 c 16.33458,0 30.53909,5.8600165 42.01023,17.3311635 C 181.48138,35.460913 187.3414,49.665423 187.3414,66 c 0,11.05282 -1.79668,18.193561 -7.17086,28.5 -10.96913,21.03626 -37.2376,34.24424 -60.76843,30.55481 z"
       id="path828"
       inkscape:connector-curvature="0" />
  </g>
</svg>
