<svg xmlns="http://www.w3.org/2000/svg" width="170" height="155" stroke="#000000">

	<svg id="ears" width="150" height="115" x="10" y="40">
	<path fill="#f7d4cb" stroke-width="1" d="M5 45
		q5,10, 35,30
		l 70, 0
		q30,-20, 35,-30
		l -30, 5
		l -80, 0
		l -30, -5
		"/>
	</svg>
	<svg id="face" width="100" height="115" stroke-width="0.5" fill="none" x="35" y="40">
		<path fill="#f7d4cb" stroke-width="1" d="m50 2
		q30,0, 40,30
		q5, 15, -2, 45
		q-2,5, -5, 10
		q-5,10, -20, 18
		q -13, 10, -26, 0
		M50 2 q-30,0, -40,30
		q-5, 15, 2,45
		q2,5, 5, 10
		q5,10, 20, 18
		"/>
		<g id="eyes">
			<path fill="none" stroke="#751200" stroke-width="4" d="M20, 55, q10, -5, 20, 1"/>
			<path fill="none" stroke="#751200" stroke-width="4" d="M80, 55, q-10, -5, -20,1"/>
			<ellipse cx="30" cy="65" fill="#58f868" rx="8" ry="10"/>
			<ellipse cx="30" cy="65" fill="#105828" rx="5" ry="6.25"/>
			<ellipse cx="30" cy="65" fill="black" stroke="#777" rx="3" ry="3.75"/>
			<ellipse cx="70" cy="65" fill="#58f868" rx="8" ry="10"/>
			<ellipse cx="70" cy="65" fill="#105828" rx="5" ry="6.25"/>
			<ellipse cx="70" cy="65" fill="black" stroke="#777" rx="3" ry="3.75"/>
		</g>
		<g id="mouth">
			<path fill="none" stroke-width="1" d="M40, 90, Q50, 91, 60, 90"/>
		</g>
		<g id="nose">
			<path fill="none" stroke-width="1" d="M48, 65, q-5, 14, 2, 15"/>
		</g>
	</svg>
	<path fill="#b01818" stroke-width="2" d="M115, 35
		q -60, 0, -70, 10
		q-10, 0, -20,-10
		q-20, 40, 0, 80
		q40,-10,60,-40
		q10,2,20,20
		q15,15,30,0
		q5,-20,0,-40
		q-5,-15,-20,-20
		"/>
<!--<polygon id="barracks" points="30, 74, 30, 108, 68, 108, 68, 104, 73, 104, 73, 78, 68, 78, 68, 74" fill="#A4878E"/>-->
</svg>
