<svg xmlns="http://www.w3.org/2000/svg" width="102.17183087087868" height="84.33861147656704">
    <rect id="background" width="102.17183087087868" height="84.33861147656704" x="0" y="0" fill="none"/>
    <g id="map" transform="translate(51.08591543543934 42.16930573828352)">
        <g id="waterbody">
            <polygon fill="#6C6974" stroke="#9A979B" stroke-width="0.09999999999999999" points="-53.104727685495476,100.27544665169391 -50.483129110654964,94.42475168686404 -49.061840293300925,90.17186582731519 -48.203876511378866,86.27537172802889 -47.90923776488879,82.73526938900511 -47.96559581314586,79.13775302857107 -48.37295065615008,75.4828226467267 -49.13130229390144,71.77047824347207 -50.240650726399956,68.00071981880714 -51.002710627274006,64.56453998676672 -51.41748199652359,61.461938747350814 -51.48496483414871,58.692916100559415 -51.20515914014938,56.25747204639253 -50.57806491452557,54.15560658485015 -49.60368215727731,52.387319715932264 -48.28201086840458,50.9526114396389 -46.613051047907405,49.851481755970035 -44.92960162822259,48.86873255640436 -43.23166260935015,48.00436384094188 -41.51923399129009,47.25837560958257 -39.79231577404239,46.63076786232646 -38.05090795760708,46.12154059917353 -36.29501054198415,45.730693820123776 -34.52462352717358,45.45822752517722 -32.739746913175395,45.304141714333845 -31.007106384336055,44.98925798514049 -29.326701940655568,44.51357633759716 -27.69853358213393,43.87709677170384 -26.12260130877114,43.07981928746054 -24.598905120567203,42.12174388486726 -23.127445017522113,41.002870563924006 -21.708220999635877,39.72319932463076 -20.341233066908487,38.28273016698754 -18.86449248734693,37.014205153946 -17.27799926095119,35.91762428550614 -15.581753387721287,34.99298756166796 -13.77575486765721,34.240294982431465 -11.86000370075896,33.659546547796644 -9.834499887026539,33.250742257763505 -7.699243426459943,33.013882112332055 -5.454234319059176,32.94896611150228 -3.375527628398416,33.02005139095169 -1.4631233544776627,33.227137950680294 0.28297850270308345,33.57022579068808 1.8627779431438225,34.04931491097504 3.2762749668445545,34.6644053115412 4.523469573805279,35.41549699238654 5.604361764025997,36.302589953511074 6.518951537506708,37.325684194914786 7.415683648093724,38.361090407839995 8.294558095787046,39.408808592286704 9.155574880586675,40.468838748254896 9.998734002492608,41.54118087574458 10.824035461504849,42.62583497475576 11.631479257623393,43.72280104528844 12.421065390848245,44.832079087342606 13.192793861179403,45.953669100918276 13.956120014860105,47.353143161472346 14.711043851890352,49.03050126900482 15.457565372270144,50.985743423515714 16.19568457599948,53.21886962500502 16.925401463078362,55.729879873472726 17.64671603350679,58.51877416891885 18.359628287284764,61.58555251134338 19.06413822441228,64.93021490074631 20.005044735263148,68.20358527356605 21.182347819837368,71.40566362980259 22.596047478134935,74.53644996945593 24.246143710155856,77.59594429252606 26.132636515900124,80.584146599013 28.255525895367747,83.50105688891674 30.614811848558716,86.34667516223729 33.21049437547304,89.12100141897463 35.523632764576796,91.85141662684444 37.55422701587,94.5379207858467 39.30227712935263,97.1805138959814 40.767783105024705,99.77919595724856 41.99266112093994,102.63684670287282 42.97691117709835,105.75346613285414 43.8462818076611,110.03769344686643 44.97801861511176,118.21544624393128 19.86240533557408,134.99150069378368 -5.311952060443282,131.27328144939716 -30.91310581453646,134.25027515469296 -58.83759018398597,111.44820275686025"/>
            <path fill="none" stroke="#CCCAC2" stroke-width="0.049999999999999996" d="M -56.94919736459899,111.05363882394352 C -59.106174461156286,107.8429181049253 -52.56304655526245,102.58098442316916 -51.77015886194446,100.96022840904851 C -50.891549792083644,99.16424778526205 -49.57751433642855,96.1946067080657 -49.11426674003394,95.0381160241855 C -48.632957493167545,93.83653470050771 -47.915934491700895,91.63069451464649 -47.63918309097589,90.64730928838358 C -47.34590055425448,89.60518370933609 -46.89080872175827,87.57774322758289 -46.73896782687186,86.59792799607516 C -46.58584393429489,85.60983369929895 -46.44231140945941,83.66136660209753 -46.40942179448301,82.71177354010044 C -46.37686810706053,81.77187942030048 -46.413958957429294,79.89952156791529 -46.47482632110258,78.97160152664279 C -46.53650488819025,78.03131472820645 -46.75125402040569,76.13480768782412 -46.90330123997309,75.18260506974191 C -47.05700516956808,74.22002722986899 -47.45447083363056,72.30099361577136 -47.69231563763485,71.34701938704481 C -47.93480846533489,70.37440235113642 -48.55145307771534,68.53292499463609 -48.787270691053244,67.62617216147396 C -49.015546049100315,66.74842039085587 -49.383300341775836,65.08504486574208 -49.52442417366465,64.3022970603665 C -49.66593952932502,63.51737765598574 -49.86263277753431,62.036337689168256 -49.91991233600653,61.343939387617205 C -49.97715168137198,60.652027184206176 -50.006578548803546,59.35789329756412 -49.98287063007523,58.76057229437163 C -49.959207242345975,58.164373249683265 -49.82925162175326,57.06104062600309 -49.730028764479385,56.55982287641543 C -49.63121509437346,56.06067210894373 -49.35452754638352,55.14688791463509 -49.186670579099484,54.73862000700569 C -49.019826811014,54.332816439841274 -48.60987559221343,53.595201703117006 -48.37750612500129,53.270167421681066 C -48.20016914776728,53.0221116092767 -47.695241461609335,52.39408212841654 -47.30296243264445,52.103722526008035 C -46.691721282840646,51.651290139548145 -45.14065864747288,50.692216686962844 -44.21064135674977,50.18591078784547 C -43.4119273336854,49.75108702099826 -41.78608831031435,48.981126811487385 -40.962983058181884,48.652207172914956 C -40.14846264603898,48.326718107114665 -38.50198808486018,47.78744552343983 -37.67705089653684,47.57503422353503 C -36.75011342405687,47.33635909014685 -35.07502994161987,47.05974589792021 -34.34583551521931,46.94837210382407 C -33.79581095915422,46.864363889502684 -32.85265181327635,46.831032957193734 -32.47153569162352,46.77996783574302 C -32.04415164456299,46.722703351169145 -31.176235130720578,46.56809212243005 -30.73889516278418,46.46508410654967 C -30.251963252871278,46.35039554939436 -29.271004400268748,46.0754678605225 -28.78057158350594,45.91062380744191 C -28.32482193340457,45.75743744440718 -27.445136364958437,45.406927689342545 -27.021394035289106,45.21555933528146 C -26.589638475554327,45.020572087045856 -25.74016499153475,44.586963418960565 -25.324150743769138,44.349652621110266 C -24.908143663665104,44.11234591197447 -24.090855836099973,43.59466588917377 -23.690990330730475,43.315766805248494 C -23.285147901012415,43.03269892280691 -22.50169049173948,42.431114748016455 -22.122970705980478,42.11688643340386 C -21.757779822360334,41.81388320994708 -21.04814351587739,41.172931659392766 -20.703746688094242,40.83721519411062 C -20.33537333462867,40.47812652036865 -19.66631972778581,39.71514808313078 -19.305821427387322,39.37074209732143 C -18.970733947526455,39.05061261624959 -18.289020427761944,38.467601774896714 -17.946822178361526,38.2033572743177 C -17.595640548905745,37.932175833586605 -16.866383208115355,37.428171418175644 -16.490393225320908,37.19667656520773 C -16.114394624420367,36.96517640612185 -15.334412560895913,36.53990294865851 -14.9325050488055,36.34745969024104 C -14.53053240253858,36.154985243968696 -13.69744710269647,35.807555168586 -13.268368740948327,35.65389154173687 C -12.839179083874093,35.50018805726502 -11.950618659302233,35.23052492716658 -11.493213843032807,35.115764019743544 C -11.03567182219304,35.00096868828203 -10.089618357407339,34.80969092436044 -9.60297667908554,34.73426038762854 C -9.116699898788486,34.658886410897736 -8.111698306244282,34.54697961827704 -7.5947029665488,34.51148620925589 C -7.058906560543618,34.4747020459758 -5.9898364675066,34.448957859961084 -5.4581932212713316,34.44970754299567 C -4.9429282302634165,34.45043413065537 -3.9542950211257226,34.484491233024585 -3.4820472865977177,34.517285564767676 C -3.0111264508560067,34.549987752587555 -2.113898190773579,34.64770984658496 -1.6888854638172741,34.711459839517104 C -1.2640417004095272,34.77518448867872 -0.4589733129407397,34.93413048927854 -0.08019362639618843,35.02754827700957 C 0.2983219475430359,35.12090092709944 1.0112422606837987,35.338076331629495 1.3441190758889412,35.45948457353146 C 1.618368433181916,35.55950996067404 2.256126283174095,35.802027416542025 2.5871124534383263,36.00037944750596 C 2.9736042241647085,36.231994646452875 4.016885732259105,36.864755182961126 4.56323846782176,37.38862520437874 C 5.25611972208552,38.05299401574236 6.4907721575062585,39.591718312300706 7.1377259958167345,40.363732751583406 C 7.613606094947994,40.93160372805995 8.44501198367559,41.98423641183229 8.812216023200435,42.45895917674822 C 9.224514726061154,42.99198049221785 10.026427536136987,44.06402007038758 10.416370606158166,44.60237684877803 C 10.781720212409523,45.10677980430951 11.570353652004016,46.1504588602062 11.913086183582253,46.74003146163221 C 12.263167167088683,47.342244957985265 12.982312040059877,48.77307140225704 13.325280488578835,49.606318432015534 C 13.752575620035405,50.64443841259669 14.44000609898341,52.68597995628628 14.762896245421723,53.66368808269411 C 14.98798009731577,54.3452397297402 15.329622423018494,55.58222284341572 15.47877001009999,56.12706311422461 C 15.615047947026055,56.62489019619748 15.985134692125666,57.99615681399663 16.18986563144128,58.87644681334707 C 16.552194602898215,60.4343675219351 17.21563408771458,63.68066706214518 17.62251234553689,65.34459977662472 C 17.868972243696852,66.35250000100767 18.3726947720717,68.03748322425481 18.597186644594572,68.72121023098119 C 18.87113282840792,69.55555849561037 19.480608647259334,71.20749705825482 19.8152585328119,72.02296977856525 C 20.14991059576755,72.83844780475773 20.88072027657063,74.45220174243721 21.275823194309666,75.2484947997848 C 21.670931626907226,76.04479897181506 22.522492815131162,77.6198047604172 22.97775843497181,78.39669318805842 C 23.433033618120074,79.17359793501454 24.404705376084888,80.70946869316617 24.919829141581637,81.46681203551694 C 25.434966883914065,82.22417592683895 26.526103927088,83.72070319816619 27.100790250742904,84.45844165536795 C 27.680146649823104,85.20217519910206 28.891061303330527,86.65852178492327 29.519472696700237,87.37148350646852 C 30.153388975920077,88.09069077501377 31.475850559955813,89.43043560027468 32.089892675545755,90.11880856036512 C 32.69240474414524,90.79425574162822 33.82363007097601,92.13014887982756 34.35215976949653,92.78917558495976 C 34.88188012907103,93.44968693217268 35.870626575605364,94.7582111182291 36.329174799082665,95.4047936957717 C 36.78846965196088,96.05242906893709 37.63486716737912,97.33286004544085 38.02186068136708,97.96369061505705 C 38.39807446779225,98.57694936128874 39.10937354707023,99.81285901668497 39.42119823951553,100.44504072238098 C 39.740446389113785,101.09227246714961 40.32290767477016,102.45135091385015 40.58468345165497,103.15946153881526 C 40.82872380545183,103.81959736001406 41.3156845396218,105.30147382500196 41.52265105155047,106.12952796475692 C 41.72324383581864,106.93208140139927 42.15971459563609,109.01123818546772 42.36689017166161,110.28990809583703 C 42.51883079192411,111.22767259018349 45.25008725559001,115.58058491174242 43.363343901799254,117.4901265787321 C 39.3902678823943,121.51121094610423 27.932612906435292,131.28526375443514 19.509835912062826,133.42315375198592 C 11.50279932088676,135.45551949664895 -0.962524844873788,130.39083664620247 -5.092781739034912,129.78937971066452 C -5.1893611970287115,129.77531560125695 -5.387208070889749,129.77212487086052 -5.485209972072086,129.78332114923543 C -9.455630101812703,130.2369238702197 -22.399649120604842,135.61900409272107 -30.455960076008175,132.6870092638403 C -39.920967119317424,129.24233689953815 -53.02919326362109,116.88867453467702 -56.94919736459899,111.05363882394352"/>
            <path fill="none" stroke="#CCCAC2" stroke-width="0.049999999999999996" d="M -49.76830562661794,101.98740104508042 C -48.92287417116157,100.24953032143429 -47.571977160907046,97.23183111942515 -47.0612698659957,95.95882435758386 C -46.56115165308543,94.71221230974682 -45.80187717810872,92.40498869125717 -45.50632471845851,91.3638392338726 C -45.19985665118451,90.28423711408087 -44.70643397983668,88.14375610871313 -44.5425874667711,87.08620385433939 C -44.36884258006773,85.96476224913705 -44.19892741925352,83.75207314391669 -44.15976573662618,82.67243372123875 C -44.12302672541095,81.6595843696006 -44.17374962385969,79.68026940545822 -44.239076287328174,78.71877394413305 C -44.30729354006733,77.7147340098968 -44.54152168428021,75.71836761149888 -44.699447454303204,74.72925256739026 C -44.85404760867117,73.76096640051192 -45.25239466418184,71.84212911224421 -45.48846185196496,70.89366688469316 C -45.740201837662276,69.88223505530438 -46.36723386192623,67.98603011813462 -46.607200638033135,67.06435067547436 C -46.8296598199659,66.20991549846842 -47.17654813964896,64.63035666238636 -47.30699449325063,63.908932670766106 C -47.4403849847561,63.17122634039282 -47.6206779974043,61.79825345500521 -47.67355784523095,61.166940348016794 C -47.72640654558359,60.53599909929572 -47.74925993467447,59.3813227589921 -47.72972932396501,58.862056585089995 C -47.710260140680035,58.344423600449545 -47.595864413087966,57.41823882398937 -47.5173332009744,57.0133491214498 C -47.43955205038817,56.6123265716068 -47.2204309433122,55.91171276563865 -47.09957907596035,55.613140140239 C -46.98005146615137,55.317839181715044 -46.690039602499894,54.80919328266673 -46.53824207658726,54.59443898030426 C -46.43946282352531,54.45469184377047 -46.12660642385739,54.04696034667004 -45.856154142068384,53.854014933074836 C -45.34644267852079,53.490377811961054 -43.99129416187899,52.630900899599446 -43.13381148837945,52.165658333482504 C -42.40162584143717,51.76839791086989 -40.8982171936764,51.05427170232189 -40.128913435724186,50.746598019197805 C -39.38201712292124,50.4478859212827 -37.87241796435575,49.95348866856207 -37.1162286301418,49.758999244195515 C -36.263327057397255,49.53963574828368 -34.714871168234694,49.282961710399704 -34.036458703860276,49.17963858170292 C -33.53886931026898,49.10385504933578 -32.65008818077673,49.072363958045244 -32.270186178334356,49.02094047580319 C -31.812891326223316,48.959041108188025 -30.843643631767875,48.795674078306426 -30.336578330456366,48.67882328866343 C -29.81100070658275,48.5577064222372 -28.72332546763048,48.26244049815148 -28.167623143356135,48.075524315483314 C -27.60676339444262,47.886873380081816 -26.522134284522313,47.455732701037334 -25.9988673807078,47.21978967151299 C -25.50616764052405,46.99762949188501 -24.568010433469667,46.508419611302834 -24.1206567088523,46.250731816704075 C -23.661211920450533,45.98607924369955 -22.762542518837968,45.411119645588535 -22.32436674630204,45.10317833550222 C -21.880825376325856,44.79146618912437 -21.027503285041107,44.13134892053127 -20.61625923866803,43.78791023762365 C -20.205260374545627,43.44467631164804 -19.437121980727813,42.74177686538872 -19.075148762835155,42.38968702890885 C -18.708220339561617,42.03277728486113 -18.0757990680115,41.312476416114016 -17.754621429469786,41.00440709843832 C -17.512808504018917,40.77246335762543 -16.936776086475923,40.240522317114454 -16.570316714883376,39.98708545487523 C -16.033871895898674,39.61608964407868 -14.753874412193833,38.75889098303822 -13.958632540431772,38.379167883100635 C -13.15029495981991,37.99319166277679 -11.618587854274129,37.50401449673684 -10.943029056443578,37.300090227663894 C -10.46453788389477,37.15565281831741 -9.612314908844322,37.01470240674359 -9.255691867174038,36.95953758242609 C -8.905919311140414,36.90543243679583 -7.99809179706623,36.77749090359315 -7.437892276682003,36.75789235464163 C -6.581731831064613,36.727939629240744 -4.680856041683024,36.693648043540655 -3.6418267738967205,36.76313682549164 C -2.782452238688873,36.82061055750549 -1.2710469559728437,37.06098019038726 -0.6249518200450743,37.213532006491825 C -0.013563706217323057,37.35788902440257 1.0424476203452435,37.75088873007777 1.480279490671636,37.9725355184851 C 1.8452770666692757,38.15731087628633 2.6523425612145055,38.689316987577875 3.0431295755613785,39.07045133113301 C 3.6495368822788623,39.66188001808434 4.791573587886214,41.06697720081256 5.407534549975443,41.802785050964985 C 5.783079154670308,42.25139898143164 6.602641937950728,43.262750876774355 7.032256648902461,43.83573873808843 C 7.770318082056538,44.82010969029465 9.289091124577716,46.81424563419803 9.97100757858049,47.88920291368722 C 10.381171403529672,48.53577565265571 10.990849377695056,49.853368366806265 11.248582290394165,50.48225667208743 C 11.581968070812737,51.29574384474453 12.273970851224123,53.23157010957436 12.620402338355394,54.35393170228718 C 12.961009133947163,55.45742257938614 13.654575345853079,57.98163835317324 14.00165041907757,59.40159005988984 C 14.417465023129203,61.102768572121704 15.057479609867162,64.3343637593303 15.425752480282796,65.83116538824233 C 15.690887689219437,66.90877616139106 16.236565661329433,68.74019135270728 16.486253747632666,69.4999671279163 C 16.775842299194323,70.38115601246409 17.417787927228577,72.10719604592796 17.765599582512877,72.95108517411643 C 18.116749421282147,73.80307367651524 18.882864934504322,75.48777430699442 19.296537819119997,76.31850853967802 C 19.71020773762204,77.14923681583842 20.600804830535935,78.79062405720767 21.07626127188224,79.59952673380045 C 21.551716257595842,80.40842693389888 22.565218132472495,82.00556073637529 23.101686211415622,82.7922765901118 C 23.642881976501357,83.58592546705299 24.778941492988483,85.1373583881641 25.36970799017577,85.89574962763756 C 25.95153410492166,86.64266373062243 27.16279389634487,88.09871651131604 27.788390436133103,88.80879147873813 C 28.440250153670714,89.54867611405112 29.78723435650369,90.91867736142098 30.40899012565483,91.61551927245085 C 31.000313224769403,92.27825332152237 32.09269096495693,93.5696721330137 32.59495027687614,94.19581402213275 C 33.10515703696745,94.83186360254604 34.05341298743646,96.08741696055047 34.49159647390164,96.70510306065917 C 34.93174839163735,97.32556396327044 35.73597176622942,98.54359544308988 36.10123600938878,99.13845569367054 C 36.45388116993052,99.71276482054117 37.11390840937592,100.86147278650131 37.40132094125174,101.44380787007954 C 37.695672524980054,102.04020237310652 38.231928848131076,103.29176956320069 38.472716947727484,103.9433837927289 C 38.69603379153849,104.54771778333924 39.148432795195816,105.9194877466448 39.34126086322865,106.69362071261111 C 39.54381233401754,107.506789523782 39.954322041105975,109.4942744842167 40.14780271766233,110.66823006929275 C 40.26582649479966,111.38434640095021 42.50263017824916,114.8972333965684 40.941331831830496,116.40214708093335 C 37.28528985075708,119.92615491745656 26.87544587224522,129.14278248063636 18.98098177679594,131.07063333928926 C 11.365147418498585,132.93044201401176 -0.6439465344006363,128.15043624841414 -4.764026256922355,127.56352710256556 C -5.005978275363949,127.52906081500717 -5.500403601341809,127.5211914364202 -5.745096839515293,127.54838069899284 C -9.700238347962204,127.98785905069502 -22.119496621921375,133.04463345926854 -29.77024146821575,130.34211042756132 C -38.610061512343364,127.21956252597067 -50.46199235745412,115.6435728944115 -54.11660813551852,110.46179292456841 C -55.99046006113021,107.80490942046194 -50.42940257567601,103.34635335971791 -49.76830562661794,101.98740104508042"/>
            <path fill="none" stroke="#CCCAC2" stroke-width="0.049999999999999996" d="M -43.98242275879321,97.34133131614534 C -43.46539179759838,96.05546049425537 -42.63454466334932,93.6017139299189 -42.309411544191605,92.44567616992106 C -41.95119768421068,91.17201709340091 -41.37502340911057,88.63582578582151 -41.18021084600643,87.37783454568573 C -40.98822589867301,86.13810247638241 -40.822467462710435,83.74432753356038 -40.785444590149076,82.60474472333301 C -40.74920894889729,81.4893932924126 -40.81712368535961,79.35062162093786 -40.88632512678255,78.33188293175365 C -40.95461725369921,77.32653058032685 -41.188957954435516,75.33017540162855 -41.346696293757574,74.34236155501087 C -41.511390876407184,73.31098522695127 -41.929903307477645,71.24492190264627 -42.18268117346013,70.21363813116568 C -42.4494783006573,69.12515854262789 -43.09526306336681,67.14936415103314 -43.3363799236668,66.22484529253833 C -43.549859554157614,65.40629637792611 -43.86597046287466,63.950883601557535 -43.98084997262959,63.31888608636557 C -44.10211355551822,62.6517672656779 -44.257762752341115,61.440886472504495 -44.30402610906758,60.90144178861614 C -44.35030027899794,60.36187101951101 -44.363271128428664,59.41637279978256 -44.35001736479968,59.01428302116751 C -44.33796243116297,58.64856308433342 -44.27400076602857,57.98263304066383 -44.198289855716915,57.69363848900131 C -44.12911027374983,57.429574535834185 -43.965099850733765,56.745968650167825 -43.68594170620427,56.479453543675035 C -43.313170707551095,56.12356529770994 -42.187416531929784,55.49574600116318 -41.51856668582394,55.135279651938035 C -40.88665380531013,54.79471991286752 -39.56694978627827,54.164222301681875 -38.87780900203761,53.888184288622064 C -38.232351215589524,53.629643669695504 -36.928065715780086,53.20255868134467 -36.27499523054929,53.034946775186256 C -35.554278662434115,52.849973360350276 -34.196307435565124,52.62035650685274 -33.572393486821696,52.52653829852119 C -33.07838114387504,52.45225345042272 -32.12750553964537,52.408445822934546 -31.682173460849082,52.344322193884274 C -31.15993101066427,52.26912419503255 -30.031722813556666,52.07283637489637 -29.43215105068827,51.93038234481038 C -28.822666511031013,51.78557310874178 -27.56753101609827,51.43439868638787 -26.928878405541738,51.21497275024652 C -26.286671489063608,50.99432563863153 -25.047738067935985,50.49246439786122 -24.451377793462395,50.21910642326947 C -23.887055914169746,49.96043411972374 -22.81442601363788,49.3928154766322 -22.303678597574415,49.094886443853774 C -21.764685291456047,48.78048102678175 -20.7476684078989,48.11627508833188 -20.265275965091682,47.7772707338188 C -19.934048646069996,47.54449863061461 -19.0603653627333,46.90901277640311 -18.55716845745767,46.46200263594023 C -17.5532412746544,45.57017356009649 -15.643864972076486,43.607297001393064 -14.573618907157112,42.72114182233382 C -13.998199718501247,42.24469933787033 -12.91985267191108,41.64298518268591 -12.489523638721112,41.43804127129794 C -11.922215111968073,41.16786096862431 -10.690512356986792,40.723200633382994 -10.03591182323744,40.56006188864301 C -9.397981941286483,40.40107778336355 -8.001826444616466,40.184598471974795 -7.253597614247474,40.133150188653204 C -6.391697882737175,40.07388588369495 -4.7085636834062115,40.086012134760075 -3.894687033438893,40.137790706214325 C -3.1580204274430863,40.184657199432976 -1.9378930280431947,40.39330188621975 -1.4545478223892192,40.50208387661014 C -1.0213710640547067,40.59957492319812 -0.3422443260788896,40.86990475095969 -0.08978683648422647,40.9941240510367 C 0.08470864261053854,41.07998288736814 0.5346060836090024,41.35969938870085 0.7629662371708001,41.5931905212644 C 1.2295950600085708,42.07030393458018 2.236066189115039,43.27192768852221 2.8122473812135302,43.96136350003738 C 3.159341615061636,44.376682844137726 3.9338803860097933,45.331034260530544 4.346322972176927,45.880894619257546 C 5.046046455914929,46.813752230672996 6.447894706115238,48.665987989054145 7.070252196102248,49.63805192528946 C 7.415250888099122,50.17690747364241 7.92150583637668,51.2745298299348 8.133534993117168,51.7961640321953 C 8.427480545833623,52.519328979207465 9.070589564880637,54.301387863797224 9.397795429815952,55.3642745665986 C 9.71805912378356,56.404610508546085 10.38663747612249,58.828362886706465 10.724442696681812,60.21239870711143 C 11.127282016345948,61.86288844009891 11.759210965043756,65.053799490571 12.130612682401654,66.56101380566872 C 12.401887940856646,67.66189711817424 12.968080140868485,69.59877425504143 13.243990742989341,70.43717340655577 C 13.571851276641144,71.43343085775841 14.298402826043251,73.3895461170199 14.69321283432253,74.34789033932178 C 15.072901553364071,75.26952981789665 15.895157976725965,77.05910263302019 16.329876610151565,77.92771526076825 C 16.77141752457039,78.80995950898324 17.720601980885313,80.55066701303507 18.226349374345382,81.4074612393282 C 18.738854287402564,82.27570348067734 19.817224340895468,83.96304874624165 20.376782655556333,84.78363934241621 C 20.918436926696153,85.57797371227453 22.05454000370264,87.12937538717668 22.64480443431648,87.88711237994197 C 23.254230316490762,88.6694474001834 24.528330906930226,90.20886665165732 25.191767045282397,90.96475343714255 C 25.87792948554482,91.74653346284164 27.262446946139953,93.16010073802018 27.88651592571045,93.85926285626647 C 28.460806661282167,94.50265700068923 29.49550919096263,95.72799531927872 29.959136037945612,96.30577167789231 C 30.44014274831015,96.90520699401266 31.32765345519331,98.0813115544826 31.73522898613015,98.65556710799044 C 32.14670989544045,99.23532516360962 32.887663907437535,100.35976303923974 33.22029900142127,100.90060331159066 C 33.53753585373458,101.41640717206147 34.12067005641533,102.43430474937819 34.37150499385608,102.94195859162743 C 34.62850550076646,103.46209065984809 35.09545615346025,104.552390089316 35.304767191836255,105.11926717359931 C 35.49710381681308,105.64017245415069 35.89760200058043,106.84680057488833 36.0691755807459,107.53975983439233 C 36.27857862397179,108.38550646759629 36.6478307057529,110.23593279368008 36.81917153666344,111.23571302947643 C 36.88805168816367,111.63763132147156 38.34398400028,113.86376608685215 37.308313726877365,114.77017783423521 C 34.13020793441163,117.55163492409915 25.28016890965713,125.92911774755736 18.187700573895594,127.54185272024428 C 11.16352132736387,129.1390596429999 -0.16195228850569965,124.78998455806105 -4.270893033753521,124.22474819041712 C -4.7320752329430595,124.16130679097776 -5.670936000496172,124.14667106709564 -6.134927140680103,124.19597002362896 C -10.072457278147555,124.61433173419674 -21.70472916092178,129.1775427194511 -28.741663556527108,126.82476217314284 C -36.63389508269801,124.18601527600934 -46.61505117516797,113.77824127877925 -49.867724291897815,109.57402407550576 C -51.29089845864351,107.73451143456072 -47.23023244995174,104.49406021047926 -46.765525773628156,103.52815999912828 C -45.983268360467235,101.90222553509042 -44.57471669144236,98.81438330555805 -43.98242275879321,97.34133131614534"/>
            <path fill="none" stroke="#CCCAC2" stroke-width="0.049999999999999996" d="M -37.518911757665094,94.08275223574374 C -37.014498902321506,92.31794655587755 -36.46215837870784,89.49320661938904 -36.23888690392041,88.47884496769247 C -36.20045914831677,88.30426090279026 -36.14922386857168,87.96153162683109 -36.13493725558662,87.79511220841454 C -36.049640609502895,86.80152343765532 -35.770397173613325,84.15022874808533 -35.72435495216335,82.48525444643327 C -35.69013706504165,81.24787056441598 -35.77581970444592,78.87854104057645 -35.85719838596411,77.75154641318456 C -35.93957510518336,76.61073019141377 -36.214820025538366,74.40306033745566 -36.38488734961505,73.33769332528166 C -36.55127624206496,72.29536942108257 -36.971499293589844,70.22968224741638 -37.22087222931761,69.20896990143648 C -37.50919755719895,68.02882089702136 -38.178865200571956,65.9280374416125 -38.42867371470907,64.97223871286039 C -38.615165291019366,64.25869853519245 -38.90309385978511,62.989345642441386 -38.99163319169804,62.43381620976475 C -39.1113089462923,61.68292502255462 -39.55271841143269,60.24309516016521 -39.26936580219402,59.697416909647295 C -38.98827506803986,59.15609456057079 -37.60220520717281,58.8474893936478 -37.00115235150777,58.60056369275846 C -36.49950204440447,58.394474739823075 -35.50122063717937,58.073416263154805 -35.013145131160485,57.94886807167236 C -34.48362985734972,57.813745188220565 -33.40316407759748,57.62383805074111 -32.8601062316756,57.54384234798657 C -32.37249865384801,57.4720148048442 -31.31948415342724,57.40889861855031 -30.766190044265525,57.323265920272824 C -30.145462530458605,57.227196630862004 -28.778508058957925,56.9797550289041 -28.04103585971308,56.798000322367585 C -27.30653351088213,56.616977554324464 -25.802463319582614,56.180795968895474 -25.04076246698507,55.91219793673356 C -24.277436836537575,55.6430269603092 -22.80879553432206,55.03413576800014 -22.10359662069474,54.70428532882026 C -21.40684672637706,54.37838684231086 -20.138043086679026,53.68632792877059 -19.55545510395403,53.346494831171796 C -19.04000763084441,53.04582589080507 -18.018709614005164,52.387841950544576 -17.5170524714713,52.028879121136825 C -17.009992129689618,51.666050010308155 -15.7771231276969,50.7505497844155 -15.09161979184353,50.15237913384123 C -14.050025174720108,49.24348300281986 -12.311792831666228,47.47511899604645 -11.482319038365823,46.76296685649523 C -11.119837795647783,46.45175534549413 -10.489097091020161,46.12234378458281 -10.285860286155119,46.02635135359391 C -9.955792123809232,45.87045417091255 -9.206131140436945,45.591996550924286 -8.787814904683906,45.49030365814625 C -8.375838948151952,45.39015209051868 -7.415495068807223,45.23123352036223 -6.870944959539482,45.19618367547253 C -6.207748796982469,45.15349720413875 -4.9064929956052445,45.15765033623755 -4.273977422752145,45.19977152729835 C -3.812869396767775,45.23047815349974 -2.907957103280215,45.26870750011521 -2.5659253260695456,45.48286840274962 C -2.128028751237647,45.757054405264675 -1.4760769993870653,46.723971324164566 -1.0806833719293145,47.199231173646 C -0.7827897963638764,47.55729677221168 -0.07515479567484012,48.42563729493304 0.3174224570885842,48.94862844101116 C 0.9608085045773148,49.80574689089133 2.186851773804097,51.445470100602435 2.719119122384889,52.261325442692836 C 2.965078662497888,52.63833035436803 3.3166243684195034,53.40566349773173 3.460964047201675,53.76702507235711 C 3.695520616330747,54.35424912519098 4.265386098052463,55.90564063925944 4.563885067006772,56.87978886306569 C 4.853658944231954,57.82546284242062 5.484747093406632,60.09852418732916 5.808631113088178,61.428611677943834 C 6.185758504994442,62.9773525724031 6.801533119613929,66.10823756508562 7.1879029855799415,67.65578643180832 C 7.499856782939033,68.9052724505119 8.160304034690043,71.175501710978 8.496957321287676,72.19631522666221 C 8.86131510865846,73.30113543397964 9.663618668468905,75.42879495855533 10.089082138065535,76.4528575081356 C 10.506265279565397,77.45698985334325 11.408440787380606,79.405303951281 11.884687159711063,80.3503578261692 C 12.368329429244607,81.31008797307992 13.405587294647038,83.19918511843477 13.956434112510838,84.12715421956557 C 14.513654693382431,85.06586070709373 15.683695030283374,86.88671800108985 16.289427321767402,87.77068347087283 C 16.88736529700392,88.6432744332699 18.119993819169196,90.31283624241483 18.74465163954606,91.11476081610172 C 19.359018960309413,91.90347462983908 20.63381755327824,93.44230146243082 21.291614250511977,94.1924018733023 C 22.019483470210915,95.02240756207041 23.459820314356,96.50474937662972 24.100441131385523,97.22208837682743 C 24.64877858013742,97.83609252218527 25.598246228355276,98.96362288593214 26.005414679549858,99.47070816153169 C 26.442766530014268,100.01538367108077 27.239139822022544,101.07233042274693 27.60067775447292,101.58126317898736 C 27.969281698583174,102.10014267792589 28.615307357680987,103.0842070324334 28.89889348946993,103.54382473847075 C 29.162834793386384,103.97160340264348 29.63067810208177,104.7932593759037 29.826781072762607,105.18918467394928 C 30.027733064354592,105.59489998202281 30.390731443139096,106.4432946802477 30.552842557999423,106.88309224490497 C 30.695396932126016,107.26983356505525 31.021519294854382,108.22784625320637 31.161047657021783,108.80896851706416 C 31.254160124599753,109.19677302585195 32.86861310375733,111.36398620240847 31.858786569447673,112.32222396418801 C 29.581751152861724,114.48293300375956 22.687442502207023,121.14027294990805 16.997778769545047,122.2486817916768 C 10.874912798759187,123.44148317640975 0.5721936016742997,119.74968430937238 -3.531193199000269,119.21657982219446 C -4.323994009177637,119.11358059500137 -5.928538041945692,119.08939713887197 -6.719672592427319,119.16735401058313 C -10.645606478663478,119.55420795866242 -21.098680014209933,123.36095376593028 -27.198796688994157,121.54873979151512 C -33.622575402962674,119.64037275943436 -40.882970104389294,111.02740497081103 -43.49439852646676,108.24237080191178 C -44.194810320310616,107.49539617237039 -42.34209198021583,106.01844816944143 -42.14865234162312,105.60502926868908 C -41.516655423873146,104.25432641938734 -40.0742169572919,101.18189870547512 -39.36554932678818,99.41820058570615 C -38.816287319598786,98.05122356059229 -37.88985195335092,95.38057277560905 -37.518911757665094,94.08275223574374"/>
            <path fill="none" stroke="#CCCAC2" stroke-width="0.049999999999999996" d="M -30.115830901564966,95.77373801349108 C -29.80921105139332,94.47227049373129 -29.151587509452295,91.67406241551184 -28.83580604782028,90.16983074543981 C -28.74017383394761,89.71428467239639 -28.605847580822516,88.81797547960083 -28.563787793842252,88.38054784999092 C -28.426660611848963,86.95440610080526 -28.239626960394283,84.29778554869625 -28.153205490418983,83.07069008800966 C -28.138467466429155,82.8614253955371 -28.12971421841106,82.46175907008667 -28.133593409920138,82.27223268392666 C -28.151008670546165,81.42137203351521 -28.157046784061283,79.05132180169421 -28.266436843720896,77.53852465067794 C -28.35859947807241,76.26397218118514 -28.648940816987235,73.71088554620871 -28.84483079872631,72.43625765264618 C -29.051565777401706,71.09106292622208 -29.54594670008017,68.72773005727879 -29.778158813103815,67.70196755684266 C -30.00703219608218,66.6909534002157 -30.6033962688099,65.32938452700311 -30.54285091638553,64.93550612422092 C -30.507090992913216,64.70286958026021 -29.699320129377593,64.84779923862396 -29.328970597726812,64.77976907691341 C -28.656727303062745,64.65628351493366 -26.92784137647793,64.34750785768625 -25.890809495862932,64.08096439249067 C -24.922441386491915,63.83206925601369 -23.05329350465645,63.25283424992314 -22.15252822735816,62.93524158173156 C -21.38930278080451,62.66614283635173 -19.92058206878576,62.05741463011198 -19.215362381067834,61.72732897381826 C -18.384255528862422,61.33832047683744 -16.76870940861787,60.495677667471405 -15.984420558869406,60.048192477314316 C -15.32192167061697,59.67019597630122 -14.025222048428333,58.8490186302394 -13.394717231040726,58.40629170211386 C -12.722780067042917,57.93447187091461 -11.231703556648604,56.828225784200626 -10.444871930981716,56.15844052048024 C -9.314891948864943,55.196552467646356 -7.624941142473866,53.47027567014582 -6.907961793361354,52.88448365603627 C -6.785600127599098,52.78451078132879 -6.421156719639698,52.697191395974144 -6.328985131954524,52.795646848900326 C -5.627042900943309,53.54544450366436 -4.437234154837475,55.306991132640775 -3.807580488191147,56.196235718797894 C -3.705123305659568,56.340933510147835 -3.5891759712371707,56.61438538048471 -3.5478923716715762,56.72331663259979 C -3.4032593889569345,57.1049464340228 -2.9428961999732386,58.310299633051876 -2.6869804772069767,59.153060307766395 C -2.4428728329820624,59.95693558641763 -1.868043120257183,62.00397190312035 -1.565086262302285,63.25293113419239 C -1.2251719062931,64.65425004005053 -0.6335854320918184,67.69511232966123 -0.22616155965262763,69.29794537101773 C 0.14726880829858047,70.76704566898185 0.9517003486766602,73.54854234242926 1.384469574446542,74.85668307971088 C 1.8038319609735078,76.12429867904942 2.7206894782982833,78.50831127135717 3.1920848000050013,79.63035129747428 C 3.6657690906949743,80.75783964838267 4.6882010098245495,82.94332199356494 5.226839310388546,84.00249433481336 C 5.787715151178925,85.10539432691863 6.962179532394815,87.21263701131966 7.561339903845717,88.22200575836375 C 8.11920703539422,89.16181031557208 9.289289163467014,90.98264259743506 9.894333113102281,91.865535009671 C 10.545074645190725,92.81511026177297 11.910479023161754,94.68739821171685 12.623546880358573,95.60888092904399 C 13.311367329245947,96.49773694727139 14.723109605718788,98.20911748035027 15.441385058356346,99.03387452754193 C 16.2472204407222,99.95917192987147 17.771635241369708,101.53908706060346 18.416208690902987,102.26028274529845 C 18.923732292873225,102.82813708662577 19.74812962145509,103.81179098040539 20.074832641956164,104.21811288699068 C 20.446999990720297,104.68097896789408 21.106627361777317,105.55922064964138 21.398850906987008,105.96980728548264 C 21.68531037183855,106.3722951407781 22.197701507752917,107.14038578531024 22.41678522154301,107.50865687879102 C 22.52782467900449,107.6953098330952 23.636572912169353,108.5590333299864 23.189972275317675,108.98061175588659 C 22.2210780957657,109.89522057946296 18.65755558735251,113.94259659362427 15.21289606301926,114.3089253988256 C 10.091817307479644,114.85353616473918 1.3028247308764636,112.24123495401186 -2.421643446870393,111.70432726986047 C -2.8247519182055303,111.64621641336302 -3.3234921116103613,111.62654408438864 -3.4139699336781866,111.62373465265708 C -4.210800727066339,111.59899221672676 -5.805234497925474,111.57437631467863 -6.602449327105236,111.57450884104574 C -6.694661084404382,111.57452417002452 -7.19375660902831,111.57901221481914 -7.596790770048143,111.62442999101438 C -11.09902560261299,112.01909558810945 -19.814510573592678,114.68531080564534 -24.88449638769474,113.63470621907354 C -28.723049060316843,112.83927972449891 -33.00317304726326,107.84186035464114 -34.062668611270496,106.14015968589874 C -34.76517218226557,105.01183896690036 -32.54718842703217,102.82258264484611 -32.18945806513295,101.90189808477794 C -31.56217050741211,100.28745874546584 -30.69250157941804,97.59985713353956 -30.34282049600987,96.56644973481554 C -30.27726490851722,96.3727142645341 -30.163473611521074,95.97596053602673 -30.115830901564966,95.77373801349108"/>
        </g>
        <g fill="none">
            <path stroke="#6C6974" stroke-linecap="butt" stroke-linejoin="round" stroke-width="2.1" d="M 9.829077668607912,17.438901945489818 L 24.622919223554035,19.867832769794568 C 27.877449338206304,20.402178665331352 32.0091216252888,22.584282422196612 35.74789876717899,26.270995372719 C 38.167229616696126,28.65663592737475 38.8784352041265,33.018613589257356 41.61796142561014,36.62621119224266 C 45.09012616351786,41.1985978653157 49.67054123062006,46.136338843827836 54.99221326721779,51.613239705695776 C 59.57276431204034,56.32740168198651 65.06730550757025,61.35270412122886 71.11308566907009,66.98168411108587 C 76.39357399631345,71.89813200312311 86.37759656988952,76.81088119869993 93.92225361981716,87.859416757351 C 106.85953455876711,106.80501064456662 106.85953455876711,106.80501064456662 126.73555563739913,148.43625961243072"/>
            <path stroke="#CCCAC2" stroke-linecap="round" stroke-linejoin="round" stroke-width="1.9" d="M 9.829077668607912,17.438901945489818 L 24.622919223554035,19.867832769794568 C 27.877449338206304,20.402178665331352 32.0091216252888,22.584282422196612 35.74789876717899,26.270995372719 C 38.167229616696126,28.65663592737475 38.8784352041265,33.018613589257356 41.61796142561014,36.62621119224266 C 45.09012616351786,41.1985978653157 49.67054123062006,46.136338843827836 54.99221326721779,51.613239705695776 C 59.57276431204034,56.32740168198651 65.06730550757025,61.35270412122886 71.11308566907009,66.98168411108587 C 76.39357399631345,71.89813200312311 86.37759656988952,76.81088119869993 93.92225361981716,87.859416757351 C 106.85953455876711,106.80501064456662 106.85953455876711,106.80501064456662 126.73555563739913,148.43625961243072"/>
        </g>
        <g fill="none">
            <path stroke="#6C6974" stroke-linecap="butt" stroke-linejoin="round" stroke-width="2.1" d="M 21.092358154516614,-1.2370665947955537 L 29.570835775260655,-5.081373280911244 C 31.4186837175227,-5.91922348434667 34.96419559161546,-7.140902847600278 39.19203246891257,-10.238889669144129 C 42.791288615267575,-12.876278109706924 44.9062616794637,-17.571039273254065 48.969412643246606,-19.295861029110746 C 52.18710725494669,-20.661783614668817 56.68501422819569,-20.781770524636293 61.090820188423706,-19.535001436139265 C 66.55288209533134,-17.989329655206557 71.63311559772035,-12.710357999789913 78.95417536919517,-10.810676790380489 C 86.14295883029253,-8.945318866003262 94.20809375873084,-11.559180614058114 101.28081508257569,-9.106432282236444 C 107.88432664770721,-6.816401156460854 107.88432664770721,-6.816401156460854 118.49530711023854,2.9017883945849263"/>
            <path stroke="#CCCAC2" stroke-linecap="round" stroke-linejoin="round" stroke-width="1.9" d="M 21.092358154516614,-1.2370665947955537 L 29.570835775260655,-5.081373280911244 C 31.4186837175227,-5.91922348434667 34.96419559161546,-7.140902847600278 39.19203246891257,-10.238889669144129 C 42.791288615267575,-12.876278109706924 44.9062616794637,-17.571039273254065 48.969412643246606,-19.295861029110746 C 52.18710725494669,-20.661783614668817 56.68501422819569,-20.781770524636293 61.090820188423706,-19.535001436139265 C 66.55288209533134,-17.989329655206557 71.63311559772035,-12.710357999789913 78.95417536919517,-10.810676790380489 C 86.14295883029253,-8.945318866003262 94.20809375873084,-11.559180614058114 101.28081508257569,-9.106432282236444 C 107.88432664770721,-6.816401156460854 107.88432664770721,-6.816401156460854 118.49530711023854,2.9017883945849263"/>
        </g>
        <g fill="none">
            <path stroke="#6C6974" stroke-linecap="butt" stroke-linejoin="round" stroke-width="2.1" d="M -21.935816290873788,-4.915622024633907 L -35.32630855243422,-9.767813839174064 C -38.15787208861967,-10.793861959307053 -42.474267508736325,-12.181632140546796 -48.33353432714089,-13.280012031142508 C -52.586371841218,-14.077250209264136 -57.50764143579369,-15.057948691097875 -63.03483989478924,-14.962063319123653 C -67.7533762275437,-14.88020654940631 -75.07894142513686,-14.992418743084201 -84.34491525330102,-12.65528963678184 C -92.90143184251114,-10.497104826414848 -108.09247568554017,2.2171793605550887 -133.75179312911214,2.8746641288432735 C -188.00380761358042,4.2647974888178855 -188.00380761358042,4.2647974888178855 -296.411207974558,-7.2213821434046395"/>
            <path stroke="#CCCAC2" stroke-linecap="round" stroke-linejoin="round" stroke-width="1.9" d="M -21.935816290873788,-4.915622024633907 L -35.32630855243422,-9.767813839174064 C -38.15787208861967,-10.793861959307053 -42.474267508736325,-12.181632140546796 -48.33353432714089,-13.280012031142508 C -52.586371841218,-14.077250209264136 -57.50764143579369,-15.057948691097875 -63.03483989478924,-14.962063319123653 C -67.7533762275437,-14.88020654940631 -75.07894142513686,-14.992418743084201 -84.34491525330102,-12.65528963678184 C -92.90143184251114,-10.497104826414848 -108.09247568554017,2.2171793605550887 -133.75179312911214,2.8746641288432735 C -188.00380761358042,4.2647974888178855 -188.00380761358042,4.2647974888178855 -296.411207974558,-7.2213821434046395"/>
        </g>
        <g fill="none">
            <path stroke="#6C6974" stroke-linecap="butt" stroke-linejoin="round" stroke-width="2.1" d="M -22.03884258118543,13.24653123072297 L -40.67159619619945,15.651838296471112 C -44.88663325859923,16.195958539676123 -50.936471925510915,16.918575068464733 -58.80297037519368,17.348620139020866 C -62.2706861564915,17.538192931461573 -67.97182527286961,18.996227714559698 -75.4457927823567,17.55287112830622 C -95.3402133257161,13.710903273280735 -114.08564124110826,0.7426466959646598 -133.75179312911214,2.8746641288432735 C -139.49772954090676,3.497583989725194 -136.91965665483482,26.367877176463697 -149.53465246505988,25.58488172830436 C -199.55348373411255,22.480281632109833 -199.55348373411255,22.480281632109833 -296.411207974558,-7.2213821434046395"/>
            <path stroke="#CCCAC2" stroke-linecap="round" stroke-linejoin="round" stroke-width="1.9" d="M -22.03884258118543,13.24653123072297 L -40.67159619619945,15.651838296471112 C -44.88663325859923,16.195958539676123 -50.936471925510915,16.918575068464733 -58.80297037519368,17.348620139020866 C -62.2706861564915,17.538192931461573 -67.97182527286961,18.996227714559698 -75.4457927823567,17.55287112830622 C -95.3402133257161,13.710903273280735 -114.08564124110826,0.7426466959646598 -133.75179312911214,2.8746641288432735 C -139.49772954090676,3.497583989725194 -136.91965665483482,26.367877176463697 -149.53465246505988,25.58488172830436 C -199.55348373411255,22.480281632109833 -199.55348373411255,22.480281632109833 -296.411207974558,-7.2213821434046395"/>
        </g>
        <g fill="none">
            <path stroke="#6C6974" stroke-linecap="butt" stroke-linejoin="round" stroke-width="2.1" d="M 7.292838944340589,-13.832228486087683 L 14.73533115279535,-25.520561557134524 C 16.31120578362206,-27.995451291300586 18.75925089368613,-31.248335404232574 22.076514789192196,-35.18890700921454 C 24.409633218640153,-37.96041404746908 27.893045155308513,-40.37816992794715 30.402002988701717,-44.13097186087227 C 33.596280825558715,-48.90884890643606 36.2077234082393,-54.50797216295466 38.92393176116239,-60.38862066550089 C 41.13363586261524,-65.1726767565201 43.34679051860224,-70.03827090819026 44.72796242041794,-75.14697686983911 C 46.34713030926556,-81.13598709788677 46.34713030926556,-81.13598709788677 47.87834906103007,-93.50939656804309"/>
            <path stroke="#CCCAC2" stroke-linecap="round" stroke-linejoin="round" stroke-width="1.9" d="M 7.292838944340589,-13.832228486087683 L 14.73533115279535,-25.520561557134524 C 16.31120578362206,-27.995451291300586 18.75925089368613,-31.248335404232574 22.076514789192196,-35.18890700921454 C 24.409633218640153,-37.96041404746908 27.893045155308513,-40.37816992794715 30.402002988701717,-44.13097186087227 C 33.596280825558715,-48.90884890643606 36.2077234082393,-54.50797216295466 38.92393176116239,-60.38862066550089 C 41.13363586261524,-65.1726767565201 43.34679051860224,-70.03827090819026 44.72796242041794,-75.14697686983911 C 46.34713030926556,-81.13598709788677 46.34713030926556,-81.13598709788677 47.87834906103007,-93.50939656804309"/>
        </g>
        <g fill="#8AA193" stroke="#11272A" stroke-width="0.09999999999999999">
            <polygon points="-5.311586133901123,0.8841639481185428 -3.6652902512628973,-0.940492859190005 -1.6860283283249122,0.8452954278697329 -3.332324210963138,2.6699522351782807"/>
            <polygon points="-3.6652902512628955,-0.9404928591900052 -1.2641971604122253,-3.6017221676064692 0.715064762525759,-1.8159338805467318 -1.6860283283249116,0.8452954278697322"/>
            <polygon points="-0.3647553211550285,5.347440092164774 -1.3177409512871385,6.403672896744958 -8.98709394205335,4.957879015493494 -5.311586133901123,0.8841639481185428"/>
            <polygon points="5.9939049998598675,2.9468976355053553 5.296676821394952,4.80883120838644 2.1627388875295113,3.6352824476376826 2.8599670659944274,1.7733488747565977"/>
            <polygon points="4.833712672195361,6.045167488329866 4.302703980651897,7.463215325199072 -1.3177409512871385,6.403672896744958 1.6210237774718443,3.146520203867397"/>
            <polygon points="2.3754671935228537,-7.635710474181922 4.466464822862182,-9.953248347341065 6.891992664085375,-7.764816812032141 4.800995034746046,-5.447278938872999"/>
            <polygon points="-1.2641971604122257,-3.6017221676064692 2.3754671935228533,-7.635710474181922 6.225846493923096,-4.161707273440585 2.5861821399880167,-0.12771896686513196"/>
            <polygon points="7.148876486849412,-5.184739024722119 7.545857488929047,-1.1975597059583292 5.9939049998598675,2.9468976355053558 2.586182139988016,-0.12771896686512996"/>
            <polygon points="4.466464822862184,-9.953248347341065 5.460581789062869,-11.055068687638673 6.673345709674464,-9.96085291998421 5.6792287434737805,-8.859032579686602"/>
        </g>
        <g fill="#9BA18B" stroke="#222722" stroke-width="0.09999999999999999">
            <polygon points="5.346248466211047,14.821655064379897 5.149273233975468,16.318944168599064 2.983114599845466,16.033976089412132 3.1800898320810433,14.536686985192965"/>
            <polygon points="5.5453356483377565,13.308312167383038 6.470481217421554,13.430019299832272 8.296235811090874,16.732941493976814 5.149273233975468,16.318944168599064"/>
            <polygon points="3.3791770142077526,13.023344088196104 3.8540212269873537,9.41385949499552 4.296588719092501,9.497290440591167 6.470481217421554,13.430019299832272"/>
            <polygon points="1.7129848924997857,15.866884715162005 -0.4528190866814321,15.581963292456248 -0.10201255043231527,12.915339684740559 2.0637914287489023,13.200261107446316"/>
            <polygon points="2.0637914287489054,13.200261107446316 3.333921136094585,13.367352481696443 2.983114599845466,16.033976089412132 1.712984892499786,15.866884715162005"/>
            <polygon points="0.6613507329433721,8.811990801417535 3.8540212269873537,9.41385949499552 3.114175228359304,13.338443902126203 -0.07849526568467757,12.736575208548217"/>
            <polygon points="-0.45281908668143434,15.58196329245625 -3.3118675776973436,15.205842382403729 -2.7070546000593874,10.608412181511207 0.15199389095652216,10.984533091563728"/>
            <polygon points="-3.0715687871153134,13.379233235598871 -3.311867577697343,15.205842382403725 -6.770319823606549,14.7508671659315 -6.53002103302452,12.924258019126645"/>
            <polygon points="-1.7383346596777205,8.359612294161803 0.44321164279455716,8.770868145806476 0.028952364244944073,10.96834641577056 -2.1525939382273336,10.557090564125886"/>
            <polygon points="-5.698835576387234,7.612995467558107 -1.8604764868634993,8.3365866352043 -2.298874314559637,10.662110165623782 -6.137233404083371,9.938518997977587"/>
            <polygon points="-9.920073351174985,6.81722563489509 -7.8049973631667084,7.215950784920915 -8.268302791072532,9.673599081282555 -10.383378779080807,9.27487393125673"/>
            <polygon points="-7.674502098418845,7.2405511984801665 -5.828094507886748,7.588628122296508 -6.270685514376003,9.936394773768608 -8.1170931049081,9.588317849952267"/>
            <polygon points="-6.770319823606551,14.750867165931503 -11.030049282876648,14.190480265942654 -10.715487754234672,11.799369748662674 -6.455758294964574,12.359756648651523"/>
            <polygon points="-11.03004928287665,14.190480265942652 -14.529286167368113,13.730139643662191 -13.935801170344483,9.218818045126097 -10.43656428585302,9.679158667406558"/>
            <polygon points="-12.811786845649298,8.4951339802125 -10.140999725555163,6.775577532288452 -10.05667613701392,6.7914738573767455 -10.323858025522812,8.822432399568571"/>
            <polygon points="-16.354219386270742,10.775889593691293 -14.648479393083424,9.677667956444598 -14.106837759028481,10.518936936993109 -15.812577752215798,11.617158574239804"/>
            <polygon points="-14.529286167368108,13.730139643662188 -16.791578568955472,13.43252472752357 -16.540166749299843,11.521440912721507 -14.277874347712476,11.819055828860126"/>
            <polygon points="-16.791578568955476,13.432524727523571 -19.85459961323322,13.029570294849922 -16.450217059661036,10.83769662317037"/>
        </g>
        <g fill="#A4908B" stroke="#2A1522" stroke-width="0.09999999999999999">
            <polygon points="-5.66910805115096,-4.661003497570353 -3.875456650168549,-2.200345946619798 -6.186163030588478,0.3607040876959631 -8.398764161218825,-1.635614407205231"/>
            <polygon points="-9.933220591340678,-3.020077114317572 -10.279718324174066,-3.3327045567068656 -8.915788863512379,-6.918981959074506 -7.537465425803878,-5.675390182607601"/>
            <polygon points="-8.915788863512379,-6.918981959074506 -8.36694746182789,-8.362089959241887 -5.66910805115096,-4.661003497570353 -6.003008995682023,-4.290927475495259"/>
            <polygon points="-8.245653628272807,-1.4974704894186412 -6.186163030588478,0.3607040876959631 -8.732499727303193,3.1829128026412064 -10.791990324987522,1.3247382255266023"/>
            <polygon points="-11.125594524287985,-1.1085816902666283 -10.557994917782006,-2.601011981652544 -8.675048168798197,-1.884891543757625 -9.242647775304176,-0.39246125237170926"/>
            <polygon points="-11.729375487549099,0.47898283339475256 -11.312699295496104,-0.6166137166931898 -10.046662809646174,-0.13511597751013138 -10.463339001699168,0.9604805725778109"/>
            <polygon points="-8.732499727303193,3.1829128026412064 -10.045803529498292,4.638500918976235 -12.46646809796125,2.41707321740249 -11.729375487549099,0.47898283339475345"/>
            <polygon points="-16.873599054873893,-6.8700023384228235 -10.5788242270471,-4.234110754310965 -12.942316947873728,1.9803899070714 -17.801278146718456,-2.4786463214959373"/>
            <polygon points="-9.462696382544435,-7.168825622154169 -10.365420123303476,-4.795229446224103 -14.279012012467453,-6.434017839208955 -13.298691900105716,-8.775121093873436"/>
            <polygon points="-12.851847483386765,-9.84223060750889 -14.279012012467453,-6.434017839208955 -18.908858962677037,-8.372732875978052 -16.742541653094072,-11.471430745526403"/>
            <polygon points="-16.742541653094072,-11.471430745526403 -15.744054190618986,-12.899666101009903 -12.092522032530463,-11.65557633196477 -12.851847483386765,-9.84223060750889"/>
            <polygon points="-6.356453478757299,-6.622544805857052 -7.872026298480877,-8.701714537960877 -5.383803774835748,-10.515458922573847 -3.8682309551121694,-8.436289190470024"/>
            <polygon points="1.433766777970782,-8.084774603607022 -1.5543358956694453,-4.772938656075439 -4.651901100377293,-7.567715636759258 -1.663798426737066,-10.87955158429084"/>
            <polygon points="-4.971119190395527,-4.722045480636426 -5.975818965013703,-6.100363522536015 -4.3439608728423185,-7.289876688273763 -3.339261098224143,-5.911558646374174"/>
            <polygon points="-3.10458969065683,-6.171654529388949 -1.5543358956694462,-4.772938656075439 -3.4647689198228786,-2.6555278921959786 -4.721486568911874,-4.379581836540982"/>
            <polygon points="-7.872026298480878,-8.701714537960878 -9.956840704535823,-11.56181004357574 -6.574682000382495,-15.31039434607768 -4.0029098547665365,-12.990013944978354"/>
            <polygon points="5.459025991088407,-14.511184904068244 6.543508607254555,-13.748109676431675 4.664899307215833,-11.66597044268977 3.687548799655254,-12.547784551538394"/>
            <polygon points="4.001588091559926,-15.536682906867467 5.215856133303815,-14.682286673536261 3.807501940245244,-12.680733504909288 2.5932338985013548,-13.535129738240496"/>
            <polygon points="1.9305803680266171,-16.993907454789735 3.7889862276751414,-15.686276098368644 2.557671091901046,-13.936330861769704 0.6992652322525217,-15.243962218190795"/>
            <polygon points="4.664899307215835,-11.665970442689773 2.1964620414607965,-8.93010084119615 -0.018609153894845853,-10.928647951018693 2.4498281118601923,-13.664517552512313"/>
            <polygon points="2.196462041460796,-8.93010084119615 1.4337667779707832,-8.084774603607025 -0.781304417384859,-10.083321713429564 -0.01860915389484452,-10.928647951018691"/>
            <polygon points="-2.723466992993818,-11.835637129036597 -4.647498792470104,-13.571594059049682 -0.20435384783715538,-18.496112643212747 1.9305803680266167,-16.993907454789735"/>
            <polygon points="-11.979697554079847,-12.251004442476493 -15.386159688941728,-13.411597998042975 -13.025960972174673,-16.787623616729803 -10.192816930268604,-14.806956498829233"/>
        </g>
        <g fill="#8A99A5" stroke="#111E3B" stroke-width="0.09999999999999999">
            <polygon points="22.230114295960583,-4.009000043955043 21.419537399546464,-5.69355697196816 23.170465984942226,-6.536070653157214 23.98104288135634,-4.8515137251440965"/>
            <polygon points="21.419537399546464,-5.693556971968161 20.70899887962541,-7.170212168592087 22.45992746502117,-8.012725849781143 23.170465984942226,-6.536070653157214"/>
            <polygon points="23.981042881356345,-4.851513725144096 24.457677945098496,-3.860961314493334 22.687548914720963,-3.058350377581921 22.230114295960583,-4.009000043955042"/>
            <polygon points="26.473113871613698,-8.497977596631827 27.46574570426784,-7.130407740877301 26.052374484377054,-6.104531615926627 25.059742651722914,-7.472101471681153"/>
            <polygon points="25.695333544428728,-9.569541992277886 26.312668838240103,-8.719026110218758 25.09359974453118,-7.83418151999293 24.476264450719803,-8.684697402052057"/>
            <polygon points="27.651763374402307,-6.874127265130945 28.50637032902856,-5.696717201079273 24.457677945098496,-3.860961314493334 23.880889618412542,-5.059654215826061"/>
            <polygon points="22.212022530124116,-7.893438689226939 20.70899887962541,-7.170212168592087 18.847315696788087,-11.039198957245759 20.350339347286795,-11.762425477880612"/>
            <polygon points="23.643642346686566,-12.396200319209372 25.344342775964186,-10.053109392405254 22.67749800666597,-8.117416674688787 20.97679757738835,-10.460507601492907"/>
            <polygon points="17.32276565181259,-12.82377189499677 19.280689284933995,-8.75477630027131 13.475213479265628,-5.961291270165354 11.51728984614422,-10.030286864890815"/>
            <polygon points="12.352364813856134,-2.1170785341828404 9.468140287144466,-2.077450961148521 9.32719493383876,-3.493071343062005 11.361945001406529,-4.382603332288947"/>
            <polygon points="11.361945001406529,-4.382603332288947 14.611132346916657,-5.803051046674571 15.60155215936626,-3.537526248568464 12.352364813856132,-2.1170785341828404"/>
            <polygon points="14.611132346916659,-5.803051046674572 16.11207098937642,-6.459216615908716 17.1172928962923,-4.1598329312418505 15.616354253832542,-3.5036673620077066"/>
            <polygon points="16.11207098937642,-6.459216615908716 16.93545698691838,-6.819176394738267 17.94067889383426,-4.5197927100714015 17.1172928962923,-4.15983293124185"/>
            <polygon points="16.93545698691838,-6.819176394738267 19.642595146227208,-8.002656385890518 20.731427012479628,-5.739824479564035 17.94067889383426,-4.5197927100714015"/>
            <polygon points="20.731427012479628,-5.739824479564035 22.140955589120864,-2.810514330807493 20.869698784112583,-2.2341017655013946 16.199422283818983,-2.169934873710605 15.61635425383254,-3.503667362007706"/>
            <polygon points="16.83100525872435,-15.354531526165143 14.496179997990813,-14.789602939866512 13.141038308839654,-16.65661028679402 14.938786564723106,-17.961481214139678"/>
            <polygon points="16.357763987618757,-18.99142652468956 13.141038308839654,-16.65661028679402 11.615263278904115,-18.758702793764666 13.910409406279914,-22.36319865780017"/>
            <polygon points="14.765049935342644,-21.185742337537746 13.910409406279914,-22.36319865780017 15.078129899713053,-24.197087854973745 16.40165008557262,-22.373646121471705"/>
            <polygon points="16.40165008557262,-22.373646121471705 17.99436413784873,-20.17933030862352 16.357763987618757,-18.99142652468956 14.765049935342644,-21.185742337537746"/>
            <polygon points="13.858736457501852,-13.978893601267707 12.973648528103578,-12.853226770768721 10.644810576240081,-14.68434260795234 11.529898505638354,-15.810009438451326"/>
            <polygon points="12.932660586578285,-16.943696678949586 13.668873637421301,-15.929400398470753 12.477680096585349,-15.064788896169548 11.741467045742333,-16.079085176648384"/>
            <polygon points="13.668873637421298,-15.929400398470749 14.496179997990813,-14.789602939866512 13.858736457501852,-13.978893601267707 12.793683701749583,-14.816321970611092"/>
            <polygon points="10.644810576240081,-14.68434260795234 9.562701347726875,-15.535182119695756 11.615263278904115,-18.758702793764666 12.687196884331328,-17.281877209567124"/>
            <polygon points="12.973648528103576,-12.85322677076872 11.433286218628487,-10.89417309809494 8.34884209947008,-13.31940602208582 9.889204408945169,-15.278459694759599"/>
            <polygon points="11.433286218628483,-10.894173098094939 10.171565823746397,-9.289499990815733 8.629343764167194,-10.50211645281117 9.89106415904928,-12.106789560090377"/>
        </g>
        <g fill="#8A99A5" stroke="#111E3B" stroke-width="0.09999999999999999">
            <polygon points="8.11804815562977,4.072153430151653 11.370974553581448,5.408201595777276 12.156926208995927,6.552301997987568 10.570479363283075,7.642128137552121"/>
            <polygon points="6.042192265804399,8.521090781784917 7.301791072637173,5.157357961969012 9.40442788357415,5.944720978037524 8.144829076741377,9.308453797853428"/>
            <polygon points="9.925959133390968,10.597293539165566 8.753388992364046,8.890397242520953 12.156926208995927,6.552301997987568 13.329496350022847,8.259198294632181"/>
            <polygon points="13.329496350022847,8.259198294632181 15.204285362034689,10.988306183044255 12.312544442409825,14.071417161333772 9.925959133390968,10.597293539165566"/>
            <polygon points="7.7097397036566555,11.537804781228727 6.9363276514126495,10.138646405051977 8.874792161312609,9.06712238008734 9.648204213556614,10.46628075626409"/>
            <polygon points="8.731703201374033,13.386610710525314 7.813954804407416,11.726337440781244 9.906836179813556,10.569456484903206 10.824584576780174,12.229729754647277"/>
            <polygon points="10.975947689437035,12.12574929215332 12.312544442409825,14.071417161333772 10.297695834581356,16.219604718604003 8.844220011603692,13.59016176333959"/>
            <polygon points="14.721484812485961,6.497897494739711 13.639763813275724,7.651204786370814 11.764297979091442,4.921111656036569 12.361494975624439,4.284393268259539"/>
            <polygon points="12.998722702372255,4.882067988868689 12.361494975624439,4.284393268259539 14.2389360242735,2.2827066479615437 14.876163751021316,2.880381368570695"/>
            <polygon points="16.598925861135022,4.496210874441717 19.096376505627084,6.838643655576268 15.624468697655791,10.540315892435586 13.639763813275724,7.651204786370814"/>
            <polygon points="20.987196913694675,1.1647236459363333 21.50650313001091,4.269019314655164 19.096376505627084,6.838643655576268 17.271140967537107,5.126701292613863"/>
            <polygon points="15.101792212111274,3.092004971535449 14.2389360242735,2.2827066479615437 16.543599231997323,-0.17447490269930732 16.60393480652443,-0.17530387851724283 17.43510632238812,0.6042764546510173"/>
            <polygon points="16.60393480652443,-0.17530387851724283 20.753491221198473,-0.23231637818903517 20.987196913694675,1.1647236459363333 19.604455077813952,2.6389727757294326"/>
            <polygon points="8.444895611287524,2.104720699786228 9.260904715061312,-0.07441490175841281 11.537728556924677,-0.10569714148840602 11.567508955764602,2.061817802587969"/>
            <polygon points="11.567508955764602,2.061817802587969 11.605900143979428,4.8560541935702375 7.9733134438771645,3.3640712208833303 8.444895611287524,2.104720699786228"/>
            <polygon points="14.686665815445156,1.8053469283889874 11.764297979091442,4.921111656036569 11.605900143979428,4.8560541935702375 11.564574557009266,1.8482426524276896"/>
            <polygon points="11.564574557009266,1.8482426524276896 11.537728556924677,-0.10569714148840602 16.543599231997323,-0.17447490269930732 14.686665815445156,1.8053469283889874"/>
            <polygon points="12.264814415889239,16.82542526212567 10.780647468183126,16.581746915679382 21.631014845035384,5.013322320301953 21.74716224299303,5.707625321276096"/>
            <polygon points="16.564943865426898,17.531443163540235 12.956541141190453,16.938996599147174 16.269064675332828,13.055151097647643 18.650456558779865,15.086235149494781"/>
            <polygon points="18.650456558779865,15.086235149494781 22.69803530517575,18.53840641855124 16.564943865426898,17.531443163540235"/>
            <polygon points="18.20064810076651,10.790421045070383 19.712860243249384,9.017392637465221 21.19708365150886,10.28328361275923 19.684871509025985,12.056312020364393"/>
            <polygon points="23.26647797101976,14.789752755425067 23.9273405038226,18.740240220703402 22.69803530517575,18.53840641855124 21.176255097924866,17.240483329601297"/>
        </g>
        <g fill="#A4879C" stroke="#2A0D33" stroke-width="0.09999999999999999">
            <polygon points="-7.36149228123277,15.68171190815988 -4.067144610007038,16.11509841700169 -4.751924374028815,23.013296355218078 -8.056727176356233,22.68523066278864"/>
            <polygon points="-10.11655068842602,15.319271369422058 -7.3614922812327706,15.681711908159883 -8.057690767544656,20.973800644889828 -10.812749174737906,20.611360106152002"/>
            <polygon points="-10.821492786437302,20.699439759445365 -11.912736238924026,20.591112709311837 -12.844813761485867,14.960355879486684 -10.285204353899365,15.297084208084687"/>
            <polygon points="-7.888501853105723,20.990595921850893 -8.056727176356233,22.68523066278864 -11.624720705125739,22.3310381927341 -11.912736238924026,20.591112709311837"/>
            <polygon points="-4.751924374028814,23.013296355218074 -5.342568500098838,28.963209461216756 -8.80540732691583,28.619455632186114 -8.214763200845807,22.66954252618743"/>
            <polygon points="-11.014504462790661,26.017404606500392 -11.51292146183349,23.00642659927657 -9.004297695086835,22.591165934286785 -8.505880696044008,25.602143941510604"/>
            <polygon points="-10.613489577921687,28.43996844607387 -10.931771979917011,26.517198327208117 -9.07536699266428,26.20990156166058 -8.757084590668956,28.132671680526332"/>
            <polygon points="-5.342568500098839,28.96320946121676 -5.53985610083229,30.95060598213947 -10.175706028062988,31.084654809260375 -10.613489577921687,28.43996844607387"/>
            <polygon points="-17.679496113829273,25.072031346955008 -18.334800849468543,23.05068117426599 -12.73497646272178,21.235265177095282 -12.079671727082513,23.256615349784305"/>
            <polygon points="-11.93652465374063,24.121378571060053 -10.7809737327426,31.102156546197516 -15.678668118084914,31.24377678806414 -17.679496113829273,25.07203134695501"/>
            <polygon points="-18.334800849468547,23.050681174265993 -19.13395103166117,20.58562595502714 -13.229756459757011,18.671535702195072 -12.43060627756439,21.13659092143393"/>
            <polygon points="-19.133951031661166,20.585625955027133 -21.319032300759588,13.845533658390664 -13.466517208702918,14.878567946513579 -12.858574205618016,18.55120153535501"/>
            <polygon points="-4.214082939137778,23.669164725002354 -3.4719681468781562,16.193396603848576 9.076262734726381,17.844173788484998 5.3714116897612865,25.469057933107422"/>
        </g>
        <g fill="#9287A5" stroke="#190D3B" stroke-width="0.09999999999999999">
            <polygon points="-31.308385987282698,9.207944269047324 -31.62121172411147,7.373429044546406 -26.38653685020836,6.356848118886484 -26.053171744596703,8.311813102783198"/>
            <polygon points="-26.053171744596703,8.311813102783198 -25.311587376623297,12.660712995389407 -30.60313045165499,13.343799682953852 -31.308385987282698,9.207944269047324"/>
            <polygon points="-35.02019602665294,8.033516383648854 -31.661338414974143,7.381221702070222 -31.3213453339339,9.131946306180746 -34.68020294561269,9.784240987759379"/>
            <polygon points="-36.7280758763959,8.365188955564115 -35.05942551943375,8.041134804094241 -34.72703438945402,9.75271472114186 -36.395684746416165,10.076768872611733"/>
            <polygon points="-30.70411905248026,13.356836328000737 -33.40529761039645,13.705532178621972 -33.7268753539052,11.214424515822596 -31.025696795989006,10.865728665201363"/>
            <polygon points="-33.40529761039647,13.705532178621976 -35.99552524483194,14.039905345344014 -36.50472724745496,10.095363049578783 -33.91449961301949,9.760989882856745"/>
            <polygon points="-38.71937238287839,14.391527488937523 -39.9284619989506,14.54760918554289 -39.29545445553476,11.537325618925395 -39.09122538677014,11.510961634713482"/>
            <polygon points="-35.995525244831946,14.039905345344014 -38.71937238287839,14.391527488937523 -39.09122538677014,11.510961634713485 -36.367378248723696,11.159339491119972"/>
            <polygon points="-37.532386185847116,8.521387103222915 -36.728075876395906,8.365188955564115 -36.36737824872369,11.159339491119972 -37.17833814241913,11.264026517130567"/>
            <polygon points="-27.645565170538006,-0.06984848386055426 -27.476364729511275,-0.034268727618667394 -26.878353254392632,3.4726714834161196 -28.326459363592722,3.168161270173907"/>
            <polygon points="-28.390022098963314,-3.081784298580653 -27.981381130865653,-2.995854581452632 -27.476364729511275,-0.034268727618667394 -28.965032361118176,-0.3473082867140991"/>
            <polygon points="-31.052106951965317,-3.641572024843533 -30.365532626028447,-6.906593796110958 -28.535148778469303,-6.243334122821095 -27.981381130865653,-2.995854581452632"/>
            <polygon points="-35.87489065932046,-4.729253020480107 -35.05937490465655,-8.607459054700616 -30.365532626028447,-6.906593796110958 -31.037298112499155,-3.711995839771706"/>
            <polygon points="-36.511321405576986,-1.702690325179704 -36.116915978272424,-3.578295424595904 -33.698119704861774,-3.069666834241705 -34.09252513216634,-1.194061734825505"/>
            <polygon points="-35.0124614627721,1.7622173880065806 -37.14560395399619,1.313656560349081 -36.511321405576986,-1.7026903251797045 -34.378178914352894,-1.2541294975222037"/>
            <polygon points="-24.93662927820187,11.290201558787968 -25.36574423259471,8.773727291437083 -19.803509330178876,7.825242259247551 -19.374394375786036,10.341716526598434"/>
            <polygon points="-23.938266282549385,8.530310482698829 -25.365744232594704,8.77372729143708 -26.201447929928463,3.872880029085224 -24.773969979883148,3.6294632203469717"/>
            <polygon points="-16.061639190144508,6.8556825264963095 -15.853723203678557,8.074971727108633 -19.37439437578603,10.341716526598432 -19.85843812109155,7.503121374264569"/>
            <polygon points="-16.178975353343112,3.9226293050202323 -14.771399761112065,3.0163774860897514 -11.978148021120115,5.579725945652306 -14.193673771413529,7.006167447034311"/>
            <polygon points="-14.193673771413529,7.006167447034311 -15.196170386616643,7.651613692347112 -16.18882117758144,6.109844621340069 -15.186324562378324,5.464398376027268"/>
            <polygon points="-15.775406168523137,2.0950075139598825 -15.035784371691799,2.7737534953628904 -15.961757740356207,3.782776171760724 -16.701379537187545,3.104030190357716"/>
            <polygon points="-23.490498683938455,-2.144795752034647 -20.14369452073186,-1.9137415215250346 -15.77540616852313,2.0950075139598834 -22.5699470722776,3.2536281872816173"/>
            <polygon points="-22.5699470722776,3.2536281872816173 -26.201447929928463,3.872880029085224 -27.27211445354948,-2.4058681898355307 -23.490498683938455,-2.144795752034647"/>
            <polygon points="-25.52610239686995,-2.886756423785859 -27.375893080672594,-3.0144609270097265 -27.88640142872359,-6.008253401466497 -25.165191694567962,-5.022193192491159"/>
        </g>
        <g fill-rule="nonzero" stroke="#9A979B" stroke-linecap="butt" stroke-width="0.09999999999999999">
            <line x1="-28.18090124996725" x2="-32.6996271437175" y1="-8.56131407372753" y2="-10.526405948523832"/>
            <line x1="-32.73452191631728" x2="-22.148309064585696" y1="-12.069337560110293" y2="-7.465632589075447"/>
            <line x1="-32.59664834631149" x2="-20.734885459764488" y1="-13.53713611997839" y2="-8.378723236082822"/>
            <line x1="-32.03792610619613" x2="-19.91583433383888" y1="-14.821917094448152" y2="-9.550293055393105"/>
            <line x1="-31.47920386608078" x2="-19.096783207913276" y1="-16.106698068917908" y2="-10.721862874703387"/>
            <line x1="-30.920481625965422" x2="-18.27773208198767" y1="-17.39147904338767" y2="-11.893432694013669"/>
            <line x1="-30.36175938585007" x2="-17.45868095606206" y1="-18.676260017857427" y2="-13.06500251332395"/>
            <line x1="-29.803037145734717" x2="-16.639629830136457" y1="-19.961040992327185" y2="-14.236572332634234"/>
            <line x1="-29.244314905619362" x2="-15.820578704210849" y1="-21.245821966796942" y2="-15.408142151944517"/>
            <line x1="-28.685592665504007" x2="-15.001527578285245" y1="-22.5306029412667" y2="-16.5797119712548"/>
            <line x1="-28.126870425388653" x2="-14.182476452359637" y1="-23.815383915736454" y2="-17.751281790565077"/>
            <line x1="-27.568148185273298" x2="-13.363425326434033" y1="-25.100164890206216" y2="-18.922851609875362"/>
            <line x1="-27.009425945157947" x2="-12.544374200508425" y1="-26.384945864675974" y2="-20.094421429185648"/>
            <line x1="-26.450703705042592" x2="-11.725323074582818" y1="-27.669726839145735" y2="-21.265991248495933"/>
            <line x1="-25.891981464927238" x2="-10.906271948657213" y1="-28.954507813615493" y2="-22.43756106780621"/>
            <line x1="-25.333259224811883" x2="-10.33954725884027" y1="-30.23928878808525" y2="-23.71886195756696"/>
            <line x1="-24.774536984696528" x2="-9.959893823671363" y1="-31.524069762555012" y2="-25.081515912585605"/>
            <line x1="-24.215814744581174" x2="-10.17104142605438" y1="-32.80885073702477" y2="-26.70109590069694"/>
            <line x1="-23.4946791652593" x2="-11.068309954548363" y1="-34.023001816976105" y2="-28.619054389458913"/>
            <line x1="-22.583684472575705" x2="-11.965578483042345" y1="-35.15458745485467" y2="-30.537012878220885"/>
            <line x1="-20.586180279532183" x2="-12.862847011536322" y1="-35.81367464045949" y2="-32.454971366982846"/>
            <line x1="-15.977097928161104" x2="-14.166807763824234" y1="-35.33704544494394" y2="-34.54979112224156"/>
            <path fill="#9A979B" stroke="#130F26" stroke-width="0.09999999999999999" d="M -31.554790157240003,-13.709340946866545 L -31.047070517034413,-14.876841517393496 L -30.13774426260098,-14.481396058619923 L -29.32841855155331,-16.3424393481954 L -28.09218502878449,-15.804829298799893 L -27.031843907543735,-15.343710883818256 L -27.841169618591405,-13.48266759424278 L -28.348889258796994,-12.31516702371583 L -29.409230380037748,-12.776285438697467 L -30.64546390280657,-13.313895488092971 Z"/>
        </g>
        <g fill-rule="nonzero" stroke="#9A979B" stroke-linecap="butt" stroke-width="0.09999999999999999">
            <line x1="39.02780054482646" x2="43.11197665813191" y1="-7.899696272176525" y2="-0.7254475179769144"/>
            <line x1="37.569412761818306" x2="42.28017733545999" y1="-7.894068608337809" y2="0.38084313302297845"/>
            <line x1="36.449563766986884" x2="41.323871348401276" y1="-7.293764953076305" y2="1.2684258348341708"/>
            <line x1="35.32971477215547" x2="40.2200193452858" y1="-6.693461297814796" y2="1.8968297469663713"/>
            <line x1="34.20986577732405" x2="39.11616734217032" y1="-6.093157642553292" y2="2.5252336590985722"/>
            <line x1="33.090016782492626" x2="38.012315339054844" y1="-5.492853987291785" y2="3.1536375712307727"/>
            <line x1="31.970167787661214" x2="36.90846333593937" y1="-4.892550332030279" y2="3.7820414833629705"/>
            <line x1="30.847245717422098" x2="35.804611332823896" y1="-4.297644829738576" y2="4.41044539549517"/>
            <line x1="29.7079916427099" x2="34.70075932970842" y1="-3.731428066495832" y2="5.0388493076273715"/>
            <line x1="28.553172105521266" x2="33.59690732659294" y1="-3.192553537447214" y2="5.667253219759572"/>
            <line x1="27.3914490492779" x2="32.49305532347746" y1="-2.6658057046046455" y2="6.295657131891773"/>
            <line x1="26.229725993034528" x2="31.389203320361986" y1="-2.139057871762078" y2="6.924061044023974"/>
            <line x1="25.06800293679116" x2="30.285351317246512" y1="-1.6123100389195093" y2="7.552464956156172"/>
            <line x1="23.906279880547793" x2="29.181499314131038" y1="-1.0855622060769416" y2="8.180868868288371"/>
            <line x1="22.88929062135024" x2="28.07764731101556" y1="-0.3045755171371187" y2="8.809272780420573"/>
            <line x1="22.609534745284712" x2="26.973795307900083" y1="1.7714326238058433" y2="9.437676692552774"/>
            <line x1="23.217759731686044" x2="25.786079026950567" y1="5.407264685062064" y2="9.918764922383074"/>
            <line x1="25.47290674408475" x2="43.40919440774018" y1="12.938689057338589" y2="2.7278697580502627"/>
            <line x1="45.54089587369272" x2="24.781165325304443" y1="2.934794761213422" y2="14.752951411378788"/>
            <line x1="46.15161803118503" x2="24.99812780900711" y1="4.0075870590962985" y2="16.049904302122798"/>
            <line x1="46.76234018867734" x2="25.215090292709775" y1="5.080379356979175" y2="17.3468571928668"/>
            <line x1="47.373062346169654" x2="25.619043009398563" y1="6.153171654862053" y2="18.537359768163313"/>
            <line x1="47.98378450366196" x2="26.50724098418044" y1="7.225963952744926" y2="19.45218986765844"/>
            <line x1="48.59450666115427" x2="27.747774397169735" y1="8.298756250627804" y2="20.16644147734926"/>
            <line x1="49.20522881864658" x2="28.98851959563205" y1="9.371548548510681" y2="20.88057252122202"/>
            <line x1="49.815950976138886" x2="30.229264794094366" y1="10.444340846393555" y2="21.594703565094775"/>
            <line x1="49.79670872095351" x2="31.470009992556683" y1="11.875761022210634" y2="22.308834608967533"/>
            <line x1="48.25636882178154" x2="32.710755191019004" y1="14.173115859122175" y2="23.02296565284029"/>
            <line x1="43.39779537466435" x2="33.95150038948131" y1="18.359483840016708" y2="23.737096696713053"/>
            <line x1="38.53922192754715" x2="36.20666480747987" y1="22.545851820911242" y2="23.873736370094562"/>
            <path fill="#9A979B" stroke="#130F26" stroke-width="0.09999999999999999" d="M 29.691756067151665,7.881775035125817 L 28.772496057994246,8.405093907937406 L 28.21445746079435,7.4248453584896925 L 26.638920728907173,8.321771253656374 L 25.787353380377926,8.806553861967537 L 25.180311394753115,7.74022614046511 L 26.031878743282363,7.255443532153947 L 25.40610084987184,6.156204383876231 L 26.98163758175902,5.259278488709549 L 27.60741547516954,6.358517636987266 L 28.526675484326958,5.8351987641756775 L 29.13371746995177,6.9015264856781045 Z"/>
        </g>
        <g stroke="#CCCAC2" stroke-linecap="square" stroke-width="0.6">
            <polyline points="-9.575485482479639,33.068134957215364 -9.344256561684444,41.06479258313558"/>
            <polyline points="-3.577992263039482,32.89471326661897 -3.346763342244288,40.891370892539186"/>
        </g>
        <g fill-rule="nonzero" stroke="#9A979B" stroke-linecap="butt" stroke-width="0.09999999999999999">
            <line x1="-38.96971717747681" x2="-39.08239955176722" y1="2.698979934037631" y2="1.4948850761113341"/>
            <line x1="-39.800404745950125" x2="-40.36199504072365" y1="6.649335916961406" y2="0.6483265270157066"/>
            <line x1="-40.631092314423434" x2="-41.56823473840774" y1="10.599691899885181" y2="0.5856290886426176"/>
            <line x1="-41.57353078158995" x2="-42.75818579770402" y1="13.355906533440987" y2="0.696987848933162"/>
            <line x1="-42.68998995464866" x2="-43.94813685700031" y1="14.252580680234793" y2="0.8083466092237046"/>
            <line x1="-43.853736764689216" x2="-45.13808791629659" y1="14.64395130558703" y2="0.919705369514249"/>
            <line x1="-45.0436878239855" x2="-46.328038975592875" y1="14.755310065877575" y2="1.0310641298047933"/>
            <line x1="-46.233638883281785" x2="-47.51799003488916" y1="14.86666882616812" y2="1.1424228900953377"/>
            <line x1="-47.42358994257807" x2="-48.70794109418544" y1="14.978027586458664" y2="1.253781650385882"/>
            <line x1="-48.61354100187435" x2="-49.89789215348173" y1="15.089386346749208" y2="1.3651404106764247"/>
            <line x1="-49.80349206117064" x2="-51.08784321277801" y1="15.200745107039753" y2="1.476499170966969"/>
            <line x1="-50.99344312046692" x2="-52.27779427207429" y1="15.312103867330295" y2="1.5878579312575134"/>
            <line x1="-52.1833941797632" x2="-53.46774533137058" y1="15.42346262762084" y2="1.6992166915480578"/>
            <line x1="-53.37334523905949" x2="-54.65769639066686" y1="15.534821387911384" y2="1.8105754518386004"/>
            <line x1="-54.563296298355766" x2="-55.84764744996315" y1="15.646180148201928" y2="1.9219342121291465"/>
            <line x1="-55.75324735765206" x2="-57.037598509259425" y1="15.757538908492473" y2="2.033292972419689"/>
            <line x1="-56.99004026389431" x2="-58.19105386495895" y1="15.368357744960885" y2="2.5346354308173424"/>
            <line x1="-58.53233896286754" x2="-59.30751303801765" y1="11.714620288481425" y2="3.4313095776111453"/>
            <line x1="-60.7650311976934" x2="-46.63768597022846" y1="-13.091924339132953" y2="-11.475542778579293"/>
            <line x1="-61.55838591203903" x2="-37.282004276754336" y1="-11.389505358924659" y2="-8.611920823370765"/>
            <line x1="-61.31995093739399" x2="-36.97568675779381" y1="-9.569034062389328" y2="-6.783682739010238"/>
            <line x1="-61.08151596274895" x2="-37.34390289314422" y1="-7.748562765853999" y2="-5.032621487469045"/>
            <line x1="-60.84308098810392" x2="-37.712119028494634" y1="-5.9280914693186695" y2="-3.281560235927853"/>
            <line x1="-60.60464601345889" x2="-39.77578980352779" y1="-4.107620172783341" y2="-1.724484589764985"/>
            <line x1="-60.366211038813844" x2="-47.7545180568122" y1="-2.2871488762480117" y2="-0.8441808128753929"/>
            <line x1="-56.375721248304465" x2="-58.622628483509175" y1="-0.0373858677242751" y2="-0.2944659747636931"/>
        </g>
        <g fill-rule="nonzero" stroke="#9A979B" stroke-linecap="butt" stroke-width="0.09999999999999999">
            <line x1="70.1519191554737" x2="65.38483782482353" y1="-13.662872042159256" y2="-15.64775422350773"/>
            <line x1="76.4845229783866" x2="63.95074437532761" y1="-9.197818565584305" y2="-14.416540900826163"/>
            <line x1="76.44499166031433" x2="62.86926726744335" y1="-7.385947743386437" y2="-13.03850778532562"/>
            <line x1="75.79620287528535" x2="62.220478482414364" y1="-5.8277550538104395" y2="-11.48031509574962"/>
            <line x1="75.14741409025636" x2="61.57168969738539" y1="-4.269562364234436" y2="-9.922122406173617"/>
            <line x1="74.49862530522739" x2="60.92290091235641" y1="-2.711369674658433" y2="-8.363929716597614"/>
            <line x1="73.84983652019841" x2="60.27411212732743" y1="-1.1531769850824287" y2="-6.805737027021614"/>
            <line x1="73.20104773516942" x2="59.625323342298444" y1="0.405015704493569" y2="-5.247544337445612"/>
            <line x1="72.55225895014044" x2="58.97653455726947" y1="1.963208394069572" y2="-3.6893516478696107"/>
            <line x1="71.90347016511147" x2="58.32774577224048" y1="3.5214010836455745" y2="-2.131158958293609"/>
            <line x1="71.25468138008249" x2="57.67895698721151" y1="5.079593773221576" y2="-0.5729662687176091"/>
            <line x1="70.6058925950535" x2="57.03016820218252" y1="6.637786462797575" y2="0.9852264208583925"/>
            <line x1="69.95710381002452" x2="56.381379417153546" y1="8.195979152373573" y2="2.5434191104343924"/>
            <line x1="68.71215982991072" x2="55.73259063212457" y1="9.50594913669927" y2="4.10161180001039"/>
            <line x1="67.19897960145646" x2="55.083801847095586" y1="10.704232889388958" y2="5.659804489586392"/>
            <line x1="63.16488934504502" x2="54.43501306206661" y1="10.85287870888389" y2="7.217997179162391"/>
            <line x1="59.130799088633566" x2="53.985067359788424" y1="11.001524528378823" y2="8.858982685655285"/>
            <line x1="62.245603255546186" x2="52.157527180908225" y1="-17.5242556380663" y2="6.704224807515509"/>
            <line x1="50.31999153965308" x2="60.91064321153016" y1="7.2871480461468225" y2="-18.148365627579174"/>
            <line x1="49.39887358661651" x2="59.3373846725841" y1="5.669115634293944" y2="-18.20015534691298"/>
            <line x1="48.47775563357994" x2="57.72935310796353" y1="4.051083222441065" y2="-18.168430869252703"/>
            <line x1="47.55663768054337" x2="56.12132154334297" y1="2.4330508105881936" y2="-18.136706391592426"/>
            <line x1="46.6355197275068" x2="54.513289978722405" y1="0.8150183987353152" y2="-18.10498191393215"/>
            <line x1="45.714401774470225" x2="52.90525841410184" y1="-0.8030140131175632" y2="-18.073257436271874"/>
            <line x1="44.793283821433654" x2="51.29722684948128" y1="-2.421046424970436" y2="-18.041532958611597"/>
            <line x1="43.87216586839708" x2="49.50180977836357" y1="-4.039078836823313" y2="-17.559765673347478"/>
            <line x1="42.95104791536051" x2="47.215576537202224" y1="-5.657111248676186" y2="-15.8992077157792"/>
            <line x1="42.02992996232394" x2="44.619440645086826" y1="-7.275143660529064" y2="-13.494358154626473"/>
            <line x1="41.541750902126616" x2="42.02330475297142" y1="-9.932963185571804" y2="-11.089508593473749"/>
            <path fill="#9A979B" stroke="#130F26" stroke-width="0.09999999999999999" d="M 60.97245537593868,-14.808432576320312 L 60.33989095680203,-13.289205862898344 L 59.381851693801785,-13.688107188523947 L 58.75699866606668,-12.187400884186733 L 57.185880617664765,-12.841571434837402 L 56.28392567614655,-13.217120784140098 L 56.90877870388166,-14.717827088477312 L 57.81073364539987,-14.342277739174616 L 58.44329806453652,-15.861504452596586 L 60.014416112938434,-15.207333901945915 Z"/>
        </g>
        <g fill-rule="nonzero" stroke="#9A979B" stroke-linecap="butt" stroke-width="0.09999999999999999">
            <line x1="38.03592361043965" x2="45.27455172641527" y1="26.024541672568287" y2="19.564873211679114"/>
            <line x1="38.18381665309303" x2="46.74438108031671" y1="27.931997812150044" y2="20.292648594042927"/>
            <line x1="38.95154267283435" x2="48.121837686442085" y1="29.286322133248504" y2="21.10285635390901"/>
            <line x1="39.71926869257567" x2="49.13498116428454" y1="30.640646454346964" y2="22.23817295856618"/>
            <line x1="40.48699471231698" x2="50.148124642126994" y1="31.994970775445424" y2="23.37348956322335"/>
            <line x1="41.25472073205829" x2="51.16126811996945" y1="33.349295096543884" y2="24.508806167880525"/>
            <line x1="42.022446751799606" x2="52.174411597811904" y1="34.703619417642344" y2="25.644122772537695"/>
            <line x1="42.92299442896281" x2="53.18755507565436" y1="35.939415219576" y2="26.779439377194862"/>
            <line x1="43.84703048171005" x2="54.200698553496814" y1="37.15425026533782" y2="27.914755981852036"/>
            <line x1="44.851553297880464" x2="55.21384203133927" y1="38.29725984930304" y2="29.050072586509206"/>
            <line x1="45.86469677572292" x2="56.226985509181716" y1="39.43257645396021" y2="30.185389191166372"/>
            <line x1="46.877840253565374" x2="57.24012898702418" y1="40.56789305861738" y2="31.320705795823546"/>
            <line x1="47.89098373140783" x2="58.253272464866626" y1="41.70320966327455" y2="32.45602240048071"/>
            <line x1="48.90412720925028" x2="59.26641594270909" y1="42.83852626793172" y2="33.59133900513788"/>
            <line x1="49.91727068709273" x2="60.279559420551536" y1="43.97384287258889" y2="34.72665560979505"/>
            <line x1="50.930414164935186" x2="61.29270289839399" y1="45.10915947724607" y2="35.86197221445223"/>
            <line x1="51.94355764277764" x2="62.305846376236445" y1="46.24447608190323" y2="36.9972888191094"/>
            <line x1="52.956701120620096" x2="63.21494673598134" y1="47.37979268656041" y2="38.22545230549324"/>
            <line x1="53.969844598462544" x2="63.69209197664378" y1="48.51510929121757" y2="39.83908757113569"/>
            <line x1="59.58776164264471" x2="55.846447887619824" y1="45.54117893644427" y2="48.879884293097035"/>
            <line x1="65.12615387114803" x2="48.764689953861705" y1="36.703311142330094" y2="18.36884808942492"/>
            <line x1="48.679800486689565" x2="67.49402477717322" y1="16.44829285201664" y2="37.53129018445557"/>
            <line x1="49.60069549374878" x2="68.3551491543673" y1="15.654807806811485" y2="36.67082687798654"/>
            <line x1="50.521590500808" x2="69.21122077783096" y1="14.861322761606331" y2="35.80470151541704"/>
            <line x1="51.44248550786722" x2="70.06729240129461" y1="14.067837716401176" y2="34.93857615284753"/>
            <line x1="52.581452079842144" x2="70.92336402475827" y1="13.51872108896407" y2="34.07245079027802"/>
            <line x1="53.93981490586823" x2="71.77943564822192" y1="13.21545731028073" y2="33.206325427708514"/>
            <line x1="55.49854350520719" x2="72.63550727168558" y1="13.136721048599723" y2="32.340200065139"/>
            <line x1="57.07567583582237" x2="73.49157889514923" y1="13.078607790631919" y2="31.474074702569496"/>
            <line x1="58.65280816643756" x2="74.3476505186129" y1="13.020494532664113" y2="30.607949339999983"/>
            <line x1="60.22994049705274" x2="75.20372214207654" y1="12.962381274696309" y2="29.741823977430478"/>
            <line x1="61.80707282766792" x2="76.0597937655402" y1="12.904268016728505" y2="28.87569861486097"/>
            <line x1="63.3842051582831" x2="76.227188502288" y1="12.846154758760699" y2="27.237850074053032"/>
            <line x1="64.9613374888983" x2="75.31749436744116" y1="12.788041500792895" y2="24.393028476263108"/>
            <line x1="66.53846981951347" x2="72.87947258014587" y1="12.729928242825089" y2="19.835580977868794"/>
            <line x1="68.99443019389297" x2="70.44145079285059" y1="13.65661930186159" y2="15.278133479474453"/>
        </g>
        <g fill-rule="nonzero" stroke="#9A979B" stroke-linecap="butt" stroke-width="0.09999999999999999">
            <line x1="105.89925021762787" x2="90.40372704046428" y1="37.23279003221242" y2="31.234212508026783"/>
            <line x1="107.2572336230731" x2="89.83650691378531" y1="36.423575293948936" y2="29.6797191170036"/>
            <line x1="108.21589356365735" x2="89.66861025196734" y1="35.45977572922891" y2="28.279810552436956"/>
            <line x1="108.55723908667835" x2="90.11802800771261" y1="34.257003375516" y2="27.118874776863198"/>
            <line x1="108.89858460969934" x2="90.5674457634579" y1="33.05423102180309" y2="25.95793900128944"/>
            <line x1="109.23993013272033" x2="91.01686351920317" y1="31.851458668090178" y2="24.797003225715677"/>
            <line x1="109.58127565574134" x2="91.46628127494844" y1="30.648686314377265" y2="23.636067450141915"/>
            <line x1="109.92262117876233" x2="91.91569903069372" y1="29.445913960664353" y2="22.475131674568157"/>
            <line x1="110.26396670178332" x2="92.36511678643899" y1="28.243141606951447" y2="21.314195898994402"/>
            <line x1="110.60531222480432" x2="92.81453454218428" y1="27.04036925323853" y2="20.153260123420637"/>
            <line x1="110.94665774782531" x2="93.26395229792955" y1="25.837596899525625" y2="18.992324347846882"/>
            <line x1="111.2880032708463" x2="93.71337005367482" y1="24.634824545812712" y2="17.83138857227312"/>
            <line x1="111.6293487938673" x2="94.1627878094201" y1="23.432052192099803" y2="16.670452796699365"/>
            <line x1="111.97069431688828" x2="94.61220556516538" y1="22.229279838386894" y2="15.509517021125605"/>
            <line x1="112.31203983990929" x2="95.06162332091066" y1="21.026507484673978" y2="14.348581245551841"/>
            <line x1="112.65338536293028" x2="95.51104107665593" y1="19.82373513096107" y2="13.187645469978085"/>
            <line x1="112.99473088595127" x2="95.9604588324012" y1="18.62096277724816" y2="12.026709694404326"/>
            <line x1="96.96156828148085" x2="112.7843847156379" y1="11.079343048060917" y2="17.204621294304907"/>
            <line x1="98.31955168692609" x2="112.21716458895894" y1="10.27012830979743" y2="15.650127903281726"/>
            <line x1="113.19282810940388" x2="99.12400709794386" y1="13.239804694999288" y2="7.793527564098125"/>
            <line x1="98.25205097800222" x2="114.73526006952525" y1="6.107069736164881" y2="12.487997082237342"/>
            <line x1="98.70618069329402" x2="115.0801844593696" y1="4.933962028484131" y2="11.272614157175362"/>
            <line x1="99.1603104085858" x2="115.42510884921393" y1="3.7608543208033858" y2="10.057231232113386"/>
            <line x1="99.6144401238776" x2="115.77003323905828" y1="2.587746613122636" y2="8.841848307051407"/>
            <line x1="100.0685698391694" x2="116.11495762890262" y1="1.4146389054418902" y2="7.626465381989426"/>
            <line x1="100.52269955446118" x2="116.45988201874695" y1="0.24153119776113896" y2="6.411082456927451"/>
            <line x1="100.97682926975298" x2="116.8048064085913" y1="-0.9315765099196044" y2="5.195699531865473"/>
            <line x1="101.43095898504478" x2="116.4266998044637" y1="-2.1046842176003557" y2="3.7004191538332343"/>
            <line x1="101.88508870033657" x2="114.19659972520097" y1="-3.277791925281102" y2="1.4882009668694263"/>
            <line x1="102.33921841562837" x2="109.85155719001352" y1="-4.4508996329618515" y2="-1.5427470000448156"/>
            <line x1="103.92368983614828" x2="105.50651465482609" y1="-5.186433063858986" y2="-4.573694966959058"/>
            <line x1="101.10815791620105" x2="96.40460692704116" y1="-7.641833036204452" y2="4.50837808862256"/>
            <line x1="99.50928262945172" x2="94.53645081392635" y1="-7.925516723761691" y2="4.920300529232933"/>
            <line x1="97.85427759893328" x2="92.99286856027102" y1="-8.064206078579943" y2="4.493783899634118"/>
            <line x1="96.19462552557695" x2="91.50686603410938" y1="-8.1908911941082" y2="3.9185273398909066"/>
            <line x1="94.53497345222061" x2="90.02086350794772" y1="-8.317576309636458" y2="3.3432707801476917"/>
            <line x1="92.87532137886427" x2="88.53486098178608" y1="-8.444261425164719" y2="2.7680142204044804"/>
            <line x1="91.21566930550793" x2="87.04885845562444" y1="-8.570946540692976" y2="2.1927576606612695"/>
            <line x1="89.55601723215159" x2="85.5628559294628" y1="-8.697631656221235" y2="1.6175011009180587"/>
            <line x1="87.89636515879526" x2="84.07685340330116" y1="-8.824316771749492" y2="1.0422445411748482"/>
            <line x1="86.23671308543892" x2="82.5908508771395" y1="-8.951001887277751" y2="0.46698798143163245"/>
            <line x1="84.57706101208258" x2="81.10484835097786" y1="-9.077687002806009" y2="-0.10826857831157888"/>
            <line x1="82.91740893872624" x2="79.61884582481622" y1="-9.204372118334268" y2="-0.6835251380547893"/>
            <line x1="81.20972517741075" x2="78.16338118635835" y1="-9.206981795809305" y2="-1.3376671576903651"/>
            <line x1="79.32561799347415" x2="76.8989872956619" y1="-8.753854555123755" y2="-2.4853830602136284"/>
            <line x1="87.07321076182933" x2="94.49263706924829" y1="28.613237110672927" y2="9.44737789749636"/>
            <line x1="85.2883752985206" x2="93.80182827579047" y1="29.575668347521827" y2="7.583719857219325"/>
            <line x1="84.06017111975339" x2="92.7864445482763" y1="29.100209862020563" y2="6.558503663049681"/>
            <line x1="82.83196694098618" x2="91.55824036950908" y1="28.624751376519303" y2="6.083045177548421"/>
            <line x1="81.60376276221896" x2="90.33003619074186" y1="28.149292891018042" y2="5.607586692047157"/>
            <line x1="80.37555858345175" x2="89.10183201197465" y1="27.67383440551678" y2="5.132128206545893"/>
            <line x1="79.29055404954741" x2="87.87362783320744" y1="26.82846265191358" y2="4.656669721044633"/>
            <line x1="78.31514589768098" x2="86.64542365444022" y1="25.699981565947123" y2="4.181211235543369"/>
            <line x1="77.48307930217061" x2="85.41721947567301" y1="24.201220626163515" y2="3.705752750042109"/>
            <line x1="76.66373344524996" x2="84.1890152969058" y1="22.669599479297" y2="3.230294264540845"/>
            <line x1="75.84438758832931" x2="82.96081111813858" y1="21.137978332430485" y2="2.754835779039581"/>
            <line x1="75.02504173140868" x2="81.73260693937137" y1="19.60635718556397" y2="2.279377293538321"/>
            <line x1="74.20569587448803" x2="80.50440276060415" y1="18.074736038697456" y2="1.8039188080370572"/>
            <line x1="73.38635001756738" x2="79.27619858183694" y1="16.543114891830943" y2="1.328460322535797"/>
            <line x1="72.56700416064673" x2="78.04799440306972" y1="15.011493744964426" y2="0.8530018370345331"/>
            <line x1="71.74765830372608" x2="76.65002083030272" y1="13.479872598097911" y2="0.8160915854921029"/>
            <line x1="71.28753375782411" x2="75.1450973904999" y1="11.020311097342853" y2="1.0554541897669445"/>
            <path fill="#9A979B" stroke="#130F26" stroke-width="0.09999999999999999" d="M 96.56654132289357,-8.326362746371926 L 97.6439652622908,-8.244120462927892 L 99.29623734614732,-8.11799867921923 L 100.11276663919838,-8.055671092923877 L 100.0141789929302,-6.764112957984066 L 99.19764969987914,-6.8264405442794205 L 97.54537761602262,-6.9525623279880815 L 97.46345321570392,-5.879302850894536 L 97.35844912536443,-4.503685395630384 L 96.2810251859672,-4.585927679074418 L 96.38602927630669,-5.96154513433857 L 96.46795367662538,-7.034804611432115 Z"/>
        </g>
        <g id="cityName" fill="#130F26" style="font:bold 4px &quot;Archivo Narrow&quot;, sans-serif">
            <text x="0" y="-35.241088115236266" stroke="#CCCAC2" stroke-width="0.4715547385066603" text-anchor="middle"/>
            <text x="0" y="-35.241088115236266" text-anchor="middle"/>
        </g>
    </g>
    <g id="scaleBar" fill="none" stroke="#130F26" stroke-linecap="butt" stroke-linejoin="miter" stroke-width="1" transform="translate(4 80.33861147656704) scale(0.2357773692533302 0.2357773692533302)">
        <path d="M 0,-5 L 0,0 L 53.01611447945802,0 L 53.01611447945802,-5 M 13.254028619864505,0 L 13.254028619864505,-2.5 M 26.50805723972901,0 L 26.50805723972901,-5 M 39.76208585959351,0 L 39.76208585959351,-2.5"/>
        <text x="0" y="-6" fill="#130F26" stroke="none" style="font:bold 6px &quot;Archivo Narrow&quot;, sans-serif" text-anchor="middle">
            0
        </text>
        <text x="26.50805723972901" y="-6" fill="#130F26" stroke="none" style="font:bold 6px &quot;Archivo Narrow&quot;, sans-serif" text-anchor="middle">
            25
        </text>
        <text x="53.01611447945802" y="-6" fill="#130F26" stroke="none" style="font:bold 6px &quot;Archivo Narrow&quot;, sans-serif" text-anchor="middle">
            50m
        </text>
    </g>
</svg>
