<?xml version="1.0" encoding="UTF-8" standalone="no"?><svg width="164.084" height="163.268" xmlns="http://www.w3.org/2000/svg"><style><![CDATA[@import url("https://fonts.googleapis.com/css?family=IM+Fell+Great+Primer");]]></style><rect x="0" y="0" width="164.084" height="163.268" id="background" fill="#6C823A"/><g id="map" transform="translate(106.387 59.463)"><g fill="none"><polyline points="-40.208,47.262 -48.491,59.595 -59.967,61.445 -74.887,83.68" stroke="#888888" stroke-width="2.285" stroke-linejoin="round" stroke-linecap="butt"/><polyline points="6.915,8.793 -8.827,8.837 -14.889,16.237 -21.087,21.772 -32.308,21.492 -39.112,28.175 -40.208,47.262 -48.491,59.595 -59.967,61.445 -74.887,83.68" stroke="#FFFFFF" stroke-width="1.715" stroke-linejoin="round" stroke-linecap="round"/></g><g fill="none"><polyline points="11.145,31.243 19.134,46.806 24.631,54.727 27.444,58.635 29.405,61.171 31.124,63.213 32.602,64.764 34.043,66.115 35.445,67.267 36.81,68.22 38.137,68.973 39.484,70.057 40.851,71.471 42.237,73.215 43.643,75.289 45.254,78.118 47.071,81.701 49.65,87.312 54.662,98.769" stroke="#888888" stroke-width="2.285" stroke-linejoin="round" stroke-linecap="butt"/><polyline points="6.915,8.793 8.861,20.088 11.145,31.243 19.134,46.806 24.631,54.727 27.444,58.635 29.405,61.171 31.124,63.213 32.602,64.764 34.043,66.115 35.445,67.267 36.81,68.22 38.137,68.973 39.484,70.057 40.851,71.471 42.237,73.215 43.643,75.289 45.254,78.118 47.071,81.701 49.65,87.312 54.662,98.769" stroke="#FFFFFF" stroke-width="1.715" stroke-linejoin="round" stroke-linecap="round"/></g><g fill="none"><polyline points="-8.827,8.837 -11.048,-1.737" stroke="#888888" stroke-width="2.285" stroke-linejoin="round" stroke-linecap="butt"/><polyline points="-8.827,8.837 -11.048,-1.737" stroke="#FFFFFF" stroke-width="1.715" stroke-linejoin="round" stroke-linecap="round"/></g><g fill="#888888" stroke="#000000" stroke-width="0.285"><polygon points="-3.145,2.639 1.77,-1.077 2.021,-1.067 3.195,0.026 3.711,0.86 3.708,1.657 0.092,5.872 -2.162,3.938"/><polygon points="7.899,-4.312 10.345,-1.66 7.924,0.572 5.479,-2.08"/><polygon points="5.33,-7.098 7.899,-4.312 4.9,-1.547 2.331,-4.333"/><polygon points="-3.145,2.639 -5.109,0.039 -2.065,-2.262 -0.101,0.337"/><polygon points="-3.367,-5.203 -0.077,-7.616 2.331,-4.333 -0.958,-1.92"/><polygon points="10.19,3.013 8.324,5.887 4.705,3.538 6.571,0.664"/><polygon points="0.092,5.872 3.708,1.657 4.705,3.538 4.717,7.799 2.347,7.806"/><polygon points="4.717,7.799 4.705,3.538 8.324,5.887 7.088,7.792"/><polygon points="10.797,2.077 8.426,0.538 10.558,-1.428 12.034,0.172"/><polygon points="4.585,-7.905 2.331,-4.333 -0.077,-7.616 1.583,-8.834 3.94,-8.606"/><polygon points="-4.529,-4.35 -2.065,-2.262 -5.109,0.039 -6.092,-1.26 -5.058,-3.962"/><polygon points="-2.749,4.489 1.122,7.809 -8.015,7.835 -8.567,5.21 -6.429,-0.379"/></g><g fill="#888888" stroke="#000000" stroke-width="0.285"><polygon points="1.364,18.467 -2.002,13.914 -0.438,12.827 1.534,12.664 2.023,18.574"/><polygon points="-3.171,9.821 -0.446,9.814 -0.438,12.827 -3.163,12.835"/><polygon points="-0.635,18.143 -4.128,17.577 -3.812,15.624 -0.319,16.191"/><polygon points="-6.558,15.309 -6.049,12.139 -3.407,12.563 -3.915,15.732"/><polygon points="1.534,12.664 -0.438,12.827 -0.446,9.814 1.298,9.809"/><polygon points="-3.935,9.824 -3.929,11.983 -5.972,11.655 -5.679,9.829"/><polygon points="-6.558,15.309 -3.915,15.732 -4.212,17.563 -6.851,17.135"/><polygon points="6.382,11.585 4.636,11.886 4.091,11.259 4.087,9.801 6.073,9.795"/><polygon points="2.602,15.863 2.233,11.413 3.952,11.271 4.321,15.721"/><polygon points="6.382,11.585 7.181,16.226 5.435,16.526 4.636,11.886"/><polygon points="4.087,9.801 4.091,11.259 2.233,11.413 2.1,9.807"/><polygon points="2.602,15.863 4.321,15.721 5.68,16.704 5.291,19.104 2.837,18.706"/><polygon points="5.291,19.104 5.68,16.704 7.218,16.439 7.745,19.502"/><polygon points="-10.548,16.536 -10.449,15.925 -9.196,14.918 -7.353,15.213 -7.64,17.007"/><polygon points="-7.353,15.213 -9.196,14.918 -8.755,11.308 -6.777,11.625"/><polygon points="-12.179,14.507 -10.852,12.887 -9.121,14.305 -10.449,15.925"/><polygon points="-12.179,14.507 -10.449,15.925 -10.548,16.536 -13.455,16.064"/><polygon points="-6.777,11.625 -8.755,11.308 -9.127,10.782 -8.352,9.836 -6.489,9.831"/></g><g fill="#888888" stroke="#000000" stroke-width="0.571"><polygon points="1.994,-11.306 -11.048,-1.737 -21.483,-12.736 -12.127,-21.699" fill="#FFFFFF"/><polygon points="-10.584,-6.915 -12.742,-9.189 -14.216,-10.742 -15.983,-12.605 -13.772,-14.702 -11.775,-16.597 -10.008,-14.735 -8.534,-13.181 -10.532,-11.286 -8.374,-9.012"/></g><g fill="#888888" stroke="#000000" stroke-width="0.285"><polygon points="19.189,-3.112 14.674,-1.206 13.554,-3.859 18.07,-5.765"/><polygon points="21.044,-12.78 22.852,-9.922 19.351,-7.706 17.542,-10.565"/><polygon points="21.044,-12.78 16.375,-9.826 13.849,-13.817 18.518,-16.772"/><polygon points="10.971,-2.161 8.576,-4.758 11.292,-7.263 13.687,-4.666"/><polygon points="23.735,-5.03 19.189,-3.112 18.107,-5.677 22.652,-7.596"/><polygon points="5.749,-7.824 7.574,-9.506 10.4,-6.441 8.576,-4.758"/><polygon points="11.446,-1.646 13.502,-3.543 14.516,-1.14 12.642,-0.349"/><polygon points="8.588,-19.221 10.729,-17.575 7.711,-13.652 5.571,-15.299"/><polygon points="4.491,-11.417 9.908,-11.659 5.749,-7.824 4.596,-9.074"/><polygon points="5.571,-15.299 10.179,-11.754 9.908,-11.659 4.491,-11.417 4.387,-13.76"/><polygon points="23.735,-5.03 22.652,-7.596 23.847,-8.351 25.482,-5.767"/><polygon points="16.892,-19.34 18.518,-16.772 13.877,-13.835 12.252,-16.403"/><polygon points="8.588,-19.221 10.259,-21.393 13.113,-19.198 11.442,-17.026"/><polygon points="14.121,-23.719 16.108,-20.58 14.609,-19.632 12.623,-22.771"/><polygon points="14.121,-23.719 12.623,-22.771 11.804,-23.401 13.185,-25.197"/></g><g fill="#888888" stroke="#000000" stroke-width="0.285"><polygon points="7.925,7.972 12.364,8.982 13.033,12.867 8.759,13.604 7.817,8.138"/><polygon points="17.591,17.343 13.275,18.496 12.713,16.391 17.029,15.238"/><polygon points="11.232,2.877 14.297,4.867 11.72,8.836 7.925,7.972"/><polygon points="9.474,17.757 8.759,13.604 11.786,13.082 12.502,17.236"/><polygon points="14.767,-0.377 17.992,7.265 11.232,2.877 12.807,0.45"/><polygon points="19.556,-2.398 20.639,0.168 15.85,2.189 14.767,-0.377"/><polygon points="9.474,17.757 12.502,17.236 12.867,18.605 9.763,19.433"/><polygon points="22.742,15.968 22.068,13.442 27.43,12.01 28.104,14.537"/><polygon points="19.556,-2.398 24.085,-4.309 24.683,-2.891 20.155,-0.98"/><polygon points="26.469,-1.879 27.149,1.249 24.539,1.816 23.858,-1.311"/><polygon points="26.178,-3.216 24.683,-2.891 24.085,-4.309 25.784,-5.026"/></g><g fill="#888888" stroke="#000000" stroke-width="0.285"><polygon points="-3.26,18.528 -0.276,19.012 -0.592,20.962 -3.576,20.478"/><polygon points="-5.393,20.169 -4.072,20.026 -2.65,21.322 -2.226,25.224 -4.813,25.506"/><polygon points="4.677,19.815 4.185,22.851 -0.768,22.048 -0.276,19.012"/><polygon points="-3.814,18.438 -4.072,20.026 -5.393,20.169 -5.613,18.146"/><polygon points="-4.364,29.636 -4.813,25.506 -1.85,25.184 -1.401,29.314"/><polygon points="8.272,22.196 4.155,23.039 4.677,19.815 7.891,20.336"/><polygon points="8.272,22.196 9.052,26.007 4.935,26.849 4.155,23.039"/><polygon points="2.8,31.76 -0.295,32.102 -0.707,28.363 2.388,28.022"/><polygon points="2.8,31.76 2.525,29.268 7.556,28.713 7.831,31.206"/><polygon points="-4.252,30.667 -2.227,30.447 -2.024,32.292 -4.051,32.516"/><polygon points="7.831,31.206 7.466,27.896 9.359,27.508 10.066,30.96"/><polygon points="-15.121,31.744 -11.583,29.789 -11.196,33.303 -14.084,33.621"/><polygon points="-8.282,32.982 -11.196,33.303 -11.583,29.789 -8.669,29.468"/><polygon points="-15.121,31.744 -17.331,27.743 -13.793,25.789 -11.583,29.789"/><polygon points="-5.649,25.223 -5.187,29.467 -8.173,29.792 -8.634,25.548"/><polygon points="-6.577,32.794 -6.81,30.681 -5.076,30.492 -4.846,32.603"/><polygon points="-17.331,27.743 -18.91,24.885 -15.667,23.093 -14.087,25.951"/><polygon points="-6.177,20.366 -5.649,25.223 -8.634,25.548 -9.162,20.69"/><polygon points="-18.714,20.994 -17.136,22.761 -19.394,24.009 -20.285,22.397"/><polygon points="-17.753,20.136 -15.573,18.189 -12.793,21.302 -14.973,23.249"/><polygon points="-12.11,17.093 -9.604,17.499 -10.286,21.708 -12.793,21.302"/><polygon points="-6.212,20.039 -8.748,20.315 -8.325,17.707 -6.432,18.014"/><polygon points="-12.11,17.093 -12.793,21.302 -15.573,18.189 -14.003,16.786"/></g><g fill="#888888" stroke="#000000" stroke-width="0.285"><polygon points="-20.777,11.551 -17.072,11.251 -17,11.855 -18.621,15.631 -20.945,15.231 -20.628,13.39"/><polygon points="-12.152,11.318 -14.362,14.016 -17,11.855 -14.789,9.157"/><polygon points="-20.777,11.551 -21.093,7.647 -17.72,7.374 -17.405,11.278"/><polygon points="-18.055,17.724 -18.621,15.631 -17,11.855 -14.362,14.016 -15.614,15.543"/><polygon points="-11.86,10.962 -13.877,9.309 -11.365,7.991 -10.608,9.434"/><polygon points="-12.88,5.105 -11.524,7.689 -14.434,9.216 -15.79,6.631"/><polygon points="-20.945,15.231 -18.621,15.631 -18.055,17.724 -19.739,19.228 -21.579,18.911"/><polygon points="-19.501,3.285 -15.591,3.536 -15.786,6.565 -19.695,6.315"/><polygon points="-12.88,5.105 -15.79,6.631 -15.591,3.536 -13.637,3.661"/><polygon points="-19.501,3.285 -19.695,6.315 -21.191,6.436 -21.456,3.16"/><polygon points="-21.579,18.911 -19.739,19.228 -21.457,20.763 -21.896,20.752"/><polygon points="-32.035,18.639 -32.218,14.556 -29.407,14.43 -29.224,18.514"/><polygon points="-21.752,15.198 -22.387,18.887 -24.597,18.507 -23.962,14.818"/><polygon points="-32.456,9.239 -29.351,9.1 -29.112,14.417 -32.218,14.556"/><polygon points="-21.752,15.198 -24.686,14.693 -24.3,12.453 -24.477,10.261 -21.702,10.037 -21.434,13.354"/><polygon points="-25.01,20.674 -28.91,20.576 -28.844,17.97 -24.945,18.068"/><polygon points="-24.651,20.683 -24.597,18.507 -22.387,18.887 -22.704,20.732"/><polygon points="-32.035,18.639 -29.224,18.514 -29.275,20.567 -31.952,20.5"/><polygon points="-21.702,10.037 -25.032,10.306 -25.38,6.007 -26.178,5.956 -25.744,5.207 -22.117,4.914"/><polygon points="-32.456,9.239 -32.634,5.262 -30.068,5.147 -29.89,9.124"/><polygon points="-29.827,2.623 -25.739,2.886 -25.906,5.487 -29.994,5.225"/><polygon points="-22.117,4.914 -25.744,5.207 -25.595,2.895 -22.263,3.108"/><polygon points="-30.845,2.558 -30.951,4.213 -32.678,4.29 -32.761,2.435"/><polygon points="-30.331,-5.442 -26.673,-8.248 -24.128,-4.932 -27.785,-2.125"/><polygon points="-26.685,2.023 -31.131,1.738 -30.958,-0.96 -26.512,-0.675"/><polygon points="-20.915,2.393 -26.685,2.023 -26.441,-1.792 -20.671,-1.422"/><polygon points="-31.259,-4.729 -29.256,-2.12 -30.958,-0.96 -32.909,-0.873 -33.022,-3.376"/><polygon points="-32.909,-0.873 -30.958,-0.96 -31.131,1.738 -32.797,1.631"/><polygon points="-19.4,-7.326 -17.246,-3.219 -20.671,-1.422 -22.825,-5.529"/><polygon points="-21.748,-10.249 -24.076,-4.873 -24.08,-4.869 -26.673,-8.248 -23.851,-10.415"/><polygon points="-19.4,-7.326 -24.076,-4.873 -21.748,-10.249 -21.519,-10.231 -20.188,-8.828"/><polygon points="-17.246,-3.219 -15.689,-0.251 -17.409,0.651 -18.966,-2.317"/><polygon points="-17.333,2.623 -20.869,2.396 -20.75,0.543 -17.214,0.77"/><polygon points="-15.952,2.711 -15.879,1.582 -14.976,1.108 -14.072,2.832"/></g><g fill="#888888" stroke="#000000" stroke-width="0.285"><polygon points="-16.288,-20.489 -20.381,-16.976 -23.101,-20.145 -19.008,-23.658"/><polygon points="-20.381,-16.976 -24.751,-13.226 -26.508,-15.272 -22.137,-19.023"/><polygon points="-24.751,-13.226 -27.512,-10.856 -29.269,-12.902 -26.508,-15.272"/><polygon points="-16.781,-30.394 -19.23,-29.208 -19.661,-31.925 -17.674,-32.24"/><polygon points="-30.335,-8.433 -31.61,-8.777 -30.13,-14.262 -29.516,-14.097 -28.644,-9.885"/></g><g fill="#888888" stroke="#000000" stroke-width="0.285"><polygon points="-9.641,-22.619 -1.727,-29.198 -0.34,-28.53 -6.705,-19.881 -8.405,-21.132"/><polygon points="-6.705,-19.881 -4.188,-23.301 -1.1,-21.028 -3.617,-17.608"/><polygon points="-0.533,-15.339 -3.617,-17.608 -0.628,-21.669 2.456,-19.4"/><polygon points="9.025,-21.102 4.025,-24.949 6.483,-28.143 11.483,-24.297"/><polygon points="9.025,-21.102 6.694,-18.071 1.693,-21.918 4.025,-24.949"/><polygon points="13.352,-31.889 13.003,-27.994 8.76,-28.374 9.108,-32.268"/><polygon points="13.352,-31.889 9.108,-32.268 10.359,-35.192 13.526,-33.836"/><polygon points="11.483,-24.297 5.844,-28.635 13.003,-27.994 12.829,-26.046"/><polygon points="0.399,-14.652 2.456,-19.4 5.76,-16.858 3.607,-14.058 1.593,-13.774"/></g><g fill="#888888" stroke="#000000" stroke-width="0.285"><polygon points="17.273,-20.234 21.311,-22.79 23.868,-18.749 19.83,-16.193"/><polygon points="14.719,-24.271 17.949,-26.315 20.503,-22.279 17.273,-20.234"/><polygon points="15.746,-34.899 18.182,-31.543 14.157,-31.903 14.333,-33.873"/></g><g fill="#888888" stroke="#000000" stroke-width="0.285"><polygon points="28.233,15.33 28.69,17.044 26.583,17.616 26.116,15.895"/><polygon points="11.691,28.924 17.573,27.72 18.048,30.043 18.165,30.269 13.103,32.868 12.097,30.908"/><polygon points="13.103,32.868 15.272,31.754 17.399,35.897 15.229,37.011"/><polygon points="10.597,23.581 12.374,23.217 13.187,23.404 14.211,28.408 11.691,28.924"/><polygon points="19.531,17.654 20.757,22.247 16.213,23.461 14.987,18.867"/><polygon points="11.464,19.807 12.374,23.217 10.597,23.581 9.909,20.222"/><polygon points="25.865,18.026 24.241,18.467 23.725,16.534 25.343,16.102"/><polygon points="18.791,43.949 17.158,40.767 19.051,39.795 20.684,42.977"/></g><g stroke="#888888" stroke-width="0.285" stroke-linecap="butt"><g fill="#888888" stroke="#000000" stroke-width="0.285"/></g><g fill="#888888" stroke="#000000" stroke-width="0.285"><polygon points="0.383,32.832 0.719,35.883 -6.425,36.67 -6.762,33.619"/><polygon points="7.074,32.094 7.411,35.145 0.719,35.883 0.383,32.832"/><polygon points="-11.52,52.402 -14.594,48.4 -10.07,44.924 -6.996,48.926"/><polygon points="-14.842,37.971 -11.906,38.681 -13.265,44.303 -16.201,43.593"/><polygon points="-9.221,55.394 -11.52,52.402 -8.26,49.897 -5.961,52.89"/><polygon points="16.115,47.556 15.012,44.735 16.543,43.949 18.014,46.814"/><polygon points="14.34,39.658 16.156,43.194 13.504,44.556 11.689,41.02"/><polygon points="11.114,33.373 7.424,35.267 7.074,32.094 10.276,31.741"/><polygon points="-12.199,34.218 -6.762,33.619 -6.264,38.131 -11.702,38.73"/><polygon points="-12.199,34.218 -11.702,38.73 -14.842,37.971 -13.982,34.415"/><polygon points="-16.201,43.593 -10.335,45.011 -14.651,48.326 -16.7,45.659"/></g><g fill="#888888" stroke="#000000" stroke-width="0.285"><polygon points="-38.457,34.211 -34.07,34.463 -34.365,39.605 -38.752,39.353"/><polygon points="-30.718,46.239 -31.002,41.907 -27.247,41.661 -26.963,45.994"/><polygon points="-26.963,45.994 -27.389,39.494 -23.738,39.255 -23.312,45.754"/><polygon points="-38.457,34.211 -38.243,30.475 -33.752,30.733 -33.967,34.469"/><polygon points="-15.533,32.651 -18.603,34.347 -20.841,30.296 -17.772,28.6"/><polygon points="-33.849,24.407 -32.152,26.135 -35.265,29.193 -36.962,27.465"/><polygon points="-24.581,22.685 -24.644,25.191 -30.104,25.055 -30.041,22.549"/><polygon points="-19.414,45.499 -23.312,45.754 -23.493,42.992 -19.595,42.737"/><polygon points="-15.225,36.154 -16.104,39.787 -20.728,38.669 -19.849,35.036"/><polygon points="-35.97,46.583 -36.082,44.876 -35.101,43.263 -30.931,42.99 -30.718,46.239"/><polygon points="-36.962,27.465 -33.752,30.733 -38.243,30.475 -38.136,28.618"/><polygon points="-17.772,28.6 -20.841,30.296 -23.168,26.084 -20.098,24.389"/><polygon points="-16.104,39.787 -16.762,42.51 -20.6,41.582 -19.941,38.859"/><polygon points="-15.225,36.154 -19.849,35.036 -15.533,32.651 -14.73,34.105"/><polygon points="-30.041,22.549 -30.181,28.142 -33.849,24.407 -31.909,22.502"/><polygon points="-39.059,44.705 -38.752,39.353 -35.774,39.524 -36.082,44.876"/><polygon points="-20.098,24.389 -24.687,26.924 -24.581,22.685 -20.99,22.775"/><polygon points="-19.414,45.499 -19.595,42.737 -16.97,43.371 -17.454,45.371"/><polygon points="-39.059,44.705 -36.082,44.876 -35.97,46.583 -39.179,46.794"/></g><g fill="#888888" stroke="#000000" stroke-width="0.285"><polygon points="-40.195,-4.714 -37.96,-4.2 -39.211,1.235 -41.447,0.72"/><polygon points="-35.636,9.453 -39.711,9.85 -39.939,7.517 -35.863,7.12"/><polygon points="-33.535,3.031 -33.355,7.056 -35.814,7.166 -35.994,3.141"/><polygon points="-33.717,-1.037 -36.76,-0.9 -36.099,-3.771 -33.816,-3.245"/><polygon points="-48.758,11.535 -44.304,11.101 -43.722,17.076 -48.176,17.509"/><polygon points="-52.57,22.482 -55.649,21.278 -53.914,16.843 -50.835,18.047"/><polygon points="-41.681,26.741 -45.038,25.428 -43.423,21.299 -40.066,22.612"/><polygon points="-39.684,10.651 -36.64,10.354 -36.333,13.509 -39.377,13.806"/><polygon points="-33.082,13.147 -32.891,17.408 -35.964,17.545 -36.155,13.285"/><polygon points="-41.681,26.741 -40.066,22.612 -37.517,25.207 -39.82,27.469"/><polygon points="-37.517,25.207 -39.714,22.97 -36.179,19.499 -33.983,21.735"/><polygon points="-33.983,21.735 -38.008,17.637 -32.891,17.408 -32.751,20.526"/><polygon points="-33.126,12.156 -35.338,12.255 -35.534,10.247 -33.222,10.022"/></g><g stroke="#888888" stroke-width="0.285" stroke-linecap="butt"><g fill="#888888" stroke="#000000" stroke-width="0.285"/></g><g stroke="#888888" stroke-width="0.285" stroke-linecap="butt"><g fill="#888888" stroke="#000000" stroke-width="0.285"/></g><g stroke="#888888" stroke-width="0.285" stroke-linecap="butt"><g fill="#888888" stroke="#000000" stroke-width="0.285"/></g><g fill="#888888" stroke="#000000" stroke-width="0.285"><polygon points="-52.142,52.073 -49.803,55.456 -51.665,56.743 -54.003,53.36"/><polygon points="-51.162,59.013 -54.787,59.597 -55.143,57.386 -51.519,56.802"/><polygon points="-40.7,38.38 -46.1,38.07 -45.889,34.404 -40.489,34.714"/><polygon points="-40.994,43.51 -44.234,43.324 -43.94,38.194 -40.7,38.38"/><polygon points="-40.246,30.485 -43.111,30.32 -41.998,27.476 -40.116,28.212"/><polygon points="-40.261,30.733 -40.489,34.714 -43.729,34.528 -43.501,30.547"/><polygon points="-46.262,25.808 -43.002,27.083 -44.609,31.192 -47.869,29.917"/><polygon points="-55.294,46.106 -53.146,44.621 -49.619,49.722 -51.767,51.207"/><polygon points="-42.503,48.886 -47.678,45.411 -48.076,43.104 -40.994,43.51 -41.191,46.931"/><polygon points="-56.41,21.839 -57.565,24.792 -59.993,22.397 -58.598,20.983"/><polygon points="-45.838,53.851 -46.531,53.385 -47.444,51.089 -44.889,47.284 -42.503,48.886"/><polygon points="-49.056,55.13 -51.767,51.207 -49.243,49.462 -46.531,53.385"/></g><g fill="#888888" stroke="#000000" stroke-width="0.285"><polygon points="-40.302,49.196 -37.526,51.06 -40.338,55.248 -43.115,53.384"/><polygon points="-36.448,47.416 -32.593,47.164 -32.262,52.224 -36.117,52.477"/><polygon points="-28.19,46.876 -27.859,51.936 -32.262,52.224 -32.593,47.164"/><polygon points="-43.115,53.384 -40.338,55.248 -43.444,59.872 -46.22,58.007"/><polygon points="-41.632,67.011 -45.119,62.928 -42.067,60.321 -38.58,64.405"/><polygon points="-36.75,47.436 -36.466,51.772 -40.302,49.196 -39.229,47.599"/><polygon points="-24.02,60.521 -27.876,57.262 -25.326,54.246 -21.471,57.505"/><polygon points="-18.969,54.545 -21.471,57.505 -24.999,54.523 -22.497,51.563"/><polygon points="-28.19,46.876 -23.659,46.579 -23.325,51.683 -27.856,51.98"/><polygon points="-23.659,46.579 -19.588,46.312 -19.384,49.435 -23.455,49.702"/><polygon points="-16.623,51.769 -18.969,54.545 -21.73,52.211 -19.384,49.435"/><polygon points="-16.027,47.848 -18.139,49.471 -19.384,49.435 -19.588,46.312 -17.321,46.164"/></g><g stroke="#888888" stroke-width="0.285" stroke-linecap="butt"><g fill="#888888" stroke="#000000" stroke-width="0.285"/></g><g stroke="#888888" stroke-width="0.285" stroke-linecap="butt"><g fill="#888888" stroke="#000000" stroke-width="0.285"/></g><g stroke="#888888" stroke-width="0.285" stroke-linecap="butt"><g fill="#888888" stroke="#000000" stroke-width="0.285"/></g><g><path fill="none" stroke="#000000" stroke-width="1.9" stroke-linejoin="round" stroke-linecap="round" d="M 1.994,-11.306 L -8.71,-3.453 M -13.044,-3.841 L -21.483,-12.736 L -12.127,-21.699 L 1.994,-11.306"/><g stroke="#000000" stroke-width="3.8" stroke-linecap="butt"><line x1="-10.242" y1="-2.329" x2="-11.737" y2="-2.463" stroke="#FFFFFF" stroke-width="3.8" stroke-linecap="butt"/><line x1="-6.457" y1="-1.99" x2="-10.242" y2="-2.329"/><line x1="-11.737" y1="-2.463" x2="-15.522" y2="-2.802"/></g><circle cx="1.994" cy="-11.306" r="2.5" stroke="none" fill="#000000"/><circle cx="-21.483" cy="-12.736" r="2.5" stroke="none" fill="#000000"/><circle cx="-12.127" cy="-21.699" r="2.5" stroke="none" fill="#000000"/></g></g></svg>