<?xml version="1.0" encoding="UTF-8" standalone="no"?><svg width="108.442" height="119.476" xmlns="http://www.w3.org/2000/svg"><style><![CDATA[@import url("https://fonts.googleapis.com/css?family=IM+Fell+Great+Primer");]]></style><rect x="0" y="0" width="108.442" height="119.476" id="background" fill="#6C823A"/><g id="map" transform="translate(68.465 62.492)"><g fill="none"><polyline points="-25.567,-5.668 -36.841,-8.615 -44.789,-20.493 -50.726,-23.162 -53.837,-24.265 -56.101,-24.691 -58.177,-24.738 -60.065,-24.405 -61.986,-23.792 -63.939,-22.897 -65.925,-21.722 -67.943,-20.266 -69.907,-18.93 -71.818,-17.714 -73.675,-16.618 -75.478,-15.643 -77.227,-14.788 -78.923,-14.053 -80.565,-13.439 -82.153,-12.945 -83.744,-12.669 -85.339,-12.612 -86.936,-12.773 -88.536,-13.152 -90.14,-13.75 -91.746,-14.566 -93.356,-15.6 -94.969,-16.853 -96.835,-18.23 -98.955,-19.73 -101.33,-21.354 -103.957,-23.101 -107.295,-25.252 -111.341,-27.808 -117.463,-31.608 -129.759,-39.174" stroke="#888888" stroke-width="2.208" stroke-linejoin="round" stroke-linecap="butt"/><polyline points="10.848,-0.639 3.977,-8.378 -10.635,-8.69 -25.567,-5.668 -36.841,-8.615 -44.789,-20.493 -50.726,-23.162 -53.837,-24.265 -56.101,-24.691 -58.177,-24.738 -60.065,-24.405 -61.986,-23.792 -63.939,-22.897 -65.925,-21.722 -67.943,-20.266 -69.907,-18.93 -71.818,-17.714 -73.675,-16.618 -75.478,-15.643 -77.227,-14.788 -78.923,-14.053 -80.565,-13.439 -82.153,-12.945 -83.744,-12.669 -85.339,-12.612 -86.936,-12.773 -88.536,-13.152 -90.14,-13.75 -91.746,-14.566 -93.356,-15.6 -94.969,-16.853 -96.835,-18.23 -98.955,-19.73 -101.33,-21.354 -103.957,-23.101 -107.295,-25.252 -111.341,-27.808 -117.463,-31.608 -129.759,-39.174" stroke="#FFFFFF" stroke-width="1.792" stroke-linejoin="round" stroke-linecap="round"/></g><g fill="none"><polyline points="3.977,-8.378 12.938,-18.817 29.277,-18.213 34.374,-20.511 36.815,-21.855 38.297,-23.011 39.388,-24.234 40.088,-25.524 40.585,-26.966 40.879,-28.561 40.971,-30.309 40.86,-32.208 40.736,-34.095 40.599,-35.968 40.45,-37.828 40.288,-39.675 40.112,-41.509 39.925,-43.329 39.724,-45.137 39.51,-46.931 39.251,-48.728 38.946,-50.527 38.595,-52.329 38.198,-54.133 37.755,-55.94 37.267,-57.749 36.733,-59.56 36.152,-61.375 35.687,-63.249 35.336,-65.183 35.1,-67.177 34.979,-69.231 34.972,-71.344 35.08,-73.518 35.303,-75.752 35.64,-78.045 36.157,-80.241 36.852,-82.339 37.726,-84.34 38.78,-86.243 40.012,-88.048 41.423,-89.755 43.012,-91.365 44.781,-92.877 46.614,-94.462 48.511,-96.12 50.472,-97.85 52.497,-99.653 54.586,-101.529 56.739,-103.478 58.956,-105.499 61.237,-107.593 63.705,-109.52 66.361,-111.28 69.205,-112.872 72.237,-114.298 75.928,-115.65 80.28,-116.931 86.711,-118.422 99.475,-120.976" stroke="#888888" stroke-width="2.208" stroke-linejoin="round" stroke-linecap="butt"/><polyline points="3.977,-8.378 12.938,-18.817 29.277,-18.213 34.374,-20.511 36.815,-21.855 38.297,-23.011 39.388,-24.234 40.088,-25.524 40.585,-26.966 40.879,-28.561 40.971,-30.309 40.86,-32.208 40.736,-34.095 40.599,-35.968 40.45,-37.828 40.288,-39.675 40.112,-41.509 39.925,-43.329 39.724,-45.137 39.51,-46.931 39.251,-48.728 38.946,-50.527 38.595,-52.329 38.198,-54.133 37.755,-55.94 37.267,-57.749 36.733,-59.56 36.152,-61.375 35.687,-63.249 35.336,-65.183 35.1,-67.177 34.979,-69.231 34.972,-71.344 35.08,-73.518 35.303,-75.752 35.64,-78.045 36.157,-80.241 36.852,-82.339 37.726,-84.34 38.78,-86.243 40.012,-88.048 41.423,-89.755 43.012,-91.365 44.781,-92.877 46.614,-94.462 48.511,-96.12 50.472,-97.85 52.497,-99.653 54.586,-101.529 56.739,-103.478 58.956,-105.499 61.237,-107.593 63.705,-109.52 66.361,-111.28 69.205,-112.872 72.237,-114.298 75.928,-115.65 80.28,-116.931 86.711,-118.422 99.475,-120.976" stroke="#FFFFFF" stroke-width="1.792" stroke-linejoin="round" stroke-linecap="round"/></g><g fill="#888888" stroke="#000000" stroke-width="0.208"><polygon points="-6.034,-7.592 -2.566,-7.518 -2.622,-4.934 -6.089,-5.008"/><polygon points="-7.718,-0.854 -8.937,-4.678 -6.579,-5.429 -5.361,-1.606"/><polygon points="-6.438,3.161 -7.672,-0.711 -2.766,-2.275 -1.532,1.597"/><polygon points="-2.566,-7.518 1.277,-7.436 1.164,-2.163 -2.679,-2.245"/><polygon points="5.082,-5.627 1.164,-2.149 1.277,-7.436 3.519,-7.388"/><polygon points="5.082,-5.627 7.668,-2.715 5.525,-0.812 2.939,-3.725"/><polygon points="4.695,3.373 1.491,5.721 -1.532,1.597 1.673,-0.751"/><polygon points="-7.03,-7.613 -7.067,-5.849 -9.103,-5.2 -9.891,-7.674"/><polygon points="-5.387,6.459 -6.438,3.161 -4.015,2.388 -2.964,5.687"/><polygon points="1.364,5.815 -1.693,8.055 -3.125,6.101 -0.068,3.861"/><polygon points="7.258,1.495 4.695,3.373 3.008,1.071 5.571,-0.808"/><polygon points="-5.015,7.626 -3.532,7.153 -2.46,8.617 -4.276,9.947"/><polygon points="7.895,1.029 6.626,-0.702 8.208,-2.106 9.771,-0.346"/></g><g fill="#888888" stroke="#000000" stroke-width="0.208"><polygon points="16.881,9.68 14.301,12.17 11.324,9.085 13.904,6.595"/><polygon points="6.185,3.273 9.338,0.963 11.545,3.974 8.392,6.285"/><polygon points="14.301,12.17 10.757,15.589 6.627,11.308 10.17,7.889"/><polygon points="6.185,3.273 9.716,8.092 7.013,10.567 3.246,5.427"/><polygon points="13.125,1.042 16.884,3.067 15.305,5.999 11.545,3.974"/><polygon points="19.665,6.995 16.881,9.68 14.932,7.661 17.716,4.975"/><polygon points="13.125,1.042 11.545,3.974 9.338,0.963 10.88,-0.167"/><polygon points="0.575,7.384 3.246,5.427 6.059,9.265 3.388,11.222"/><polygon points="10.757,15.589 7.633,18.603 5.457,16.348 8.581,13.333"/><polygon points="3.122,18.375 0.736,15.751 3.076,13.624 5.461,16.248"/><polygon points="19.665,6.995 17.716,4.975 18.325,3.843 21.281,5.435"/><polygon points="0.736,15.751 -1.816,12.943 0.037,11.259 2.589,14.067"/><polygon points="-2.105,9.348 0.575,7.384 1.982,9.303 -0.699,11.267"/><polygon points="3.759,19.076 5.397,17.586 6.983,19.23 5.34,20.816"/><polygon points="-2.331,9.514 -1.043,11.271 -2.299,12.412 -3.893,10.658"/></g><g fill="#888888" stroke="#000000" stroke-width="0.208"><polygon points="-17.952,-6.189 -13.906,-7.008 -13.211,-3.575 -17.257,-2.756"/><polygon points="-22.024,2.376 -23.485,-1.398 -20.726,-2.466 -19.265,1.308"/><polygon points="-20.333,6.745 -22.024,2.376 -16.167,0.109 -14.476,4.478"/><polygon points="-21.617,-5.447 -17.952,-6.189 -17.38,-3.365 -21.045,-2.623"/><polygon points="-9.812,-4.789 -8.528,-0.761 -11.839,0.295 -13.123,-3.734"/><polygon points="-8.528,-0.761 -7.263,3.209 -13.606,5.23 -14.871,1.261"/><polygon points="-18.403,11.732 -20.333,6.745 -16.498,5.26 -14.568,10.247"/><polygon points="-9.955,-5.239 -12.79,-4.335 -13.354,-7.12 -10.724,-7.652"/><polygon points="-22.361,-5.297 -21.905,-3.046 -23.834,-2.3 -24.803,-4.802"/><polygon points="-7.263,3.209 -6.031,7.075 -9.211,8.089 -10.443,4.222"/><polygon points="-7.886,11.327 -13.467,13.218 -14.522,10.103 -8.941,8.212"/><polygon points="-18.403,11.732 -14.568,10.247 -13.552,13.246 -17.323,14.523"/><polygon points="-7.385,11.157 -8.281,8.513 -5.822,7.73 -4.988,10.346"/></g><g fill="#888888" stroke="#000000" stroke-width="0.208"><polygon points="-5.254,-23.21 -1.458,-22.207 -2.784,-17.191 -6.579,-18.194"/><polygon points="-2.331,-9.513 -7.228,-9.618 -7.16,-12.792 -2.263,-12.687"/><polygon points="-1.458,-22.207 2.339,-21.204 0.865,-15.625 -2.932,-16.629"/><polygon points="0.634,-9.45 -2.331,-9.513 -2.201,-15.623 0.764,-15.559"/><polygon points="-10.939,-11.969 -11.827,-16.047 -8.048,-16.87 -7.16,-12.792"/><polygon points="2.339,-21.204 5.641,-20.331 4.608,-16.422 1.306,-17.295"/><polygon points="7.462,-13.973 4.876,-10.961 2.023,-13.411 4.608,-16.422"/><polygon points="-6.421,-23.519 -7.41,-19.775 -9.052,-20.393 -12.138,-23.726 -11.816,-24.944"/><polygon points="-11.827,-16.047 -12.402,-18.688 -7.41,-19.775 -6.835,-17.134"/><polygon points="1.438,-9.433 1.532,-13.832 4.876,-10.961 3.526,-9.388"/><polygon points="-10.939,-11.969 -7.16,-12.792 -7.228,-9.618 -10.442,-9.686"/><polygon points="-12.605,-19.62 -13.26,-22.633 -11.484,-23.02 -10.828,-20.007"/><polygon points="7.462,-13.973 4.608,-16.422 7.864,-19.037 10.136,-17.087"/><polygon points="-11.816,-24.944 -12.138,-23.726 -13.437,-23.443 -13.882,-25.49"/><polygon points="10.136,-17.087 7.864,-19.037 8.039,-19.698 11.575,-18.764"/></g><g fill="#888888" stroke="#000000" stroke-width="0.208"><polygon points="18.537,3.049 15.417,1.368 16.822,-1.241 19.942,0.44"/><polygon points="23.844,-2.086 22.757,1.41 19.984,0.548 21.071,-2.948"/><polygon points="11.05,-1.918 16.881,-7.095 18.234,-3.863 15.417,1.368 12.637,-0.129"/><polygon points="11.05,-1.918 8.571,-4.71 12.669,-8.348 15.147,-5.556"/><polygon points="9.347,-13.099 11.27,-15.338 16.423,-10.914 14.5,-8.675"/><polygon points="15.584,-17.719 21.135,-17.513 20.971,-13.073 15.42,-13.278"/><polygon points="15.584,-17.719 15.42,-13.278 12.012,-16.203 13.383,-17.8"/><polygon points="21.135,-17.513 24.8,-17.378 24.694,-14.509 21.029,-14.645"/><polygon points="27.961,-15.327 26.464,-15.792 26.52,-17.314 28.555,-17.239"/></g><g fill="#888888" stroke="#000000" stroke-width="0.208"><polygon points="13.39,14.16 15.345,12.274 17.36,14.363 15.405,16.25"/><polygon points="6.933,20.39 10.072,17.362 12.724,20.11 9.585,23.139"/></g><g fill="#888888" stroke="#000000" stroke-width="0.208"><polygon points="3.573,27.17 1.406,29.839 -3.744,25.658 -1.576,22.989"/><polygon points="2.7,19.101 -0.189,21.728 -3.601,17.974 -0.712,15.348"/><polygon points="5.271,25.079 -1.576,22.989 2.7,19.101 4.958,21.585 5.704,24.545"/><polygon points="-10.735,13.137 -6.804,11.805 -5.766,14.868 -9.697,16.2"/><polygon points="-2.798,13.052 -0.712,15.348 -3.914,18.258 -6.001,15.963"/><polygon points="-3.237,12.569 -5.766,14.868 -6.804,11.805 -4.608,11.061"/><polygon points="-14.893,14.545 -12.427,21.824 -18.601,17.016 -17.315,15.366"/><polygon points="-25.359,25.692 -23.773,26.928 -24.831,28.429 -26.548,27.219"/></g><g fill="#888888" stroke="#000000" stroke-width="0.208"><polygon points="-28.209,-7.392 -33.55,-8.788 -32.114,-14.283 -26.773,-12.887"/><polygon points="-37.837,-11.902 -31.656,-16.038 -33.55,-8.788 -36.221,-9.486"/><polygon points="-37.024,-24.288 -32.967,-26.508 -31.139,-23.168 -35.195,-20.948"/><polygon points="-41.421,-21.881 -37.024,-24.288 -35.3,-21.139 -39.697,-18.732"/><polygon points="-22.634,-17.673 -20.149,-14.38 -23.982,-11.487 -26.467,-14.78"/><polygon points="-28.559,-25.524 -30.989,-23.691 -32.632,-26.692 -30.373,-27.928"/><polygon points="-28.209,-7.392 -26.773,-12.887 -23.982,-11.487 -23.112,-7.185 -25.538,-6.694"/><polygon points="-41.421,-21.881 -39.697,-18.732 -41.57,-17.479 -43.685,-20.641"/><polygon points="-23.112,-7.185 -23.982,-11.487 -18.98,-11.731 -18.259,-8.167"/><polygon points="-18.259,-8.167 -18.98,-11.731 -18.452,-12.13 -15.832,-8.659"/><polygon points="-19.719,-15.137 -22.568,-18.913 -20.004,-20.848 -17.155,-17.072"/><polygon points="-14.287,-23.586 -13.416,-19.588 -17.28,-18.747 -18.15,-22.745"/><polygon points="-22.568,-18.913 -25.034,-22.181 -21.315,-24.986 -18.85,-21.719"/><polygon points="-14.287,-23.586 -18.913,-22.58 -20.523,-25.287 -15.94,-27.909 -14.79,-25.899"/><polygon points="-13.416,-19.588 -12.668,-16.149 -15.631,-15.504 -16.379,-18.943"/><polygon points="-18.24,-31.93 -15.94,-27.909 -18.944,-26.191 -21.244,-30.211"/><polygon points="-16.531,-10.913 -19.719,-15.137 -18.018,-16.42 -14.831,-12.196"/><polygon points="-27.318,-29.601 -22.552,-32.21 -21.274,-29.876 -26.04,-27.266"/><polygon points="-18.24,-31.93 -21.244,-30.211 -22.387,-32.3 -19.39,-33.94"/><polygon points="-13.101,-9.211 -13.584,-11.596 -11.763,-11.992 -11.24,-9.588"/></g><g fill="#888888" stroke="#000000" stroke-width="0.208"><polygon points="-22.401,3.618 -25.375,4.77 -27.745,-1.353 -24.771,-2.504"/><polygon points="-41.615,-2.609 -39.149,-5.399 -35.646,-2.304 -38.112,0.487"/><polygon points="-31.534,-6.194 -28.218,-5.327 -29.571,-0.151 -32.887,-1.017"/><polygon points="-34.552,-6.983 -31.534,-6.194 -32.703,-1.724 -35.72,-2.512"/><polygon points="-22.401,3.618 -19.515,11.074 -24.472,12.993 -27.358,5.537"/><polygon points="-24.771,-2.504 -28.882,-0.913 -27.759,-5.207 -25.599,-4.643"/><polygon points="-35.149,-7.139 -36.086,-3.554 -38.722,-5.883 -37.15,-7.662"/><polygon points="-32.273,21.754 -34.876,19.232 -30.081,14.283 -27.478,16.806"/><polygon points="-19.228,16.52 -23.791,12.966 -19.436,11.28 -18.012,14.958"/><polygon points="-19.404,16.745 -22.482,20.697 -27.311,16.936 -24.233,12.983"/><polygon points="-22.482,20.697 -25.01,23.943 -27.508,21.997 -24.98,18.751"/><polygon points="-28.748,25.171 -27.409,23.789 -25.841,25.01 -27.163,26.707"/></g><g fill="#888888" stroke="#000000" stroke-width="0.208"><polygon points="5.172,-21.283 1.73,-22.192 3.096,-27.364 6.538,-26.454"/><polygon points="1.73,-22.192 -2.921,-23.421 -0.996,-30.708 3.655,-29.479"/><polygon points="11.65,-27.007 12.066,-23.163 9.609,-22.897 9.194,-26.741"/><polygon points="9.552,-20.125 5.642,-21.159 6.235,-23.402 10.145,-22.368"/><polygon points="-2.921,-23.421 -9.984,-25.288 -8.516,-30.844 -1.453,-28.978"/><polygon points="10.14,-19.97 10.644,-21.876 12.187,-22.043 12.478,-19.352"/><polygon points="-15.278,-28.363 -10.316,-31.202 -9.436,-31.142 -8.516,-30.844 -9.984,-25.288 -14.148,-26.388"/><polygon points="-15.011,-35.833 -11.966,-37.122 -10.701,-34.132 -13.746,-32.843"/><polygon points="-15.278,-28.363 -17.332,-31.952 -14.85,-33.372 -12.797,-29.782"/></g><g stroke="#888888" stroke-width="0.208" stroke-linecap="butt"><g fill="#888888" stroke="#000000" stroke-width="0.208"/></g><g stroke="#888888" stroke-width="0.208" stroke-linecap="butt"><g fill="#888888" stroke="#000000" stroke-width="0.208"/></g><g stroke="#888888" stroke-width="0.208" stroke-linecap="butt"><g fill="#888888" stroke="#000000" stroke-width="0.208"/></g><g stroke="#888888" stroke-width="0.208" stroke-linecap="butt"><g fill="#888888" stroke="#000000" stroke-width="0.208"/></g><g stroke="#888888" stroke-width="0.208" stroke-linecap="butt"><g fill="#888888" stroke="#000000" stroke-width="0.208"/></g><g stroke="#888888" stroke-width="0.208" stroke-linecap="butt"><g fill="#888888" stroke="#000000" stroke-width="0.208"/></g><g stroke="#888888" stroke-width="0.208" stroke-linecap="butt"><g fill="#888888" stroke="#000000" stroke-width="0.208"/></g><g stroke="#888888" stroke-width="0.208" stroke-linecap="butt"><g fill="#888888" stroke="#000000" stroke-width="0.208"/></g><g stroke="#888888" stroke-width="0.208" stroke-linecap="butt"><g fill="#888888" stroke="#000000" stroke-width="0.208"/></g><g stroke="#888888" stroke-width="0.208" stroke-linecap="butt"><g fill="#888888" stroke="#000000" stroke-width="0.208"/></g><g stroke="#888888" stroke-width="0.208" stroke-linecap="butt"><g fill="#888888" stroke="#000000" stroke-width="0.208"/></g><g stroke="#888888" stroke-width="0.208" stroke-linecap="butt"><g fill="#888888" stroke="#000000" stroke-width="0.208"/></g><g stroke="#888888" stroke-width="0.208" stroke-linecap="butt"><g fill="#888888" stroke="#000000" stroke-width="0.208"/></g><g stroke="#888888" stroke-width="0.208" stroke-linecap="butt"><g fill="#888888" stroke="#000000" stroke-width="0.208"/></g><g stroke="#888888" stroke-width="0.208" stroke-linecap="butt"><g fill="#888888" stroke="#000000" stroke-width="0.208"/></g></g></svg>