<?xml version="1.0" encoding="UTF-8" standalone="no"?><svg width="264.46" height="177.525" xmlns="http://www.w3.org/2000/svg"><style><![CDATA[@import url("https://fonts.googleapis.com/css?family=IM+Fell+Great+Primer");]]></style><rect x="0" y="0" width="264.46" height="177.525" id="background" fill="#009DC4"/><g id="map" transform="translate(161.668 71.792)"><polygon points="-1.945,-9.094 9.157,1.62 9.182,3.034 3.359,9.069 2.068,9.195 -11.985,-0.589 -12.036,-2.193 -3.261,-9.158" fill="#FFFFFF"/><g id="land"><polygon points="-216.883,152.974 -212.202,147.359 -207.61,141.956 -203.673,136.596 -200.39,131.279 -197.761,126.006 -195.786,120.775 -194.466,115.588 -193.8,110.443 -193.788,105.342 -194.431,100.284 -194.608,94.274 -194.32,87.312 -193.566,79.398 -192.347,70.533 -190.663,60.715 -188.514,49.946 -185.899,38.225 -182.819,25.552 -180.134,14.275 -177.845,4.395 -175.952,-4.089 -174.454,-11.177 -173.353,-16.868 -172.646,-21.162 -172.336,-24.061 -172.421,-25.562 -172.344,-26.862 -172.106,-27.961 -171.706,-28.857 -171.145,-29.552 -170.422,-30.044 -169.538,-30.335 -168.492,-30.424 -167.284,-30.312 -166.012,-30.151 -164.674,-29.941 -163.272,-29.683 -161.805,-29.377 -160.273,-29.023 -158.677,-28.62 -157.015,-28.168 -155.289,-27.669 -153.276,-27.206 -150.976,-26.781 -148.39,-26.392 -145.516,-26.041 -142.357,-25.727 -138.91,-25.45 -135.177,-25.21 -131.157,-25.008 -127.043,-24.845 -122.834,-24.724 -118.53,-24.643 -114.131,-24.602 -109.637,-24.602 -105.049,-24.643 -100.366,-24.724 -95.589,-24.845 -91.059,-24.969 -86.777,-25.096 -82.743,-25.225 -78.957,-25.356 -75.07,-25.507 -71.081,-25.679 -65.943,-25.923 -56.513,-26.4 -35.388,-36.288 -18.238,-35.206 -0.056,-41.111 13.889,-38.956 31.884,-41.38 40.079,-43.16 44.387,-44.124 47.541,-44.865 50.451,-45.582 53.117,-46.273 55.841,-47.005 58.626,-47.778 61.469,-48.592 64.372,-49.447 67.253,-50.228 70.114,-50.934 72.953,-51.565 75.771,-52.122 78.568,-52.604 81.344,-53.012 84.099,-53.345 86.832,-53.604 89.685,-53.925 92.658,-54.311 95.75,-54.759 98.961,-55.271 102.291,-55.846 105.741,-56.484 109.311,-57.186 113,-57.951 116.282,-58.516 119.159,-58.881 121.629,-59.047 123.692,-59.013 125.35,-58.78 126.601,-58.346 127.446,-57.713 127.884,-56.88 128.424,-56.153 129.066,-55.531 129.809,-55.014 130.654,-54.602 131.601,-54.295 132.649,-54.094 133.799,-53.998 135.051,-54.008 136.223,-53.283 137.315,-51.824 138.327,-49.632 139.26,-46.705 140.113,-43.044 140.886,-38.65 141.58,-33.521 142.193,-27.658 143.07,-22.196 144.208,-17.136 145.609,-12.476 147.272,-8.217 149.198,-4.36 151.386,-0.903 153.836,2.153 156.548,4.807 159.452,7.24 162.547,9.451 165.833,11.44 169.31,13.207 172.978,14.752 176.838,16.075 180.889,17.177 185.13,18.056 189.389,19.237 193.666,20.72 197.959,22.505 202.27,24.591 206.598,26.978 210.943,29.668 215.306,32.659 219.686,35.951 223.982,38.827 228.196,41.286 232.327,43.329 236.374,44.954 240.339,46.163 244.221,46.955 248.019,47.33 251.735,47.289 255.423,47.375 259.085,47.589 262.719,47.931 266.326,48.401 269.906,48.998 273.459,49.723 276.985,50.576 280.484,51.557 283.782,53.178 286.879,55.437 289.776,58.336 292.472,61.875 294.967,66.053 297.262,70.87 299.356,76.327 301.249,82.424 303.278,87.884 305.442,92.709 307.741,96.897 310.176,100.45 313.118,103.494 316.567,106.028 321.64,108.43 458.274,154.522 432.8,215.814 420.778,238.406 403.66,266.365 369.837,311.629 345.068,338.851 339.254,344.671 273.23,399.045 270.25,401.069 226.095,427.519 193.383,443.277 115.927,469.524 37.205,482.19 -16.174,483.353 -87.107,475.714 -123.805,467.508 -195.515,442.341 -255.503,410.621 -310.179,371.053 -244.813,250.341 -253.252,239.872 -257.527,232.2 -259.739,225.115 -259.886,218.617 -258.671,211.968 -256.092,205.169 -252.149,198.219 -246.843,191.119 -241.627,184.232 -236.499,177.556 -231.461,171.092 -226.512,164.841 -221.653,158.801" fill="#6C823A" stroke="#000000" stroke-width="0.46"/></g><g fill="none"><polyline points="12.977,45.088 11.02,59.652 10.416,73.766 13.25,85.762 14.906,92.108 16.327,96.803 17.829,101.179 19.411,105.238 21.18,109.422 23.134,113.732 25.273,118.168 27.599,122.73 30.246,127.002 33.214,130.986 36.504,134.68 40.116,138.085 44.05,141.2 48.305,144.026 52.881,146.563 57.78,148.811 61.869,151.282 65.148,153.978 67.618,156.899 69.279,160.044 70.13,163.413 70.172,167.006 69.405,170.824 67.828,174.865 66.705,179.082 66.034,183.472 65.817,188.037 66.053,192.777 66.742,197.69 67.885,202.778 69.48,208.041 71.529,213.477 73.376,218.909 75.023,224.335 76.468,229.757 77.712,235.173 78.755,240.584 79.597,245.99 80.238,251.39 80.677,256.786 80.986,262.006 81.165,267.051 81.213,271.92 81.131,276.614 80.919,281.132 80.576,285.475 80.103,289.643 79.499,293.635 79.129,297.86 78.993,302.317 79.09,307.006 79.42,311.928 80.143,317.813 81.257,324.662 83.237,334.669 87.506,354.416" stroke="#888888" stroke-width="2.46" stroke-linejoin="round" stroke-linecap="butt"/><polyline points="2.639,8.374 -0.117,21.273 6.09,30.061 12.977,45.088 11.02,59.652 10.416,73.766 13.25,85.762 14.906,92.108 16.327,96.803 17.829,101.179 19.411,105.238 21.18,109.422 23.134,113.732 25.273,118.168 27.599,122.73 30.246,127.002 33.214,130.986 36.504,134.68 40.116,138.085 44.05,141.2 48.305,144.026 52.881,146.563 57.78,148.811 61.869,151.282 65.148,153.978 67.618,156.899 69.279,160.044 70.13,163.413 70.172,167.006 69.405,170.824 67.828,174.865 66.705,179.082 66.034,183.472 65.817,188.037 66.053,192.777 66.742,197.69 67.885,202.778 69.48,208.041 71.529,213.477 73.376,218.909 75.023,224.335 76.468,229.757 77.712,235.173 78.755,240.584 79.597,245.99 80.238,251.39 80.677,256.786 80.986,262.006 81.165,267.051 81.213,271.92 81.131,276.614 80.919,281.132 80.576,285.475 80.103,289.643 79.499,293.635 79.129,297.86 78.993,302.317 79.09,307.006 79.42,311.928 80.143,317.813 81.257,324.662 83.237,334.669 87.506,354.416" stroke="#FFFFFF" stroke-width="1.54" stroke-linejoin="round" stroke-linecap="round"/></g><g fill="none"><polyline points="31.32,44.853 43.616,52.343 46.873,68.768 50.132,77.749 51.906,82.631 53.282,86.405 54.621,90.071 55.923,93.628 57.31,97.409 58.78,101.414 60.335,105.644 61.974,110.097 63.521,114.478 64.975,118.786 66.338,123.022 67.608,127.186 68.786,131.277 69.872,135.296 70.866,139.243 71.768,143.117 73.264,146.933 75.355,150.69 78.041,154.389 81.322,158.029 85.197,161.61 89.667,165.133 94.732,168.598 100.391,172.004 105.93,175.41 111.348,178.817 116.645,182.225 121.821,185.633 126.877,189.042 131.811,192.451 136.625,195.86 141.318,199.27 145.934,202.366 150.472,205.147 154.934,207.613 159.318,209.764 163.625,211.6 167.855,213.122 172.008,214.329 176.084,215.221 180.313,215.922 184.694,216.432 189.228,216.751 193.914,216.879 198.754,216.815 203.746,216.561 208.891,216.115 214.189,215.478 219.281,215.747 224.167,216.922 228.847,219.003 233.322,221.989 238.048,226.708 243.024,233.159 249.621,243.821 261.947,266.13" stroke="#888888" stroke-width="2.46" stroke-linejoin="round" stroke-linecap="butt"/><polyline points="12.977,45.088 31.32,44.853 43.616,52.343 46.873,68.768 50.132,77.749 51.906,82.631 53.282,86.405 54.621,90.071 55.923,93.628 57.31,97.409 58.78,101.414 60.335,105.644 61.974,110.097 63.521,114.478 64.975,118.786 66.338,123.022 67.608,127.186 68.786,131.277 69.872,135.296 70.866,139.243 71.768,143.117 73.264,146.933 75.355,150.69 78.041,154.389 81.322,158.029 85.197,161.61 89.667,165.133 94.732,168.598 100.391,172.004 105.93,175.41 111.348,178.817 116.645,182.225 121.821,185.633 126.877,189.042 131.811,192.451 136.625,195.86 141.318,199.27 145.934,202.366 150.472,205.147 154.934,207.613 159.318,209.764 163.625,211.6 167.855,213.122 172.008,214.329 176.084,215.221 180.313,215.922 184.694,216.432 189.228,216.751 193.914,216.879 198.754,216.815 203.746,216.561 208.891,216.115 214.189,215.478 219.281,215.747 224.167,216.922 228.847,219.003 233.322,221.989 238.048,226.708 243.024,233.159 249.621,243.821 261.947,266.13" stroke="#FFFFFF" stroke-width="1.54" stroke-linejoin="round" stroke-linecap="round"/></g><g fill="none"><polyline points="38.616,14.001 64.422,10.76 77.518,9.799 84.056,9.579 88.402,9.78 92.011,10.296 94.883,11.125 97.502,12.233 99.87,13.62 101.986,15.285 103.849,17.228 105.785,19.229 107.794,21.288 109.875,23.404 112.029,25.577 114.255,27.808 116.554,30.097 118.925,32.443 121.368,34.846 123.801,37.169 126.223,39.411 128.634,41.572 131.034,43.653 133.423,45.652 135.801,47.571 138.169,49.409 140.525,51.166 143.018,53.063 145.648,55.101 148.415,57.279 151.319,59.597 154.36,62.055 157.537,64.653 160.851,67.391 164.303,70.27 168.015,72.965 171.988,75.476 176.222,77.804 180.717,79.948 185.473,81.908 190.49,83.684 195.767,85.277 201.306,86.686 206.769,88.282 212.156,90.064 217.467,92.033 222.702,94.189 227.861,96.531 232.945,99.06 237.952,101.776 242.883,104.678 247.944,107.045 253.134,108.875 258.454,110.17 263.903,110.929 269.481,111.152 275.189,110.839 281.026,109.991 286.993,108.606 292.417,108.614 297.297,110.014 301.635,112.807 305.43,116.992 308.885,123.788 312,133.197 315.383,148.874 320.862,181.795" stroke="#888888" stroke-width="2.46" stroke-linejoin="round" stroke-linecap="butt"/><polyline points="8.463,2.339 16.339,3.14 24.81,11.233 38.616,14.001 64.422,10.76 77.518,9.799 84.056,9.579 88.402,9.78 92.011,10.296 94.883,11.125 97.502,12.233 99.87,13.62 101.986,15.285 103.849,17.228 105.785,19.229 107.794,21.288 109.875,23.404 112.029,25.577 114.255,27.808 116.554,30.097 118.925,32.443 121.368,34.846 123.801,37.169 126.223,39.411 128.634,41.572 131.034,43.653 133.423,45.652 135.801,47.571 138.169,49.409 140.525,51.166 143.018,53.063 145.648,55.101 148.415,57.279 151.319,59.597 154.36,62.055 157.537,64.653 160.851,67.391 164.303,70.27 168.015,72.965 171.988,75.476 176.222,77.804 180.717,79.948 185.473,81.908 190.49,83.684 195.767,85.277 201.306,86.686 206.769,88.282 212.156,90.064 217.467,92.033 222.702,94.189 227.861,96.531 232.945,99.06 237.952,101.776 242.883,104.678 247.944,107.045 253.134,108.875 258.454,110.17 263.903,110.929 269.481,111.152 275.189,110.839 281.026,109.991 286.993,108.606 292.417,108.614 297.297,110.014 301.635,112.807 305.43,116.992 308.885,123.788 312,133.197 315.383,148.874 320.862,181.795" stroke="#FFFFFF" stroke-width="1.54" stroke-linejoin="round" stroke-linecap="round"/></g><g fill="none"><polyline points="-21.164,48.982 -34.596,61.89 -60.548,63.848 -63.382,70.009 -64.683,73.303 -65.394,75.784 -65.83,78.135 -65.993,80.358 -65.986,82.68 -65.81,85.102 -65.464,87.623 -64.949,90.243 -64.422,92.96 -63.884,95.773 -63.334,98.683 -62.772,101.69 -62.198,104.793 -61.613,107.993 -61.016,111.289 -60.408,114.682 -59.698,118.181 -58.887,121.786 -57.974,125.497 -56.961,129.313 -55.846,133.236 -54.63,137.264 -53.312,141.398 -51.894,145.639 -51.048,149.878 -50.774,154.115 -51.074,158.352 -51.946,162.588 -53.391,166.822 -55.408,171.055 -57.999,175.287 -61.162,179.518 -64.355,183.802 -67.578,188.14 -70.832,192.532 -74.116,196.977 -77.43,201.477 -80.775,206.03 -84.15,210.636 -87.555,215.297 -91.231,220.091 -95.179,225.02 -99.399,230.084 -103.89,235.282 -108.653,240.614 -113.687,246.08 -118.993,251.681 -124.57,257.417 -129.717,263.795 -134.433,270.818 -138.717,278.484 -142.571,286.793 -146.261,297.107 -149.786,309.424 -153.945,327.827 -161.135,364.559" stroke="#888888" stroke-width="2.46" stroke-linejoin="round" stroke-linecap="butt"/><polyline points="-0.117,21.273 -13.323,32.022 -21.164,48.982 -34.596,61.89 -60.548,63.848 -63.382,70.009 -64.683,73.303 -65.394,75.784 -65.83,78.135 -65.993,80.358 -65.986,82.68 -65.81,85.102 -65.464,87.623 -64.949,90.243 -64.422,92.96 -63.884,95.773 -63.334,98.683 -62.772,101.69 -62.198,104.793 -61.613,107.993 -61.016,111.289 -60.408,114.682 -59.698,118.181 -58.887,121.786 -57.974,125.497 -56.961,129.313 -55.846,133.236 -54.63,137.264 -53.312,141.398 -51.894,145.639 -51.048,149.878 -50.774,154.115 -51.074,158.352 -51.946,162.588 -53.391,166.822 -55.408,171.055 -57.999,175.287 -61.162,179.518 -64.355,183.802 -67.578,188.14 -70.832,192.532 -74.116,196.977 -77.43,201.477 -80.775,206.03 -84.15,210.636 -87.555,215.297 -91.231,220.091 -95.179,225.02 -99.399,230.084 -103.89,235.282 -108.653,240.614 -113.687,246.08 -118.993,251.681 -124.57,257.417 -129.717,263.795 -134.433,270.818 -138.717,278.484 -142.571,286.793 -146.261,297.107 -149.786,309.424 -153.945,327.827 -161.135,364.559" stroke="#FFFFFF" stroke-width="1.54" stroke-linejoin="round" stroke-linecap="round"/></g><g fill="none"><polyline points="-60.479,3.659 -73.663,9.88" stroke="#888888" stroke-width="2.46" stroke-linejoin="round" stroke-linecap="butt"/><polyline points="-11.414,-1.409 -17.653,1.215 -25.901,4.836 -34.217,13.592 -45.214,15.016 -60.479,3.659 -73.663,9.88" stroke="#FFFFFF" stroke-width="1.54" stroke-linejoin="round" stroke-linecap="round"/></g><g fill="#888888" stroke="#000000" stroke-width="0.46"><polygon points="-2.155,2.492 -3.422,1.609 -2.313,0.017 -1.046,0.899"/></g><g fill="#888888" stroke="#000000" stroke-width="0.46"><polygon points="-5.011,15.068 -2.765,13.105 -0.163,16.243 -2.328,18.137"/><polygon points="1.109,10.749 0.458,13.794 -2.765,13.105 -2.115,10.06"/><polygon points="-5.011,15.068 -7.354,12.389 -5.108,10.425 -2.765,13.105"/><polygon points="-8.237,8.546 -5.305,6.237 -3.716,8.256 -6.648,10.565"/><polygon points="1.109,10.749 -2.93,9.885 -2.841,9.367 -1.158,6.949 1.522,8.815"/><polygon points="-2.328,18.137 -0.163,16.243 -0.069,16.263 -0.835,19.845"/><polygon points="-8.237,8.546 -6.648,10.565 -7.952,11.704 -9.704,9.7"/><polygon points="-1.158,6.949 -2.841,9.367 -5.305,6.237 -3.839,5.083"/><polygon points="-9.782,0.946 -11.216,3.006 -13.42,2.289 -14.053,0.786 -11.534,-0.274"/><polygon points="-14.053,0.786 -13.42,2.289 -14.986,3.658 -16.572,1.845"/><polygon points="-11.882,7.209 -14.986,3.658 -13.42,2.289 -10.316,5.84"/><polygon points="-9.782,0.946 -7.397,2.606 -8.831,4.665 -11.216,3.006"/><polygon points="-5.951,5.728 -8.804,7.974 -9.843,6.655 -6.99,4.409"/><polygon points="-11.816,7.284 -10.354,6.006 -8.804,7.974 -10.231,9.097"/><polygon points="-5.951,5.728 -6.99,4.409 -6.277,3.385 -4.525,4.605"/></g><g fill="#888888" stroke="#000000" stroke-width="0.46"><polygon points="7.465,-0.013 3.456,-3.883 7.283,-7.848 11.292,-3.979"/><polygon points="15.215,-12.841 17.731,-10.381 15.265,-7.86 12.75,-10.321"/><polygon points="15.215,-12.841 11.601,-9.146 8.6,-12.081 12.214,-15.776"/><polygon points="18.567,-7 17.113,-1.419 14.773,-2.029 16.227,-7.61"/><polygon points="18.567,-7 15.265,-7.86 17.731,-10.381 19.099,-9.043"/><polygon points="14.37,1.935 10.729,1.564 11.132,-2.399 14.773,-2.029"/><polygon points="3.456,-3.883 -0.493,-7.693 2.021,-10.299 5.97,-6.488"/><polygon points="7.465,-0.013 11.292,-3.979 10.729,1.564 8.908,1.379"/><polygon points="9.312,-18.615 12.214,-15.776 9.633,-13.137 6.73,-15.976"/><polygon points="14.37,1.935 14.773,-2.029 17.113,-1.419 16.191,2.12"/><polygon points="-1.452,-11.167 1.849,-10.254 -0.56,-7.757 -2.008,-9.155"/><polygon points="-1.332,-11.602 -0.34,-15.189 3.711,-14.069 2.719,-10.482"/><polygon points="2.055,-17.98 4.951,-19.206 6.607,-15.296 3.711,-14.069"/><polygon points="8.967,-18.952 6.883,-16.822 5.733,-19.538 7.572,-20.317"/><polygon points="2.055,-17.98 3.711,-14.069 -0.34,-15.189 0.216,-17.201"/></g><g fill="#888888" stroke="#000000" stroke-width="0.46"><polygon points="-1.28,-14.791 -4.562,-15.698 -1.773,-18.551 -0.567,-17.372"/><polygon points="-4.185,-20.909 -1.773,-18.551 -4.32,-15.945 -6.732,-18.303"/><polygon points="-2.942,-9.411 -5.249,-11.034 -4.002,-15.544 -1.28,-14.791 -2.719,-9.588"/><polygon points="-12.396,-17.6 -8.322,-20.21 -6.632,-17.573 -10.706,-14.963"/><polygon points="-4.185,-20.909 -6.732,-18.303 -8.061,-20.377 -5.391,-22.088"/><polygon points="-3.815,-8.717 -6.794,-6.353 -9.145,-9.316 -6.167,-11.68"/><polygon points="-13.519,-13.856 -10.717,-14.422 -9.648,-9.129 -12.451,-8.563"/><polygon points="-12.396,-17.6 -10.4,-14.486 -13.519,-13.856 -14.06,-16.534"/><polygon points="-6.794,-6.353 -8.788,-4.77 -9.965,-6.253 -7.971,-7.836"/><polygon points="-11.742,-5.054 -12.451,-8.563 -10.873,-8.882 -10.165,-5.373"/><polygon points="-11.604,-4.369 -10.335,-4.625 -9.808,-3.961 -11.285,-2.789"/><polygon points="-11.632,-28.189 -9.053,-25.669 -11.056,-23.62 -13.635,-26.141"/><polygon points="-15.877,-25.531 -16.508,-28.66 -14.287,-29.109 -13.655,-25.979"/><polygon points="-14.817,-20.281 -15.858,-25.437 -13.586,-25.896 -12.545,-20.74"/><polygon points="-17.146,-31.816 -16.264,-32.717 -12.759,-29.291 -13.315,-28.722 -16.801,-30.108"/><polygon points="-7.381,-21.763 -10.438,-19.805 -12.011,-22.261 -8.954,-24.219"/><polygon points="-7.381,-21.763 -8.954,-24.219 -8.278,-24.911 -5.978,-22.662"/><polygon points="-14.817,-20.281 -12.545,-20.74 -11.507,-19.12 -14.23,-17.375"/></g><g fill="#888888" stroke="#000000" stroke-width="0.46"><polygon points="2.94,11.751 6.171,12.442 5.204,16.969 1.972,16.279"/><polygon points="11.171,24.383 8.624,21.849 12.186,18.267 14.733,20.8"/><polygon points="14.733,20.8 11.166,17.254 15.185,13.212 18.752,16.758"/><polygon points="1.287,19.486 1.972,16.279 7.336,17.425 6.65,20.632"/><polygon points="4.879,7.493 8.179,10.677 7.17,11.723 6.979,12.614 2.94,11.751 3.557,8.863"/><polygon points="11.171,24.383 8.781,26.786 6.891,24.906 9.281,22.502"/><polygon points="4.663,26.308 2.65,23.458 4.899,21.869 6.912,24.719"/><polygon points="4.879,7.493 7.523,4.753 10.222,7.358 7.578,10.097"/><polygon points="1.287,19.486 6.65,20.632 2.65,23.458 0.952,21.054"/><polygon points="10.892,3.591 14.133,3.921 13.69,8.277 10.45,7.947"/><polygon points="17.294,5.436 20.66,8.651 18.357,11.062 14.991,7.846"/><polygon points="10.608,3.562 10.222,7.358 7.523,4.753 8.845,3.383"/><polygon points="22.526,12.963 18.752,16.758 16.266,14.286 20.039,10.49"/><polygon points="17.294,5.436 13.585,9.319 14.133,3.921 15.896,4.1"/><polygon points="5.46,27.435 6.698,26.561 7.858,27.715 6.571,29.009"/><polygon points="22.526,12.963 20.039,10.49 21.254,9.219 23.815,11.666"/></g><g fill="#888888" stroke="#000000" stroke-width="0.46"><polygon points="-18.786,26.671 -21.755,24.051 -16.767,18.396 -13.797,21.015"/><polygon points="-8.092,12.759 -10.829,15.153 -14.799,10.612 -12.061,8.219"/><polygon points="-24.935,21.247 -21.991,17.91 -18.811,20.714 -21.755,24.051"/><polygon points="-5.359,15.885 -9.465,19.475 -12.198,16.349 -8.092,12.759"/><polygon points="-6.484,25.166 -9.521,27.639 -13.552,22.687 -10.515,20.215"/><polygon points="-15.465,29.6 -18.786,26.671 -16.275,23.825 -12.955,26.754"/><polygon points="-24.935,21.247 -28.302,18.277 -24.289,13.728 -20.922,16.697"/><polygon points="-5.359,15.885 -3.376,18.153 -5.816,20.286 -7.799,18.018"/><polygon points="-3.485,22.725 -6.484,25.166 -8.46,22.739 -5.46,20.297"/><polygon points="-15.167,4.667 -12.061,8.219 -15.441,11.174 -18.547,7.621"/><polygon points="-15.465,29.6 -12.955,26.754 -11.154,28.967 -13.769,31.096"/><polygon points="-28.302,18.277 -31.02,15.879 -29.014,13.604 -26.295,16.002"/><polygon points="-29.432,10.006 -27.486,7.957 -23.603,11.646 -25.549,13.695"/><polygon points="-23.323,4.797 -20.683,10.81 -21.162,11.021 -22.632,12.568 -27.486,7.957 -25.315,5.671"/><polygon points="-23.323,4.797 -19.972,3.325 -18.388,6.933 -21.739,8.405"/><polygon points="-2.758,22.134 -4.222,20.335 -2.662,18.971 -1.086,20.773"/><polygon points="-15.884,3.847 -18.127,5.808 -19.339,3.048 -17.347,2.173"/><polygon points="-31.425,12.104 -29.868,13.582 -31.512,15.445 -33.191,13.964"/></g><g fill="#888888" stroke="#000000" stroke-width="0.46"><polygon points="-17.35,-28.787 -16.388,-24.022 -19.391,-23.415 -20.353,-28.18"/><polygon points="-19.532,-32.798 -17.918,-31.597 -17.758,-30.805 -20.353,-28.18 -22.036,-29.432"/><polygon points="-25.398,-24.912 -23.418,-27.573 -20.138,-25.133 -22.118,-22.472"/><polygon points="-25.398,-24.912 -23.253,-23.316 -26.045,-19.563 -27.9,-19.387 -28.935,-20.157"/><polygon points="-21.056,-17.897 -21.834,-21.405 -17.874,-22.283 -17.096,-18.775"/><polygon points="-25.06,-17.009 -25.616,-19.515 -21.611,-20.403 -21.056,-17.897"/><polygon points="-17.096,-18.775 -18.076,-23.195 -16.294,-23.554 -15.404,-19.151"/><polygon points="-25.06,-17.009 -27.441,-16.481 -28.016,-19.074 -25.635,-19.602"/><polygon points="-28.935,-20.157 -27.9,-19.387 -29.111,-16.11 -30.376,-15.83 -31.521,-16.682"/><polygon points="-31.723,-6.955 -29.166,-8.316 -26.364,-3.049 -28.92,-1.689"/><polygon points="-22.549,-5.927 -21.559,-1.198 -24.059,-0.675 -25.048,-5.404"/><polygon points="-22.549,-5.927 -25.442,-5.321 -26.379,-9.798 -23.485,-10.404"/><polygon points="-26.838,2.224 -28.92,-1.689 -26.282,-3.092 -24.201,0.82"/><polygon points="-31.723,-6.955 -33.885,-11.019 -31.222,-12.437 -29.059,-8.372"/><polygon points="-24.356,-14.566 -23.485,-10.404 -25.771,-9.926 -26.642,-14.088"/><polygon points="-23.491,2.686 -24.22,1.025 -24.059,-0.675 -21.559,-1.198 -20.977,1.582"/><polygon points="-26.757,2.376 -24.22,1.025 -23.491,2.686 -26.005,3.79"/><polygon points="-31.726,-14.711 -27.458,-15.658 -26.954,-13.383 -31.222,-12.437"/><polygon points="-32.329,-14.577 -31.222,-12.437 -33.885,-11.019 -34.656,-12.467 -33.236,-14.376"/><polygon points="-24.363,-14.6 -26.625,-14.126 -26.987,-15.762 -24.712,-16.267"/><polygon points="-20.47,0.103 -17.68,-3.064 -16.534,-0.34 -18.048,0.297 -20.229,1.254"/><polygon points="-13.506,-1.614 -16.499,-0.355 -17.666,-3.129 -14.673,-4.388"/><polygon points="-20.859,-1.758 -21.735,-5.943 -19.248,-6.463 -18.372,-2.278"/><polygon points="-13.24,-8.43 -12.527,-4.897 -14.822,-4.434 -15.535,-7.967"/><polygon points="-13.506,-1.614 -14.673,-4.388 -12.512,-4.825 -11.992,-2.251"/><polygon points="-13.646,-10.439 -17.424,-5.495 -19.248,-6.463 -19.622,-9.922 -13.671,-10.565"/><polygon points="-19.622,-9.922 -19.248,-6.463 -21.735,-5.943 -22.502,-9.611"/><polygon points="-15.722,-11.148 -15.896,-12.76 -14.184,-13.106 -13.83,-11.352"/><polygon points="-14.864,-16.476 -14.184,-13.106 -15.896,-12.76 -16.576,-16.131"/><polygon points="-17.482,-10.958 -20.14,-10.671 -20.5,-14.001 -17.841,-14.288"/><polygon points="-21.18,-17.05 -18.328,-17.683 -17.652,-14.636 -20.504,-14.003"/><polygon points="-14.892,-16.613 -16.457,-16.297 -16.837,-18.013 -15.246,-18.366"/><polygon points="-23.299,-13.419 -20.504,-14.003 -20.5,-14.001 -20.14,-10.671 -22.667,-10.397"/><polygon points="-21.18,-17.05 -20.504,-14.003 -23.299,-13.419 -23.931,-16.44"/></g><g fill="#888888" stroke="#000000" stroke-width="0.46"><polygon points="37.72,-11.812 37.777,-8.854 35.43,-8.809 35.373,-11.767"/><polygon points="31.705,-13.014 34.811,-14.106 35.524,-12.078 32.417,-10.986"/><polygon points="31.705,-13.014 32.596,-10.479 26.774,-8.434 25.884,-10.969"/><polygon points="37.777,-8.854 37.84,-5.562 33.115,-5.471 33.052,-8.764"/><polygon points="37.693,-13.226 36.616,-13.205 36.136,-14.571 37.657,-15.105"/><polygon points="36.217,-0.875 31.771,-0.898 31.785,-3.606 36.231,-3.582"/><polygon points="27.394,-0.921 27.414,-4.811 31.791,-4.788 31.771,-0.898"/><polygon points="36.217,-0.875 36.231,-3.582 37.877,-3.614 37.93,-0.866"/><polygon points="25.884,-10.969 26.953,-7.927 23.663,-6.772 23.387,-5.71 20.095,-8.936"/><polygon points="23.51,-0.941 23.527,-4.275 27.411,-4.255 27.394,-0.921"/><polygon points="20.095,-8.936 23.831,-5.275 23.531,-4.886 19.558,-3.224 18.483,-3.504 19.878,-8.86"/><polygon points="23.51,-0.941 19.546,-0.962 19.558,-3.224 23.522,-3.204"/><polygon points="18.483,-3.504 19.558,-3.224 19.546,-0.962 17.823,-0.971"/><polygon points="23.24,8.35 24.094,7.404 25.543,7.37 25.612,10.374 25.291,10.309"/><polygon points="25.543,7.37 24.094,7.404 22.246,2.868 22.859,2.177 25.422,2.118"/><polygon points="18.972,4.272 20.117,3.074 22.246,2.868 24.094,7.404 23.24,8.35"/><polygon points="25.422,2.118 22.859,2.177 22.871,-0.144 25.371,-0.131"/><polygon points="19.457,-0.162 22.871,-0.144 22.859,2.177 19.445,2.159"/><polygon points="17.734,-0.171 20.117,3.074 18.972,4.272 16.958,2.349 17.614,-0.172"/><polygon points="26.249,3.281 28.544,3.229 29.514,8.54 26.371,8.612"/><polygon points="26.371,8.612 29.514,8.54 29.701,8.749 29.23,11.099 26.416,10.535"/><polygon points="31.943,8.673 29.701,8.749 29.514,8.54 28.544,3.229 29.124,2.662 31.974,2.793 31.841,5.682"/><polygon points="29.23,11.099 29.701,8.749 31.943,8.673 32.045,11.664"/><polygon points="31.974,2.793 29.124,2.662 29.138,-0.112 32.106,-0.096"/><polygon points="29.138,-0.112 29.124,2.662 28.544,3.229 26.249,3.281 26.171,-0.127"/><polygon points="38.073,6.566 38.155,10.845 35.818,10.89 35.736,6.611"/><polygon points="37.984,1.929 38.069,6.359 35.855,6.401 35.77,1.972"/><polygon points="32.774,2.797 34.703,2.886 35.855,6.401 34.553,8.695 32.746,8.756 32.642,5.687"/><polygon points="32.746,8.756 34.553,8.695 35.818,10.89 35.523,12.361 32.851,11.825"/><polygon points="37.984,1.929 35.415,1.979 35.426,-0.079 37.946,-0.066"/><polygon points="35.426,-0.079 35.415,1.979 34.703,2.886 32.774,2.797 32.907,-0.092"/><polygon points="35.523,12.361 35.818,10.89 38.155,10.845 38.194,12.897"/></g><g fill="#888888" stroke="#000000" stroke-width="0.46"><polygon points="-12.228,-35.055 -9.126,-36.063 -8.442,-33.954 -11.544,-32.947"/><polygon points="-8.836,-26.575 -11.723,-29.397 -9.54,-31.63 -6.653,-28.808"/><polygon points="-4.774,-37.476 -4.299,-36.014 -4.922,-34.458 -8.254,-33.376 -9.126,-36.063"/><polygon points="-14.902,-32.505 -13.325,-34.118 -9.54,-31.63 -11.723,-29.397"/><polygon points="-2.492,-27.074 -5.177,-26.096 -6.485,-29.686 -3.801,-30.664"/><polygon points="-8.661,-26.403 -6.736,-28.372 -5.821,-25.861 -7.485,-25.254"/><polygon points="-1.821,-36.058 -1.218,-30.971 -3.801,-30.664 -4.404,-35.752"/><polygon points="-2.492,-27.074 -3.801,-30.664 -1.218,-30.971 -0.828,-27.681"/><polygon points="-1.85,-36.304 -4.299,-36.014 -4.774,-37.476 -2.092,-38.347"/><polygon points="-13.496,-34.644 -13.325,-34.118 -14.902,-32.505 -16.194,-33.768"/><polygon points="-3.963,-21.811 -6.851,-24.634 -0.731,-26.865 -0.29,-23.15"/><polygon points="0.753,-21.141 0.328,-24.73 2.254,-24.958 2.679,-21.369"/><polygon points="5.774,-20.424 4.344,-23.801 4.509,-24.789 8.178,-23.531 7.341,-21.088"/><polygon points="9.528,-27.467 8.178,-23.531 5.442,-24.469 6.792,-28.405"/><polygon points="5.774,-20.424 3.14,-19.308 2.424,-20.996 5.059,-22.112"/><polygon points="0.328,-24.73 -0.162,-28.861 2.686,-29.199 3.176,-25.067"/><polygon points="8.124,-31.568 8.314,-29.489 4.551,-26.81 2.686,-29.199 2.435,-30.889 5.223,-31.303"/><polygon points="0.85,-20.322 2.061,-20.466 2.641,-19.097 1.074,-18.433"/><polygon points="2.435,-30.889 2.686,-29.199 -0.162,-28.861 -0.353,-30.475"/><polygon points="10.02,-28.904 8.314,-29.489 8.124,-31.568 11.025,-31.834"/><polygon points="-0.665,-33.102 -1.099,-36.767 1.055,-37.022 1.49,-33.357"/><polygon points="-0.665,-33.102 2.081,-33.427 2.34,-31.684 -0.447,-31.269"/><polygon points="2.34,-31.684 2.081,-33.427 2.611,-34.551 5.014,-34.908 6.929,-35.083 8.048,-34.242 8.218,-32.38 5.127,-32.098"/><polygon points="1.881,-38.788 6.381,-38.093 6.021,-35.766 1.521,-36.462"/><polygon points="1.077,-38.912 1.055,-37.022 -1.099,-36.767 -1.316,-38.599 0.109,-39.062"/><polygon points="6.381,-38.093 10.577,-37.444 10.218,-35.118 6.021,-35.766"/><polygon points="8.218,-32.38 8.048,-34.242 10.749,-35.332 12.069,-34.88 11.309,-32.663"/><polygon points="12.069,-34.88 10.749,-35.332 11.064,-37.369 12.829,-37.097"/></g><g fill="#888888" stroke="#000000" stroke-width="0.46"><polygon points="22.123,-26.707 22.808,-29.809 24.731,-29.384 24.046,-26.282"/><polygon points="28.454,-24.935 24.561,-24.454 24.303,-26.546 28.196,-27.026"/><polygon points="22.85,-29.997 23.906,-34.781 28.148,-33.844 27.092,-29.06"/><polygon points="32.486,-25.432 28.454,-24.935 28.141,-27.473 32.173,-27.97"/><polygon points="21.903,-25.71 23.208,-25.422 23.346,-24.304 21.543,-24.082"/><polygon points="34.759,-27.664 33.271,-27.307 31.866,-28.155 30.942,-32.012 33.567,-32.641"/><polygon points="33.487,-25.556 33.271,-27.307 34.759,-27.664 35.214,-25.769"/><polygon points="32.943,-35.244 33.567,-32.641 28.984,-31.543 28.361,-34.146"/><polygon points="26.517,-38.639 27.052,-34.67 24.029,-35.337 24.705,-38.395"/><polygon points="26.517,-38.639 30.141,-39.128 30.418,-37.075 26.793,-36.586"/><polygon points="32.391,-37.547 30.418,-37.075 30.141,-39.128 31.954,-39.372"/><polygon points="15.725,-37.186 16.163,-33.933 12.966,-35.029 13.607,-36.9"/><polygon points="11.683,-31.287 12.966,-35.029 15.91,-34.02 14.627,-30.277"/><polygon points="20.851,-37.876 20.943,-37.193 19.795,-34.757 16.119,-34.262 15.725,-37.186"/><polygon points="14.528,-29.117 14.627,-30.277 15.98,-32.051 20.117,-31.696 19.857,-28.66"/><polygon points="11.683,-31.287 14.627,-30.277 14.528,-29.117 11.041,-29.415"/><polygon points="23.495,-36.629 22.429,-31.801 20.058,-32.325 21.124,-37.153"/><polygon points="19.857,-28.66 20.164,-32.237 22.415,-31.74 21.7,-28.502"/><polygon points="23.495,-36.629 20.943,-37.193 20.851,-37.876 23.86,-38.281"/><polygon points="19.033,-23.772 14.889,-23.261 14.654,-25.164 18.798,-25.675"/><polygon points="16.203,-28.17 19.048,-27.927 18.859,-25.718 16.014,-25.961"/><polygon points="12.723,-28.468 16.203,-28.17 16.014,-25.961 12.534,-26.259"/><polygon points="19.033,-23.772 18.798,-25.675 19.532,-26.196 21.114,-25.846 20.701,-23.978"/><polygon points="8.696,-22.575 12.787,-25.811 14.384,-25.005 14.603,-23.225 8.668,-22.493"/><polygon points="21.114,-25.846 19.532,-26.196 19.676,-27.873 21.526,-27.714"/><polygon points="9.496,-24.906 10.248,-27.1 11.746,-26.586 10.993,-24.392"/><polygon points="12.678,-28.472 12.495,-26.329 10.248,-27.1 10.774,-28.635"/><polygon points="13.86,-15.286 15.911,-17.383 18.314,-13.911 16.823,-12.387"/><polygon points="18.903,-13.826 18.314,-13.911 15.911,-17.383 15.85,-18.806 18.059,-19.78 19.341,-16.872"/><polygon points="13.86,-15.286 11.593,-17.503 13.644,-19.6 15.911,-17.383"/><polygon points="18.059,-19.78 15.85,-18.806 14.485,-19.753 14.163,-22.365 16.778,-22.688"/><polygon points="14.163,-22.365 14.485,-19.753 10.641,-19.055 9.719,-21.816"/><polygon points="16.823,-12.387 18.314,-13.911 18.903,-13.826 18.466,-10.78"/><polygon points="9.719,-21.816 10.641,-19.055 10.331,-18.738 8.122,-20.898 8.38,-21.651"/><polygon points="19.444,-11.966 19.917,-15.261 22.704,-14.861 22.231,-11.566"/><polygon points="27.515,-12.39 24.356,-11.281 23.2,-14.571 26.359,-15.681"/><polygon points="18.886,-19.888 20.758,-20.712 23.621,-19.33 24.788,-16.294 23.267,-14.78 19.917,-15.261 20.165,-16.985"/><polygon points="19.389,-11.583 22.231,-11.566 22.553,-10.647 19.646,-9.626 19.175,-10.087"/><polygon points="27.56,-20.642 28.459,-17.275 24.788,-16.294 23.889,-19.662"/><polygon points="27.515,-12.39 26.291,-15.876 28.663,-16.509 29.57,-13.112"/><polygon points="20.458,-23.142 24.877,-23.687 25.176,-21.258 20.758,-20.712"/><polygon points="27.222,-21.908 25.284,-21.391 24.998,-23.702 26.687,-23.911"/><polygon points="20.458,-23.142 20.758,-20.712 18.886,-19.888 17.607,-22.79"/><polygon points="36.083,-22.143 37.116,-17.83 34.845,-17.285 33.811,-21.598"/><polygon points="28.865,-18.856 28.061,-21.866 30.041,-22.394 30.844,-19.384"/><polygon points="29.763,-15.493 28.865,-18.856 30.736,-19.355 31.634,-15.992"/><polygon points="31.116,-24.457 33.423,-24.742 33.811,-21.598 31.504,-21.314"/><polygon points="35.762,-15.287 32.21,-14.04 31.566,-15.873 35.118,-17.12"/><polygon points="36.083,-22.143 33.811,-21.598 33.423,-24.742 35.401,-24.986"/><polygon points="35.762,-15.287 35.118,-17.12 37.168,-17.612 37.573,-15.923"/><polygon points="29.467,-24.254 29.662,-22.674 27.966,-22.222 27.489,-24.01"/><polygon points="29.807,-15.328 31.517,-15.785 32.139,-14.015 30.327,-13.378"/></g><g fill="#888888" stroke="#000000" stroke-width="0.46"><polygon points="9.534,27.164 11.907,24.777 13.773,26.632 11.4,29.019"/><polygon points="15.885,32.48 12.702,31.995 13.2,28.724 16.383,29.209"/><polygon points="11.907,24.777 15.567,21.096 17.589,23.107 13.929,26.787"/><polygon points="20.172,23.185 20.035,27.7 17.452,27.621 17.589,23.107"/><polygon points="20.035,27.7 19.929,31.211 17.407,31.135 17.513,27.623"/><polygon points="12.702,31.995 9.33,31.482 9.662,29.303 13.034,29.817"/><polygon points="17.172,32.676 17.407,31.135 19.929,31.211 19.872,33.087"/><polygon points="8.166,28.54 9.662,29.303 9.33,31.482 7.73,31.238 7.021,29.692"/><polygon points="18.425,18.222 20.321,18.28 20.172,23.185 17.589,23.107 16.426,20.233"/><polygon points="26.448,12.581 29.79,13.251 28.945,17.466 25.603,16.796"/><polygon points="27.367,22.575 23.811,22.689 23.73,20.178 27.287,20.064"/><polygon points="32.374,22.415 27.367,22.575 27.239,18.578 32.246,18.417"/><polygon points="29.79,13.251 33.31,13.957 32.465,18.172 28.945,17.466"/><polygon points="21.057,20.39 21.152,17.262 23.576,17.336 23.481,20.463"/><polygon points="22.821,13.8 25.47,16.434 25.826,17.404 21.152,17.262 21.208,15.423"/><polygon points="26.251,12.542 25.47,16.434 22.821,13.8 24.435,12.178"/><polygon points="21.04,20.941 23.011,21 23.066,22.713 20.985,22.78"/><polygon points="37.556,16.745 36.682,20.442 33.528,19.696 34.402,15.999"/><polygon points="32.916,22.397 32.824,19.53 36.682,20.442 36.245,22.291"/><polygon points="37.556,16.745 34.402,15.999 34.753,14.247 37.993,14.896"/><polygon points="35.166,26.853 33.927,32.091 31.793,31.587 33.032,26.348"/><polygon points="31.124,23.255 34.407,23.15 34.494,25.878 31.211,25.984"/><polygon points="26.882,23.391 31.124,23.255 31.241,26.924 27,27.06"/><polygon points="35.348,26.08 34.494,25.878 34.407,23.15 36.054,23.097"/><polygon points="22.618,23.528 26.882,23.391 26.972,26.21 22.709,26.347"/><polygon points="31.299,34.828 26.915,34.16 27.409,30.919 31.793,31.587"/><polygon points="26.915,34.16 22.89,33.547 23.297,30.876 27.322,31.489"/><polygon points="31.299,34.828 31.793,31.587 33.927,32.091 33.211,35.119"/><polygon points="20.746,30.653 20.862,26.823 23.597,26.906 23.481,30.735"/><polygon points="22.618,23.528 22.709,26.347 20.878,26.291 20.96,23.581"/><polygon points="20.732,31.105 22.91,31.171 22.556,33.496 20.669,33.209"/><polygon points="24.131,43.945 19.328,44.007 19.273,39.7 24.076,39.639"/><polygon points="21.57,34.155 25.25,34.716 24.534,39.414 20.854,38.854"/><polygon points="17.105,33.475 21.57,34.155 20.886,38.643 16.421,37.963"/><polygon points="19.328,44.007 16.851,44.039 16.788,39.128 19.265,39.097"/><polygon points="25.25,34.716 28.257,35.174 27.608,39.439 24.6,38.981"/><polygon points="27.786,43.899 24.131,43.945 24.076,39.639 27.731,39.592"/><polygon points="12.466,41.573 11.519,39.506 15.487,37.688 16.434,39.754"/><polygon points="12.238,32.734 17.105,33.475 16.773,35.654 11.906,34.913"/><polygon points="12.923,42.57 15.51,41.384 15.544,44.055 13.615,44.08"/><polygon points="11.519,39.506 9.78,35.712 11.764,34.803 13.503,38.597"/><polygon points="32.556,37.889 31.667,41.648 28.85,40.982 29.739,37.223"/><polygon points="29.113,43.882 29.079,41.267 31.616,41.867 31.145,43.856"/><polygon points="32.556,37.889 29.739,37.223 30.01,35.441 33.026,35.9"/><polygon points="11.352,32.599 11.095,34.285 9.468,35.03 8.128,32.108"/></g><g fill="#888888" stroke="#000000" stroke-width="0.46"><polygon points="3.785,56.832 4.895,53.484 7.254,54.267 8.557,56.952 8.121,58.269"/><polygon points="11.654,47.421 11.003,52.27 9.022,52.004 9.674,47.155"/><polygon points="-1.383,55.119 -0.458,52.329 4.71,54.042 3.785,56.832"/><polygon points="11.003,52.27 10.596,55.293 7.554,54.884 7.96,51.861"/><polygon points="5.359,44.288 9.031,45.116 8.342,48.168 4.67,47.34"/><polygon points="5.359,44.288 4.786,46.829 0.132,45.779 0.705,43.239"/><polygon points="11.654,47.421 9.674,47.155 10.08,45.353 11.878,45.758"/><polygon points="8.121,58.269 8.557,56.952 10.341,57.192 10.108,58.928"/><polygon points="-4.362,48.458 -2.674,45.619 1.068,47.844 -0.621,50.683"/><polygon points="-1.383,55.119 -4.542,54.071 -3.842,51.959 -0.682,53.007"/><polygon points="0.705,43.239 0.109,45.88 -2.062,44.589 -1.026,42.848"/><polygon points="-4.362,48.458 -0.621,50.683 -7.063,53.235 -7.181,53.196"/><polygon points="5.504,43.501 1.331,42.56 1.923,39.932 6.096,40.873"/><polygon points="8.711,38.181 9.465,39.826 6.295,41.279 5.541,39.633"/><polygon points="6.829,34.073 8.711,38.181 7.082,38.927 5.2,34.82"/><polygon points="4.165,34.121 5.196,34.734 5.417,39.595 1.923,39.932 1.026,39.398"/><polygon points="5.78,43.563 6.295,41.279 10.51,42.492 10.052,44.526"/><polygon points="1.026,39.398 1.923,39.932 1.331,42.56 -0.596,42.125"/><polygon points="6.796,34.001 5.196,34.734 4.165,34.121 5.682,31.57"/><polygon points="10.052,44.526 10.51,42.492 10.656,42.425 11.8,44.92"/><polygon points="-10.61,31.104 -7.273,28.387 -5.531,30.526 -8.869,33.243"/><polygon points="-6.293,37.455 -10.836,35.134 -9.962,33.424 -5.419,35.744"/><polygon points="-2.653,24.627 -1.705,25.792 -1.192,29.127 -4.487,31.809 -7.273,28.387"/><polygon points="-6.293,37.455 -4.539,34.021 -1.985,35.325 -1.369,37.745 -2.271,39.509"/><polygon points="2.504,35.347 0.893,38.057 -1.679,36.527 -0.067,33.817"/><polygon points="2.504,35.347 -0.244,33.712 1.667,30.499 4.471,32.04"/><polygon points="-2.271,39.509 -1.369,37.745 0.439,38.82 -0.507,40.41"/><polygon points="0.667,24.116 3.435,28.035 1.063,29.71 -1.705,25.792"/><polygon points="-11.57,31.884 -9.962,33.424 -10.836,35.134 -13.121,33.968 -12.513,32.652"/><polygon points="4.471,32.04 0.7,29.967 3.435,28.035 5.22,30.562 5.277,30.686"/><polygon points="0.667,24.116 -1.705,25.792 -2.653,24.627 -0.316,22.725"/><polygon points="-6.572,38.211 -8.216,41.429 -11.653,39.673 -11.968,37.18 -11.269,35.812"/><polygon points="-15.582,39.291 -14.142,36.175 -11.968,37.18 -13.409,40.296"/><polygon points="-17.498,43.435 -15.592,39.311 -11.441,41.23 -13.348,45.354"/><polygon points="-11.269,35.812 -11.968,37.18 -14.142,36.175 -13.457,34.694"/><polygon points="-6.572,38.211 -2.521,40.28 -3.726,42.639 -7.777,40.57"/><polygon points="-5.08,48.098 -7.994,46.365 -5.847,42.756 -3.685,42.636 -2.315,43.451"/><polygon points="-8.654,52.708 -9.34,49.955 -7.411,46.712 -5.08,48.098 -7.958,52.939"/><polygon points="-11.82,51.658 -14.35,50.82 -12.692,45.818 -10.162,46.657"/><polygon points="-18.808,46.268 -17.498,43.435 -15.127,44.532 -16.436,47.364"/><polygon points="-19.994,48.833 -17.003,47.598 -13.65,48.709 -14.35,50.82 -20.04,48.933"/><polygon points="-2.315,43.451 -3.685,42.636 -2.489,40.296 -0.917,41.099"/></g><g fill="#888888" stroke="#000000" stroke-width="0.46"><polygon points="-27.795,5.378 -29.505,3.753 -28.739,2.115 -28.009,1.726 -26.687,4.211"/><polygon points="-28.009,1.726 -28.739,2.115 -30.498,0.563 -29.332,-0.759"/><polygon points="-33.346,3.79 -30.498,0.563 -28.98,1.902 -31.828,5.129"/><polygon points="-27.795,5.378 -30.01,7.711 -31.721,6.086 -29.505,3.753"/><polygon points="-33.073,7.286 -31.932,5.885 -30.01,7.711 -31.118,8.877"/><polygon points="-33.346,3.79 -31.828,5.129 -31.932,5.885 -33.073,7.286 -35.028,5.696"/><polygon points="-30.916,-0.172 -32.754,-1.793 -30.516,-2.984 -29.733,-1.513"/><polygon points="-31.865,-5.519 -30.516,-2.984 -31.783,-2.31 -33.131,-4.845"/><polygon points="-30.916,-0.172 -33.874,3.18 -35.435,1.803 -32.477,-1.549"/><polygon points="-36.353,-2.596 -35.066,-4.368 -33.152,-2.977 -34.439,-1.205"/><polygon points="-38.69,0.621 -36.353,-2.596 -34.439,-1.205 -36.777,2.011"/><polygon points="-32.081,-5.926 -33.126,-5.371 -33.918,-5.947 -32.864,-7.397"/><polygon points="-37.648,3.564 -36.53,2.191 -35.435,1.803 -33.874,3.18 -35.649,5.191"/><polygon points="-38.69,0.621 -36.53,2.191 -37.648,3.564 -39.647,1.938"/><polygon points="-37.273,-5.454 -39.598,-7.781 -38.06,-9.318 -35.735,-6.991"/><polygon points="-34.357,-10.203 -36.383,-9.125 -37.6,-9.778 -38.934,-11.945 -38.875,-12.619 -38.034,-13.914 -35.432,-12.224"/><polygon points="-42.397,-9.496 -41.989,-10.706 -38.934,-11.945 -37.6,-9.778 -39.598,-7.781 -40.761,-8.945"/><polygon points="-34.696,-6.237 -35.735,-6.991 -36.383,-9.125 -34.357,-10.203 -33.282,-8.183"/><polygon points="-42.986,-11.76 -41.484,-14.215 -40.051,-13.339 -41.553,-10.883"/><polygon points="-37.273,-5.454 -35.735,-6.991 -34.696,-6.237 -36.11,-4.291"/><polygon points="-43.184,-11.437 -41.989,-10.706 -42.397,-9.496 -44.033,-10.048"/><polygon points="-38.034,-13.914 -38.875,-12.619 -41.484,-14.215 -40.635,-15.604"/><polygon points="-41.686,0.279 -39.769,-2.077 -38.427,-1.102 -40.268,1.432"/><polygon points="-38.427,-1.102 -39.769,-2.077 -39.972,-2.556 -37.738,-4.788 -36.586,-3.635"/><polygon points="-45.287,-2.651 -43.629,-4.689 -40.028,-1.759 -41.686,0.279"/><polygon points="-37.738,-4.788 -39.972,-2.556 -42.489,-4.649 -40.042,-7.094"/><polygon points="-40.042,-7.094 -42.489,-4.649 -43.458,-4.899 -43.898,-5.623 -42.828,-8.797 -41.194,-8.247"/><polygon points="-45.966,-6.888 -43.898,-5.623 -43.458,-4.899 -45.287,-2.651 -47.471,-4.428"/><polygon points="-42.828,-8.797 -43.898,-5.623 -45.966,-6.888 -44.462,-9.348"/><polygon points="-38.939,6.531 -40.85,10.441 -43.003,9.389 -41.092,5.478"/><polygon points="-38.927,6.506 -41.041,5.473 -39.26,3.284 -37.895,4.395"/><polygon points="-42.888,0.332 -39.419,3.154 -41.33,5.503 -44.799,2.681"/><polygon points="-45.949,13.223 -44.946,7.633 -41.153,11.06 -41.359,11.482 -45.566,13.508"/><polygon points="-47.43,12.121 -50.087,10.144 -47.875,7.171 -45.218,9.148"/><polygon points="-52.996,4.606 -51.256,1.761 -48.747,3.295 -50.487,6.141"/><polygon points="-54.255,6.664 -46.72,5.618 -50.087,10.144 -54.415,6.925"/><polygon points="-51.256,1.761 -49.578,-0.982 -47.171,0.49 -48.849,3.233"/><polygon points="-46.051,-2.241 -42.888,0.332 -44.205,1.951 -47.368,-0.622"/><polygon points="-46.521,-2.624 -47.508,-1.411 -48.824,-2.216 -47.892,-3.739"/><polygon points="-37.793,13.047 -37.582,10.776 -36.311,9.842 -34.371,9.925 -33.184,11.052 -34.698,12.646"/><polygon points="-35.116,6.655 -33.067,8.322 -34.371,9.925 -36.42,8.258"/><polygon points="-36.615,5.436 -36.311,9.842 -37.582,10.776 -39.633,9.774 -37.258,4.913"/><polygon points="-33.184,11.052 -34.371,9.925 -33.067,8.322 -31.671,9.459"/><polygon points="-42.371,13.639 -42.677,13.005 -40.762,12.083 -39.633,9.774 -37.582,10.776 -37.793,13.047"/><polygon points="-43.24,-12.878 -44.359,-11.048 -47.621,-13.043 -46.502,-14.873"/><polygon points="-53.029,-12.449 -49.472,-17.761 -47.463,-16.415 -51.02,-11.104"/><polygon points="-44.359,-11.048 -46.518,-7.519 -49.78,-9.514 -47.621,-13.043"/><polygon points="-41.786,-15.256 -46.935,-14.838 -47.491,-16.5 -45.865,-19.003 -41.306,-16.041"/><polygon points="-45.865,-19.003 -47.491,-16.5 -49.442,-17.806 -47.799,-20.26"/><polygon points="-46.518,-7.519 -48.728,-3.906 -52.223,-6.043 -50.013,-9.657"/><polygon points="-55.877,-8.196 -53.029,-12.449 -49.582,-10.141 -52.431,-5.888"/><polygon points="-53.209,-4.632 -52.431,-5.888 -52.223,-6.043 -48.728,-3.906 -49.638,-2.418"/><polygon points="-55.877,-8.196 -52.431,-5.888 -53.209,-4.632 -56.781,-6.847"/><polygon points="-57.922,-12.664 -57.609,-15.039 -55.665,-14.782 -55.978,-12.407"/><polygon points="-51.974,-15.463 -53.648,-12.963 -55.638,-14.295 -53.964,-16.795"/><polygon points="-57.609,-15.039 -57.031,-19.414 -55.087,-19.158 -55.665,-14.782"/><polygon points="-56.384,-8.877 -58.256,-10.131 -58.234,-10.298 -55.556,-12.801 -54.313,-11.969"/><polygon points="-49.549,-19.084 -51.94,-15.513 -53.971,-16.873 -51.579,-20.444"/><polygon points="-56.448,-23.837 -54.995,-23.646 -53.632,-19.755 -54.163,-19.036 -57.031,-19.414"/><polygon points="-58.256,-10.131 -56.384,-8.877 -57.461,-7.269 -58.545,-7.941"/><polygon points="-53.511,-23.972 -50.541,-22.042 -51.579,-20.444 -54.55,-22.374"/><polygon points="-49.549,-19.084 -51.579,-20.444 -50.541,-22.042 -48.47,-20.696"/><polygon points="-54.406,-24.553 -54.995,-23.646 -56.448,-23.837 -56.199,-25.719"/><polygon points="-59.711,0.895 -55.994,1.385 -55.799,2.321 -57.511,4.622 -59.962,2.798"/><polygon points="-50.923,-0.317 -53.407,3.744 -55.809,2.274 -53.326,-1.786"/><polygon points="-59.711,0.895 -59.395,-1.499 -55.678,-1.008 -55.994,1.385"/><polygon points="-57.511,4.622 -55.799,2.321 -53.425,3.774 -55.059,6.445"/><polygon points="-56.743,-5.882 -52.77,-3.418 -54.001,-1.433 -57.974,-3.896"/><polygon points="-50.923,-0.317 -53.326,-1.786 -52.441,-3.214 -50.056,-1.735"/><polygon points="-56.743,-5.882 -57.974,-3.896 -59.06,-4.04 -58.66,-7.071"/></g><g fill="#888888" stroke="#000000" stroke-width="0.46"><polygon points="-30.916,44.118 -29.338,40.64 -25.614,42.329 -27.192,45.808"/><polygon points="-24.013,33.927 -20.589,35.051 -21.66,38.314 -25.084,37.191"/><polygon points="-24.013,33.927 -25.263,37.734 -26.197,37.428 -29.152,35.547 -27.157,32.412 -25.589,33.41"/><polygon points="-23.955,47.276 -27.192,45.808 -26.271,43.779 -23.035,45.247"/><polygon points="-30.916,44.118 -33.204,43.081 -32.003,40.435 -29.716,41.473"/><polygon points="-34.794,39.632 -34.096,37.2 -31.303,38.003 -32.001,40.434"/><polygon points="-19.228,42.411 -20.696,45.586 -23.348,44.36 -21.88,41.185"/><polygon points="-17.189,38 -19.228,42.411 -21.921,41.166 -19.881,36.755"/><polygon points="-30.292,30.416 -27.157,32.412 -28.654,34.765 -31.79,32.77"/><polygon points="-34.096,37.2 -33.339,34.569 -29.273,35.737 -30.029,38.369"/><polygon points="-23.451,47.505 -22.769,46.001 -21.219,46.717 -21.907,48.206"/><polygon points="-35.026,40.437 -33.166,40.971 -33.966,42.735 -35.488,42.045"/><polygon points="-17.189,38 -19.881,36.755 -19.445,35.426 -16.453,36.408"/><polygon points="-30.292,30.416 -31.79,32.77 -32.744,32.496 -31.859,29.419"/><polygon points="-26.84,31.665 -24.913,28.636 -24.013,29.208 -21.448,30.05 -21.31,30.405 -22.367,33.625 -25.244,32.681"/><polygon points="-19.214,27.36 -15.577,30.568 -17.254,32.469 -20.891,29.261"/><polygon points="-19.214,27.36 -21.176,29.584 -25.889,25.426 -23.927,23.202"/><polygon points="-18.093,35.028 -22.367,33.625 -21.527,31.067 -17.254,32.469"/><polygon points="-26.84,31.665 -29.098,30.228 -26.975,26.892 -24.717,28.33"/><polygon points="-15.198,33.694 -17.052,32.837 -17.254,32.469 -15.577,30.568 -14.281,31.711"/><polygon points="-17.802,35.123 -17.052,32.837 -15.198,33.694 -16.115,35.677"/><polygon points="-31.15,26.95 -30.105,23.315 -27.717,24.001 -28.762,27.636"/><polygon points="-31.15,26.95 -28.762,27.636 -30.033,29.633 -31.629,28.617"/><polygon points="-23.927,23.202 -26.114,25.681 -29.474,22.159 -27.564,19.994"/><polygon points="-27.564,19.994 -29.474,22.159 -29.75,22.08 -28.83,18.878"/><polygon points="-41.722,15.572 -36.709,14.923 -36.379,17.471 -41.392,18.12"/><polygon points="-45.372,19.277 -42.026,17.797 -39.116,19.276 -40.186,22.102 -45.48,20.097"/><polygon points="-35.414,23.911 -40.186,22.102 -39.116,19.276 -34.343,21.085"/><polygon points="-42.304,15.647 -42.026,17.797 -45.372,19.277 -44.939,15.989"/><polygon points="-31.621,16.416 -33.861,18.956 -34.64,19.301 -36.239,18.552 -36.709,14.923 -33.748,14.54"/><polygon points="-30.003,20.064 -31.022,23.609 -34.069,22.733 -33.05,19.189"/><polygon points="-30.003,20.064 -33.861,18.956 -31.621,16.416 -29.494,18.292"/><polygon points="-34.628,24.208 -34.069,22.733 -31.022,23.609 -31.531,25.381"/><polygon points="-47.435,34.928 -44.85,35.268 -45.801,37.366 -47.646,36.529"/><polygon points="-41.659,39.245 -44.499,37.956 -42.594,33.756 -39.754,35.045"/><polygon points="-47.354,34.311 -46.79,30.034 -43.503,30.468 -44.067,34.744"/><polygon points="-45.972,23.827 -44.977,23.958 -43.46,25.213 -44.142,30.384 -46.79,30.034"/><polygon points="-34.445,25.133 -35.163,27.027 -36.092,27.775 -40.901,25.954 -39.819,23.097"/><polygon points="-33.662,32.794 -35.047,37.614 -38.287,36.683 -36.902,31.863"/><polygon points="-37.793,40.999 -41.659,39.245 -40.526,36.747 -36.66,38.5"/><polygon points="-37.793,40.999 -36.66,38.5 -35.405,38.861 -36.224,41.71"/><polygon points="-44.044,21.496 -39.819,23.097 -40.751,25.559 -44.977,23.958"/><polygon points="-32.245,27.865 -33.662,32.794 -36.579,31.956 -35.163,27.027"/><polygon points="-44.044,21.496 -44.977,23.958 -45.972,23.827 -45.588,20.911"/><polygon points="-32.245,27.865 -35.163,27.027 -34.445,25.133 -31.753,26.153"/></g><g fill="#888888" stroke="#000000" stroke-width="0.46"><polygon points="-35.943,-32.063 -34.159,-34.207 -33.499,-34.165 -30.902,-30.292 -32.093,-28.86"/><polygon points="-28.454,-25.831 -31.894,-28.693 -30.542,-30.317 -27.102,-27.454"/><polygon points="-31.165,-34.018 -27.091,-33.761 -27.284,-30.714 -31.357,-30.971"/><polygon points="-23.521,-28.775 -25.409,-26.238 -27.109,-27.503 -25.221,-30.04"/><polygon points="-34.159,-34.207 -35.943,-32.063 -37.295,-33.188 -35.004,-34.26"/><polygon points="-28.178,-25.601 -27.04,-26.968 -25.64,-25.927 -26.76,-24.421"/><polygon points="-22.111,-33.447 -22.18,-32.353 -26.004,-30.623 -27.284,-30.714 -27.091,-33.761"/><polygon points="-21.855,-31.015 -23.521,-28.775 -24.763,-29.699 -23.097,-31.938"/><polygon points="-21.33,-31.721 -22.18,-32.353 -22.111,-33.447 -20.138,-33.322"/><polygon points="-41.828,-19.557 -40.049,-23.186 -37.443,-21.908 -39.222,-18.28"/><polygon points="-31.339,-18.266 -33.897,-14.827 -35.826,-16.262 -33.268,-19.7"/><polygon points="-40.049,-23.186 -38.9,-25.53 -34.277,-23.264 -35.426,-20.92"/><polygon points="-31.339,-18.266 -33.842,-20.128 -30.88,-24.109 -28.377,-22.247"/><polygon points="-37.152,-14.296 -40.318,-16.352 -39.001,-18.379 -35.836,-16.322"/><polygon points="-34.271,-29.631 -30.156,-26.206 -31.998,-23.993 -36.113,-27.417"/><polygon points="-41.828,-19.557 -39.222,-18.28 -40.428,-16.424 -42.654,-17.871"/><polygon points="-36.713,-14.01 -35.708,-15.556 -34.193,-14.429 -35.225,-13.043"/><polygon points="-28.377,-22.247 -31.164,-24.321 -29.824,-25.931 -27.238,-23.778"/><polygon points="-34.271,-29.631 -36.113,-27.417 -37.614,-28.153 -36.131,-31.179"/><polygon points="-40.58,-23.919 -43.33,-18.31 -54.111,-25.316 -47.495,-28.413"/></g><g stroke="#000000" stroke-width="0.8" stroke-linecap="butt"><polyline points="-3.441,-40.012 -5.911,-47.621"/><polyline points="-9.147,-38.159 -11.618,-45.768"/><polyline points="-14.854,-36.306 -17.325,-43.914"/></g><g fill="#888888" stroke="#000000" stroke-width="0.46"><polygon points="38.933,9.665 38.864,6.081 41.703,6.027 41.771,9.611"/><polygon points="38.978,12.041 41.209,10.1 41.221,10.727 44.951,10.258 45.191,12.168 38.996,12.946"/><polygon points="45.191,12.168 44.871,9.622 51.281,8.816 51.601,11.362"/><polygon points="38.864,6.081 38.767,1.063 41.342,1.014 41.439,6.032"/><polygon points="40.495,-2.492 45.123,-1.978 44.813,0.813 40.185,0.299"/><polygon points="54.382,-0.951 53.946,2.982 49.621,2.502 50.057,-1.431"/><polygon points="51.601,11.362 51.281,8.816 57.14,8.081 57.46,10.626"/><polygon points="40.495,-2.492 40.185,0.299 38.753,0.326 38.695,-2.691"/><polygon points="54.382,-0.951 58.324,-0.513 58.101,1.496 54.159,1.059"/><polygon points="60.86,1.96 62.232,5.807 59.305,6.85 57.934,3.004"/><polygon points="60.86,1.96 57.934,3.004 58.324,-0.513 60.046,-0.322"/><polygon points="61.806,10.081 57.46,10.626 57.132,8.016 61.478,7.471"/><polygon points="49.213,-2.329 49.562,-5.473 53.783,-5.004 53.434,-1.861"/><polygon points="49.233,-16.052 49.535,-11.766 45.116,-11.455 44.814,-15.741"/><polygon points="49.233,-16.052 51.889,-16.239 52.12,-12.966 49.464,-12.779"/><polygon points="45.791,-2.709 43.116,-3.006 43.674,-8.035 46.349,-7.738"/><polygon points="53.434,-1.861 53.818,-5.316 54.957,-5.066 57.999,-2.412 57.883,-1.367"/><polygon points="40.334,-15.426 44.814,-15.741 44.939,-13.964 40.459,-13.649"/><polygon points="38.645,-5.331 38.564,-9.547 41.505,-9.603 41.586,-5.388"/><polygon points="38.564,-9.547 38.505,-12.623 41.412,-12.679 41.471,-9.603"/><polygon points="38.645,-5.331 41.586,-5.388 41.343,-3.203 38.68,-3.498"/><polygon points="40.334,-15.426 40.459,-13.649 38.486,-13.611 38.453,-15.293"/></g><g stroke="#000000" stroke-width="0.8" stroke-linecap="butt"><polyline points="28.833,-40.969 27.765,-48.898"/><polyline points="22.887,-40.168 21.818,-48.097"/><polyline points="16.94,-39.367 15.872,-47.296"/></g><g fill="#888888" stroke="#000000" stroke-width="0.46"><polygon points="49.912,47.709 45.77,50.442 43.975,47.722 48.117,44.989"/><polygon points="57.925,42.422 54.368,44.769 52.913,42.564 56.47,40.217"/><polygon points="41.85,50.096 39.157,48.456 41.298,44.942 43.99,46.582"/><polygon points="42.346,50.398 43.975,47.722 45.77,50.442 44.161,51.504"/><polygon points="39.157,48.456 36.059,46.569 39.335,41.19 42.433,43.077"/><polygon points="33.181,38.724 33.887,35.737 37.426,36.574 36.72,39.561"/><polygon points="36.542,32.442 41.796,33.632 41.238,36.095 35.984,34.905"/><polygon points="32.338,42.289 33.181,38.724 37.267,39.691 36.424,43.255"/><polygon points="32.338,42.289 36.424,43.255 34.853,45.834 31.922,44.049"/><polygon points="36.542,32.442 35.984,34.905 34.184,34.479 34.762,32.039"/><polygon points="62.018,24.478 59.01,24.039 59.837,18.366 62.845,18.805"/><polygon points="51.285,15.905 53.188,15.809 55.219,17.002 55.104,17.017 55.295,20.825 51.542,21.013"/><polygon points="51.854,27.24 51.542,21.013 55.765,20.801 56.078,27.028"/><polygon points="63.57,13.83 62.845,18.805 60.256,18.428 60.981,13.452"/><polygon points="52.862,13.22 53.188,15.809 51.285,15.905 51.162,13.433"/><polygon points="52.143,33.005 51.854,27.24 53.998,27.132 54.287,32.897"/><polygon points="63.57,13.83 60.981,13.452 60.826,12.219 63.861,11.838"/><polygon points="50.475,15.713 50.681,19.831 47.131,20.009 46.925,15.891"/><polygon points="41.031,14.706 45.832,14.103 46.245,17.39 41.444,17.993"/><polygon points="38.29,17.116 41.29,17.825 44.189,20.987 43.725,23.376 37.176,21.828"/><polygon points="40.901,14.722 41.29,17.825 38.29,17.116 38.794,14.987"/><polygon points="50.475,15.713 46.925,15.891 46.687,13.995 50.366,13.533"/><polygon points="36.155,26.148 37.176,21.828 42.255,23.029 41.234,27.349"/><polygon points="51.275,31.667 50.322,31.714 47.129,29.965 46.893,25.256 50.943,25.053"/><polygon points="41.449,32.733 42.227,29.296 47.026,30.383 46.248,33.82"/><polygon points="35.553,28.69 36.155,26.148 38.694,26.748 38.093,29.29"/><polygon points="49.67,34.595 46.248,33.82 46.9,30.939 50.322,31.714"/><polygon points="35.345,29.573 37.002,29.965 36.623,31.64 34.946,31.261"/></g><g fill="#888888" stroke="#000000" stroke-width="0.46"><polygon points="44.228,-16.502 44.064,-18.84 48.507,-19.153 48.672,-16.815"/><polygon points="44.228,-16.502 40.031,-16.206 39.896,-18.122 44.093,-18.417"/><polygon points="37.532,-19.528 36.922,-22.073 40.972,-23.043 41.582,-20.498"/><polygon points="39.134,-26.464 40.972,-23.043 36.922,-22.073 36.242,-24.91"/><polygon points="37.979,-17.662 39.896,-18.122 40.031,-16.206 38.356,-16.089"/><polygon points="34.968,-30.228 34.33,-32.889 37.737,-33.705 38.375,-31.045"/><polygon points="34.33,-32.889 33.614,-35.878 38.157,-36.967 38.873,-33.977"/><polygon points="34.944,-41.226 35.597,-38.219 33.191,-37.642 32.461,-40.687"/><polygon points="35.394,-28.447 37.256,-28.893 38.311,-26.93 36.049,-25.714"/><polygon points="72.07,-48.864 71.036,-49.442 70.729,-50.486 73.423,-51.28"/></g><g fill="#888888" stroke="#000000" stroke-width="0.46"><polygon points="36.954,49.456 39.871,51.232 35.908,57.739 32.991,55.962"/><polygon points="26.609,63.203 27.369,60.217 32.248,61.458 31.489,64.444"/><polygon points="36.954,49.456 35.174,52.377 31.018,49.845 32.797,46.924"/><polygon points="43.114,54.952 38.671,55.833 41.04,51.944 42.721,52.968"/><polygon points="43.114,54.952 44.111,59.98 39.668,60.861 38.671,55.833"/><polygon points="39.718,66.536 35.643,65.5 36.656,61.519 40.73,62.555"/><polygon points="32.797,46.924 29.307,52.654 29.22,45.88 31.046,45.857"/><polygon points="25.569,45.927 29.22,45.88 29.273,50.022 25.622,50.069"/><polygon points="42.402,67.219 39.718,66.536 40.224,64.546 42.909,65.228"/><polygon points="45.311,66.029 43.805,66.328 41.522,63.527 41.04,61.095 44.208,60.467"/><polygon points="25.569,45.927 25.622,50.069 22.766,49.213 23.744,45.951"/><polygon points="19.733,59.338 21.752,59.942 21.268,61.845 19.144,61.305"/><polygon points="43.507,67.499 43.805,66.328 45.311,66.029 45.713,68.06"/><polygon points="22.219,48.253 21.281,51.382 19.392,50.816 20.329,47.687"/><polygon points="12.925,52.982 13.462,48.983 16.928,49.448 16.391,53.448"/><polygon points="21.281,51.382 20.173,55.082 16.578,54.005 17.686,50.305"/><polygon points="16.116,46.048 19.416,46.006 19.448,48.467 16.148,48.51"/><polygon points="22.327,47.893 20.66,47.394 20.642,45.99 22.905,45.961"/><polygon points="20.173,55.082 19.354,57.816 15.972,56.803 16.791,54.069"/><polygon points="12.471,56.357 12.925,52.982 16.391,53.448 15.937,56.823"/><polygon points="12.303,57.607 14.149,57.855 13.629,59.902 12.049,59.501"/></g><g fill="#888888" stroke="#000000" stroke-width="0.46"><polygon points="-0.211,56.35 4.931,58.054 3.696,61.778 -1.445,60.073"/><polygon points="-4.218,71.094 -4.932,65.655 -2.672,65.359 -1.959,70.798"/><polygon points="9.995,60.211 7.021,61.967 3.969,60.956 4.931,58.054 10.015,59.74"/><polygon points="9.717,66.703 5.761,66.534 5.929,62.612 9.995,60.211"/><polygon points="9.717,66.703 9.582,69.865 5.626,69.695 5.761,66.534"/><polygon points="6.194,73.624 2.981,73.821 2.763,70.264 5.976,70.067"/><polygon points="-1.755,74.111 -1.917,71.481 2.82,71.19 2.981,73.821"/><polygon points="-15.801,61.52 -13.404,60.129 -10.949,64.358 -13.347,65.749"/><polygon points="-6.421,60.459 -10.566,61.003 -11.11,56.854 -6.965,56.31"/><polygon points="-15.801,61.52 -18.686,56.55 -16.065,55.028 -13.18,59.999"/><polygon points="-14.89,51.483 -10.255,53.02 -11.43,56.565 -16.065,55.028"/><polygon points="-6.965,56.31 -11.545,56.912 -10.255,53.02 -7.267,54.01"/><polygon points="-21.037,52.501 -19.197,51.432 -16.255,55.011 -18.742,56.454"/><polygon points="-17.91,50.482 -14.89,51.483 -15.484,53.276 -18.504,52.275"/><polygon points="-19.227,50.045 -19.197,51.432 -21.037,52.501 -21.877,51.054 -20.417,49.651"/><polygon points="-20.389,55.211 -17.973,59.373 -20.281,60.712 -22.696,56.55"/><polygon points="-26.648,55.639 -24.488,57.887 -27.784,61.055 -29.945,58.807"/><polygon points="-15.182,64.181 -19.22,66.526 -22.011,61.717 -17.973,59.373"/><polygon points="-30.234,67.553 -26.355,64.897 -23.77,68.673 -27.649,71.329"/><polygon points="-30.234,67.553 -32.214,64.66 -29.628,62.89 -27.648,65.782"/><polygon points="-31.892,60.679 -29.945,58.807 -27.832,61.006 -29.78,62.878"/><polygon points="-26.648,55.639 -23.64,52.748 -21.677,54.79 -24.685,57.681"/><polygon points="-32.567,61.327 -31.185,62.765 -32.769,63.849 -33.731,62.446"/><polygon points="-15.182,64.181 -12.376,69.016 -15.595,70.885 -18.401,66.05"/><polygon points="-20.896,54.337 -21.677,54.79 -23.64,52.748 -22.471,51.624"/></g><g fill="#888888" stroke="#000000" stroke-width="0.46"><polygon points="-58.178,57.744 -61.729,56.109 -59.743,51.795 -56.192,53.43"/><polygon points="-52.961,46.412 -54.561,49.887 -57.137,48.701 -55.537,45.226"/><polygon points="-60.755,63.171 -62.287,56.354 -62.162,55.91 -58.178,57.744 -60.697,63.217"/><polygon points="-52.961,46.412 -55.537,45.226 -55.47,44.511 -52.226,44.816"/><polygon points="-60.933,37.909 -62.024,40.879 -64.658,39.912 -63.567,36.942"/><polygon points="-76.891,27.385 -75.339,27.708 -74.621,28.91 -75.378,32.555 -77.858,32.04"/><polygon points="-74.862,26.173 -75.339,27.708 -76.891,27.385 -76.531,25.653"/><polygon points="-61.367,41.411 -60.131,38.046 -57.416,39.044 -58.652,42.409"/><polygon points="-49.217,38.28 -50.504,41.075 -54.494,39.239 -53.207,36.443"/><polygon points="-53.688,43.875 -53.401,40.831 -50.918,41.974 -51.871,44.046"/><polygon points="-61.367,41.411 -58.652,42.409 -58.745,43.399 -61.985,43.094"/><polygon points="-49.217,38.28 -53.98,36.087 -53.978,36.01 -49.881,33.91 -48.138,34.14 -48.47,36.658"/><polygon points="-53.6,30.853 -53.933,33.372 -57.933,32.842 -57.599,30.323"/><polygon points="-53.6,30.853 -49.603,31.383 -49.942,33.941 -53.939,33.412"/><polygon points="-48.138,34.14 -49.881,33.91 -49.547,31.39 -47.806,31.621"/><polygon points="-46.925,24.937 -49.668,24.576 -48.918,18.885 -46.175,19.247"/><polygon points="-54.669,16.279 -51.808,16.604 -52.359,21.454 -55.22,21.129"/><polygon points="-46.925,24.937 -47.416,28.659 -49.61,28.37 -49.119,24.648"/><polygon points="-46.175,19.247 -49.949,18.749 -50.571,17.081 -48.271,13.988 -45.731,15.878"/><polygon points="-49.931,30.533 -53.552,30.053 -53.261,27.851 -49.639,28.331"/><polygon points="-54.669,16.279 -54.24,12.507 -52.552,12.699 -52.981,16.471"/><polygon points="-48.271,13.988 -50.108,16.458 -51.744,15.24 -52.89,11.637 -52.37,10.939"/><polygon points="-49.52,30.587 -49.283,28.804 -47.466,29.044 -47.702,30.828"/><polygon points="-52.37,10.939 -52.89,11.637 -54.126,11.497 -53.93,9.778"/><polygon points="-60.243,5.081 -60.735,8.151 -61.035,8.49 -64.303,8.471 -65.036,6.915 -60.595,4.82"/><polygon points="-67.725,8.184 -65.036,6.915 -64.303,8.471 -66.991,9.739"/><polygon points="-60.871,10.655 -64.403,10.922 -64.566,8.757 -61.035,8.49"/><polygon points="-70.999,11.421 -71.122,9.787 -69.015,8.793 -65.93,10.236 -65.87,11.033"/><polygon points="-55.888,8.321 -56.682,9.034 -60.735,8.151 -60.243,5.081"/><polygon points="-56.584,10.331 -56.682,9.034 -55.888,8.321 -54.673,9.226 -54.783,10.195"/><polygon points="-71.122,9.787 -70.999,11.421 -73.615,11.618 -73.465,10.892"/><polygon points="-56.501,24.49 -59.795,23.933 -59.243,20.672 -59.099,19.411 -55.872,19.777 -56.215,22.804"/><polygon points="-60.359,29.151 -62.872,28.818 -62.461,25.713 -59.948,26.046"/><polygon points="-59.081,29.32 -58.848,27.562 -57.072,27.862 -57.357,29.549"/><polygon points="-64.127,19.918 -63.562,15.184 -59.877,15.623 -60.441,20.357"/><polygon points="-61.301,11.49 -61.054,14.765 -63.478,14.476 -63.139,11.629"/><polygon points="-55.201,13.877 -56.98,13.675 -57.169,11.178 -54.875,11.004"/><polygon points="-75.527,20.82 -75.054,18.541 -70.401,19.508 -70.875,21.787"/><polygon points="-65.085,21.203 -65.493,24.624 -67.923,24.334 -67.516,20.914"/><polygon points="-65.085,21.203 -67.999,20.856 -67.537,16.985 -64.624,17.332"/><polygon points="-75.054,18.541 -74.182,14.347 -71.574,14.889 -72.445,19.083"/><polygon points="-67.619,27.588 -71.435,26.401 -70.723,24.113 -66.907,25.3"/><polygon points="-71.551,12.265 -68.141,12.007 -67.921,14.918 -71.331,15.175"/><polygon points="-71.989,12.298 -71.814,14.607 -74.136,14.125 -73.785,12.433"/><polygon points="-64.152,13.371 -66.989,13.033 -67.072,11.926 -63.952,11.69"/></g><g fill="#888888" stroke="#000000" stroke-width="0.46"><polygon points="-52.081,62.206 -52.211,60.491 -51.063,59.95 -47.867,61.158 -47.548,61.864"/><polygon points="-47.33,59.472 -47.867,61.158 -51.063,59.95 -50.581,58.437"/><polygon points="-54.431,57.211 -51.046,58.289 -51.666,60.234 -55.051,59.156"/><polygon points="-52.081,62.206 -55.794,62.487 -55.923,60.771 -52.211,60.491"/><polygon points="-43.471,60.701 -43.75,61.578 -47.548,61.864 -47.867,61.158 -47.33,59.472"/><polygon points="-54.431,57.211 -55.051,59.156 -57.441,58.056 -56.717,56.483"/><polygon points="-58.889,61.202 -57.441,58.056 -55.371,59.009 -56.819,62.155"/><polygon points="-58.889,61.202 -56.819,62.155 -56.788,62.562 -59.613,62.775"/><polygon points="-32.45,44.301 -33.568,46.766 -37.55,44.959 -36.432,42.495"/><polygon points="-36.432,42.495 -38.296,46.602 -42.228,44.818 -40.364,40.711"/><polygon points="-33.863,59.799 -36.262,57.302 -33.263,54.421 -30.864,56.917"/><polygon points="-37.098,61.076 -37.478,56.037 -33.863,59.799 -35.029,60.92"/><polygon points="-40.364,40.711 -41.11,42.354 -45.973,40.147 -45.228,38.504"/><polygon points="-45.228,38.504 -46.432,41.159 -49.097,39.932 -47.884,37.299"/><polygon points="-28.043,46.3 -29.534,49.586 -33.941,47.587 -32.45,44.301"/><polygon points="-30.864,56.917 -32.464,55.253 -28.648,51.585 -27.048,53.25"/><polygon points="-51.087,44.254 -49.097,39.932 -46.432,41.159 -48.422,45.481"/><polygon points="-54.899,52.534 -52.855,48.094 -50.683,49.094 -52.727,53.534"/><polygon points="-50.381,57.661 -54.424,56.374 -53.574,53.707 -49.531,54.994"/><polygon points="-28.043,46.3 -25.357,47.519 -26.24,49.465 -28.926,48.246"/><polygon points="-24.896,51.181 -27.048,53.25 -28.648,51.585 -26.495,49.516"/><polygon points="-55.112,52.998 -53.574,53.707 -54.424,56.374 -56.38,55.751"/><polygon points="-23.76,50.089 -24.668,49.144 -24.174,48.056 -22.455,48.835"/></g><g stroke="#000000" stroke-width="0.8" stroke-linecap="butt"><polyline points="-40.517,-33.888 -43.908,-41.133"/><polyline points="-45.951,-31.344 -49.342,-38.589"/><polyline points="-51.385,-28.8 -54.776,-36.046"/></g><g fill="#888888" stroke="#000000" stroke-width="0.46"><polygon points="-74.615,-13.561 -74.513,-10.097 -78.777,-9.972 -78.878,-13.436"/><polygon points="-76.909,-5.523 -80.272,-5.466 -80.323,-8.479 -76.96,-8.536"/><polygon points="-85.971,-22.477 -89.1,-22.027 -89.155,-24.209 -86.231,-24.283"/><polygon points="-81.315,3.348 -79.553,1.11 -76.619,3.42 -77.097,6.668"/><polygon points="-74.29,-2.466 -74.155,2.147 -76.451,2.214 -76.586,-2.399"/><polygon points="-74.304,-2.965 -76.082,-2.913 -76.113,-4.736 -74.357,-4.766"/><polygon points="-83.841,-4.606 -80.629,-4.66 -80.574,-1.448 -83.787,-1.393"/><polygon points="-76.343,7.262 -74.007,7.194 -73.957,8.913 -74.137,8.998"/><polygon points="-101.49,-21.982 -104.924,-20.557 -105.079,-20.703 -105.158,-23.801 -102.276,-23.875"/><polygon points="-109.764,-23.684 -105.158,-23.801 -105.083,-20.85 -109.689,-20.733"/><polygon points="-110.949,-23.654 -109.689,-20.733 -110.539,-19.653 -115.477,-23.539"/><polygon points="-60.391,-0.071 -63.175,-0.439 -62.589,-4.881 -59.804,-4.514"/><polygon points="-73.483,-2.245 -73.59,-5.895 -66.964,-6.088 -66.857,-2.439"/><polygon points="-66.91,5.588 -68.519,2.178 -64.118,0.101 -62.509,3.511"/><polygon points="-62.509,3.511 -64.453,-0.607 -60.391,-0.071 -60.754,2.683"/><polygon points="-73.59,-5.895 -73.687,-9.212 -68.436,-9.366 -68.339,-6.048"/><polygon points="-66.91,5.588 -70.136,7.11 -71.045,5.185 -67.819,3.663"/><polygon points="-73.242,5.996 -73.35,2.283 -71.503,2.229 -71.394,5.942"/><polygon points="-73.217,6.832 -71.786,6.79 -71.362,7.689 -73.167,8.541"/><polygon points="-64.506,-14.822 -64.309,-11.896 -68.587,-11.608 -68.785,-14.533"/><polygon points="-64.506,-14.822 -61.51,-15.024 -61.339,-12.485 -64.335,-12.283"/><polygon points="-58.774,-12.326 -59.197,-9.118 -61.606,-9.436 -61.183,-12.644"/><polygon points="-72.115,-14.308 -71.897,-11.078 -73.74,-11.024 -73.833,-14.192"/><polygon points="-58.601,-13.635 -60.028,-13.823 -60.115,-15.118 -58.39,-15.235"/><polygon points="-64.637,-15.615 -64.833,-18.524 -60.737,-18.801 -60.644,-19.508 -60.25,-19.229 -60.027,-15.926"/><polygon points="-62.624,-25.29 -59.741,-25.436 -59.625,-23.147 -62.509,-23.001"/><polygon points="-57.401,-22.728 -57.904,-18.919 -60.25,-19.229 -59.747,-23.037"/><polygon points="-60.027,-15.926 -60.25,-19.229 -57.904,-18.919 -58.283,-16.044"/><polygon points="-57.275,-23.683 -58.8,-23.885 -58.88,-25.479 -57.026,-25.573"/><polygon points="-64.637,-15.615 -69.139,-15.311 -69.433,-19.675 -64.932,-19.979"/><polygon points="-72.179,-24.807 -67.366,-25.051 -67.208,-21.917 -72.021,-21.674"/></g><g stroke="#888888" stroke-width="0.46" stroke-linecap="butt"><line x1="63.629" y1="28.674" x2="61.932" y2="40.318"/><line x1="65.327" y1="28.107" x2="63.37" y2="41.535"/><line x1="66.91" y1="28.338" x2="64.92" y2="41.984"/><line x1="68.492" y1="28.569" x2="66.47" y2="42.434"/><line x1="70.074" y1="28.799" x2="68.021" y2="42.883"/><line x1="71.656" y1="29.03" x2="69.571" y2="43.333"/><line x1="73.238" y1="29.261" x2="71.121" y2="43.782"/><line x1="74.82" y1="29.491" x2="72.671" y2="44.232"/><line x1="76.402" y1="29.722" x2="74.222" y2="44.681"/><line x1="77.984" y1="29.952" x2="75.772" y2="45.131"/><line x1="79.566" y1="30.183" x2="77.322" y2="45.58"/><line x1="81.148" y1="30.421" x2="78.908" y2="45.784"/><line x1="82.629" y1="31.344" x2="80.538" y2="45.683"/><line x1="83.857" y1="33.999" x2="82.358" y2="44.286"/><line x1="84.819" y1="38.486" x2="84.177" y2="42.889"/><line x1="63.891" y1="25.154" x2="81.653" y2="27.743"/><line x1="63.552" y1="23.659" x2="82.225" y2="26.381"/><line x1="63.759" y1="22.244" x2="81.905" y2="24.889"/><line x1="63.965" y1="20.828" x2="81.585" y2="23.397"/><line x1="64.171" y1="19.413" x2="81.266" y2="21.905"/><line x1="64.378" y1="17.997" x2="80.946" y2="20.412"/><line x1="64.982" y1="16.64" x2="80.626" y2="18.92"/><line x1="68.352" y1="15.686" x2="80.306" y2="17.428"/><line x1="74.948" y1="15.201" x2="79.544" y2="15.872"/><line x1="88.05" y1="38.564" x2="90.489" y2="38.041"/><line x1="86.622" y1="37.352" x2="93.23" y2="35.936"/><line x1="86.311" y1="35.901" x2="95.971" y2="33.83"/><line x1="86" y1="34.449" x2="98.712" y2="31.725"/><line x1="85.689" y1="32.998" x2="101.453" y2="29.62"/><line x1="85.377" y1="31.547" x2="103.769" y2="27.606"/><line x1="85.066" y1="30.096" x2="104.135" y2="26.009"/><line x1="84.755" y1="28.645" x2="103.699" y2="24.585"/><line x1="84.444" y1="27.193" x2="102.492" y2="23.326"/><line x1="84.133" y1="25.742" x2="101.284" y2="22.067"/><line x1="83.822" y1="24.291" x2="100.077" y2="20.807"/><line x1="83.511" y1="22.84" x2="98.87" y2="19.548"/><line x1="83.2" y1="21.388" x2="97.663" y2="18.289"/><line x1="82.889" y1="19.937" x2="96.455" y2="17.03"/><line x1="82.578" y1="18.486" x2="95.248" y2="15.771"/><line x1="82.382" y1="17.01" x2="93.598" y2="14.606"/><line x1="82.748" y1="15.414" x2="88.317" y2="14.22"/><g fill="#888888" stroke="#000000" stroke-width="0.46"><polygon points="64.974,28.056 66.52,28.281 68.532,28.575 68.329,29.969 69.267,30.106 69.047,31.621 68.108,31.484 66.096,31.191 66.316,29.676 64.771,29.451"/></g></g><g stroke="#888888" stroke-width="0.46" stroke-linecap="butt"><line x1="54.195" y1="71.333" x2="58.825" y2="84.091"/><line x1="55.423" y1="69.982" x2="60.463" y2="83.872"/><line x1="56.823" y1="69.107" x2="61.911" y2="83.127"/><line x1="58.342" y1="68.556" x2="63.252" y2="82.088"/><line x1="59.86" y1="68.005" x2="64.593" y2="81.049"/><line x1="61.378" y1="67.454" x2="65.934" y2="80.01"/><line x1="62.897" y1="66.904" x2="67.276" y2="78.97"/><line x1="64.415" y1="66.353" x2="68.617" y2="77.931"/><line x1="65.933" y1="65.802" x2="69.958" y2="76.892"/><line x1="67.451" y1="65.251" x2="71.299" y2="75.853"/><line x1="68.97" y1="64.7" x2="72.64" y2="74.814"/><line x1="70.488" y1="64.149" x2="73.981" y2="73.775"/><line x1="72.006" y1="63.598" x2="75.322" y2="72.736"/><line x1="73.524" y1="63.047" x2="76.663" y2="71.697"/><line x1="75.043" y1="62.496" x2="78.005" y2="70.658"/><line x1="76.561" y1="61.945" x2="79.346" y2="69.619"/><line x1="78.079" y1="61.394" x2="80.687" y2="68.58"/><line x1="79.641" y1="60.962" x2="81.94" y2="67.298"/><line x1="81.279" y1="60.743" x2="83.168" y2="65.947"/><line x1="52.065" y1="67.831" x2="80.757" y2="57.418"/><line x1="51.675" y1="66.219" x2="80.9" y2="55.614"/><line x1="51.345" y1="64.587" x2="80.514" y2="54.002"/><line x1="51.021" y1="62.952" x2="80.129" y2="52.389"/><line x1="50.697" y1="61.317" x2="79.744" y2="50.776"/><line x1="50.373" y1="59.682" x2="79.354" y2="49.165"/><line x1="50.049" y1="58.048" x2="77.734" y2="48.001"/><line x1="49.725" y1="56.413" x2="75.385" y2="47.101"/><line x1="49.4" y1="54.778" x2="72.701" y2="46.323"/><line x1="49.076" y1="53.143" x2="70.017" y2="45.544"/><line x1="49.057" y1="51.398" x2="67.332" y2="44.766"/><line x1="50.085" y1="49.272" x2="64.648" y2="43.988"/><line x1="55.986" y1="45.379" x2="61.922" y2="43.225"/><g fill="#888888" stroke="#000000" stroke-width="0.46"/></g><g stroke="#888888" stroke-width="0.46" stroke-linecap="butt"><line x1="102.45" y1="78.895" x2="109.628" y2="70.129"/><line x1="100.695" y1="78.694" x2="110.052" y2="67.265"/><line x1="99.545" y1="77.753" x2="109.23" y2="65.924"/><line x1="98.396" y1="76.812" x2="108.081" y2="64.983"/><line x1="97.246" y1="75.871" x2="106.931" y2="64.042"/><line x1="96.097" y1="74.929" x2="105.782" y2="63.101"/><line x1="94.947" y1="73.988" x2="104.632" y2="62.16"/><line x1="93.798" y1="73.047" x2="103.483" y2="61.218"/><line x1="92.648" y1="72.106" x2="102.333" y2="60.277"/><line x1="91.499" y1="71.165" x2="101.184" y2="59.336"/><line x1="90.349" y1="70.224" x2="100.034" y2="58.395"/><line x1="89.2" y1="69.282" x2="98.885" y2="57.454"/><line x1="88.05" y1="68.341" x2="97.735" y2="56.513"/><line x1="87.525" y1="66.637" x2="95.98" y2="56.312"/><line x1="93.489" y1="54.005" x2="83.565" y2="45.88"/><line x1="93.038" y1="55.575" x2="82.343" y2="46.819"/><line x1="92.087" y1="56.736" x2="81.419" y2="48.001"/><line x1="91.137" y1="57.897" x2="81.645" y2="50.125"/><line x1="90.186" y1="59.058" x2="82.22" y2="52.535"/><line x1="89.236" y1="60.219" x2="82.796" y2="54.946"/><line x1="88.285" y1="61.379" x2="83.372" y2="57.357"/><line x1="87.335" y1="62.54" x2="83.948" y2="59.767"/><line x1="86.384" y1="63.701" x2="84.524" y2="62.178"/><line x1="99.719" y1="54.342" x2="112.2" y2="64.561"/><line x1="100.409" y1="52.488" x2="114.158" y2="63.745"/><line x1="101.994" y1="51.366" x2="115.244" y2="62.215"/><line x1="103.579" y1="50.244" x2="116.33" y2="60.684"/><line x1="105.164" y1="49.122" x2="117.416" y2="59.154"/><line x1="106.748" y1="48.001" x2="118.501" y2="57.624"/><line x1="108.333" y1="46.879" x2="119.587" y2="56.093"/><line x1="109.918" y1="45.757" x2="120.673" y2="54.563"/><line x1="111.503" y1="44.635" x2="121.759" y2="53.033"/><line x1="113.088" y1="43.513" x2="122.845" y2="51.502"/><line x1="114.672" y1="42.391" x2="123.931" y2="49.972"/><line x1="116.257" y1="41.27" x2="124.888" y2="48.337"/><line x1="118.337" y1="40.553" x2="125.362" y2="46.305"/><line x1="106.378" y1="29.259" x2="87.357" y2="43.867"/><line x1="108.468" y1="29.452" x2="87.505" y2="45.552"/><line x1="109.494" y1="30.461" x2="88.639" y2="46.48"/><line x1="110.521" y1="31.471" x2="89.772" y2="47.407"/><line x1="111.548" y1="32.481" x2="90.905" y2="48.335"/><line x1="112.574" y1="33.491" x2="92.038" y2="49.263"/><line x1="113.601" y1="34.5" x2="93.172" y2="50.191"/><line x1="114.628" y1="35.51" x2="94.305" y2="51.119"/><line x1="115.654" y1="36.52" x2="95.567" y2="51.948"/><line x1="115.742" y1="38.251" x2="100.236" y2="50.161"/><g fill="#888888" stroke="#000000" stroke-width="0.46"/></g><g stroke="#888888" stroke-width="0.46" stroke-linecap="butt"><line x1="166.71" y1="17.991" x2="165.114" y2="19.116"/><line x1="168.21" y1="18.909" x2="164.015" y2="21.867"/><line x1="169.141" y1="20.229" x2="162.916" y2="24.617"/><line x1="170.071" y1="21.548" x2="161.817" y2="27.367"/><line x1="171.001" y1="22.868" x2="160.718" y2="30.118"/><line x1="171.932" y1="24.188" x2="160.872" y2="31.984"/><line x1="172.862" y1="25.507" x2="161.379" y2="33.603"/><line x1="173.792" y1="26.827" x2="162.33" y2="34.908"/><line x1="174.723" y1="28.147" x2="163.281" y2="36.213"/><line x1="175.653" y1="29.467" x2="164.232" y2="37.518"/><line x1="176.583" y1="30.786" x2="165.183" y2="38.823"/><line x1="177.514" y1="32.106" x2="166.135" y2="40.128"/><line x1="178.444" y1="33.426" x2="167.086" y2="41.433"/><line x1="179.333" y1="34.774" x2="168.037" y2="42.738"/><line x1="179.537" y1="36.606" x2="169.547" y2="43.649"/><line x1="160.215" y1="35.401" x2="157.946" y2="37.055"/><line x1="161.015" y1="36.499" x2="156.998" y2="39.426"/><line x1="161.815" y1="37.596" x2="156.051" y2="41.797"/><line x1="162.614" y1="38.694" x2="155.103" y2="44.168"/><line x1="163.414" y1="39.791" x2="154.156" y2="46.539"/><line x1="164.214" y1="40.889" x2="153.209" y2="48.91"/><line x1="165.014" y1="41.986" x2="152.317" y2="51.24"/><line x1="165.814" y1="43.084" x2="151.945" y2="53.191"/><line x1="166.614" y1="44.181" x2="153.02" y2="54.088"/><line x1="166.713" y1="45.789" x2="154.096" y2="54.985"/><line x1="191.028" y1="52.565" x2="182.117" y2="39.924"/><line x1="190.395" y1="54.243" x2="180.413" y2="40.083"/><line x1="189.358" y1="55.35" x2="178.888" y2="40.498"/><line x1="188.145" y1="56.205" x2="177.675" y2="41.354"/><line x1="186.931" y1="57.061" x2="176.461" y2="42.209"/><line x1="185.717" y1="57.916" x2="175.248" y2="43.065"/><line x1="184.504" y1="58.772" x2="174.034" y2="43.921"/><line x1="183.29" y1="59.627" x2="172.82" y2="44.776"/><line x1="182.077" y1="60.483" x2="171.607" y2="45.632"/><line x1="180.863" y1="61.339" x2="170.393" y2="46.487"/><line x1="179.65" y1="62.194" x2="169.18" y2="47.343"/><line x1="178.436" y1="63.05" x2="167.966" y2="48.198"/><line x1="177.222" y1="63.905" x2="166.752" y2="49.054"/><line x1="176.009" y1="64.761" x2="165.539" y2="49.909"/><line x1="174.795" y1="65.616" x2="164.325" y2="50.765"/><line x1="173.582" y1="66.472" x2="163.112" y2="51.62"/><line x1="172.244" y1="67.151" x2="161.898" y2="52.476"/><line x1="170.539" y1="67.31" x2="160.685" y2="53.332"/><line x1="168.508" y1="67.007" x2="159.471" y2="54.187"/><line x1="164.099" y1="63.328" x2="158.434" y2="55.294"/><line x1="159.689" y1="59.65" x2="157.801" y2="56.972"/><line x1="212.043" y1="82.34" x2="194.478" y2="57.426"/><line x1="211.154" y1="83.591" x2="192.137" y2="56.615"/><line x1="209.199" y1="83.329" x2="190.588" y2="56.93"/><line x1="207.042" y1="82.78" x2="189.406" y2="57.763"/><line x1="204.885" y1="82.231" x2="188.223" y2="58.597"/><line x1="202.728" y1="81.682" x2="187.041" y2="59.43"/><line x1="200.571" y1="81.134" x2="185.858" y2="60.264"/><line x1="198.414" y1="80.585" x2="184.676" y2="61.098"/><line x1="196.257" y1="80.036" x2="183.493" y2="61.931"/><line x1="194.1" y1="79.487" x2="182.311" y2="62.765"/><line x1="191.943" y1="78.938" x2="181.129" y2="63.599"/><line x1="189.786" y1="78.39" x2="179.946" y2="64.432"/><line x1="187.629" y1="77.841" x2="178.764" y2="65.266"/><line x1="185.472" y1="77.292" x2="177.581" y2="66.099"/><line x1="183.315" y1="76.743" x2="176.399" y2="66.933"/><line x1="181.053" y1="76.046" x2="175.216" y2="67.767"/><line x1="178.711" y1="75.235" x2="174.08" y2="68.667"/><line x1="174.896" y1="72.335" x2="173.192" y2="69.917"/><g fill="#888888" stroke="#000000" stroke-width="0.46"/></g></g></svg>