<?xml version="1.0" encoding="UTF-8" standalone="no"?><svg width="100.898" height="115.547" xmlns="http://www.w3.org/2000/svg"><style><![CDATA[@import url("https://fonts.googleapis.com/css?family=IM+Fell+Great+Primer");]]></style><rect x="0" y="0" width="100.898" height="115.547" id="background" fill="#6C823A"/><g id="map" transform="translate(58.849 62.126)"><g fill="none"><polyline points="9.071,-9.355 16.182,-17.304 30.627,-14.721 35.733,-17.018 38.246,-18.392 39.867,-19.609 41.164,-20.924 42.137,-22.336 42.975,-23.932 43.678,-25.711 44.246,-27.673 44.679,-29.818 45.113,-31.949 45.549,-34.067 45.986,-36.171 46.425,-38.262 46.865,-40.339 47.307,-42.402 47.75,-44.452 48.195,-46.488 48.514,-48.614 48.707,-50.828 48.775,-53.132 48.717,-55.525 48.533,-58.008 48.223,-60.579 47.788,-63.24 47.227,-65.99 46.761,-68.706 46.39,-71.388 46.113,-74.036 45.931,-76.65 45.844,-79.231 45.852,-81.777 45.954,-84.289 46.151,-86.768 46.564,-89.009 47.194,-91.011 48.04,-92.775 49.103,-94.302 50.382,-95.59 51.877,-96.641 53.589,-97.453 55.517,-98.027 57.85,-98.748 60.587,-99.614 63.729,-100.625 67.275,-101.783 71.871,-103.304 77.518,-105.189 86.15,-108.09 103.579,-113.966" stroke="#888888" stroke-width="2.201" stroke-linejoin="round" stroke-linecap="butt"/><polyline points="9.766,1.312 9.071,-9.355 16.182,-17.304 30.627,-14.721 35.733,-17.018 38.246,-18.392 39.867,-19.609 41.164,-20.924 42.137,-22.336 42.975,-23.932 43.678,-25.711 44.246,-27.673 44.679,-29.818 45.113,-31.949 45.549,-34.067 45.986,-36.171 46.425,-38.262 46.865,-40.339 47.307,-42.402 47.75,-44.452 48.195,-46.488 48.514,-48.614 48.707,-50.828 48.775,-53.132 48.717,-55.525 48.533,-58.008 48.223,-60.579 47.788,-63.24 47.227,-65.99 46.761,-68.706 46.39,-71.388 46.113,-74.036 45.931,-76.65 45.844,-79.231 45.852,-81.777 45.954,-84.289 46.151,-86.768 46.564,-89.009 47.194,-91.011 48.04,-92.775 49.103,-94.302 50.382,-95.59 51.877,-96.641 53.589,-97.453 55.517,-98.027 57.85,-98.748 60.587,-99.614 63.729,-100.625 67.275,-101.783 71.871,-103.304 77.518,-105.189 86.15,-108.09 103.579,-113.966" stroke="#FFFFFF" stroke-width="1.799" stroke-linejoin="round" stroke-linecap="round"/></g><g fill="none"><polyline points="-17.048,14.005 -30.605,24.417 -38.742,31.805 -43.004,35.74 -46.104,38.684 -48.945,41.457 -51.527,44.061 -54.153,46.768 -56.821,49.578 -59.532,52.492 -62.287,55.51 -64.768,58.379 -66.976,61.099 -68.911,63.67 -70.573,66.091 -72.033,68.593 -73.291,71.173 -74.56,74.518 -76.483,80.68" stroke="#888888" stroke-width="2.201" stroke-linejoin="round" stroke-linecap="butt"/><polyline points="9.766,1.312 -4.97,8.77 -17.048,14.005 -30.605,24.417 -38.742,31.805 -43.004,35.74 -46.104,38.684 -48.945,41.457 -51.527,44.061 -54.153,46.768 -56.821,49.578 -59.532,52.492 -62.287,55.51 -64.768,58.379 -66.976,61.099 -68.911,63.67 -70.573,66.091 -72.033,68.593 -73.291,71.173 -74.56,74.518 -76.483,80.68" stroke="#FFFFFF" stroke-width="1.799" stroke-linejoin="round" stroke-linecap="round"/></g><g fill="#888888" stroke="#000000" stroke-width="0.201"><polygon points="6.567,1.81 4.911,-1.461 8.568,-1.699 8.725,0.718"/><polygon points="8.317,-5.545 8.568,-1.699 4.911,-1.461 4.661,-5.307"/><polygon points="5.695,2.251 1.728,4.26 -0.595,-0.33 3.372,-2.339"/><polygon points="-0.033,-8.915 4.967,-8.937 4.981,-5.658 -0.018,-5.636"/><polygon points="8.253,-6.534 5.623,-6.362 5.612,-8.94 8.096,-8.951"/><polygon points="1.728,4.26 -2.06,6.177 -3.132,4.058 0.656,2.141"/><polygon points="-7.021,-2.301 -2.906,-3.215 -2.032,0.717 -6.147,1.632"/><polygon points="-0.033,-8.915 -0.013,-4.324 -2.892,-4.312 -5.83,-7.124 -5.838,-8.89"/><polygon points="-5.469,4.681 -6.147,1.632 -3.862,1.124 -3.184,4.173"/><polygon points="-7.021,-2.301 -7.862,-6.088 -5.335,-6.65 -4.493,-2.863"/><polygon points="-5.284,5.515 -3.624,5.146 -2.89,6.597 -4.826,7.577"/><polygon points="-5.838,-8.89 -5.83,-7.124 -7.986,-6.645 -8.482,-8.878"/></g><g fill="#888888" stroke="#000000" stroke-width="0.201"><polygon points="-0.008,16.627 -1.941,13.253 1.181,11.465 3.114,14.838"/><polygon points="4.081,19.472 3.273,18.659 3.114,14.838 3.89,13.018 7.211,16.363"/><polygon points="7.211,16.363 4.694,13.828 8.82,9.731 11.337,12.265"/><polygon points="1.679,19.572 -0.008,16.627 1.586,15.713 3.273,18.659"/><polygon points="-2.226,8.502 1.205,6.766 2.635,9.592 -0.795,11.328"/><polygon points="1.205,6.766 4.682,5.006 6.987,9.56 3.51,11.32"/><polygon points="1.679,19.572 3.273,18.659 4.081,19.472 2.514,21.028"/><polygon points="-2.226,8.502 -0.795,11.328 -2.488,12.298 -4.115,9.458"/><polygon points="4.682,5.006 7.836,3.41 9.852,7.393 6.698,8.99"/><polygon points="13.272,10.343 11.337,12.265 8.375,9.282 10.31,7.361"/><polygon points="11.903,3.345 9.946,6.062 8.447,3.1 10.278,2.174"/><polygon points="11.903,3.345 14.653,5.326 13.342,7.145 10.593,5.164"/><polygon points="15.34,8.29 14.146,7.088 15.155,5.688 16.781,6.859"/></g><g fill="#888888" stroke="#000000" stroke-width="0.201"><polygon points="-17.967,9.53 -19.135,5.622 -16.556,4.852 -15.389,8.76"/><polygon points="-7.464,-0.607 -6.112,5.476 -8.848,6.084 -10.2,0.001"/><polygon points="-19.135,5.622 -20.409,1.357 -14.449,-0.423 -13.175,3.842"/><polygon points="-7.829,8.92 -11.44,10.484 -12.721,7.529 -9.11,5.964"/><polygon points="-11.44,10.484 -15.014,12.033 -16.02,9.711 -12.446,8.163"/><polygon points="-7.652,8.843 -8.848,6.084 -6.112,5.476 -5.565,7.938"/><polygon points="-20.409,1.357 -21.742,-3.106 -18.597,-4.045 -17.264,0.418"/><polygon points="-8.778,-6.522 -7.464,-0.607 -11.193,0.221 -12.507,-5.693"/><polygon points="-17.749,10.262 -16.048,9.755 -15.054,12.05 -16.967,12.88"/><polygon points="-18.874,-7.131 -13.44,-8.086 -12.863,-4.797 -18.297,-3.843"/><polygon points="-8.778,-6.522 -12.507,-5.693 -12.943,-8.173 -9.288,-8.816"/><polygon points="-19.67,-6.991 -19.227,-4.47 -21.91,-3.668 -22.742,-6.452"/></g><g fill="#888888" stroke="#000000" stroke-width="0.201"><polygon points="-1.909,-9.707 -1.929,-14.166 1.841,-14.183 1.861,-9.723"/><polygon points="2.827,-21.254 7.21,-19.819 5.635,-15.006 1.252,-16.44"/><polygon points="-2.425,-22.972 2.827,-21.254 1.529,-17.286 -3.723,-19.005"/><polygon points="5.962,-9.742 1.861,-9.723 1.838,-14.806 5.94,-14.824"/><polygon points="-1.909,-9.707 -5.394,-9.692 -5.408,-12.923 -1.924,-12.938"/><polygon points="7.21,-19.819 10.777,-18.652 9.989,-16.246 6.423,-17.413"/><polygon points="5.962,-9.742 5.94,-14.824 7.188,-14.647 10.119,-12.026 8.084,-9.751"/><polygon points="-8.717,-12.663 -8.862,-16.252 -5.672,-16.381 -5.527,-12.792"/><polygon points="-8.862,-16.252 -8.965,-18.793 -3.723,-19.005 -3.62,-16.464"/><polygon points="-7.361,-24.587 -2.425,-22.972 -3.36,-20.112 -8.297,-21.727"/><polygon points="13.503,-15.809 10.119,-12.026 8.452,-13.516 11.837,-17.3"/><polygon points="-8.69,-11.993 -6.158,-12.096 -6.148,-9.688 -8.597,-9.678"/><polygon points="13.503,-15.809 11.837,-17.3 12.134,-18.208 14.853,-17.318"/><polygon points="-7.361,-24.587 -8.297,-21.727 -9.082,-21.696 -9.223,-25.197"/></g><g fill="#888888" stroke="#000000" stroke-width="0.201"><polygon points="20.078,-4.067 14.692,-6.82 16.149,-9.672 21.536,-6.919"/><polygon points="19.329,-15.726 23.405,-14.997 22.533,-10.119 18.457,-10.848"/><polygon points="28.658,-7.011 28.012,-3.815 25.448,-4.334 26.095,-7.53"/><polygon points="11.788,-10.892 14.24,-8.699 13.572,-7.392 10.199,-9.116"/><polygon points="16.313,-5.093 18.781,-3.832 16.807,0.031 14.339,-1.23"/><polygon points="12.483,2.777 14.795,-0.433 18.194,2.015 15.881,5.225"/><polygon points="18.781,-3.832 23.836,-1.248 22.33,1.697 17.275,-0.886"/><polygon points="10.624,-0.897 14.358,-1.14 14.909,-0.59 12.483,2.777 10.784,1.552"/><polygon points="12.023,-7.286 15.47,-5.524 14.741,-4.099 11.294,-5.86"/><polygon points="10.305,-5.796 11.294,-5.86 14.03,-2.707 14.358,-1.14 10.624,-0.897"/><polygon points="22.784,8.147 19.54,7.089 20.33,4.665 23.575,5.724"/><polygon points="26.716,2.585 26.012,6.063 23.464,5.547 24.168,2.069"/><polygon points="12.023,-7.286 11.294,-5.86 10.305,-5.796 10.146,-8.245"/><polygon points="23.457,8.367 24.065,6.505 25.849,6.866 25.416,9.006"/></g><g fill="#888888" stroke="#000000" stroke-width="0.201"><polygon points="3.766,27.552 3.188,23.925 7.577,23.226 8.154,26.853"/><polygon points="9.929,14.791 12.871,17.754 10.312,20.296 7.369,17.333"/><polygon points="4.528,20.155 7.577,23.226 3.188,23.925 2.853,21.819"/><polygon points="23.87,12.037 22.202,15.046 20.256,13.967 21.923,10.959"/><polygon points="19.413,7.889 22.437,8.876 21.73,11.042 18.706,10.055"/><polygon points="24.215,11.414 22.748,10.601 23.227,9.134 25.134,9.756"/></g><g fill="#888888" stroke="#000000" stroke-width="0.201"><polygon points="-14.584,14.027 -12.84,18.052 -14.273,18.673 -17.173,20.9 -19.849,17.417 -16.537,14.873"/><polygon points="-1.605,15.448 0.688,19.451 -5.642,23.078 -7.935,19.074"/><polygon points="-10.745,12.363 -7.694,11.041 -6.282,14.297 -9.334,15.619"/><polygon points="-3.212,12.643 -1.605,15.448 -4.723,17.234 -6.33,14.429"/><polygon points="-20.371,31.458 -24.095,28.715 -21.204,24.79 -17.48,27.533"/><polygon points="-24.264,20.807 -19.849,17.417 -16.79,21.4 -21.204,24.79"/><polygon points="1.061,31.575 -0.442,28.757 3.059,28.2 3.398,30.329"/><polygon points="-3.692,11.806 -5.828,13.029 -6.849,10.675 -4.839,9.804"/><polygon points="-27.209,23.07 -24.546,21.024 -23.171,22.814 -25.835,24.86"/><polygon points="-27.684,23.434 -26.554,24.905 -27.508,26.201 -29.437,24.781"/></g><g fill="#888888" stroke="#000000" stroke-width="0.201"><polygon points="-34.397,10.542 -31.395,8.447 -28.947,11.955 -31.949,14.05"/><polygon points="-23.331,17.569 -27.367,20.669 -29.217,18.259 -25.182,15.16"/><polygon points="-31.395,8.447 -28.582,6.483 -25.205,11.32 -28.019,13.284"/><polygon points="-23.331,17.569 -25.934,14.18 -21.868,11.057 -19.265,14.446"/><polygon points="-28.582,6.483 -25.747,4.504 -23.588,7.597 -26.423,9.576"/><polygon points="-31.753,20.961 -29.403,19.881 -28.267,21.36 -30.708,23.235"/><polygon points="-25.747,4.504 -23.095,2.653 -22.016,4.2 -24.667,6.051"/><polygon points="-19.265,14.446 -22.345,10.437 -18.844,9.391 -17.694,13.24"/><polygon points="-20.618,3.451 -21.838,3.815 -22.795,2.444 -21.243,1.36"/><polygon points="-23.306,1.825 -26.261,3.888 -27.92,1.511 -24.965,-0.552"/><polygon points="-29.306,-8.037 -26.688,-7.308 -28.217,-1.817 -30.835,-2.545"/><polygon points="-29.306,-8.037 -30.391,-4.14 -34.17,-5.192 -33.085,-9.089"/><polygon points="-23.051,-4.693 -22.221,-1.912 -25.752,-0.858 -26.582,-3.638"/><polygon points="-23.051,-4.693 -26.582,-3.638 -25.642,-7.017 -23.574,-6.442"/><polygon points="-23.136,1.706 -24.616,-0.416 -22.007,-1.196 -21.484,0.553"/></g><g fill="#888888" stroke="#000000" stroke-width="0.201"><polygon points="-17.29,-26.85 -21.119,-26.797 -21.173,-30.755 -17.344,-30.807"/><polygon points="-16.096,-36.755 -14.106,-33.103 -17.249,-31.39 -19.24,-35.042"/><polygon points="-14.106,-33.103 -12.453,-30.071 -14.123,-29.161 -15.776,-32.193"/><polygon points="-12.987,-26.909 -13.012,-28.691 -12.001,-29.242 -10.747,-26.939"/><polygon points="-21.275,-7.522 -22.628,-15.219 -17.653,-16.093 -16.301,-8.396"/><polygon points="-24.558,-25.95 -19.951,-26.013 -19.83,-17.195 -24.438,-17.132"/><polygon points="-9.909,-22.341 -9.707,-17.348 -13.496,-17.195 -13.698,-22.188"/><polygon points="-9.707,-17.348 -9.536,-13.119 -13.537,-12.957 -13.708,-17.186"/><polygon points="-25.434,-7.79 -23.835,-13.535 -22.706,-13.221 -22.29,-13.294 -21.275,-7.522 -23.234,-7.178"/><polygon points="-12.806,-9.01 -16.301,-8.396 -16.988,-12.309 -13.493,-12.923"/><polygon points="-16.456,-26.061 -12.981,-26.109 -12.937,-22.908 -16.413,-22.86"/><polygon points="-11.34,-9.267 -11.739,-11.539 -9.476,-11.63 -9.394,-9.609"/><polygon points="-9.96,-23.606 -12.434,-23.384 -12.471,-26.116 -10.314,-26.145 -10.042,-25.647"/><polygon points="-29.243,-8.85 -32.164,-9.663 -31.075,-13.576 -28.154,-12.763"/></g><g fill="#888888" stroke="#000000" stroke-width="0.201"><polygon points="-3.083,-24.029 -0.937,-30.587 3.07,-29.276 0.924,-22.718"/><polygon points="0.924,-22.718 2.457,-27.403 6.772,-25.991 5.239,-21.306"/><polygon points="8.864,-20.12 5.239,-21.306 6.976,-26.615 10.601,-25.429"/><polygon points="12.764,-18.844 9.232,-20 10.01,-22.378 13.542,-21.222"/><polygon points="16.079,-29.401 15.978,-25.297 10.601,-25.429 10.701,-29.533"/><polygon points="-10.574,-28.295 -12.55,-31.921 -7.584,-34.628 -5.608,-31.001"/><polygon points="-10.574,-28.295 -5.159,-31.246 -7.091,-25.341 -9.371,-26.087"/><polygon points="15.978,-25.297 15.885,-21.472 13.298,-21.536 13.392,-25.36"/><polygon points="-12.55,-31.921 -14.422,-35.355 -12.262,-36.532 -10.391,-33.098"/><polygon points="13.492,-18.606 14.11,-20.494 15.86,-20.451 15.796,-17.852"/><polygon points="-14.121,-39.485 -13.704,-36.875 -14.896,-36.225 -16.468,-39.11"/></g><g stroke="#888888" stroke-width="0.201" stroke-linecap="butt"><g fill="#888888" stroke="#000000" stroke-width="0.201"/></g><g stroke="#888888" stroke-width="0.201" stroke-linecap="butt"><g fill="#888888" stroke="#000000" stroke-width="0.201"/></g><g stroke="#888888" stroke-width="0.201" stroke-linecap="butt"><g fill="#888888" stroke="#000000" stroke-width="0.201"/></g><g stroke="#888888" stroke-width="0.201" stroke-linecap="butt"><g fill="#888888" stroke="#000000" stroke-width="0.201"/></g><g stroke="#888888" stroke-width="0.201" stroke-linecap="butt"><g fill="#888888" stroke="#000000" stroke-width="0.201"/></g><g stroke="#888888" stroke-width="0.201" stroke-linecap="butt"><g fill="#888888" stroke="#000000" stroke-width="0.201"/></g><g stroke="#888888" stroke-width="0.201" stroke-linecap="butt"><g fill="#888888" stroke="#000000" stroke-width="0.201"/></g></g></svg>