<?xml version="1.0" encoding="UTF-8" standalone="no"?><svg width="121.781" height="119.083" xmlns="http://www.w3.org/2000/svg"><style><![CDATA[@import url("https://fonts.googleapis.com/css?family=IM+Fell+Great+Primer");]]></style><rect x="0" y="0" width="121.781" height="119.083" id="background" fill="#009DC4"/><g id="map" transform="translate(61.194 70.016)"><polygon points="4.062,-9.153 7.207,6.953 6.417,8.126 -2.889,9.943 -4.062,9.153 -7.207,-6.953 -6.417,-8.126 2.889,-9.943" fill="#FFFFFF"/><g id="land"><polygon points="-117.901,-220.533 -86.608,-234.595 -51.862,-244.634 -3.133,-250.051 16.832,-249.504 94.35,-231.59 99.339,-229.494 150.101,-200.013 174.288,-179.33 208.783,-137.642 228.075,-102.554 244.658,-51.751 245.172,-49.257 248.25,-30.125 248.472,28.238 241.258,65.806 213.931,129.496 200.098,149.988 164.37,188.462 116.77,142.922 112.741,142.468 109.824,141.43 107.161,139.829 104.754,137.665 102.315,134.947 99.846,131.672 97.345,127.843 94.814,123.458 92.81,119.08 91.332,114.708 90.381,110.343 89.957,105.985 90.059,101.632 90.687,97.287 91.843,92.948 93.525,88.616 94.75,84.51 95.519,80.63 95.831,76.977 95.686,73.55 95.085,70.349 94.027,67.375 92.512,64.627 90.541,62.106 88.688,59.709 86.953,57.436 85.335,55.289 83.836,53.266 82.455,51.367 81.191,49.594 80.045,47.945 79.018,46.42 77.825,44.966 76.468,43.583 74.946,42.271 73.259,41.029 71.407,39.859 69.391,38.758 67.21,37.729 64.864,36.77 62.472,36.036 60.033,35.526 57.549,35.241 55.019,35.18 52.443,35.344 49.821,35.732 47.152,36.344 44.438,37.181 41.859,37.754 39.417,38.063 37.111,38.108 34.94,37.889 32.702,37.246 30.397,36.18 27.415,34.212 21.926,29.908 3.74,30.333 -5.712,36.189 -25.44,37.051 -29.617,39.574 -31.924,40.833 -33.752,41.668 -35.566,42.361 -37.366,42.911 -39.306,43.411 -41.387,43.862 -43.609,44.263 -45.971,44.615 -48.276,45.008 -50.522,45.443 -52.711,45.92 -54.843,46.438 -56.916,46.998 -58.932,47.599 -60.89,48.241 -62.791,48.926 -64.697,49.546 -66.609,50.104 -68.527,50.597 -70.451,51.027 -72.381,51.394 -74.317,51.697 -76.258,51.937 -78.206,52.113 -80.362,52.609 -82.728,53.424 -85.303,54.56 -88.087,56.015 -91.081,57.789 -94.284,59.884 -97.696,62.298 -101.317,65.032 -104.983,67.868 -108.694,70.807 -112.449,73.849 -116.25,76.994 -120.593,80.686 -125.478,84.925 -132.399,91.045 -204.23,144.31 -215.013,127.69 -229.26,99.877 -240.838,67.324 -250.069,1.038 -247.165,-38.015 -247.13,-38.239 -237.869,-77.162 -237.113,-79.454 -220.473,-118.014 -191.801,-160.461 -179.061,-174.564" fill="#6C823A" stroke="#000000" stroke-width="0.212"/></g><g fill="none"><polyline points="9.967,-25.09 14.108,-36.551 25.011,-49.777 26.985,-57.913 28.074,-62.039 28.936,-64.867 29.79,-67.301 30.636,-69.341 31.548,-71.288 32.525,-73.143 33.567,-74.906 34.675,-76.575 35.931,-78.403 37.337,-80.388 38.891,-82.531 40.594,-84.831 42.446,-87.29 44.447,-89.906 46.597,-92.68 48.895,-95.611 50.909,-98.711 52.637,-101.979 54.08,-105.415 55.237,-109.019 56.111,-113.326 56.702,-118.336 57.016,-125.652 57.071,-140.086" stroke="#888888" stroke-width="2.212" stroke-linejoin="round" stroke-linecap="butt"/><polyline points="3.081,-8.962 10.978,-15.476 9.967,-25.09 14.108,-36.551 25.011,-49.777 26.985,-57.913 28.074,-62.039 28.936,-64.867 29.79,-67.301 30.636,-69.341 31.548,-71.288 32.525,-73.143 33.567,-74.906 34.675,-76.575 35.931,-78.403 37.337,-80.388 38.891,-82.531 40.594,-84.831 42.446,-87.29 44.447,-89.906 46.597,-92.68 48.895,-95.611 50.909,-98.711 52.637,-101.979 54.08,-105.415 55.237,-109.019 56.111,-113.326 56.702,-118.336 57.016,-125.652 57.071,-140.086" stroke="#FFFFFF" stroke-width="1.788" stroke-linejoin="round" stroke-linecap="round"/></g><g fill="none"><polyline points="10.978,-15.476 24.418,-9.412 36.531,4.458 42.164,5.44 45.015,5.829 46.962,5.952 48.63,5.917 50.021,5.725 51.341,5.413 52.592,4.98 53.773,4.426 54.884,3.751 56.031,3.054 57.213,2.334 58.431,1.592 59.684,0.827 60.972,0.041 62.296,-0.769 63.656,-1.601 65.05,-2.455 66.469,-3.396 67.911,-4.422 69.377,-5.535 70.866,-6.734 72.379,-8.02 73.915,-9.391 75.476,-10.849 77.059,-12.393 78.611,-13.906 80.129,-15.39 81.616,-16.844 83.069,-18.267 84.491,-19.661 85.879,-21.024 87.236,-22.358 88.559,-23.661 89.823,-25.118 91.026,-26.728 92.169,-28.492 93.252,-30.409 94.275,-32.48 95.237,-34.704 96.139,-37.082 96.981,-39.613 98.228,-42.002 99.88,-44.248 101.937,-46.352 104.398,-48.314 107.775,-50.308 112.067,-52.334 118.804,-54.913 132.578,-59.614" stroke="#888888" stroke-width="2.212" stroke-linejoin="round" stroke-linecap="butt"/><polyline points="10.978,-15.476 24.418,-9.412 36.531,4.458 42.164,5.44 45.015,5.829 46.962,5.952 48.63,5.917 50.021,5.725 51.341,5.413 52.592,4.98 53.773,4.426 54.884,3.751 56.031,3.054 57.213,2.334 58.431,1.592 59.684,0.827 60.972,0.041 62.296,-0.769 63.656,-1.601 65.05,-2.455 66.469,-3.396 67.911,-4.422 69.377,-5.535 70.866,-6.734 72.379,-8.02 73.915,-9.391 75.476,-10.849 77.059,-12.393 78.611,-13.906 80.129,-15.39 81.616,-16.844 83.069,-18.267 84.491,-19.661 85.879,-21.024 87.236,-22.358 88.559,-23.661 89.823,-25.118 91.026,-26.728 92.169,-28.492 93.252,-30.409 94.275,-32.48 95.237,-34.704 96.139,-37.082 96.981,-39.613 98.228,-42.002 99.88,-44.248 101.937,-46.352 104.398,-48.314 107.775,-50.308 112.067,-52.334 118.804,-54.913 132.578,-59.614" stroke="#FFFFFF" stroke-width="1.788" stroke-linejoin="round" stroke-linecap="round"/></g><g fill="none"><polyline points="-14.392,14.774 -28.84,18.954 -40.405,16.529 -45.293,15.664 -47.908,15.238 -49.88,14.963 -51.752,14.742 -53.523,14.575 -55.375,14.431 -57.308,14.309 -59.321,14.209 -61.416,14.132 -63.583,14.167 -65.824,14.314 -68.138,14.573 -70.526,14.945 -72.987,15.428 -75.521,16.024 -78.128,16.733 -80.809,17.553 -83.523,18.268 -86.271,18.878 -89.051,19.382 -91.865,19.78 -94.712,20.073 -97.593,20.26 -100.507,20.342 -103.454,20.318 -106.48,20.479 -109.586,20.823 -112.772,21.351 -116.037,22.063 -119.381,22.959 -122.805,24.039 -126.309,25.303 -129.892,26.75 -133.451,28.261 -136.986,29.833 -140.497,31.469 -143.984,33.166 -147.871,35.17 -152.157,37.479 -158.116,40.825 -169.561,47.399" stroke="#888888" stroke-width="2.212" stroke-linejoin="round" stroke-linecap="butt"/><polyline points="-3.081,8.962 -14.392,14.774 -28.84,18.954 -40.405,16.529 -45.293,15.664 -47.908,15.238 -49.88,14.963 -51.752,14.742 -53.523,14.575 -55.375,14.431 -57.308,14.309 -59.321,14.209 -61.416,14.132 -63.583,14.167 -65.824,14.314 -68.138,14.573 -70.526,14.945 -72.987,15.428 -75.521,16.024 -78.128,16.733 -80.809,17.553 -83.523,18.268 -86.271,18.878 -89.051,19.382 -91.865,19.78 -94.712,20.073 -97.593,20.26 -100.507,20.342 -103.454,20.318 -106.48,20.479 -109.586,20.823 -112.772,21.351 -116.037,22.063 -119.381,22.959 -122.805,24.039 -126.309,25.303 -129.892,26.75 -133.451,28.261 -136.986,29.833 -140.497,31.469 -143.984,33.166 -147.871,35.17 -152.157,37.479 -158.116,40.825 -169.561,47.399" stroke="#FFFFFF" stroke-width="1.788" stroke-linejoin="round" stroke-linecap="round"/></g><g fill="none"><polyline points="-19.147,-8.577 -32.853,-9.352 -44.695,-13.82 -55.561,-16.044 -61.475,-17.13 -66.059,-17.82 -70.521,-18.36 -74.859,-18.751 -79.477,-19.075 -84.375,-19.333 -89.553,-19.523 -95.01,-19.647 -100.619,-19.663 -106.38,-19.572 -112.293,-19.375 -118.357,-19.07 -124.574,-18.658 -130.942,-18.139 -137.462,-17.514 -144.133,-16.781 -150.371,-16.384 -156.174,-16.324 -161.544,-16.6 -166.479,-17.212 -171.38,-18.405 -176.246,-20.179 -182.279,-23.269 -193.075,-29.875" stroke="#888888" stroke-width="2.212" stroke-linejoin="round" stroke-linecap="butt"/><polyline points="-6.226,-7.145 -19.147,-8.577 -32.853,-9.352 -44.695,-13.82 -55.561,-16.044 -61.475,-17.13 -66.059,-17.82 -70.521,-18.36 -74.859,-18.751 -79.477,-19.075 -84.375,-19.333 -89.553,-19.523 -95.01,-19.647 -100.619,-19.663 -106.38,-19.572 -112.293,-19.375 -118.357,-19.07 -124.574,-18.658 -130.942,-18.139 -137.462,-17.514 -144.133,-16.781 -150.371,-16.384 -156.174,-16.324 -161.544,-16.6 -166.479,-17.212 -171.38,-18.405 -176.246,-20.179 -182.279,-23.269 -193.075,-29.875" stroke="#FFFFFF" stroke-width="1.788" stroke-linejoin="round" stroke-linecap="round"/></g><g fill="none"><polyline points="-16.746,-24.622 -26.351,-39.646 -31.782,-46.291 -34.464,-49.817 -36.208,-52.44 -37.618,-54.897 -38.693,-57.189 -39.634,-59.561 -40.442,-62.014 -41.116,-64.548 -41.657,-67.163 -42.473,-69.696 -43.565,-72.147 -44.933,-74.515 -46.577,-76.802 -48.497,-79.006 -50.692,-81.129 -53.164,-83.169 -55.911,-85.128 -58.709,-87.225 -61.56,-89.46 -64.463,-91.833 -67.417,-94.345 -70.424,-96.996 -73.482,-99.784 -76.592,-102.711 -79.754,-105.776 -82.747,-109.715 -85.57,-114.528 -88.225,-120.214 -90.71,-126.773 -93.251,-135.463 -95.85,-146.283 -99.183,-163.004 -105.286,-196.936" stroke="#888888" stroke-width="2.212" stroke-linejoin="round" stroke-linecap="butt"/><polyline points="-19.147,-8.577 -16.746,-24.622 -26.351,-39.646 -31.782,-46.291 -34.464,-49.817 -36.208,-52.44 -37.618,-54.897 -38.693,-57.189 -39.634,-59.561 -40.442,-62.014 -41.116,-64.548 -41.657,-67.163 -42.473,-69.696 -43.565,-72.147 -44.933,-74.515 -46.577,-76.802 -48.497,-79.006 -50.692,-81.129 -53.164,-83.169 -55.911,-85.128 -58.709,-87.225 -61.56,-89.46 -64.463,-91.833 -67.417,-94.345 -70.424,-96.996 -73.482,-99.784 -76.592,-102.711 -79.754,-105.776 -82.747,-109.715 -85.57,-114.528 -88.225,-120.214 -90.71,-126.773 -93.251,-135.463 -95.85,-146.283 -99.183,-163.004 -105.286,-196.936" stroke="#FFFFFF" stroke-width="1.788" stroke-linejoin="round" stroke-linecap="round"/></g><g fill="none"><polyline points="13.333,8.742 25.658,14.971" stroke="#888888" stroke-width="2.212" stroke-linejoin="round" stroke-linecap="butt"/><polyline points="6.226,7.145 13.333,8.742 25.658,14.971" stroke="#FFFFFF" stroke-width="1.788" stroke-linejoin="round" stroke-linecap="round"/></g><g fill="#888888" stroke="#000000" stroke-width="0.212"><polygon points="1.299,0 0.919,0.919 0,1.299 -0.919,0.919 -1.299,0 -0.919,-0.919 0,-1.299 0.919,-0.919"/></g><g fill="#888888" stroke="#000000" stroke-width="0.212"><polygon points="11.18,-9.266 11.634,-4.588 4.912,-4.804 4.176,-8.569 4.199,-8.588"/><polygon points="6.648,4.088 9.119,3.606 10.329,5.275 9.951,6.957 7.082,6.312"/><polygon points="12.04,-0.42 12.526,4.584 10.006,4.829 9.519,-0.175"/><polygon points="6.648,4.088 5.819,-0.158 8.29,-0.64 9.119,3.606"/><polygon points="9.951,6.957 10.329,5.275 12.572,5.057 12.82,7.602"/><polygon points="6.73,-3.945 10.052,-3.839 9.966,-1.156 6.644,-1.263"/><polygon points="12.019,-0.637 9.942,-0.435 10.052,-3.839 11.713,-3.785"/><polygon points="6.73,-3.945 6.644,-1.263 5.641,-1.067 5.069,-3.998"/></g><g fill="#888888" stroke="#000000" stroke-width="0.212"><polygon points="-16.338,3.212 -12.319,2.394 -11.456,6.633 -15.475,7.451"/><polygon points="-5.979,-0.664 -5.312,2.753 -10.545,3.775 -11.212,0.358"/><polygon points="-16.338,3.212 -17.291,-1.468 -13.193,-2.303 -12.24,2.378"/><polygon points="-5.312,2.753 -4.613,6.333 -7.305,6.859 -8.004,3.279"/><polygon points="-6.694,-4.324 -5.979,-0.664 -8.696,-0.134 -9.411,-3.794"/><polygon points="-5.984,9.329 -10.041,11.414 -11.294,8.976 -7.237,6.891"/><polygon points="-14.656,11.471 -15.475,7.451 -12.32,6.809 -11.501,10.829"/><polygon points="-12.857,-6.874 -10.232,-6.583 -10.704,-2.327 -13.328,-2.618"/><polygon points="-17.291,-1.468 -17.977,-4.84 -15.963,-5.25 -15.276,-1.879"/><polygon points="-6.694,-4.324 -9.411,-3.794 -9.116,-6.459 -7.066,-6.232"/><polygon points="-5.947,9.31 -7.175,6.92 -4.597,6.416 -4.206,8.416"/><polygon points="-15.517,-7.169 -12.857,-6.874 -13.093,-4.746 -15.753,-5.041"/><polygon points="-14.656,11.471 -11.501,10.829 -10.958,11.886 -14.229,13.567"/><polygon points="-16.534,-7.281 -16.679,-5.967 -18.146,-5.668 -18.519,-7.501"/></g><g fill="#888888" stroke="#000000" stroke-width="0.212"><polygon points="7.926,19.925 6.31,23.562 1.669,21.5 3.285,17.863"/><polygon points="-0.51,9.479 3.971,8.604 4.957,13.655 0.477,14.53"/><polygon points="-0.51,9.479 0.95,16.954 0.858,17.027 -3.342,16.098 -5.731,11.448 -2.75,9.916"/><polygon points="9.763,15.79 7.926,19.925 3.12,17.79 4.957,13.655"/><polygon points="-7.297,20.335 -4.201,16.727 -1.087,19.399 -4.183,23.007"/><polygon points="-1.558,25.26 -4.183,23.007 -0.957,19.247 1.669,21.5"/><polygon points="6.243,23.713 4.905,26.725 2.691,25.742 4.03,22.73"/><polygon points="1.097,27.538 -1.558,25.26 0.026,23.415 2.681,25.692"/><polygon points="1.716,28.069 2.899,26.691 4.587,27.441 3.592,29.679"/><polygon points="7.788,8.521 6.978,12.127 5.027,13.635 4.957,13.655 3.971,8.604 6.211,8.166"/><polygon points="10.663,13.765 9.782,15.748 6.097,14.11 6.978,12.127"/><polygon points="-7.297,20.335 -10.101,17.929 -8.356,15.897 -5.553,18.302"/><polygon points="-9.865,13.572 -5.731,11.448 -4.55,13.746 -8.684,15.87"/><polygon points="7.788,8.521 10.943,9.23 10.49,11.247 7.335,10.538"/><polygon points="11.569,11.727 10.49,11.247 10.943,9.23 12.521,9.585"/><polygon points="-10.95,14.13 -10.117,15.753 -11.186,16.998 -13.188,15.28"/></g><g fill="#888888" stroke="#000000" stroke-width="0.212"><polygon points="-6.243,-15.863 -9.089,-16.102 -8.783,-19.739 -5.938,-19.5"/><polygon points="-9.035,-24.357 -4.183,-24.442 -4.133,-21.573 -8.985,-21.488"/><polygon points="-9.089,-16.102 -12.644,-16.401 -12.319,-20.267 -8.764,-19.968"/><polygon points="-12.566,-24.295 -9.035,-24.357 -8.968,-20.528 -12.499,-20.466"/><polygon points="-2.391,-21.42 -2.32,-17.132 -4.359,-17.098 -4.429,-21.387"/><polygon points="-2.394,-21.602 -4.133,-21.573 -4.183,-24.442 -2.441,-24.472"/><polygon points="-16.632,-18.629 -16.123,-22.027 -13.564,-21.644 -14.073,-18.246"/><polygon points="-4.475,-15.715 -4.359,-17.098 -2.32,-17.132 -2.294,-15.532"/><polygon points="-13.968,-24.27 -13.929,-22.048 -16.072,-22.369 -15.793,-24.238"/><polygon points="-16.632,-18.629 -14.073,-18.246 -14.216,-16.533 -16.911,-16.759"/><polygon points="-8.418,-8.394 -12.21,-8.814 -11.854,-12.023 -8.063,-11.603"/><polygon points="-7.906,-15.2 -4.288,-14.896 -4.548,-11.802 -8.166,-12.106"/><polygon points="-7.906,-15.2 -8.2,-11.694 -11.532,-12.218 -11.258,-15.482"/><polygon points="-8.418,-8.394 -8.063,-11.603 -4.825,-11.616 -4.227,-8.554 -6.267,-8.155"/><polygon points="-13.865,-15.7 -11.258,-15.482 -11.532,-12.218 -14.139,-12.437"/><polygon points="-12.21,-8.814 -14.517,-9.07 -14.152,-12.365 -11.844,-12.109"/><polygon points="-4.227,-8.554 -4.825,-11.616 -4.548,-11.802 -2.234,-11.84 -2.186,-8.952"/><polygon points="-2.234,-11.84 -4.548,-11.802 -4.288,-14.896 -2.281,-14.728"/><polygon points="-17.74,-11.223 -17.273,-14.339 -15.163,-14.023 -15.629,-10.907"/><polygon points="-15.014,-15.797 -15.163,-14.023 -17.273,-14.339 -17.03,-15.966"/><polygon points="-17.76,-11.084 -15.754,-10.784 -15.927,-9.226 -18.004,-9.457"/><polygon points="-1.431,-11.701 -1.484,-14.949 0.673,-14.985 0.726,-11.736"/><polygon points="8.576,-14.791 5.231,-12.032 2.81,-14.965 6.156,-17.725"/><polygon points="-1.484,-14.949 -1.543,-18.503 2.75,-18.574 2.808,-15.02"/><polygon points="0.626,-9.501 0.293,-11.207 2.842,-14.32 4.933,-11.786 2.64,-9.895"/><polygon points="-1.543,-18.503 -1.599,-21.906 1.145,-21.951 1.201,-18.548"/><polygon points="9.275,-22.109 9.696,-18.098 6.156,-17.725 5.734,-21.737"/><polygon points="-1.423,-11.179 0.293,-11.207 0.626,-9.501 -1.389,-9.108"/><polygon points="8.576,-14.791 6.156,-17.725 9.696,-18.098 9.927,-15.906"/><polygon points="1.297,-24.538 5.736,-24.616 5.785,-21.815 1.346,-21.737"/><polygon points="0.631,-24.526 0.667,-22.459 -1.607,-22.422 -1.641,-24.486"/><polygon points="9.236,-22.481 5.997,-22.141 5.954,-24.62 9.005,-24.673"/></g><g fill="#888888" stroke="#000000" stroke-width="0.212"><polygon points="25.019,-7.203 21.718,-4.32 18.916,-5.585 20.87,-9.916 23.808,-8.59"/><polygon points="12.594,-2.99 17.831,-3.499 18.218,0.486 12.981,0.995"/><polygon points="28.633,-3.065 25.117,0.006 21.503,-4.132 25.019,-7.203"/><polygon points="12.594,-2.99 12.13,-7.759 15.144,-8.052 15.608,-3.283"/><polygon points="12.981,0.995 16.473,0.656 16.908,5.129 13.416,5.469"/><polygon points="16.811,-11.747 20.87,-9.916 19.203,-6.221 15.144,-8.052"/><polygon points="11.676,-12.423 12.872,-12.54 15.074,-8.852 15.144,-8.052 12.13,-7.759"/><polygon points="14.261,-12.898 16.453,-11.909 15.763,-10.38 13.571,-11.369"/><polygon points="28.633,-3.065 33.181,2.143 31.423,3.678 26.875,-1.53"/><polygon points="15.426,8.68 17.193,5.184 21.802,7.514 20.036,11.009"/><polygon points="13.416,5.469 17.237,5.097 15.426,8.68 13.641,7.778"/><polygon points="13.241,-13.358 12.872,-12.54 11.676,-12.423 11.51,-14.139"/><polygon points="31.629,8.641 28.463,11.702 25.879,9.03 29.045,5.968"/><polygon points="34.227,6.129 31.629,8.641 29.178,6.105 31.775,3.593"/><polygon points="34.227,6.129 31.775,3.593 33.292,2.269 35.548,4.852"/><polygon points="24.451,13.24 26.162,9.856 28.197,11.96 26.041,14.044"/></g><g fill="#888888" stroke="#000000" stroke-width="0.212"><polygon points="15.396,10.905 19.17,12.812 17.819,15.485 14.045,13.578"/><polygon points="15.367,10.891 14.027,13.543 12.031,12.656 13.284,9.838"/><polygon points="8.909,19.684 11.464,13.933 15.085,15.542 12.53,21.293"/><polygon points="19.17,12.812 22.428,14.459 20.809,17.663 17.551,16.016"/><polygon points="24.505,17.935 21.701,17.234 22.966,14.731 25.044,15.781"/><polygon points="24.365,18.495 23.552,21.752 20.072,20.883 20.886,17.626"/><polygon points="23.552,21.752 22.693,25.19 19.101,24.292 19.959,20.855"/><polygon points="19.165,27.972 15.244,28.064 15.157,24.356 19.079,24.264"/><polygon points="11.299,28.156 7.71,28.24 7.666,26.359 11.255,26.276"/><polygon points="19.664,27.96 19.593,24.915 22.575,25.66 22.014,27.905"/><polygon points="6.059,26.097 7.214,26.61 7.252,28.25 5.08,28.301"/></g><g fill="#888888" stroke="#000000" stroke-width="0.212"><polygon points="-34.586,-1.987 -33.624,-5.283 -29.755,-4.155 -30.717,-0.858"/><polygon points="-30.185,-8.199 -27.354,-8.039 -27.532,-4.884 -30.364,-5.044"/><polygon points="-27.354,-8.039 -23.177,-7.803 -23.404,-3.784 -27.581,-4.02"/><polygon points="-30.847,-8.237 -30.977,-5.942 -33.239,-6.602 -32.731,-8.343"/><polygon points="-20.163,4.824 -23.936,4.719 -23.862,2.084 -20.089,2.189"/><polygon points="-18.995,-5.827 -18.063,-1.252 -21.769,-0.498 -22.701,-5.073"/><polygon points="-18.995,-5.827 -22.701,-5.073 -22.549,-7.768 -19.353,-7.587"/><polygon points="-18.063,-1.252 -17.382,2.092 -19.698,2.564 -20.379,-0.781"/><polygon points="-18.706,4.865 -18.669,3.55 -17.148,3.24 -16.807,4.918"/><polygon points="-26.962,17.37 -28.159,13.234 -23.248,11.813 -22.051,15.949"/><polygon points="-25.547,5.474 -21.757,5.58 -21.897,10.598 -25.687,10.492"/><polygon points="-30.694,17.543 -29.438,11.549 -28.622,11.632 -26.962,17.37 -28.878,17.924"/><polygon points="-21.757,5.58 -18.625,5.668 -18.692,8.092 -21.825,8.005"/><polygon points="-17.017,14.493 -17.779,11.856 -15.489,11.39 -14.977,13.903"/><polygon points="-34.236,16.801 -33.24,12.052 -29.699,12.794 -30.694,17.543"/><polygon points="-34.611,5.221 -30.08,5.348 -30.175,8.77 -34.707,8.643"/><polygon points="-16.272,7.543 -15.501,11.331 -17.867,11.813 -18.638,8.025"/><polygon points="-16.322,7.3 -18.394,7.722 -18.336,5.676 -16.643,5.723"/><polygon points="-34.236,16.801 -36.935,16.235 -36.397,13.669 -33.698,14.235"/><polygon points="-38.806,12.479 -37.675,8.602 -34.73,9.461 -35.861,13.338"/><polygon points="-34.611,5.221 -34.73,9.461 -37.675,8.602 -36.672,5.164"/><polygon points="-39.205,13.844 -37.49,14.344 -37.846,16.044 -39.731,15.648"/></g><g fill="#888888" stroke="#000000" stroke-width="0.212"><polygon points="-9.169,34.338 -13.633,34.533 -13.897,28.493 -9.433,28.298"/><polygon points="-10.958,18.248 -7.653,21.084 -12.322,26.525 -15.627,23.689"/><polygon points="-13.633,34.533 -18.409,34.742 -18.73,27.399 -13.954,27.19"/><polygon points="-20.966,17.717 -16.56,16.443 -15.108,21.462 -19.514,22.736"/><polygon points="-11.76,17.56 -15.108,21.462 -16.56,16.443 -13.944,15.686"/><polygon points="-9.169,34.338 -9.433,28.298 -7.562,28.395 -6.933,28.697 -4.293,32.957 -6.322,34.214"/><polygon points="-3.988,24.229 -1.113,26.696 -2.841,28.71 -5.716,26.243"/><polygon points="-24.805,18.827 -20.966,17.717 -19.819,21.682 -23.658,22.793"/><polygon points="-25.93,32.276 -26.791,27.691 -21.346,26.669 -20.485,31.253"/><polygon points="-0.881,30.843 -4.293,32.957 -5.613,30.827 -2.201,28.713"/><polygon points="-25.93,32.276 -20.485,31.253 -20.329,34.826 -25.409,35.048"/><polygon points="-25.511,19.032 -24.576,22.267 -27.7,22.854 -28.268,19.829"/><polygon points="-0.237,30.444 -1.308,28.716 -0.227,27.456 1.791,29.188"/></g><g fill="#888888" stroke="#000000" stroke-width="0.212"><polygon points="-30.994,-10.248 -30.783,-13.993 -26.078,-13.727 -26.289,-9.982"/><polygon points="-34.203,-10.93 -31.904,-17.023 -30.662,-16.134 -30.994,-10.248 -32.644,-10.342"/><polygon points="-34.203,-10.93 -38.08,-12.393 -36.39,-16.871 -32.513,-15.409"/><polygon points="-24.029,-18.476 -20.738,-15.898 -22.67,-13.432 -25.96,-16.01"/><polygon points="-36.693,-24.395 -35.203,-23.336 -34.818,-22.375 -37.944,-17.975 -40.143,-19.538"/><polygon points="-21.617,-9.718 -26.289,-9.982 -26.135,-12.715 -21.463,-12.451"/><polygon points="-38.144,-12.417 -40.897,-13.456 -40.08,-15.62 -37.327,-14.581"/><polygon points="-41.995,-16.93 -40.143,-19.538 -38.277,-18.212 -40.129,-15.605"/><polygon points="-19.619,-12.175 -21.463,-12.451 -22.67,-13.432 -20.738,-15.898 -19.238,-14.723"/><polygon points="-21.617,-9.718 -21.463,-12.451 -19.619,-12.175 -20.001,-9.627"/><polygon points="-42.738,-15.885 -41.663,-15.121 -42.118,-13.916 -43.71,-14.517"/><polygon points="-24.173,-19.605 -27.878,-22.508 -25.616,-25.395 -21.911,-22.492"/><polygon points="-23.051,-32.626 -20.554,-28.722 -23.864,-26.606 -26.36,-30.511"/><polygon points="-18.538,-19.406 -20.584,-16.794 -24.173,-19.605 -22.598,-21.616 -20.685,-20.117 -20.473,-21.538 -18.422,-20.178"/><polygon points="-33.405,-29.023 -31.179,-32.158 -28.559,-30.298 -30.786,-27.163"/><polygon points="-25.739,-36.831 -23.09,-32.689 -24.97,-31.487 -27.619,-35.629"/><polygon points="-25.739,-36.831 -27.619,-35.629 -28.346,-36.146 -26.743,-38.403"/></g><g fill="#888888" stroke="#000000" stroke-width="0.212"><polygon points="-20.417,-32.22 -14.503,-36.001 -12.753,-33.265 -18.668,-29.484"/><polygon points="-20.417,-32.22 -22.228,-35.053 -17.594,-38.016 -15.783,-35.183"/><polygon points="-16.806,-45.165 -13.804,-40.383 -17.131,-38.294 -20.134,-43.076"/><polygon points="-22.228,-35.053 -23.868,-37.618 -21.55,-39.099 -19.911,-36.534"/><polygon points="-22.662,-41.489 -20.134,-43.076 -18.552,-40.557 -21.08,-38.97"/><polygon points="-8.003,-25.175 -12.682,-25.093 -12.758,-29.425 -8.079,-29.507"/><polygon points="-16.814,-26.584 -12.88,-29.098 -12.81,-25.091 -15.826,-25.038"/><polygon points="-8.003,-25.175 -8.079,-29.507 -5.153,-28.591 -6.212,-25.206"/><polygon points="-23.449,-40.995 -22.405,-39.333 -24.222,-38.172 -25.288,-39.84"/><polygon points="5.679,-41.145 9.336,-38.95 7.037,-35.122 3.381,-37.317"/><polygon points="-1.724,-36.865 -0.589,-40.49 2.121,-39.642 0.986,-36.017"/><polygon points="-1.724,-36.865 1.932,-35.721 0.291,-30.48 -3.365,-31.624"/><polygon points="12.418,-34.816 11.069,-31.084 7.337,-32.433 8.685,-36.165"/><polygon points="11.069,-31.084 9.873,-27.774 6.616,-28.951 7.812,-32.261"/><polygon points="12.418,-34.816 8.685,-36.165 10.086,-38.499 13.096,-36.692"/><polygon points="2.428,-43.097 1.283,-41.19 -0.223,-41.661 0.575,-44.21"/><polygon points="6.729,-25.433 3.386,-25.375 3.326,-28.822 6.668,-28.88"/><polygon points="3.386,-25.375 0.626,-25.326 0.537,-30.403 3.297,-30.451"/><polygon points="7.151,-25.441 7.101,-28.298 9.721,-27.351 9.042,-25.474"/><polygon points="-4.836,-26.926 -1.941,-26.02 -1.929,-25.282 -5.369,-25.221"/></g><g fill="#888888" stroke="#000000" stroke-width="0.212"><polygon points="11.549,-26.526 13.014,-30.58 17.65,-28.905 16.185,-24.851"/><polygon points="32.319,-17.685 27.979,-22.13 30.729,-24.814 35.068,-20.37"/><polygon points="15.105,-36.189 18.299,-34.33 16.491,-29.324 13.014,-30.58 14.989,-36.049"/><polygon points="11.549,-26.526 18.31,-24.083 11.157,-23.331 10.985,-24.966"/><polygon points="26.172,-11.684 24.436,-13.462 27.567,-16.519 29.303,-14.741"/><polygon points="18.223,-13.304 18.897,-14.799 23.609,-12.673 22.935,-11.178"/><polygon points="18.247,-40 20.244,-38.354 17.372,-34.87 15.105,-36.189"/><polygon points="35.279,-37.486 31.155,-33.862 28.233,-37.187 32.357,-40.811"/><polygon points="13.641,-15.372 14.99,-18.36 19.571,-16.293 18.223,-13.304"/><polygon points="21.074,-43.429 23.071,-41.783 20.244,-38.354 18.247,-40"/><polygon points="11.621,-18.924 15.424,-19.324 13.641,-15.372 11.912,-16.152"/><polygon points="22.935,-11.178 24.114,-13.792 26.172,-11.684 24.794,-10.339"/><polygon points="32.357,-40.811 29.264,-38.093 26.284,-41.484 29.377,-44.202"/><polygon points="27.144,-46.743 29.377,-44.202 27.588,-42.63 25.355,-45.171"/></g><g stroke="#000000" stroke-width="0.8" stroke-linecap="butt"><polyline points="6.834,30.261 7.021,38.258"/><polyline points="12.833,30.12 13.02,38.118"/><polyline points="18.831,29.98 19.018,37.978"/></g><g stroke="#000000" stroke-width="0.8" stroke-linecap="butt"><polyline points="-21.57,36.882 -21.221,44.874"/><polyline points="-15.576,36.62 -15.227,44.612"/><polyline points="-9.582,36.358 -9.232,44.35"/></g><g stroke="#888888" stroke-width="0.212" stroke-linecap="butt"><line x1="-55.561" y1="-9.957" x2="-68.175" y2="-12.538"/><line x1="-54.961" y1="-8.277" x2="-69.04" y2="-11.158"/><line x1="-55.267" y1="-6.781" x2="-68.958" y2="-9.583"/><line x1="-55.573" y1="-5.286" x2="-68.877" y2="-8.009"/><line x1="-55.879" y1="-3.791" x2="-68.795" y2="-6.434"/><line x1="-56.185" y1="-2.296" x2="-68.714" y2="-4.86"/><line x1="-56.491" y1="-0.801" x2="-68.632" y2="-3.285"/><line x1="-56.797" y1="0.695" x2="-68.551" y2="-1.711"/><line x1="-57.103" y1="2.19" x2="-68.469" y2="-0.136"/><line x1="-57.409" y1="3.685" x2="-68.387" y2="1.438"/><line x1="-57.715" y1="5.18" x2="-68.306" y2="3.013"/><line x1="-58.021" y1="6.675" x2="-68.224" y2="4.587"/><line x1="-58.802" y1="8.073" x2="-68.143" y2="6.162"/><line x1="-62.417" y1="8.891" x2="-67.469" y2="7.857"/><line x1="-51.869" y1="-9.98" x2="-55.781" y2="9.136"/><line x1="-50.521" y1="-9.705" x2="-54.387" y2="9.188"/><line x1="-49.173" y1="-9.429" x2="-52.993" y2="9.239"/><line x1="-47.824" y1="-9.153" x2="-51.605" y2="9.323"/><line x1="-46.483" y1="-8.845" x2="-50.239" y2="9.509"/><line x1="-45.163" y1="-8.432" x2="-48.883" y2="9.749"/><line x1="-43.858" y1="-7.946" x2="-47.528" y2="9.988"/><line x1="-42.554" y1="-7.454" x2="-46.172" y2="10.228"/><line x1="-41.25" y1="-6.962" x2="-44.817" y2="10.468"/><line x1="-39.946" y1="-6.47" x2="-43.461" y2="10.708"/><line x1="-38.642" y1="-5.978" x2="-42.106" y2="10.947"/><line x1="-37.338" y1="-5.486" x2="-40.665" y2="10.768"/><line x1="-36.143" y1="-4.465" x2="-38.072" y2="4.964"/><g fill="#888888" stroke="#000000" stroke-width="0.212"><polygon points="-68.826,-7.024 -68.931,-9.056 -68.988,-10.152 -67.93,-10.207 -67.989,-11.354 -66.786,-11.416 -66.727,-10.269 -66.67,-9.173 -67.873,-9.111 -67.768,-7.079"/></g></g><g stroke="#888888" stroke-width="0.212" stroke-linecap="butt"><line x1="-52.483" y1="-21.375" x2="-42.797" y2="-19.393"/><line x1="-52.917" y1="-22.771" x2="-41.275" y2="-20.388"/><line x1="-52.66" y1="-24.025" x2="-40.449" y2="-21.526"/><line x1="-52.404" y1="-25.279" x2="-39.638" y2="-22.667"/><line x1="-52.147" y1="-26.533" x2="-38.828" y2="-23.808"/><line x1="-51.89" y1="-27.787" x2="-38.017" y2="-24.948"/><line x1="-51.634" y1="-29.042" x2="-37.207" y2="-26.089"/><line x1="-51.377" y1="-30.296" x2="-36.396" y2="-27.23"/><line x1="-51.12" y1="-31.55" x2="-35.586" y2="-28.371"/><line x1="-50.864" y1="-32.804" x2="-34.776" y2="-29.512"/><line x1="-50.607" y1="-34.059" x2="-33.965" y2="-30.653"/><line x1="-50.35" y1="-35.313" x2="-33.155" y2="-31.794"/><line x1="-50.001" y1="-36.548" x2="-32.344" y2="-32.935"/><line x1="-48.628" y1="-37.574" x2="-31.534" y2="-34.076"/><line x1="-44.062" y1="-37.946" x2="-30.811" y2="-35.235"/><line x1="-35.964" y1="-37.596" x2="-30.473" y2="-36.472"/><line x1="-55.857" y1="-22.107" x2="-52.595" y2="-38.046"/><line x1="-57.457" y1="-21.739" x2="-54.052" y2="-38.379"/><line x1="-58.921" y1="-22.039" x2="-55.564" y2="-38.444"/><line x1="-60.385" y1="-22.339" x2="-57.076" y2="-38.509"/><line x1="-61.849" y1="-22.638" x2="-58.588" y2="-38.575"/><line x1="-63.313" y1="-22.938" x2="-60.16" y2="-38.345"/><line x1="-64.777" y1="-23.237" x2="-62.373" y2="-34.981"/><line x1="-66.19" y1="-23.782" x2="-65.226" y2="-28.491"/><line x1="-34.668" y1="-40.298" x2="-34.615" y2="-41.54"/><line x1="-35.977" y1="-39.598" x2="-35.829" y2="-43.025"/><line x1="-37.253" y1="-39.653" x2="-37.042" y2="-44.51"/><line x1="-38.528" y1="-39.709" x2="-38.256" y2="-45.996"/><line x1="-39.804" y1="-39.764" x2="-39.47" y2="-47.481"/><line x1="-41.08" y1="-39.819" x2="-40.684" y2="-48.966"/><line x1="-42.356" y1="-39.874" x2="-41.898" y2="-50.452"/><line x1="-43.631" y1="-39.929" x2="-43.126" y2="-51.606"/><line x1="-44.907" y1="-39.985" x2="-44.383" y2="-52.087"/><line x1="-46.183" y1="-40.04" x2="-45.659" y2="-52.145"/><line x1="-47.459" y1="-40.095" x2="-46.956" y2="-51.702"/><line x1="-48.734" y1="-40.15" x2="-48.254" y2="-51.26"/><line x1="-50.01" y1="-40.206" x2="-49.551" y2="-50.817"/><line x1="-51.286" y1="-40.261" x2="-50.848" y2="-50.375"/><line x1="-52.562" y1="-40.316" x2="-52.146" y2="-49.932"/><line x1="-53.837" y1="-40.371" x2="-53.443" y2="-49.49"/><line x1="-55.113" y1="-40.426" x2="-54.74" y2="-49.047"/><line x1="-56.389" y1="-40.482" x2="-56.053" y2="-48.238"/><line x1="-57.658" y1="-40.695" x2="-57.417" y2="-46.253"/><line x1="-58.915" y1="-41.176" x2="-58.835" y2="-43.028"/><g fill="#888888" stroke="#000000" stroke-width="0.212"/></g><g stroke="#888888" stroke-width="0.212" stroke-linecap="butt"><line x1="-26.609" y1="-69.667" x2="-36.965" y2="-72.589"/><line x1="-26.38" y1="-67.946" x2="-37.136" y2="-70.982"/><line x1="-26.813" y1="-66.412" x2="-36.773" y2="-69.224"/><line x1="-27.246" y1="-64.879" x2="-36.409" y2="-67.465"/><line x1="-27.678" y1="-63.345" x2="-36.045" y2="-65.707"/><line x1="-28.111" y1="-61.811" x2="-35.682" y2="-63.948"/><line x1="-28.544" y1="-60.278" x2="-35.318" y2="-62.19"/><line x1="-28.977" y1="-58.744" x2="-34.955" y2="-60.431"/><line x1="-29.41" y1="-57.21" x2="-34.496" y2="-58.646"/><line x1="-29.843" y1="-55.677" x2="-33.605" y2="-56.739"/><line x1="-30.488" y1="-54.203" x2="-31.846" y2="-54.586"/><line x1="-23.444" y1="-68.394" x2="-28.412" y2="-50.791"/><line x1="-21.773" y1="-69.13" x2="-27.41" y2="-49.159"/><line x1="-20.419" y1="-68.747" x2="-26.323" y2="-47.829"/><line x1="-19.064" y1="-68.365" x2="-25.236" y2="-46.498"/><line x1="-17.709" y1="-67.982" x2="-24.149" y2="-45.168"/><line x1="-16.354" y1="-67.6" x2="-23.014" y2="-44.006"/><line x1="-15" y1="-67.218" x2="-21.552" y2="-44.003"/><line x1="-13.645" y1="-66.835" x2="-19.83" y2="-44.92"/><line x1="-12.29" y1="-66.453" x2="-18.053" y2="-46.036"/><line x1="-10.935" y1="-66.07" x2="-16.275" y2="-47.152"/><line x1="-9.58" y1="-65.688" x2="-14.497" y2="-48.268"/><line x1="-8.275" y1="-65.131" x2="-12.719" y2="-49.384"/><line x1="-7.215" y1="-63.705" x2="-10.843" y2="-50.85"/><g fill="#888888" stroke="#000000" stroke-width="0.212"/></g><g stroke="#888888" stroke-width="0.212" stroke-linecap="butt"><line x1="-48.448" y1="-71.541" x2="-48.883" y2="-73.643"/><line x1="-49.531" y1="-71.207" x2="-50.255" y2="-74.71"/><line x1="-50.633" y1="-70.964" x2="-51.607" y2="-75.673"/><line x1="-51.738" y1="-70.735" x2="-52.958" y2="-76.637"/><line x1="-52.843" y1="-70.507" x2="-54.31" y2="-77.6"/><line x1="-53.948" y1="-70.278" x2="-55.661" y2="-78.564"/><line x1="-55.053" y1="-70.05" x2="-57.012" y2="-79.527"/><line x1="-56.158" y1="-69.821" x2="-58.364" y2="-80.491"/><line x1="-57.263" y1="-69.593" x2="-59.715" y2="-81.454"/><line x1="-58.368" y1="-69.365" x2="-61.067" y2="-82.418"/><line x1="-59.473" y1="-69.136" x2="-62.418" y2="-83.381"/><line x1="-60.578" y1="-68.908" x2="-63.67" y2="-83.862"/><line x1="-61.682" y1="-68.679" x2="-64.753" y2="-83.528"/><line x1="-62.787" y1="-68.451" x2="-65.235" y2="-80.289"/><line x1="-63.892" y1="-68.222" x2="-65.497" y2="-75.984"/><line x1="-65.2" y1="-68.975" x2="-65.759" y2="-71.679"/><line x1="-48.247" y1="-68.64" x2="-66.17" y2="-64.934"/><line x1="-47.005" y1="-67.348" x2="-66.265" y2="-63.366"/><line x1="-46.698" y1="-65.862" x2="-66.361" y2="-61.797"/><line x1="-46.391" y1="-64.377" x2="-66.456" y2="-60.228"/><line x1="-46.083" y1="-62.891" x2="-65.905" y2="-58.793"/><line x1="-45.776" y1="-61.406" x2="-64.745" y2="-57.484"/><line x1="-45.469" y1="-59.92" x2="-63.355" y2="-56.222"/><line x1="-45.162" y1="-58.435" x2="-61.965" y2="-54.96"/><line x1="-44.855" y1="-56.949" x2="-60.574" y2="-53.699"/><line x1="-45.108" y1="-55.348" x2="-59.184" y2="-52.437"/><line x1="-49.928" y1="-52.802" x2="-57.6" y2="-51.216"/><g fill="#888888" stroke="#000000" stroke-width="0.212"/></g><g stroke="#888888" stroke-width="0.212" stroke-linecap="butt"><line x1="-72.186" y1="-13.218" x2="-85.244" y2="-13.513"/><line x1="-71.164" y1="-11.772" x2="-86.139" y2="-12.111"/><line x1="-71" y1="-10.346" x2="-86.697" y2="-10.701"/><line x1="-70.927" y1="-8.922" x2="-86.852" y2="-9.282"/><line x1="-70.853" y1="-7.498" x2="-87.006" y2="-7.863"/><line x1="-70.779" y1="-6.074" x2="-87.161" y2="-6.444"/><line x1="-70.705" y1="-4.65" x2="-87.316" y2="-5.025"/><line x1="-70.632" y1="-3.226" x2="-87.471" y2="-3.607"/><line x1="-70.558" y1="-1.802" x2="-87.626" y2="-2.188"/><line x1="-70.484" y1="-0.377" x2="-87.781" y2="-0.769"/><line x1="-70.41" y1="1.047" x2="-87.936" y2="0.65"/><line x1="-70.337" y1="2.471" x2="-88.091" y2="2.069"/><line x1="-70.263" y1="3.895" x2="-88.246" y2="3.488"/><line x1="-70.189" y1="5.319" x2="-88.401" y2="4.907"/><line x1="-70.255" y1="6.74" x2="-88.556" y2="6.326"/><line x1="-71.149" y1="8.142" x2="-88.711" y2="7.745"/><line x1="-72.384" y1="9.536" x2="-88.865" y2="9.164"/><line x1="-76.711" y1="10.861" x2="-89.02" y2="10.582"/><line x1="-81.039" y1="12.185" x2="-89.063" y2="12.004"/><line x1="-85.367" y1="13.51" x2="-88.041" y2="13.449"/><line x1="-90.133" y1="-13.672" x2="-111.314" y2="-14.151"/><line x1="-88.815" y1="-12.317" x2="-112.758" y2="-12.858"/><line x1="-88.677" y1="-10.988" x2="-113.038" y2="-11.539"/><line x1="-88.822" y1="-9.665" x2="-113.027" y2="-10.213"/><line x1="-88.966" y1="-8.343" x2="-113.016" y2="-8.887"/><line x1="-89.11" y1="-7.021" x2="-113.005" y2="-7.561"/><line x1="-89.255" y1="-5.698" x2="-112.993" y2="-6.235"/><line x1="-89.399" y1="-4.376" x2="-112.982" y2="-4.909"/><line x1="-89.543" y1="-3.053" x2="-112.971" y2="-3.583"/><line x1="-89.688" y1="-1.731" x2="-112.96" y2="-2.257"/><line x1="-89.832" y1="-0.409" x2="-112.948" y2="-0.931"/><line x1="-89.977" y1="0.914" x2="-112.937" y2="0.394"/><line x1="-90.121" y1="2.236" x2="-112.926" y2="1.72"/><line x1="-90.265" y1="3.559" x2="-112.915" y2="3.046"/><line x1="-90.41" y1="4.881" x2="-112.903" y2="4.372"/><line x1="-90.895" y1="6.196" x2="-112.64" y2="5.704"/><line x1="-92.339" y1="7.489" x2="-111.322" y2="7.059"/><line x1="-112.209" y1="10.086" x2="-112.291" y2="14.645"/><line x1="-110.92" y1="9.794" x2="-111.013" y2="14.975"/><line x1="-109.635" y1="9.756" x2="-109.731" y2="15.068"/><line x1="-108.352" y1="9.779" x2="-108.447" y2="15.078"/><line x1="-107.068" y1="9.802" x2="-107.164" y2="15.088"/><line x1="-105.785" y1="9.825" x2="-105.88" y2="15.099"/><line x1="-104.502" y1="9.848" x2="-104.596" y2="15.109"/><line x1="-103.218" y1="9.872" x2="-103.313" y2="15.119"/><line x1="-101.935" y1="9.895" x2="-102.029" y2="15.13"/><line x1="-100.651" y1="9.918" x2="-100.745" y2="15.14"/><line x1="-99.368" y1="9.941" x2="-99.462" y2="15.15"/><line x1="-98.084" y1="9.964" x2="-98.178" y2="15.161"/><line x1="-96.801" y1="9.987" x2="-96.894" y2="15.171"/><line x1="-95.517" y1="10.01" x2="-95.611" y2="15.181"/><line x1="-94.234" y1="10.034" x2="-94.327" y2="15.191"/><line x1="-92.951" y1="10.108" x2="-93.041" y2="15.055"/><line x1="-91.674" y1="10.439" x2="-91.752" y2="14.763"/><g fill="#888888" stroke="#000000" stroke-width="0.212"/></g><g stroke="#888888" stroke-width="0.212" stroke-linecap="butt"><line x1="-61.398" y1="-42.168" x2="-59.163" y2="-49.301"/><line x1="-63.359" y1="-40.693" x2="-60.228" y2="-50.683"/><line x1="-64.873" y1="-40.64" x2="-61.395" y2="-51.742"/><line x1="-66.238" y1="-41.067" x2="-62.561" y2="-52.801"/><line x1="-67.602" y1="-41.495" x2="-63.728" y2="-53.86"/><line x1="-68.967" y1="-41.923" x2="-64.894" y2="-54.918"/><line x1="-70.331" y1="-42.35" x2="-66.061" y2="-55.977"/><line x1="-71.695" y1="-42.778" x2="-67.274" y2="-56.888"/><line x1="-73.06" y1="-43.205" x2="-68.649" y2="-57.281"/><line x1="-74.424" y1="-43.633" x2="-70.051" y2="-57.589"/><line x1="-75.788" y1="-44.06" x2="-71.567" y2="-57.533"/><line x1="-77.153" y1="-44.488" x2="-73.082" y2="-57.477"/><line x1="-78.517" y1="-44.915" x2="-74.598" y2="-57.421"/><line x1="-79.881" y1="-45.343" x2="-76.114" y2="-57.366"/><line x1="-81.246" y1="-45.77" x2="-77.63" y2="-57.31"/><line x1="-82.61" y1="-46.198" x2="-79.146" y2="-57.254"/><line x1="-83.921" y1="-46.795" x2="-80.661" y2="-57.198"/><line x1="-85.145" y1="-47.671" x2="-82.177" y2="-57.143"/><line x1="-85.945" y1="-49.9" x2="-83.693" y2="-57.087"/><line x1="-86.167" y1="-53.974" x2="-85.36" y2="-56.548"/><line x1="-64.607" y1="-37.641" x2="-84.306" y2="-43.814"/><line x1="-64.169" y1="-35.866" x2="-85.546" y2="-42.564"/><line x1="-64.802" y1="-34.426" x2="-85.455" y2="-40.898"/><line x1="-65.435" y1="-32.986" x2="-85.365" y2="-39.231"/><line x1="-66.068" y1="-31.546" x2="-85.274" y2="-37.564"/><line x1="-66.701" y1="-30.106" x2="-85.183" y2="-35.898"/><line x1="-67.334" y1="-28.666" x2="-85.092" y2="-34.231"/><line x1="-67.967" y1="-27.227" x2="-85.002" y2="-32.564"/><line x1="-68.6" y1="-25.787" x2="-84.911" y2="-30.898"/><line x1="-70.229" y1="-24.659" x2="-84.82" y2="-29.231"/><line x1="-74.586" y1="-24.386" x2="-84.73" y2="-27.564"/><line x1="-80.221" y1="-24.513" x2="-83.898" y2="-25.665"/><line x1="-87.439" y1="-25.562" x2="-87.2" y2="-36.144"/><line x1="-89.026" y1="-24.761" x2="-88.742" y2="-37.318"/><line x1="-90.595" y1="-24.748" x2="-90.3" y2="-37.78"/><line x1="-92.163" y1="-24.783" x2="-91.869" y2="-37.816"/><line x1="-93.731" y1="-24.819" x2="-93.437" y2="-37.851"/><line x1="-95.3" y1="-24.854" x2="-95.005" y2="-37.887"/><line x1="-96.868" y1="-24.89" x2="-96.573" y2="-37.922"/><line x1="-98.436" y1="-24.925" x2="-98.141" y2="-37.957"/><line x1="-100.004" y1="-24.961" x2="-99.709" y2="-37.993"/><line x1="-101.572" y1="-24.996" x2="-101.277" y2="-38.028"/><line x1="-103.14" y1="-25.032" x2="-102.845" y2="-38.064"/><line x1="-104.708" y1="-25.067" x2="-104.414" y2="-38.099"/><line x1="-106.277" y1="-25.103" x2="-105.982" y2="-38.135"/><line x1="-107.845" y1="-25.138" x2="-107.555" y2="-37.922"/><line x1="-109.413" y1="-25.174" x2="-109.143" y2="-37.121"/><line x1="-110.962" y1="-26.068" x2="-110.856" y2="-30.721"/><line x1="-89.298" y1="-56.168" x2="-104.693" y2="-55.602"/><line x1="-88.214" y1="-54.782" x2="-105.944" y2="-54.13"/><line x1="-88.136" y1="-53.359" x2="-106.246" y2="-52.693"/><line x1="-88.059" y1="-51.936" x2="-106.547" y2="-51.257"/><line x1="-87.982" y1="-50.514" x2="-106.849" y2="-49.82"/><line x1="-87.904" y1="-49.091" x2="-107.15" y2="-48.383"/><line x1="-87.827" y1="-47.668" x2="-107.452" y2="-46.946"/><line x1="-87.749" y1="-46.245" x2="-107.753" y2="-45.509"/><line x1="-87.672" y1="-44.822" x2="-108.055" y2="-44.073"/><line x1="-87.594" y1="-43.399" x2="-108.356" y2="-42.636"/><line x1="-87.517" y1="-41.976" x2="-107.894" y2="-41.227"/><line x1="-88.624" y1="-40.51" x2="-101.543" y2="-40.035"/><g fill="#888888" stroke="#000000" stroke-width="0.212"><polygon points="-69.724,-40.064 -68.21,-39.589 -67.081,-39.236 -65.466,-38.73 -65.83,-37.566 -66.287,-36.109 -67.903,-36.615 -69.031,-36.968 -68.574,-38.426 -70.088,-38.901"/></g></g><g stroke="#888888" stroke-width="0.212" stroke-linecap="butt"><line x1="-110.194" y1="-74.065" x2="-105.17" y2="-59.147"/><line x1="-109.214" y1="-75.445" x2="-103.46" y2="-58.362"/><line x1="-108.005" y1="-76.144" x2="-102.032" y2="-58.414"/><line x1="-106.707" y1="-76.582" x2="-100.605" y2="-58.466"/><line x1="-105.409" y1="-77.019" x2="-99.178" y2="-58.519"/><line x1="-104.111" y1="-77.456" x2="-97.75" y2="-58.571"/><line x1="-102.813" y1="-77.893" x2="-96.323" y2="-58.624"/><line x1="-101.516" y1="-78.33" x2="-94.896" y2="-58.676"/><line x1="-100.218" y1="-78.767" x2="-93.468" y2="-58.729"/><line x1="-98.92" y1="-79.204" x2="-92.265" y2="-59.446"/><line x1="-97.622" y1="-79.642" x2="-91.285" y2="-60.826"/><line x1="-96.324" y1="-80.079" x2="-90.72" y2="-63.44"/><line x1="-95.027" y1="-80.516" x2="-90.315" y2="-66.528"/><line x1="-93.729" y1="-80.953" x2="-89.91" y2="-69.615"/><line x1="-92.431" y1="-81.39" x2="-89.505" y2="-72.703"/><line x1="-91.133" y1="-81.827" x2="-89.1" y2="-75.79"/><line x1="-89.488" y1="-81.234" x2="-88.695" y2="-78.878"/><line x1="-68.784" y1="-87.899" x2="-72.445" y2="-88.122"/><line x1="-67.182" y1="-86.323" x2="-76.162" y2="-86.87"/><line x1="-66.962" y1="-84.832" x2="-79.879" y2="-85.618"/><line x1="-67.052" y1="-83.359" x2="-83.596" y2="-84.366"/><line x1="-67.142" y1="-81.886" x2="-86.131" y2="-83.042"/><line x1="-67.231" y1="-80.414" x2="-86.324" y2="-81.576"/><line x1="-67.442" y1="-78.948" x2="-86.516" y2="-80.109"/><line x1="-69.169" y1="-60.688" x2="-68.284" y2="-75.224"/><line x1="-70.711" y1="-59.566" x2="-69.689" y2="-76.342"/><line x1="-72.187" y1="-59.511" x2="-71.157" y2="-76.432"/><line x1="-73.664" y1="-59.457" x2="-72.625" y2="-76.521"/><line x1="-75.141" y1="-59.403" x2="-74.094" y2="-76.61"/><line x1="-76.618" y1="-59.349" x2="-75.562" y2="-76.7"/><line x1="-78.095" y1="-59.294" x2="-77.03" y2="-76.789"/><line x1="-79.571" y1="-59.24" x2="-78.498" y2="-76.878"/><line x1="-81.048" y1="-59.186" x2="-79.966" y2="-76.968"/><line x1="-82.525" y1="-59.131" x2="-81.434" y2="-77.057"/><line x1="-84.002" y1="-59.077" x2="-82.902" y2="-77.146"/><line x1="-85.479" y1="-59.023" x2="-84.37" y2="-77.236"/><line x1="-86.955" y1="-58.968" x2="-85.887" y2="-76.513"/><line x1="-88.362" y1="-60.061" x2="-87.684" y2="-71.208"/><line x1="-99.571" y1="-108.645" x2="-91.809" y2="-85.6"/><line x1="-98.474" y1="-109.57" x2="-90.028" y2="-84.496"/><line x1="-97.348" y1="-110.408" x2="-88.707" y2="-84.755"/><line x1="-96.221" y1="-111.245" x2="-87.442" y2="-85.181"/><line x1="-95.095" y1="-112.082" x2="-86.177" y2="-85.607"/><line x1="-93.424" y1="-111.303" x2="-84.912" y2="-86.033"/><line x1="-91.573" y1="-109.992" x2="-83.647" y2="-86.459"/><line x1="-89.482" y1="-107.964" x2="-82.382" y2="-86.885"/><line x1="-87.39" y1="-105.937" x2="-81.117" y2="-87.312"/><line x1="-85.299" y1="-103.909" x2="-79.852" y2="-87.738"/><line x1="-83.207" y1="-101.881" x2="-78.586" y2="-88.164"/><line x1="-81.115" y1="-99.854" x2="-77.321" y2="-88.59"/><line x1="-79.024" y1="-97.826" x2="-76.056" y2="-89.016"/><line x1="-76.932" y1="-95.799" x2="-74.791" y2="-89.442"/><line x1="-74.841" y1="-93.771" x2="-73.558" y2="-89.964"/><line x1="-102.642" y1="-105.452" x2="-105.154" y2="-104.605"/><line x1="-101.031" y1="-104.622" x2="-108.531" y2="-102.096"/><line x1="-100.616" y1="-103.389" x2="-111.908" y2="-99.586"/><line x1="-100.201" y1="-102.157" x2="-115.285" y2="-97.076"/><line x1="-99.785" y1="-100.924" x2="-116.725" y2="-95.218"/><line x1="-99.37" y1="-99.691" x2="-117.24" y2="-93.672"/><line x1="-98.955" y1="-98.459" x2="-117.077" y2="-92.355"/><line x1="-98.54" y1="-97.226" x2="-116.662" y2="-91.122"/><line x1="-98.125" y1="-95.994" x2="-116.247" y2="-89.889"/><line x1="-97.709" y1="-94.761" x2="-115.832" y2="-88.657"/><line x1="-97.294" y1="-93.528" x2="-115.417" y2="-87.424"/><line x1="-96.879" y1="-92.296" x2="-115.001" y2="-86.192"/><line x1="-96.464" y1="-91.063" x2="-114.586" y2="-84.959"/><line x1="-96.049" y1="-89.83" x2="-114.171" y2="-83.726"/><line x1="-95.634" y1="-88.598" x2="-113.756" y2="-82.494"/><line x1="-95.218" y1="-87.365" x2="-113.341" y2="-81.261"/><line x1="-94.803" y1="-86.133" x2="-112.925" y2="-80.028"/><line x1="-94.805" y1="-84.76" x2="-112.51" y2="-78.796"/><line x1="-95.32" y1="-83.214" x2="-110.899" y2="-77.966"/><g fill="#888888" stroke="#000000" stroke-width="0.212"/></g><g stroke="#888888" stroke-width="0.212" stroke-linecap="butt"><line x1="-144.051" y1="26.3" x2="-141.964" y2="25.164"/><line x1="-144.852" y1="25.015" x2="-142.042" y2="23.485"/><line x1="-145.654" y1="23.73" x2="-142.143" y2="21.819"/><line x1="-146.409" y1="22.418" x2="-142.322" y2="20.194"/><line x1="-147.132" y1="21.09" x2="-142.5" y2="18.57"/><line x1="-147.854" y1="19.762" x2="-142.678" y2="16.945"/><line x1="-148.577" y1="18.434" x2="-142.857" y2="15.32"/><line x1="-149.3" y1="17.105" x2="-143.035" y2="13.696"/><line x1="-150.023" y1="15.777" x2="-143.214" y2="12.071"/><line x1="-150.746" y1="14.449" x2="-143.392" y2="10.447"/><line x1="-151.469" y1="13.12" x2="-143.571" y2="8.822"/><line x1="-152.192" y1="11.792" x2="-143.749" y2="7.198"/><line x1="-152.915" y1="10.464" x2="-143.928" y2="5.573"/><line x1="-153.637" y1="9.136" x2="-144.106" y2="3.948"/><line x1="-154.36" y1="7.807" x2="-144.285" y2="2.324"/><line x1="-155.083" y1="6.479" x2="-144.463" y2="0.699"/><line x1="-155.806" y1="5.151" x2="-144.642" y2="-0.925"/><line x1="-156.529" y1="3.822" x2="-144.82" y2="-2.55"/><line x1="-157.252" y1="2.494" x2="-144.998" y2="-4.174"/><line x1="-157.975" y1="1.166" x2="-145.177" y2="-5.799"/><line x1="-158.698" y1="-0.162" x2="-145.355" y2="-7.423"/><line x1="-159.42" y1="-1.491" x2="-146.074" y2="-8.754"/><line x1="-160.143" y1="-2.819" x2="-146.876" y2="-10.039"/><line x1="-160.866" y1="-4.147" x2="-148.057" y2="-11.118"/><line x1="-161.589" y1="-5.476" x2="-152.021" y2="-10.683"/><line x1="-161.812" y1="-7.076" x2="-155.984" y2="-10.248"/><line x1="-161.891" y1="-8.755" x2="-159.948" y2="-9.812"/><line x1="-132.67" y1="7.957" x2="-134.886" y2="-12.213"/><line x1="-134.246" y1="8.482" x2="-136.538" y2="-12.384"/><line x1="-135.86" y1="8.66" x2="-138.152" y2="-12.206"/><line x1="-137.474" y1="8.837" x2="-139.766" y2="-12.029"/><line x1="-139.087" y1="9.014" x2="-141.38" y2="-11.852"/><line x1="-140.74" y1="8.844" x2="-142.955" y2="-11.327"/><line x1="-128.88" y1="7.233" x2="-115.92" y2="5.809"/><line x1="-129.958" y1="6.032" x2="-114.997" y2="4.388"/><line x1="-130.195" y1="4.738" x2="-114.915" y2="3.059"/><line x1="-130.338" y1="3.434" x2="-114.926" y2="1.74"/><line x1="-130.481" y1="2.129" x2="-114.937" y2="0.422"/><line x1="-130.625" y1="0.825" x2="-114.948" y2="-0.897"/><line x1="-130.768" y1="-0.479" x2="-114.959" y2="-2.215"/><line x1="-130.911" y1="-1.783" x2="-114.971" y2="-3.534"/><line x1="-131.054" y1="-3.087" x2="-114.982" y2="-4.853"/><line x1="-131.198" y1="-4.391" x2="-114.993" y2="-6.171"/><line x1="-131.341" y1="-5.695" x2="-115.004" y2="-7.49"/><line x1="-131.484" y1="-6.999" x2="-115.015" y2="-8.809"/><line x1="-131.627" y1="-8.304" x2="-115.027" y2="-10.127"/><line x1="-131.771" y1="-9.608" x2="-115.038" y2="-11.446"/><line x1="-131.807" y1="-10.924" x2="-115.156" y2="-12.753"/><line x1="-130.884" y1="-12.345" x2="-116.233" y2="-13.954"/><line x1="-114.863" y1="9.104" x2="-139.959" y2="11.861"/><line x1="-114.851" y1="10.58" x2="-141.049" y2="13.458"/><line x1="-114.838" y1="12.056" x2="-140.889" y2="14.918"/><line x1="-114.826" y1="13.532" x2="-140.729" y2="16.378"/><line x1="-115.933" y1="15.131" x2="-140.568" y2="17.837"/><line x1="-119.696" y1="17.022" x2="-140.408" y2="19.297"/><line x1="-124.718" y1="19.051" x2="-140.248" y2="20.757"/><line x1="-129.739" y1="21.08" x2="-140.087" y2="22.217"/><line x1="-134.761" y1="23.109" x2="-139.927" y2="23.677"/><g fill="#888888" stroke="#000000" stroke-width="0.212"><polygon points="-114.942,-0.217 -114.929,1.37 -114.919,2.553 -114.904,4.246 -116.123,4.256 -117.651,4.269 -117.665,2.576 -117.676,1.394 -116.148,1.381 -116.161,-0.206"/></g></g><g stroke="#888888" stroke-width="0.212" stroke-linecap="butt"><line x1="-115.36" y1="-23.576" x2="-113.884" y2="-26.028"/><line x1="-117.307" y1="-23.169" x2="-112.973" y2="-30.372"/><line x1="-118.557" y1="-23.921" x2="-112.061" y2="-34.716"/><line x1="-119.807" y1="-24.673" x2="-111.15" y2="-39.06"/><line x1="-121.056" y1="-25.425" x2="-111.227" y2="-41.762"/><line x1="-122.306" y1="-26.177" x2="-112.476" y2="-42.514"/><line x1="-123.556" y1="-26.928" x2="-114.175" y2="-42.52"/><line x1="-124.806" y1="-27.68" x2="-116.214" y2="-41.96"/><line x1="-126.055" y1="-28.432" x2="-118.253" y2="-41.4"/><line x1="-127.305" y1="-29.184" x2="-120.292" y2="-40.84"/><line x1="-128.555" y1="-29.936" x2="-122.332" y2="-40.28"/><line x1="-129.805" y1="-30.688" x2="-124.371" y2="-39.72"/><line x1="-131.054" y1="-31.44" x2="-126.41" y2="-39.16"/><line x1="-132.304" y1="-32.192" x2="-128.449" y2="-38.599"/><line x1="-133.554" y1="-32.944" x2="-130.488" y2="-38.039"/><line x1="-134.804" y1="-33.696" x2="-132.527" y2="-37.479"/><line x1="-136.042" y1="-34.467" x2="-134.567" y2="-36.919"/><line x1="-154.342" y1="-69.742" x2="-172.88" y2="-57.396"/><line x1="-152.435" y1="-68.883" x2="-171.791" y2="-55.991"/><line x1="-151.452" y1="-67.407" x2="-170.143" y2="-54.959"/><line x1="-150.469" y1="-65.931" x2="-168.462" y2="-53.948"/><line x1="-149.487" y1="-64.456" x2="-166.782" y2="-52.937"/><line x1="-148.504" y1="-62.98" x2="-165.102" y2="-51.926"/><line x1="-147.521" y1="-61.505" x2="-163.422" y2="-50.915"/><line x1="-146.539" y1="-60.029" x2="-161.741" y2="-49.904"/><line x1="-145.556" y1="-58.554" x2="-160.061" y2="-48.893"/><line x1="-145.246" y1="-56.63" x2="-157.761" y2="-48.295"/><line x1="-143.304" y1="-53.554" x2="-154.273" y2="-46.248"/><line x1="-141.725" y1="-52.801" x2="-153.511" y2="-44.952"/><line x1="-140.893" y1="-51.552" x2="-152.088" y2="-44.096"/><line x1="-140.06" y1="-50.302" x2="-150.665" y2="-43.24"/><line x1="-139.228" y1="-49.053" x2="-149.242" y2="-42.384"/><line x1="-138.396" y1="-47.803" x2="-147.819" y2="-41.527"/><line x1="-137.564" y1="-46.554" x2="-146.396" y2="-40.671"/><line x1="-136.732" y1="-45.304" x2="-144.974" y2="-39.815"/><line x1="-135.899" y1="-44.055" x2="-143.551" y2="-38.959"/><line x1="-135.067" y1="-42.805" x2="-142.086" y2="-38.131"/><line x1="-134.235" y1="-41.556" x2="-140.212" y2="-37.575"/><line x1="-133.742" y1="-40.081" x2="-135.941" y2="-38.616"/><line x1="-139.236" y1="-54.092" x2="-130.537" y2="-41.03"/><line x1="-138.451" y1="-55.75" x2="-128.416" y2="-40.683"/><line x1="-137.142" y1="-56.622" x2="-126.818" y2="-41.122"/><line x1="-135.832" y1="-57.494" x2="-125.22" y2="-41.56"/><line x1="-134.523" y1="-58.366" x2="-123.622" y2="-41.999"/><line x1="-133.214" y1="-59.238" x2="-122.025" y2="-42.438"/><line x1="-131.905" y1="-60.11" x2="-120.427" y2="-42.877"/><line x1="-130.595" y1="-60.982" x2="-118.829" y2="-43.316"/><line x1="-129.286" y1="-61.854" x2="-117.231" y2="-43.754"/><line x1="-127.977" y1="-62.726" x2="-115.634" y2="-44.193"/><line x1="-125.971" y1="-62.552" x2="-114.733" y2="-45.678"/><line x1="-113.017" y1="-71.783" x2="-123.132" y2="-65.046"/><line x1="-111.899" y1="-70.715" x2="-123.041" y2="-63.295"/><line x1="-111.4" y1="-69.234" x2="-122.257" y2="-62.003"/><line x1="-110.901" y1="-67.754" x2="-121.421" y2="-60.748"/><line x1="-110.403" y1="-66.273" x2="-120.585" y2="-59.492"/><line x1="-109.904" y1="-64.792" x2="-119.748" y2="-58.236"/><line x1="-109.405" y1="-63.312" x2="-118.912" y2="-56.98"/><line x1="-108.906" y1="-61.831" x2="-118.075" y2="-55.724"/><line x1="-108.408" y1="-60.35" x2="-117.239" y2="-54.469"/><line x1="-107.909" y1="-58.87" x2="-116.403" y2="-53.213"/><line x1="-107.706" y1="-57.192" x2="-115.566" y2="-51.957"/><line x1="-107.729" y1="-55.364" x2="-114.73" y2="-50.701"/><line x1="-108.171" y1="-53.257" x2="-113.894" y2="-49.445"/><line x1="-108.613" y1="-51.149" x2="-113.057" y2="-48.19"/><line x1="-109.055" y1="-49.042" x2="-112.194" y2="-46.952"/><line x1="-109.5" y1="-46.933" x2="-111.282" y2="-45.746"/><line x1="-140.679" y1="-57.444" x2="-125.057" y2="-67.849"/><line x1="-142.595" y1="-57.717" x2="-124.57" y2="-69.722"/><line x1="-143.31" y1="-58.79" x2="-125.284" y2="-70.795"/><line x1="-144.025" y1="-59.863" x2="-125.999" y2="-71.869"/><line x1="-144.74" y1="-60.936" x2="-126.714" y2="-72.942"/><line x1="-145.454" y1="-62.009" x2="-127.429" y2="-74.015"/><line x1="-146.169" y1="-63.083" x2="-128.143" y2="-75.088"/><line x1="-146.884" y1="-64.156" x2="-128.858" y2="-76.161"/><line x1="-147.599" y1="-65.229" x2="-129.573" y2="-77.234"/><line x1="-148.313" y1="-66.302" x2="-130.287" y2="-78.308"/><line x1="-149.028" y1="-67.375" x2="-131.002" y2="-79.381"/><line x1="-149.743" y1="-68.448" x2="-131.717" y2="-80.454"/><line x1="-150.458" y1="-69.522" x2="-132.432" y2="-81.527"/><line x1="-151.172" y1="-70.595" x2="-133.146" y2="-82.6"/><line x1="-150.685" y1="-72.468" x2="-135.063" y2="-82.873"/><line x1="-121.721" y1="-70.19" x2="-114.079" y2="-75.279"/><line x1="-123.07" y1="-71.079" x2="-114.046" y2="-77.089"/><line x1="-123.895" y1="-72.317" x2="-114.537" y2="-78.549"/><line x1="-124.719" y1="-73.555" x2="-115.029" y2="-80.009"/><line x1="-125.544" y1="-74.793" x2="-115.521" y2="-81.469"/><line x1="-126.369" y1="-76.032" x2="-116.013" y2="-82.929"/><line x1="-127.193" y1="-77.27" x2="-116.505" y2="-84.389"/><line x1="-128.018" y1="-78.508" x2="-116.996" y2="-85.849"/><line x1="-128.843" y1="-79.746" x2="-117.488" y2="-87.309"/><line x1="-129.668" y1="-80.985" x2="-117.98" y2="-88.769"/><line x1="-130.492" y1="-82.223" x2="-118.472" y2="-90.229"/><line x1="-131.317" y1="-83.461" x2="-118.963" y2="-91.689"/><line x1="-131.351" y1="-85.226" x2="-120.246" y2="-92.622"/><g fill="#888888" stroke="#000000" stroke-width="0.212"/></g></g></svg>