{
    "accessors" : [
        {
            "bufferView" : 0,
            "componentType" : 5123,
            "count" : 168,
            "max" : [
                111
            ],
            "min" : [
                0
            ],
            "type" : "SCALAR"
        },
        {
            "bufferView" : 1,
            "componentType" : 5126,
            "count" : 112,
            "max" : [
                0.26999998092651367,
                0.06999999284744263,
                0.26323050260543823
            ],
            "min" : [
                -0.24326162040233612,
                -0.06999999284744263,
                -0.26323050260543823
            ],
            "type" : "VEC3"
        },
        {
            "bufferView" : 2,
            "componentType" : 5126,
            "count" : 112,
            "max" : [
                0.7429361343383789,
                0.6693623661994934,
                0.7243093252182007
            ],
            "min" : [
                -0.7429361939430237,
                -0.6693623661994934,
                -0.7243092656135559
            ],
            "type" : "VEC3"
        },
        {
            "bufferView" : 3,
            "componentType" : 5123,
            "count" : 42,
            "max" : [
                31
            ],
            "min" : [
                0
            ],
            "type" : "SCALAR"
        },
        {
            "bufferView" : 4,
            "componentType" : 5126,
            "count" : 32,
            "max" : [
                0.9749279022216797,
                2.0,
                0.9009689092636108
            ],
            "min" : [
                -0.9749279022216797,
                -2.0,
                -1.0
            ],
            "type" : "VEC3"
        },
        {
            "bufferView" : 5,
            "componentType" : 5126,
            "count" : 32,
            "max" : [
                0.9510998129844666,
                0.21973712742328644,
                0.9755591154098511
            ],
            "min" : [
                -0.9510999321937561,
                -1.0,
                -0.8789483904838562
            ],
            "type" : "VEC3"
        }
    ],
    "asset" : {
        "generator" : "Khronos Blender glTF 2.0 exporter",
        "version" : "2.0"
    },
    "bufferViews" : [
        {
            "buffer" : 0,
            "byteLength" : 336,
            "byteOffset" : 0,
            "target" : 34963
        },
        {
            "buffer" : 0,
            "byteLength" : 1344,
            "byteOffset" : 336,
            "target" : 34962
        },
        {
            "buffer" : 0,
            "byteLength" : 1344,
            "byteOffset" : 1680,
            "target" : 34962
        },
        {
            "buffer" : 0,
            "byteLength" : 84,
            "byteOffset" : 3024,
            "target" : 34963
        },
        {
            "buffer" : 0,
            "byteLength" : 384,
            "byteOffset" : 3108,
            "target" : 34962
        },
        {
            "buffer" : 0,
            "byteLength" : 384,
            "byteOffset" : 3492,
            "target" : 34962
        }
    ],
    "buffers" : [
        {
            "byteLength" : 3876,
            "uri" : "pillar.bin"
        }
    ],
    "materials" : [
        {
            "name" : "Material.001",
            "pbrMetallicRoughness" : {
                "baseColorFactor" : [
                    0.6400000190734865,
                    0.6400000190734865,
                    0.6400000190734865,
                    1.0
                ],
                "metallicFactor" : 0.0
            }
        }
    ],
    "meshes" : [
        {
            "name" : "Torus.001",
            "primitives" : [
                {
                    "attributes" : {
                        "NORMAL" : 2,
                        "POSITION" : 1
                    },
                    "indices" : 0,
                    "material" : 0
                }
            ]
        },
        {
            "name" : "Cone",
            "primitives" : [
                {
                    "attributes" : {
                        "NORMAL" : 5,
                        "POSITION" : 4
                    },
                    "indices" : 3
                }
            ]
        }
    ],
    "nodes" : [
        {
            "mesh" : 1,
            "name" : "Cone",
            "rotation" : [
                1.0,
                0.0,
                -0.0,
                -4.371138828673793e-08
            ],
            "translation" : [
                0.0,
                3.0,
                -0.0
            ]
        },
        {
            "mesh" : 0,
            "name" : "Power_Ring",
            "rotation" : [
                0.0,
                0.1132032498717308,
                -0.0,
                0.993571937084198
            ],
            "translation" : [
                0.0,
                1.4899998903274536,
                -0.0
            ]
        }
    ],
    "scene" : 0,
    "scenes" : [
        {
            "name" : "Scene",
            "nodes" : [
                1,
                0
            ]
        }
    ]
}
