<?xml version="1.0" encoding="UTF-8" standalone="no"?>
<!-- Created with Inkscape (http://www.inkscape.org/) -->

<svg
   xmlns:dc="http://purl.org/dc/elements/1.1/"
   xmlns:cc="http://creativecommons.org/ns#"
   xmlns:rdf="http://www.w3.org/1999/02/22-rdf-syntax-ns#"
   xmlns:svg="http://www.w3.org/2000/svg"
   xmlns="http://www.w3.org/2000/svg"
   xmlns:xlink="http://www.w3.org/1999/xlink"
   xmlns:sodipodi="http://sodipodi.sourceforge.net/DTD/sodipodi-0.dtd"
   xmlns:inkscape="http://www.inkscape.org/namespaces/inkscape"
   width="1168mm"
   height="949mm"
   viewBox="0 0 1168 948.99999"
   version="1.1"
   id="svg8"
   inkscape:version="0.92.4 (5da689c313, 2019-01-14)"
   sodipodi:docname="Bravagg.svg"
   enable-background="new">
  <defs
     id="defs2">
    <linearGradient
       inkscape:collect="always"
       id="linearGradient6336">
      <stop
         style="stop-color:#7e7e7d;stop-opacity:1;"
         offset="0"
         id="stop6332" />
      <stop
         style="stop-color:#6b6b69;stop-opacity:1"
         offset="1"
         id="stop6334" />
    </linearGradient>
    <inkscape:path-effect
       effect="skeletal"
       id="path-effect6325"
       is_visible="true"
       pattern="m 0.33471842,-646.05005 c 8.36120018,-7.5347 14.85740058,-6.9935 22.50910058,0"
       copytype="repeated_stretched"
       prop_scale="1"
       scale_y_rel="false"
       spacing="0"
       normal_offset="0"
       tang_offset="0"
       prop_units="false"
       vertical_pattern="false"
       fuse_tolerance="3" />
    <inkscape:path-effect
       effect="skeletal"
       id="path-effect6192"
       is_visible="true"
       pattern="#path5053"
       copytype="repeated_stretched"
       prop_scale="1"
       scale_y_rel="true"
       spacing="0"
       normal_offset="0"
       tang_offset="0"
       prop_units="true"
       vertical_pattern="false"
       fuse_tolerance="3" />
    <inkscape:path-effect
       effect="skeletal"
       id="path-effect6192-2"
       is_visible="true"
       pattern="#path5053"
       copytype="repeated_stretched"
       prop_scale="1"
       scale_y_rel="true"
       spacing="0"
       normal_offset="0"
       tang_offset="0"
       prop_units="true"
       vertical_pattern="false"
       fuse_tolerance="3" />
    <inkscape:path-effect
       effect="skeletal"
       id="path-effect6192-6"
       is_visible="true"
       pattern="#path5053"
       copytype="repeated_stretched"
       prop_scale="1"
       scale_y_rel="true"
       spacing="0"
       normal_offset="0"
       tang_offset="0"
       prop_units="true"
       vertical_pattern="false"
       fuse_tolerance="3" />
    <radialGradient
       inkscape:collect="always"
       xlink:href="#linearGradient6336"
       id="radialGradient6338"
       cx="535.26935"
       cy="-228.50945"
       fx="535.26935"
       fy="-228.50945"
       r="233.55565"
       gradientTransform="matrix(2.0207607,0,0,1.7622271,-546.38193,174.17609)"
       gradientUnits="userSpaceOnUse" />
  </defs>
  <sodipodi:namedview
     id="base"
     pagecolor="#ffffff"
     bordercolor="#666666"
     borderopacity="1.0"
     inkscape:pageopacity="0.0"
     inkscape:pageshadow="2"
     inkscape:zoom="0.12374369"
     inkscape:cx="-1089.955"
     inkscape:cy="1494.5671"
     inkscape:document-units="mm"
     inkscape:current-layer="layer4"
     showgrid="false"
     inkscape:window-width="1920"
     inkscape:window-height="1017"
     inkscape:window-x="-8"
     inkscape:window-y="-8"
     inkscape:window-maximized="1" />
  <metadata
     id="metadata5">
    <rdf:RDF>
      <cc:Work
         rdf:about="">
        <dc:format>image/svg+xml</dc:format>
        <dc:type
           rdf:resource="http://purl.org/dc/dcmitype/StillImage" />
        <dc:title></dc:title>
      </cc:Work>
    </rdf:RDF>
  </metadata>
  <g
     inkscape:groupmode="layer"
     id="layer2"
     inkscape:label="Reference"
     transform="translate(0,652)"
     style="display:none">
    <image
       sodipodi:absref="C:\Information\Misc, Other\Let's Do A Science\site\neocities-maxquest\dnd\img\maps\landmasses\Bravagg.png"
       y="-652"
       x="0"
       id="image824"
       xlink:href="file:///C:/Information/Misc,%20Other/Let's%20Do%20A%20Science/site/neocities-maxquest/dnd/img/maps/landmasses/Bravagg.png"
       preserveAspectRatio="none"
       height="949"
       width="1168" />
  </g>
  <g
     inkscape:label="Bravagg"
     inkscape:groupmode="layer"
     id="layer1"
     transform="translate(0,652)"
     style="display:inline">
    <path
       style="fill:#959559;fill-opacity:1;stroke:#720000;stroke-width:1;stroke-linecap:butt;stroke-linejoin:miter;stroke-miterlimit:4;stroke-dasharray:none;stroke-opacity:1"
       d="m 61.204721,-188.36145 c -1.357263,-9.11947 -3.143822,-18.20287 -3.771616,-27.40139 -1.27748,-18.7178 -0.02534,-37.52275 0.02792,-56.28401 0.04916,-17.31813 -0.711694,-34.66349 0.269195,-51.95389 1.449095,-25.54358 1.079419,-51.75654 8.285356,-76.30544 7.221093,-24.60054 19.859824,-47.66688 34.344134,-68.82191 10.08414,-14.72837 22.91299,-27.50796 36.02305,-39.62164 11.35582,-10.49276 23.80897,-19.82308 36.67426,-28.39845 9.71232,-6.47376 20.16685,-11.76688 30.4409,-17.30607 10.74064,-5.79073 21.34263,-11.9457 32.60422,-16.64364 9.31666,-3.88658 19.01875,-6.84045 28.76195,-9.48158 20.22866,-5.48347 40.80897,-9.71799 61.48179,-13.16785 22.61061,-3.77324 45.38307,-7.06549 68.27758,-8.21372 16.50759,-0.82791 33.04774,0.83953 49.57559,0.96692 24.36652,0.18781 48.73392,-0.24903 73.10111,-0.29874 24.99009,-0.051 49.98264,0.34388 74.97042,5.1e-4 8.10904,-0.11143 16.22239,-1.10916 24.32022,-0.66869 21.00954,1.1428 41.93372,4.30358 62.53749,8.56872 22.05549,4.56565 43.47298,11.81263 65.0837,18.15823 17.7742,5.21907 35.521,10.55202 53.10597,16.37694 23.22112,7.69185 46.86695,14.4671 69.16983,24.5153 16.61369,7.48503 32.87212,16.06821 47.81611,26.49499 15.74568,10.98614 29.67185,24.42455 43.59007,37.6497 15.79715,15.01052 31.29268,30.45409 45.20153,47.22936 14.109,17.01664 26.6517,35.32655 38.5874,53.93216 20.5342,32.0091 41.0284,64.35561 56.6612,99.02334 5.0089,11.10779 9.6339,22.61343 11.7598,34.61143 4.3534,24.56916 2.0565,49.88563 1.7373,74.83546 -0.2687,21.00394 1.86,42.5239 -3.0736,62.941973 -1.8291,7.569898 -5.4711,14.703949 -9.641,21.281223 -6.2576,9.870077 -14.2697,18.62744 -22.712,26.708479 -15.4049,14.745741 -30.6498,31.482923 -50.5005,39.273783 -8.7407,3.4304722 -18.7403,1.325643 -28.06269,2.4479723 -14.45306,1.7400066 -28.68146,5.171087 -43.16467,6.6392017 -5.93965,0.60208302 -11.97919,0.034495 -17.8884,0.88491296 -10.80021,1.55430084 -21.37261,4.53171374 -31.82373,7.66771944 -20.09583,6.0300376 -39.6058,13.8806506 -59.20019,21.3815606 -16.96446,6.494148 -37.15714,8.13502 -50.51394,20.446097 -6.12292,5.643544 -8.64816,14.398816 -11.22534,22.317014 -2.06262,6.337264 -1.44902,13.311019 -3.25011,19.727514 -2.532,9.02039 -6.55811,17.57464 -10.5305,26.05984 -4.03572,8.62049 -7.76442,17.56206 -13.48087,25.17272 -9.42206,12.54418 -21.13901,23.44267 -33.65626,32.90048 -14.2177,10.74265 -30.22877,19.06162 -46.39098,26.56697 -19.12467,8.88105 -39.072,16.18539 -59.4362,21.65581 -20.19527,5.42504 -41.01554,8.39936 -61.77051,10.95107 -27.61021,3.39453 -55.48265,4.16802 -83.25456,5.77029 -19.14279,1.10442 -38.28828,2.68861 -57.46286,2.64871 -23.14133,-0.0482 -46.35844,-0.74173 -69.33661,-3.48529 -27.51351,-3.28507 -54.46416,-10.23813 -81.67066,-15.49085 -23.81706,-4.59833 -48.45953,-6.16286 -71.40563,-14.02884 -9.08977,-3.116 -17.59917,-7.87138 -25.74684,-12.96538 -10.31019,-6.44603 -19.90605,-14.05345 -29.01767,-22.10514 -7.96515,-7.03858 -16.33152,-13.99922 -22.29808,-22.79612 -14.13024,-20.83319 -19.760865,-46.32308 -30.629096,-69.029179 -1.382624,-2.888603 -3.42991,-5.489412 -4.395761,-8.54274 -1.268588,-4.010363 -0.971447,-8.362248 -1.7297,-12.499563 -0.753388,-4.110774 -2.363462,-8.065013 -2.7974,-12.221665 -1.043589,-9.996446 0.496664,-20.097211 0.511786,-30.147971 0.02332,-15.5001135 -0.580667,-30.99588 -0.649355,-46.495859 -0.07738,-17.461665 1.785733,-34.989138 0.26727,-52.384827 -1.140477,-13.065441 -5.801022,-25.656176 -7.014556,-38.715036 -0.71547,-7.69919 0.495272,-15.49052 -0.141131,-23.19665 -1.30957,-15.85742 -5.201819,-31.39622 -7.544136,-47.13427 z"
       id="path827"
       inkscape:connector-curvature="0"
       sodipodi:nodetypes="aaaaaaaaaaaaaaaaaaaaaaaaaaaaaaaaaaaaaaaaaaaaaaaaaaaaaaaaaaaaaaaa" />
  </g>
  <g
     inkscape:groupmode="layer"
     id="layer8"
     inkscape:label="Bravagg (More Accurate)"
     style="display:inline">
    <g
       transform="translate(0,652.00001)"
       id="g6243"
       style="display:inline;fill:#959559;fill-opacity:1;stroke:#000000;stroke-width:1;stroke-miterlimit:4;stroke-dasharray:none;stroke-opacity:1">
      <path
         style="opacity:1;fill:#959559;fill-opacity:1;stroke:#000000;stroke-width:1;stroke-miterlimit:4;stroke-dasharray:none;stroke-opacity:1"
         d="m 373.76,244.41182 c -5.01875,-0.72664 -11.91725,-1.34794 -15.33,-1.38079 -7.82818,-0.0753 -17.86312,-1.57804 -28.94844,-4.33518 -4.75561,-1.18282 -12.91706,-2.70677 -18.13656,-3.38654 -5.2195,-0.67985 -14.25325,-2.4712 -20.075,-3.98077 -6.01259,-1.55906 -14.36906,-3.12958 -19.345,-3.63562 -4.818,-0.48997 -13.359,-1.98195 -18.98,-3.31551 -5.621,-1.33356 -14.65475,-2.97599 -20.075,-3.64985 -5.42025,-0.67387 -13.68742,-2.18212 -18.37149,-3.35173 -4.68407,-1.1696 -11.95138,-2.78947 -16.14957,-3.59963 -18.81046,-3.63007 -47.55229,-21.85736 -70.97207,-45.00866 C 112.60547,154.16543 103.04282,140.51669 98.690094,127.82286 97.485368,124.30952 95.515127,118.97125 94.311773,115.96 89.574088,104.10443 86.542179,96.302487 83.957388,89.315 82.472159,85.3 80.515065,80.565658 79.608289,78.794167 78.666508,76.954355 77.396739,72.102812 76.646868,67.479182 75.924869,63.027379 74.808955,57.147243 74.167066,54.412203 73.142839,50.04803 73,41.347569 73,-16.674985 73,-79.931003 72.93822,-83.029875 71.570948,-88.352188 70.78497,-91.411735 69.436693,-98.1855 68.574776,-103.405 c -0.861917,-5.2195 -1.841762,-10.96825 -2.177433,-12.775 -0.335671,-1.80675 -0.629893,-8.87167 -0.653827,-15.69982 -0.02394,-6.82815 -0.384986,-13.5624 -0.802338,-14.965 -1.087275,-3.65402 -6.528139,-38.50829 -6.535231,-41.86481 -0.0033,-1.54805 -0.499622,-4.71978 -1.103002,-7.0483 -2.122231,-8.18996 -2.529865,-21.98771 -2.533859,-85.76707 -0.004,-63.40205 0.397357,-77.19097 2.496487,-85.775 0.540003,-2.20825 1.179461,-6.59921 1.421018,-9.75771 0.710222,-9.28654 3.863009,-21.99533 7.358598,-29.66229 1.739029,-3.81425 3.567675,-8.249 4.063658,-9.855 0.495984,-1.606 1.801111,-4.72675 2.900285,-6.935 1.099176,-2.20825 2.833554,-6.3145 3.854181,-9.125 7.663752,-21.10369 24.767677,-45.161 49.824507,-70.08 13.77101,-13.69525 34.67877,-30.47464 45.54164,-36.54914 5.26708,-2.94533 19.93028,-11.38134 28.52054,-16.40838 9.04101,-5.29082 35.72791,-18.31273 40.15,-19.59126 2.60975,-0.75454 7.20875,-2.35988 10.22,-3.56743 3.01125,-1.20755 10.23825,-3.22772 16.06,-4.48926 5.82175,-1.26154 13.28765,-3.1133 16.59089,-4.11502 3.30325,-1.00172 8.7235,-2.15335 12.045,-2.55917 8.23283,-1.00589 16.25495,-2.54189 24.19805,-4.63322 3.66359,-0.96458 11.09581,-2.128 16.51606,-2.58539 10.89675,-0.91952 27.3764,-3.30708 30.17765,-4.37211 6.22473,-2.36664 10.81087,-2.46224 128.23235,-2.67307 64.44075,-0.11571 118.97175,-0.2653 121.18,-0.33243 8.25825,-0.25105 27.40054,1.50683 32.50151,2.98468 2.80141,0.81164 11.17074,2.46196 18.59849,3.66739 7.42775,1.20543 16.4615,3.16603 20.075,4.35689 3.6135,1.19086 10.67625,2.95615 15.695,3.92287 5.01875,0.96671 11.4245,2.62825 14.235,3.69231 2.8105,1.06405 8.395,2.71585 12.41,3.67066 4.015,0.95481 9.23786,2.5973 11.60634,3.64998 2.36849,1.05268 7.29599,2.53021 10.95,3.28341 3.65402,0.7532 9.43591,2.40565 12.84866,3.67211 3.41275,1.26646 9.07624,2.93433 12.58549,3.70638 3.50926,0.77205 8.90724,2.40745 11.99543,3.63423 3.08827,1.22678 8.42953,2.89692 11.86951,3.71144 3.44005,0.81451 8.88257,2.4976 12.09457,3.74019 3.212,1.24258 8.468,2.97546 11.68,3.85085 3.212,0.87539 8.1395,2.60348 10.95,3.84019 2.8105,1.23672 7.57375,3.04271 10.585,4.01329 5.96768,1.92351 13.26614,5.01002 26.34132,11.13968 4.65098,2.18038 8.71175,3.96433 9.02389,3.96433 0.87308,0 22.50087,12.72908 30.69979,18.06845 4.015,2.61467 10.9135,7.92676 15.33,11.80465 4.4165,3.87789 10.658,9.23033 13.87,11.89432 9.4773,7.86034 57.61875,56.92713 66.2818,67.5558 14.24,17.47108 26.4037,34.54212 33.1554,46.53178 1.5827,2.8105 8.0837,13.48675 14.4468,23.725 16.1244,25.94416 25.6096,41.77608 28.6331,47.79207 1.4188,2.82311 4.68,8.795 7.2469,13.27085 2.567,4.47587 5.4335,10.38887 6.3699,13.14 0.9366,2.75115 2.6932,6.97308 3.9039,9.38208 3.5956,7.15478 10.2392,28.43436 11.2828,36.13902 0.6957,5.13591 0.9415,21.39437 0.9491,62.77598 0.012,66.64298 0.1729,64.82142 -7.1252,80.780888 -7.2705,15.899246 -10.2502,19.902384 -30.3304,40.748213 -16.3165,16.938518 -21.2046,21.301334 -31.7321,28.321905 -15.2216,10.1509488 -18.0066,11.1548959 -33.8916,12.2176299 -6.7377,0.4507677 -23.78747,2.4399812 -37.88837,4.4204712 C 959.26614,0.4595971 945.42329,2.08 942.6052,2.08 c -3.17638,0 -7.72085,0.6979749 -11.95696,1.8364537 -3.75826,1.0100499 -11.65343,2.9615297 -17.54482,4.3366234 -5.89132,1.3750937 -11.96857,3.1403799 -13.505,3.9228669 -1.53636,0.782487 -5.91417,2.404466 -9.72842,3.604397 -3.81425,1.199937 -8.8295,3.027412 -11.14506,4.061055 -2.31548,1.033644 -6.68855,2.57482 -9.71776,3.424832 -3.02928,0.850012 -7.58718,2.47843 -10.1286,3.618712 -2.5415,1.140275 -7.13626,2.76332 -10.21066,3.606762 -3.07432,0.843442 -7.46242,2.467327 -9.75134,3.608638 -2.28884,1.141304 -6.86039,2.793448 -10.1589,3.671419 -3.2985,0.877971 -7.77705,2.383391 -9.95223,3.345371 -2.17526,0.961986 -6.37495,2.474028 -9.33269,3.360095 -11.44005,3.427116 -14.05615,6.007411 -19.50698,19.239573 -2.96169,7.189558 -3.99055,10.831536 -5.09467,18.033577 -0.91353,5.958844 -2.14445,10.809402 -3.62329,14.278362 -1.23187,2.889559 -2.91416,7.652813 -3.73847,10.585003 -2.04283,7.26715 -14.34465,31.54082 -19.47034,38.41844 -5.12088,6.87112 -20.46628,22.18236 -28.66159,28.59782 -14.84689,11.6224 -20.1077,14.81141 -48.28742,29.27118 -7.76256,3.98317 -17.21071,8.13176 -22.63,9.93668 -3.01125,1.00288 -7.61025,2.79568 -10.22,3.9839 -2.60975,1.1883 -7.86575,2.80583 -11.68,3.59445 -3.81425,0.78869 -9.8915,2.53843 -13.505,3.88835 -3.92022,1.46445 -9.36699,2.81568 -13.505,3.35019 -3.81425,0.49275 -10.5485,2.00574 -14.965,3.36216 -5.81083,1.7847 -11.05614,2.77575 -18.98,3.58619 -11.46247,1.17238 -24.18076,3.07097 -36.5,5.44887 -8.67919,1.67528 -32.0936,2.9473 -54.385,2.9546 -10.70731,0 -19.75475,0.4591 -28.47,1.43343 -17.92535,2.00407 -68.57248,1.98677 -82.49,-0.0285 z"
         id="path6257"
         inkscape:connector-curvature="0" />
    </g>
  </g>
  <g
     inkscape:groupmode="layer"
     id="layer3"
     inkscape:label="Features"
     style="display:inline">
    <g
       inkscape:groupmode="layer"
       id="layer4"
       inkscape:label="Rivers">
      <path
         style="fill:none;stroke:#465baa;stroke-width:10;stroke-linecap:butt;stroke-linejoin:miter;stroke-miterlimit:4;stroke-dasharray:none;stroke-opacity:1"
         d="m 674.21503,574.8036 c 0,0 7.34511,12.61756 10.29985,19.27678 4.08525,9.20709 4.83489,19.92111 10.20536,28.44271 4.56006,7.23568 11.54525,12.68225 18.04835,18.23733 8.28827,7.08001 16.33264,15.29707 26.55283,19.08781 3.73519,1.38541 8.08694,-0.0937 11.90623,1.03944 3.47377,1.03062 6.8298,3.03233 10.13505,4.76885 4.34876,2.28476 8.98513,4.08896 12.73253,7.42088 4.12681,3.66926 6.12224,9.19989 9.44941,13.60715 4.61209,6.1093 14.55208,17.76487 14.55208,17.76487"
         id="path2288"
         inkscape:connector-curvature="0"
         sodipodi:nodetypes="caaaasasac" />
      <path
         style="fill:none;stroke:#465baa;stroke-width:10;stroke-linecap:butt;stroke-linejoin:miter;stroke-miterlimit:4;stroke-dasharray:none;stroke-opacity:1"
         d="m 574.14583,244.07442 c 0,0 -2.15316,-17.85972 -2.26785,-26.83631 -0.0548,-4.29078 -0.009,-8.62882 0.75594,-12.85119 0.64664,-3.5684 1.27021,-7.33201 3.21282,-10.39434 1.57647,-2.48515 4.06658,-4.32783 6.52007,-5.95313 2.45575,-1.62678 5.43314,-2.29851 8.032,-3.68527 2.44498,-1.30465 4.53137,-3.27502 7.08704,-4.34672 6.9746,-2.92473 14.76189,-3.34512 22.01713,-5.48066 5.61859,-1.65381 12.20237,-1.8367 16.63094,-5.66964 4.81445,-4.16693 5.89778,-11.28823 8.69346,-17.00893 1.83139,-3.74752 4.28515,-7.29147 5.29167,-11.33928 1.7961,-7.22318 0.11461,-14.92759 1.13393,-22.3006 0.79633,-5.76007 1.77152,-11.58757 3.87424,-17.00893 1.36191,-3.511356 4.31707,-6.277499 5.57516,-9.827377 0.76802,-2.16707 0.14619,-4.727418 1.13393,-6.803572 2.45432,-5.158799 8.24955,-8.04593 11.33927,-12.851191 3.13416,-4.874371 7.08706,-15.874999 7.08706,-15.874999"
         id="path2290"
         inkscape:connector-curvature="0"
         sodipodi:nodetypes="caaaaaaaaaaaaaaac" />
      <path
         style="fill:none;stroke:#465baa;stroke-width:10;stroke-linecap:butt;stroke-linejoin:miter;stroke-miterlimit:4;stroke-dasharray:none;stroke-opacity:1"
         d="m 379.86607,567.24406 c 0,0 -14.68954,11.46822 -21.54464,17.76489 -5.97103,5.48461 -11.7759,11.19419 -17.00893,17.38689 -3.31824,3.92677 -6.41569,8.07126 -9.07143,12.47322 -4.31518,7.15251 -7.78564,14.8029 -11.0558,22.48959 -4.38039,10.29637 -7.46724,21.09823 -11.43379,31.561 -2.48606,6.5576 -4.47388,13.3587 -7.74851,19.56027 -3.78145,7.16136 -8.45259,13.88103 -13.60714,20.12723 -3.6291,4.39769 -7.45665,8.77961 -12.09524,12.09525 -5.82174,4.16135 -12.8022,6.40156 -19.27678,9.4494 -3.20444,1.50846 -6.752,2.38557 -9.68365,4.37286 -1.82996,1.24048 -2.92651,3.38975 -4.77394,4.60406 -2.2535,1.48122 -5.15469,1.72741 -7.46503,3.11833 -4.71628,2.83939 -7.99939,7.71874 -12.7567,10.48883 -3.14628,1.83202 -6.86207,2.45322 -10.19724,3.91334 -5.18431,2.26967 -10.469,4.44787 -15.22166,7.52043 -6.99044,4.51926 -13.22392,10.16073 -19.27678,15.875 -9.98398,9.42549 -19.15429,19.712 -27.97024,30.23809 -5.08649,6.07318 -14.3441,18.9486 -14.3441,18.9486"
         id="path2292"
         inkscape:connector-curvature="0"
         sodipodi:nodetypes="caaaaaaaaaaaaaaaaac" />
    </g>
    <g
       inkscape:groupmode="layer"
       id="layer5"
       inkscape:label="Trees">
      <path
         transform="translate(0,652.00001)"
         style="display:inline;fill:#279600;fill-opacity:1;stroke:#000000;stroke-width:1;stroke-miterlimit:4;stroke-dasharray:none;stroke-opacity:1"
         d="m 282.2342,96.799741 c -3.52109,1.090212 -6.98467,0.342446 -9.02731,-2.600794 0,-10e-7 0,-10e-7 0,-2e-6 -1.94365,-3.115041 -1.23432,-6.840411 0.98924,-9.109109 1.33693,-1.388727 3.42094,-2.547202 5.44369,-2.319189 0.59341,0.03787 1.1821,0.154065 1.77524,0.336596 0.36797,-2.015434 1.6618,-3.923686 2.81848,-5.262957 0.52553,-0.686125 0.93611,-1.373141 1.48255,-2.017802 0.77832,-0.958267 1.58883,-1.768074 2.52863,-2.454873 2.38377,-1.744108 5.3907,-2.550566 9.28345,-2.678915 0,0 0,0 0,0 1.01242,-0.0333 2.08029,-0.0204 3.21566,0.02857 0.51937,-3.117045 1.2217,-5.659686 2.1597,-7.704192 0.54162,-1.180465 1.15519,-2.193145 1.81697,-3.063529 0.48962,-0.654756 0.93521,-1.100176 1.28093,-1.480864 0,0 0,0 0,0 1.20268,-1.462984 2.69791,-2.361972 4.42388,-3.037397 1.78388,-0.712594 3.86201,-1.171858 6.21527,-1.385931 -0.003,-0.806727 0.0257,-1.580873 0.0852,-2.322086 0,0 0,-10e-7 0,-10e-7 0.49529,-5.666512 2.17562,-8.995883 3.85527,-11.498035 1.2738,-2.10054 3.1254,-3.210375 5.43892,-4.253494 1.01421,-0.450543 2.11901,-0.846824 3.31174,-1.189886 -0.56176,-2.85 -0.63134,-5.371313 -0.2631,-7.537818 0,0 0,-10e-7 0,-10e-7 0.5332,-3.287202 1.85224,-5.689752 4.06134,-7.694355 0.83135,-0.756129 1.75231,-1.410434 2.81023,-2.108233 0,0 0,-1e-6 10e-6,-1e-6 0.62976,-0.428899 1.38078,-0.829945 2.04817,-1.479566 0.67361,-0.647691 1.30906,-1.452228 1.96897,-2.090973 0.0733,-0.07609 0.14718,-0.152526 0.22148,-0.22924 -0.92158,-1.224015 -1.70625,-2.273164 -2.41021,-3.343521 0,-1e-6 0,-1e-6 0,-2e-6 -2.10612,-3.202826 -3.08605,-6.0050548 -2.9983,-8.8635309 0.0693,-3.0673443 1.61041,-7.5959715 5.3594,-10.253362 -0.3668,-0.4780219 -0.68702,-0.9689905 -0.96044,-1.4760451 -0.90469,-1.581216 -1.19162,-3.467486 -1.14953,-5.075256 0.0509,-2.573121 0.83212,-4.759846 2.03066,-6.489306 1.26229,-1.795821 3.09508,-3.474585 5.59075,-5.090622 1.02079,-0.653679 2.2281,-1.233684 3.4266,-1.364179 -0.11717,-0.367706 -0.20235,-0.732704 -0.24982,-1.099477 -0.23358,-1.485855 0.34018,-3.105786 1.045,-4.357557 1.50486,-2.661249 4.2519,-4.241131 7.28087,-4.121616 3.42346,0.234049 5.9119,2.383552 7.41845,5.439938 0.47349,0.936522 0.91711,1.902722 1.42112,2.992414 2.28756,-0.643277 4.74908,-1.281752 6.36232,-1.680613 1.51599,-0.267783 3.04994,-0.05874 4.22757,0.261869 1.60187,0.429404 3.04094,1.23161 4.23489,2.374895 1.98035,2.009597 3.74421,4.974434 5.50101,8.957877 1.9042,-0.556636 3.57259,-0.966537 5.15232,-1.194629 0,0 0,0 0,0 5.65803,-0.820903 9.12424,0.625721 12.77832,3.967705 1.41921,1.254625 2.65668,2.887986 3.72568,4.878662 3.20283,-1.470858 6.25353,-1.982119 8.79116,-1.764148 5.28665,0.363283 8.43479,3.027831 13.28632,8.6071441 -9e-5,5.66e-5 0.0596,-0.037956 0.0595,-0.037899 2.18689,-1.4708031 4.21924,-2.4886415 6.17261,-3.0656825 0.66902,-0.198747 1.33131,-0.3428987 2.00927,-0.4178863 0.20342,-0.02425 0.43022,-0.036359 0.6854,-0.028383 -0.0398,-0.089197 0.26341,-0.013959 0.92071,0.2833511 -0.47076,-0.2481535 -0.55488,-0.353369 -0.24286,-0.2377823 0.2226,-0.00289 0.45955,2.402e-4 0.71673,0.017319 0.87093,0.054381 1.72,0.197077 2.5607,0.4434875 2.61981,0.7681374 5.0099,2.5032425 7.35765,5.1740457 0.6184,0.70298 1.23379,1.467458 1.8607,2.29675007 4.34329,-2.54319077 7.89975,-3.74892267 11.00192,-3.77172997 3.98308,-0.016342 7.77883,2.0118463 12.002,6.0336954 1.83575,-1.54649101 3.54619,-2.7338277 5.21837,-3.5795011 6.21509,-3.1483283 11.53529,-1.5072275 17.47558,4.165756 0.35895,-0.3043253 0.71427,-0.5947527 1.0662,-0.8713934 2.2306,-0.53542659 4.15364,-0.72563539 5.81534,-0.56958996 4.06591,0.39257976 6.41189,1.38286756 9.96306,4.12545726 0,1e-7 0,4e-7 0,8e-7 1.39003,1.0618506 2.8364,2.3839035 4.37501,3.9470109 7.04864,-5.3081877 11.93073,-6.633058 17.85417,-3.3911094 1.64987,0.9024737 3.30151,2.1454756 5.04074,3.7124546 6.30773,-5.6197636 11.14946,-6.7848822 16.62452,-4.8574715 2.08437,0.7437328 3.93788,1.710356 6.66756,2.9428741 1.5155,-2.1591819 2.718,-3.9905979 3.77218,-5.5351426 1.33256,-1.78068834 3.07967,-2.9730137 4.77712,-3.6193329 1.95981,-0.7555455 4.16928,-0.908195 6.43425,-0.35744 1.99798,0.5362074 4.09299,1.37196177 6.66172,2.42288637 1.71487,-2.80026987 3.08089,-4.94765607 4.50718,-6.67913657 0,-3e-7 0,-6e-7 0,-9e-7 1.43591,-1.6885716 3.0554,-2.853499 4.89672,-3.5496072 3.68511,0.1507181 7.37929,1.7799322 11.36081,4.7261317 1.27128,-1.2215396 2.50397,-2.2452278 3.70937,-3.0776319 0,0 0,-9e-7 0,-9e-7 4.00207,-2.7650619 7.56608,-3.4615759 11.36407,-2.4742089 2.64713,0.667445 4.49373,1.9107775 7.90135,3.4670062 0.0644,0.033255 0.12904,0.066782 0.19381,0.1005801 3.19727,-4.7173163 6.22905,-7.4142493 9.58588,-8.5108393 3.45042,-1.127168 7.0674,-0.596379 12.33762,0.542156 0.36146,-0.941146 0.71004,-1.824354 1.05207,-2.652132 1.02341,-2.486376 2.02777,-4.381609 4.16464,-5.712952 1.92891,-1.084254 3.9612,-1.235257 5.57161,-0.95823 2.42554,0.291019 5.56048,1.867559 6.59363,4.64337 0.35049,0.876805 0.51983,1.808738 0.54302,2.802622 2.59531,-0.298704 5.3506,0.691836 7.17748,1.673898 0,0 0,10e-7 0,10e-7 3.54084,1.779167 4.99747,3.450247 7.04475,6.2502877 1.40743,1.7778383 2.50268,4.0773246 3.2639,6.8429069 8.82806,-1.7091787 14.40139,1.58835619 16.45947,8.1474528 0.51771,1.6558302 0.79953,3.3681046 1.16438,5.4829356 1.50102,-0.01613 3.5418,-0.0056 4.70809,-0.0057 0,0 0,0 0,0 2.11901,-0.0025 3.77423,-0.199257 5.29949,-0.180317 5.04343,0.245784 8.62924,3.685657 11.3794,9.529239 1.87069,-0.666009 3.62101,-1.109397 5.21793,-1.347059 0,0 0,0 0,0 2.99771,-0.463695 5.63181,-0.347834 8.12988,1.442389 0,0 0,10e-7 0,10e-7 1.70706,1.363214 2.42921,3.055113 2.57248,4.66617 0,0 0,1e-6 0,1e-6 0.32281,2.586448 -0.62508,5.450954 -2.79032,7.229467 0.55817,0.508172 1.0253,1.087052 1.39306,1.719174 1.58557,2.706685 1.09347,6.161237 -1.65303,8.259891 -3.16,2.284329 -7.0167,1.963829 -10.0146,-0.0641 0,0 0,-1e-6 0,-1e-6 -1.41194,-0.963192 -2.74043,-2.234126 -3.99998,-3.800599 -5.88509,4.110109 -11.24977,4.252553 -15.31878,1.966056 -2.01178,-1.07294 -3.39698,-2.831201 -5.78886,-4.677593 0,0 0,0 -1e-5,-10e-7 -0.62533,-0.41526 -1.3301,-0.779206 -2.08709,-1.119679 -0.91186,0.915186 -1.54939,1.9091 -2.09994,2.729242 -1.09272,1.737162 -2.91566,2.970465 -4.40754,3.693828 -2.36379,1.144036 -4.79739,1.373838 -7.17753,0.822341 -2.70445,-0.625699 -5.52661,-2.279278 -8.1589,-4.918088 -2.24286,1.946162 -4.48375,3.205723 -6.69514,3.811794 0,0 0,0 0,0 -3.19761,0.893155 -6.53507,0.333454 -9.06202,-1.991419 -2.10902,-2.024453 -3.12078,-4.79495 -3.54876,-8.28809 -1.29605,0.06749 -2.54659,0.02324 -3.68692,-0.08911 0,0 0,0 0,0 -3.23546,-0.330275 -5.75169,-1.049373 -7.68074,-2.037276 -2.04947,-1.049568 -3.27114,-2.248432 -5.29384,-3.964097 -1.19513,-1.114939 -3.13521,-2.149732 -4.92066,-3.40823 -0.10181,-0.06922 -0.20421,-0.139038 -0.30719,-0.209434 -2.30727,2.463513 -4.11375,4.264482 -6.08346,5.58505 0,0 0,1e-6 0,1e-6 -2.30452,1.548155 -4.5555,2.255912 -7.07347,2.29246 -2.21011,0.04426 -4.1674,-0.459421 -6.98709,-1.004409 -0.79314,-0.183582 -1.59273,-0.441191 -2.39177,-0.773314 -1.32767,3.04765 -3.41968,5.247035 -5.67881,6.488087 -5.08341,2.839758 -10.18909,1.327717 -15.7996,-3.064314 -0.55582,0.573328 -1.10695,1.106791 -1.65067,1.599832 0,0 0,10e-7 0,10e-7 -6.4533,5.771927 -10.93361,6.734189 -18.35467,3.782967 0,0 0,0 0,0 -0.90265,-0.363746 -1.8334,-0.800858 -2.77704,-1.311229 -3.62223,5.505553 -7.93989,8.057965 -12.71496,7.215323 -2.88958,-0.57958 -5.8937,-2.229068 -9.29015,-4.857743 -3.00906,3.05784 -5.65569,4.994655 -8.40256,5.90144 0,0 0,0 0,0 -3.17727,1.05472 -6.29609,0.685807 -9.76377,-0.887785 -10e-6,-10e-7 -10e-6,-10e-7 -10e-6,-10e-7 -1.49007,-0.674067 -2.94584,-1.546026 -4.64226,-2.602722 -0.80695,0.952039 -1.60716,1.853353 -2.33391,2.648172 0,0 0,0 0,1e-6 -3.58289,4.058555 -8.3274,4.692799 -11.9865,3.611004 -2.57285,-0.737339 -5.16477,-2.34903 -7.88615,-4.762242 -8.33345,7.661841 -14.98372,7.048153 -22.66241,0.08102 -1.66553,1.486426 -3.25841,2.658951 -4.79886,3.529636 -6.26513,3.540307 -11.70757,2.085026 -17.90163,-3.526105 -8.42939,7.536938 -14.98026,6.997477 -22.69804,0.006 -0.58912,0.526748 -1.16907,1.014047 -1.74088,1.462452 0,0 0.25508,0.02596 0.25508,0.02596 -5.03531,2.505236 -9.12277,2.827033 -12.78638,1.119845 -2.57363,-1.190926 -5.19532,-3.515841 -7.32477,-6.857187 -3.6309,1.983851 -6.95455,2.634396 -9.96837,1.949918 -4.68271,-0.851509 -6.43354,-4.544024 -12.65038,-8.242901 -0.68281,0.627061 -1.28177,1.249629 -1.80949,1.871117 -1.45694,1.733637 -2.27562,3.454465 -2.68828,4.747864 -0.79346,2.105169 -1.31294,3.698228 -2.86007,5.514699 -1.43151,1.791328 -3.37196,2.866138 -5.72927,3.57896 -1.21942,0.367973 -2.54673,0.625872 -3.98122,0.77968 0.0672,2.052212 -0.11546,3.921476 -0.49461,5.56192 0,1e-6 0,1e-6 0,1e-6 -1.36976,5.957438 -5.53763,9.479042 -11.83999,9.520896 0,0 0,0 0,0 -1.21337,0.01187 -2.50731,-0.05807 -3.89064,-0.199212 -1.02978,4.725517 -2.53524,8.049088 -4.73265,10.286849 0,0 0,0 0,0 -2.47687,2.512717 -6.35015,3.785462 -10.64703,2.86263 0,0 -10e-6,0 -10e-6,0 -0.93156,-0.196383 -1.87647,-0.485621 -2.83868,-0.864135 -1.87936,4.204656 -4.85463,6.930143 -7.65504,8.150891 0,0 0,0 0,0 -3.23827,1.423175 -6.28438,1.061672 -10.39609,0.111047 0,0 0,0 0,0 -1.11079,-0.249038 -2.37945,-0.484072 -3.77638,-0.594965 -0.39147,1.055783 -0.68408,2.052951 -0.89517,2.981013 -0.033,0.475869 -0.23495,0.988949 -0.43029,1.458202 -0.3323,0.797282 -0.73445,1.539588 -1.15437,2.204042 -1.27151,2.010339 -2.84188,3.456645 -4.62399,4.381105 -3.21,1.666099 -7.25639,1.727237 -12.17028,0.402721 -0.68369,1.824137 -1.45255,3.406829 -2.30574,4.757784 0,0 0,10e-7 0,10e-7 -2.08803,3.310616 -5.18864,5.211356 -8.75541,5.072496 -3.32976,-0.12963 -7.11767,-2.2772 -7.83442,-6.125494 0,0 0,-10e-7 0,-10e-7 0.0145,-0.0267 0.029,-0.0534 0.0435,-0.0801 z M 208.30897,77.21311 c -3.38999,1.084857 -6.88338,-0.384201 -8.79914,-2.704636 0,0 0,0 0,-1e-6 -2.03368,-2.388631 -2.51444,-5.926264 -0.865,-8.800176 0.35566,-0.681517 0.7772,-1.094575 1.19974,-1.418762 0,10e-7 0,0 0,0 0.68309,-0.570849 1.4375,-1.051906 2.27125,-1.498147 1.0649,-0.569634 2.24232,-1.066992 3.53551,-1.504785 -0.33664,-1.307901 -0.55742,-2.559837 -0.67479,-3.734161 -0.24478,-2.451829 -0.0456,-4.58484 0.63606,-6.458591 0.24777,-0.687895 0.57994,-1.364469 1.0259,-2.018891 0.14676,-0.218355 0.33629,-0.465741 0.57711,-0.733147 0.0636,-0.121263 0.3642,-0.394201 0.91916,-0.778815 -0.34296,0.32222 -0.35484,0.272854 0.0327,-0.02022 0.37635,-0.313841 0.79263,-0.639384 1.2527,-0.959376 1.33088,-0.923237 2.9324,-1.69353 4.8151,-2.334039 1.22959,-0.417028 2.57524,-0.713914 4.03055,-0.890662 -0.34549,-5.482235 1.27881,-9.61099 3.97984,-12.056199 2.77617,-2.51324 6.71237,-3.411078 11.89884,-3.229621 0.14625,-1.115746 0.33433,-2.160432 0.56087,-3.131715 0,0 0,-2e-6 0,-2e-6 1.93041,-8.174828 5.55052,-10.907956 13.29926,-12.813757 0,0 1e-5,0 1e-5,0 0.73665,-0.179896 1.50979,-0.34979 2.31965,-0.512283 -0.79166,-10.84986366 1.86519,-15.7013728 11.4103,-18.90899 0.31491,-0.1177208 0.63619,-0.2391078 0.96334,-0.3645362 -1.06839,-5.7903698 -1.92947,-8.6537418 -1.44404,-12.1088568 0.21023,-1.465564 0.71068,-2.854491 1.48815,-4.211119 0.25382,-0.443872 0.53535,-0.875641 0.84287,-1.307919 0,0 0,-10e-7 0,-10e-7 0.13899,-0.276386 0.29493,-0.385294 0.40691,-0.445315 0.0937,-0.436274 0.1899,-0.592704 0.25211,-0.550003 0,0 0,1e-6 0,1e-6 0.13918,-0.122395 0.2769,-0.217365 0.41247,-0.299278 0,0 0,0 0,0 0.45053,-0.277023 0.91876,-0.505808 1.41528,-0.724181 1.14275,-0.501803 2.39549,-0.908452 3.77292,-1.24834 -0.0698,-0.419941 -0.12873,-0.833427 -0.17742,-1.23911 -0.29017,-2.536511 -0.25837,-4.741398 0.0996,-6.660382 -1.31695,-2.581656 -1.52072,-5.01163 -0.70171,-7.458611 0.82155,-2.396081 2.32813,-4.896883 4.43634,-7.840105 -6.37676,-5.970298 -8.50651,-10.032466 -7.10482,-16.275538 0.42865,-1.921472 1.19529,-3.966494 2.2395,-6.277479 -8.31304,-5.046154 -10.54886,-8.94677 -10.27623,-16.294691 0.0549,-1.469171 0.19049,-3.013621 0.34754,-4.799811 -4.79593,-1.199005 -7.9288,-2.05836 -10.4412,-3.520467 -3.43911,-2.050798 -5.68759,-5.591738 -7.72532,-11.415238 -2.4269,0.54188 -4.50301,0.85175 -6.41102,0.86466 0,0 0,0 0,0 -4.42659,0.0511 -8.12152,-1.52736 -10.35602,-5.44518 -1.21766,-2.0491 -1.33436,-4.34706 -0.86762,-6.90533 -0.0858,-0.0161 -0.17127,-0.033 -0.25638,-0.0507 -4.77774,-1.24445 -8.00783,-2.9606 -9.68267,-6.41755 -1.39507,-3.04277 -0.8774,-6.1684 0.76741,-9.0454 0.73911,-1.29167 1.72824,-2.69986 2.9526,-3.83313 -1.02369,-1.06488 -1.78963,-2.16125 -2.26651,-3.39861 0,0 0,0 0,0 -1.57871,-4.10293 -0.55935,-7.99332 1.20998,-10.52471 1.56767,-2.14947 3.9304,-4.42684 7.15529,-7.39336 -1.00544,-1.50683 -1.84211,-2.75851 -2.57917,-4.02238 0,0 0,0 0,0 -3.33605,-5.71526 -3.48382,-9.60096 -0.84955,-15.46174 0,0 0,0 0,0 0.53984,-1.19829 1.24887,-2.40448 2.12245,-3.61563 -5.35547,-4.39842 -7.04252,-9.36747 -5.88106,-13.84148 0.70586,-2.74178 2.4964,-5.51585 5.30574,-8.11034 -0.13258,-0.16475 -0.26182,-0.32931 -0.38773,-0.49367 -1.95999,-2.58501 -3.1163,-4.9778 -3.34625,-7.52304 -0.41624,-3.56202 0.48292,-6.42287 2.64633,-9.50844 0,0 0,0 0,0 1.07646,-1.59179 2.62396,-3.08367 4.56764,-4.20265 -0.28268,-0.49024 -0.53095,-0.98357 -0.74511,-1.47902 -1.72995,-4.1317 -1.56753,-7.99844 -0.39631,-10.79091 0.36428,-0.88892 0.76769,-1.57587 1.19799,-2.33599 0.884,-1.67465 2.29319,-3.95879 4.12993,-6.05529 0.44716,-0.51295 0.92606,-1.03083 1.43613,-1.55492 -7.21188,-8.6479 -6.69063,-14.93075 0.38998,-22.61554 -6.21,-6.98628 -6.92054,-12.64629 -2.90839,-18.74686 0.81611,-1.24051 1.8247,-2.50013 3.01774,-3.79293 -7.46439,-8.40223 -6.95466,-14.93423 0.14151,-22.52624 -1.55355,-1.76056 -2.75239,-3.44161 -3.61144,-5.06878 0,0 0,0 0,0 -2.81402,-5.30781 -2.13639,-10.75361 2.84415,-15.36687 0,0 0,0 0,0 0.58942,-0.53508 1.24593,-1.03279 1.95788,-1.46559 -1.46797,-2.27886 -2.05106,-4.66323 -1.67513,-6.98459 0,0 0,-10e-6 0,-10e-6 0.55892,-3.65861 2.64213,-6.10883 5.11758,-7.71068 2.14177,-1.4434 4.93034,-2.34672 8.31179,-2.74363 -0.43505,-11.25274 5.35251,-15.90693 15.49974,-15.88781 0.10512,-1.16556 0.26391,-2.25544 0.47396,-3.26954 0,0 0,0 0,0 1.43828,-6.94876 5.40325,-10.46691 11.64583,-10.97089 0,0 0,0 0,0 1.53752,-0.12383 3.23445,-0.0715 5.02904,0.18545 0.842,-3.93745 2.36989,-6.84432 4.61492,-8.75938 0,0 0,0 0,0 2.87112,-2.531 6.36945,-3.40831 11.07078,-2.99111 0,0 0,0 0,0 1.14497,0.10145 2.34851,0.2774 3.64332,0.51042 0.31758,-1.04102 0.64831,-2.01528 0.98851,-2.91697 0.46468,-1.26353 1.05199,-2.41807 1.37833,-3.41242 0.60007,-1.20445 1.5532,-2.18228 2.20232,-2.81033 1.31935,-1.25558 2.84412,-2.10199 4.53425,-2.56223 2.78853,-0.72819 6.02259,-0.59643 10.24285,-0.0583 2.35342,-8.81551 4.77786,-12.32984 11.08792,-14.4518 1.71926,-0.58901 3.7082,-0.99271 5.95159,-1.2205 -0.0342,-5.63757 1.1899,-9.5908 3.8445,-12.21198 2.60759,-2.57475 6.6443,-3.82408 11.71842,-3.51886 0.16482,-1.30625 0.41763,-2.5142 0.75324,-3.62423 0,0 0,0 0,0 2.28334,-7.48171 7.57573,-11.16929 15.76271,-9.43461 0,0 0,0 0,0 0.44147,0.0997 0.88524,0.22177 1.32952,0.36663 1.40078,-4.27189 4.36956,-7.00968 7.61202,-7.92038 1.65169,-0.50795 3.36994,-0.74062 5.37406,-0.56385 2.22719,0.19755 4.51143,0.88003 7.37868,1.83473 0,0 1e-5,0 1e-5,0 0.29254,0.10966 0.58678,0.22711 0.88234,0.35238 2.56606,-5.23371 6.33787,-8.00907 10.4476,-8.23104 3.40093,-0.16287 6.89045,1.2138 11.08391,3.83741 1.45087,-1.82304 2.83428,-3.31308 4.20277,-4.49238 1.78951,-1.54213 3.53904,-2.54714 5.32346,-3.10288 1.32647,-0.42012 2.51741,-0.52103 3.79645,-0.57752 1.98083,-0.24102 3.94851,0.21669 5.81944,1.23266 0.85345,0.45863 1.69253,1.01315 2.53254,1.66003 1.7425,-2.05534 3.74043,-3.57757 5.54862,-4.56075 2.44987,-1.34634 4.73881,-1.89016 7.11802,-1.73296 0.91435,0.0594 1.80503,0.22605 2.73486,0.46442 0.60268,0.11736 1.06326,0.34674 1.55414,0.47636 0,0 0,0 0,0 0.46074,0.14493 1.06215,0.11077 1.70126,0.11413 0.97595,0.004 2.12243,0.007 3.23209,0.0494 0.34782,0.013 0.70226,0.0287 1.0634,0.0468 0.51372,-2.76368 1.05314,-4.9982 1.80818,-6.91749 0,0 0,0 0,0 1.11472,-2.74002 2.8918,-4.68872 5.16109,-5.87597 1.90719,-0.99783 4.38153,-1.58636 7.06066,-1.37479 1.0778,0.0739 2.25184,0.20303 3.42521,0.42899 0.45301,-1.70263 0.97455,-3.14141 1.7464,-4.42671 1.21835,-2.01566 3.10851,-3.38105 5.06321,-4.00622 3.2565,-1.06008 6.39958,-0.33227 9.52223,1.53489 0,0 0,0 0,0 1.30646,0.77999 2.62771,1.76978 3.98129,2.96099 4.60029,-4.33807 8.76686,-6.04869 12.81023,-5.52088 3.16524,0.41208 6.318,2.19247 9.70889,5.20213 6.0994,-5.64436 11.24342,-6.879 16.63759,-4.3728 1.90008,-0.0178 4.04185,0.37159 6.46003,1.11698 0.01,-0.0258 0.0191,-0.0515 0.0287,-0.0772 1.87995,-5.5908 5.77938,-8.67805 9.78529,-9.19481 3.04582,-0.35786 6.69041,0.34093 11.17626,2.01666 0.491,-0.96052 0.97309,-1.84099 1.46781,-2.65704 0,0 0,0 0,0 3.07711,-5.06229 6.27581,-7.3198 10.53688,-7.99183 2.54569,-0.45489 5.34464,-0.0796 8.49634,0.96906 0.89469,-2.11892 1.95234,-3.91964 3.06012,-5.35804 1.17979,-1.60924 2.0386,-2.84155 3.41313,-3.94844 1.6197,-1.32983 3.44777,-2.13111 5.69193,-2.6532 2.06944,-0.47934 4.42529,-0.72206 7.30734,-0.96112 0.15177,-2.24222 0.30982,-4.13306 0.56966,-5.83583 0,0 0,0 0,0 1.05664,-6.78647 4.69203,-10.37826 12.56162,-12.4504 0,0 10e-6,0 10e-6,0 0.20667,-0.054 0.41579,-0.10636 0.62681,-0.15646 -0.40639,-2.77417 -0.48054,-4.9948 0.31649,-7.16183 0.66709,-1.70235 1.90471,-3.07261 3.36772,-3.93488 3.48655,-2.05017 8.11333,-1.14855 10.45121,2.27853 0,0 0,0 0,0 0.5707,0.84168 0.96345,1.81584 1.12511,2.83916 2.61094,-0.91075 5.36133,-0.1781 7.14978,1.79197 0,0 0,0 0,0 1.47512,1.68989 2.05813,3.80105 2.09811,5.5012 0.15569,3.79131 -1.74309,7.26998 -5.20055,11.06417 0.14646,0.16318 0.28993,0.32576 0.43037,0.48764 4.47127,5.32683 6.59863,9.99488 3.56066,15.04245 -0.98331,1.64176 -2.46467,2.81232 -4.27741,3.59663 -1.01426,0.442 -2.10994,0.78289 -3.31087,1.06478 0.29682,1.72147 0.37227,3.40268 0.32735,4.86861 0,0 0,1e-5 0,1e-5 -0.18031,5.90207 -2.72193,10.06963 -8.22941,11.88323 0,0 -10e-6,0 -10e-6,0 -1.55015,0.52578 -3.41898,0.71902 -4.99226,0.15056 -0.0791,0.63313 -0.24893,1.2296 -0.5192,1.7839 0,0 0,1e-5 0,1e-5 -2.38347,3.92696 -4.21057,6.38523 -7.11484,7.85189 -3.31841,1.69046 -7.68435,1.59075 -12.31423,-0.56715 -0.1662,0.3148 -0.33705,0.6202 -0.51241,0.91624 -2.15797,3.42099 -4.30973,5.92986 -6.12505,7.48596 -1.30346,0.99728 -2.71332,1.52017 -4.05452,1.73638 -1.71015,0.29812 -3.5757,0.1854 -5.48076,-0.37678 -1.42097,-0.43749 -3.19541,-1.00853 -5.08233,-1.4677 -1.07092,2.20104 -1.83348,4.17236 -2.42227,5.78351 0,0 0,10e-6 0,10e-6 -1.70583,4.51806 -3.51185,7.22682 -8.02841,9.29001 -1.70978,0.80976 -3.83136,1.34957 -6.02284,1.29789 0.005,2.30176 -0.57213,4.30295 -1.74022,5.94707 -1.10932,1.61173 -2.59956,2.82973 -4.63292,3.37046 -3.1642,0.80389 -5.94605,-0.11108 -8.7131,-1.8367 0,0 0,0 0,0 -1.36136,-0.8415 -2.72443,-1.92753 -4.09936,-3.24831 -6.96813,6.10363 -12.94565,6.36901 -18.64553,2.13197 -1.23707,-0.91845 -2.44128,-2.04189 -3.70906,-3.37516 -3.09342,2.36931 -5.93208,3.89715 -8.33863,4.65024 0,0 -1e-5,0 -1e-5,0 -1.75973,0.58582 -3.23464,0.87232 -5.0396,0.91341 -1.35489,0.003 -3.19873,-0.0298 -5.09408,-0.29776 -1.43634,-0.20401 -2.99636,-0.52791 -4.68195,-0.95548 -0.49165,1.26263 -0.97746,2.40339 -1.48638,3.44775 0,0 0,0 0,0 -1.27937,2.62496 -2.67242,4.57829 -4.30049,5.98703 -1.39394,1.20743 -2.86253,1.92761 -4.5414,2.49347 -2.43172,0.90189 -5.37881,1.11692 -8.76839,0.6672 -1.20423,5.73666 -3.78112,9.40347 -7.28713,11.0916 -3.09895,1.50098 -7.21568,1.56204 -11.6944,-0.11908 -1.12338,2.57639 -2.55851,4.57648 -4.24513,6.00676 0,0 0,0 0,0 -2.56257,2.31018 -4.68904,3.44612 -7.79456,4.01997 -2.58171,0.5778 -5.46319,0.20164 -8.48738,-1.06698 -0.60997,1.30365 -1.32473,2.46359 -2.09633,3.46281 0,0 0,1e-5 0,1e-5 -2.76007,3.56038 -5.51538,5.42059 -8.82356,6.01614 -3.14125,0.62093 -6.5043,-0.2623 -10.00064,-2.39703 -0.57987,0.83375 -1.18812,1.59356 -1.80787,2.27535 -1.74482,1.87051 -3.24075,3.27498 -4.85137,4.30898 -1.44673,0.92679 -2.81942,1.44817 -4.16554,1.79621 -2.12852,0.61718 -4.18437,0.38797 -6.39011,-0.2712 -1.45838,-0.43251 -2.97639,-1.08058 -4.54233,-1.93805 -0.98089,1.50404 -2.00937,2.78236 -3.07449,3.83994 0,0 -10e-6,0 -10e-6,0 -3.10369,3.0941 -5.95785,4.4405 -9.23841,4.73778 -2.65376,0.24995 -5.80188,-0.2096 -9.50975,-1.28841 -1.26794,3.03856 -2.56121,5.3554 -4.14887,7.12294 -3.8892,4.36123 -8.70904,4.86977 -16.03486,3.44736 -1.56966,4.89342 -3.3171,8.14945 -5.72208,10.25966 -2.95655,2.5926 -6.76336,3.40119 -12.62222,3.9517 -0.16655,3.6834 -0.4723,6.50088 -1.1957,8.85631 0,0 0,0 0,0 -1.56201,4.7541 -5.47485,7.21087 -11.21919,8.11733 0,0 -1e-5,0 -1e-5,0 -0.69944,0.11358 -1.42863,0.21344 -2.19257,0.30426 -0.0136,5.5194 -0.73114,9.27409 -2.52351,12.08813 -1.83673,2.8837 -4.62692,4.62949 -8.9753,7.06374 -0.33868,0.17248 -0.68784,0.33799 -1.04717,0.49619 1.44825,3.74226 1.56856,7.17812 0.65501,9.93837 0,0 0,0 0,0 -0.87289,2.83364 -2.4319,4.78884 -4.87561,6.84044 -1.5337,1.35211 -3.40382,2.31843 -5.71834,3.26726 0.0994,0.3343 0.19238,0.66537 0.27924,0.99137 0,0 0,0 0,0 1.13518,4.15038 1.17594,7.55554 0.18942,10.33654 0,0 0,0 0,0 -1.4877,4.21569 -4.81781,6.27117 -10.16654,9.31263 0.14222,0.37874 0.28115,0.75086 0.41532,1.11248 0,0 0,1e-5 0,1e-5 1.95505,5.32626 3.1392,8.33072 2.24702,12.13862 -0.78387,3.43113 -3.32068,6.46095 -7.37422,8.99699 1.19693,2.25671 1.93203,4.40064 2.24549,6.36902 1.12579,6.69267 -1.54792,10.35362 -7.59134,15.91968 1.54264,2.24108 2.75814,4.1647 3.64799,5.93497 0,0 0,0 0,0 1.67736,3.62009 1.10716,7.19154 -0.65129,10.01595 -1.3123,2.14115 -3.41349,4.13089 -6.22477,5.83836 0.96506,1.86301 1.60907,3.64056 1.94853,5.32311 0,0 0,0 0,1e-5 0.54485,2.49622 0.85486,4.31792 0.77756,6.23036 -0.16185,3.58025 -2.02349,7.33059 -5.69625,11.36641 0.40068,0.44111 0.77771,0.87582 1.13198,1.30719 0,0 0,0 0,0 5.06018,6.18363 5.34984,10.94607 2.9949,16.49535 0,0 0,0 0,0 -0.67136,1.55835 -1.52088,3.32727 -2.48286,5.29829 2.74044,1.92751 4.73637,3.3324 6.37492,5.00503 0,0 0,0 0,0 3.21366,3.41027 3.68445,7.75284 1.86337,12.20069 0,0 0,0 0,0 -0.55984,1.35083 -1.24511,2.85079 -2.02112,4.46334 0.86999,0.58825 1.66243,1.13148 2.41203,1.67361 1.75938,1.26844 3.44008,2.73446 4.53878,3.71122 2.84549,2.84498 3.60022,6.60383 2.55451,10.5517 0,0 0,0 0,0 -0.47022,1.69848 -1.06851,3.40851 -1.7787,5.55607 2.84178,1.50933 4.96915,2.59373 6.81793,3.76238 1.24075,0.8347 2.25173,1.83395 3.01424,3.00156 0.27033,0.41012 0.52619,0.88042 0.74516,1.41783 0.10938,0.0212 0.29611,0.62437 0.40076,1.78671 -0.14528,-0.65017 -0.13184,-0.76293 -0.0999,-0.3669 0.0528,0.30397 0.13161,0.64922 0.21621,1.05637 0.22989,1.10954 0.38624,2.34467 0.46363,3.70988 0.11599,1.73689 -0.0438,3.65182 -0.50481,5.67515 1.82217,0.52955 3.40778,1.21923 4.7593,2.05427 2.49021,1.51942 4.22375,3.10917 5.41961,4.90915 1.68562,2.561 1.89687,5.53363 1.15637,8.78901 0,0 0,1e-5 0,1e-5 -0.28374,1.25252 -0.64972,2.51141 -1.0708,3.96822 2.08764,0.96497 4.19098,1.9936 5.66396,2.74163 0,0 0,0 0,0 2.74681,1.51681 4.41514,3.949789 5.02923,6.430679 0.5619,2.605569 0.76719,6.323111 0.57876,11.046058 1.11363,0.19577 2.11685,0.383978 3.07639,0.606561 3.66476,0.847875 6.35083,2.353274 8.03263,4.921555 1.20362,1.784087 1.784,4.297937 1.07891,6.677174 -0.68382,2.194742 -2.38206,3.653176 -4.52284,4.460214 -0.14974,0.05926 -0.30158,0.115714 -0.45552,0.169467 1.14239,2.841197 0.9544,5.973587 0.36415,8.204531 0,0 0,10e-7 0,10e-7 -0.72769,2.995706 -2.01992,5.152421 -4.27265,7.141767 -1.81859,1.672742 -4.31495,2.936056 -7.37495,3.699556 0.80307,4.240493 0.29026,7.808379 -1.2005,10.456777 0,10e-7 0,10e-7 0,10e-7 -0.42588,0.82853 -0.8718,1.568247 -1.42123,2.305554 -0.46229,0.700608 -0.8813,1.011408 -1.20111,1.348852 -0.73864,1.336695 -1.73535,2.243971 -2.90775,3.143339 -1.25227,0.972618 -2.7288,1.861853 -4.42552,2.683587 0.32531,0.851845 0.60038,1.677756 0.82645,2.476157 0,1e-6 0,1e-6 0,2e-6 1.92339,7.066417 1.53951,10.839886 -2.018,15.60567 0,10e-7 0,10e-7 0,10e-7 -1.06289,1.4455682 -2.516,2.9845688 -4.28282,4.2042378 0.6591,0.9977712 1.17659,1.9837181 1.54622,2.9936942 0,0 0,1.4e-6 0,1.4e-6 0.9713,2.6220751 0.78183,5.3723455 0.12467,7.4102666 -1.35968,4.3577474 -4.80373,6.887649 -10.51387,9.640499 0.47951,1.444227 0.8751,2.782533 1.18136,4.022387 0,0 0,2e-6 0,2e-6 1.18348,4.796623 1.13874,7.890385 -0.28722,11.223361 -0.86852,2.14016 -2.70542,4.96693 -5.45856,6.286294 -0.24301,0.109961 -0.49413,0.205649 -0.75342,0.288519 0.95813,1.821549 0.93397,4.168039 0.66072,5.947746 -0.32652,1.742691 -1.2404,3.280433 -2.10815,4.344185 -1.36957,1.693274 -3.14726,2.828533 -5.23226,3.454792 -2.3688,0.710414 -5.30065,0.844753 -8.48234,0.217776 -0.56999,2.248106 -1.39993,4.135173 -2.49087,5.679697 -1.72215,2.492477 -3.6009,4.03388 -5.54799,5.048134 -1.40454,0.779485 -2.73012,0.970676 -4.00667,0.944991 -1.81041,0.01136 -3.74883,-0.375804 -5.7405,-1.167788 -0.56391,-0.20943 -1.14366,-0.434258 -1.74292,-0.673568 -5.85745,10.371077 -9.41275,11.693965 -20.43268,11.384662 -0.1666,0.955242 -0.33189,1.850772 -0.50373,2.69729 0,0 0,2e-6 0,2e-6 -1.03889,5.337116 -3.87523,9.153828 -8.82523,9.58035 -3.41319,0.289954 -6.85641,-2.016956 -7.19271,-5.473534 z M 781.73556,6.3815832 c -2.43713,1.5135342 -5.94272,-0.3469339 -7.60043,-1.8509748 -1.38644,-1.0785864 -2.50835,-2.1057101 -3.45011,-3.58013614 -1.08518,-1.68593104 -1.72591,-3.61628596 -2.23581,-6.01719416 0,-4e-7 0,-9e-7 0,-1.3e-6 -0.33012,-1.5123764 -0.46549,-3.1813137 -0.79872,-5.1134268 -1.23324,-0.04685 -2.3337,-0.07057 -3.3888,-0.03183 -2.46963,0.08812 -4.24719,0.6131443 -6.05583,0.6146468 -1.68272,-0.015162 -3.25147,-0.4245738 -4.64197,-1.1703208 -0.98622,-0.515383 -2.13999,-1.336832 -3.0358,-2.503394 -1.0667,-1.748777 -2.48421,-4.34693 -3.67605,-7.127276 -0.37695,0.111339 -0.74322,0.216806 -1.10372,0.316065 -2.12133,0.516009 -3.69135,1.030989 -5.64001,0.32277 -1.73418,-0.723986 -2.99168,-2.245095 -3.63872,-3.370712 -2.37124,-4.013809 -1.24813,-8.247444 1.61771,-12.386829 10e-6,0 10e-6,-10e-7 10e-6,-10e-7 0.34396,-0.504607 0.70854,-1.01943 1.0937,-1.548545 -1.53861,-1.44951 -2.82903,-2.79412 -3.88079,-4.079644 -0.93948,-1.166922 -1.59757,-2.298684 -2.23542,-2.899206 -2.75754,-4.162847 -1.01079,-9.188561 2.91221,-11.524342 0,-10e-7 0,-10e-7 0,-10e-7 1.13581,-0.67857 2.40515,-1.35634 3.80523,-2.051413 -0.69086,-2.025847 -1.21511,-3.790065 -1.54638,-5.438223 0,0 0,-10e-7 0,-10e-7 -0.67562,-3.523062 0.12563,-6.643156 1.9976,-8.970415 0.93847,-1.066977 2.20206,-2.372874 3.75968,-3.635745 1.26041,-1.020193 2.68058,-2.012356 4.34451,-3.155719 -0.39382,-0.816265 -0.7621,-1.590828 -1.10282,-2.328065 -1.15831,-2.354086 -1.62284,-4.69107 -1.52141,-6.771909 0.0662,-1.79007 0.5919,-3.569554 1.76784,-5.154069 1.78533,-2.209462 4.39088,-4.07661 8.1038,-6.449754 0.15176,-0.08467 0.30585,-0.167409 0.46224,-0.248143 -1.77417,-3.548263 -1.94255,-7.074833 -0.89709,-9.893493 0,0 0,0 0,0 1.6327,-4.42255 5.55183,-6.59713 10.99364,-7.37827 0,0 0,0 0,0 0.59994,-0.0849 1.21996,-0.15395 1.86435,-0.21087 0.033,-3.32729 0.50512,-6.18076 1.21606,-8.3574 0,0 0,0 0,0 0.57909,-1.81618 1.27941,-3.1373 1.97353,-4.30528 0,0 0,0 0,0 0.67321,-1.04493 1.42725,-2.21256 2.4838,-3.67166 0,0 0,0 0,0 1.07981,-1.51819 2.54703,-3.32273 4.27111,-5.05492 -0.50188,-0.61701 -0.96196,-1.20932 -1.38475,-1.7988 0,0 0,0 0,0 -2.77997,-3.97151 -4.1195,-7.33866 -3.00718,-11.15903 0.954,-3.11405 3.21735,-4.85717 6.22857,-6.44303 0.85446,-0.45556 1.77372,-0.9337 2.74846,-1.43909 -1.44752,-4.40746 -2.37858,-7.28364 -2.35197,-10.24988 0,0 0,0 0,0 0.0686,-3.94036 2.55702,-7.78597 7.00405,-9.45442 0,0 0,0 0,0 0.91642,-0.37653 1.84506,-0.7623 2.88074,-1.19872 -0.18631,-0.81417 -0.44852,-1.90025 -0.63483,-2.71443 -0.37025,-1.58553 -0.62198,-3.05866 -0.96295,-4.23038 -0.27082,-0.88738 -0.56943,-1.59553 -0.72359,-2.59797 -0.28361,-1.5644 -0.27538,-3.07282 0.054,-4.60368 0.64144,-2.98011 2.49258,-5.94357 5.45148,-9.15826 -1.1636,-1.31918 -2.13531,-2.579 -2.92239,-3.80413 0,0 0,-1e-5 0,-1e-5 -3.26307,-5.07888 -3.32057,-9.48004 -0.63672,-14.26833 0,0 0,0 0,0 0.83335,-1.48874 1.92558,-2.98897 3.2654,-4.59355 -2.196,-2.29113 -3.80889,-4.42275 -4.86083,-6.407 0,0 0,0 0,0 -1.39593,-2.6679 -1.70538,-5.04618 -1.50557,-7.53323 0.18894,-1.97128 0.63756,-4.69797 1.41507,-7.57078 0.13213,-0.47064 0.27784,-0.95013 0.43679,-1.43873 -2.29625,-1.00637 -4.18998,-2.0934 -5.71126,-3.2841 0,0 -0.0983,-0.40112 -0.0983,-0.40112 -3.37802,-5.67437 -2.26017,-10.90558 2.56614,-16.98397 0,0 0,0 0,0 0.10624,-0.13374 0.21427,-0.26792 0.32408,-0.40259 -6.83386,-6.80634 -7.5949,-12.10862 -4.4959,-18.77479 0.5933,-1.27598 1.29366,-2.575 2.1054,-4.05917 -3.04798,-2.31946 -5.35528,-4.21757 -6.99124,-5.96249 -1.15761,-1.39961 -1.79884,-2.96975 -2.07614,-4.43495 -0.38661,-1.95955 -0.2146,-4.0741 0.5229,-6.25418 0,0 0,0 0,0 0.54797,-1.55914 1.23912,-3.25619 2.03538,-5.18808 -8.70394,-5.33253 -11.43256,-7.87021 -11.75666,-16.35022 -0.0364,-1.20331 0.12986,-2.45104 0.50582,-3.69785 -2.27289,-0.6077 -4.1667,-1.80697 -5.51902,-3.28251 0,0 0,0 0,0 -2.71736,-2.7683 -4.14336,-5.10619 -4.60581,-8.6389 -0.28097,-1.8261 -0.12668,-3.79857 0.42999,-5.89629 0.21336,-0.8185 0.48332,-1.67162 0.84221,-2.47025 -0.80573,-0.3539 -1.5264,-0.73373 -2.17846,-1.20081 -1.41714,-1.16176 -2.68062,-2.00428 -3.73697,-2.98558 -1.38205,-1.26177 -2.4035,-2.54026 -3.13814,-3.92153 -1.52298,-2.86361 -1.73984,-6.59626 -0.26706,-10.54065 0,0 0,0 0,0 0.2221,-0.74459 0.4123,-1.52979 0.59605,-2.36735 -1.45772,-0.71689 -2.7644,-1.17875 -3.92861,-1.70295 0,0 0,0 0,0 -2.48266,-1.12243 -4.36122,-2.25677 -5.82395,-3.62039 -3.15878,-2.99638 -4.19494,-7.45772 -3.52623,-13.46127 -0.43588,-0.0891 -0.85989,-0.18428 -1.27218,-0.28559 0,0 -10e-6,0 -10e-6,0 -4.47815,-1.12208 -7.66558,-2.82402 -9.7026,-4.67047 -1.96142,-1.80948 -3.58837,-4.38304 -4.87313,-8.0495 -0.3482,-0.98147 -0.69371,-2.03749 -1.04689,-3.16875 -6.2686,1.00543 -10.1013,1.13916 -13.62045,-0.79735 -2.86542,-1.57059 -5.10762,-4.34671 -7.65923,-8.45153 -2.64331,1.20423 -4.9002,2.05293 -6.94743,2.5231 0,0 0,0 0,0 -4.69153,1.04376 -9.48741,-0.64508 -11.9216,-5.46613 0,0 0,0 0,0 -0.63411,-1.26512 -1.20833,-2.67748 -1.76541,-4.25752 -2.23347,0.50704 -4.22435,0.81046 -5.99763,0.90256 -2.65669,0.10062 -5.13974,-0.89371 -6.81205,-3.07983 -0.44838,-0.63052 -2.67507,-3.93511 -3.95605,-5.49318 0,0 0,0 0,0 -1.09122,-1.31707 -1.83075,-2.20891 -3.15875,-3.79321 -4.02026,2.33546 -6.45596,3.89023 -9.55398,4.36631 0,0 0,0 0,0 -3.04001,0.50707 -6.4364,-0.22174 -9.26786,-2.72844 -1.27703,-1.11136 -2.10564,-2.58257 -2.66063,-4.3346 -0.39268,0.13882 -0.7914,0.25493 -1.18919,0.35084 0,0 0,0 0,0 -4.34071,0.93848 -8.22501,0.0289 -10.3527,-3.64872 -1.76639,-3.54777 -0.45905,-7.28781 2.38825,-9.30984 1.1206,-0.7969 2.54645,-1.41544 3.90153,-1.43358 -0.24059,-0.85785 -0.2849,-1.70499 -0.0809,-2.5256 0.3385,-1.24917 1.09174,-2.45138 1.72899,-3.3831 1.17053,-1.68055 2.53789,-2.93472 4.04507,-3.787 3.35419,-1.89841 7.65803,-1.9277 12.73463,-0.14351 0,0 0,0 0,0 0.0889,0.0166 0.17841,0.0326 0.26854,0.048 1.08774,-1.81663 1.52847,-3.66099 1.94926,-5.02224 0.64801,-2.12323 1.22471,-3.75988 2.10785,-5.25269 1.94995,-3.33641 4.47874,-4.55002 8.76227,-7.12702 0,0 0,0 0,0 0.7704,-0.44816 1.59275,-0.89021 2.47376,-1.33984 -2.0915,-5.75984 -2.64846,-9.72313 -1.62378,-13.23199 0.91054,-3.08728 3.13649,-6.06454 6.67914,-9.45478 -1.88924,-2.50918 -3.22099,-4.6799 -4.013,-6.81182 0,0 0,0 0,0 -1.55682,-4.13093 -1.05198,-8.42451 2.30227,-12.15983 0,0 0,0 0,0 1.00315,-1.12695 2.28509,-1.94578 3.81395,-2.56968 -0.40859,-0.93724 -0.68898,-1.91934 -0.87171,-2.86272 0,0 0,0 0,0 -0.93749,-4.82159 1.00548,-9.1085 5.06192,-10.83275 3.37338,-1.38203 7.44774,-0.3045 9.7002,2.92006 0.1965,-0.17667 0.40008,-0.34268 0.60977,-0.49773 2.12032,-1.51335 4.58484,-2.0172 6.92555,-1.30882 2.6299,0.83096 4.47601,2.87337 5.27222,5.07743 0.49704,1.3959 0.73504,2.92802 0.73787,4.61182 -0.82305,1.81903 -1.99213,3.67013 -3.48785,5.58756 4.71656,5.00795 6.4066,9.38822 5.45546,13.82111 -0.60984,2.85724 -2.30143,5.63799 -4.93098,8.7477 2.51848,2.64873 4.24188,5.07814 5.22543,7.37059 0,0 0,0 0,0 0.99502,2.27349 1.21755,4.13744 1.24906,6.19327 -0.0474,2.34462 -0.18453,5.2534 0.13047,9.24824 5.85226,0.76371 8.29661,0.32389 11.7177,1.83502 3.97498,1.71518 6.42367,5.88487 6.62423,11.41792 0.0679,10e-5 0.13556,5.5e-4 0.20302,0.001 7.9321,0.13157 12.34144,4.23991 13.47146,9.62289 0.49996,2.29276 0.36203,4.551 0.25643,7.60898 1.78828,0.35679 3.38659,0.69395 4.80841,0.96524 0,0 0,0 0,0 2.57648,0.48346 4.51569,0.39348 6.45447,1.11648 4.00013,1.44537 6.7076,5.15499 8.12336,10.70063 3.72508,-0.66059 6.88705,-0.45851 9.40335,0.45113 0,0 0,0 0,0 2.76547,0.92948 4.56726,2.30597 6.56993,4.51469 1.6234,1.65373 2.70989,3.83133 3.46502,6.52681 1.5738,-0.34588 3.10038,-0.50048 4.47879,-0.51889 0,0 0,0 0,0 3.96785,-0.054 7.16352,1.05449 9.33731,3.81344 2.13342,2.771 2.59886,6.322 2.15887,10.77601 0.038,0.007 0.076,0.0145 0.11387,0.0219 5.06527,0.97012 8.52777,2.94483 10.4568,5.94655 2.32532,3.66984 1.85905,8.27409 -0.89799,12.91026 0.24169,0.16062 0.47701,0.32402 0.70583,0.48978 2.26372,1.77264 3.99735,3.26543 5.34358,4.84929 1.13523,1.34504 1.88847,2.65511 2.44441,3.77506 1.73544,3.642 0.70912,7.13937 -1.44788,10.98092 -0.25976,0.44812 -0.54005,0.89891 -0.84065,1.3524 5.36243,4.1522 7.39109,8.74527 6.6746,13.1983 -0.48353,2.7156 -1.77767,5.6129 -3.69685,9.32693 2.21167,1.58137 3.9637,2.9182 5.39882,4.31197 0,0 0,0 0,0 4.65194,4.6299 4.50371,10.49409 0.50694,16.87222 0,0 0,0 0,0 -0.0916,0.15112 -0.1849,0.30324 -0.27973,0.45648 5.71546,4.54572 8.10389,8.08023 8.64965,12.4499 0.39995,2.73459 -0.14165,6.07374 -1.89388,9.29505 0.72737,0.42299 1.39588,0.8764 2.00684,1.36077 0,0 10e-6,0 10e-6,0 3.61314,3.04973 5.77086,5.03784 6.91577,8.1517 1.31024,3.5039 0.5767,7.56047 -1.9886,11.68876 2.76388,1.93512 4.68258,4.1844 5.76679,6.41397 2.47989,5.06192 0.98675,10.15798 -3.68919,15.52719 5.37009,5.58488 6.6792,10.64222 4.74334,15.5842 -0.87723,2.24064 -2.42679,4.52201 -4.60326,6.88359 4.51693,5.03578 6.06936,9.49937 4.90863,13.87158 -0.76426,2.89558 -2.74722,5.69251 -5.84211,8.34874 1.05918,1.44765 1.89197,2.86122 2.50691,4.22861 0,0 0,0 0,0 2.38177,5.26669 2.1501,9.25733 -0.59199,13.70863 0,0 0,0 0,0 -0.94919,1.54579 -2.2083,3.11976 -3.76106,4.75895 7.10771,8.31792 6.96082,14.53598 0.41113,22.00749 -0.17403,0.19896 -0.35246,0.3987 -0.53528,0.59926 6.16678,6.86427 6.96984,12.51462 3.06791,18.53004 -0.84317,1.29942 -1.91472,2.63268 -3.19974,3.943 2.08539,2.40514 3.44108,4.69238 4.08586,7.00233 0.73081,2.6677 0.41137,5.28882 -0.8508,7.54435 -1.49422,2.63252 -4.00437,4.49613 -7.50924,6.3696 0,0 0,0 0,0 -0.0703,0.0347 -0.14095,0.0691 -0.21206,0.10311 3.51054,8.1199 0.37167,14.30019 -5.45751,16.94822 -1.60725,0.71974 -3.47015,1.32555 -5.59865,1.86188 0.28136,2.11821 0.40517,3.98858 0.34346,5.67993 0,0 0,0 0,0 -0.1154,3.10172 -0.86993,5.522541 -2.11765,7.487434 0,0 0,10e-7 0,10e-7 -1.27105,2.053235 -2.84455,3.119204 -4.97475,4.98076 -1.14826,1.003584 -2.08807,1.885222 -3.44574,3.123679 1.14105,1.763653 2.04138,3.066557 2.79139,4.562323 0,10e-7 0,10e-7 0,10e-7 1.80639,3.584427 2.09692,7.065325 0.41003,10.274862 -1.51954,2.852388 -4.27019,4.649999 -8.01991,5.977217 0.0368,0.134283 0.0722,0.268051 0.10641,0.401215 0.49112,2.013997 0.7629,3.84093 0.81554,5.503185 3.48236,6.111306 2.00228,11.36671 -3.62089,17.326755 2.29656,2.599598 3.82912,5.015183 4.6443,7.335496 1.8467,5.263798 -0.005,9.880467 -4.7911,15.258837 1.87667,2.068627 3.28252,3.997538 4.23931,5.840392 0,0 0,10e-7 0,10e-7 1.50733,2.897618 1.82757,5.316354 1.73266,7.7797329 0.003,1.4620532 -0.31123,2.940689 -0.91556,4.4181153 -0.46253,1.1228904 -1.10211,2.3907983 -2.02728,3.27125537 -0.29058,0.2848909 -0.60794,0.54481209 -0.9497,0.77885301 1.46665,1.52043692 2.12427,3.66466862 2.12817,5.59768772 0.0555,2.2403023 -0.80079,4.4617966 -3.12986,5.9571157 -2.41895,1.344929 -4.91239,1.180709 -6.96979,0.230401 -2.03102,-0.872605 -4.25203,-2.7225677 -4.71628,-5.1260016 0.0137,-0.027348 0.0274,-0.054697 0.0411,-0.082044 z"
         id="path6247"
         inkscape:connector-curvature="0"
         sodipodi:nodetypes="cccccccccccscsccsscsscssssccssscscsscccccsssssscsscssccscccccccsscsccscccssccssccssssccccccsssccssccscsssscsccsscccccccscsccscsscssccsssccsccsccscsccccccccccsscsscsccccccsccccccccccscccccccccccccccccccsscccscccscsssscscscccscccccccsccsccccccccsccccc"
         inkscape:path-effect="#path-effect6325"
         inkscape:original-d="m 280.93333,99.194163 c -5.6877,-3.09009 -7.54308,-7.935027 -5.12883,-13.392872 1.60459,-3.627443 3.33089,-5.024079 8.75968,-7.08684 4.48991,-1.706032 21.05842,-14.860676 23.65029,-18.77725 1.03372,-1.562068 4.46048,-5.629701 7.61501,-9.039181 3.98923,-4.311628 6.13208,-7.311892 7.03796,-9.854022 0.71635,-2.01023 4.08453,-7.833827 7.48485,-12.94133 3.58639,-5.38697 6.46776,-10.556311 6.86195,-12.310713 0.37373,-1.663393 0.48823,-8.1675539 0.25444,-14.4537007 -0.46379,-12.4699033 -0.5421,-12.1212923 4.91707,-21.8882543 0.78546,-1.40525 2.14865,-4.324856 3.02931,-6.488006 1.24984,-3.069942 2.32421,-4.391527 4.89599,-6.0225 4.48174,-2.842233 8.87628,-2.833722 14.54569,0.02818 2.3073,1.164722 5.55198,2.483051 7.21039,2.929614 1.65841,0.446563 4.96153,2.111576 7.34024,3.700027 5.47148,3.653708 17.99698,9.028968 24.61655,10.564078 2.79341,0.647802 8.15502,2.492074 11.91467,4.098373 5.03036,2.1492077 8.86951,3.206036 14.53628,4.0015097 4.2353,0.5945339 7.92564,1.2200782 8.20074,1.3901098 0.27511,0.1700243 5.57377,1.3441344 11.7748,2.6091295 10.23181,2.0872744 12.99627,2.3448768 29.88959,2.7852274 l 18.615,0.485231 4.91905,2.7655101 c 6.2603,3.5195709 11.29596,4.1524298 33.04095,4.1524298 20.71018,0 26.62119,-0.6741185 32.61258,-3.7193062 2.53958,-1.2907714 7.47855,-2.9396735 10.97547,-3.6642277 3.73882,-0.774676 8.55046,-2.4364772 11.68,-4.0339362 l 5.32195,-2.7165563 13.87,-0.501656 c 9.05628,-0.3275583 15.5168,-0.9252166 18.615,-1.7220627 9.7118,-2.4978412 18.04167,-5.6505502 23.3267,-8.8287512 4.97309,-2.990613 5.8532,-3.272189 10.22,-3.269692 5.99366,0.0036 8.20104,1.266075 13.09068,7.488019 2.45585,3.125006 4.9125,5.311998 7.52224,6.6965525 7.59761,4.0307753 13.46024,8.1380838 20.05219,14.0483755 5.59237,5.014078 7.38458,6.186779 10.95,7.164979 4.87302,1.336951 6.4682,1.929332 17.03819,6.327304 7.23036,3.008403 7.75815,3.373345 9.3075,6.43533 2.80298,5.539569 1.6171,11.999842 -2.60333,14.182345 -4.79865,2.481467 -9.49644,2.167888 -27.70696,-1.849448 -6.48559,-1.430748 -6.91175,-1.441071 -10.22,-0.247521 -4.48896,1.61952 -18.47645,2.231216 -26.45809,1.15705 -6.93051,-0.932699 -9.67936,-2.31848 -16.77912,-8.458889 -5.35979,-4.635544 -8.74118,-6.613238 -12.51873,-7.321915 -4.19155,-0.786341 -19.08358,2.303668 -25.108,5.209762 -5.46437,2.635928 -9.55853,3.356518 -25.88327,4.555543 -5.75639,0.422801 -11.49249,1.449452 -18.25,3.266392 -7.3916,1.98744 -11.31479,2.653747 -15.695,2.66561 -8.1511,0.02205 -28.18492,1.916578 -34.31,3.244543 -4.23525,0.918231 -12.35794,1.109805 -47.45,1.119098 l -42.34,0.01124 -12.045,-2.480365 c -7.84919,-1.616344 -13.68137,-3.260465 -16.74256,-4.719815 -6.27738,-2.992599 -11.53022,-4.052836 -15.19295,-3.066562 -3.3537,0.903054 -5.2341,2.751085 -8.06304,7.924208 -2.97497,5.440128 -13.02709,16.110363 -19.67,20.879497 -3.11655,2.237457 -7.8017,5.74145 -10.41145,7.78664 -6.45498,5.058608 -9.96266,6.739199 -20.24329,9.698918 -9.3808,2.700708 -11.37235,3.523345 -13.74408,5.67721 -1.64946,1.49796 -12.89696,7.842317 -21.49263,12.123256 -6.83216,3.402678 -13.33125,4.023248 -17.63667,1.68411 z m -74.04308,-19.65452 c -4.61681,-2.815333 -7.4635,-8.731603 -6.478,-13.463229 0.48728,-2.339548 7.86723,-15.420907 9.14553,-16.210942 0.38155,-0.235812 2.45105,-2.789389 4.59887,-5.674612 4.14248,-5.564687 9.05657,-10.404858 20.09058,-19.788372 10.42456,-8.86523 15.18067,-14.9243833 25.70573,-32.7483845 2.17268,-3.6794045 3.19464,-6.4915835 3.97927,-10.9499995 0.58068,-3.299506 1.05622,-6.194547 1.05677,-6.433425 5.5e-4,-0.238878 1.39442,-2.538378 3.0975,-5.11 l 3.0965,-4.675679 0.006,-8.395 c 0.0104,-14.48366 -5.55021,-35.04749 -12.65371,-46.795416 -5.03188,-8.321825 -9.96154,-12.381914 -23.91638,-19.697654 -10.62714,-5.57121 -11.43668,-6.14878 -14.07455,-10.04157 -5.20084,-7.67503 -6.15998,-10.17322 -6.49063,-16.90536 -0.31864,-6.48794 -0.15388,-7.20081 3.87674,-16.7723 2.76225,-6.55951 3.28052,-17.16626 1.36001,-27.83394 -1.75203,-9.73183 -1.81721,-25.83147 -0.13417,-33.13876 0.64732,-2.8105 1.40715,-7.24525 1.68853,-9.855 0.48993,-4.54414 1.27065,-7.01403 4.9034,-15.5125 1.62923,-3.81142 1.64027,-4.0995 2.0075,-52.3775 0.42489,-55.85847 -0.6404,-48.68479 9.16026,-61.685 11.1589,-14.80184 33.12316,-34.60547 44.99851,-40.57197 5.49095,-2.7588 15.04677,-8.43315 16.83011,-9.9939 0.69828,-0.61112 3.8757,-2.45956 7.06093,-4.10763 7.54764,-3.90524 15.42028,-9.97537 20.87476,-16.09531 9.85207,-11.05402 16.3362,-17.57094 21.36383,-21.47186 13.76082,-10.67694 18.14587,-13.12424 25.28983,-14.11423 2.83569,-0.39297 8.07273,-1.85431 11.63787,-3.24742 3.83074,-1.49689 8.90988,-2.83282 12.41762,-3.26611 10.83399,-1.33826 21.22815,-3.47056 24.92004,-5.1122 2.84659,-1.26577 5.72521,-1.73647 13.1355,-2.14787 5.2195,-0.28977 10.46441,-0.91016 11.65535,-1.37863 1.19096,-0.46848 4.96871,-3.40825 8.395,-6.53285 3.42631,-3.12459 8.38768,-7.03968 11.02526,-8.70019 9.28713,-5.84679 7.55743,-5.56649 36.86424,-5.97385 l 26.32986,-0.36598 5.22963,-2.74106 c 2.8763,-1.50758 8.10986,-3.4125 11.63015,-4.23316 5.9251,-1.38127 17.52367,-6.06646 23.55551,-9.51514 2.80481,-1.60365 4.90537,-2.61012 10.95,-5.24665 2.20825,-0.96319 6.55663,-3.79898 9.66306,-6.30177 5.54956,-4.47117 8.63363,-8.26979 17.6006,-21.67848 3.17376,-4.74586 4.634,-6.24425 7.38131,-7.5742 6.1731,-2.98835 13.73888,-0.56776 16.01637,5.12425 0.92427,2.30997 1.16866,5.74671 1.16866,16.43443 0,15.40966 0.0561,15.18964 -6.22378,24.41678 -8.22778,12.08927 -9.86334,13.99934 -13.03228,15.21956 -1.65491,0.63723 -5.63694,2.5214 -8.84894,4.18704 -3.212,1.66564 -8.1395,3.77444 -10.95,4.68622 -2.8105,0.91178 -6.424,2.4131 -8.03,3.33627 -1.606,0.92316 -5.37063,2.35447 -8.36585,3.18068 -6.19045,1.7076 -9.64705,4.56256 -16.23483,13.40912 -2.63701,3.54116 -4.76738,5.52768 -7.4329,6.93099 -3.47804,1.83108 -4.36743,1.96738 -12.86142,1.97111 -5.01875,0.002 -15.24222,-0.44218 -22.71882,-0.98753 -12.37505,-0.90263 -13.9697,-0.88225 -17.78641,0.2273 -4.4692,1.29922 -16.36167,7.83387 -20.73259,11.39208 -9.96014,8.10821 -22.58579,15.33582 -31.1102,17.8092 -2.40735,0.69849 -6.19699,2.39196 -8.42144,3.76327 -2.22445,1.37131 -6.49495,3.28136 -9.49,4.24457 -2.99505,0.9632 -7.41654,2.57339 -9.82554,3.57819 -2.409,1.00479 -7.22501,2.35287 -10.70224,2.99572 -3.47722,0.64285 -8.07622,1.93757 -10.22,2.87716 -2.14377,0.93957 -8.00401,2.61929 -13.02276,3.7327 -8.15647,1.80951 -10.66578,2.78966 -23.64137,9.23456 -19.19466,9.53386 -28.78735,16.62113 -36.4254,26.91179 -1.63902,2.20825 -5.50801,6.80725 -8.59773,10.22 -6.50637,7.1866 -10.4031,13.03719 -12.84852,19.29089 -0.95364,2.43876 -2.85529,6.25424 -4.22587,8.47884 -1.37059,2.2246 -3.13593,5.67385 -3.92297,7.665 -0.78705,1.99115 -3.72837,8.21927 -6.53627,13.84027 -5.78935,11.58942 -6.33814,13.23288 -7.80058,23.36 -0.5798,4.015 -2.21201,10.93666 -3.62715,15.38148 -2.72388,8.55545 -4.01574,15.61415 -4.06548,22.21352 -0.0341,4.52339 -2.01499,14.16289 -4.30816,20.96447 -1.35149,4.00852 -1.5305,6.24563 -1.5305,19.12657 0,15.64527 0.50952,19.46199 3.66345,27.44193 1.11254,2.81488 2.56977,8.03702 3.23831,11.60476 0.66853,3.56774 2.17795,8.39337 3.35426,10.72363 1.17631,2.33026 2.82851,6.75104 3.67156,9.82397 0.87426,3.18671 2.75934,7.48482 4.38762,10.00408 1.57014,2.42932 2.8548,4.82576 2.8548,5.32541 0,0.49966 1.18442,2.6661 2.63206,4.81432 1.44763,2.14822 3.45749,5.53199 4.46635,7.51949 1.00886,1.9875 2.60686,4.78107 3.55111,6.20794 0.94426,1.42687 2.56219,4.67474 3.59541,7.21749 1.03321,2.54275 2.66952,5.82643 3.63624,7.29707 0.96674,1.47063 2.47291,4.553919 3.34707,6.851755 1.00794,2.64952 3.46202,6.388237 6.70838,10.22 8.95388,10.568538 9.30646,14.098614 2.38027,23.831711 -1.32304,1.859223 -3.30953,5.187154 -4.41442,7.395404 -2.32356,4.643932 -5.45823,9.401298 -8.81462,13.3776 -1.29648,1.535928 -2.57444,3.671178 -2.8399,4.745 -0.26547,1.073823 -1.79757,5.22272 -3.40468,9.219776 -2.1936,5.455758 -3.1633,9.221156 -3.88999,15.105007 -0.83096,6.728118 -1.39152,8.6445359 -3.9598,13.5376237 -6.4341,12.2582473 -8.88536,18.8497383 -9.60822,25.8367003 -0.7121,6.882827 -1.16944,8.240225 -4.099,12.165778 -2.34281,3.139314 -12.27592,10.558611 -17.96162,13.416006 -2.4968,1.25479 -5.4822,2.947098 -6.63423,3.76069 -1.15202,0.813592 -4.6351,2.332357 -7.74018,3.375038 -7.90471,2.65439 -16.86332,7.717129 -22.49988,12.715257 -7.95769,7.056399 -13.16779,8.69284 -18.1001,5.685167 z M 780.52206,8.8214478 c -1.53468,-0.7632953 -3.23689,-2.6588863 -4.71084,-5.2458092 -1.26932,-2.2278505 -4.45847,-6.2385362 -7.08706,-8.9126284 -4.22151,-4.2946995 -5.37535,-5.0390222 -9.88916,-6.3792432 -2.8105,-0.834493 -6.0955,-2.193994 -7.3,-3.02112 -1.2045,-0.827127 -4.18188,-2.424965 -6.61636,-3.550742 -4.00317,-1.851192 -4.58345,-2.411986 -6.06922,-5.865878 -1.0958,-2.547189 -1.8466,-6.290367 -2.25467,-11.240015 -0.33646,-4.081554 -0.97236,-8.345769 -1.41321,-9.476035 -1.21457,-3.1141 -0.93798,-7.070619 0.74956,-10.719977 0.83542,-1.80675 2.14591,-5.071646 2.91205,-7.255331 0.76621,-2.183678 2.39688,-5.749028 3.62379,-7.922997 1.27122,-2.252488 2.85634,-6.818952 3.68511,-10.616346 0.81454,-3.731935 2.39396,-8.305845 3.58992,-10.396215 1.17457,-2.052898 2.78977,-5.850577 3.58934,-8.439301 1.81026,-5.86103 4.45621,-9.89007 11.70986,-17.83104 9.79974,-10.72831 9.67921,-10.46487 10.26957,-22.4536 0.54888,-11.14584 0.52078,-11.01268 3.77117,-17.87521 1.19961,-2.53278 2.79247,-7.40252 3.53963,-10.82164 0.87607,-4.00885 2.25986,-7.70041 3.89659,-10.39476 1.39598,-2.29801 2.87518,-5.64077 3.28719,-7.42837 0.96711,-4.19677 0.99039,-35.0945 0.0343,-45.894 -0.62991,-7.11671 -1.12785,-9.19565 -3.40932,-14.235 l -2.67172,-5.90119 -0.93119,-16.79 c -0.95287,-17.18015 -2.05897,-24.27289 -4.71135,-30.21104 -0.82767,-1.85293 -2.14167,-6.32546 -2.92007,-9.93896 -1.46445,-6.79869 -5.08723,-14.10065 -10.54003,-21.24417 -1.38759,-1.81784 -3.06097,-5.17281 -3.7187,-7.45549 -0.65773,-2.28269 -2.44148,-6.44984 -3.9639,-9.26034 -1.52241,-2.8105 -3.15447,-6.57779 -3.62686,-8.37175 -0.47238,-1.79396 -2.02231,-5.57171 -3.44443,-8.395 -1.42211,-2.82329 -3.17017,-6.83172 -3.88469,-8.90763 -0.7192,-2.08974 -3.36194,-6.41835 -5.92081,-9.69807 -2.54201,-3.25803 -6.30239,-8.22984 -8.35646,-11.04846 -5.15956,-7.08026 -7.11713,-9.02014 -13.42039,-13.29912 -7.24935,-4.92123 -18.66981,-9.65235 -28.60356,-11.84951 -5.25946,-1.16329 -9.4928,-2.60244 -12.17691,-4.1396 -2.26299,-1.296 -5.61149,-3.10327 -7.44111,-4.01617 -1.82961,-0.91291 -4.08189,-2.68146 -5.00507,-3.93012 -2.87526,-3.88901 -7.06715,-5.18061 -18.73435,-5.77241 -9.43612,-0.47863 -10.64984,-0.70181 -14.13609,-2.59926 -7.06948,-3.8477 -9.31865,-8.52536 -7.00821,-14.57516 0.68145,-1.78436 2.14814,-3.89165 3.25929,-4.68286 1.96137,-1.39661 11.99207,-6.39992 17.99364,-8.9752 4.09842,-1.75864 10.8974,-9.63746 13.24235,-15.34557 4.17957,-10.17393 5.38186,-16.20905 6.05727,-30.40561 0.61432,-12.91241 0.72793,-13.62115 2.88612,-18.00505 3.75615,-7.62982 9.62316,-11.28167 16.38725,-10.20005 4.34855,0.69536 7.23199,2.83921 9.59748,7.13577 l 2.12009,3.85083 0.43332,18.98 c 0.36538,16.00444 0.65124,19.60944 1.8234,22.995 1.78366,5.1517 5.66578,9.03168 12.73509,12.72802 7.09201,3.70821 12.46768,8.90068 20.2767,19.58569 6.09484,8.33945 6.51466,8.74246 11.64284,11.17597 5.64159,2.67718 11.36887,6.15441 17.35546,10.53711 2.0075,1.46967 5.29885,3.33367 7.31409,4.14222 4.31444,1.73103 12.93465,7.24283 16.04591,10.2598 3.35019,3.24865 9.11208,10.92561 12.18895,16.24015 1.87034,3.23057 3.24661,6.98055 4.25123,11.5835 0.81702,3.74354 2.28512,8.3844 3.26245,10.31301 1.90048,3.75039 3.61934,13.30646 4.40138,24.46953 0.32201,4.59671 1.20392,8.76255 2.93628,13.87 1.36174,4.015 3.17156,11.242 4.02172,16.06 0.96287,5.45646 2.44586,10.82472 3.93258,14.235 1.31276,3.01125 2.79999,7.28175 3.30508,9.49 0.50501,2.20825 2.01451,6.48278 3.35435,9.49896 4.18078,9.41149 5.43098,20.48758 5.43098,48.11604 0,19.11829 -0.2493,24.84716 -1.44861,33.29104 -1.25582,8.8419 -1.45008,14.23306 -1.46,40.51737 -0.0124,33.12919 0.14724,31.6134 -4.72719,44.87159 -2.10175,5.71654 -3.99529,9.12097 -8.72963,15.695 -3.32508,4.61725 -7.42053,11.03407 -9.10099,14.259608 -2.80327,5.380976 -3.10972,6.524791 -3.71606,13.87 -0.69927,8.470723 -1.5003,11.405747 -4.86567,17.827586 l -2.08685,3.982194 -0.22608,25.029918 c -0.18812,20.827368 -0.035,25.776133 0.9125,29.4742687 0.62619,2.4443904 1.13135,5.649689 1.12252,7.1228874 -0.0234,3.8814173 -2.38907,8.5798068 -5.00036,9.9301243 -2.82896,1.4629496 -8.53158,1.3917306 -11.62152,-0.1451386 z" />
    </g>
    <g
       inkscape:groupmode="layer"
       id="layer6"
       inkscape:label="Mountains"
       style="display:inline">
      <path
         transform="translate(0,652.00001)"
         style="display:inline;fill:url(#radialGradient6338);stroke:#000000;stroke-width:1;stroke-miterlimit:4;stroke-dasharray:none;stroke-opacity:1;fill-opacity:1"
         d="m 352.04105,-79.928653 c -3.05712,-3.677272 -11.28967,-13.336917 -16.12889,-18.924775 -1.74505,-2.015022 -3.81939,-5.177462 -4.60964,-7.027632 -0.79025,-1.85017 -2.37625,-4.84219 -3.52446,-6.64894 -1.14821,-1.80675 -3.13172,-6.40575 -4.4078,-10.22 -1.27608,-3.81425 -3.98116,-10.05575 -6.01129,-13.87 -10.57936,-19.87679 -13.04184,-25.24693 -14.05912,-30.66 -1.2885,-6.8563 -1.487,-67.99747 -0.29057,-89.50121 l 0.78929,-14.18599 5.81574,-17.3239 c 3.19865,-9.52814 6.49493,-19.6234 7.32506,-22.4339 2.65536,-8.99004 9.8867,-21.16066 21.73704,-36.58429 4.81023,-6.26067 15.3598,-16.16487 20.57388,-19.31526 2.71322,-1.63936 7.43176,-3.91279 10.48564,-5.05207 3.05389,-1.13928 5.94774,-2.36801 6.4308,-2.73051 0.48305,-0.36249 3.37356,-2.69178 6.42335,-5.17619 3.78299,-3.08168 7.4946,-5.30519 11.68,-6.99713 9.65099,-3.90139 19.3151,-8.2649 23.48124,-10.60216 2.10303,-1.17982 5.46618,-2.54126 7.47368,-3.02541 2.0075,-0.48416 4.79975,-1.44828 6.205,-2.1425 6.10847,-3.0177 15.8519,-8.30464 17.64046,-9.57201 1.07001,-0.7582 4.19076,-2.30268 6.935,-3.43217 2.74425,-1.1295 6.24218,-2.91675 7.7732,-3.97166 1.54276,-1.06301 4.30882,-2.11267 6.205,-2.35468 9.61008,-1.22648 13.14528,-2.11222 17.81372,-4.46322 4.20943,-2.11983 6.54351,-2.73585 13.59478,-3.58798 4.68206,-0.56581 9.66259,-1.33977 11.06784,-1.71991 1.40525,-0.38015 13.7238,-0.91517 27.37454,-1.18894 13.65075,-0.27377 25.10287,-0.67286 25.44914,-0.88688 l 17.53081,2.54052 c 2.05728,0.46297 6.49176,1.20633 9.85439,1.65192 3.36264,0.44559 9.67754,1.92748 14.03311,3.2931 4.35557,1.36561 10.14532,2.86478 12.86611,3.33147 2.72079,0.46669 7.5749,1.922 10.7869,3.23401 3.212,1.312 8.468,2.91123 11.68,3.55382 7.20308,1.44105 14.80227,5.17894 21.11523,10.38617 6.50201,5.36316 12.90211,9.416 17.71028,11.21497 5.67609,2.1237 7.38288,3.08554 15.38293,8.66889 3.91136,2.72979 9.04502,5.84297 11.40815,6.91816 5.46794,2.48785 15.07681,11.79616 21.61841,20.9422 2.60975,3.64878 6.2377,8.66895 8.06219,11.15594 6.27932,8.55976 9.96874,15.78974 11.22908,22.00533 0.64729,3.19195 2.46368,8.6122 4.03654,12.045 1.57286,3.43281 3.09695,7.22697 3.38683,8.43147 0.28996,1.2045 1.58272,4.66675 2.87284,7.69389 3.14025,7.36831 3.9915,11.76055 3.99807,20.62954 0.007,9.23012 0.92703,15.24249 3.48589,22.77657 l 1.98356,5.84 v 22.265 c 0,22.00771 -0.0226,22.34514 -1.97582,29.2 -1.08668,3.81425 -2.50039,10.01675 -3.14155,13.78333 -0.76001,4.46437 -2.00604,8.53029 -3.57963,11.68 -1.32758,2.65742 -2.97198,6.53556 -3.65423,8.61808 -1.83172,5.59099 -6.30991,12.04774 -14.36005,20.70467 -6.44474,6.93038 -7.63135,8.66369 -11.81377,17.25652 -2.5572,5.25376 -6.80488,12.79231 -9.43927,16.75234 -2.6344,3.96004 -5.85184,9.00681 -7.14988,11.21506 -4.36579,7.427159 -8.35622,12.573622 -15.61951,20.144496 l -7.2237,7.529614 c -2.14942,2.373215 -4.1251,4.8254 -7.60816,6.592415 L 673.78087,-56.32 c -1.11793,0 -3.95484,1.03771 -6.30424,2.306019 -2.34939,1.268309 -5.42138,2.823779 -6.82663,3.456594 -1.40525,0.632822 -5.30075,2.556774 -8.65666,4.275456 -4.68225,2.397948 -7.7139,3.384317 -13.03227,4.240125 -4.56195,0.734088 -8.71386,1.961751 -12.14834,3.592082 -3.72324,1.76741 -7.72681,2.895581 -13.97773,3.938803 -5.31929,0.887738 -11.46514,2.507579 -15.64725,4.124105 -3.78799,1.464183 -11.01499,3.615559 -16.06,4.780829 l -9.17275,2.118679 -38.34125,0.0086 -38.34125,0.0087 -8.74375,-1.898044 c -7.53735,-1.636163 -11.3121,-1.970328 -27.35875,-2.421935 -18.46643,-0.519709 -18.69074,-0.54515 -28.105,-3.187925 -5.2195,-1.46522 -12.89828,-3.174106 -17.06396,-3.797526 -6.58612,-0.985653 -8.77597,-1.718296 -16.79,-5.617321 -11.39948,-5.546131 -17.94163,-9.981647 -24.52646,-16.628721 z"
         id="path6251"
         inkscape:connector-curvature="0" />
      <path
         style="display:inline;fill:#888888;fill-opacity:1;stroke:#000000;stroke-width:0;stroke-miterlimit:4;stroke-dasharray:none;stroke-opacity:1"
         d="m 380.34463,549.11983 c -2.58488,-3.10926 -9.54573,-11.27676 -13.63743,-16.00146 -1.47549,-1.70375 -3.2294,-4.37768 -3.89759,-5.94206 -0.66818,-1.56435 -2.00918,-4.09421 -2.98002,-5.62185 -0.97085,-1.52767 -2.64796,-5.41624 -3.72692,-8.64131 -1.07896,-3.22506 -3.36618,-8.50242 -5.08272,-11.72748 -8.94515,-16.80638 -11.02724,-21.34699 -11.88738,-25.9239 -1.08947,-5.79719 -1.25731,-57.49378 -0.24569,-75.6758 l 0.66737,-11.99466 4.91737,-14.64785 c 2.70455,-8.05631 5.49165,-16.59214 6.19355,-18.96849 2.24518,-7.60134 8.35948,-17.89194 18.37928,-30.93306 4.06719,-5.29357 12.98714,-13.66785 17.3958,-16.3316 2.2941,-1.38612 6.28376,-3.30837 8.86591,-4.27166 2.58215,-0.9633 5.02898,-2.00222 5.43741,-2.30873 0.40844,-0.30649 2.85245,-2.27597 5.43113,-4.37661 3.19863,-2.60565 6.3369,-4.48569 9.87577,-5.91627 8.16018,-3.29874 16.33146,-6.98821 19.85405,-8.96443 1.77817,-0.99757 4.62181,-2.14871 6.31921,-2.55807 1.6974,-0.40937 4.05832,-1.22456 5.2465,-1.81155 5.16489,-2.55155 13.40323,-7.0218 14.91551,-8.0934 0.90473,-0.64108 3.54341,-1.94698 5.86374,-2.902 2.32035,-0.95502 5.27794,-2.46619 6.57246,-3.35815 1.30445,-0.8988 3.64324,-1.78632 5.2465,-1.99095 8.1256,-1.03702 11.11471,-1.78594 15.06202,-3.77378 3.55918,-1.79237 5.53271,-2.31323 11.49476,-3.03373 3.95882,-0.47841 8.17,-1.13282 9.35818,-1.45424 1.18817,-0.32143 11.60385,-0.7738 23.14595,-1.00528 11.54209,-0.23148 21.22519,-0.56892 21.51797,-0.74988 l 14.82279,2.14808 c 1.73948,0.39145 5.48898,1.01999 8.33216,1.39674 2.84322,0.37676 8.18263,1.62974 11.86539,2.78441 3.68276,1.15467 8.57815,2.42226 10.87868,2.81686 2.3005,0.3946 6.40478,1.6251 9.12061,2.73444 2.71585,1.10934 7.15994,2.46153 9.87577,3.00486 6.09043,1.21845 12.51574,4.37894 17.85353,8.7818 5.49763,4.5347 10.90911,7.96149 14.97455,9.48257 4.79929,1.79565 6.24243,2.60892 13.00669,7.3298 3.30718,2.30811 7.64782,4.94039 9.64592,5.8495 4.62331,2.10354 12.74788,9.97398 18.27898,17.70722 2.20661,3.08515 5.27416,7.32984 6.81681,9.43266 5.30934,7.23752 8.42886,13.35068 9.49451,18.60613 0.54729,2.69889 2.0831,7.28186 3.413,10.18439 1.32991,2.90254 2.61856,6.11061 2.86366,7.12905 0.24517,1.01844 1.33825,3.94587 2.42908,6.5054 2.65518,6.23011 3.37492,9.94388 3.38047,17.44286 0.006,7.80433 0.78385,12.88796 2.94742,19.25824 l 1.67717,4.93788 v 18.82569 c 0,18.60814 -0.0193,18.89345 -1.67062,24.68943 -0.91881,3.22505 -2.11415,8.46944 -2.65628,11.65419 -0.64261,3.77475 -1.69616,7.2126 -3.02667,9.87577 -1.1225,2.24692 -2.5129,5.52601 -3.08976,7.28683 -1.54876,4.72734 -5.33519,10.18672 -12.14183,17.50639 -5.44919,5.85982 -6.45252,7.32538 -9.98886,14.59088 -2.16218,4.4422 -5.75373,10.81626 -7.98118,14.16457 -2.22746,3.34833 -4.94789,7.61551 -6.04543,9.48264 -3.69139,6.27989 -7.06541,10.63137 -13.20672,17.03275 l -6.10785,6.36651 c -1.8174,2.00661 -3.48791,4.08 -6.43293,5.57407 l -7.59162,4.35741 c -0.94523,0 -3.34393,0.87742 -5.3304,1.94981 -1.98649,1.07239 -4.58395,2.38757 -5.77213,2.92265 -1.18818,0.53506 -4.48192,2.16183 -7.31945,3.61502 -3.95898,2.02753 -6.52232,2.86153 -11.01915,3.58512 -3.85725,0.6207 -7.36782,1.65873 -10.27177,3.03722 -3.1481,1.4944 -6.53323,2.44829 -11.81856,3.33037 -4.49761,0.75062 -9.6941,2.12023 -13.23019,3.48706 -3.20285,1.23799 -9.3135,3.05705 -13.57918,4.04232 l -7.75583,1.79141 -32.41861,0.007 -32.41862,0.008 -7.39308,-1.60485 c -6.37305,-1.38344 -9.56471,-1.66599 -23.1326,-2.04782 -15.61389,-0.43944 -15.80354,-0.46094 -23.76358,-2.6955 -4.41323,-1.23887 -10.90585,-2.68379 -14.42806,-3.2109 -5.56875,-0.83339 -7.42033,-1.45288 -14.19641,-4.74959 -9.63858,-4.68943 -15.17016,-8.43979 -20.73782,-14.06006 z"
         id="path6251-5"
         inkscape:connector-curvature="0" />
    </g>
    <g
       inkscape:groupmode="layer"
       id="layer7"
       inkscape:label="Forest Pattern"
       style="display:none">
      <path
         style="display:inline;opacity:1;fill:none;stroke:#000000;stroke-width:1;stroke-linecap:butt;stroke-linejoin:miter;stroke-miterlimit:4;stroke-dasharray:none;stroke-opacity:1;enable-background:new"
         d="m 419.18986,468.62134 c 8.3612,-7.5347 14.8574,-6.9935 22.5091,0"
         id="path5053"
         inkscape:connector-curvature="0"
         sodipodi:nodetypes="cc" />
    </g>
  </g>
</svg>
