<?xml version="1.0" encoding="UTF-8" standalone="no"?>
<!-- Created with Inkscape (http://www.inkscape.org/) -->

<svg
   xmlns:dc="http://purl.org/dc/elements/1.1/"
   xmlns:cc="http://creativecommons.org/ns#"
   xmlns:rdf="http://www.w3.org/1999/02/22-rdf-syntax-ns#"
   xmlns:svg="http://www.w3.org/2000/svg"
   xmlns="http://www.w3.org/2000/svg"
   xmlns:xlink="http://www.w3.org/1999/xlink"
   xmlns:sodipodi="http://sodipodi.sourceforge.net/DTD/sodipodi-0.dtd"
   xmlns:inkscape="http://www.inkscape.org/namespaces/inkscape"
   width="661.45831mm"
   height="661.45831mm"
   viewBox="0 0 661.45831 661.45831"
   version="1.1"
   id="svg8"
   inkscape:version="0.92.4 (5da689c313, 2019-01-14)"
   sodipodi:docname="Lagos.svg"
   enable-background="new"
   inkscape:export-filename="C:\Information\Misc, Other\Let's Do A Science\Maps\Lagos-Regions.png"
   inkscape:export-xdpi="96"
   inkscape:export-ydpi="96">
  <defs
     id="defs2">
    <marker
       inkscape:isstock="true"
       style="overflow:visible"
       id="marker6671"
       refX="0.0"
       refY="0.0"
       orient="auto"
       inkscape:stockid="Arrow1Lstart">
      <path
         transform="scale(0.8) translate(12.5,0)"
         style="fill-rule:evenodd;stroke:#000000;stroke-width:1pt;stroke-opacity:1;fill:#000000;fill-opacity:1"
         d="M 0.0,0.0 L 5.0,-5.0 L -12.5,0.0 L 5.0,5.0 L 0.0,0.0 z "
         id="path6669" />
    </marker>
  </defs>
  <sodipodi:namedview
     id="base"
     pagecolor="#ffffff"
     bordercolor="#666666"
     borderopacity="1.0"
     inkscape:pageopacity="0.0"
     inkscape:pageshadow="2"
     inkscape:zoom="0.35355339"
     inkscape:cx="1679.6536"
     inkscape:cy="1116.244"
     inkscape:document-units="mm"
     inkscape:current-layer="layer11"
     showgrid="false"
     inkscape:window-width="1920"
     inkscape:window-height="1017"
     inkscape:window-x="1912"
     inkscape:window-y="-8"
     inkscape:window-maximized="1"
     fit-margin-top="-0.7"
     fit-margin-left="0"
     fit-margin-right="0"
     fit-margin-bottom="0" />
  <metadata
     id="metadata5">
    <rdf:RDF>
      <cc:Work
         rdf:about="">
        <dc:format>image/svg+xml</dc:format>
        <dc:type
           rdf:resource="http://purl.org/dc/dcmitype/StillImage" />
        <dc:title />
      </cc:Work>
    </rdf:RDF>
  </metadata>
  <g
     inkscape:label="Reference"
     inkscape:groupmode="layer"
     id="layer1"
     style="display:none;opacity:1"
     transform="translate(182.56248,104.03273)">
    <image
       sodipodi:absref="C:\Information\Misc, Other\Let's Do A Science\Maps\MapPhotoReal_Unlabeled.png"
       xlink:href="MapPhotoReal_Unlabeled.png"
       width="661.45831"
       height="661.45831"
       preserveAspectRatio="none"
       id="image827"
       x="-182.56248"
       y="-104.03273" />
  </g>
  <g
     inkscape:groupmode="layer"
     id="layer7"
     inkscape:label="Landmasses"
     style="display:none;opacity:1">
    <g
       inkscape:groupmode="layer"
       id="layer9"
       inkscape:label="Sky Island"
       style="display:inline"
       sodipodi:insensitive="true">
      <path
         style="fill:#57a316;fill-opacity:1;stroke:#000000;stroke-width:0.26499999;stroke-linecap:butt;stroke-linejoin:round;stroke-miterlimit:4;stroke-dasharray:none;stroke-opacity:1"
         d="m 418.2137,135.6478 c -0.0331,-1.77007 0.32422,-3.86248 0.68214,-5.91282 0.36191,-2.07319 1.45149,-3.9918 2.43004,-5.49159 1.9571,-2.99958 4.91375,-5.38648 7.82188,-7.17325 2.83437,-1.74146 6.52699,-2.29888 9.95632,-2.51581 1.13955,-0.0721 8.38794,-0.19474 10.24282,0.0706 3.44685,0.49307 11.55535,2.72335 15.60757,6.64664 2.33474,2.26046 3.74389,4.43946 4.10354,8.72136 0.22574,2.68764 0.10459,5.39635 -0.14606,8.10837 -0.25065,2.71202 -0.63079,5.42735 -1.45755,7.99461 -1.38152,4.28989 -3.70993,8.91361 -8.85417,10.8939 -2.78805,1.07327 -5.84464,0.82273 -9.63186,0.73937 -3.78723,-0.0833 -7.9318,-0.23414 -10.8635,-0.80885 -2.65308,-0.52009 -5.31284,-1.19898 -7.58889,-2.35216 -2.27604,-1.15318 -4.45235,-2.99781 -6.2006,-5.08344 -3.41609,-4.07533 -6.01988,-9.45262 -6.10168,-13.83688 z"
         id="path5265"
         inkscape:connector-curvature="0"
         sodipodi:nodetypes="csssssssssssssssc" />
    </g>
    <g
       inkscape:groupmode="layer"
       id="layer8"
       inkscape:label="Firelake"
       sodipodi:insensitive="true">
      <path
         style="fill:#57a316;fill-opacity:1;stroke:#000000;stroke-width:0.26458332px;stroke-linecap:butt;stroke-linejoin:miter;stroke-opacity:1"
         d="m 27.656663,95.954864 c 0.325244,4.913436 3.137942,9.664656 6.78984,12.895766 3.651898,3.2311 8.122925,5.19233 11.9881,5.39459 6.643291,0.34764 10.703501,-2.1475 14.423872,-4.58914 2.680267,-1.75903 4.336171,-4.69354 6.760714,-6.79106 3.356131,-2.903458 7.601972,-4.699663 10.824416,-7.750816 1.990329,-1.884532 4.15843,-3.366459 5.936638,-5.511577 1.778209,-2.145118 3.166526,-4.953428 4.164252,-7.50635 1.056473,-2.703239 2.001088,-5.323236 2.155864,-8.208719 0.154776,-2.885483 -0.480288,-6.036452 -1.165764,-8.856693 -0.972516,-4.001204 -5.561623,-9.893289 -6.272728,-10.604394 -3.037428,-3.037428 -11.640564,-7.863254 -18.535394,-8.607282 -2.906255,-0.313617 -5.822466,0.06126 -8.721693,0.728848 -2.899227,0.667587 -5.78147,1.627883 -8.430805,2.863077 -4.471941,2.084944 -7.234323,6.006907 -9.566348,10.007092 -0.973692,1.6702 -1.645373,3.712935 -2.5626,5.424096 -0.870685,1.624333 -1.421361,3.404896 -1.776477,5.038555 -0.785571,3.613906 -1.087891,7.324335 -1.890804,10.934428 -1.07434,4.830493 -4.58712,8.099201 -4.121083,15.139579 z"
         id="path5267"
         inkscape:connector-curvature="0"
         sodipodi:nodetypes="sssssssssssssssssss" />
    </g>
    <g
       inkscape:groupmode="layer"
       id="layer2"
       inkscape:label="Mainland"
       style="display:inline"
       transform="translate(182.56248,104.03273)"
       sodipodi:insensitive="true">
      <path
         style="fill:#57a316;fill-opacity:1;stroke:#000000;stroke-width:0.26499999;stroke-linecap:butt;stroke-linejoin:round;stroke-miterlimit:4;stroke-dasharray:none;stroke-opacity:1"
         d="m 58.264755,257.44411 c -5.687762,-0.39549 -12.839628,-2.8936 -21.077352,-9.51875 -4.118865,-3.31258 -7.580274,-8.56408 -13.07647,-13.73492 -5.606707,-5.2748 -13.138496,-13.2282 -16.5477141,-21.01858 -2.2793284,-8.60692 -2.5429477,-14.80555 -1.9787944,-20.61362 0.6201818,-6.3849 1.5362667,-12.09983 4.195232,-16.80412 5.4878205,-11.07333 3.5957855,-18.21479 2.5147415,-25.48509 -1.686476,-11.06314 -2.279852,-19.80017 1.295894,-24.95593 4.09084,-5.89846 9.186208,-9.11503 12.86939,-12.46181 3.708537,-4.63177 7.709438,-9.01344 11.353866,-12.68067 4.101918,-3.737342 7.091911,-6.867072 9.225889,-10.304506 C 53.460292,77.215357 60.321378,64.564599 68.688267,51.913842 74.055369,38.276273 78.402453,21.758651 86.595325,16.099726 100.20373,9.3200753 116.72824,2.6099274 167.97889,5.8098495 c 20.65577,3.8858794 29.09416,12.3532785 35.68049,21.5151975 6.93164,11.162825 14.99091,23.49087 16.83798,29.399648 2.10064,5.321045 3.74415,11.060234 4.41545,18.173266 0.7485,7.930977 1.03726,16.227705 0.86787,25.658929 0.12483,7.89454 -1.47003,21.12469 1.76411,29.2243 0.38864,2.37254 4.2533,6.27629 8.26983,9.00716 3.94638,2.68318 6.93419,5.76127 9.80607,10.4116 3.8059,5.33641 7.42054,10.90345 10.12913,17.33358 2.69841,6.40598 4.13633,13.49311 5.37251,22.22231 4.81148,16.78984 12.92078,31.04879 25.39059,41.96131 7.67097,6.04963 19.5532,3.56792 29.53331,3.60815 20.72129,0.24696 41.04944,5.48686 60.00198,28.19693 5.3064,6.44948 10.50025,10.68542 16.83798,37.41774 23.10977,18.30815 37.10206,35.76816 44.9013,52.65208 6.073,11.98694 8.34971,27.48896 4.81084,48.37578 0.60675,12.22353 -2.04326,23.0513 -6.41445,33.14142 -4.31269,6.02174 -7.1862,13.48264 -10.15625,20.84702 -8.24392,15.49646 -18.9655,17.98524 -29.66693,20.57977 -9.29046,0.0279 -17.85199,1.56395 -23.51971,9.08717 -9.03085,10.91201 -22.32326,15.53817 -38.19653,17.61761 -8.35526,1.5678 -18.76121,3.16249 -27.44128,2.04392 -7.82963,-1.21305 -12.42147,-3.53296 -19.3539,-6.29806 -4.34439,-3.78285 -13.51852,-10.79956 -21.10366,-10.84163 -7.0615,-0.69661 -11.9707,4.87729 -24.06489,9.77255 -9.43771,3.58972 -13.31428,4.94676 -28.4477,5.94414 -14.38334,1.32554 -41.51396,1.63934 -62.22013,-0.12629 -21.45131,-5.04991 -43.90158,-11.84798 -67.870247,-21.30327 -4.947389,-2.03891 -10.261795,-3.46845 -14.783252,-6.21457 -3.14944,-2.23162 -7.159824,-6.87842 -9.505848,-14.39762 -3.691155,-9.95193 -9.197025,-19.39928 -8.003266,-30.18522 0.189412,-17.14795 4.793573,-29.62887 17.430985,-33.6175 23.059596,-7.76141 25.310711,-24.05052 17.64814,-37.8103 -7.062072,-23.19782 -7.661089,-47.00759 -3.975632,-57.21238 3.605221,-6.26008 2.880021,-10.37241 1.479311,-16.21206 -1.342399,-5.59656 -3.44292,-10.24709 -6.487718,-15.53824 -4.399788,-6.96247 -11.306195,-10.79721 -19.680618,-12.80018 z"
         id="path830"
         inkscape:connector-curvature="0"
         sodipodi:nodetypes="csscsccsccccccccsccscscccccccccccccccccccccccccscc" />
    </g>
    <g
       inkscape:groupmode="layer"
       id="layer6"
       inkscape:label="Verdant Isle"
       style="display:inline"
       sodipodi:insensitive="true">
      <path
         style="fill:#57a316;fill-opacity:1;stroke:#000000;stroke-width:0.26499999;stroke-linecap:butt;stroke-linejoin:round;stroke-miterlimit:4;stroke-dasharray:none;stroke-opacity:1"
         d="m 113.57472,421.12824 c -0.34342,-2.23569 -0.22186,-4.44258 -0.15737,-6.63783 0.0645,-2.19526 0.1554,-4.39556 0.24513,-6.58466 0.17947,-4.37819 -0.17486,-8.73801 0.36108,-13.01374 0.65427,-5.21976 2.25404,-10.10649 4.16626,-14.57853 0.9561,-2.23602 2.22418,-4.33497 3.49124,-6.35344 1.26706,-2.01848 2.53309,-3.95648 4.42055,-5.737 2.28782,-2.1582 4.44735,-3.42955 6.51885,-4.55165 2.07151,-1.1221 3.84236,-2.02407 5.87256,-2.6403 4.06039,-1.23246 8.14231,-2.03066 11.95366,-2.34218 2.87304,-0.23483 6.67934,0.85631 10.38319,1.99382 3.17657,0.97558 6.73415,1.79462 8.29323,2.52874 3.49458,1.6455 6.22673,4.26414 8.97693,7.53593 3.03026,4.63652 6.14723,7.48994 9.39319,9.2458 3.24595,1.75587 6.62089,2.41416 9.88359,3.60538 4.15303,1.51628 9.09031,4.24865 13.16526,7.39637 4.07496,3.14773 7.23415,6.84988 9.65505,13.65218 2.7577,7.98141 2.87172,19.41816 -2.19698,29.29315 -1.1508,2.24202 -2.47465,4.02098 -3.89487,5.7683 -1.42023,1.74733 -3.05494,3.3449 -4.6857,4.79894 -1.63076,1.45405 -3.1867,2.83543 -4.9691,4.19761 -1.78241,1.36218 -3.76765,3.08313 -5.90267,4.38948 -4.44866,2.72201 -10.41539,5.90587 -15.34509,7.04414 -1.70978,0.39479 -3.75854,1.07615 -6.07859,1.44185 -2.05897,0.32454 -3.71315,1.02587 -5.94491,1.54856 -2.01605,0.47217 -6.35094,0.56694 -9.53144,0.50338 -3.1805,-0.0636 -5.20661,-0.28547 -7.32978,-0.87187 -4.93141,-1.362 -9.50049,-4.25398 -14.21603,-6.30144 -2.54253,-1.10395 -4.89441,-2.32526 -7.16949,-3.84498 -2.27507,-1.51973 -4.8613,-2.9544 -6.61419,-5.11576 -3.28976,-4.05636 -5.61295,-8.58161 -7.82708,-12.98983 -2.21413,-4.40823 -4.20109,-8.72306 -4.91648,-13.38042 z"
         id="path5254"
         inkscape:connector-curvature="0"
         sodipodi:nodetypes="sssssssssssscssscsssssssssssssss" />
    </g>
  </g>
  <g
     inkscape:label="Regions"
     id="g5285"
     inkscape:groupmode="layer"
     style="display:inline;opacity:1">
    <g
       style="display:inline"
       inkscape:label="Mainland"
       id="g6667"
       inkscape:groupmode="layer">
      <g
         inkscape:label="Moonfire"
         id="g6665"
         inkscape:groupmode="layer"
         style="display:inline;opacity:1">
        <path
           style="opacity:1;fill:#04e104;fill-opacity:1;fill-rule:nonzero;stroke:#010200;stroke-width:1.88976383;stroke-linejoin:round;stroke-miterlimit:4;stroke-dasharray:none;stroke-opacity:1"
           d="m 1228.9727,412.05469 c -9.2945,0.0403 -18.1641,0.19944 -26.6387,0.46875 -8.4746,0.26931 -16.5542,0.6487 -24.2676,1.1289 -7.7134,0.48021 -15.0614,1.06143 -22.0723,1.73438 -7.0108,0.67294 -13.6837,1.43763 -20.0507,2.28516 -6.3671,0.84752 -12.4271,1.77926 -18.209,2.7832 -5.782,1.00394 -11.2874,2.08046 -16.543,3.22265 -5.2556,1.1422 -10.2609,2.34904 -15.0488,3.61133 -4.7879,1.26229 -9.3574,2.58109 -13.7364,3.94532 -4.3789,1.36422 -8.569,2.77465 -12.5976,4.22265 -8.0573,2.896 -15.4721,5.94037 -22.4805,9.0625 -7.0084,3.12213 -13.6099,6.32045 -20.039,9.52344 -1.9354,1.33675 -3.8144,2.83576 -5.6407,4.48047 -1.8262,1.6447 -3.6,3.43597 -5.3261,5.36328 -1.7262,1.9273 -3.404,3.98928 -5.0391,6.17383 -1.63506,2.18455 -3.22636,4.49176 -4.77929,6.9082 -3.10587,4.83288 -6.05744,10.10458 -8.88868,15.71289 -2.83123,5.60832 -5.54343,11.55346 -8.17187,17.73438 -2.62844,6.18091 -5.17244,12.59776 -7.66992,19.14843 -2.49749,6.55068 -4.94836,13.23553 -7.38672,19.95313 -4.87673,13.4352 -9.70607,27.00082 -14.77734,39.88672 -7.90573,11.95347 -15.45565,23.90785 -22.7129,35.86132 -7.25724,11.95348 -14.2224,23.90591 -20.95703,35.85938 -6.73462,11.95347 -13.23831,23.90786 -19.57617,35.86133 -6.33786,11.95347 -12.50923,23.90591 -18.57617,35.85937 -2.01636,3.24798 -4.23599,6.42343 -6.67188,9.58008 -2.43588,3.15666 -5.08896,6.29531 -7.97461,9.46875 -2.88564,3.17344 -6.00351,6.38135 -9.36914,9.67969 -3.36562,3.29834 -6.97768,6.6874 -10.85351,10.21875 -6.88711,6.9302 -14.11101,14.53475 -21.36524,22.5957 -5.70942,6.34436 -11.36148,13.13359 -16.95898,19.93555 1.62099,0.73108 3.11511,1.62566 4.51172,2.63672 1.39965,1.01326 2.70352,2.1437 3.94531,3.34179 2.48359,2.3962 4.71897,5.06433 6.97656,7.6211 1.1288,1.27838 2.2619,2.52929 3.43555,3.70312 1.17365,1.17384 2.38775,2.27133 3.67383,3.24414 1.28608,0.97282 2.64525,1.82076 4.11133,2.4961 1.46608,0.67534 3.0383,1.17759 4.75195,1.45898 3.4273,0.56279 6.88047,0.83442 10.34766,0.92969 3.46718,0.0953 6.94909,0.0144 10.43164,-0.12305 3.48254,-0.13741 6.96607,-0.33155 10.43945,-0.46679 3.47338,-0.13525 6.93725,-0.21114 10.37695,-0.10938 1.92678,0.057 3.84368,0.005 5.75,-0.14648 1.90632,-0.15137 3.8006,-0.40223 5.67774,-0.74219 1.87714,-0.33996 3.73889,-0.7686 5.57812,-1.27735 1.83924,-0.50874 3.65662,-1.09812 5.44922,-1.75585 3.58521,-1.31547 7.06772,-2.90858 10.41406,-4.70118 3.34635,-1.79259 6.55606,-3.78323 9.59375,-5.89453 3.0377,-2.1113 5.90387,-4.34412 8.69727,-6.56836 2.7934,-2.22424 5.51407,-4.44133 8.26172,-6.52539 2.74764,-2.08405 5.52146,-4.03386 8.42187,-5.72461 1.45021,-0.84537 2.93336,-1.62658 4.45899,-2.32617 1.52562,-0.69959 3.09484,-1.31768 4.7207,-1.83984 1.38269,-0.44407 2.81165,-0.75563 4.2793,-0.95899 1.46765,-0.20335 2.97399,-0.29899 4.51367,-0.30859 3.07936,-0.0192 6.29011,0.30327 9.58008,0.77734 3.28997,0.47407 6.65943,1.09974 10.05664,1.69141 3.3972,0.59167 6.82159,1.14881 10.22265,1.48242 6.94222,0.68098 13.77597,1.59206 20.44332,2.37891 3.3337,0.39342 6.6252,0.75654 9.8692,1.04297 3.244,0.28642 6.4397,0.49744 9.5801,0.58789 6.2807,0.18087 12.2397,-0.0726 17.9257,-0.32227 5.686,-0.24971 11.0996,-0.49577 16.2872,-0.30273 2.5937,0.0965 5.13,0.30286 7.6171,0.67383 2.4872,0.37096 4.9257,0.90558 7.3184,1.66015 0.7927,0.25 1.5527,0.68625 2.3359,0.98633 5.1921,-0.93978 11.9912,-2.27521 19.5098,-4.13477 3.9031,-0.96533 7.9583,-2.05687 11.9961,-3.27929 4.0378,-1.22243 8.0584,-2.57473 11.8945,-4.06055 3.8361,-1.48582 7.4872,-3.10581 10.7852,-4.86133 1.649,-0.87775 3.2087,-1.78996 4.6601,-2.73633 1.4514,-0.94636 2.7942,-1.9276 4.0059,-2.94336 1.4745,-1.236 2.7851,-2.59993 3.9668,-4.0664 1.1817,-1.46647 2.2347,-3.03404 3.1934,-4.67774 0.9586,-1.64369 1.8236,-3.36318 2.6289,-5.13086 0.8053,-1.76767 1.5497,-3.58346 2.2714,-5.42187 1.4435,-3.67682 2.7907,-7.44172 4.3184,-11.08203 0.7639,-1.82016 1.5734,-3.61064 2.4629,-5.3418 0.8895,-1.73116 1.8584,-3.40326 2.9434,-4.99219 2.1189,-3.10311 4.4734,-6.02633 6.9472,-8.85742 2.4739,-2.83109 5.0683,-5.57068 7.6641,-8.30859 2.5958,-2.73791 5.193,-5.4733 7.6777,-8.29688 2.4848,-2.82358 4.8573,-5.73611 6.9981,-8.82422 1.2257,-1.76813 2.3612,-3.64136 3.4218,-5.60351 1.0607,-1.96216 2.0458,-4.01187 2.9707,-6.13086 1.8499,-4.23798 3.458,-8.75232 4.9414,-13.39453 2.9669,-9.28442 5.4354,-19.08089 8.3477,-28.19727 1.4562,-4.55819 3.023,-8.94568 4.8184,-13.01562 0.8976,-2.03497 1.8523,-3.99053 2.8789,-5.84766 1.0265,-1.85713 2.1257,-3.61571 3.3105,-5.25781 1.1849,-1.6421 2.4556,-3.16871 3.8281,-4.55859 1.3726,-1.38989 2.846,-2.64366 4.4356,-3.74415 1.5896,-1.10048 3.2948,-2.04641 5.1308,-2.82031 1.8361,-0.7739 3.8041,-1.37503 5.9161,-1.78515 1.2981,-0.25209 2.5066,-0.2005 3.6484,0.0918 1.1418,0.29229 2.2158,0.8245 3.2422,1.53516 1.0263,0.71066 2.0053,1.59855 2.957,2.60156 0.9517,1.00302 1.8771,2.12166 2.7949,3.29102 1.8358,2.33872 3.6443,4.88281 5.5899,7.13086 0.9728,1.12402 1.9795,2.1736 3.041,3.08593 1.0615,0.91234 2.1781,1.68904 3.3691,2.26368 1.0569,0.5099 2.1468,0.92379 3.2618,1.26562 1.1149,0.34183 2.2536,0.61035 3.4101,0.83203 2.3131,0.44337 4.6942,0.69498 7.0742,0.94531 2.3801,0.25034 4.7599,0.50068 7.0743,0.94141 1.1572,0.22037 2.2981,0.48827 3.414,0.82813 1.116,0.33985 2.2075,0.75053 3.2656,1.25781 3.0639,1.46884 5.9633,3.20173 8.7422,5.13086 2.7789,1.92912 5.4361,4.05556 8.0137,6.30859 2.5776,2.25303 5.0772,4.63368 7.5371,7.07422 2.46,2.44054 4.8808,4.93997 7.3067,7.43164 2.4258,2.49167 4.8566,4.97444 7.332,7.38086 2.4754,2.40642 4.995,4.7371 7.6035,6.92187 2.6085,2.18478 5.3056,4.22404 8.1309,6.05079 2.8252,1.82674 5.7787,3.44111 8.9043,4.77343 2.8712,1.2239 5.7962,2.2898 8.7636,3.21875 2.9675,0.92896 5.9783,1.72121 9.0235,2.39649 3.0451,0.67528 6.1242,1.23244 9.2285,1.69531 3.1042,0.46288 6.2341,0.83131 9.3789,1.12305 6.2895,0.58347 12.6403,0.86519 18.9805,1.01172 6.3401,0.14653 12.6698,0.15753 18.9121,0.19726 2.3072,0.0147 4.6115,-0.12558 6.916,-0.37695 2.3045,-0.25137 4.6089,-0.61378 6.9101,-1.04102 4.6026,-0.85447 9.197,-1.97152 13.7832,-2.98828 4.5863,-1.01676 9.1649,-1.93315 13.7305,-2.39062 2.2828,-0.22874 4.5611,-0.34326 6.8379,-0.29688 2.2768,0.0464 4.552,0.25237 6.8223,0.66406 2.8486,0.51659 5.9499,1.40109 9.1972,2.55274 3.2473,1.15164 6.64,2.57139 10.0703,4.1582 3.4304,1.58681 6.8973,3.34198 10.295,5.16406 3.3977,1.82209 6.7255,3.7109 9.875,5.56836 6.2989,3.71492 11.8864,7.29999 15.8984,9.95703 2.6937,1.78398 3.3172,2.24069 4.3301,2.94532 -0.081,-3.8718 -0.1034,-7.84874 -0.2324,-11.63672 -0.2733,-8.02102 -0.6564,-15.86414 -1.1465,-23.57617 -0.4902,-7.71204 -1.0877,-15.29327 -1.7949,-22.78711 -0.6343,-6.72098 -1.4994,-13.11774 -2.5625,-19.2461 -1.0632,-6.12835 -2.3247,-11.9881 -3.7559,-17.63672 -1.4313,-5.64861 -3.0311,-11.08543 -4.7695,-16.36718 -1.7385,-5.28175 -3.6167,-10.40779 -5.6016,-15.43555 -0.8726,-2.79154 -2.1119,-5.96329 -3.6641,-9.45703 -1.5521,-3.49374 -3.4157,-7.31057 -5.539,-11.39453 -4.2467,-8.16792 -9.5289,-17.40479 -15.4102,-27.26172 -5.8812,-9.85694 -12.3628,-20.33423 -19.0117,-30.98438 -6.6489,-10.65014 -13.4641,-21.47198 -20.0137,-32.01953 -3.1116,-4.32846 -6.3333,-8.61624 -9.7402,-12.83398 -3.4069,-4.21774 -6.9983,-8.36638 -10.8535,-12.41602 -3.8552,-4.04963 -7.9732,-8.00008 -12.4297,-11.82422 -2.2283,-1.91206 -4.5419,-3.79178 -6.9492,-5.63671 -2.4073,-1.84494 -4.9083,-3.65516 -7.5137,-5.42579 -2.6054,-1.77062 -5.3159,-3.50226 -8.1387,-5.1914 -2.8227,-1.68915 -5.7592,-3.33506 -8.8183,-4.93555 -3.0592,-1.60049 -6.24,-3.15549 -9.5547,-4.66015 -3.3147,-1.50467 -6.7622,-2.95967 -10.3516,-4.36133 -3.5893,-1.40167 -7.32,-2.74953 -11.2031,-4.04102 -3.8832,-1.29149 -7.9192,-2.52703 -12.1152,-3.70117 -4.1961,-1.17414 -8.5539,-2.28827 -13.0821,-3.33789 -4.5281,-1.04962 -9.2261,-2.0352 -14.1054,-2.95313 -12.1065,-0.75588 -23.7002,-1.36554 -34.8106,-1.83789 -11.1104,-0.47234 -21.737,-0.8067 -31.9101,-1.01367 -10.1731,-0.20697 -19.8931,-0.28634 -29.1875,-0.24609 z"
           id="path6737"
           transform="scale(0.26458333)"
           inkscape:connector-curvature="0" />
      </g>
      <g
         inkscape:groupmode="layer"
         id="layer19"
         inkscape:label="East Barrens"
         style="display:inline">
        <path
           style="display:inline;opacity:1;fill:#04e104;fill-opacity:1;fill-rule:nonzero;stroke:#010200;stroke-width:1.88976383;stroke-linejoin:round;stroke-miterlimit:4;stroke-dasharray:none;stroke-opacity:1"
           d="m 2170.373,1509.1758 c -3.6104,-0.8007 -7.7156,-1.6947 -12.6699,-2.5196 -2.9407,-0.4895 -6.0221,-0.9405 -9.1328,-1.3066 -3.1107,-0.3661 -6.2501,-0.6469 -9.3047,-0.791 -3.0546,-0.1442 -6.0244,-0.1527 -8.7968,0.023 -2.7725,0.1762 -5.3472,0.538 -7.6114,1.1328 -1.5262,0.401 -3.0074,0.8917 -4.4453,1.4668 -1.4379,0.5752 -2.8318,1.2339 -4.1855,1.9688 -2.7075,1.4697 -5.2524,3.2438 -7.6485,5.2656 -2.3961,2.0218 -4.6452,4.2918 -6.7636,6.75 -2.1185,2.4582 -4.106,5.1059 -5.9805,7.8848 -1.8745,2.7788 -3.6347,5.6881 -5.2988,8.6719 -1.6642,2.9837 -3.2312,6.0422 -4.7188,9.1152 -2.9751,6.1459 -5.6309,12.3537 -8.1016,18.1621 -1.0577,2.4867 -1.9801,5.019 -2.7851,7.5879 -0.805,2.5689 -1.494,5.1733 -2.082,7.8086 -0.5881,2.6353 -1.0755,5.3004 -1.4825,7.9863 -0.4069,2.6859 -0.7324,5.3926 -0.9941,8.1133 -0.5233,5.4414 -0.7923,10.938 -0.9492,16.4238 -0.1569,5.4859 -0.2024,10.9612 -0.2793,16.3653 -0.071,4.9688 0.2821,11.1604 0.8496,17.6523 0.5675,6.4919 1.3505,13.2856 2.1426,19.457 1.1776,9.1755 1.8439,13.1036 2.3808,16.5039 4.4249,-0.1992 8.858,-0.3481 13.2871,-0.3789 4.8113,-0.033 9.6163,0.049 14.3946,0.2813 4.7782,0.2319 9.5307,0.6132 14.2363,1.1797 4.7055,0.5665 9.3637,1.3186 13.957,2.289 4.5933,0.9704 9.1211,2.1599 13.5625,3.6035 4.4415,1.4437 8.7969,3.1409 13.0469,5.127 4.347,2.0314 8.5379,4.3342 12.5859,6.8711 4.0481,2.5369 7.9535,5.3073 11.7305,8.2734 3.777,2.9661 7.4252,6.1282 10.959,9.4473 3.5338,3.3191 6.953,6.7966 10.2715,10.3926 3.3185,3.596 6.5368,7.3107 9.6679,11.1074 3.1311,3.7967 6.175,7.6745 9.1465,11.5957 5.9431,7.8424 11.5943,15.8569 17.0664,23.7402 5.2052,7.4988 10.1851,15.1514 14.9551,22.9356 4.7701,7.7842 9.3307,15.7016 13.7031,23.7324 4.3725,8.0308 8.556,16.1735 12.5684,24.4121 4.0124,8.2386 7.855,16.5728 11.5449,24.9805 3.69,8.4077 7.2278,16.8898 10.6328,25.4277 3.4051,8.538 6.6763,17.1303 9.834,25.7598 3.1577,8.6294 6.2005,17.2964 9.1485,25.9785 2.9479,8.6821 5.8004,17.3801 8.5761,26.0762 1.5015,4.7041 3.6103,9.6481 5.7617,14.6797 2.1515,5.0315 4.346,10.1518 6.0254,15.205 0.8398,2.5266 1.5512,5.0351 2.0625,7.5098 0.5114,2.4747 0.8226,4.9143 0.8653,7.2988 0.04,2.2375 -0.2109,4.4156 -0.7032,6.541 1.0178,-2.4918 2.0863,-4.9613 3.045,-7.4785 1.8505,-4.8589 3.5879,-9.7659 5.2011,-14.7265 1.6132,-4.9607 3.1038,-9.9748 4.4571,-15.0469 1.3532,-5.0721 2.57,-10.2033 3.6406,-15.3965 1.0706,-5.1932 1.9945,-10.4494 2.7598,-15.7734 0.7653,-5.3241 1.3712,-10.7151 1.8086,-16.1797 0.4373,-5.4646 0.7063,-11.0023 0.7929,-16.6172 0.087,-5.6149 -0.01,-11.3071 -0.2949,-17.082 1.6719,-9.8678 3.0001,-19.4185 4,-28.6641 0.9999,-9.2456 1.6715,-18.1869 2.0293,-26.8379 0.3578,-8.651 0.403,-17.0117 0.1484,-25.0957 -0.2545,-8.084 -0.8093,-15.8909 -1.6464,-23.4355 -0.8372,-7.5447 -1.9579,-14.8266 -3.3477,-21.8594 -1.3898,-7.0329 -3.0482,-13.8166 -4.9609,-20.3653 -1.9128,-6.5486 -4.0805,-12.8629 -6.4864,-18.955 -2.4058,-6.0921 -5.0508,-11.9619 -7.9199,-17.625 -3.6847,-7.9767 -7.7341,-15.9885 -12.1719,-24.0352 -4.4377,-8.0467 -9.2621,-16.1292 -14.4961,-24.25 -5.2339,-8.1208 -10.8778,-16.2796 -16.9511,-24.4785 -6.0734,-8.1989 -12.5773,-16.4378 -19.5332,-24.7187 -6.956,-8.281 -14.3644,-16.6037 -22.2461,-24.9708 -7.8817,-8.367 -16.2354,-16.7771 -25.086,-25.2343 -8.8506,-8.4572 -18.1978,-16.9604 -28.0605,-25.5117 -9.8627,-8.5514 -20.2422,-17.1513 -31.1602,-25.8008 -1.5504,-6.5398 -3.0352,-11.7978 -4.5508,-17.6504 z"
           id="path6743"
           inkscape:connector-curvature="0"
           transform="scale(0.26458333)" />
      </g>
      <g
         inkscape:groupmode="layer"
         id="layer25"
         inkscape:label="Southern Plains"
         style="display:inline">
        <path
           style="display:inline;opacity:1;fill:#04e104;fill-opacity:1;fill-rule:nonzero;stroke:#010200;stroke-width:1.88976383;stroke-linejoin:round;stroke-miterlimit:4;stroke-dasharray:none;stroke-opacity:1"
           d="m 1696.4004,2179.748 c 1.3108,-8.0006 2.7937,-15.9723 4.4082,-23.9218 1.6145,-7.9495 3.3605,-15.8764 5.1953,-23.7891 1.8348,-7.9126 3.759,-15.8111 5.7305,-23.7012 3.943,-15.7801 8.0754,-31.5275 12.0644,-47.3027 1.9945,-7.8876 3.9532,-15.7836 5.834,-23.6914 1.8808,-7.9078 3.6837,-15.8274 5.3672,-23.7695 1.4863,-7.0118 3.2528,-13.9953 5.0781,-20.9727 1.8253,-6.9774 3.7088,-13.9499 5.4317,-20.9414 1.7228,-6.9915 3.2839,-14.0026 4.4629,-21.0566 0.5894,-3.5271 1.0843,-7.0635 1.455,-10.6153 0.3708,-3.5517 0.618,-7.1186 0.7149,-10.7011 0.061,-2.2405 0,-4.4876 -0.1778,-6.7422 -0.1732,-2.2547 -0.4535,-4.516 -0.8222,-6.7813 -0.7375,-4.5305 -1.8279,-9.079 -3.1172,-13.6308 -1.2893,-4.5519 -2.7781,-9.1074 -4.3125,-13.6524 -1.5344,-4.5449 -3.1151,-9.08 -4.5879,-13.5898 -1.4728,-4.5098 -2.837,-8.995 -3.9414,-13.4414 -0.5522,-2.2233 -1.0408,-4.4366 -1.4434,-6.6387 -0.4025,-2.2021 -0.719,-4.3929 -0.9336,-6.5703 -0.2146,-2.1774 -0.3261,-4.341 -0.3144,-6.4903 0.012,-2.1492 0.1455,-4.2828 0.4219,-6.4003 0.2763,-2.1176 0.6941,-4.2186 1.2734,-6.3008 0.5793,-2.0823 1.3196,-4.146 2.2402,-6.1895 1.4666,-3.2551 3.2953,-6.4589 5.4336,-9.6035 2.1383,-3.1446 4.5864,-6.2307 7.2969,-9.2539 2.7105,-3.0232 5.6821,-5.9822 8.8652,-8.873 3.1832,-2.8909 6.5786,-5.7134 10.1348,-8.461 3.5562,-2.7476 7.2738,-5.4202 11.1035,-8.0137 3.8298,-2.5934 7.7717,-5.1067 11.7754,-7.5351 4.0037,-2.4285 8.0703,-4.7729 12.1484,-7.0254 1.4217,-0.7852 2.8373,-1.4968 4.2598,-2.2598 -1.8959,-1.889 -3.3366,-3.2978 -8.6641,-8.7304 -7.6381,-7.789 -18.131,-18.6393 -29.5449,-30.8809 -5.7069,-6.1208 -11.6437,-12.5889 -17.5703,-19.1973 -5.9266,-6.6083 -11.8424,-13.3562 -17.5058,-20.0351 -5.6635,-6.6789 -11.0748,-13.2887 -15.9922,-19.6211 -4.9175,-6.3324 -9.3426,-12.3882 -13.0313,-17.957 -1.8816,-2.8408 -3.6036,-5.7718 -5.207,-8.7715 -1.6034,-2.9998 -3.0877,-6.0677 -4.4942,-9.1797 -2.8129,-6.2241 -5.3134,-12.6258 -7.8261,-19.0195 -2.5128,-6.3938 -5.0375,-12.7805 -7.9004,-18.9707 -1.4315,-3.0952 -2.947,-6.1409 -4.5879,-9.1153 -1.6409,-2.9744 -3.4082,-5.8765 -5.3399,-8.6836 -1.8733,-2.7224 -3.8577,-5.3638 -5.9394,-7.9355 -2.0817,-2.5718 -4.2603,-5.0737 -6.5176,-7.5176 -2.2572,-2.4439 -4.5941,-4.8291 -6.9941,-7.168 -2.4,-2.3388 -4.8631,-4.6321 -7.3731,-6.8886 -5.02,-4.5132 -10.2268,-8.884 -15.4902,-13.2051 -0.4372,-0.359 -0.8766,-0.714 -1.3145,-1.0723 -0.8794,1.4023 -1.6614,2.8615 -2.6015,4.2285 -2.2307,3.2434 -4.6284,6.3902 -7.1719,9.4512 -2.5435,3.061 -5.2335,6.0344 -8.0488,8.9355 -2.8154,2.9011 -5.7567,5.7284 -8.8028,8.4922 -3.046,2.7638 -6.1979,5.4643 -9.4335,8.1133 -3.2358,2.6491 -6.5551,5.2478 -9.9395,7.8047 -6.7688,5.1138 -13.7932,10.0648 -20.9102,14.9453 -7.1169,4.8805 -14.3263,9.6898 -21.4629,14.5176 -7.1364,4.8278 -14.2014,9.6752 -21.0292,14.6309 -3.4139,2.4778 -6.7679,4.9817 -10.043,7.5253 -3.2751,2.5437 -6.4712,5.1259 -9.5664,7.7579 -5.6956,4.8431 -11.4442,9.6623 -17.3594,14.2539 -2.9576,2.2958 -5.9574,4.5347 -9.0117,6.6914 -3.0544,2.1566 -6.1647,4.2306 -9.3438,6.1972 -8.2403,5.0979 -16.6393,9.9333 -25.164,14.5508 -8.5247,4.6175 -17.1743,9.0178 -25.9121,13.2442 -8.7379,4.2263 -17.5654,8.2789 -26.4454,12.2031 -8.8798,3.9242 -17.8127,7.7205 -26.7636,11.4316 -5.6338,2.3358 -11.2614,4.8305 -16.8926,7.4063 -5.6312,2.5758 -11.2661,5.2323 -16.9121,7.8945 -5.6461,2.6622 -11.3043,5.3289 -16.9824,7.9238 -5.6782,2.5949 -11.3759,5.1182 -17.1035,7.4922 -5.7277,2.374 -11.485,4.5982 -17.2793,6.5977 -5.7944,1.9994 -11.6256,3.7748 -17.5039,5.2461 -2.9393,0.7356 -5.8901,1.394 -8.8536,1.9687 -2.9635,0.5748 -5.9397,1.0643 -8.9297,1.459 -2.9899,0.3947 -5.9951,0.6952 -9.0136,0.8906 -3.0186,0.1955 -6.0503,0.2867 -9.0996,0.2637 -3.5395,-0.027 -7.0298,-0.3403 -10.4785,-0.8867 -3.4489,-0.5464 -6.8562,-1.3266 -10.2325,-2.2871 -3.3762,-0.9606 -6.7212,-2.1001 -10.0429,-3.3692 -3.3218,-1.269 -6.6211,-2.6666 -9.9063,-4.1386 -6.5704,-2.9441 -13.0864,-6.1882 -19.6191,-9.3106 -3.2664,-1.5612 -6.5363,-3.0918 -9.8203,-4.539 -3.284,-1.4474 -6.5808,-2.813 -9.9004,-4.0411 -30.606,-11.3218 -76.322,-28.8207 -114.3848,-43.4902 -12.2804,-4.7329 -12.1687,-4.7116 -22.0918,-8.5527 0.337,2.0566 0.5255,4.0194 0.8887,6.0898 1.874,10.6844 4.0983,21.5438 6.6875,32.4707 1.2945,5.4635 2.6808,10.943 4.1601,16.4277 1.4794,5.4848 3.0525,10.9753 4.7207,16.4551 1.8101,3.2504 3.4732,6.5368 4.9805,9.8516 1.5073,3.3148 2.8586,6.6567 4.043,10.0156 1.1844,3.3589 2.2015,6.7346 3.0429,10.1172 0.8414,3.3826 1.5061,6.7724 1.9844,10.1582 0.4783,3.3858 0.7702,6.768 0.8653,10.1367 0.095,3.3687 -0.01,6.7236 -0.3145,10.0547 -0.3082,3.3312 -0.8231,6.6389 -1.5547,9.9121 -0.7316,3.2732 -1.6803,6.5123 -2.8555,9.707 -1.1751,3.1949 -2.576,6.3454 -4.2148,9.4415 -1.6388,3.096 -3.5142,6.1383 -5.6367,9.1152 -2.1225,2.9769 -4.4928,5.8892 -7.1192,8.7266 -2.6263,2.8373 -5.5098,5.5999 -8.6601,8.2773 -3.15034,2.6774 -6.56738,5.2686 -10.26174,7.7656 -3.69435,2.497 -7.66531,4.8991 -11.92383,7.1953 -4.25851,2.2962 -8.80565,4.4875 -13.64843,6.5625 -4.84278,2.075 -9.98254,4.0338 -15.42969,5.8672 -2.98522,0.9422 -5.85021,2.0098 -8.60156,3.1992 -2.75135,1.1895 -5.38795,2.5001 -7.91211,3.9297 -2.52417,1.4296 -4.93658,2.978 -7.24024,4.6407 -2.30366,1.6627 -4.49806,3.4393 -6.58789,5.3281 -2.08983,1.8887 -4.07435,3.8903 -5.95703,5.998 -1.88268,2.1078 -3.6635,4.3229 -5.3457,6.6426 -1.6822,2.3197 -3.26746,4.743 -4.75586,7.2676 -1.48841,2.5245 -2.88035,5.1507 -4.18164,7.873 -1.30129,2.7224 -2.51197,5.5401 -3.63281,8.4532 -1.12085,2.9131 -2.15253,5.9207 -3.09961,9.0175 -0.94709,3.0968 -1.80789,6.2832 -2.58789,9.5567 -0.78,3.2734 -1.47807,6.6331 -2.09766,10.0761 -0.61959,3.443 -1.16109,6.9688 -1.62695,10.5743 -0.46587,3.6055 -0.85698,7.2917 -1.17578,11.0527 -0.63763,7.5219 -0.98864,15.3478 -1.17432,20.6721 -0.18568,5.3244 -0.36845,7.8516 -0.46045,10.3611 -0.092,2.51 -0.0916,5.001 -0.01,7.4766 0.16447,4.9512 0.66054,9.8378 1.42774,14.6718 0.7672,4.8339 1.80459,9.6155 3.04883,14.3594 1.24423,4.7438 2.69545,9.4499 4.29101,14.1309 1.59557,4.681 3.33506,9.3371 5.15625,13.9824 1.8212,4.6454 3.72537,9.279 5.64649,13.916 3.84223,9.2738 7.75839,18.5595 11.24609,27.9629 1.10836,3.5523 2.31527,6.934 3.60156,10.1504 1.2863,3.2165 2.65118,6.267 4.07813,9.1543 1.42695,2.8874 2.91499,5.6127 4.44531,8.1777 1.53032,2.5649 3.10281,4.9695 4.69922,7.2188 1.5964,2.2494 3.21659,4.3428 4.8418,6.2832 1.6252,1.9405 3.25631,3.7289 4.87304,5.3672 1.61673,1.6383 3.22005,3.1278 4.79102,4.4707 1.57097,1.343 3.10973,2.5394 4.59765,3.5937 4.27225,2.5947 8.73024,4.8784 13.3086,6.9649 4.57836,2.0865 9.27596,3.9755 14.02344,5.7812 9.49495,3.6114 19.19161,6.8894 28.54101,10.7422 11.3238,4.4671 22.5568,8.7775 33.7051,12.9375 11.1483,4.1597 22.211,8.169 33.1914,12.0352 10.9805,3.8662 21.879,7.5879 32.6992,11.1738 10.8203,3.586 21.5627,7.0364 32.2305,10.3555 10.6678,3.3191 21.2622,6.5066 31.7852,9.5722 10.5229,3.0656 20.9755,6.0084 31.3613,8.834 10.3858,2.8255 20.7046,5.5358 30.9609,8.1348 10.2563,2.599 20.4495,5.0868 30.584,7.4726 9.7825,0.8341 19.944,1.5461 30.3438,2.1426 10.3997,0.5964 21.0375,1.0767 31.7714,1.4512 10.734,0.3745 21.5645,0.6422 32.3497,0.8105 10.7851,0.1683 21.5248,0.2371 32.0781,0.2149 10.5532,-0.022 20.9187,-0.1353 30.957,-0.3321 10.0383,-0.1968 19.7499,-0.4763 28.9902,-0.832 9.2404,-0.3558 18.0106,-0.7863 26.17,-1.2851 8.1593,-0.4989 15.7066,-1.0671 22.5019,-1.6934 7.1497,-0.4712 13.6359,-0.9627 19.5801,-1.4902 5.9442,-0.5275 11.3468,-1.0897 16.334,-1.7012 4.9871,-0.6114 9.5576,-1.273 13.8359,-1.9961 4.2784,-0.723 8.2645,-1.5087 12.082,-2.3711 3.8179,-0.8623 7.4687,-1.8009 11.0743,-2.8301 3.6056,-1.0293 7.1669,-2.1491 10.8086,-3.373 7.2834,-2.4476 14.8871,-5.3113 23.8047,-8.7032 5.7134,-2.3127 11.0037,-4.6662 15.9374,-7.0078 4.9341,-2.3416 9.5125,-4.6715 13.8047,-6.9394 8.5845,-4.5356 16.023,-8.8222 22.8672,-12.4473 3.4222,-1.8126 6.6968,-3.4595 9.8907,-4.8906 3.1935,-1.431 6.3067,-2.6448 9.4101,-3.5918 3.1034,-0.9469 6.1968,-1.6261 9.3477,-1.9863 1.5754,-0.1801 3.1642,-0.2808 4.7773,-0.295 l 0.1758,-33.2002 c 0.8596,-7.0905 1.8175,-14.1644 2.9709,-21.2041 z"
           transform="scale(0.26458333)"
           id="path6895"
           inkscape:connector-curvature="0"
           sodipodi:nodetypes="csccssssccccccccsccsccccsscscccccccccccccssccccccccscccscccccsccscccsccccccccccccccccscccccssssccsccscccsscccsccscccccsccccccccccccccccsccssccccsccsccsscscccsccccccccsccccccc" />
      </g>
      <g
         inkscape:groupmode="layer"
         id="layer20"
         inkscape:label="Lake Hettal"
         style="display:inline">
        <path
           style="display:inline;opacity:1;fill:#04e104;fill-opacity:1;fill-rule:nonzero;stroke:#010200;stroke-width:1.88976383;stroke-linejoin:round;stroke-miterlimit:4;stroke-dasharray:none;stroke-opacity:1"
           d="m 2085.8027,1682.5215 c -4.4291,0.031 -8.8622,0.1797 -13.2871,0.3789 -0.3818,0.017 -0.7648,0.015 -1.1465,0.033 -9.6095,0.459 -19.1659,1.2411 -28.5117,2.0684 -3.5023,0.31 -7.1873,0.7429 -11.0176,1.2832 -3.8302,0.5403 -7.807,1.1869 -11.8945,1.9257 -8.175,1.4775 -16.7923,3.3219 -25.5723,5.4024 -8.7799,2.0806 -17.7216,4.3988 -26.541,6.8281 -8.8194,2.4292 -17.5171,4.9687 -25.8105,7.4922 -8.2935,2.5236 -16.1827,5.031 -23.3848,7.3945 -7.2021,2.3635 -13.7163,4.5822 -19.2617,6.5313 -11.0908,3.8982 -18.3036,6.7134 -19.375,7.4277 -1.0714,0.7142 -9.1139,3.6647 -20.9414,8.502 -5.9138,2.4187 -12.7735,5.3103 -20.1816,8.6289 -7.4081,3.3186 -15.3648,7.064 -23.4708,11.1953 -2.6398,1.3456 -5.3027,2.7951 -7.9609,4.2207 -1.4225,0.763 -2.8381,1.4746 -4.2598,2.2598 -4.0781,2.2524 -8.1447,4.5968 -12.1484,7.0253 -4.0037,2.4284 -7.9456,4.9418 -11.7754,7.5352 -3.8297,2.5935 -7.5473,5.2661 -11.1035,8.0137 -3.5562,2.7476 -6.9516,5.57 -10.1348,8.4609 -3.1831,2.8908 -6.1547,5.8499 -8.8652,8.8731 -2.7105,3.0232 -5.1586,6.1093 -7.2969,9.2539 -2.1383,3.1446 -3.967,6.3484 -5.4336,9.6035 -0.9206,2.0435 -1.6609,4.1071 -2.2402,6.1894 -0.5793,2.0822 -0.9971,4.1832 -1.2734,6.3008 -0.2764,2.1175 -0.4102,4.2512 -0.4219,6.4004 -0.012,2.1493 0.1,4.3128 0.3144,6.4902 0.2146,2.1774 0.5311,4.3682 0.9336,6.5703 0.4026,2.2021 0.8912,4.4154 1.4434,6.6387 1.1044,4.4464 2.4686,8.9316 3.9414,13.4414 1.4728,4.5098 3.0535,9.045 4.5879,13.5899 1.5344,4.545 3.0232,9.1004 4.3125,13.6523 1.2893,4.5518 2.3797,9.1004 3.1172,13.6309 0.3687,2.2653 0.649,4.5265 0.8222,6.7812 0.1733,2.2546 0.2384,4.5017 0.1778,6.7422 -0.097,3.5825 -0.3441,7.1495 -0.7149,10.7012 -0.3707,3.5518 -0.8656,7.0881 -1.455,10.6152 -1.179,7.054 -2.7401,14.0652 -4.4629,21.0567 -1.7229,6.9915 -3.6064,13.964 -5.4317,20.9414 -1.8253,6.9774 -3.5918,13.9608 -5.0781,20.9726 -1.6835,7.9421 -3.4864,15.8618 -5.3672,23.7696 -1.8808,7.9077 -3.8395,15.8038 -5.834,23.6914 -3.989,15.7752 -8.1214,31.5226 -12.0644,47.3027 -1.9715,7.8901 -3.8957,15.7886 -5.7305,23.7012 -1.8348,7.9127 -3.5808,15.8395 -5.1953,23.789 -1.6145,7.9495 -3.0974,15.9213 -4.4082,23.9219 -1.1534,7.0397 -2.1113,14.1135 -2.9688,21.2031 0,2e-4 0,-1e-4 0,0 l -0.1738,33.1973 c 1.6131,-0.014 3.2499,0.058 4.918,0.2226 0.5776,0 1.1715,0.081 1.7539,0.1055 1.2233,0.051 2.4425,0.083 3.6836,0.2227 1.8328,0.2064 3.6832,0.5064 5.5449,0.8906 3.7239,0.7681 7.4944,1.8742 11.2637,3.2402 3.7694,1.366 7.5377,2.9937 11.2578,4.8067 3.7202,1.813 7.3926,3.8106 10.9687,5.9199 3.5761,2.1092 7.0573,4.3292 10.3946,6.584 3.3374,2.2548 6.5313,4.5453 9.5351,6.7949 0.6464,0.4842 1.0241,0.8563 1.6524,1.3359 5.211,3.978 10.0418,7.8865 13.705,11.0762 6.5503,2.6127 12.5483,5.1191 18.3223,7.4824 5.7739,2.3633 11.3241,4.5834 16.9805,6.6192 5.6565,2.0357 11.4194,3.8875 17.6172,5.5176 3.0989,0.8146 6.3062,1.5744 9.664,2.2734 3.3578,0.6989 6.8655,1.337 10.5645,1.9101 4.1009,0.5285 8.3052,0.8968 12.582,1.125 4.2767,0.2283 8.6264,0.3168 13.0234,0.2852 4.397,-0.032 8.8414,-0.1827 13.3028,-0.4336 4.4615,-0.2509 8.9399,-0.6015 13.4101,-1.0312 8.9403,-0.8596 17.842,-2.0369 26.4825,-3.3692 8.6406,-1.3323 17.0213,-2.8194 24.916,-4.3008 7.4992,-0.9824 14.8453,-2.1149 22.0273,-3.4257 7.1819,-1.3109 14.1992,-2.7998 21.0391,-4.4942 6.8399,-1.6944 13.5016,-3.5953 19.9746,-5.7285 6.4731,-2.1332 12.7566,-4.4997 18.8379,-7.127 3.0407,-1.3136 6.0306,-2.6912 8.9687,-4.1386 2.9381,-1.4475 5.8257,-2.9645 8.6582,-4.5528 2.8324,-1.5882 5.6103,-3.2485 8.334,-4.9843 2.7236,-1.7359 5.3921,-3.5471 8.0039,-5.4375 2.6118,-1.8905 5.1673,-3.8603 7.6641,-5.9121 2.4969,-2.0519 4.9357,-4.1861 7.3144,-6.4063 2.3787,-2.2202 4.6975,-4.5264 6.9551,-6.9219 2.2575,-2.3955 4.4527,-4.8794 6.586,-7.457 1.3388,-1.7771 2.7202,-3.4658 4.1425,-5.0703 1.4223,-1.6045 2.8869,-3.1244 4.3887,-4.5645 1.5017,-1.4401 3.0419,-2.8 4.6191,-4.084 1.5772,-1.2839 3.1913,-2.4927 4.8399,-3.6289 3.2974,-2.2722 6.7338,-4.2578 10.293,-5.9882 3.5592,-1.7305 7.2402,-3.2063 11.0293,-4.461 3.7891,-1.2547 7.6847,-2.2877 11.6718,-3.1328 3.9871,-0.8451 8.0658,-1.5022 12.2188,-2.0039 4.1531,-0.5017 8.3809,-0.8479 12.6679,-1.0723 4.2871,-0.2243 8.6343,-0.3266 13.0235,-0.3398 5.0558,-1.2258 10.1125,-2.4458 15.1523,-3.7559 5.0397,-1.31 10.0621,-2.7108 15.0489,-4.2988 4.9868,-1.588 9.9369,-3.3624 14.8339,-5.4219 2.4485,-1.0297 4.8837,-2.1305 7.3028,-3.3144 2.4192,-1.184 4.8239,-2.4522 7.209,-3.8145 2.3852,-1.3623 4.751,-2.8198 7.0976,-4.3847 2.3465,-1.5649 4.6733,-3.2357 6.9766,-5.0274 2.3034,-1.7917 4.5842,-3.7034 6.8398,-5.7461 2.2555,-2.0426 4.4864,-4.2173 6.6895,-6.5351 2.2032,-2.3179 4.3773,-4.7793 6.5234,-7.3965 2.1461,-2.6172 4.2632,-5.3893 6.3477,-8.3301 2.0845,-2.9408 4.1379,-6.0493 6.1562,-9.3379 2.0182,-3.2886 4.0018,-6.7574 5.9492,-10.418 2.8063,-6.9584 5.59,-13.9401 8.4414,-20.8535 2.8514,-6.9134 5.7698,-13.7584 8.8477,-20.4453 3.0779,-6.6869 6.3151,-13.2151 9.8008,-19.4941 1.7341,-3.1236 3.5298,-6.1848 5.3984,-9.1739 0.01,-0.015 0.018,-0.032 0.027,-0.047 1.8789,-3.0036 3.8316,-5.9344 5.3488,-8.5063 1.5173,-2.5719 2.4097,-4.9123 3.3562,-7.2301 0.4921,-2.1248 0.7432,-4.3021 0.7032,-6.539 -0.043,-2.3845 -0.3539,-4.8241 -0.8653,-7.2988 -0.5113,-2.4747 -1.2227,-4.9832 -2.0625,-7.5098 -1.6794,-5.0532 -3.8739,-10.1736 -6.0254,-15.2051 -2.1514,-5.0316 -4.2602,-9.9756 -5.7617,-14.6797 -2.7757,-8.6961 -5.6282,-17.3941 -8.5761,-26.0762 -2.948,-8.682 -5.9908,-17.3491 -9.1485,-25.9785 -3.1577,-8.6295 -6.4289,-17.2217 -9.834,-25.7597 -3.405,-8.5379 -6.9428,-17.0201 -10.6328,-25.4278 -3.6899,-8.4077 -7.5325,-16.7418 -11.5449,-24.9804 -4.0124,-8.2386 -8.1959,-16.3813 -12.5684,-24.4121 -4.3724,-8.0308 -8.933,-15.9483 -13.7031,-23.7325 -4.77,-7.7842 -9.7499,-15.4367 -14.9551,-22.9355 -5.4721,-7.8833 -11.1233,-15.8978 -17.0664,-23.7402 -2.9715,-3.9212 -6.0154,-7.7991 -9.1465,-11.5957 -3.1311,-3.7967 -6.3494,-7.5115 -9.6679,-11.1075 -3.3185,-3.596 -6.7377,-7.0735 -10.2715,-10.3925 -3.5338,-3.3191 -7.182,-6.4812 -10.959,-9.4473 -3.777,-2.9661 -7.6824,-5.7366 -11.7305,-8.2735 -4.048,-2.5369 -8.2389,-4.8396 -12.5859,-6.871 -4.25,-1.9861 -8.6054,-3.6833 -13.0469,-5.127 -4.4414,-1.4436 -8.9692,-2.6331 -13.5625,-3.6035 -4.5933,-0.9704 -9.2515,-1.7226 -13.957,-2.2891 -4.7056,-0.5665 -9.4581,-0.9478 -14.2363,-1.1797 -4.7783,-0.2319 -9.5833,-0.3146 -14.3946,-0.2812 z"
           transform="scale(0.26458333)"
           id="path6781"
           inkscape:connector-curvature="0"
           sodipodi:nodetypes="cccccccccssccscccccscsscccccccsccccccccsscsccscccccccccccccccccccccccccccscccccccsccsccccssccccscccccccssccsscccccccccsccccsccsccscscccsccc" />
      </g>
      <g
         inkscape:groupmode="layer"
         id="layer22"
         inkscape:label="Scorchwind"
         style="display:inline">
        <path
           style="display:inline;opacity:1;fill:#04e104;fill-opacity:1;fill-rule:nonzero;stroke:#010200;stroke-width:1.88976383;stroke-linejoin:round;stroke-miterlimit:4;stroke-dasharray:none;stroke-opacity:1"
           d="m 1736.7988,1227.002 c -3.865,0.701 -7.9638,1.4537 -12.7402,2.4238 -5.7452,1.1668 -12.0358,2.5275 -18.5957,4.084 -6.5599,1.5564 -13.3903,3.3094 -20.2149,5.2558 -6.8245,1.9464 -13.6426,4.0872 -20.1816,6.4239 -3.2695,1.1683 -6.4695,2.3844 -9.5644,3.6503 -3.095,1.266 -6.0859,2.5817 -8.9375,3.9454 -2.8517,1.3636 -5.564,2.775 -8.1036,4.2363 -2.5395,1.4613 -4.9057,2.9722 -7.0644,4.5312 -4.3077,3.1112 -8.4988,6.4347 -12.5606,9.9473 -4.0617,3.5126 -7.9943,7.2139 -11.7812,11.084 -3.7869,3.8701 -7.4292,7.9083 -10.9121,12.0918 -3.483,4.1834 -6.8071,8.5121 -9.9571,12.9648 -2.8924,4.0887 -5.5973,8.3059 -8.1855,12.586 -0.2305,0.3811 -0.5005,0.7385 -0.7285,1.1211 -2.788,4.6779 -5.3882,9.4592 -7.7852,14.3183 -2.3969,4.8592 -4.5895,9.7967 -6.5664,14.793 -1.9768,4.9962 -3.7379,10.0513 -5.2656,15.1406 -1.0897,3.6302 -2.0416,7.3349 -2.8516,11.0957 -0.8099,3.7608 -1.4771,7.5764 -1.9961,11.4258 -0.5189,3.8494 -0.8886,7.733 -1.1054,11.6289 -0.2169,3.8959 -0.2801,7.8048 -0.1836,11.7051 0.096,3.9003 0.3525,7.7917 0.7734,11.6543 0.421,3.8626 1.0071,7.6956 1.7637,11.4785 0.7566,3.7829 1.6836,7.5167 2.7871,11.1777 1.1034,3.661 2.3823,7.249 3.8437,10.7461 1.2743,3.0492 2.6984,5.9978 4.2559,8.8555 1.5575,2.8577 3.2488,5.6255 5.0566,8.3144 1.8079,2.689 3.7323,5.2988 5.7579,7.8418 2.0255,2.5431 4.1528,5.0195 6.3632,7.4395 2.2105,2.42 4.5047,4.7838 6.8672,7.1035 2.3626,2.3197 4.7935,4.5957 7.2754,6.8379 4.9638,4.4844 10.1323,8.835 15.377,13.1465 4.809,3.9533 9.6797,7.877 14.5136,11.832 0.4379,0.3583 0.8773,0.7133 1.3145,1.0723 5.2634,4.3211 10.4702,8.6919 15.4902,13.2051 2.51,2.2565 4.9731,4.5498 7.3731,6.8886 2.4,2.3389 4.7369,4.7241 6.9941,7.168 2.2573,2.4439 4.4359,4.9458 6.5176,7.5176 2.0817,2.5717 4.0661,5.2131 5.9394,7.9355 1.9317,2.8071 3.699,5.7092 5.3399,8.6836 1.6409,2.9744 3.1564,6.0201 4.5879,9.1153 2.8629,6.1902 5.3876,12.5769 7.9004,18.9707 2.5127,6.3937 5.0132,12.7954 7.8261,19.0195 1.4065,3.112 2.8908,6.1799 4.4942,9.1797 1.6034,2.9997 3.3254,5.9307 5.207,8.7715 3.6887,5.5688 8.1138,11.6246 13.0313,17.957 4.9174,6.3324 10.3287,12.9422 15.9922,19.6211 5.6634,6.6789 11.5792,13.4268 17.5058,20.0351 5.9266,6.6084 11.8634,13.0765 17.5703,19.1973 11.4139,12.2416 21.9068,23.0919 29.5449,30.8809 5.3275,5.4326 6.7682,6.8414 8.6641,8.7304 2.6582,-1.4256 5.3209,-2.8751 7.9609,-4.2207 8.106,-4.1313 16.0627,-7.8767 23.4708,-11.1953 7.4081,-3.3186 14.2678,-6.2102 20.1816,-8.6289 11.8275,-4.8373 19.87,-7.7877 20.9414,-8.5019 1.0714,-0.7143 8.2842,-3.5296 19.375,-7.4278 5.5454,-1.9491 12.0596,-4.1677 19.2617,-6.5312 7.2021,-2.3635 15.0913,-4.871 23.3848,-7.3946 8.2934,-2.5235 16.9911,-5.0629 25.8105,-7.4921 8.8194,-2.4293 17.7611,-4.7476 26.541,-6.8282 8.78,-2.0805 17.3973,-3.9248 25.5723,-5.4023 4.0875,-0.7388 8.0643,-1.3855 11.8945,-1.9258 3.8303,-0.5403 7.5153,-0.9732 11.0176,-1.2832 9.3458,-0.8273 18.9022,-1.6094 28.5117,-2.0684 0.3817,-0.018 0.7647,-0.016 1.1465,-0.033 -0.5369,-3.4003 -1.2032,-7.3284 -2.3808,-16.5039 -0.7921,-6.1714 -1.5751,-12.9651 -2.1426,-19.457 -0.5675,-6.4919 -0.9204,-12.6835 -0.8496,-17.6523 0.077,-5.4041 0.1224,-10.8794 0.2793,-16.3653 0.1569,-5.4858 0.4259,-10.9824 0.9492,-16.4238 0.2617,-2.7207 0.5872,-5.4274 0.9941,-8.1133 0.407,-2.6859 0.8944,-5.351 1.4825,-7.9863 0.588,-2.6353 1.277,-5.2397 2.082,-7.8086 0.805,-2.5689 1.7274,-5.1012 2.7851,-7.5879 2.4707,-5.8084 5.1265,-12.0162 8.1016,-18.1621 1.4876,-3.073 3.0546,-6.1315 4.7188,-9.1152 1.6641,-2.9838 3.4243,-5.8931 5.2988,-8.6719 1.8745,-2.7789 3.862,-5.4266 5.9805,-7.8848 2.1184,-2.4582 4.3675,-4.7282 6.7636,-6.75 2.3961,-2.0218 4.941,-3.7959 7.6485,-5.2656 1.3537,-0.7349 2.7476,-1.3936 4.1855,-1.9688 1.4379,-0.5751 2.9191,-1.0658 4.4453,-1.4668 2.2642,-0.5948 4.8389,-0.9566 7.6114,-1.1328 2.7723,-0.1761 5.7422,-0.168 8.7968,-0.023 3.0546,0.1441 6.194,0.4249 9.3047,0.791 3.1107,0.3661 6.1921,0.8172 9.1328,1.3066 4.9543,0.8249 9.0595,1.7189 12.6699,2.5196 -1.4112,-5.4499 -2.8552,-11.5391 -4.2382,-16.4356 -2.8684,-10.1548 -5.6784,-19.162 -8.4395,-27.207 -2.7611,-8.045 -5.4741,-15.1278 -8.1465,-21.4277 -2.6723,-6.3 -5.304,-11.8186 -7.9062,-16.7383 -2.6022,-4.9197 -5.1741,-9.2402 -7.7246,-13.1445 -2.5506,-3.9044 -5.0802,-7.3908 -7.5977,-10.6446 -5.0349,-6.5075 -10.0212,-12.0798 -15.0351,-18.1738 -4.477,-5.3646 -8.9755,-10.4718 -13.4922,-15.332 -4.5167,-4.8603 -9.0529,-9.4727 -13.6075,-13.8516 -4.5545,-4.3789 -9.1262,-8.5227 -13.7167,-12.4434 -4.5907,-3.9206 -9.1993,-7.6181 -13.8243,-11.1035 -4.6249,-3.4854 -9.2664,-6.7588 -13.9238,-9.832 -4.6574,-3.0732 -9.3315,-5.9469 -14.0195,-8.6309 -4.6881,-2.6839 -9.3907,-5.1783 -14.1074,-7.4961 -4.7169,-2.3177 -9.4476,-4.4589 -14.1915,-6.4336 -4.7439,-1.9745 -9.5004,-3.7831 -14.2695,-5.4374 -4.7691,-1.6545 -9.5512,-3.1544 -14.3437,-4.5118 -4.7925,-1.3574 -9.5961,-2.5729 -14.4102,-3.6562 -4.8141,-1.0833 -9.6388,-2.0349 -14.4727,-2.8672 -4.8337,-0.8323 -9.6774,-1.5442 -14.5292,-2.1484 -4.8519,-0.6043 -9.7122,-1.1008 -14.5801,-1.5 -4.868,-0.3993 -9.7427,-0.7027 -14.625,-0.92 -4.8823,-0.2172 -9.7712,-0.3479 -14.666,-0.4062 -4.7151,-0.019 -9.543,0.1113 -14.4375,0.3086 -4.8946,0.1972 -9.8561,0.4606 -14.8399,0.7109 -4.9838,0.2504 -9.9898,0.4867 -14.9726,0.627 -4.9829,0.1402 -9.9424,0.1835 -14.834,0.051 -4.8916,-0.1329 -9.7157,-0.4421 -14.4258,-1.0117 -2.3551,-0.2847 -4.6819,-0.6341 -6.9746,-1.0586 -2.2928,-0.4244 -4.5504,-0.9251 -6.7695,-1.5097 -2.2192,-0.5846 -4.399,-1.2544 -6.5332,-2.0196 -2.1344,-0.7651 -4.2236,-1.6257 -6.2618,-2.5918 -2.0381,-0.966 -4.0263,-2.0372 -5.957,-3.2246 -1.9307,-1.1873 -3.8051,-2.4889 -5.6172,-3.9179 -5.8912,-5.1556 -11.5241,-10.51 -16.9082,-16.0547 -5.3841,-5.5448 -10.5195,-11.2812 -15.4121,-17.2031 -1.319,-1.5965 -2.4797,-3.3142 -3.7637,-4.9375 z"
           id="path6779"
           inkscape:connector-curvature="0"
           transform="scale(0.26458333)" />
      </g>
      <g
         inkscape:groupmode="layer"
         id="layer24"
         inkscape:label="Notriv's Valley"
         style="display:inline">
        <path
           style="display:inline;opacity:1;fill:#04e104;fill-opacity:1;fill-rule:nonzero;stroke:#010200;stroke-width:1.88976383;stroke-linejoin:round;stroke-miterlimit:4;stroke-dasharray:none;stroke-opacity:1"
           d="m 1002.0957,1679.3848 c 9.9231,3.8411 9.8114,3.8198 22.0918,8.5527 38.0628,14.6695 83.7788,32.1684 114.3848,43.4902 3.3196,1.2281 6.6164,2.5937 9.9004,4.0411 3.284,1.4473 6.5539,2.9778 9.8203,4.539 6.5327,3.1224 13.0487,6.3665 19.6191,9.3106 3.2852,1.472 6.5845,2.8696 9.9063,4.1386 3.3217,1.2691 6.6667,2.4086 10.0429,3.3692 3.3763,0.9605 6.7836,1.7407 10.2325,2.2871 3.4488,0.5464 6.939,0.86 10.4785,0.8867 3.0493,0.023 6.081,-0.068 9.0996,-0.2637 3.0185,-0.1954 6.0237,-0.4959 9.0136,-0.8906 2.99,-0.3947 5.9662,-0.8842 8.9297,-1.459 2.9635,-0.5747 5.9143,-1.2331 8.8536,-1.9687 5.8784,-1.4713 11.7095,-3.2467 17.5039,-5.2461 5.7943,-1.9995 11.5516,-4.2237 17.2793,-6.5977 5.7276,-2.374 11.4253,-4.8973 17.1035,-7.4922 5.6781,-2.5949 11.3363,-5.2616 16.9824,-7.9238 5.646,-2.6622 11.2809,-5.3187 16.9121,-7.8945 5.6312,-2.5758 11.2588,-5.0705 16.8926,-7.4063 8.9509,-3.7111 17.8837,-7.5074 26.7636,-11.4316 8.88,-3.9242 17.7075,-7.9768 26.4454,-12.2031 8.7378,-4.2264 17.3874,-8.6267 25.9121,-13.2442 8.5247,-4.6175 16.9237,-9.4529 25.164,-14.5508 3.1791,-1.9666 6.2894,-4.0406 9.3438,-6.1972 3.0543,-2.1567 6.0541,-4.3956 9.0117,-6.6914 5.9152,-4.5916 11.6638,-9.4108 17.3594,-14.2539 3.0952,-2.632 6.2913,-5.2142 9.5664,-7.7579 3.2751,-2.5436 6.6291,-5.0475 10.043,-7.5253 6.8278,-4.9557 13.8927,-9.8031 21.0292,-14.6309 7.1366,-4.8278 14.346,-9.6371 21.4629,-14.5176 7.117,-4.8805 14.1414,-9.8315 20.9102,-14.9453 3.3844,-2.5569 6.7037,-5.1556 9.9395,-7.8047 3.2357,-2.649 6.3875,-5.3495 9.4335,-8.1133 3.0461,-2.7638 5.9874,-5.5911 8.8028,-8.4922 2.8153,-2.9011 5.5053,-5.8745 8.0488,-8.9355 2.5435,-3.061 4.9412,-6.2078 7.1719,-9.4512 0.9401,-1.367 1.7221,-2.8262 2.6015,-4.2285 -4.8339,-3.955 -9.7046,-7.8787 -14.5136,-11.832 -5.2447,-4.3115 -10.4132,-8.6621 -15.377,-13.1465 -2.4819,-2.2422 -4.9128,-4.5182 -7.2754,-6.8379 -2.3625,-2.3197 -4.6567,-4.6835 -6.8672,-7.1035 -2.2104,-2.42 -4.3377,-4.8964 -6.3632,-7.4395 -2.0256,-2.543 -3.95,-5.1528 -5.7579,-7.8418 -1.8078,-2.6889 -3.4991,-5.4567 -5.0566,-8.3144 -1.5575,-2.8577 -2.9816,-5.8063 -4.2559,-8.8555 -1.4614,-3.4971 -2.7403,-7.0851 -3.8437,-10.7461 -1.1035,-3.661 -2.0305,-7.3948 -2.7871,-11.1777 -0.7566,-3.7829 -1.3427,-7.6159 -1.7637,-11.4785 -0.4209,-3.8626 -0.677,-7.754 -0.7734,-11.6543 -0.096,-3.9003 -0.033,-7.8092 0.1836,-11.7051 0.2168,-3.8959 0.5865,-7.7795 1.1054,-11.6289 0.519,-3.8494 1.1862,-7.665 1.9961,-11.4258 0.81,-3.7608 1.7619,-7.4655 2.8516,-11.0957 1.5277,-5.0893 3.2888,-10.1444 5.2656,-15.1406 1.9769,-4.9963 4.1695,-9.9338 6.5664,-14.793 2.397,-4.8591 4.9972,-9.6404 7.7852,-14.3183 0.228,-0.3826 0.498,-0.74 0.7285,-1.1211 -1.5032,-1.6409 -2.9697,-3.3185 -4.5332,-4.8985 -2.7045,-2.7329 -5.4964,-5.3776 -8.3672,-7.9414 -2.8708,-2.5637 -5.8205,-5.0459 -8.8398,-7.457 -3.0193,-2.4111 -6.108,-4.7504 -9.2578,-7.0254 -3.1499,-2.275 -6.3605,-4.4871 -9.6231,-6.6426 -6.5253,-4.3109 -13.2578,-8.3978 -20.1269,-12.3301 -6.8692,-3.9322 -13.8753,-7.7084 -20.9454,-11.3945 -7.07,-3.6861 -14.2039,-7.2829 -21.332,-10.8555 -7.1281,-3.5725 -14.2496,-7.1214 -21.293,-10.7128 -7.0433,-3.5915 -14.0085,-7.2258 -20.8242,-10.9688 -4.3439,-2.3856 -8.8405,-4.4693 -13.4082,-6.4102 -4.5677,-1.9408 -9.207,-3.738 -13.8379,-5.5507 -4.6308,-1.8128 -9.2536,-3.6414 -13.7871,-5.6426 -4.5334,-2.0012 -8.9765,-4.1754 -13.2519,-6.6817 -2.7525,-1.6135 -5.401,-3.4052 -7.9746,-5.3222 -2.5737,-1.917 -5.0742,-3.9602 -7.5293,-6.0742 -4.9104,-4.2282 -9.6437,-8.7437 -14.4414,-13.1211 -2.3989,-2.1888 -4.8143,-4.3419 -7.2754,-6.4082 -2.4611,-2.0664 -4.9673,-4.0454 -7.5508,-5.8829 -2.5836,-1.8374 -5.2435,-3.535 -8.0098,-5.0371 -2.7662,-1.502 -5.6392,-2.8089 -8.6484,-3.8691 -2.9776,-1.0491 -6.0134,-1.9896 -9.0957,-2.8184 -3.0823,-0.8287 -6.21,-1.5456 -9.3692,-2.1484 -3.1591,-0.6028 -6.3505,-1.0917 -9.5586,-1.4629 -3.208,-0.3712 -6.433,-0.6238 -9.6621,-0.7578 -3.2291,-0.134 -6.4632,-0.1498 -9.6855,-0.041 -3.2223,0.1088 -6.4335,0.342 -9.6211,0.6992 -3.1876,0.3572 -6.3496,0.84 -9.4746,1.4512 -3.125,0.6112 -6.2135,1.3498 -9.2481,2.2207 -1.8328,0.526 -3.6193,1.1489 -5.3652,1.8574 -1.7459,0.7085 -3.4507,1.5037 -5.1211,2.3711 -3.3407,1.7348 -6.5417,3.7638 -9.6484,5.9922 -3.1068,2.2283 -6.1183,4.6549 -9.0821,7.1875 -2.9638,2.5326 -5.879,5.1707 -8.791,7.8183 -2.9119,2.6476 -5.8203,5.3056 -8.7715,7.8789 -2.9511,2.5733 -5.9459,5.0614 -9.0273,7.3711 -3.0814,2.3098 -6.25,4.44 -9.5527,6.2969 -1.6514,0.9285 -3.3368,1.7886 -5.0606,2.5684 -1.7237,0.7797 -3.4854,1.4805 -5.293,2.0879 -3.2769,1.1011 -7.0301,1.9935 -11.0878,2.7129 -4.0578,0.7193 -8.4197,1.2645 -12.918,1.6718 -4.4984,0.4074 -9.1335,0.6767 -13.7324,0.8418 -4.5989,0.1651 -9.1622,0.2262 -13.5215,0.2188 -2.8801,0 -4.7267,-0.1404 -7.3789,-0.1953 -1.9279,4.4793 -3.8681,9.0173 -5.9121,13.5195 -2.0777,4.5764 -4.2611,9.1144 -6.6368,13.5098 -2.3756,4.3954 -4.9438,8.6499 -7.7968,12.6582 -1.4265,2.0041 -2.9245,3.9457 -4.5039,5.8144 -1.5795,1.8687 -3.2413,3.6636 -4.9961,5.3711 -1.8892,1.8382 -3.7496,3.6178 -5.6407,5.2656 -1.8911,1.6479 -3.8131,3.1629 -5.8281,4.4727 -2.015,1.3098 -4.1218,2.4143 -6.3828,3.2383 -1.1305,0.4119 -2.3007,0.7547 -3.5156,1.0176 -1.2149,0.2628 -2.4746,0.4458 -3.7891,0.541 -1.4984,0.1085 -2.9565,0.076 -4.3847,-0.059 -1.4283,-0.1347 -2.8279,-0.3721 -4.2051,-0.6739 -2.7545,-0.6035 -5.4244,-1.4652 -8.0899,-2.2812 -2.6655,-0.816 -5.3248,-1.5854 -8.0547,-2.0059 -1.3649,-0.2102 -2.7484,-0.3327 -4.1582,-0.33 -1.4097,0 -2.8465,0.1303 -4.3203,0.4218 -1.712,0.3387 -3.384,0.8158 -5.0215,1.4063 -1.6375,0.5905 -3.2406,1.2936 -4.8183,2.082 -3.1554,1.5768 -6.2047,3.496 -9.209,5.541 -3.00433,2.0451 -5.96266,4.2168 -8.93359,6.2989 -2.97094,2.082 -5.95458,4.0739 -9.00977,5.7617 -9.36678,5.1745 -15.45798,9.2408 -21.74414,12.8613 -3.14308,1.8102 -6.33497,3.5092 -10.00977,5.1797 -3.67479,1.6705 -7.83183,3.3131 -12.90625,5.0098 -4.13489,1.3824 -7.97868,2.4252 -11.67578,3.3281 -3.6971,0.9029 -7.24804,1.6647 -10.79882,2.4863 -3.55079,0.8216 -7.10092,1.7032 -10.79688,2.8418 -3.69596,1.1386 -7.53731,2.5348 -11.66992,4.3887 -1.59609,0.716 -3.39021,1.2345 -5.32422,1.5937 -1.93401,0.3593 -4.00889,0.5592 -6.16797,0.6328 -2.15908,0.074 -4.40253,0.022 -6.67383,-0.1191 -2.2713,-0.1407 -4.57112,-0.3704 -6.84179,-0.6543 -4.54136,-0.5677 -8.9683,-1.3495 -12.83008,-2.0625 -3.86179,-0.713 -7.15806,-1.3578 -9.4375,-1.6465 -3.191,-0.4041 -6.90672,-0.7261 -10.54492,-1.3066 -1.81911,-0.2903 -3.61977,-0.6456 -5.32422,-1.1074 -1.532,-0.4152 -2.9479,-0.9514 -4.27149,-1.5704 1.87473,1.7648 3.76741,3.4327 5.69922,4.9864 3.89184,3.13 7.71967,6.0163 11.48047,8.6738 3.7608,2.6575 7.45396,5.0879 11.07813,7.3027 3.62416,2.2149 7.1782,4.2155 10.66015,6.0176 3.48196,1.8022 6.89241,3.4049 10.22656,4.8242 3.33416,1.4193 6.59266,2.6544 9.77344,3.7207 3.18078,1.0664 6.28288,1.9638 9.30469,2.7071 3.02181,0.7433 5.96305,1.333 8.82031,1.7832 2.85727,0.4501 5.63123,0.7604 8.31836,0.9472 3.95642,0.9463 7.82619,2.0017 11.60156,3.1739 3.77537,1.1722 7.45618,2.4616 11.03516,3.8789 3.57898,1.4172 7.05657,2.9631 10.42383,4.6445 3.36725,1.6814 6.62542,3.4981 9.76562,5.4629 3.1402,1.9647 6.16274,4.0765 9.06055,6.3437 2.89781,2.2672 5.67046,4.6906 8.31055,7.2793 2.64008,2.5888 5.14664,5.344 7.51367,8.2735 2.36703,2.9295 4.59324,6.0329 6.67187,9.3222 2.87698,4.9996 5.53276,9.8482 7.97461,14.6387 2.44186,4.7906 4.6705,9.524 6.69922,14.293 2.02867,4.769 3.85657,9.573 5.49417,14.5078 1.6375,4.9348 3.0851,10.001 4.3535,15.2891 1.3235,5.5177 2.4869,10.626 3.2754,15.5566 0.3942,2.4653 0.6954,4.8867 0.875,7.291 0.1796,2.4043 0.2375,4.7929 0.1484,7.1934 -0.089,2.4005 -0.3246,4.8136 -0.7363,7.2676 -0.4117,2.4539 -0.9989,4.9471 -1.7871,7.5117 -0.7883,2.5646 -1.7773,5.1992 -2.9961,7.9316 -1.2188,2.7325 -2.6679,5.564 -4.3711,8.5215 -0.8706,2.4106 -1.6779,5.0211 -2.4199,7.8203 -0.7421,2.7992 -1.41786,5.7857 -2.02738,8.9473 -0.60951,3.1615 -1.15204,6.4984 -1.625,9.9961 -0.47295,3.4976 -0.8766,7.1572 -1.20898,10.9648 -0.66475,7.6152 -1.04474,15.8242 -1.12305,24.5215 -0.0783,8.6973 0.14524,17.8836 0.68555,27.4531 0.54031,9.5696 1.3968,19.522 2.58789,29.7539 0.96028,8.2492 2.29897,16.7795 3.70117,25.336 z"
           id="path6765"
           inkscape:connector-curvature="0"
           transform="scale(0.26458333)" />
      </g>
      <g
         inkscape:groupmode="layer"
         id="layer21"
         inkscape:label="Wetwood"
         style="display:inline">
        <path
           style="display:inline;opacity:1;fill:#04e104;fill-opacity:1;fill-rule:nonzero;stroke:#010200;stroke-width:1.88976383;stroke-linejoin:round;stroke-miterlimit:4;stroke-dasharray:none;stroke-opacity:1"
           d="m 953.41211,800.28711 c -1.53968,0.01 -3.04602,0.10524 -4.51367,0.30859 -1.46765,0.20336 -2.89661,0.51492 -4.2793,0.95899 -1.62586,0.52216 -3.19508,1.14025 -4.7207,1.83984 -1.52563,0.69959 -3.00878,1.4808 -4.45899,2.32617 -2.90041,1.69075 -5.67423,3.64056 -8.42187,5.72461 -2.74765,2.08406 -5.46832,4.30115 -8.26172,6.52539 -2.7934,2.22424 -5.65957,4.45706 -8.69727,6.56836 -3.03769,2.1113 -6.2474,4.10194 -9.59375,5.89453 -3.34634,1.7926 -6.82885,3.38571 -10.41406,4.70118 -1.7926,0.65773 -3.60998,1.24713 -5.44922,1.75585 -1.83923,0.50875 -3.70098,0.93739 -5.57812,1.27735 -1.87714,0.33996 -3.77142,0.59082 -5.67774,0.74219 -1.90632,0.15137 -3.82322,0.2035 -5.75,0.14648 -3.4397,-0.10176 -6.90357,-0.0259 -10.37695,0.10938 -3.47338,0.13524 -6.95691,0.32938 -10.43945,0.46679 -3.48255,0.13742 -6.96446,0.21831 -10.43164,0.12305 -3.46719,-0.0953 -6.92036,-0.3669 -10.34766,-0.92969 -1.71365,-0.28139 -3.28587,-0.78364 -4.75195,-1.45898 -1.46608,-0.67534 -2.82525,-1.52328 -4.11133,-2.4961 -1.28608,-0.97281 -2.50018,-2.0703 -3.67383,-3.24414 -1.17365,-1.17383 -2.30675,-2.42474 -3.43555,-3.70312 -2.25759,-2.55677 -4.49297,-5.2249 -6.97656,-7.6211 -1.24179,-1.19809 -2.54566,-2.32853 -3.94531,-3.34179 -1.39661,-1.01106 -2.89073,-1.90564 -4.51172,-2.63672 -1.51451,1.8404 -3.09547,3.53058 -4.58789,5.39453 -3.48017,3.16231 -7.2942,6.29368 -11.29883,9.56055 -4.00463,3.26686 -8.20167,6.66949 -12.44531,10.37304 -4.24365,3.70356 -8.5352,7.70926 -12.73242,12.18164 -0.004,0.004 -0.008,0.009 -0.0117,0.0137 -2.09451,2.23236 -4.16572,4.58049 -6.19531,7.0664 -2.03349,2.49068 -4.02436,5.11763 -5.95704,7.9043 -1.68932,2.43579 -3.13194,5.08408 -4.35156,7.93359 -1.21962,2.84951 -2.21639,5.89983 -3.01172,9.14453 -0.79532,3.2447 -1.39019,6.68333 -1.80664,10.30469 -0.41644,3.62136 -0.6553,7.42677 -0.73828,11.40625 -0.083,3.97949 -0.01,8.13209 0.19531,12.45117 0.0419,0.88216 0.15037,1.85024 0.20313,2.7461 0.20556,3.4903 0.43083,7.00681 0.78711,10.69922 0.89544,9.28028 2.23069,19.18337 3.82422,29.63671 1.02145,6.86958 2.23535,13.70931 3.15625,20.75782 0.46044,3.52425 0.84765,7.10085 1.10156,10.75976 0.25391,3.65892 0.37433,7.40038 0.30078,11.25388 -0.0736,3.8535 -0.34134,7.8177 -0.86328,11.9258 -0.52194,4.1081 -1.29937,8.3586 -2.39063,12.7812 -1.09125,4.4226 -2.49584,9.0174 -4.27734,13.8145 -1.7815,4.7971 -3.93858,9.7978 -6.53125,15.0293 -1.25621,2.2225 -2.40967,4.5044 -3.4707,6.8437 -1.06104,2.3394 -2.03074,4.7364 -2.91797,7.1875 -0.88723,2.4512 -1.69295,4.9557 -2.42774,7.5137 -0.73478,2.558 -1.39825,5.1684 -2.00195,7.8281 -1.2074,5.3195 -2.17312,10.8369 -2.98437,16.5332 -0.81125,5.6964 -1.46868,11.5725 -2.05469,17.6055 -0.53306,5.4879 -0.86958,11.0678 -0.94141,16.8594 -0.0661,5.3286 0.16125,10.8984 0.59961,16.6777 0.0381,0.5022 0.0104,0.9429 0.0527,1.4492 0.5297,6.3336 1.39446,12.9994 2.66601,20.1133 1.27155,7.1139 2.94982,14.6761 5.10352,22.8086 1.61065,3.6805 3.46465,7.372 5.51758,11.0508 2.05293,3.6788 4.30502,7.3454 6.71093,10.9805 2.40592,3.6351 4.96515,7.2376 7.63477,10.7871 2.66962,3.5494 5.44893,7.0468 8.29297,10.4687 2.84403,3.4219 5.75247,6.7692 8.68164,10.0215 1.38216,1.5347 2.76783,2.969 4.15429,4.459 1.55185,1.6677 3.10558,3.3842 4.6504,4.9902 5.85001,6.0818 11.60076,11.6996 16.89843,16.6836 5.19326,4.8859 9.90595,9.791 14.29688,14.5957 4.39093,4.8047 8.4606,9.5092 12.36719,13.9942 3.90658,4.4849 7.6504,8.749 11.39062,12.6757 1.87011,1.9634 3.74077,3.842 5.62891,5.6211 0.0137,0.013 0.0273,0.024 0.041,0.037 1.32359,0.619 2.73949,1.1552 4.27149,1.5704 1.70445,0.4618 3.50511,0.8171 5.32422,1.1074 3.6382,0.5805 7.35392,0.9025 10.54492,1.3066 2.27944,0.2887 5.57571,0.9335 9.4375,1.6465 3.86178,0.713 8.28872,1.4948 12.83008,2.0625 2.27067,0.2839 4.57049,0.5136 6.84179,0.6543 2.2713,0.1407 4.51475,0.1928 6.67383,0.1191 2.15908,-0.074 4.23396,-0.2735 6.16797,-0.6328 1.93401,-0.3592 3.72813,-0.8777 5.32422,-1.5937 4.13261,-1.8539 7.97396,-3.2501 11.66992,-4.3887 3.69596,-1.1386 7.24609,-2.0202 10.79688,-2.8418 3.55076,-0.8216 7.10172,-1.5834 10.79882,-2.4863 3.6971,-0.9029 7.54089,-1.9457 11.67578,-3.3281 5.07442,-1.6967 9.23146,-3.3393 12.90625,-5.0098 3.6748,-1.6705 6.86669,-3.3695 10.00977,-5.1797 6.28616,-3.6205 12.37736,-7.6868 21.74414,-12.8613 3.05519,-1.6878 6.03883,-3.6797 9.00977,-5.7617 2.97093,-2.0821 5.92926,-4.2538 8.93359,-6.2989 3.00433,-2.045 6.05363,-3.9642 9.20903,-5.541 1.5777,-0.7884 3.1808,-1.4915 4.8183,-2.082 1.6375,-0.5905 3.3095,-1.0676 5.0215,-1.4063 1.4738,-0.2915 2.9106,-0.4192 4.3203,-0.4218 1.4098,0 2.7933,0.1198 4.1582,0.33 2.7299,0.4205 5.3892,1.1899 8.0547,2.0059 2.6655,0.816 5.3354,1.6777 8.0899,2.2812 1.3772,0.3018 2.7768,0.5392 4.2051,0.6739 1.4282,0.1346 2.8863,0.1663 4.3847,0.059 1.3145,-0.095 2.5742,-0.2782 3.7891,-0.541 1.2149,-0.2629 2.3851,-0.6057 3.5156,-1.0176 2.261,-0.824 4.3678,-1.9285 6.3828,-3.2383 2.015,-1.3098 3.937,-2.8248 5.8281,-4.4727 1.8911,-1.6478 3.7515,-3.4274 5.6407,-5.2656 1.7548,-1.7075 3.4166,-3.5024 4.9961,-5.3711 1.5794,-1.8687 3.0774,-3.8103 4.5039,-5.8144 2.853,-4.0083 5.4212,-8.2628 7.7968,-12.6582 2.3757,-4.3954 4.5591,-8.9334 6.6368,-13.5098 2.044,-4.5022 3.9842,-9.0402 5.9121,-13.5195 0.032,-0.074 0.066,-0.1489 0.098,-0.2227 1.9591,-4.5511 3.9046,-9.0377 5.7012,-13.5137 1.7966,-4.4759 3.4454,-8.9402 4.8125,-13.4472 0.6836,-2.2535 1.2962,-4.5176 1.8223,-6.7989 0.5261,-2.2812 0.9655,-4.5801 1.3007,-6.9023 0.3353,-2.3222 0.5667,-4.6684 0.6778,-7.0449 0.111,-2.3765 0.1018,-4.7825 -0.045,-7.2266 -0.177,-2.9509 -0.584,-5.8442 -1.1914,-8.6816 -0.6075,-2.8374 -1.4158,-5.619 -2.3965,-8.3457 -0.9807,-2.7268 -2.133,-5.3987 -3.4297,-8.0176 -1.2967,-2.6189 -2.7375,-5.1854 -4.293,-7.6992 -1.0877,-1.7579 -2.2673,-3.4353 -3.5098,-5.0567 -1.2424,-1.6213 -2.548,-3.1861 -3.8867,-4.7168 -2.6773,-3.0613 -5.488,-5.9871 -8.1992,-8.9609 -2.7112,-2.9738 -5.3227,-5.9969 -7.5996,-9.25 -1.1385,-1.6265 -2.1946,-3.311 -3.1367,-5.0762 -0.9421,-1.7651 -1.77,-3.6109 -2.457,-5.5605 -0.5958,-1.69 -1.0754,-3.4083 -1.4629,-5.1504 -0.3876,-1.7421 -0.6832,-3.5075 -0.9141,-5.2891 -0.4618,-3.563 -0.6625,-7.1928 -0.8066,-10.8379 -0.1442,-3.645 -0.2323,-7.3057 -0.4707,-10.9316 -0.2385,-3.6259 -0.6263,-7.2171 -1.3711,-10.7227 -0.8692,-4.091 -1.6709,-8.0886 -2.5567,-11.9804 -0.8857,-3.8919 -1.8573,-7.6769 -3.0664,-11.3418 -0.6045,-1.8325 -1.2669,-3.6357 -2.0098,-5.4063 -0.7428,-1.7705 -1.5647,-3.5077 -2.4843,-5.2129 -0.9196,-1.7051 -1.9376,-3.3773 -3.0723,-5.0136 -1.1347,-1.6364 -2.3873,-3.2387 -3.7754,-4.8028 -1.0153,-1.14388 -2.2402,-2.27458 -3.6328,-3.39058 -1.3926,-1.11599 -2.953,-2.21642 -4.6367,-3.29882 -3.3675,-2.16486 -7.2309,-4.25667 -11.2461,-6.25391 -8.0305,-3.99448 -16.6661,-7.60885 -23.1524,-10.66602 -3.103,-1.46257 -5.6103,-2.46109 -7.6757,-3.32226 -2.0654,-0.86118 -3.6904,-1.58497 -5.0293,-2.50391 -0.6695,-0.45947 -1.2663,-0.96893 -1.8125,-1.5664 -0.5462,-0.5975 -1.0421,-1.28364 -1.5039,-2.10157 -0.92386,-1.63585 -1.71757,-3.79472 -2.53718,-6.80664 -0.34432,-1.26532 -0.48047,-2.53664 -0.44531,-3.81445 0.0352,-1.27781 0.24162,-2.56265 0.58594,-3.85742 0.34431,-1.29478 0.827,-2.5998 1.41015,-3.91602 0.5832,-1.31622 1.2679,-2.64418 2.0196,-3.98633 1.5033,-2.68429 3.2737,-5.42341 5.0293,-8.23828 1.7555,-2.81486 3.4962,-5.70427 4.9414,-8.68555 2.7441,-5.66089 4.9851,-10.66862 7.6445,-15.38085 1.3297,-2.35612 2.7638,-4.63964 4.418,-6.89258 1.6542,-2.25295 3.5291,-4.47575 5.7383,-6.71485 1.1766,-1.19282 2.318,-2.20481 3.4374,-3.07617 1.1197,-0.87135 2.2178,-1.60173 3.3028,-2.23633 2.1699,-1.26919 4.2927,-2.15004 6.459,-2.98046 2.1663,-0.83045 4.3759,-1.61226 6.7187,-2.68165 1.1714,-0.53469 2.3757,-1.13983 3.625,-1.86132 1.2493,-0.7215 2.5428,-1.55778 3.8926,-2.55079 2.8553,-2.10063 6.2718,-4.70137 9.8477,-7.63281 3.5758,-2.93144 7.3112,-6.19332 10.8085,-9.62109 1.7487,-1.71389 3.4384,-3.46888 5.0176,-5.24414 1.5792,-1.77526 3.0476,-3.57237 4.3574,-5.36719 1.3099,-1.79482 2.4598,-3.58875 3.4004,-5.36133 0.9407,-1.77258 1.6731,-3.52389 2.1446,-5.23242 0.8805,-3.19086 1.5649,-5.99718 1.9375,-8.54492 0.1862,-1.27387 0.295,-2.48295 0.3105,-3.64258 0.015,-1.15963 -0.062,-2.26929 -0.2461,-3.3457 -0.1845,-1.07641 -0.477,-2.12032 -0.8906,-3.14453 -0.4136,-1.02422 -0.9491,-2.03016 -1.6211,-3.03321 -0.672,-1.00304 -1.4799,-2.00272 -2.4395,-3.01562 -0.9593,-1.0129 -2.0714,-2.03802 -3.3476,-3.0918 -2.2397,-1.84928 -4.5102,-3.36985 -6.8203,-4.61719 -1.5448,-0.83408 -3.1341,-1.38458 -4.7149,-1.99023 -0.7832,-0.30008 -1.5432,-0.73633 -2.3359,-0.98633 -2.3927,-0.75457 -4.8312,-1.28921 -7.3184,-1.66015 -2.4871,-0.37097 -5.0234,-0.57731 -7.6171,-0.67383 -5.1876,-0.19304 -10.6012,0.053 -16.2872,0.30273 -5.686,0.24971 -11.645,0.50314 -17.9257,0.32227 -3.1404,-0.0905 -6.3361,-0.30147 -9.5801,-0.58789 -3.244,-0.28643 -6.5355,-0.64955 -9.8692,-1.04297 -6.66733,-0.78685 -13.50113,-1.69793 -20.44335,-2.37891 -3.40106,-0.33361 -6.82545,-0.89075 -10.22265,-1.48242 -3.39721,-0.59167 -6.76667,-1.21734 -10.05664,-1.69141 -3.28997,-0.47407 -6.50072,-0.79654 -9.58008,-0.77734 z"
           id="path6775"
           inkscape:connector-curvature="0"
           transform="scale(0.26458333)" />
      </g>
      <g
         inkscape:groupmode="layer"
         id="layer26"
         inkscape:label="Lim Central"
         style="display:inline">
        <path
           style="display:inline;opacity:1;fill:#04e104;fill-opacity:1;fill-rule:nonzero;stroke:#010200;stroke-width:1.88976383;stroke-linejoin:round;stroke-miterlimit:4;stroke-dasharray:none;stroke-opacity:1"
           d="m 1543.2383,734.27344 c -1.0129,-0.70463 -1.6364,-1.16134 -4.3301,-2.94532 -4.012,-2.65704 -9.5995,-6.24211 -15.8984,-9.95703 -3.1495,-1.85746 -6.4773,-3.74627 -9.875,-5.56836 -3.3977,-1.82208 -6.8646,-3.57725 -10.295,-5.16406 -3.4303,-1.58681 -6.823,-3.00656 -10.0703,-4.1582 -3.2473,-1.15165 -6.3486,-2.03615 -9.1972,-2.55274 -2.2703,-0.41169 -4.5455,-0.61768 -6.8223,-0.66406 -2.2768,-0.0464 -4.5551,0.0681 -6.8379,0.29688 -4.5656,0.45747 -9.1442,1.37386 -13.7305,2.39062 -4.5862,1.01676 -9.1806,2.13381 -13.7832,2.98828 -2.3012,0.42724 -4.6056,0.78965 -6.9101,1.04102 -2.3045,0.25137 -4.6088,0.39164 -6.916,0.37695 -6.2423,-0.0397 -12.572,-0.0507 -18.9121,-0.19726 -6.3402,-0.14653 -12.691,-0.42825 -18.9805,-1.01172 -3.1448,-0.29174 -6.2747,-0.66017 -9.3789,-1.12305 -3.1043,-0.46287 -6.1834,-1.02003 -9.2285,-1.69531 -3.0452,-0.67528 -6.056,-1.46753 -9.0235,-2.39649 -2.9674,-0.92895 -5.8924,-1.99485 -8.7636,-3.21875 -3.1256,-1.33232 -6.0791,-2.94669 -8.9043,-4.77343 -2.8253,-1.82675 -5.5224,-3.86601 -8.1309,-6.05079 -2.6085,-2.18477 -5.1281,-4.51545 -7.6035,-6.92187 -2.4754,-2.40642 -4.9062,-4.88919 -7.332,-7.38086 -2.4259,-2.49167 -4.8467,-4.9911 -7.3067,-7.43164 -2.4599,-2.44054 -4.9595,-4.82119 -7.5371,-7.07422 -2.5776,-2.25303 -5.2348,-4.37947 -8.0137,-6.30859 -2.7789,-1.92913 -5.6783,-3.66202 -8.7422,-5.13086 -1.0581,-0.50728 -2.1496,-0.91796 -3.2656,-1.25781 -1.1159,-0.33986 -2.2568,-0.60776 -3.414,-0.82813 -2.3144,-0.44073 -4.6942,-0.69107 -7.0743,-0.94141 -2.38,-0.25033 -4.7611,-0.50194 -7.0742,-0.94531 -1.1565,-0.22168 -2.2952,-0.4902 -3.4101,-0.83203 -1.115,-0.34183 -2.2049,-0.75572 -3.2618,-1.26562 -1.191,-0.57464 -2.3076,-1.35134 -3.3691,-2.26368 -1.0615,-0.91233 -2.0682,-1.96191 -3.041,-3.08593 -1.9456,-2.24805 -3.7541,-4.79214 -5.5899,-7.13086 -0.9178,-1.16936 -1.8432,-2.288 -2.7949,-3.29102 -0.9517,-1.00301 -1.9307,-1.8909 -2.957,-2.60156 -1.0264,-0.71066 -2.1004,-1.24287 -3.2422,-1.53516 -1.1418,-0.29229 -2.3503,-0.34388 -3.6484,-0.0918 -2.112,0.41012 -4.08,1.01125 -5.9161,1.78515 -1.836,0.7739 -3.5412,1.71983 -5.1308,2.82031 -1.5896,1.10049 -3.063,2.35426 -4.4356,3.74415 -1.3725,1.38988 -2.6432,2.91649 -3.8281,4.55859 -1.1848,1.6421 -2.284,3.40068 -3.3105,5.25781 -1.0266,1.85713 -1.9813,3.81269 -2.8789,5.84766 -1.7954,4.06994 -3.3622,8.45743 -4.8184,13.01562 -2.9123,9.11638 -5.3808,18.91285 -8.3477,28.19727 -1.4834,4.64221 -3.0915,9.15655 -4.9414,13.39453 -0.9249,2.11899 -1.91,4.1687 -2.9707,6.13086 -1.0606,1.96215 -2.1961,3.83538 -3.4218,5.60351 -2.1408,3.08811 -4.5133,6.00064 -6.9981,8.82422 -2.4847,2.82358 -5.0819,5.55897 -7.6777,8.29688 -2.5958,2.73791 -5.1902,5.4775 -7.6641,8.30859 -2.4738,2.83109 -4.8283,5.75431 -6.9472,8.85742 -1.085,1.58893 -2.0539,3.26103 -2.9434,4.99219 -0.8895,1.73116 -1.699,3.52164 -2.4629,5.3418 -1.5277,3.64031 -2.8749,7.40521 -4.3184,11.08203 -0.7217,1.83841 -1.4661,3.6542 -2.2714,5.42187 -0.8053,1.76768 -1.6703,3.48717 -2.6289,5.13086 -0.9587,1.6437 -2.0117,3.21127 -3.1934,4.67774 -1.1817,1.46647 -2.4923,2.8304 -3.9668,4.0664 -1.2117,1.01576 -2.5545,1.997 -4.0059,2.94336 -1.4514,0.94637 -3.0111,1.85858 -4.6601,2.73633 -3.298,1.75552 -6.9491,3.37551 -10.7852,4.86133 -3.8361,1.48582 -7.8567,2.83812 -11.8945,4.06055 -4.0378,1.22242 -8.093,2.31396 -11.9961,3.27929 -7.5186,1.85956 -14.3177,3.19499 -19.5098,4.13477 1.5808,0.60565 3.1701,1.15615 4.7149,1.99023 2.3101,1.24734 4.5806,2.76791 6.8203,4.61719 1.2762,1.05378 2.3881,2.0789 3.3476,3.0918 0.9596,1.0129 1.7675,2.01258 2.4395,3.01562 0.672,1.00305 1.2075,2.00899 1.6211,3.03321 0.4136,1.02421 0.7061,2.06812 0.8906,3.14453 0.1845,1.07641 0.2616,2.18607 0.2461,3.3457 -0.015,1.15963 -0.1243,2.36871 -0.3105,3.64258 -0.3726,2.54774 -1.057,5.35406 -1.9375,8.54492 -0.4715,1.70853 -1.2039,3.45984 -2.1446,5.23242 -0.9406,1.77258 -2.0905,3.56651 -3.4004,5.36133 -1.3098,1.79482 -2.7782,3.59193 -4.3574,5.36719 -1.5792,1.77526 -3.2689,3.53025 -5.0176,5.24414 -3.4973,3.42777 -7.2327,6.68965 -10.8085,9.62109 -3.5759,2.93144 -6.9924,5.53216 -9.8477,7.63281 -1.3498,0.99301 -2.6433,1.82929 -3.8926,2.55079 -1.2493,0.72149 -2.4536,1.32663 -3.625,1.86132 -2.3428,1.06939 -4.5524,1.8512 -6.7187,2.68165 -2.1663,0.83044 -4.2891,1.71127 -6.459,2.98046 -1.085,0.6346 -2.1831,1.36498 -3.3028,2.23633 -1.1196,0.87136 -2.2606,1.88335 -3.4374,3.07617 -2.2092,2.2391 -4.0841,4.4619 -5.7383,6.71485 -1.6542,2.25294 -3.0883,4.53646 -4.418,6.89258 -2.6594,4.71223 -4.9004,9.71994 -7.6445,15.38085 -1.4452,2.98128 -3.1859,5.87069 -4.9414,8.68555 -1.7556,2.81487 -3.526,5.55399 -5.0293,8.23828 -0.7517,1.34215 -1.4364,2.67011 -2.01957,3.98633 -0.58315,1.31622 -1.06584,2.62124 -1.41015,3.91602 -0.34432,1.29477 -0.55078,2.57961 -0.58594,3.85742 -0.0352,1.27781 0.10099,2.54913 0.44531,3.81445 0.81961,3.01192 1.61343,5.17079 2.53715,6.80664 0.4618,0.81793 0.9577,1.50407 1.5039,2.10157 0.5462,0.59749 1.143,1.10693 1.8125,1.5664 1.3389,0.91894 2.9639,1.64273 5.0293,2.50391 2.0654,0.86117 4.5727,1.85969 7.6757,3.32226 6.4863,3.05717 15.1219,6.67154 23.1524,10.66602 4.0152,1.99724 7.8786,4.08905 11.2461,6.25391 1.6837,1.08242 3.2441,2.18283 4.6367,3.29882 1.3926,1.116 2.6175,2.24662 3.6328,3.39061 1.3881,1.5641 2.6407,3.1664 3.7754,4.8028 1.1347,1.6363 2.1527,3.3085 3.0723,5.0136 0.9196,1.7052 1.7415,3.4424 2.4843,5.2129 0.7429,1.7706 1.4053,3.5738 2.0098,5.4063 1.2091,3.6649 2.1807,7.4499 3.0664,11.3418 0.8858,3.8918 1.6875,7.8894 2.5567,11.9804 0.7448,3.5056 1.1326,7.0968 1.3711,10.7227 0.2384,3.6259 0.3265,7.2866 0.4707,10.9316 0.1441,3.6451 0.3448,7.2749 0.8066,10.8379 0.2309,1.7816 0.5265,3.547 0.9141,5.2891 0.3875,1.7421 0.8671,3.4604 1.4629,5.1504 0.6872,1.9496 1.5149,3.7954 2.457,5.5605 0.9421,1.7652 1.9982,3.4497 3.1367,5.0762 2.2769,3.2531 4.8884,6.2762 7.5996,9.25 2.7112,2.9738 5.5219,5.8996 8.1992,8.9609 1.3387,1.5307 2.6443,3.0955 3.8867,4.7168 1.2425,1.6214 2.4221,3.2988 3.5098,5.0567 1.5555,2.5138 2.9963,5.0803 4.293,7.6992 1.2967,2.6189 2.449,5.2908 3.4297,8.0176 0.9807,2.7267 1.789,5.5083 2.3965,8.3457 0.6074,2.8374 1.0144,5.7307 1.1914,8.6816 0.1465,2.4441 0.1559,4.8501 0.045,7.2266 -0.1111,2.3765 -0.3425,4.7227 -0.6778,7.0449 -0.3352,2.3222 -0.7746,4.6211 -1.3007,6.9023 -0.5261,2.2813 -1.1387,4.5454 -1.8223,6.7989 -1.3671,4.507 -3.0159,8.9713 -4.8125,13.4472 -1.7966,4.476 -3.7421,8.9626 -5.7012,13.5137 -0.032,0.074 -0.066,0.1489 -0.098,0.2227 2.6522,0.055 4.4988,0.1904 7.3789,0.1953 4.3593,0.01 8.9226,-0.054 13.5215,-0.2188 4.5989,-0.1651 9.234,-0.4344 13.7324,-0.8418 4.4983,-0.4073 8.8602,-0.9525 12.918,-1.6718 4.0577,-0.7194 7.8109,-1.6118 11.0878,-2.7129 1.8076,-0.6074 3.5693,-1.3082 5.293,-2.0879 1.7238,-0.7798 3.4092,-1.6399 5.0606,-2.5684 3.3027,-1.8569 6.4713,-3.9871 9.5527,-6.2969 3.0814,-2.3097 6.0762,-4.7978 9.0273,-7.3711 2.9512,-2.5733 5.8596,-5.2313 8.7715,-7.8789 2.912,-2.6476 5.8272,-5.2857 8.791,-7.8183 2.9638,-2.5326 5.9753,-4.9592 9.0821,-7.1875 3.1067,-2.2284 6.3077,-4.2574 9.6484,-5.9922 1.6704,-0.8674 3.3752,-1.6626 5.1211,-2.3711 1.7459,-0.7085 3.5324,-1.3314 5.3652,-1.8574 3.0346,-0.8709 6.1231,-1.6095 9.2481,-2.2207 3.125,-0.6112 6.287,-1.094 9.4746,-1.4512 3.1876,-0.3572 6.3988,-0.5904 9.6211,-0.6992 3.2223,-0.1088 6.4564,-0.093 9.6855,0.041 3.2291,0.134 6.4541,0.3866 9.6621,0.7578 3.2081,0.3712 6.3995,0.8601 9.5586,1.4629 3.1592,0.6028 6.2869,1.3197 9.3692,2.1484 3.0823,0.8288 6.1181,1.7693 9.0957,2.8184 3.0092,1.0602 5.8822,2.3671 8.6484,3.8691 2.7663,1.5021 5.4262,3.1997 8.0098,5.0371 2.5835,1.8375 5.0897,3.8165 7.5508,5.8829 2.4611,2.0663 4.8765,4.2194 7.2754,6.4082 4.7977,4.3774 9.531,8.8929 14.4414,13.1211 2.4551,2.114 4.9556,4.1572 7.5293,6.0742 2.5736,1.917 5.2221,3.7087 7.9746,5.3222 4.2754,2.5063 8.7185,4.6805 13.2519,6.6817 4.5335,2.0012 9.1563,3.8298 13.7871,5.6426 4.6309,1.8127 9.2702,3.6099 13.8379,5.5507 4.5677,1.9409 9.0643,4.0246 13.4082,6.4102 6.8157,3.743 13.7809,7.3773 20.8242,10.9688 7.0434,3.5914 14.1649,7.1403 21.293,10.7128 7.1281,3.5726 14.262,7.1694 21.332,10.8555 7.0701,3.6861 14.0762,7.4623 20.9454,11.3945 6.8691,3.9323 13.6016,8.0192 20.1269,12.3301 3.2626,2.1555 6.4732,4.3676 9.6231,6.6426 3.1498,2.275 6.2385,4.6143 9.2578,7.0254 3.0193,2.4111 5.969,4.8933 8.8398,7.457 2.8708,2.5638 5.6627,5.2085 8.3672,7.9414 1.5635,1.58 3.03,3.2576 4.5332,4.8985 2.5882,-4.2801 5.2931,-8.4973 8.1855,-12.586 3.15,-4.4527 6.4741,-8.7814 9.9571,-12.9648 3.4829,-4.1835 7.1252,-8.2217 10.9121,-12.0918 3.7869,-3.8701 7.7195,-7.5714 11.7812,-11.084 4.0618,-3.5126 8.2529,-6.8361 12.5606,-9.9473 2.1587,-1.559 4.5249,-3.0699 7.0644,-4.5312 2.5396,-1.4613 5.2519,-2.8727 8.1036,-4.2363 2.8516,-1.3637 5.8425,-2.6794 8.9375,-3.9454 3.0949,-1.2659 6.2949,-2.482 9.5644,-3.6503 6.539,-2.3367 13.3571,-4.4775 20.1816,-6.4239 6.8246,-1.9464 13.655,-3.6994 20.2149,-5.2558 6.5599,-1.5565 12.8505,-2.9172 18.5957,-4.084 4.7764,-0.9701 8.8752,-1.7228 12.7402,-2.4238 -3.4788,-4.3983 -6.9692,-8.7868 -10.1953,-13.379 -4.4168,-6.287 -8.5999,-12.7523 -12.5566,-19.3925 -3.9567,-6.6402 -7.687,-13.4543 -11.1992,-20.4356 -3.5123,-6.9812 -6.8071,-14.1311 -9.8907,-21.4414 -3.0835,-7.3103 -5.9564,-14.7809 -8.6269,-22.4082 -2.6705,-7.6273 -5.137,-15.4115 -7.4102,-23.3437 -1.168,-8.2481 -2.385,-16.1077 -3.7109,-23.6368 -1.3259,-7.529 -2.7623,-14.7269 -4.3711,-21.6503 -1.6088,-6.9235 -3.3896,-13.5725 -5.4063,-20.004 -2.0167,-6.4314 -4.2686,-12.6443 -6.8183,-18.6972 -2.5593,-6.0757 -5.3322,-11.949 -8.2774,-17.6543 -2.9451,-5.70533 -6.062,-11.24277 -9.3086,-16.65237 -3.2465,-5.40959 -6.6223,-10.69032 -10.0859,-15.87891 -3.4635,-5.18858 -7.0152,-10.28584 -10.6113,-15.32812 -2.7136,-4.39401 -5.4553,-8.41597 -8.2735,-12.13672 -2.8181,-3.72075 -5.7122,-7.13963 -8.7343,-10.32617 -3.0222,-3.18654 -6.1723,-6.14025 -9.4981,-8.93164 -3.3257,-2.79139 -6.8278,-5.42174 -10.5566,-7.95703 -3.7952,-2.58035 -7.555,-5.43734 -11.0821,-8.41211 -3.527,-2.97478 -6.821,-6.06737 -9.6875,-9.11719 -1.4332,-1.52491 -2.7587,-3.0377 -3.9531,-4.52148 -1.1944,-1.48379 -2.2575,-2.93711 -3.164,-4.33985 -0.9066,-1.40274 -1.657,-2.75533 -2.2266,-4.03711 -0.5696,-1.28177 -0.959,-2.49239 -1.1426,-3.61328 -0.764,-1.91329 -1.4565,-3.90385 -2.084,-5.95898 -0.6274,-2.05513 -1.1904,-4.17587 -1.6933,-6.35352 -1.006,-4.3553 -1.7749,-8.93653 -2.3555,-13.66601 -0.5806,-4.72949 -0.9727,-9.60749 -1.2246,-14.55664 -0.252,-4.94916 -0.3628,-9.96812 -0.3828,-14.98243 -0.04,-10.02861 0.286,-20.03439 0.5937,-29.39648 0.3078,-9.36209 0.5965,-18.08161 0.4786,-25.54102 0.16,-8.91139 0.2127,-17.5538 0.1562,-25.97461 -0.03,-4.44402 -0.1716,-8.67719 -0.2617,-13.0039 z"
           id="path6739"
           inkscape:connector-curvature="0"
           transform="scale(0.26458333)" />
      </g>
    </g>
    <g
       style="display:inline"
       inkscape:label="Sky Island"
       id="g5271"
       inkscape:groupmode="layer">
      <path
         sodipodi:nodetypes="csssssssssssssssc"
         inkscape:connector-curvature="0"
         id="path5269"
         d="m 418.2137,135.6478 c -0.0331,-1.77007 0.32422,-3.86248 0.68214,-5.91282 0.36191,-2.07319 1.45149,-3.9918 2.43004,-5.49159 1.9571,-2.99958 4.91375,-5.38648 7.82188,-7.17325 2.83437,-1.74146 6.52699,-2.29888 9.95632,-2.51581 1.13955,-0.0721 8.38794,-0.19474 10.24282,0.0706 3.44685,0.49307 11.55535,2.72335 15.60757,6.64664 2.33474,2.26046 3.74389,4.43946 4.10354,8.72136 0.22574,2.68764 0.10459,5.39635 -0.14606,8.10837 -0.25065,2.71202 -0.63079,5.42735 -1.45755,7.99461 -1.38152,4.28989 -3.70993,8.91361 -8.85417,10.8939 -2.78805,1.07327 -5.84464,0.82273 -9.63186,0.73937 -3.78723,-0.0833 -7.9318,-0.23414 -10.8635,-0.80885 -2.65308,-0.52009 -5.31284,-1.19898 -7.58889,-2.35216 -2.27604,-1.15318 -4.45235,-2.99781 -6.2006,-5.08344 -3.41609,-4.07533 -6.01988,-9.45262 -6.10168,-13.83688 z"
         style="opacity:1;fill:#04e104;fill-opacity:1;stroke:#000000;stroke-width:0.5;stroke-linecap:butt;stroke-linejoin:round;stroke-miterlimit:4;stroke-dasharray:none;stroke-opacity:1" />
    </g>
    <g
       inkscape:label="Firelake"
       id="g5275"
       inkscape:groupmode="layer">
      <path
         sodipodi:nodetypes="sssssssssssssssssss"
         inkscape:connector-curvature="0"
         id="path5273"
         d="m 27.656663,95.954864 c 0.325244,4.913436 3.137942,9.664656 6.78984,12.895766 3.651898,3.2311 8.122925,5.19233 11.9881,5.39459 6.643291,0.34764 10.703501,-2.1475 14.423872,-4.58914 2.680267,-1.75903 4.336171,-4.69354 6.760714,-6.79106 3.356131,-2.903458 7.601972,-4.699663 10.824416,-7.750816 1.990329,-1.884532 4.15843,-3.366459 5.936638,-5.511577 1.778209,-2.145118 3.166526,-4.953428 4.164252,-7.50635 1.056473,-2.703239 2.001088,-5.323236 2.155864,-8.208719 0.154776,-2.885483 -0.480288,-6.036452 -1.165764,-8.856693 -0.972516,-4.001204 -5.561623,-9.893289 -6.272728,-10.604394 -3.037428,-3.037428 -11.640564,-7.863254 -18.535394,-8.607282 -2.906255,-0.313617 -5.822466,0.06126 -8.721693,0.728848 -2.899227,0.667587 -5.78147,1.627883 -8.430805,2.863077 -4.471941,2.084944 -7.234323,6.006907 -9.566348,10.007092 -0.973692,1.6702 -1.645373,3.712935 -2.5626,5.424096 -0.870685,1.624333 -1.421361,3.404896 -1.776477,5.038555 -0.785571,3.613906 -1.087891,7.324335 -1.890804,10.934428 -1.07434,4.830493 -4.58712,8.099201 -4.121083,15.139579 z"
         style="opacity:1;fill:#04e104;fill-opacity:1;stroke:#000000;stroke-width:0.5;stroke-linecap:butt;stroke-linejoin:miter;stroke-miterlimit:4;stroke-dasharray:none;stroke-opacity:1" />
    </g>
    <g
       style="display:inline"
       inkscape:label="Verdant Isle"
       id="g5283"
       inkscape:groupmode="layer">
      <path
         sodipodi:nodetypes="sssssssssssscssscsssssssssssssss"
         inkscape:connector-curvature="0"
         id="path5281"
         d="m 113.57472,421.12824 c -0.34342,-2.23569 -0.22186,-4.44258 -0.15737,-6.63783 0.0645,-2.19526 0.1554,-4.39556 0.24513,-6.58466 0.17947,-4.37819 -0.17486,-8.73801 0.36108,-13.01374 0.65427,-5.21976 2.25404,-10.10649 4.16626,-14.57853 0.9561,-2.23602 2.22418,-4.33497 3.49124,-6.35344 1.26706,-2.01848 2.53309,-3.95648 4.42055,-5.737 2.28782,-2.1582 4.44735,-3.42955 6.51885,-4.55165 2.07151,-1.1221 3.84236,-2.02407 5.87256,-2.6403 4.06039,-1.23246 8.14231,-2.03066 11.95366,-2.34218 2.87304,-0.23483 6.67934,0.85631 10.38319,1.99382 3.17657,0.97558 6.73415,1.79462 8.29323,2.52874 3.49458,1.6455 6.22673,4.26414 8.97693,7.53593 3.03026,4.63652 6.14723,7.48994 9.39319,9.2458 3.24595,1.75587 6.62089,2.41416 9.88359,3.60538 4.15303,1.51628 9.09031,4.24865 13.16526,7.39637 4.07496,3.14773 7.23415,6.84988 9.65505,13.65218 2.7577,7.98141 2.87172,19.41816 -2.19698,29.29315 -1.1508,2.24202 -2.47465,4.02098 -3.89487,5.7683 -1.42023,1.74733 -3.05494,3.3449 -4.6857,4.79894 -1.63076,1.45405 -3.1867,2.83543 -4.9691,4.19761 -1.78241,1.36218 -3.76765,3.08313 -5.90267,4.38948 -4.44866,2.72201 -10.41539,5.90587 -15.34509,7.04414 -1.70978,0.39479 -3.75854,1.07615 -6.07859,1.44185 -2.05897,0.32454 -3.71315,1.02587 -5.94491,1.54856 -2.01605,0.47217 -6.35094,0.56694 -9.53144,0.50338 -3.1805,-0.0636 -5.20661,-0.28547 -7.32978,-0.87187 -4.93141,-1.362 -9.50049,-4.25398 -14.21603,-6.30144 -2.54253,-1.10395 -4.89441,-2.32526 -7.16949,-3.84498 -2.27507,-1.51973 -4.8613,-2.9544 -6.61419,-5.11576 -3.28976,-4.05636 -5.61295,-8.58161 -7.82708,-12.98983 -2.21413,-4.40823 -4.20109,-8.72306 -4.91648,-13.38042 z"
         style="opacity:1;fill:#04e104;fill-opacity:1;stroke:#000000;stroke-width:0.5;stroke-linecap:butt;stroke-linejoin:round;stroke-miterlimit:4;stroke-dasharray:none;stroke-opacity:1" />
    </g>
    <g
       inkscape:groupmode="layer"
       id="layer27"
       inkscape:label="Labels"
       style="display:inline">
      <text
         xml:space="preserve"
         style="font-style:normal;font-weight:normal;font-size:10.58333302px;line-height:1.25;font-family:sans-serif;letter-spacing:0px;word-spacing:0px;fill:#000000;fill-opacity:1;stroke:none;stroke-width:0.26458332"
         x="50.87022"
         y="84.071884"
         id="text6821"><tspan
           sodipodi:role="line"
           id="tspan6819"
           x="50.87022"
           y="84.071884"
           style="font-style:normal;font-variant:normal;font-weight:normal;font-stretch:normal;font-size:22.57777786px;font-family:sans-serif;-inkscape-font-specification:sans-serif;stroke-width:0.26458332">1</tspan></text>
      <text
         xml:space="preserve"
         style="font-style:normal;font-weight:normal;font-size:19.7555542px;line-height:1.25;font-family:sans-serif;letter-spacing:0px;word-spacing:0px;fill:#000000;fill-opacity:1;stroke:none;stroke-width:0.26458332"
         x="314.85416"
         y="147.10832"
         id="text6825"><tspan
           sodipodi:role="line"
           id="tspan6823"
           x="314.85416"
           y="147.10832"
           style="font-size:22.57777786px;stroke-width:0.26458332">2</tspan></text>
      <text
         xml:space="preserve"
         style="font-style:normal;font-weight:normal;font-size:22.57777786px;line-height:1.25;font-family:sans-serif;letter-spacing:0px;word-spacing:0px;fill:#000000;fill-opacity:1;stroke:none;stroke-width:0.26458332"
         x="437.09167"
         y="143.40417"
         id="text6829"><tspan
           sodipodi:role="line"
           id="tspan6827"
           x="437.09167"
           y="143.40417"
           style="stroke-width:0.26458332">3</tspan></text>
      <text
         xml:space="preserve"
         style="font-style:normal;font-weight:normal;font-size:22.57777786px;line-height:1.25;font-family:sans-serif;letter-spacing:0px;word-spacing:0px;fill:#000000;fill-opacity:1;stroke:none;stroke-width:0.26458332"
         x="231.24583"
         y="290.51248"
         id="text6833"><tspan
           sodipodi:role="line"
           id="tspan6831"
           x="231.24583"
           y="290.51248"
           style="stroke-width:0.26458332">4</tspan></text>
      <text
         xml:space="preserve"
         style="font-style:normal;font-weight:normal;font-size:22.57777786px;line-height:1.25;font-family:sans-serif;letter-spacing:0px;word-spacing:0px;fill:#000000;fill-opacity:1;stroke:none;stroke-width:0.26458332"
         x="348.19168"
         y="258.76251"
         id="text6837"><tspan
           sodipodi:role="line"
           id="tspan6835"
           x="348.19168"
           y="258.76251"
           style="stroke-width:0.26458332">5</tspan></text>
      <text
         xml:space="preserve"
         style="font-style:normal;font-weight:normal;font-size:22.57777786px;line-height:1.25;font-family:sans-serif;letter-spacing:0px;word-spacing:0px;fill:#000000;fill-opacity:1;stroke:none;stroke-width:0.26458332"
         x="156.63333"
         y="419.62915"
         id="text6841"><tspan
           sodipodi:role="line"
           id="tspan6839"
           x="156.63333"
           y="419.62915"
           style="stroke-width:0.26458332">6</tspan></text>
      <text
         xml:space="preserve"
         style="font-style:normal;font-weight:normal;font-size:22.57777786px;line-height:1.25;font-family:sans-serif;letter-spacing:0px;word-spacing:0px;fill:#000000;fill-opacity:1;stroke:none;stroke-width:0.26458332"
         x="325.96667"
         y="400.04999"
         id="text6845"><tspan
           sodipodi:role="line"
           id="tspan6843"
           x="325.96667"
           y="400.04999"
           style="stroke-width:0.26458332">7</tspan></text>
      <text
         xml:space="preserve"
         style="font-style:normal;font-weight:normal;font-size:22.57777786px;line-height:1.25;font-family:sans-serif;letter-spacing:0px;word-spacing:0px;fill:#000000;fill-opacity:1;stroke:none;stroke-width:0.26458332"
         x="484.71664"
         y="397.40417"
         id="text6849"><tspan
           sodipodi:role="line"
           id="tspan6847"
           x="484.71664"
           y="397.40417"
           style="stroke-width:0.26458332">8</tspan></text>
      <text
         xml:space="preserve"
         style="font-style:normal;font-weight:normal;font-size:22.57777786px;line-height:1.25;font-family:sans-serif;letter-spacing:0px;word-spacing:0px;fill:#000000;fill-opacity:1;stroke:none;stroke-width:0.26458332"
         x="354.01248"
         y="530.22498"
         id="text6853"><tspan
           sodipodi:role="line"
           id="tspan6851"
           x="354.01248"
           y="530.22498"
           style="stroke-width:0.26458332">9</tspan></text>
      <text
         xml:space="preserve"
         style="font-style:normal;font-weight:normal;font-size:22.57777786px;line-height:1.25;font-family:sans-serif;letter-spacing:0px;word-spacing:0px;fill:#000000;fill-opacity:1;stroke:none;stroke-width:0.26458332"
         x="520.69995"
         y="524.40411"
         id="text6857"><tspan
           sodipodi:role="line"
           id="tspan6855"
           x="520.69995"
           y="524.40411"
           style="stroke-width:0.26458332">10</tspan></text>
      <text
         xml:space="preserve"
         style="font-style:normal;font-weight:normal;font-size:22.57777786px;line-height:1.25;font-family:sans-serif;letter-spacing:0px;word-spacing:0px;fill:#000000;fill-opacity:1;stroke:none;stroke-width:0.26458332"
         x="584.72919"
         y="459.31668"
         id="text6861"><tspan
           sodipodi:role="line"
           id="tspan6859"
           x="584.72919"
           y="459.31668"
           style="stroke-width:0.26458332">11</tspan></text>
    </g>
  </g>
  <g
     inkscape:groupmode="layer"
     id="layer3"
     inkscape:label="Forests"
     style="display:none"
     transform="translate(182.56248,104.03273)">
    <path
       style="fill:none;stroke:#000000;stroke-width:0.26458332px;stroke-linecap:butt;stroke-linejoin:miter;stroke-opacity:1"
       d="m 141.07962,127.66666 c 9.2009,-8.02703 17.52471,-9.70447 23.43452,-9.82738 11.35968,-0.45354 21.65517,-1.24914 39.78199,0.47247 9.16685,2.30576 10.97545,6.9599 8.31547,13.04018 -6.11025,7.72279 -12.8379,18.99562 -18.04836,21.54465 -5.62224,3.0709 -11.52277,6.42009 -17.3869,9.73288 -8.39632,8.62981 -14.54752,6.72164 -20.97768,7.46503 -6.87155,0.79442 -16.31764,-3.72934 -16.3711,-5.14993 l -0.16536,-4.39397 c -3.16415,-6.13619 -6.94493,-7.95588 -10.58333,-10.77232 -1.66771,-5.17561 -0.77782,-9.49869 1.32291,-13.41815 3.89372,-3.22264 8.49044,-6.78514 10.67784,-8.69346 z"
       id="path832"
       inkscape:connector-curvature="0"
       sodipodi:nodetypes="scccccsscccs" />
    <path
       style="fill:none;stroke:#000000;stroke-width:0.26458332px;stroke-linecap:butt;stroke-linejoin:miter;stroke-opacity:1"
       d="m 151.87591,60.199198 c -2.7875,-2.514603 -3.18088,-4.946651 -0.80181,-7.283096 5.01918,-2.657879 8.75282,-1.673421 12.76212,-1.469982 5.03358,-0.263672 10.06715,0.90367 15.10073,2.405427 0.28531,-0.109687 0.37798,-0.249788 10.55714,1.202712 2.97092,0.656259 4.85524,2.682571 11.69304,-1.536798 1.72246,-1.61043 3.57953,-1.740123 5.47903,-1.403168 2.00085,0.75006 4.12297,1.285564 3.87541,6.013567 -0.39583,3.728522 -0.38842,7.530361 -6.48129,10.223058 -1.5819,1.49469 -4.21689,2.331201 -7.21628,2.939965 -1.98225,-0.312607 -3.96449,1.34612 -5.94674,-1.336347 l -0.53454,-6.949009 c -0.4767,-1.419058 -1.57577,-1.468892 -2.93997,-0.935442 -3.18471,2.531292 -6.61645,1.727699 -10.15624,-0.53454 -1.28479,-1.501099 -4.00842,-0.535601 -6.48128,0 -4.49533,1.439223 -9.08808,3.101128 -11.15851,-1.00226 -2.72257,0.722438 -5.18906,-0.0916 -7.75081,-0.334087 z"
       id="path836"
       inkscape:connector-curvature="0"
       sodipodi:nodetypes="ccccccccccccccccc" />
  </g>
  <g
     inkscape:groupmode="layer"
     id="layer10"
     inkscape:label="Cities">
    <g
       inkscape:groupmode="layer"
       id="layer11"
       inkscape:label="Louth">
      <rect
         style="opacity:1;fill:#8046aa;fill-opacity:1;fill-rule:nonzero;stroke:none;stroke-width:0.5;stroke-linejoin:round;stroke-miterlimit:4;stroke-dasharray:none;stroke-opacity:1"
         id="rect889"
         width="4.396584"
         height="4.396584"
         x="447.28226"
         y="308.23489" />
      <text
         xml:space="preserve"
         style="font-style:normal;font-weight:normal;font-size:8.46666622px;line-height:1.25;font-family:sans-serif;letter-spacing:0px;word-spacing:0px;fill:#ffffff;fill-opacity:1;stroke:none;stroke-width:0.26458332;"
         x="452.14655"
         y="313.42661"
         id="text897"><tspan
           sodipodi:role="line"
           id="tspan895"
           x="452.14655"
           y="313.42661"
           style="stroke-width:0.26458332;fill:#ffffff;fill-opacity:1;">Louth</tspan></text>
    </g>
  </g>
  <g
     inkscape:groupmode="layer"
     id="layer4"
     inkscape:label="Water"
     style="display:none"
     transform="translate(182.56248,104.03273)" />
  <g
     inkscape:groupmode="layer"
     id="layer5"
     inkscape:label="Mountains"
     style="display:none;opacity:0"
     transform="translate(182.56248,104.03273)">
    <path
       style="fill:#c7c7c7;fill-opacity:1;stroke:#000000;stroke-width:0.26499999;stroke-linecap:butt;stroke-linejoin:miter;stroke-miterlimit:4;stroke-dasharray:none;stroke-opacity:1"
       d="m 75.570457,41.724192 c 2.045888,-5.61372 4.702685,-10.968122 7.283096,-16.403667 3.013075,-4.093221 5.270324,-8.776355 11.759858,-10.156242 9.916739,-3.706641 18.662509,-4.558654 27.929669,-6.6817383 l 20.31248,-0.8018086 c 9.31934,-0.05348 18.47298,-0.2457923 34.2105,5.0781209 6.52138,2.967013 10.89958,3.297723 26.99422,18.040693 1.80477,2.979693 3.4566,6.038911 3.0736,10.156243 -1.46517,5.002399 -1.25985,10.300459 -12.36121,13.597337 -3.66879,-0.01577 -3.12772,0.206168 -7.94012,-0.723952 -4.54795,-0.879009 -15.88517,-2.987842 -20.5575,-3.385317 -6.96251,-0.832887 -12.19303,-0.655443 -18.20773,-0.935444 -7.02195,-0.854733 -11.47124,0.711858 -15.50164,2.672694 -5.43356,2.245364 -10.87946,4.546291 -16.43707,7.349913 -3.44153,1.503248 -5.48181,3.692844 -8.52268,5.576906 -3.04087,1.884063 -6.7516,4.053181 -9.518016,5.113875 -2.830075,0.974247 -5.942253,1.811991 -11.492589,1.469983 -4.611181,-1.30033 -7.961967,-3.336002 -10.540932,-7.868934 -0.787892,-1.610201 -0.859178,-2.881976 -1.806116,-4.916612 -0.693769,-1.490668 -0.975631,-3.182441 -1.016427,-4.987879 2.141536,-12.171099 1.770918,-10.294491 2.338607,-12.194171 z"
       id="path838"
       inkscape:connector-curvature="0"
       sodipodi:nodetypes="cccccccccsccccscccscc" />
  </g>
</svg>
