<?xml version="1.0" encoding="UTF-8" standalone="no"?>
<!-- Created with Inkscape (http://www.inkscape.org/) -->

<svg
   xmlns:dc="http://purl.org/dc/elements/1.1/"
   xmlns:cc="http://creativecommons.org/ns#"
   xmlns:rdf="http://www.w3.org/1999/02/22-rdf-syntax-ns#"
   xmlns:svg="http://www.w3.org/2000/svg"
   xmlns="http://www.w3.org/2000/svg"
   xmlns:xlink="http://www.w3.org/1999/xlink"
   xmlns:sodipodi="http://sodipodi.sourceforge.net/DTD/sodipodi-0.dtd"
   xmlns:inkscape="http://www.inkscape.org/namespaces/inkscape"
   width="1853mm"
   height="2075.938mm"
   viewBox="0 0 1853 2075.938"
   version="1.1"
   id="svg8"
   inkscape:version="0.92.4 (5da689c313, 2019-01-14)"
   sodipodi:docname="Peku.svg">
  <defs
     id="defs2" />
  <sodipodi:namedview
     id="base"
     pagecolor="#ffffff"
     bordercolor="#666666"
     borderopacity="1.0"
     inkscape:pageopacity="0.0"
     inkscape:pageshadow="2"
     inkscape:zoom="0.088388348"
     inkscape:cx="2936.418"
     inkscape:cy="4240.366"
     inkscape:document-units="mm"
     inkscape:current-layer="layer3"
     showgrid="false"
     inkscape:window-width="1920"
     inkscape:window-height="1017"
     inkscape:window-x="1912"
     inkscape:window-y="-8"
     inkscape:window-maximized="1"
     fit-margin-top="-0.7"
     fit-margin-left="0"
     fit-margin-right="0"
     fit-margin-bottom="0" />
  <metadata
     id="metadata5">
    <rdf:RDF>
      <cc:Work
         rdf:about="">
        <dc:format>image/svg+xml</dc:format>
        <dc:type
           rdf:resource="http://purl.org/dc/dcmitype/StillImage" />
        <dc:title />
      </cc:Work>
    </rdf:RDF>
  </metadata>
  <g
     inkscape:label="reference"
     inkscape:groupmode="layer"
     id="layer1"
     style="display:inline"
     transform="translate(-0.00104148,1731.9788)">
    <rect
       style="opacity:1;fill:#465baa;fill-opacity:1;fill-rule:nonzero;stroke:none;stroke-width:3.01873493;stroke-linejoin:round;stroke-miterlimit:4;stroke-dasharray:none;stroke-opacity:1"
       id="rect26246"
       width="1853"
       height="2076.6379"
       x="0.001041487"
       y="-1732.6788" />
    <image
       sodipodi:absref="C:\Information\Misc, Other\Let's Do A Science\site\neocities-maxquest\dnd\img\maps\landmasses\Peku.png"
       y="-1732.6788"
       x="0.0010414786"
       id="image26243"
       xlink:href="file:///C:/Information/Misc,%20Other/Let's%20Do%20A%20Science/site/neocities-maxquest/dnd/img/maps/landmasses/Peku.png"
       preserveAspectRatio="none"
       height="2076.6379"
       width="1853" />
  </g>
  <g
     inkscape:groupmode="layer"
     id="layer3"
     inkscape:label="Peku"
     style="display:inline;opacity:1"
     transform="translate(-0.00104148,1731.9788)">
    <path
       style="fill:none;stroke:#000000;stroke-width:7.59482336px;stroke-linecap:butt;stroke-linejoin:round;stroke-opacity:1"
       d="m 1803.4913,-526.31186 c -7.603,28.37453 -24.1995,47.57647 -39.9976,68.60491 -15.798,21.02845 -30.7974,43.88335 -47.9854,66.78462 -16.3678,21.80843 -42.5332,60.33074 -57.7059,85.31204 -15.0407,24.76377 -14.5604,38.01885 -20.5026,71.95559 -5.5863,31.90368 -27.5579,76.16359 -83.3387,90.96318 -23.5907,6.25898 -49.2797,11.12023 -75.6086,9.25332 -25.3773,-1.79946 -51.8001,1.97444 -77.239,5.09853 -25.439,3.12408 -36.4441,1.8599 -61.9382,2.77156 -12.7471,0.45583 -29.1164,5.12665 -45.5226,6.07906 -16.4061,0.95235 -30.8724,2.42212 -45.1787,-0.98284 -16.1377,-3.84079 -25.1031,-16.72421 -42.544,-18.74622 -15.1794,-1.75986 -37.0967,-1.74972 -57.6802,-1.17453 -41.1672,1.15038 -88.9488,-9.22441 -131.7864,1.76319 -19.95234,5.11766 -31.25135,18.1275 -53.33363,27.80109 -22.08223,9.67354 -51.98262,22.490786 -67.79831,34.660272 -10.18708,7.838507 -19.64224,31.843487 1.89148,48.455283 25.36655,19.5685256 46.4567,27.19481578 62.51697,46.133694 8.03008,9.469409 16.77891,26.164884 23.34339,39.818803 6.56442,13.653919 10.94455,24.266281 15.88495,46.419568 3.17425,14.23364 4.60705,29.02797 9.50165,43.59126 2.5927,7.71431 6.1058,18.24215 9.4178,27.63911 3.4845,9.8866 9.231,18.35077 4.4696,27.46729 -7.5768,14.50713 -20.9348,24.99265 -39.78585,36.09742 -18.8511,11.10472 -42.48924,20.71076 -69.21434,29.22299 -26.72516,8.51223 -56.11369,13.81276 -87.3128,23.93802 -15.11239,4.90454 -32.5765,10.04381 -49.73184,13.90351 -7.98118,1.79566 -17.81712,4.69546 -25.82468,3.03316 -8.00749,-1.66235 -14.18648,-7.88674 -7.51176,-12.47939 39.81615,-27.39592 47.39203,-57.60416 46.86803,-87.95361 -0.26202,-15.17476 0.10385,-28.11088 -3.65762,-41.48611 -3.7617,-13.37517 -11.65116,-27.18939 -22.03471,-47.31505 C 750.006,92.900081 732.1302,68.716875 715.99694,50.547231 699.86367,32.377587 685.17855,14.209935 675.90138,13.263501 645.59032,10.17129 624.67701,-2.4532397 594.44992,-8.9028874 567.42891,-14.668429 542.75461,-30.311332 521.4996,-47.108418 500.24459,-63.905564 481.17948,-82.823311 461.83403,-102.9497 c -19.34544,-20.12639 -38.97121,-41.46136 -61.34755,-58.57468 -23.21563,-17.75524 -42.99217,-31.50394 -69.19436,-47.19255 -23.80902,-14.25573 -39.62785,-41.22402 -56.91893,-61.09122 -17.29108,-19.8672 -40.00073,-56.30418 -54.83807,-77.06456 -14.9871,-20.97 -15.02513,-31.49205 -27.93601,-53.03718 -25.82176,-43.09021 -47.47071,-86.79412 -67.62075,-132.37188 -5.0375,-11.39446 -8.11052,-20.947 -13.69075,-31.40402 -5.58024,-10.45708 -13.667689,-21.81869 -18.568182,-33.44269 -9.800975,-23.24801 -17.019989,-50.93421 -25.803475,-74.53275 -5.251615,-14.1095 -3.426234,-30.42323 -6.826117,-45.06096 -3.399886,-14.63778 -11.026656,-27.59956 -12.419433,-42.19364 -2.785553,-29.18814 -1.401512,-57.717 -1.616021,-86.49363 -0.214511,-28.77657 -0.147767,-65.7562 2.992221,-92.74055 1.569997,-13.49223 5.106367,-23.68686 8.703184,-34.28365 3.596817,-10.59678 7.254087,-21.59566 13.858107,-33.50134 8.948309,-16.132 23.088745,-28.9097 33.178246,-43.8451 10.08272,-14.9254 22.49058,-27.1963 33.55114,-41.496 22.15602,-28.6447 48.82763,-53.5947 73.49118,-78.987 12.18266,-12.5426 19.63689,-21.7245 34.92183,-34.7631 15.28495,-13.0387 38.40061,-29.9341 51.55528,-41.1308 26.30934,-22.3935 43.12556,-38.7652 72.6486,-57.3349 14.61335,-9.1916 30.2396,-18.1356 45.0712,-28.282 14.8316,-10.1465 28.86855,-21.4954 41.90069,-33.101 13.03213,-11.6056 25.45881,-24.0669 36.47087,-37.1368 11.01205,-13.0699 20.60946,-26.7484 31.17789,-40.7886 10.56843,-14.0401 21.1594,-32.2857 31.66261,-47.2514 10.50322,-14.9656 20.91866,-26.6514 30.33732,-41.9487 18.83736,-30.5945 34.48624,-61.2585 58.0448,-89.6163 5.97028,-7.1865 14.27367,-9.8743 20.64743,-14.5988 7.4809,-5.5452 12.85051,-8.3789 19.16105,-14.3038 11.58446,-10.8763 32.0478,-20.19 46.75701,-26.7149 14.70926,-6.5249 28.45767,-13.9578 42.67036,-17.6002 14.61291,-3.745 27.29594,-8.6969 42.27249,-9.6662 29.95309,-1.9385 63.94507,0.5108 92.43716,10.6568 14.21576,5.0622 33.68944,11.9055 47.06721,18.7724 13.40324,6.88 23.15768,8.2189 38.75216,17.4738 19.92308,11.8238 37.79098,28.5261 55.80408,45.4902 18.0132,16.9641 36.1716,34.1898 51.0849,52.6514 14.9132,18.4616 24.8685,37.4689 35.9705,53.713 11.5856,16.9517 18.8954,32.5556 21.4978,45.6255 5.2049,26.1397 4.783,51.6739 4.56,86.0484 -0.1111,17.0896 0.024,36.2873 0.1436,58.9003 0.1172,22.6131 0.2126,48.6414 -2.3778,79.3923 -0.8419,9.9924 -10.6207,27.2781 -14.3692,46.535 -1.8742,9.6285 -2.0169,22.1432 -0.778,32.2984 0.6073,4.9786 -0.3701,9.6184 2.8397,13.3396 3.2685,3.7888 6.8881,9.0533 11.159,13.7222 17.3804,19.0002 32.8446,34.1959 40.8152,50.654 7.9706,16.4581 7.6488,33.7792 7.4796,53.3107 -0.1691,19.5316 -1.5978,51.4395 -15.1315,77.5422 -13.4974,26.03254 -18.0424,54.70648 -36.3286,96.66695 -3.9842,9.1423 -7.796,12.78344 -9.1884,23.1534 -1.3922,10.37001 -0.3652,27.46879 -0.3181,38.67651 0.048,10.83436 -0.6933,21.86433 -0.1105,32.71469 0.5826,10.85036 3.1781,20.8917 12.3366,31.63725 10.6752,12.52515 17.3604,20.74788 29.9046,28.72278 13.2236,8.40675 28.3564,18.55483 39.7624,27.19004 22.8119,17.27043 43.4961,35.67771 68.082,45.96097 24.5859,10.28332 47.184,13.42685 70.397,16.52739 11.6065,1.5503 24.9643,5.6856 37.1038,7.20294 12.1395,1.5174 23.0609,0.41659 36.1845,1.87826 26.2472,2.92304 23.4861,10.68547 55.3389,15.28265 15.9265,2.29864 34.5763,-0.71224 58.537,0.2741 23.9607,0.98616 53.2324,5.9693 66.6819,6.18333 26.8991,0.42806 52.3998,-0.99521 77.0106,-0.69588 12.2937,0.14973 28.1656,0.72963 40.4694,0.21011 12.3039,-0.51923 21.0398,-2.13841 34.3106,-0.73923 14.8005,1.56044 38.102,21.85582 30.2349,51.2164 z"
       id="path830"
       inkscape:connector-curvature="0"
       sodipodi:nodetypes="cssssssssssssssssssssssssssssssssssssssssssssssssssssssssssssssssssssssssssssssssssssssssssssssssssssssssc" />
  </g>
</svg>
