<?xml version="1.0" encoding="UTF-8" standalone="no"?>
<!-- Created with Inkscape (http://www.inkscape.org/) -->

<svg
   xmlns:osb="http://www.openswatchbook.org/uri/2009/osb"
   xmlns:dc="http://purl.org/dc/elements/1.1/"
   xmlns:cc="http://creativecommons.org/ns#"
   xmlns:rdf="http://www.w3.org/1999/02/22-rdf-syntax-ns#"
   xmlns:svg="http://www.w3.org/2000/svg"
   xmlns="http://www.w3.org/2000/svg"
   xmlns:xlink="http://www.w3.org/1999/xlink"
   xmlns:sodipodi="http://sodipodi.sourceforge.net/DTD/sodipodi-0.dtd"
   xmlns:inkscape="http://www.inkscape.org/namespaces/inkscape"
   width="6000mm"
   height="3770.7285mm"
   viewBox="0 0 6000 3770.7286"
   version="1.1"
   id="svg8"
   inkscape:version="0.92.4 (5da689c313, 2019-01-14)"
   sodipodi:docname="Terrapim.svg">
  <defs
     id="defs2">
    <linearGradient
       id="linearGradient45825"
       osb:paint="solid">
      <stop
         style="stop-color:#000000;stop-opacity:1;"
         offset="0"
         id="stop45823" />
    </linearGradient>
    <pattern
       patternUnits="userSpaceOnUse"
       width="632.11855"
       height="733.18915"
       patternTransform="matrix(0.26458333,0,0,0.26458333,2789.8393,1340.441)"
       id="ContinentHex">
      <g
         inkscape:label="Layer 1"
         id="layer1-1"
         transform="matrix(3.7795276,0,0,3.7795276,45.156745,-441.70752)">
        <path
           style="opacity:1;fill:none;fill-opacity:1;fill-rule:nonzero;stroke:#000000;stroke-width:1.15761089;stroke-linejoin:round;stroke-miterlimit:4;stroke-dasharray:none;stroke-dashoffset:0;stroke-opacity:1"
           d="m 155.30029,310.27927 h -27.87468 c -9.29155,-16.09345 -18.58312,-32.18691 -27.874669,-48.28036 9.291569,-16.09345 18.583119,-32.18689 27.874689,-48.28034 h 27.87466 m 2e-5,-1e-5 H 127.42564 C 118.13408,197.6251 108.84252,181.53165 99.550964,165.4382 108.84252,149.34475 118.13408,133.2513 127.42564,117.15785 m -111.498679,0 c 9.291562,16.09345 18.583109,32.18692 27.874672,48.28037 -9.291555,16.09345 -18.583123,32.18688 -27.874677,48.28034 H -11.947717 M 99.550964,261.99892 H 43.801623 l -27.87467,-48.28035 27.874675,-48.28024 h 55.749348 c 9.291554,16.09345 18.583114,32.18679 27.874674,48.28024 -9.29157,16.09345 -18.58312,32.1869 -27.874686,48.28035 z M -11.947717,213.71857 h 27.874674 l 27.874671,48.28035 -27.874675,48.28035 h -27.874675"
           id="path4342"
           inkscape:connector-curvature="0"
           sodipodi:nodetypes="ccccccccccccccccccccccccc" />
      </g>
    </pattern>
    <pattern
       patternUnits="userSpaceOnUse"
       width="63.211858"
       height="73.318945"
       patternTransform="matrix(0.26458333,0,0,0.26458333,1572.523,355.30343)"
       id="KingdomHex">
      <g
         inkscape:label="Layer 1"
         id="layer1-3"
         transform="matrix(3.7795276,0,0,3.7795276,-239.2966,-771.64263)">
        <path
           style="opacity:1;fill:none;fill-opacity:1;fill-rule:nonzero;stroke:#000000;stroke-width:0.11576109;stroke-linejoin:round;stroke-miterlimit:4;stroke-dasharray:none;stroke-dashoffset:0;stroke-opacity:1"
           d="m 80.038694,223.50487 h -2.787468 c -0.929155,-1.60935 -1.858312,-3.21869 -2.787467,-4.82804 0.929157,-1.60934 1.858312,-3.21869 2.787469,-4.82803 h 2.787466 m 2e-6,0 h -2.787467 c -0.929156,-1.60935 -1.858312,-3.2187 -2.787468,-4.82804 0.929156,-1.60935 1.858312,-3.21869 2.787468,-4.82804 m -11.149868,0 c 0.929156,1.60935 1.858311,3.2187 2.787467,4.82804 -0.929156,1.60935 -1.858312,3.21869 -2.787468,4.82804 h -2.787467 m 11.149868,4.82803 h -5.574934 l -2.787467,-4.82803 2.787467,-4.82803 h 5.574935 c 0.929156,1.60935 1.858312,3.21868 2.787468,4.82803 -0.929157,1.60934 -1.858312,3.21869 -2.787469,4.82803 z M 63.313893,213.8488 h 2.787467 l 2.787467,4.82803 -2.787467,4.82804 h -2.787468"
           id="path4342-6"
           inkscape:connector-curvature="0"
           sodipodi:nodetypes="ccccccccccccccccccccccccc" />
      </g>
    </pattern>
    <pattern
       patternUnits="userSpaceOnUse"
       width="10.535524"
       height="12.220083"
       patternTransform="matrix(0.26458333,0,0,0.26458333,1617.5079,837.36803)"
       id="ProvinceHex">
      <g
         inkscape:label="Layer 1"
         id="layer1-10"
         transform="matrix(3.7795276,0,0,3.7795276,-265.63477,-802.19209)">
        <path
           style="opacity:1;fill:none;fill-opacity:1;fill-rule:nonzero;stroke:#000000;stroke-width:0.0192939;stroke-linejoin:round;stroke-miterlimit:4;stroke-dasharray:none;stroke-dashoffset:0;stroke-opacity:1"
           d="m 73.070055,215.47024 h -0.464587 c -0.154862,-0.26823 -0.309725,-0.53646 -0.464587,-0.80469 0.154862,-0.26823 0.309725,-0.53646 0.464587,-0.80469 h 0.464587 m 10e-7,0 h -0.464588 c -0.154862,-0.26823 -0.309724,-0.53646 -0.464587,-0.80469 0.154863,-0.26823 0.309725,-0.53646 0.464587,-0.80469 m -1.858348,0 c 0.154862,0.26823 0.309725,0.53646 0.464587,0.80469 -0.154862,0.26823 -0.309725,0.53646 -0.464587,0.80469 h -0.464587 m 1.858348,0.80469 h -0.929174 l -0.464587,-0.80469 0.464587,-0.80469 h 0.929174 c 0.154863,0.26823 0.309725,0.53646 0.464588,0.80469 -0.154863,0.26823 -0.309725,0.53646 -0.464588,0.80469 z m -1.858348,-0.80469 h 0.464587 l 0.464587,0.80469 -0.464587,0.80469 h -0.464588"
           id="path4342-60"
           inkscape:connector-curvature="0"
           sodipodi:nodetypes="ccccccccccccccccccccccccc" />
      </g>
    </pattern>
  </defs>
  <sodipodi:namedview
     id="base"
     pagecolor="#ffffff"
     bordercolor="#666666"
     borderopacity="1.0"
     inkscape:pageopacity="0.0"
     inkscape:pageshadow="2"
     inkscape:zoom="0.028284271"
     inkscape:cx="8648.1011"
     inkscape:cy="9035.3686"
     inkscape:document-units="mm"
     inkscape:current-layer="layer1"
     showgrid="false"
     inkscape:window-width="1920"
     inkscape:window-height="1017"
     inkscape:window-x="1912"
     inkscape:window-y="-8"
     inkscape:window-maximized="1"
     fit-margin-top="-0.7"
     fit-margin-left="0"
     fit-margin-right="0"
     fit-margin-bottom="0" />
  <metadata
     id="metadata5">
    <rdf:RDF>
      <cc:Work
         rdf:about="">
        <dc:format>image/svg+xml</dc:format>
        <dc:type
           rdf:resource="http://purl.org/dc/dcmitype/StillImage" />
        <dc:title></dc:title>
      </cc:Work>
    </rdf:RDF>
  </metadata>
  <g
     inkscape:label="reference"
     inkscape:groupmode="layer"
     id="layer1"
     style="display:inline"
     transform="translate(-12706.615,5036.5935)">
    <rect
       style="opacity:1;fill:#465baa;fill-opacity:1;fill-rule:nonzero;stroke:none;stroke-width:1;stroke-linejoin:round;stroke-miterlimit:4;stroke-dasharray:none;stroke-dashoffset:0;stroke-opacity:1"
       id="rect1437"
       width="6000"
       height="3771.4285"
       x="12706.615"
       y="-5037.2935" />
    <image
       sodipodi:absref="C:\Information\Misc, Other\Let's Do A Science\site\neocities-maxquest\dnd\img\maps\landmasses\Terrapim.png"
       y="-5037.2935"
       x="12706.615"
       id="image1432"
       xlink:href="file:///C:/Information/Misc,%20Other/Let's%20Do%20A%20Science/site/neocities-maxquest/dnd/img/maps/landmasses/Terrapim.png"
       preserveAspectRatio="none"
       height="3771.4285"
       width="6000" />
  </g>
  <g
     inkscape:groupmode="layer"
     id="layer2"
     inkscape:label="Terrapim"
     style="display:inline"
     transform="translate(-12706.615,5036.5935)">
    <path
       style="fill:none;stroke:#000000;stroke-width:7.51181078;stroke-linecap:butt;stroke-linejoin:round;stroke-miterlimit:4;stroke-dasharray:none;stroke-opacity:1"
       d="m 14630.977,-4924.2723 c 47.315,-0.9099 94.93,-0.3175 143.995,7.5195 90.742,55.1758 198.277,62.7545 300.663,59.7722 l 415.587,32.4244 c 164.588,-0.292 321.585,-23.7524 465,-103.4468 162.5,-31.3452 325,-52.1212 487.5,-71.2499 280.381,14.7713 507.615,61.431 746.25,101.2498 181.065,14.9355 403.087,-9.7242 521.25,15.0001 108.12,77.9188 165.597,178.346 183.75,296.25 56.283,37.2104 102.072,87.014 108.75,183.75 133.688,119.933 130.426,288.7764 127.5,457.5002 24.118,139.8041 68.775,284.1724 7.5,405 179.272,169.2445 421.09,319.9291 490.766,516.5727 57.555,67.318 56.169,114.758 55.945,170.383 -0.223,55.625 11.24,135.8055 -32.961,168.0443 -131.362,130.3863 -264.451,208.9687 -386.25,626.2501 -35.147,94.8529 -77.354,163.8961 -142.5,228.7499 -190.673,144.0615 -395.821,302.8077 -675,427.5 -58.978,6.7111 -117.955,44.593 -176.933,123.7499 -73.624,8.5133 -153.102,3.3661 -231.817,0 -51.033,-30.9529 -135.455,-13.9623 -123.75,-135 2.525,-30.009 6.626,-60.5421 30,-97.4999 5.471,-68.2807 14.168,-135.7931 -52.5,-221.2501 -146.36,-101.5055 -243.028,-244.3507 -588.75,-180 -108.877,10.1486 -215.381,8.1939 -341.25,105.0001 -227.206,29.363 -441.051,50.1605 -532.5,-7.5002 -11.354,-65.3607 -8.213,-134.0662 26.25,-209.9999 60.971,-100 30.37,-199.9998 3.75,-299.9999 -144.45,75.8693 -274.375,181.1438 -558.75,-26.2499 -129.138,-3.9799 -278.265,-68.6138 -360,71.2499 -51.991,78.5322 -57.843,178.0362 -72.992,273.3146 -2.058,43.0982 -88.976,98.2258 -108.75,183.7499 -189.765,14.1446 -374.364,-93.7723 -576.194,-19.4323 -148.373,-13.8799 -205.079,-112.3747 -239.564,-231.3822 -2.019,-86.3507 -14.825,-114.5818 -35.531,-152.6517 63.532,-134.6595 136.317,-271.4391 118.031,-387.3483 -56.709,65.2634 -94.147,133.8993 -217.5,187.4999 -37.5,10.8391 -75,3.0262 -112.5,56.2501 -8.486,-5.7988 -18.583,-4.3489 -24.844,-20.1563 -4.966,-103.6542 -26.131,-159.9327 -74.063,-153.2812 -15.144,-14.203 -9.425,-46.0874 -13.593,-66.5626 -72.415,-0.1701 -138.583,-12.835 -217.5,0 -56.25,10.813 -115.807,19.5087 -172.057,49.6356 -89.427,-41.5764 -50.676,-139.9143 -43.731,-192.5196 41.249,-77.5962 67.028,-158.7617 85.864,-238.0819 90.656,-172.9122 328.633,-125.998 337.5,-112.5 88.105,48.8804 170.474,31.1375 249.696,0.8702 81.306,-18.934 142.138,-41.0711 181.742,-75.6433 58.924,-45.7841 120.626,-69.3564 181.118,-102.5952 22.459,-68.6889 11.382,-126.097 -17.424,-175.3404 -35.091,-117.5038 -14.711,-191.304 7.292,-263.8256 92.548,-43.3057 197.503,-52.4914 311.25,-37.5001 59.329,-155.0492 167.723,-267.3763 135.871,-423.2755 24.899,-35.9632 61.75,-45.6679 61.75,-45.6679 276.875,-75.2238 280.343,-206.2723 306.695,-269.2613 52.351,-125.136 59.651,-249.5786 8.108,-398.8967 6.568,-15.63 16.195,-25.907 29.831,-29.1677 z"
       id="path827"
       inkscape:connector-curvature="0"
       sodipodi:nodetypes="cccccccccccccscccccccccccccccccccccccccccccccccccccccsscc" />
    <path
       style="fill:none;stroke:#000000;stroke-width:7.5px;stroke-linecap:butt;stroke-linejoin:miter;stroke-opacity:1"
       d="m 15901.949,-3333.9969 c 34.593,42.4888 70.664,88.4259 92.477,101.094 49.855,-14.6135 94.984,-39.2066 136.891,-70.6 55.585,-56.9903 128.007,-96.7655 193.57,-132.5823 36.435,-13.4757 64.748,-25.7911 95.46,-38.4492 -55.596,8.3112 -100.592,24.3304 -146.835,39.4433 -34.154,11.173 -43.193,7.8375 -89.494,31.157 -23.16,8.6595 -60.909,31.2352 -85.847,39.4432 -61.435,16.1235 -127.741,24.9406 -196.222,30.494 z"
       id="path834"
       inkscape:connector-curvature="0"
       sodipodi:nodetypes="ccccccccc" />
  </g>
  <g
     inkscape:groupmode="layer"
     id="layer16"
     inkscape:label="Hex Grid"
     transform="translate(-12706.614,-5815.8305)">
    <g
       inkscape:groupmode="layer"
       id="layer19"
       inkscape:label="Province"
       style="display:none">
      <rect
         style="opacity:1;fill:url(#ProvinceHex);fill-opacity:1;fill-rule:nonzero;stroke:none;stroke-width:1.00000441;stroke-linejoin:round;stroke-miterlimit:4;stroke-dasharray:none;stroke-dashoffset:0;stroke-opacity:1"
         id="rect12215"
         width="18750"
         height="11250.099"
         x="-1.4061663e-09"
         y="-0.79882812" />
    </g>
    <g
       inkscape:groupmode="layer"
       id="layer18"
       inkscape:label="Kingdom"
       style="display:none">
      <rect
         style="opacity:1;fill:url(#KingdomHex);fill-opacity:1;fill-rule:nonzero;stroke:none;stroke-width:1;stroke-linejoin:round;stroke-miterlimit:4;stroke-dasharray:none;stroke-dashoffset:0;stroke-opacity:1"
         id="rect12217"
         width="18750"
         height="11250"
         x="-1.4061663e-09"
         y="-0.70019531" />
    </g>
    <g
       inkscape:groupmode="layer"
       id="layer17"
       inkscape:label="Continent"
       style="display:none">
      <rect
         style="opacity:1;fill:url(#ContinentHex);fill-opacity:1;fill-rule:nonzero;stroke:none;stroke-width:1.00000441;stroke-linejoin:round;stroke-miterlimit:4;stroke-dasharray:none;stroke-dashoffset:0;stroke-opacity:1"
         id="rect12219"
         width="18750"
         height="11250.099"
         x="-1.4061663e-09"
         y="-0.79882812" />
    </g>
  </g>
</svg>
