{
    "accessors" : [
        {
            "bufferView" : 0,
            "componentType" : 5123,
            "count" : 48,
            "max" : [
                47
            ],
            "min" : [
                0
            ],
            "type" : "SCALAR"
        },
        {
            "bufferView" : 1,
            "componentType" : 5126,
            "count" : 48,
            "max" : [
                0.02583112008869648,
                0.5382681488990784,
                0.22212277352809906
            ],
            "min" : [
                -0.02583112008869648,
                0.4866058826446533,
                0.22036556899547577
            ],
            "type" : "VEC3"
        },
        {
            "bufferView" : 2,
            "componentType" : 5126,
            "count" : 48,
            "max" : [
                0.10827967524528503,
                0.10827967524528503,
                1.0
            ],
            "min" : [
                -0.10827967524528503,
                -0.10827967524528503,
                0.9941099286079407
            ],
            "type" : "VEC3"
        },
        {
            "bufferView" : 3,
            "componentType" : 5126,
            "count" : 48,
            "max" : [
                0.9810038208961487,
                0.9810044169425964,
                0.02102535031735897,
                1.0
            ],
            "min" : [
                -0.9810038208961487,
                -0.9810044765472412,
                -0.021025292575359344,
                1.0
            ],
            "type" : "VEC4"
        },
        {
            "bufferView" : 4,
            "componentType" : 5126,
            "count" : 48,
            "max" : [
                1.0,
                1.0
            ],
            "min" : [
                0.0,
                0.0
            ],
            "type" : "VEC2"
        },
        {
            "bufferView" : 5,
            "componentType" : 5123,
            "count" : 2370,
            "max" : [
                1757
            ],
            "min" : [
                0
            ],
            "type" : "SCALAR"
        },
        {
            "bufferView" : 6,
            "componentType" : 5126,
            "count" : 1758,
            "max" : [
                0.26746395230293274,
                0.5165370106697083,
                0.2003874033689499
            ],
            "min" : [
                -0.2644195258617401,
                0.0,
                -0.14609302580356598
            ],
            "type" : "VEC3"
        },
        {
            "bufferView" : 7,
            "componentType" : 5126,
            "count" : 1758,
            "max" : [
                0.999969482421875,
                1.0,
                0.99945068359375
            ],
            "min" : [
                -0.999969482421875,
                -1.0,
                -0.9944456219673157
            ],
            "type" : "VEC3"
        },
        {
            "bufferView" : 8,
            "componentType" : 5126,
            "count" : 1758,
            "max" : [
                1.0,
                0.9994661808013916,
                1.0,
                1.0
            ],
            "min" : [
                -1.0,
                -0.952126681804657,
                -1.0,
                1.0
            ],
            "type" : "VEC4"
        },
        {
            "bufferView" : 9,
            "componentType" : 5126,
            "count" : 1758,
            "max" : [
                1.0,
                1.0
            ],
            "min" : [
                0.0,
                0.0
            ],
            "type" : "VEC2"
        },
        {
            "bufferView" : 10,
            "componentType" : 5123,
            "count" : 96,
            "max" : [
                63
            ],
            "min" : [
                0
            ],
            "type" : "SCALAR"
        },
        {
            "bufferView" : 11,
            "componentType" : 5126,
            "count" : 64,
            "max" : [
                0.08610372990369797,
                0.598540723323822,
                0.21672186255455017
            ],
            "min" : [
                -0.08610372990369797,
                0.4263332486152649,
                0.20787282288074493
            ],
            "type" : "VEC3"
        },
        {
            "bufferView" : 12,
            "componentType" : 5126,
            "count" : 64,
            "max" : [
                0.42518386244773865,
                0.42518386244773865,
                0.9795221090316772
            ],
            "min" : [
                -0.42518386244773865,
                -0.42518386244773865,
                0.905087411403656
            ],
            "type" : "VEC3"
        },
        {
            "bufferView" : 13,
            "componentType" : 5126,
            "count" : 64,
            "max" : [
                0.9841771125793457,
                0.9841772317886353,
                0.07534123957157135,
                1.0
            ],
            "min" : [
                -0.9841771125793457,
                -0.9841770529747009,
                -0.07534105330705643,
                1.0
            ],
            "type" : "VEC4"
        },
        {
            "bufferView" : 14,
            "componentType" : 5126,
            "count" : 64,
            "max" : [
                1.0,
                1.0
            ],
            "min" : [
                0.0,
                0.0
            ],
            "type" : "VEC2"
        },
        {
            "bufferView" : 15,
            "componentType" : 5123,
            "count" : 1452,
            "max" : [
                999
            ],
            "min" : [
                0
            ],
            "type" : "SCALAR"
        },
        {
            "bufferView" : 16,
            "componentType" : 5126,
            "count" : 1000,
            "max" : [
                0.2718749940395355,
                0.7460619211196899,
                0.22315263748168945
            ],
            "min" : [
                -0.2688305675983429,
                0.41243696212768555,
                -0.23113524913787842
            ],
            "type" : "VEC3"
        },
        {
            "bufferView" : 17,
            "componentType" : 5126,
            "count" : 1000,
            "max" : [
                1.0,
                1.0,
                1.0
            ],
            "min" : [
                -1.0,
                -1.0,
                -1.0
            ],
            "type" : "VEC3"
        },
        {
            "bufferView" : 18,
            "componentType" : 5126,
            "count" : 1000,
            "max" : [
                1.0,
                1.0,
                1.0,
                1.0
            ],
            "min" : [
                -1.0,
                -1.0,
                -1.0,
                1.0
            ],
            "type" : "VEC4"
        },
        {
            "bufferView" : 19,
            "componentType" : 5126,
            "count" : 1000,
            "max" : [
                1.0,
                1.0
            ],
            "min" : [
                0.0,
                0.0
            ],
            "type" : "VEC2"
        },
        {
            "bufferView" : 20,
            "componentType" : 5123,
            "count" : 96,
            "max" : [
                63
            ],
            "min" : [
                0
            ],
            "type" : "SCALAR"
        },
        {
            "bufferView" : 21,
            "componentType" : 5126,
            "count" : 64,
            "max" : [
                0.05166224017739296,
                0.5640992522239685,
                0.22036556899547577
            ],
            "min" : [
                -0.05166224017739296,
                0.4607747793197632,
                0.21672186255455017
            ],
            "type" : "VEC3"
        },
        {
            "bufferView" : 22,
            "componentType" : 5126,
            "count" : 64,
            "max" : [
                0.20120853185653687,
                0.20120853185653687,
                0.9941099286079407
            ],
            "min" : [
                -0.20120853185653687,
                -0.20120853185653687,
                0.9795221090316772
            ],
            "type" : "VEC3"
        },
        {
            "bufferView" : 23,
            "componentType" : 5126,
            "count" : 64,
            "max" : [
                0.9815419912338257,
                0.9815419912338257,
                0.03848029673099518,
                1.0
            ],
            "min" : [
                -0.9815419912338257,
                -0.9815419912338257,
                -0.03848018869757652,
                1.0
            ],
            "type" : "VEC4"
        },
        {
            "bufferView" : 24,
            "componentType" : 5126,
            "count" : 64,
            "max" : [
                1.0,
                1.0
            ],
            "min" : [
                0.0,
                0.0
            ],
            "type" : "VEC2"
        },
        {
            "bufferView" : 25,
            "componentType" : 5123,
            "count" : 624,
            "max" : [
                431
            ],
            "min" : [
                0
            ],
            "type" : "SCALAR"
        },
        {
            "bufferView" : 26,
            "componentType" : 5126,
            "count" : 432,
            "max" : [
                0.22499993443489075,
                0.7374369502067566,
                0.20787283778190613
            ],
            "min" : [
                -0.22499990463256836,
                0.2874371111392975,
                -0.2250000387430191
            ],
            "type" : "VEC3"
        },
        {
            "bufferView" : 27,
            "componentType" : 5126,
            "count" : 432,
            "max" : [
                1.0,
                1.0,
                0.905087411403656
            ],
            "min" : [
                -1.0,
                -1.0,
                -0.999969482421875
            ],
            "type" : "VEC3"
        },
        {
            "bufferView" : 28,
            "componentType" : 5126,
            "count" : 432,
            "max" : [
                0.9999999403953552,
                1.0,
                -1.2154472642578185e-05,
                1.0
            ],
            "min" : [
                -0.9999999403953552,
                -0.9999999403953552,
                -1.0,
                1.0
            ],
            "type" : "VEC4"
        },
        {
            "bufferView" : 29,
            "componentType" : 5126,
            "count" : 432,
            "max" : [
                1.0,
                1.0
            ],
            "min" : [
                0.0,
                0.0
            ],
            "type" : "VEC2"
        }
    ],
    "asset" : {
        "generator" : "Khronos Blender glTF 2.0 exporter",
        "version" : "2.0"
    },
    "bufferViews" : [
        {
            "buffer" : 0,
            "byteLength" : 96,
            "byteOffset" : 0,
            "target" : 34963
        },
        {
            "buffer" : 0,
            "byteLength" : 576,
            "byteOffset" : 96,
            "target" : 34962
        },
        {
            "buffer" : 0,
            "byteLength" : 576,
            "byteOffset" : 672,
            "target" : 34962
        },
        {
            "buffer" : 0,
            "byteLength" : 768,
            "byteOffset" : 1248,
            "target" : 34962
        },
        {
            "buffer" : 0,
            "byteLength" : 384,
            "byteOffset" : 2016,
            "target" : 34962
        },
        {
            "buffer" : 0,
            "byteLength" : 4740,
            "byteOffset" : 2400,
            "target" : 34963
        },
        {
            "buffer" : 0,
            "byteLength" : 21096,
            "byteOffset" : 7140,
            "target" : 34962
        },
        {
            "buffer" : 0,
            "byteLength" : 21096,
            "byteOffset" : 28236,
            "target" : 34962
        },
        {
            "buffer" : 0,
            "byteLength" : 28128,
            "byteOffset" : 49332,
            "target" : 34962
        },
        {
            "buffer" : 0,
            "byteLength" : 14064,
            "byteOffset" : 77460,
            "target" : 34962
        },
        {
            "buffer" : 0,
            "byteLength" : 192,
            "byteOffset" : 91524,
            "target" : 34963
        },
        {
            "buffer" : 0,
            "byteLength" : 768,
            "byteOffset" : 91716,
            "target" : 34962
        },
        {
            "buffer" : 0,
            "byteLength" : 768,
            "byteOffset" : 92484,
            "target" : 34962
        },
        {
            "buffer" : 0,
            "byteLength" : 1024,
            "byteOffset" : 93252,
            "target" : 34962
        },
        {
            "buffer" : 0,
            "byteLength" : 512,
            "byteOffset" : 94276,
            "target" : 34962
        },
        {
            "buffer" : 0,
            "byteLength" : 2904,
            "byteOffset" : 94788,
            "target" : 34963
        },
        {
            "buffer" : 0,
            "byteLength" : 12000,
            "byteOffset" : 97692,
            "target" : 34962
        },
        {
            "buffer" : 0,
            "byteLength" : 12000,
            "byteOffset" : 109692,
            "target" : 34962
        },
        {
            "buffer" : 0,
            "byteLength" : 16000,
            "byteOffset" : 121692,
            "target" : 34962
        },
        {
            "buffer" : 0,
            "byteLength" : 8000,
            "byteOffset" : 137692,
            "target" : 34962
        },
        {
            "buffer" : 0,
            "byteLength" : 192,
            "byteOffset" : 145692,
            "target" : 34963
        },
        {
            "buffer" : 0,
            "byteLength" : 768,
            "byteOffset" : 145884,
            "target" : 34962
        },
        {
            "buffer" : 0,
            "byteLength" : 768,
            "byteOffset" : 146652,
            "target" : 34962
        },
        {
            "buffer" : 0,
            "byteLength" : 1024,
            "byteOffset" : 147420,
            "target" : 34962
        },
        {
            "buffer" : 0,
            "byteLength" : 512,
            "byteOffset" : 148444,
            "target" : 34962
        },
        {
            "buffer" : 0,
            "byteLength" : 1248,
            "byteOffset" : 148956,
            "target" : 34963
        },
        {
            "buffer" : 0,
            "byteLength" : 5184,
            "byteOffset" : 150204,
            "target" : 34962
        },
        {
            "buffer" : 0,
            "byteLength" : 5184,
            "byteOffset" : 155388,
            "target" : 34962
        },
        {
            "buffer" : 0,
            "byteLength" : 6912,
            "byteOffset" : 160572,
            "target" : 34962
        },
        {
            "buffer" : 0,
            "byteLength" : 3456,
            "byteOffset" : 167484,
            "target" : 34962
        }
    ],
    "buffers" : [
        {
            "byteLength" : 170940,
            "uri" : "modron.bin"
        }
    ],
    "materials" : [
        {
            "name" : "Cornea",
            "pbrMetallicRoughness" : {
                "baseColorFactor" : [
                    0.0,
                    6.415703196685062e-05,
                    0.640000066757203,
                    1.0
                ],
                "metallicFactor" : 0.0
            }
        },
        {
            "name" : "Metal",
            "pbrMetallicRoughness" : {
                "baseColorFactor" : [
                    0.640000066757203,
                    0.34390283143375555,
                    0.037330690582553894,
                    1.0
                ],
                "metallicFactor" : 0.0
            }
        },
        {
            "name" : "Pewter",
            "pbrMetallicRoughness" : {
                "baseColorFactor" : [
                    0.799102783203125,
                    0.539479672908783,
                    0.2195262312889099,
                    1.0
                ],
                "metallicFactor" : 0.0
            }
        },
        {
            "name" : "Pupil",
            "pbrMetallicRoughness" : {
                "baseColorFactor" : [
                    0.0,
                    0.0,
                    0.0,
                    1.0
                ],
                "metallicFactor" : 0.0
            }
        },
        {
            "name" : "Steel",
            "pbrMetallicRoughness" : {
                "baseColorFactor" : [
                    0.43656926805629226,
                    0.2520998277083013,
                    0.0649856219438556,
                    1.0
                ],
                "metallicFactor" : 0.0
            }
        },
        {
            "name" : "White",
            "pbrMetallicRoughness" : {
                "baseColorFactor" : [
                    0.7616075152398274,
                    0.7616075152398274,
                    0.7616075152398274,
                    1.0
                ],
                "metallicFactor" : 0.0
            }
        }
    ],
    "meshes" : [
        {
            "name" : "Sphere",
            "primitives" : [
                {
                    "attributes" : {
                        "NORMAL" : 2,
                        "POSITION" : 1,
                        "TANGENT" : 3,
                        "TEXCOORD_0" : 4
                    },
                    "indices" : 0,
                    "material" : 3
                },
                {
                    "attributes" : {
                        "NORMAL" : 7,
                        "POSITION" : 6,
                        "TANGENT" : 8,
                        "TEXCOORD_0" : 9
                    },
                    "indices" : 5,
                    "material" : 4
                },
                {
                    "attributes" : {
                        "NORMAL" : 12,
                        "POSITION" : 11,
                        "TANGENT" : 13,
                        "TEXCOORD_0" : 14
                    },
                    "indices" : 10,
                    "material" : 5
                },
                {
                    "attributes" : {
                        "NORMAL" : 17,
                        "POSITION" : 16,
                        "TANGENT" : 18,
                        "TEXCOORD_0" : 19
                    },
                    "indices" : 15,
                    "material" : 1
                },
                {
                    "attributes" : {
                        "NORMAL" : 22,
                        "POSITION" : 21,
                        "TANGENT" : 23,
                        "TEXCOORD_0" : 24
                    },
                    "indices" : 20,
                    "material" : 0
                },
                {
                    "attributes" : {
                        "NORMAL" : 27,
                        "POSITION" : 26,
                        "TANGENT" : 28,
                        "TEXCOORD_0" : 29
                    },
                    "indices" : 25,
                    "material" : 2
                }
            ]
        }
    ],
    "nodes" : [
        {
            "mesh" : 0,
            "name" : "Sphere"
        }
    ],
    "scene" : 0,
    "scenes" : [
        {
            "name" : "Scene",
            "nodes" : [
                0
            ]
        }
    ]
}
