<?xml version="1.0" encoding="UTF-8" standalone="no"?>
<!-- Created with Inkscape (http://www.inkscape.org/) -->

<svg
   xmlns:dc="http://purl.org/dc/elements/1.1/"
   xmlns:cc="http://creativecommons.org/ns#"
   xmlns:rdf="http://www.w3.org/1999/02/22-rdf-syntax-ns#"
   xmlns:svg="http://www.w3.org/2000/svg"
   xmlns="http://www.w3.org/2000/svg"
   xmlns:sodipodi="http://sodipodi.sourceforge.net/DTD/sodipodi-0.dtd"
   xmlns:inkscape="http://www.inkscape.org/namespaces/inkscape"
   width="167.24803mm"
   height="193.98962mm"
   viewBox="0 0 167.24803 193.98963"
   version="1.1"
   id="svg3787"
   inkscape:version="0.92.4 (5da689c313, 2019-01-14)"
   sodipodi:docname="TileableContinentHex.svg">
  <defs
     id="defs3781" />
  <sodipodi:namedview
     id="base"
     pagecolor="#ffffff"
     bordercolor="#666666"
     borderopacity="1.0"
     inkscape:pageopacity="0.0"
     inkscape:pageshadow="2"
     inkscape:zoom="0.7"
     inkscape:cx="212.0704"
     inkscape:cy="520.35231"
     inkscape:document-units="mm"
     inkscape:current-layer="layer1"
     showgrid="false"
     inkscape:window-width="1920"
     inkscape:window-height="1017"
     inkscape:window-x="1912"
     inkscape:window-y="-8"
     inkscape:window-maximized="1" />
  <metadata
     id="metadata3784">
    <rdf:RDF>
      <cc:Work
         rdf:about="">
        <dc:format>image/svg+xml</dc:format>
        <dc:type
           rdf:resource="http://purl.org/dc/dcmitype/StillImage" />
        <dc:title></dc:title>
      </cc:Work>
    </rdf:RDF>
  </metadata>
  <g
     inkscape:label="Layer 1"
     inkscape:groupmode="layer"
     id="layer1"
     transform="translate(11.947722,-116.86845)">
    <path
       style="opacity:1;fill:none;fill-opacity:1;fill-rule:nonzero;stroke:#000000;stroke-width:1.15761089;stroke-linejoin:round;stroke-miterlimit:4;stroke-dasharray:none;stroke-dashoffset:0;stroke-opacity:1"
       d="m 155.30029,310.27927 h -27.87468 c -9.29155,-16.09345 -18.58312,-32.18691 -27.874669,-48.28036 9.291569,-16.09345 18.583119,-32.18689 27.874689,-48.28034 h 27.87466 m 2e-5,-1e-5 H 127.42564 C 118.13408,197.6251 108.84252,181.53165 99.550964,165.4382 108.84252,149.34475 118.13408,133.2513 127.42564,117.15785 m -111.498679,0 c 9.291562,16.09345 18.583109,32.18692 27.874672,48.28037 -9.291555,16.09345 -18.583123,32.18688 -27.874677,48.28034 H -11.947717 M 99.550964,261.99892 H 43.801623 l -27.87467,-48.28035 27.874675,-48.28024 h 55.749348 c 9.291554,16.09345 18.583114,32.18679 27.874674,48.28024 -9.29157,16.09345 -18.58312,32.1869 -27.874686,48.28035 z M -11.947717,213.71857 h 27.874674 l 27.874671,48.28035 -27.874675,48.28035 h -27.874675"
       id="path4342"
       inkscape:connector-curvature="0"
       sodipodi:nodetypes="ccccccccccccccccccccccccc" />
  </g>
</svg>
