<?xml version="1.0" encoding="UTF-8" standalone="yes"?>
<svg xmlns="http://www.w3.org/2000/svg" xmlns:xlink="http://www.w3.org/1999/xlink" version="1.0" x="0" y="0" width="360" height="240">
<rect width="360" height="120" x="0" y="0" fill="#004080" />
  <rect width="360" height="120" x="0" y="120" fill="#108042" />
<g transform="translate(180.000000,120.000000)">
<g transform="scale(0.588235)">
<g transform="translate(-149.000000,-161.000000)">

  <path d="M206.5 1.5C212.17 1.5 217.17 2.5 221.5 4.5 225.83 6.5 229.92 9.25 233.75 12.75 237.58 16.25 241.75 21.42 246.25 28.25 250.75 35.08 255.17 40 259.5 43 263.83 46 268.58 49.08 273.75 52.25 278.92 55.42 282.83 59 285.5 63 288.17 67 290.08 70.83 291.25 74.5 292.42 78.17 292.42 84.17 291.25 92.5 290.08 100.83 288.17 107.5 285.5 112.5 282.83 117.5 278.58 122.25 272.75 126.75 266.92 131.25 261.17 134.83 255.5 137.5 249.83 140.17 244.83 142.17 240.5 143.5 236.17 144.83 226.58 146.25 211.75 147.75 196.92 149.25 189.25 150.25 188.75 150.75L188 151.5 188.5 152.75C188.83 153.58 199.5 153.75 220.5 153.25 241.5 152.75 256 153.67 264 156 272 158.33 278.08 161.08 282.25 164.25 286.42 167.42 289.67 170.83 292 174.5 294.33 178.17 296.17 181.67 297.5 185 298.83 188.33 299 194.83 298 204.5 297 214.17 295.42 220.75 293.25 224.25 291.08 227.75 289.83 229.92 289.5 230.75L289 232 284.75 234.5C281.92 236.17 278.5 239.67 274.5 245 270.5 250.33 267.17 255.83 264.5 261.5 261.83 267.17 259.58 271.25 257.75 273.75 255.92 276.25 254.17 278.08 252.5 279.25 250.83 280.42 249.5 281.75 248.5 283.25 247.5 284.75 244.33 286.83 239 289.5 233.67 292.17 227.5 293 220.5 292 213.5 291 207.58 288.75 202.75 285.25 197.92 281.75 193.83 278.33 190.5 275 187.17 271.67 183.75 267.58 180.25 262.75 176.75 257.92 174.42 254.42 173.25 252.25 172.08 250.08 170.67 245 169 237 167.33 229 165.5 222 163.5 216L160.5 207 159 213.5C158 217.83 158 227.33 159 242 160 256.67 162.17 268.33 165.5 277 168.83 285.67 171.92 291.75 174.75 295.25 177.58 298.75 180.92 302.25 184.75 305.75 188.58 309.25 190.17 312.83 189.5 316.5 188.83 320.17 188.42 322.08 188.25 322.25L188 322.5 181 321C176.33 320 171.75 317.58 167.25 313.75 162.75 309.92 159 305.83 156 301.5 153 297.17 150.17 291.5 147.5 284.5 144.83 277.5 143 270.67 142 264 141 257.33 140.92 245.25 141.75 227.75L143 201.5 139.75 202.25C137.58 202.75 136 204.5 135 207.5 134 210.5 132.17 220.33 129.5 237 126.83 253.67 124.17 264.5 121.5 269.5 118.83 274.5 116.42 278.08 114.25 280.25 112.08 282.42 109.33 284.67 106 287 102.67 289.33 99 291.17 95 292.5 91 293.83 84.67 294 76 293 67.33 292 61 290.33 57 288 53 285.67 48.42 281.25 43.25 274.75 38.08 268.25 34.25 262.33 31.75 257L28 249 26.5 247.75C25.5 246.92 23.58 245.25 20.75 242.75 17.92 240.25 14.33 236.17 10 230.5 5.67 224.83 3.17 221 2.5 219 1.83 217 2 211.5 3 202.5 4 193.5 6.17 186.33 9.5 181 12.83 175.67 16.92 171.08 21.75 167.25 26.58 163.42 31.67 160.5 37 158.5 42.33 156.5 54.5 155.33 73.5 155 92.5 154.67 102.75 153.75 104.25 152.25L106.5 150 105.25 148.75C104.42 147.92 94 146.67 74 145 54 143.33 39.5 140.5 30.5 136.5 21.5 132.5 15.25 128.75 11.75 125.25 8.25 121.75 5.83 118.83 4.5 116.5 3.17 114.17 2.33 109.83 2 103.5 1.67 97.17 2.75 90.92 5.25 84.75 7.75 78.58 13.17 72 21.5 65 29.83 58 34.33 54.42 35 54.25L36 54 37.5 51.25C38.5 49.42 41.42 45.42 46.25 39.25 51.08 33.08 54.75 28.58 57.25 25.75 59.75 22.92 63.33 19.67 68 16 72.67 12.33 77.67 9.67 83 8 88.33 6.33 93 5.67 97 6 101 6.33 105.67 7.67 111 10 116.33 12.33 121.08 15.42 125.25 19.25 129.42 23.08 132.5 27.17 134.5 31.5 136.5 35.83 138 41 139 47 140 53 141.42 64.33 143.25 81 145.08 97.67 146.33 106 147 106L148 106 148.75 103.5C149.25 101.83 150.17 91.33 151.5 72 152.83 52.67 154 41.83 155 39.5 156 37.17 158.42 33.25 162.25 27.75 166.08 22.25 170.67 17.5 176 13.5 181.33 9.5 186.33 6.5 191 4.5 195.67 2.5 200.83 1.5 206.5 1.5z" style="fill:#000000;stroke-width:3;stroke:#000"/>
</g>
</g>
</g>
</svg>

