<?xml version="1.0" encoding="UTF-8" standalone="yes"?>
<svg xmlns="http://www.w3.org/2000/svg" xmlns:xlink="http://www.w3.org/1999/xlink" version="1.0" x="0" y="0" width="360" height="240">
<rect width="360" height="240" x="0" y="0" fill="#000000" />
  <rect width="40" height="240" x="40" y="0" fill="#ce1126" />
  <rect width="40" height="240" x="120" y="0" fill="#ce1126" />
  <rect width="40" height="240" x="200" y="0" fill="#ce1126" />
  <rect width="40" height="240" x="280" y="0" fill="#ce1126" />
<rect width="360" height="60" x="0" y="90" fill="#ce1126" />
  <rect width="60" height="240" x="150" y="0" fill="#ce1126" />
<g transform="translate(180.000000,120.000000)">
<g transform="scale(0.588235)">
<g transform="translate(-102.000000,-166.000000)">

  <rect width="69.3" height="229.4" x="69.8" y="88.5" style="fill:#fcd116;stroke-width:4;stroke:#000"/>
  <path d="M165.86 1.52C162.78 1.56 159.72 1.66 156.87 1.62 156.53 7.7 157 14.18 156.87 20.34 149.35 20.34 141.91 20.34 134.39 20.34 134.25 14.18 134.77 7.79 134.43 1.72 127.66 1.8 120.3 1.54 113.61 1.81 113.55 7.95 113.67 14.15 113.61 20.29L91.52 20.29 91.13 1.81C84.14 1.89 75.8 1.54 68.9 1.81L68.9 20.24 47.15 20.24 47.15 1.72C41.77 1.8 34.85 1.63 29.55 1.91 29.34 16.69 29.57 31.91 29.02 46.68 77.98 46.95 126.96 46.83 175.93 46.83L174.8 1.62C171.99 1.49 168.93 1.48 165.86 1.52zM29.11 47.46C30.07 49.71 32.8 52.74 34.15 54.89 36.32 57.89 38.38 60.86 40.7 63.74 40.65 64.47 40.6 65.2 40.55 65.94 40.49 66.85 40.45 67.76 40.4 68.67 40.38 69.08 40.38 69.48 40.35 69.89 40.26 71.73 40.18 73.57 40.11 75.42 39.74 84 39.48 92.71 39.18 101.32 39.17 101.48 39.19 101.65 39.18 101.81 39.16 102.48 39.11 103.14 39.08 103.81 38.31 120.3 37.39 137.04 36.49 153.81 35.49 170.97 34.46 188.12 33.8 205.17 33.85 205.17 33.9 205.17 33.95 205.17 33.94 205.4 33.91 205.63 33.9 205.86 27.24 213.44 14.5 227.81 10.35 232.59 7.36 260.46 4.35 290.01 1.5 317.92L82.92 317.92 83.41 274.18C83.52 265 91.39 256.39 102.23 256.39 113.26 256.39 120.97 264.94 120.99 274.18L121.09 317.92 203.05 317.92C203.19 314.11 201.69 309.74 201.44 305.85 198.85 281.63 196.47 256.99 193.72 232.79 151.85 233.55 53.68 233.09 11.81 232.79 53.64 232.79 151.89 232.6 193.47 232.64 191.94 230.1 188.56 227.15 186.63 224.67 181.39 218.52 176.09 211.9 170.8 205.81L167.96 148.19C167.91 146.98 167.87 145.78 167.81 144.57 166.72 118.2 165.74 91.81 164.34 65.45 164.37 65.08 164.33 64.8 164.25 64.57 164.24 64.36 164.21 64.14 164.2 63.93 164.05 63.93 163.9 63.93 163.76 63.93 163.44 63.76 163.03 63.7 162.49 63.69L162.44 63.69C161.64 63.67 160.62 63.77 159.41 63.79 130.06 63.79 100.84 63.8 71.58 63.83 68.76 63.82 44.05 63.8 41.23 63.79 74.95 63.76 130.75 63.73 164.34 63.64 167.97 58.53 172.09 52.66 175.58 47.46L29.11 47.46zM96.22 100.64L111.17 100.64 111.17 141 96.22 141 96.22 100.64zM170.71 205.66C156.07 205.62 48.71 205.62 34.05 205.61 56.78 205.39 147.99 205.51 170.71 205.66z" style="display:inline;fill:#fcd116;stroke-width:4;stroke:#000"/>
</g>
</g>
</g>
</svg>

