<!DOCTYPE svg PUBLIC "-//W3C//DTD SVG 20010904//EN" "http://www.w3.org/TR/2001/REC-SVG-20010904/DTD/svg10.dtd">
<svg version="1.0" xmlns="http://www.w3.org/2000/svg" width="321px" height="280px" viewBox="0 0 3210 2800" preserveAspectRatio="xMidYMid meet">
<g id="layer101" fill="#010101" stroke="none">
 <path d="M0 1400 l0 -1400 1605 0 1605 0 0 1400 0 1400 -1605 0 -1605 0 0 -1400z"/>
 </g>
<g id="layer102" fill="#fbfbfb" stroke="none">
 <path d="M2395 2630 c-46 -10 -75 -32 -96 -72 -30 -58 -25 -91 21 -165 13 -20 7 -27 -93 -123 -107 -102 -107 -102 -107 -150 0 -56 -24 -192 -45 -250 -8 -22 -12 -40 -9 -40 3 0 98 87 212 194 l206 194 33 -28 c35 -31 88 -46 128 -36 14 4 42 21 62 39 30 28 36 42 40 83 9 93 -47 154 -139 154 l-48 0 0 53 c0 99 -75 166 -165 147z"/>
 <path d="M679 2607 c-47 -31 -71 -81 -65 -134 l6 -43 -43 0 c-117 0 -192 -123 -131 -218 23 -34 74 -62 117 -62 42 0 70 12 104 43 29 26 22 31 253 -187 102 -95 186 -173 186 -172 1 0 -7 35 -18 76 -10 41 -22 117 -25 167 l-6 93 -108 100 -108 101 25 36 c46 69 24 172 -45 208 -44 22 -102 19 -142 -8z"/>
 <path d="M1454 2595 c-162 -35 -267 -136 -310 -298 -12 -44 -20 -147 -11 -147 1 0 46 22 100 50 130 65 219 85 372 85 141 -1 242 -24 373 -85 93 -44 88 -47 72 60 -20 128 -99 244 -202 296 -102 52 -263 68 -394 39z"/>
 <path d="M1422 2221 c-40 -10 -75 -20 -77 -23 -5 -5 11 -138 17 -143 2 -1 37 3 78 11 41 7 87 13 103 14 l27 0 0 80 0 80 -37 -1 c-21 0 -71 -9 -111 -18z"/>
 <path d="M1620 2161 l0 -78 91 -13 c50 -6 92 -10 94 -8 6 5 26 140 22 144 -6 7 -149 34 -178 34 l-29 0 0 -79z"/>
 <path d="M1876 2162 c-3 -15 -8 -48 -12 -73 l-6 -46 69 -25 c37 -14 75 -28 84 -32 19 -8 26 5 35 72 l6 48 -59 31 c-32 18 -71 36 -85 42 -24 9 -27 8 -32 -17z"/>
 <path d="M1221 2140 c-84 -47 -93 -57 -86 -105 13 -80 7 -78 95 -37 l80 37 -6 40 c-9 68 -15 95 -22 95 -4 0 -31 -14 -61 -30z"/>
 <path d="M1438 2016 c-32 -7 -60 -15 -63 -18 -3 -2 -2 -26 1 -52 l7 -48 51 6 c28 4 70 9 94 12 l42 6 0 54 0 54 -37 -1 c-21 0 -64 -6 -95 -13z"/>
 <path d="M1620 1976 l0 -54 38 -6 c20 -3 58 -8 83 -12 l46 -6 6 53 c4 29 5 54 3 56 -6 6 -110 23 -142 23 l-34 0 0 -54z"/>
 <path d="M1845 1953 c-4 -21 -8 -45 -11 -53 -2 -11 17 -23 64 -42 38 -16 72 -28 76 -28 9 0 36 64 36 85 0 16 -77 57 -132 70 -25 6 -27 4 -33 -32z"/>
 <path d="M1232 1945 l-72 -34 15 -38 c9 -20 18 -39 20 -42 3 -2 36 8 74 23 l68 27 -8 42 c-4 23 -8 45 -9 50 0 12 -13 8 -88 -28z"/>
 <path d="M1504 1850 c-99 -11 -174 -34 -279 -88 -127 -65 -251 -189 -318 -319 -65 -125 -87 -217 -87 -358 0 -439 334 -775 770 -775 298 0 562 163 690 425 55 112 71 181 77 326 5 116 3 134 -21 218 -14 50 -38 115 -52 144 -147 293 -453 460 -780 427z m154 -116 c68 -47 -25 -133 -101 -93 -68 36 -39 109 43 109 20 0 46 -7 58 -16z m-315 -105 c47 -13 112 -70 138 -120 84 -165 -114 -359 -286 -280 -134 61 -161 236 -52 345 60 59 123 77 200 55z m667 -14 c68 -35 110 -112 110 -201 0 -177 -211 -266 -349 -148 -103 88 -89 269 26 336 62 37 155 42 213 13z"/>
 <path d="M2395 854 c-9 -31 -27 -80 -40 -109 l-23 -53 134 -123 c74 -67 134 -126 134 -129 0 -4 -7 -13 -14 -20 -8 -6 -22 -31 -31 -54 -59 -154 150 -259 246 -124 18 24 23 45 23 84 l-1 52 52 4 c84 7 135 59 135 140 0 88 -63 144 -152 136 -36 -4 -57 -13 -78 -33 l-29 -28 -113 105 c-62 58 -139 128 -170 157 l-56 52 -17 -57z"/>
 <path d="M600 745 l-164 -154 -33 30 c-71 62 -185 33 -219 -56 -19 -51 -14 -93 16 -135 26 -36 93 -63 137 -55 l33 6 -6 -39 c-13 -79 37 -154 111 -168 51 -9 84 3 127 45 34 34 38 44 38 88 0 37 -7 60 -25 87 -14 20 -25 39 -25 42 0 5 114 115 219 210 l43 40 -20 40 c-11 21 -28 66 -38 99 -10 33 -20 63 -23 67 -3 4 -80 -63 -171 -147z"/>
 </g>

</svg>