{
    "accessors" : [
        {
            "bufferView" : 0,
            "componentType" : 5123,
            "count" : 672,
            "max" : [
                415
            ],
            "min" : [
                0
            ],
            "type" : "SCALAR"
        },
        {
            "bufferView" : 1,
            "componentType" : 5126,
            "count" : 416,
            "max" : [
                1.994930624961853,
                3.0763072967529297,
                1.9949307441711426
            ],
            "min" : [
                -1.994930624961853,
                -1.500000238418579,
                -1.9949307441711426
            ],
            "type" : "VEC3"
        },
        {
            "bufferView" : 2,
            "componentType" : 5126,
            "count" : 416,
            "max" : [
                1.0,
                1.0,
                1.0
            ],
            "min" : [
                -1.0,
                -1.0,
                -1.0
            ],
            "type" : "VEC3"
        },
        {
            "bufferView" : 3,
            "componentType" : 5126,
            "count" : 416,
            "max" : [
                1.0,
                1.0,
                1.0,
                1.0
            ],
            "min" : [
                -1.0,
                -1.0,
                -1.0,
                1.0
            ],
            "type" : "VEC4"
        },
        {
            "bufferView" : 4,
            "componentType" : 5126,
            "count" : 416,
            "max" : [
                0.9999999403953552,
                1.0
            ],
            "min" : [
                0.0,
                0.0
            ],
            "type" : "VEC2"
        }
    ],
    "asset" : {
        "generator" : "Khronos Blender glTF 2.0 exporter",
        "version" : "2.0"
    },
    "bufferViews" : [
        {
            "buffer" : 0,
            "byteLength" : 1344,
            "byteOffset" : 0,
            "target" : 34963
        },
        {
            "buffer" : 0,
            "byteLength" : 4992,
            "byteOffset" : 1344,
            "target" : 34962
        },
        {
            "buffer" : 0,
            "byteLength" : 4992,
            "byteOffset" : 6336,
            "target" : 34962
        },
        {
            "buffer" : 0,
            "byteLength" : 6656,
            "byteOffset" : 11328,
            "target" : 34962
        },
        {
            "buffer" : 0,
            "byteLength" : 3328,
            "byteOffset" : 17984,
            "target" : 34962
        }
    ],
    "buffers" : [
        {
            "byteLength" : 21312,
            "uri" : "house.bin"
        }
    ],
    "meshes" : [
        {
            "name" : "Cube",
            "primitives" : [
                {
                    "attributes" : {
                        "NORMAL" : 2,
                        "POSITION" : 1,
                        "TANGENT" : 3,
                        "TEXCOORD_0" : 4
                    },
                    "indices" : 0
                }
            ]
        }
    ],
    "nodes" : [
        {
            "mesh" : 0,
            "name" : "House",
            "translation" : [
                0.0,
                1.5,
                -0.0
            ]
        }
    ],
    "scene" : 0,
    "scenes" : [
        {
            "name" : "Scene",
            "nodes" : [
                0
            ]
        }
    ]
}
