<?xml version="1.0" encoding="UTF-8" standalone="no"?><svg width="309.051" height="323.782" xmlns="http://www.w3.org/2000/svg"><style><![CDATA[@import url("https://fonts.googleapis.com/css?family=IM+Fell+Great+Primer");]]></style><rect x="0" y="0" width="309.051" height="323.782" id="background" fill="#6C823A"/><g id="map" transform="translate(139.585 146.088)"><g fill="none"><polyline points="-58.639,67.935 -72.38,83.748 -78.051,95.479 -80.757,101.881 -82.389,106.865 -83.577,111.734 -84.321,116.488 -84.832,121.562 -85.108,126.955 -85.15,132.668 -84.958,138.7 -84.801,144.799 -84.68,150.964 -84.594,157.196 -84.544,163.494 -84.529,169.859 -84.55,176.29 -84.606,182.788 -84.697,189.353 -84.803,195.714 -84.924,201.872 -85.059,207.827 -85.21,213.578 -85.375,219.127 -85.554,224.472 -85.749,229.613 -85.958,234.552 -86.051,239.517 -86.027,244.51 -85.887,249.529 -85.63,254.575 -85.257,259.648 -84.768,264.747 -84.162,269.874 -83.439,275.028 -82.945,279.92 -82.68,284.551 -82.644,288.92 -82.836,293.028 -83.257,296.875 -83.907,300.461 -84.786,303.785 -85.893,306.848 -87.749,309.961 -90.356,313.125 -93.711,316.339 -97.817,319.604 -103.559,323.352 -110.939,327.584 -122.621,333.6 -146.595,345.3" stroke="#888888" stroke-width="2.563" stroke-linejoin="round" stroke-linecap="butt"/><polyline points="6.742,8.013 8.625,17.541 6.664,26.154 -7.62,35.055 -19.241,44.64 -31.389,49.563 -43.564,58.273 -58.639,67.935 -72.38,83.748 -78.051,95.479 -80.757,101.881 -82.389,106.865 -83.577,111.734 -84.321,116.488 -84.832,121.562 -85.108,126.955 -85.15,132.668 -84.958,138.7 -84.801,144.799 -84.68,150.964 -84.594,157.196 -84.544,163.494 -84.529,169.859 -84.55,176.29 -84.606,182.788 -84.697,189.353 -84.803,195.714 -84.924,201.872 -85.059,207.827 -85.21,213.578 -85.375,219.127 -85.554,224.472 -85.749,229.613 -85.958,234.552 -86.051,239.517 -86.027,244.51 -85.887,249.529 -85.63,254.575 -85.257,259.648 -84.768,264.747 -84.162,269.874 -83.439,275.028 -82.945,279.92 -82.68,284.551 -82.644,288.92 -82.836,293.028 -83.257,296.875 -83.907,300.461 -84.786,303.785 -85.893,306.848 -87.749,309.961 -90.356,313.125 -93.711,316.339 -97.817,319.604 -103.559,323.352 -110.939,327.584 -122.621,333.6 -146.595,345.3" stroke="#FFFFFF" stroke-width="1.437" stroke-linejoin="round" stroke-linecap="round"/></g><g fill="none"><polyline points="-62.535,-31.254 -76.634,-43.249 -100.136,-37.714 -110.61,-37.151 -116.095,-36.71 -120.084,-36.203 -123.74,-35.567 -127.063,-34.803 -130.441,-33.89 -133.874,-32.828 -137.362,-31.617 -140.904,-30.256 -144.379,-28.966 -147.787,-27.747 -151.127,-26.599 -154.4,-25.522 -157.605,-24.515 -160.743,-23.58 -163.813,-22.715 -166.816,-21.921 -169.972,-20.943 -173.282,-19.779 -176.746,-18.43 -180.363,-16.897 -184.134,-15.178 -188.058,-13.275 -192.136,-11.186 -196.368,-8.912 -200.67,-6.971 -205.041,-5.362 -209.482,-4.085 -213.992,-3.14 -218.573,-2.527 -223.223,-2.246 -227.942,-2.298 -232.732,-2.681 -237.371,-3.313 -241.859,-4.192 -246.196,-5.319 -250.382,-6.694 -254.417,-8.316 -258.302,-10.187 -262.035,-12.305 -265.618,-14.671 -269.21,-16.765 -272.812,-18.586 -276.422,-20.135 -280.042,-21.412 -283.671,-22.416 -287.309,-23.148 -290.956,-23.607 -294.613,-23.794 -298.579,-23.886 -302.854,-23.882 -307.439,-23.783 -312.334,-23.588 -317.538,-23.298 -323.051,-22.913 -328.875,-22.432 -335.007,-21.856 -340.563,-21.46 -345.541,-21.244 -349.942,-21.207 -353.765,-21.35 -357.201,-21.782 -360.249,-22.5 -363.476,-23.831 -368.588,-26.743" stroke="#888888" stroke-width="2.563" stroke-linejoin="round" stroke-linecap="butt"/><polyline points="6.742,8.013 -9.842,3.119 -21.355,-1.663 -36.793,-4.707 -54.749,-11.279 -62.535,-31.254 -76.634,-43.249 -100.136,-37.714 -110.61,-37.151 -116.095,-36.71 -120.084,-36.203 -123.74,-35.567 -127.063,-34.803 -130.441,-33.89 -133.874,-32.828 -137.362,-31.617 -140.904,-30.256 -144.379,-28.966 -147.787,-27.747 -151.127,-26.599 -154.4,-25.522 -157.605,-24.515 -160.743,-23.58 -163.813,-22.715 -166.816,-21.921 -169.972,-20.943 -173.282,-19.779 -176.746,-18.43 -180.363,-16.897 -184.134,-15.178 -188.058,-13.275 -192.136,-11.186 -196.368,-8.912 -200.67,-6.971 -205.041,-5.362 -209.482,-4.085 -213.992,-3.14 -218.573,-2.527 -223.223,-2.246 -227.942,-2.298 -232.732,-2.681 -237.371,-3.313 -241.859,-4.192 -246.196,-5.319 -250.382,-6.694 -254.417,-8.316 -258.302,-10.187 -262.035,-12.305 -265.618,-14.671 -269.21,-16.765 -272.812,-18.586 -276.422,-20.135 -280.042,-21.412 -283.671,-22.416 -287.309,-23.148 -290.956,-23.607 -294.613,-23.794 -298.579,-23.886 -302.854,-23.882 -307.439,-23.783 -312.334,-23.588 -317.538,-23.298 -323.051,-22.913 -328.875,-22.432 -335.007,-21.856 -340.563,-21.46 -345.541,-21.244 -349.942,-21.207 -353.765,-21.35 -357.201,-21.782 -360.249,-22.5 -363.476,-23.831 -368.588,-26.743" stroke="#FFFFFF" stroke-width="1.437" stroke-linejoin="round" stroke-linecap="round"/></g><g fill="none"><polyline points="-7.539,-66.786 -6.788,-101.318 -8.231,-112.328 -9.074,-117.907 -9.798,-121.726 -10.563,-125.007 -11.371,-127.75 -12.273,-130.364 -13.27,-132.848 -14.362,-135.203 -15.549,-137.428 -16.806,-139.893 -18.133,-142.598 -19.53,-145.542 -20.997,-148.727 -22.534,-152.152 -24.14,-155.816 -25.817,-159.721 -27.564,-163.866 -29.141,-168.392 -30.549,-173.299 -31.787,-178.588 -32.856,-184.259 -33.756,-190.311 -34.486,-196.745 -35.047,-203.56 -35.438,-210.756 -35.543,-217.602 -35.361,-224.097 -34.892,-230.241 -34.137,-236.033 -33.095,-241.475 -31.766,-246.566 -30.15,-251.306 -28.248,-255.695 -26.689,-260.274 -25.473,-265.043 -24.6,-270.003 -24.071,-275.152 -23.884,-280.492 -24.041,-286.022 -24.541,-291.742 -25.384,-297.652 -26.729,-303.294 -28.575,-308.666 -30.923,-313.77 -33.772,-318.606 -37.123,-323.172 -40.976,-327.47 -45.329,-331.499 -50.185,-335.259 -54.208,-339.929 -57.398,-345.509 -59.756,-352 -61.282,-359.4 -61.75,-369.091 -61.16,-381.072 -58.836,-399.484 -52.748,-436.748" stroke="#888888" stroke-width="2.563" stroke-linejoin="round" stroke-linecap="butt"/><polyline points="6.742,8.013 8.177,-1.49 -0.213,-12.815 -10.751,-22.159 -15.641,-31.813 -11.009,-44.654 -7.539,-66.786 -6.788,-101.318 -8.231,-112.328 -9.074,-117.907 -9.798,-121.726 -10.563,-125.007 -11.371,-127.75 -12.273,-130.364 -13.27,-132.848 -14.362,-135.203 -15.549,-137.428 -16.806,-139.893 -18.133,-142.598 -19.53,-145.542 -20.997,-148.727 -22.534,-152.152 -24.14,-155.816 -25.817,-159.721 -27.564,-163.866 -29.141,-168.392 -30.549,-173.299 -31.787,-178.588 -32.856,-184.259 -33.756,-190.311 -34.486,-196.745 -35.047,-203.56 -35.438,-210.756 -35.543,-217.602 -35.361,-224.097 -34.892,-230.241 -34.137,-236.033 -33.095,-241.475 -31.766,-246.566 -30.15,-251.306 -28.248,-255.695 -26.689,-260.274 -25.473,-265.043 -24.6,-270.003 -24.071,-275.152 -23.884,-280.492 -24.041,-286.022 -24.541,-291.742 -25.384,-297.652 -26.729,-303.294 -28.575,-308.666 -30.923,-313.77 -33.772,-318.606 -37.123,-323.172 -40.976,-327.47 -45.329,-331.499 -50.185,-335.259 -54.208,-339.929 -57.398,-345.509 -59.756,-352 -61.282,-359.4 -61.75,-369.091 -61.16,-381.072 -58.836,-399.484 -52.748,-436.748" stroke="#FFFFFF" stroke-width="1.437" stroke-linejoin="round" stroke-linecap="round"/></g><g fill="none"><polyline points="81.625,48.511 103.496,46.969 121.888,63.077 137.496,72.945 145.61,77.806 151.434,80.947 156.7,83.467 161.41,85.364 166.141,87.004 170.893,88.387 175.666,89.514 180.461,90.384 185.642,91.025 191.209,91.436 197.162,91.619 203.502,91.572 210.228,91.297 217.34,90.792 224.838,90.058 232.722,89.095 240.179,88.464 247.209,88.165 253.811,88.198 259.986,88.563 265.733,89.26 271.053,90.289 275.946,91.649 280.411,93.342 284.48,96.113 288.154,99.962 291.431,104.889 294.312,110.895 296.797,117.979 298.886,126.141 300.579,135.381 301.876,145.7 302.594,156.176 302.732,166.81 302.291,177.602 301.27,188.552 299.67,199.659 297.491,210.924 294.732,222.346 291.393,233.927 289.609,244.333 289.379,253.567 290.703,261.626 293.582,268.512 299.152,274.499 307.414,279.585 321.777,284.595 352.476,291.992" stroke="#888888" stroke-width="2.563" stroke-linejoin="round" stroke-linecap="butt"/><polyline points="8.177,-1.49 19.887,0.825 29.554,11.537 36.923,18.128 43.66,26.665 52.618,36.844 61.41,45.776 81.625,48.511 103.496,46.969 121.888,63.077 137.496,72.945 145.61,77.806 151.434,80.947 156.7,83.467 161.41,85.364 166.141,87.004 170.893,88.387 175.666,89.514 180.461,90.384 185.642,91.025 191.209,91.436 197.162,91.619 203.502,91.572 210.228,91.297 217.34,90.792 224.838,90.058 232.722,89.095 240.179,88.464 247.209,88.165 253.811,88.198 259.986,88.563 265.733,89.26 271.053,90.289 275.946,91.649 280.411,93.342 284.48,96.113 288.154,99.962 291.431,104.889 294.312,110.895 296.797,117.979 298.886,126.141 300.579,135.381 301.876,145.7 302.594,156.176 302.732,166.81 302.291,177.602 301.27,188.552 299.67,199.659 297.491,210.924 294.732,222.346 291.393,233.927 289.609,244.333 289.379,253.567 290.703,261.626 293.582,268.512 299.152,274.499 307.414,279.585 321.777,284.595 352.476,291.992" stroke="#FFFFFF" stroke-width="1.437" stroke-linejoin="round" stroke-linecap="round"/></g><g fill="#888888" stroke="#000000" stroke-width="0.563"><polygon points="6.826,0.761 6.225,4.74 3.461,4.323 4.062,0.344"/><polygon points="6.826,0.761 2.579,0.12 6.16,-2.533 7.126,-1.228"/><polygon points="3.772,-5.756 6.16,-2.533 2.579,0.12 0.191,-3.103"/><polygon points="2.098,5.6 -2.568,4.223 -1.741,1.418 2.926,2.795"/><polygon points="3.005,5.868 3.461,4.323 6.225,4.74 5.925,6.73"/><polygon points="-2.568,4.223 -6.283,3.126 -5.704,1.163 -1.989,2.259"/><polygon points="-7.238,-0.417 -5.31,-3.607 -3.148,-2.3 -5.075,0.889"/><polygon points="-5.31,-3.607 -2.872,-7.642 -0.345,-6.115 -2.784,-2.08"/><polygon points="0.515,-10.152 3.369,-6.3 1.367,-4.817 -1.487,-8.669"/><polygon points="-7.976,0.805 -6.681,1.588 -7.066,2.895 -8.911,2.351"/><polygon points="0.515,-10.152 -1.487,-8.669 -2.046,-9.007 -0.515,-11.542"/></g><g fill="#888888" stroke="#000000" stroke-width="0.563"><polygon points="-4.999,5.591 -1.804,6.534 -3.129,11.023 -6.324,10.08"/><polygon points="-3.533,17.536 -3.655,13.79 1.627,13.618 1.748,17.365"/><polygon points="-1.804,6.534 2.651,7.849 1.366,12.203 -3.089,10.889"/><polygon points="-10.372,17.759 -10.412,16.513 -9.318,15.046 -3.62,14.86 -3.533,17.536"/><polygon points="-11.672,10.885 -10.989,8.526 -6.502,9.824 -7.184,12.183"/><polygon points="-7.793,4.766 -4.999,5.591 -5.661,7.835 -8.456,7.011"/><polygon points="6.292,10.895 6.955,14.246 4.536,14.724 3.873,11.373"/><polygon points="-13.076,15.742 -11.672,10.885 -9.007,11.656 -10.412,16.513"/><polygon points="6.292,10.895 1.718,11.799 2.865,7.912 5.879,8.801"/><polygon points="-8.138,4.665 -8.718,6.633 -10.309,6.173 -9.736,4.193"/><polygon points="4.792,17.266 1.748,17.365 1.67,14.955 4.714,14.856"/><polygon points="-13.076,15.742 -10.412,16.513 -10.372,17.759 -13.691,17.867"/><polygon points="5.522,17.242 5.463,15.41 7.12,15.083 7.534,17.176"/></g><g fill="#888888" stroke="#000000" stroke-width="0.563"><polygon points="-1.911,-10.779 -3.68,-7.851 -6.791,-9.73 -5.021,-12.659"/><polygon points="-7.191,-17.666 -3.951,-14.793 -6.367,-12.069 -9.606,-14.942"/><polygon points="-6.272,-3.562 -8.999,-5.21 -6.407,-9.499 -3.68,-7.851"/><polygon points="-13.601,-15.78 -10.98,-14.424 -13.277,-9.985 -15.898,-11.341"/><polygon points="-13.601,-15.78 -12.188,-18.512 -10.441,-17.609 -11.854,-14.876"/><polygon points="-9.452,-19.671 -7.191,-17.666 -8.399,-16.304 -10.66,-18.309"/><polygon points="-1.911,-10.779 -5.021,-12.659 -3.491,-14.385 -1.043,-12.214"/><polygon points="-18.12,-7.045 -15.898,-11.341 -11.535,-9.084 -13.757,-4.788"/><polygon points="-9.68,-19.873 -10.766,-18.648 -11.832,-19.199 -10.916,-20.969"/><polygon points="-6.272,-3.562 -8.547,0.203 -10.729,-1.116 -8.454,-4.88"/><polygon points="-12.012,1.135 -15.075,-0.137 -13.948,-2.85 -10.885,-1.577"/><polygon points="-15.075,-0.137 -18.16,-1.419 -17.24,-3.636 -14.154,-2.354"/><polygon points="-19.275,-4.813 -18.12,-7.045 -15.938,-5.917 -17.093,-3.684"/><polygon points="-11.203,1.471 -10.46,-0.32 -8.827,0.666 -9.692,2.098"/><polygon points="-19.711,-3.97 -18.353,-3.267 -18.979,-1.759 -20.523,-2.4"/></g><g fill="#888888" stroke="#000000" stroke-width="0.563"><polygon points="17.975,-14.283 16.147,-12.458 14.15,-14.457 15.978,-16.282"/><polygon points="15.954,-20.597 18.62,-17.601 17.081,-16.232 14.415,-19.228"/><polygon points="12.441,-8.756 10.355,-10.844 14.062,-14.546 16.147,-12.458"/><polygon points="5.278,-18.235 8.981,-22.29 11.16,-20.3 7.458,-16.245"/><polygon points="15.954,-20.597 14.107,-18.954 11.167,-22.259 13.014,-23.902"/><polygon points="18.641,-14.948 17.372,-16.219 18.755,-17.449 19.88,-16.185"/><polygon points="13.014,-23.902 10.717,-21.859 9.556,-22.92 11.75,-25.323"/><polygon points="1.956,-14.597 5.278,-18.235 8.192,-15.575 4.87,-11.937"/><polygon points="8.5,-5.525 7.547,-7.341 7.849,-8.544 10.037,-9.692 10.772,-10.427 12.441,-8.756 9.989,-6.307"/><polygon points="5.673,-6.549 2.812,-10.412 4.87,-11.937 7.731,-8.074"/><polygon points="1.956,-14.597 4.87,-11.937 2.812,-10.412 0.717,-13.24"/><polygon points="5.959,-6.164 7.547,-7.341 8.5,-5.525 7.011,-4.744"/><polygon points="10.459,-2.058 8.98,-4.874 10.468,-5.655 11.868,-7.053 13.987,-4.931 10.545,-2.041"/><polygon points="17,-0.765 12.92,-1.571 13.505,-4.526 17.584,-3.72"/><polygon points="12.072,-7.257 15.321,-10.501 17.601,-8.218 14.353,-4.973"/><polygon points="8.98,-4.874 10.459,-2.058 8.75,-2.396 7.493,-4.093"/><polygon points="23.453,-7.996 21.108,-2.831 18.037,-4.225 20.382,-9.39"/><polygon points="17,-0.765 17.713,-4.373 21.108,-2.831 19.909,-0.19"/><polygon points="15.321,-10.501 17.706,-12.883 20.272,-10.314 17.886,-7.932"/><polygon points="21.499,-14.365 23.633,-11.965 22.086,-10.589 19.952,-12.989"/><polygon points="23.507,-8.115 20.726,-9.378 23.633,-11.965 24.707,-10.758"/><polygon points="21.486,-14.379 19.949,-13.012 18.893,-14.069 20.412,-15.586"/></g><g fill="#888888" stroke="#000000" stroke-width="0.563"><polygon points="18.088,16.098 15.688,13.443 18.538,10.866 20.938,13.521"/><polygon points="22.996,5.763 25.199,8.205 22.343,10.783 20.139,8.341"/><polygon points="15.688,13.443 12.599,10.028 16.301,6.68 19.39,10.096"/><polygon points="22.996,5.763 19.14,9.243 16.586,6.81 20.639,3.151"/><polygon points="26.833,12.8 22.494,15.571 20.894,13.065 25.233,10.294"/><polygon points="18.088,16.098 20.938,13.521 22.319,15.683 19.399,17.547"/><polygon points="20.639,3.151 16.586,6.81 16.301,6.68 15.14,5.005 15.92,1.06 19.367,1.742"/><polygon points="26.833,12.8 25.233,10.294 26.254,9.373 28.428,11.782"/><polygon points="12.599,10.028 9.393,6.482 11.923,4.195 15.128,7.74"/><polygon points="10.741,0.036 15.92,1.06 15.4,3.69 10.221,2.666"/><polygon points="8.598,2.421 10.221,2.666 11.923,4.195 9.393,6.482 8.186,5.148"/><polygon points="10.741,0.036 10.221,2.666 8.598,2.421 9.01,-0.306"/><polygon points="13.497,12.213 18.715,17.984 7.99,24.832 9.647,17.556 9.335,15.977"/></g><g fill="#888888" stroke="#000000" stroke-width="0.563"><polygon points="-0.004,29.131 -1.288,27.071 2.936,24.438 4.22,26.498"/><polygon points="0.69,18.199 4.562,18.073 4.635,20.317 0.763,20.443"/><polygon points="0.69,18.199 0.782,21.03 -6.046,21.252 -6.138,18.421"/><polygon points="4.22,26.498 1.833,22.669 1.885,22.653 6.211,23.638 5.781,25.525"/><polygon points="6.869,20.75 6.211,23.638 4.048,23.146 4.706,20.258"/><polygon points="7.07,19.865 5.57,19.523 5.522,18.042 7.5,17.978"/><polygon points="-0.004,29.131 -2.771,30.855 -5.643,26.247 -2.876,24.522"/><polygon points="-6.138,18.421 -6.005,22.518 -8.592,22.09 -11.843,19.741 -11.88,18.608"/><polygon points="-10.07,27.745 -11.511,24.089 -7.074,22.341 -5.633,25.997"/><polygon points="-10.07,27.745 -7.911,26.895 -6.149,31.367 -8.308,32.218"/><polygon points="-11.801,23.354 -12.787,20.85 -11.183,20.218 -10.196,22.722"/><polygon points="-8.308,32.218 -5.84,31.245 -5.156,32.342 -7.647,33.894"/><polygon points="-11.88,18.608 -11.843,19.741 -13.039,20.212 -13.648,18.666"/></g><g fill="#888888" stroke="#000000" stroke-width="0.563"><polygon points="-26.235,9.343 -29.612,8.032 -28.345,4.769 -24.968,6.081"/><polygon points="-27.626,-1.88 -23.532,-1.073 -24.026,1.43 -28.119,0.623"/><polygon points="-29.612,8.032 -32.084,7.072 -30.317,2.524 -27.846,3.484"/><polygon points="-21.524,2.23 -23.128,6.409 -25.466,5.512 -23.861,1.333"/><polygon points="-27.626,-1.88 -28.451,2.303 -31.071,1.787 -33.747,-0.832 -33.319,-3.003"/><polygon points="-21.218,1.433 -23.679,1.225 -23.237,-1.015 -21.646,-0.701 -20.57,-0.254"/><polygon points="-26.235,9.343 -24.968,6.081 -23.255,6.739 -24.512,10.013"/><polygon points="-35.003,4.284 -31.867,3.801 -32.999,6.716 -34.732,6.043"/><polygon points="-35.003,4.284 -35.51,0.995 -32.373,0.512 -31.867,3.801"/><polygon points="-33.319,-3.003 -33.747,-0.832 -35.744,-0.524 -36.214,-3.574"/><polygon points="-33.198,16.003 -30.297,15.556 -30.244,18.204 -32.851,18.256"/><polygon points="-30.244,18.204 -30.297,15.556 -29.981,15.132 -26.928,16.304 -27.637,18.152"/><polygon points="-33.198,16.003 -33.784,12.198 -30.883,11.751 -30.297,15.556"/><polygon points="-25.508,12.608 -26.928,16.304 -29.948,15.144 -28.528,11.448"/><polygon points="-32.704,7.689 -28.267,9.412 -29.281,12.021 -33.717,10.298"/><polygon points="-25.508,12.608 -28.528,11.448 -27.807,9.591 -24.799,10.76"/><polygon points="-32.704,7.689 -33.717,10.298 -34.069,10.352 -34.592,6.956"/><polygon points="-21.765,10.533 -22.331,12.459 -24.303,11.701 -23.643,9.982"/><polygon points="-25.477,14.759 -24.303,11.701 -22.331,12.459 -23.505,15.516"/><polygon points="-16.511,12.076 -17.075,13.995 -20.747,15.059 -21.254,14.798 -22.331,12.459 -21.765,10.533"/><polygon points="-20.688,18.013 -25.127,18.102 -25.169,16.047 -20.729,15.958"/><polygon points="-16.213,17.924 -20.688,18.013 -20.747,15.059 -16.272,14.97"/><polygon points="-25.869,15.778 -25.169,16.047 -25.127,18.102 -26.774,18.135"/><polygon points="-13.833,15.479 -16.276,14.773 -17.075,13.995 -16.511,12.076 -13.136,13.068"/><polygon points="-16.213,17.924 -16.276,14.773 -13.833,15.479 -14.531,17.89"/><polygon points="-15.271,11.607 -14.523,9.063 -12.174,9.742 -12.913,12.299"/><polygon points="-10.964,5.558 -11.892,8.767 -15.294,7.784 -14.365,4.574"/><polygon points="-15.271,11.607 -19.819,10.271 -19.072,7.727 -14.523,9.063"/><polygon points="-10.964,5.558 -14.365,4.574 -13.568,2.654 -10.493,3.931"/><polygon points="-18.237,0.715 -14.034,2.46 -15.237,5.356 -19.439,3.61"/><polygon points="-22.733,7.612 -21.21,3.646 -18.546,4.668 -20.069,8.635"/><polygon points="-22.733,7.612 -20.069,8.635 -20.492,10.073 -23.355,9.232"/><polygon points="-18.237,0.715 -19.439,3.61 -20.971,3.022 -19.831,0.053"/></g><g fill="#888888" stroke="#000000" stroke-width="0.563"><polygon points="-27.402,-16.473 -24.376,-14.926 -26.263,-11.237 -29.288,-12.784"/><polygon points="-23.231,-3.052 -28.449,-4.081 -27.655,-8.111 -22.436,-7.082"/><polygon points="-21.015,-14.026 -21.208,-10.806 -21.977,-10.147 -26.198,-10.399 -26.589,-10.599 -24.376,-14.926 -22.828,-14.134"/><polygon points="-28.449,-4.081 -32.778,-4.935 -32.206,-7.836 -27.877,-6.982"/><polygon points="-35.377,-7.907 -34.027,-12.237 -31.797,-11.541 -33.146,-7.212"/><polygon points="-32.574,-16.899 -31.218,-16.476 -29.595,-13.371 -30.31,-11.078 -34.027,-12.237"/><polygon points="-30.005,-17.804 -27.402,-16.473 -28.345,-14.628 -30.948,-15.96"/><polygon points="-17.784,-9.436 -19.688,-5.754 -22.551,-7.235 -20.646,-10.917"/><polygon points="-23.231,-3.052 -22.436,-7.082 -19.727,-5.68 -21.285,-2.668"/><polygon points="-21.015,-14.026 -17.39,-13.81 -17.526,-11.535 -21.151,-11.751"/><polygon points="-30.428,-18.021 -31.218,-16.476 -32.574,-16.899 -31.978,-18.813"/><polygon points="-35.491,-7.539 -33.56,-6.937 -33.911,-5.158 -36.099,-5.59"/><polygon points="-16.873,-11.197 -17.526,-11.535 -17.39,-13.81 -15.577,-13.701"/><polygon points="-24.292,-15.781 -20.767,-22.675 -20.301,-22.396 -20.754,-14.812 -22.613,-14.923"/><polygon points="-24.292,-15.781 -27.934,-17.644 -25.882,-21.657 -22.239,-19.795"/><polygon points="-17.523,-14.619 -20.754,-14.812 -20.532,-18.517 -17.301,-18.324"/><polygon points="-22.299,-30.439 -21.739,-26.59 -26.231,-25.936 -26.792,-29.784"/><polygon points="-16.326,-30.952 -21.038,-22.941 -21.219,-23.022 -22.299,-30.439 -16.494,-31.285"/><polygon points="-31.084,-21.682 -27.586,-20.592 -28.853,-18.114 -31.736,-19.588"/><polygon points="-31.084,-21.682 -29.556,-26.582 -26.059,-25.492 -27.586,-20.592"/><polygon points="-17.034,-14.59 -16.856,-17.575 -14.266,-16.235 -15.175,-14.479"/><polygon points="-26.792,-29.784 -26.182,-25.6 -29.537,-26.646 -28.642,-29.515"/><polygon points="-14.862,-28.062 -13.18,-24.741 -17.687,-22.458 -19.369,-25.778"/><polygon points="-12.449,-19.748 -14.033,-16.686 -17.347,-18.4 -15.763,-21.462"/><polygon points="-12.449,-19.748 -17.687,-22.458 -13.18,-24.741 -11.54,-21.504"/></g><g fill="#888888" stroke="#000000" stroke-width="0.563"><polygon points="1.11,-37.339 0.545,-32.573 -3.112,-33.006 -2.548,-37.772"/><polygon points="-13.664,-34.346 -12.342,-38.011 -6.408,-35.87 -7.73,-32.205"/><polygon points="-0.04,-27.628 -5.665,-28.294 -5.08,-33.239 0.545,-32.573"/><polygon points="-12.342,-38.011 -10.967,-41.822 -8,-40.751 -9.375,-36.941"/><polygon points="-6.462,-42.776 -1.458,-41.173 -2.548,-37.772 -7.551,-39.376"/><polygon points="-11.097,-25.056 -13.372,-29.546 -8.193,-32.169 -5.919,-27.679"/><polygon points="-13.753,-34.099 -8.367,-32.156 -13.402,-29.605 -14.554,-31.88"/><polygon points="1.11,-37.339 -2.548,-37.772 -1.458,-41.173 1.453,-40.24"/><polygon points="-0.04,-27.628 -0.551,-23.314 -5.212,-23.866 -4.701,-28.18"/><polygon points="-11.097,-25.056 -5.919,-27.679 -5.212,-23.866 -7.834,-20.909 -9.945,-22.781"/><polygon points="-7.281,-43.039 -8.007,-40.772 -10.962,-41.838 -10.192,-43.972"/><polygon points="-0.64,-22.559 -1.121,-18.497 -2.955,-18.714 -2.474,-22.776"/><polygon points="-7.834,-20.909 -5.212,-23.866 -4.308,-22.993 -2.767,-18.118 -3.612,-17.165"/><polygon points="-3.612,-17.165 -2.767,-18.118 -1.188,-17.931 -1.501,-15.293"/><polygon points="13.948,-32.793 12.335,-28.566 9.549,-29.629 11.162,-33.856"/><polygon points="1.214,-31.418 1.763,-36.055 4.617,-35.717 4.068,-31.08"/><polygon points="0.626,-26.451 1.214,-31.418 5.439,-30.917 4.851,-25.951"/><polygon points="9.297,-23.823 5.963,-26.868 7.015,-30.596 12.335,-28.566 11.407,-26.134"/><polygon points="8.822,-37.879 12.309,-36.762 11.413,-33.965 7.926,-35.083"/><polygon points="4.748,-39.185 8.822,-37.879 7.985,-35.267 3.911,-36.572"/><polygon points="9.297,-23.823 5.767,-19.957 3.529,-22 7.059,-25.867"/><polygon points="14.191,-33.43 12.055,-34.245 12.81,-36.601 15.119,-35.862"/><polygon points="0.146,-22.401 0.626,-26.451 4.008,-26.05 3.529,-22"/><polygon points="4.686,-39.204 3.862,-36.631 1.859,-36.868 2.229,-39.992"/><polygon points="2.164,-16.011 1.27,-17.23 3.076,-21.663 3.529,-22 5.767,-19.957"/><polygon points="-0.442,-17.432 0.101,-22.015 1.813,-21.812 1.27,-17.23"/><polygon points="-0.442,-17.432 1.27,-17.23 2.164,-16.011 0.162,-13.819 -0.772,-14.647"/></g><g fill="#888888" stroke="#000000" stroke-width="0.563"><polygon points="44.366,7.036 42.31,9.911 38.368,7.091 40.424,4.216"/><polygon points="32.762,3.007 36.042,-0.483 38.674,1.991 35.394,5.481"/><polygon points="42.31,9.911 39.38,14.006 37.054,12.341 39.983,8.246"/><polygon points="29.888,6.065 32.762,3.007 34.955,5.069 32.082,8.126"/><polygon points="46.464,4.103 44.366,7.036 41.76,5.172 43.859,2.239"/><polygon points="46.464,4.103 43.859,2.239 44.613,0.887 47.581,2.542"/><polygon points="39.895,-1.744 43.836,0.454 42.358,3.103 38.417,0.905"/><polygon points="35.027,15.09 31.553,11.983 33.66,9.627 37.135,12.734"/><polygon points="29.073,9.512 30.735,8.012 34.796,8.357 31.553,11.983 30.26,10.828"/><polygon points="39.895,-1.744 38.417,0.905 36.463,-0.931 38.145,-2.72"/><polygon points="29.314,6.676 30.735,8.012 29.073,9.512 27.885,8.196"/><polygon points="35.027,15.09 37.135,12.734 39.222,14.227 37.209,17.041"/><polygon points="21.483,-1.721 25.494,0.1 22.786,2.545 20.63,0.156"/><polygon points="25.567,5.627 22.786,2.545 24.738,0.782 27.52,3.864"/><polygon points="21.483,-1.721 23.103,-5.29 27.115,-3.468 25.494,0.1"/><polygon points="32.33,2.298 29.523,5.285 27.482,3.367 30.289,0.38"/><polygon points="26.144,6.266 27.602,4.952 28.788,6.067 27.348,7.6"/><polygon points="31.288,-6.545 29.826,-3.924 25.516,-6.328 26.978,-8.949"/><polygon points="34.964,-0.504 32.33,2.298 30.318,0.407 32.951,-2.395"/><polygon points="31.288,-6.545 34.512,-4.746 33.218,-2.426 29.994,-4.224"/><polygon points="26.978,-8.949 25.359,-6.046 23.773,-6.766 25.211,-9.934"/><polygon points="35.928,-1.53 34.782,-2.607 35.628,-4.124 37.424,-3.122"/><polygon points="31.186,-13.105 35.407,-15.012 36.481,-12.635 32.26,-10.727"/><polygon points="42.498,-7.188 38.218,-5.841 36.873,-10.114 41.153,-11.461"/><polygon points="35.407,-15.012 38.497,-16.408 40.486,-12.007 37.396,-10.611"/><polygon points="33.877,-6.016 36.062,-9.934 36.873,-10.114 38.218,-5.841 35.644,-5.031"/><polygon points="33.877,-6.016 30.64,-7.822 32.26,-10.727 35.498,-8.921"/><polygon points="43.717,-16.762 45.507,-12.759 42.623,-11.47 40.833,-15.473"/><polygon points="45.762,-8.215 42.498,-7.188 41.497,-10.368 44.761,-11.395"/><polygon points="28.152,-9.21 27.205,-11.306 31.186,-13.105 32.26,-10.727 29.157,-8.649"/><polygon points="43.717,-16.762 40.833,-15.473 40.086,-17.127 42.971,-18.43"/><polygon points="45.762,-8.215 44.761,-11.395 45.891,-11.9 47.319,-8.705"/><polygon points="48.364,-6.367 49.797,-3.161 47.283,-2.037 45.85,-5.243"/><polygon points="43.342,-0.738 40.987,-2.051 42.01,-3.884 44.364,-2.571"/><polygon points="45.795,0.631 43.342,-0.738 44.83,-3.405 47.283,-2.037"/><polygon points="38.598,-5.122 44.119,-6.86 44.778,-4.766 39.257,-3.028"/><polygon points="48.364,-6.367 44.779,-4.764 44.119,-6.86 47.648,-7.97"/><polygon points="49.282,0.165 47.558,-1.068 47.283,-2.037 49.797,-3.161 50.514,-1.558"/><polygon points="46.417,0.978 47.558,-1.068 49.282,0.165 48.049,1.888"/><polygon points="38.598,-5.122 39.257,-3.028 39.252,-3.019 36.605,-4.495"/></g><g fill="#888888" stroke="#000000" stroke-width="0.563"><polygon points="12.863,-27.705 14.284,-31.43 17.037,-30.379 15.616,-26.654"/><polygon points="12.833,-27.626 15.453,-26.626 13.337,-24.743 12.214,-26.005"/><polygon points="15.984,-21.767 13.7,-24.335 16.477,-26.805 18.761,-24.237"/><polygon points="18.704,-18.71 15.984,-21.767 17.893,-23.466 20.613,-20.408"/><polygon points="17.222,-34.659 20.042,-32.902 18.401,-30.268 15.582,-32.026"/><polygon points="20.042,-32.902 22.813,-31.175 20.649,-27.702 17.878,-29.429"/><polygon points="23.739,-24.282 22.013,-21.172 19.594,-22.516 21.32,-25.625"/><polygon points="17.222,-34.659 15.582,-32.026 14.648,-32.382 15.844,-35.517"/><polygon points="25.503,-27.458 23.739,-24.282 21.156,-25.716 22.919,-28.892"/><polygon points="18.704,-18.71 20.613,-20.408 21.359,-19.995 19.9,-17.366"/><polygon points="25.503,-27.458 22.919,-28.892 23.914,-30.489 26.345,-28.974"/><polygon points="34.991,-21.614 31.927,-18.272 29.701,-20.312 32.765,-23.655"/><polygon points="23.239,-21.733 24.798,-24.542 28.438,-22.521 26.878,-19.712"/><polygon points="31.927,-18.272 28.499,-14.531 25.895,-16.918 29.323,-20.658"/><polygon points="28.798,-27.446 32.521,-25.125 31.006,-22.694 27.283,-25.014"/><polygon points="21.941,-19.396 23.239,-21.733 26.953,-19.671 25.655,-17.334"/><polygon points="34.991,-21.614 32.765,-23.655 33.357,-24.605 36.141,-22.87"/><polygon points="28.798,-27.446 27.283,-25.014 25.584,-25.957 27.024,-28.551"/><polygon points="23.858,-12.917 22.037,-14.963 24.596,-17.24 26.417,-15.193"/><polygon points="21.398,-18.417 23.667,-17.157 21.668,-15.379 20.463,-16.733"/><polygon points="24.148,-12.591 26.417,-15.193 27.878,-13.854 25.742,-11.523 25.282,-11.315"/><polygon points="40.952,-19.872 39.672,-17.817 39.393,-17.691 37.132,-19.251 37.041,-19.714 38.206,-21.584"/><polygon points="35.57,-21.062 37.041,-19.714 37.132,-19.251 33.25,-16.483 32.23,-17.418"/><polygon points="33.536,-15.045 33.25,-16.483 37.132,-19.251 39.393,-17.691"/><polygon points="38.206,-21.584 37.041,-19.714 35.57,-21.062 36.832,-22.439"/><polygon points="29.471,-13.208 28.873,-13.756 32.23,-17.418 33.25,-16.483 33.536,-15.045"/></g><g fill="#888888" stroke="#000000" stroke-width="0.563"><polygon points="29.03,33.607 27.163,31.239 29.355,29.511 31.222,31.879"/><polygon points="35.05,32.517 32.883,34.116 31.224,31.866 33.391,30.268"/><polygon points="35.05,32.517 33.055,29.813 35.844,27.756 37.838,30.461"/><polygon points="27.163,31.239 24.797,28.238 27.657,25.983 30.024,28.984"/><polygon points="40.935,28.178 37.838,30.461 35.832,27.74 38.928,25.457"/><polygon points="29.523,19.963 32.083,23.92 29.185,25.795 26.625,21.839"/><polygon points="29.558,34.276 31.062,33.09 32.193,34.624 30.7,35.725"/><polygon points="36.654,19.401 40.078,23.741 37.724,25.598 34.299,21.258"/><polygon points="29.523,19.963 32.514,18.028 34.402,20.946 31.412,22.882"/><polygon points="23.584,23.807 26.625,21.839 28.225,24.31 25.183,26.279"/><polygon points="23.584,23.807 25.183,26.279 23.992,27.218 22.073,24.785"/><polygon points="40.935,28.178 38.928,25.457 40.472,24.239 42.607,26.945"/><polygon points="36.412,19.094 34.402,20.946 32.514,18.028 34.137,16.977 36.192,18.815"/><polygon points="31.79,17.544 28.644,19.579 27.238,17.407 30.384,15.371"/><polygon points="22.413,16.572 26.462,13.986 27.644,15.838 23.595,18.424"/><polygon points="28.644,19.579 24.402,22.325 23.307,20.634 27.55,17.888"/><polygon points="31.254,14.399 30.384,15.371 27.644,15.838 26.462,13.986 28.988,12.373"/><polygon points="19.385,18.505 22.413,16.572 23.931,18.949 20.903,20.883"/><polygon points="31.79,17.544 30.384,15.371 31.254,14.399 33.519,16.425"/><polygon points="19.727,21.81 20.903,20.883 23.307,20.634 24.402,22.325 21.576,24.154"/><polygon points="19.385,18.505 20.903,20.883 19.727,21.81 17.879,19.467"/><polygon points="16.017,38.263 18.125,35.452 20.64,37.338 18.532,40.149"/><polygon points="22.801,41.55 21.076,39.21 25.634,35.849 27.359,38.189"/><polygon points="18.125,35.452 20.197,32.689 23.295,35.012 21.223,37.776"/><polygon points="22.801,41.55 19.434,44.033 17.723,41.713 21.09,39.229"/><polygon points="20.197,32.689 21.97,30.324 23.722,31.638 21.949,34.003"/><polygon points="26.265,31.392 28.103,33.723 25.55,35.736 23.712,33.405"/><polygon points="16.017,38.263 18.532,40.149 17.723,41.713 16.403,42.463 14.878,39.783"/><polygon points="16.403,42.463 17.723,41.713 19.434,44.033 17.928,45.144"/><polygon points="27.359,38.189 25.55,35.736 28.103,33.723 30.056,36.2"/><polygon points="24.901,29.663 23.729,30.588 22.477,29.649 23.653,28.08"/><polygon points="17.446,28.673 14.528,26.03 17.387,23.866 19.811,26.061"/><polygon points="15.765,20.817 17.521,23.567 17.387,23.866 17.107,24.078 16.973,23.909 14.1,25.744 12.347,22.999"/><polygon points="14.134,32.328 13.591,31.836 12.683,28.816 14.901,26.368 17.446,28.673"/><polygon points="8.783,25.275 12.347,22.999 14.094,25.734 10.529,28.01"/><polygon points="19.811,26.061 17.387,23.866 17.521,23.567 19.108,22.316 21.014,24.734"/><polygon points="19.108,22.316 17.521,23.567 15.765,20.817 17.202,19.899"/><polygon points="11.148,33.226 8.975,29.407 11.418,28.017 13.591,31.836"/><polygon points="8.783,25.275 10.529,28.01 8.754,29.02 7.199,26.286"/><polygon points="11.148,33.226 13.591,31.836 14.134,32.328 11.986,34.7"/><polygon points="13.691,34.009 15.993,31.468 17.01,32.389 14.708,34.931"/><polygon points="17.905,34.413 15.691,37.364 14.61,36.554 16.824,33.602"/><polygon points="17.943,34.361 16.882,33.565 17.222,30.433 20.786,30.571"/><polygon points="13.691,34.009 14.708,34.931 14.61,36.554 13.424,37.228 12.402,35.432"/><polygon points="13.424,37.228 14.61,36.554 15.691,37.364 14.446,39.025"/><polygon points="20.33,26.68 22.339,28.499 20.786,30.571 17.222,30.433 17.062,30.288"/><polygon points="22.339,28.499 20.33,26.68 21.516,25.371 23.14,27.43"/></g><g fill="#888888" stroke="#000000" stroke-width="0.563"><polygon points="-38.684,35.564 -34.671,33.341 -32.123,37.943 -36.136,40.165"/><polygon points="-26.89,34.35 -24.971,38.495 -29.552,40.616 -31.472,36.472"/><polygon points="-29.175,29.418 -26.89,34.35 -31.667,36.563 -33.952,31.63"/><polygon points="-34.339,43.41 -36.136,40.165 -31.509,37.603 -29.713,40.848"/><polygon points="-32.47,46.786 -34.339,43.41 -31.491,41.832 -29.621,45.209"/><polygon points="-32.47,46.786 -29.621,45.209 -28.73,47.407 -31.504,48.531"/><polygon points="-24.971,38.495 -23.199,42.32 -25.539,43.404 -27.311,39.578"/><polygon points="-38.684,35.564 -41.315,30.814 -39.119,29.598 -36.489,34.348"/><polygon points="-29.175,29.418 -32.061,30.755 -34.353,25.807 -31.466,24.47"/><polygon points="-24.69,45.769 -28.594,47.351 -29.575,44.93 -25.671,43.348"/><polygon points="-24.023,45.499 -24.734,43.745 -22.927,42.908 -22.089,44.715"/><polygon points="-41.094,27.766 -39.119,29.598 -41.315,30.814 -42.289,29.054"/><polygon points="-40.49,27.115 -38.068,24.505 -35.281,27.09 -37.703,29.701"/><polygon points="-34.945,21.139 -34.133,21.893 -34.511,25.88 -35.281,27.09 -38.068,24.505"/><polygon points="-32.674,21.862 -31.466,24.47 -32.989,25.175 -34.197,22.567"/><polygon points="-32.92,21.332 -34.133,21.893 -34.945,21.139 -33.654,19.747"/><polygon points="-26.69,32.879 -21.191,30.332 -19.602,33.762 -25.101,36.309"/><polygon points="-11.928,25.213 -9.734,30.782 -13.923,32.433 -16.117,26.864"/><polygon points="-28.864,28.185 -24.739,26.275 -22.565,30.968 -26.69,32.879"/><polygon points="-13.506,21.207 -11.928,25.213 -15.726,26.71 -17.305,22.704"/><polygon points="-13.931,38.964 -16.084,36.354 -12.038,33.016 -9.885,35.627"/><polygon points="-20.272,18.805 -17.534,18.75 -17.45,22.955 -20.188,23.009"/><polygon points="-23.601,39.549 -25.101,36.309 -21.216,34.51 -19.715,37.75"/><polygon points="-25.221,18.904 -20.272,18.805 -20.185,23.147 -25.134,23.246"/><polygon points="-13.864,20.301 -16.518,21.347 -16.57,18.731 -14.498,18.69"/><polygon points="-28.864,28.185 -30.931,23.722 -28.181,22.449 -26.114,26.911"/><polygon points="-9.885,35.627 -12.398,32.58 -9.478,31.43 -8.33,34.345"/><polygon points="-13.931,38.964 -18.208,42.492 -19.644,40.752 -15.367,37.224"/><polygon points="-22.098,42.793 -23.601,39.549 -21.125,38.403 -19.623,41.647"/><polygon points="-30.772,19.015 -25.221,18.904 -25.165,21.675 -30.716,21.786"/><polygon points="-22.098,42.793 -19.623,41.647 -18.738,42.929 -19.759,43.771 -21.347,44.415"/><polygon points="-30.804,19.015 -30.716,21.786 -31.632,22.21 -33.066,19.114 -33.015,19.06"/></g><g fill="#888888" stroke="#000000" stroke-width="0.563"><polygon points="12.409,37.061 7.907,39.622 5.743,35.817 10.244,33.256"/><polygon points="-3.797,40.845 -4.5,37.562 -0.567,36.72 0.136,40.003"/><polygon points="-2.957,44.768 -3.797,40.845 4.094,39.155 4.934,43.077"/><polygon points="-2.875,33.276 -0.238,31.633 1.859,34.998 -0.778,36.641"/><polygon points="-0.238,31.633 3.326,29.412 5.09,32.243 1.526,34.464"/><polygon points="12.409,37.061 14.443,40.637 9.942,43.198 7.907,39.622"/><polygon points="7.964,29.248 10.244,33.256 7.47,34.835 5.19,30.826"/><polygon points="-2.058,48.966 -2.957,44.768 1.412,43.832 2.311,48.03"/><polygon points="-3.422,33.618 -1.769,36.27 -4.645,36.886 -5.119,34.675"/><polygon points="7.964,29.248 5.19,30.826 4.034,28.971 6.819,27.235"/><polygon points="15.011,46.773 9.081,49.945 7.257,46.535 13.187,43.363"/><polygon points="2.228,53.61 1.629,52.489 1.937,50.477 7.713,47.387 9.081,49.945"/><polygon points="-1.174,53.089 -2.058,48.966 0.746,48.365 1.629,52.489"/><polygon points="15.116,46.716 13.326,43.37 15.345,42.222 17.252,45.574"/><polygon points="-1.174,53.089 1.629,52.489 2.228,53.61 -0.724,55.189"/><polygon points="-4.56,41.105 -3.788,44.708 -7.72,45.551 -8.492,41.948"/><polygon points="-13.318,50.295 -16.049,47.42 -14.081,45.551 -11.351,48.426"/><polygon points="-3.788,44.708 -2.945,48.642 -7.3,49.575 -8.142,45.641"/><polygon points="-14.04,41.646 -10.885,39.045 -8.492,41.948 -11.646,44.549"/><polygon points="-10.401,53.366 -13.318,50.295 -10.115,47.253 -7.198,50.324"/><polygon points="-16.58,43.742 -14.04,41.646 -12.503,43.51 -15.043,45.606"/><polygon points="-4.56,41.105 -8.492,41.948 -9.173,37.985 -5.401,37.177"/><polygon points="-2.945,48.642 -1.965,53.215 -5.177,53.903 -6.157,49.33"/><polygon points="-7.655,56.257 -10.401,53.366 -7.923,51.013 -5.177,53.903"/><polygon points="-16.797,43.921 -15.391,45.625 -16.633,46.805 -18.241,45.112"/><polygon points="-5.401,37.177 -9.173,37.985 -9.341,37.772 -7.035,35.869 -5.841,35.125"/><polygon points="-3.726,56.794 -5.195,54.048 -5.177,53.903 -1.965,53.215 -1.459,55.582"/><polygon points="-7.591,56.324 -5.195,54.048 -3.726,56.794 -5.993,58.007"/></g><g fill="#888888" stroke="#000000" stroke-width="0.563"><polygon points="-45.264,27.882 -49.2,26.777 -48.116,22.916 -44.18,24.021"/><polygon points="-44.671,28.048 -43.859,25.157 -41.659,27.199 -42.907,28.544"/><polygon points="-38.299,23.578 -40.548,26.001 -44.71,22.139 -42.462,19.716"/><polygon points="-52.846,23.809 -53.035,19.385 -48.937,19.209 -48.747,23.634"/><polygon points="-51.351,14.691 -45.261,13.929 -44.811,17.528 -50.901,18.291"/><polygon points="-52.846,23.809 -48.747,23.634 -49.598,26.665 -52.762,25.777"/><polygon points="-37.79,12.993 -37.413,16.004 -44.884,16.939 -45.261,13.929"/><polygon points="-34.903,19.917 -38.299,23.578 -41.443,20.661 -38.046,17"/><polygon points="-34.903,19.917 -38.046,17 -37.405,16.072 -34.076,15.559 -33.618,18.533"/><polygon points="-51.351,14.691 -50.901,18.291 -53.078,18.384 -53.226,14.926"/><polygon points="-34.076,15.559 -37.405,16.072 -37.79,12.993 -34.534,12.585"/><polygon points="-36.799,12.062 -40.931,12.58 -41.319,9.48 -37.187,8.963"/><polygon points="-39.17,2.327 -39.057,4.317 -40.076,6.549 -44.024,6.775 -44.262,2.619"/><polygon points="-46.043,13.22 -46.491,9.642 -41.379,9.001 -40.931,12.58"/><polygon points="-35.883,3.828 -35.261,7.868 -38.434,8.357 -39.057,4.317"/><polygon points="-44.262,2.619 -43.979,7.566 -46.639,8.463 -48.055,8.093 -48.178,2.779 -46.324,2.737"/><polygon points="-35.883,3.828 -39.057,4.317 -39.17,2.327 -36.141,2.154"/><polygon points="-36.799,12.062 -37.187,8.963 -35.141,8.648 -34.656,11.794"/><polygon points="-46.043,13.22 -50.352,13.76 -50.684,11.108 -46.375,10.568"/><polygon points="-51.887,2.865 -48.178,2.779 -48.096,6.342 -51.804,6.428"/><polygon points="-51.887,2.865 -51.804,6.428 -53.587,6.504 -53.741,2.908"/><polygon points="-53.382,11.284 -53.568,6.954 -50.92,6.841 -50.735,11.17"/><polygon points="-53.347,12.112 -51.442,12.031 -51.212,13.868 -53.261,14.124"/><polygon points="-48.597,-7.962 -45.236,-6.732 -46.615,-2.967 -49.975,-4.196"/><polygon points="-48.211,1.98 -48.317,-2.602 -46.716,-2.69 -43.338,-1.539 -43.15,1.754 -46.356,1.937"/><polygon points="-45.236,-6.732 -40.327,-4.935 -41.197,-2.557 -46.107,-4.354"/><polygon points="-48.211,1.98 -51.722,2.061 -51.778,-0.358 -48.267,-0.439"/><polygon points="-53.946,-1.888 -54.038,-4.022 -49.975,-4.196 -49.883,-2.062"/><polygon points="-54.038,-4.022 -54.161,-6.896 -52.149,-6.982 -52.026,-4.108"/><polygon points="-51.792,-9.132 -48.714,-8.005 -49.37,-6.215 -52.447,-7.341"/><polygon points="-38.103,1.465 -43.15,1.754 -43.287,-0.655 -38.241,-0.944"/><polygon points="-53.87,-0.102 -51.972,-0.183 -51.92,2.066 -53.775,2.109"/><polygon points="-36.656,-1.188 -38.241,-0.944 -41.197,-2.557 -40.327,-4.935 -37.048,-3.736"/><polygon points="-52.428,-9.364 -52.948,-7.944 -54.203,-7.89 -54.296,-10.048"/><polygon points="-38.103,1.465 -38.241,-0.944 -36.656,-1.188 -36.263,1.36"/></g><g fill="#888888" stroke="#000000" stroke-width="0.563"><polygon points="9.473,-54.386 7.991,-50.294 2.517,-52.277 3.999,-56.369"/><polygon points="-8.348,-55.169 -7.737,-59.067 -1.547,-58.096 -2.158,-54.199"/><polygon points="-8.969,-51.206 -8.348,-55.169 -1.05,-54.025 -1.671,-50.062"/><polygon points="7.991,-50.294 6.591,-46.429 0.206,-48.742 1.606,-52.607"/><polygon points="0.245,-64.009 4.197,-62.811 2.405,-56.898 -1.547,-58.096"/><polygon points="4.197,-62.811 8.036,-61.647 7.137,-58.683 3.298,-59.847"/><polygon points="10.961,-58.493 9.473,-54.386 6.736,-55.377 8.224,-59.484"/><polygon points="-7.729,-59.116 -7.188,-62.566 -4.137,-62.087 -4.678,-58.638"/><polygon points="-3.279,-65.077 0.245,-64.009 -0.646,-61.07 -4.17,-62.139"/><polygon points="-2.826,-42.452 -6.355,-43.582 -5.044,-47.676 -1.514,-46.545"/><polygon points="6.591,-46.429 5.393,-43.122 2.201,-44.278 3.399,-47.586"/><polygon points="1.044,-41.211 -2.826,-42.452 -1.771,-45.745 2.1,-44.504"/><polygon points="-9.526,-47.659 -8.969,-51.206 -5.32,-50.634 -5.877,-47.086"/><polygon points="10.962,-58.495 8.226,-59.486 8.81,-61.412 11.701,-60.536"/><polygon points="-9.643,-46.912 -6.761,-46.46 -7.56,-43.968 -9.982,-44.745"/><polygon points="1.903,-40.936 2.651,-43.27 5.123,-42.375 4.321,-40.162"/><polygon points="-4.31,-65.389 -4.933,-63.333 -7.017,-63.66 -6.635,-66.094"/><polygon points="21.095,-50.389 19.638,-46.856 14.5,-48.974 15.956,-52.507"/><polygon points="8.869,-50.369 10.206,-54.06 15.451,-52.16 14.114,-48.469"/><polygon points="19.638,-46.856 18.004,-42.89 12.936,-44.979 14.57,-48.945"/><polygon points="7.515,-46.632 8.869,-50.369 14.083,-48.48 12.729,-44.743"/><polygon points="10.206,-54.06 11.493,-57.611 14.212,-56.626 12.926,-53.075"/><polygon points="22.776,-54.469 21.095,-50.389 17.825,-51.737 19.507,-55.816"/><polygon points="18.004,-42.89 16.276,-38.697 13.591,-39.804 15.319,-43.997"/><polygon points="6.004,-42.458 7.515,-46.632 10.122,-45.687 8.611,-41.514"/><polygon points="14.932,-59.557 19.735,-58.101 18.907,-55.368 14.104,-56.824"/><polygon points="14.51,-59.685 13.807,-57.366 11.683,-58.136 12.468,-60.304"/><polygon points="12.613,-37.505 7.989,-38.986 8.839,-41.636 13.462,-40.155"/><polygon points="22.776,-54.469 19.507,-55.816 20.16,-57.972 23.769,-56.878"/><polygon points="12.832,-37.435 13.591,-39.804 16.276,-38.697 15.414,-36.607"/><polygon points="5.945,-42.297 8.408,-41.405 7.666,-39.09 5.083,-39.917"/></g><g fill="#888888" stroke="#000000" stroke-width="0.563"><polygon points="-54.428,-31.857 -50.128,-32.391 -49.474,-27.125 -53.774,-26.591"/><polygon points="-56.178,-17.697 -57.649,-21.472 -50.418,-24.29 -48.947,-20.516"/><polygon points="-43.946,-33.159 -42.986,-25.429 -49.168,-24.661 -50.128,-32.391"/><polygon points="-57.649,-21.472 -59.197,-25.444 -55.148,-27.022 -53.6,-23.05"/><polygon points="-56.178,-17.697 -51.521,-19.513 -50.126,-15.935 -54.783,-14.12"/><polygon points="-54.783,-14.12 -49.88,-16.031 -51.646,-11.208 -53.981,-12.062"/><polygon points="-57.872,-31.43 -54.428,-31.857 -54.138,-29.521 -57.582,-29.093"/><polygon points="-59.197,-25.444 -60.614,-29.079 -58.523,-29.894 -57.106,-26.259"/><polygon points="-37.846,-33.916 -37.435,-30.604 -43.534,-29.846 -43.946,-33.159"/><polygon points="-33.8,-15.655 -39.516,-17.437 -38.165,-21.773 -32.448,-19.992"/><polygon points="-51.646,-11.208 -50.355,-14.735 -44.2,-12.483 -45.491,-8.955"/><polygon points="-58.701,-31.327 -58.523,-29.894 -60.614,-29.079 -61.361,-30.997"/><polygon points="-33.785,-33.112 -37.199,-28.702 -37.846,-33.916 -35.242,-34.24"/><polygon points="-33.785,-33.112 -31.338,-31.218 -33.614,-28.278 -36.061,-30.172"/><polygon points="-32.448,-19.992 -37.022,-21.417 -35.868,-25.119 -31.295,-23.694"/><polygon points="-33.8,-15.655 -35.243,-11.025 -39.816,-12.45 -38.373,-17.081"/><polygon points="-39.631,-6.811 -45.491,-8.955 -44.147,-12.626 -38.288,-10.482"/><polygon points="-30.18,-27.269 -31.295,-23.694 -34.622,-24.731 -33.508,-28.306"/><polygon points="-30.045,-27.704 -32.676,-28.524 -30.871,-30.856 -29.414,-29.728"/><polygon points="-39.271,-6.679 -38.01,-10.124 -35.744,-9.418 -36.871,-5.801"/></g><g fill="#888888" stroke="#000000" stroke-width="0.563"><polygon points="-10.883,-51.914 -11.62,-47.212 -21.423,-48.749 -20.686,-53.451"/><polygon points="-35.699,-50.327 -29.54,-50.71 -29.238,-45.842 -35.397,-45.46"/><polygon points="-12.798,-42.642 -20.597,-45.456 -19.854,-47.514 -19.703,-48.479 -11.62,-47.212 -11.982,-44.903"/><polygon points="-35.699,-50.327 -35.994,-55.075 -29.835,-55.458 -29.54,-50.71"/><polygon points="-14.262,-38.583 -20.947,-40.994 -19.482,-45.054 -12.798,-42.642"/><polygon points="-35.397,-45.46 -25.542,-46.071 -25.285,-41.926 -35.14,-41.315"/><polygon points="-19.995,-63.964 -19.171,-59.713 -25.642,-58.458 -26.466,-62.71"/><polygon points="-10.883,-51.914 -14.347,-52.457 -13.431,-58.302 -9.966,-57.759"/><polygon points="-26.466,-62.71 -25.917,-59.876 -33.126,-58.478 -33.675,-61.313"/><polygon points="-14.262,-38.583 -15.507,-35.133 -20.38,-36.891 -19.136,-40.341"/><polygon points="-35.14,-41.315 -24.474,-41.977 -24.513,-41.665 -26.46,-39.268 -30.466,-37.335 -34.876,-37.062"/><polygon points="-19.995,-63.964 -16.435,-64.654 -15.26,-58.588 -18.819,-57.899"/><polygon points="-33.675,-61.313 -32.868,-57.151 -36.11,-56.949 -36.349,-60.795"/><polygon points="-19.546,-31.649 -22.82,-31.172 -23.57,-36.318 -20.296,-36.796"/><polygon points="-22.82,-31.172 -25.902,-30.722 -26.886,-37.477 -23.804,-37.927"/><polygon points="-34.876,-37.062 -30.466,-37.335 -33.264,-33.721 -34.739,-34.863"/><polygon points="-30.314,-31.437 -33.216,-33.683 -30.342,-37.395 -27.44,-35.149"/><polygon points="-18.767,-31.762 -19.344,-35.723 -15.76,-34.43 -16.609,-32.076"/><polygon points="-9.217,-62.54 -9.966,-57.759 -12.613,-58.174 -11.863,-62.955"/><polygon points="-9.037,-63.687 -10.958,-63.988 -11.281,-65.653 -8.649,-66.164"/><polygon points="-15.986,-64.742 -12.559,-65.406 -12.044,-62.749 -15.471,-62.085"/><polygon points="-30.314,-31.437 -27.44,-35.149 -26.777,-30.595 -28.839,-30.295"/></g><g fill="#888888" stroke="#000000" stroke-width="0.563"><polygon points="18.822,-42.776 20.457,-46.741 25.269,-44.758 23.634,-40.793"/><polygon points="20.457,-46.741 21.905,-50.255 26.827,-48.227 25.378,-44.713"/><polygon points="17.022,-38.409 18.822,-42.776 21.689,-41.595 19.889,-37.227"/><polygon points="32.623,-47.148 31.527,-44.698 26.643,-46.883 27.739,-49.333"/><polygon points="28.398,-37.705 26.548,-33.571 24.101,-34.666 25.951,-38.8"/><polygon points="21.905,-50.255 23.58,-54.321 26.143,-53.265 24.467,-49.199"/><polygon points="22.654,-32.217 18.413,-34.859 19.889,-37.227 24.129,-34.585"/><polygon points="17.022,-38.409 19.889,-37.227 18.413,-34.859 16.142,-36.274"/><polygon points="27.625,-55.261 32.27,-53.25 31.055,-50.445 26.41,-52.456"/><polygon points="22.955,-32.029 24.278,-34.153 26.386,-33.209 25.225,-30.614"/><polygon points="36.811,-23.395 32.805,-25.891 36.98,-32.59 40.985,-30.094"/><polygon points="32.805,-25.891 28.889,-28.332 31.064,-31.822 34.98,-29.382"/><polygon points="47.518,-25.791 45.162,-22.463 42.014,-24.692 44.37,-28.019"/><polygon points="39.971,-21.426 36.891,-23.345 38.932,-26.621 42.012,-24.702"/><polygon points="40.826,-20.894 42.3,-23.26 44.583,-21.645 43.064,-19.499"/></g><g fill="#888888" stroke="#000000" stroke-width="0.563"><polygon points="57.185,17.164 54.089,15.068 56.704,11.203 59.8,13.299"/><polygon points="60.529,2.691 64.598,4.298 62.816,8.811 58.747,7.204"/><polygon points="50.05,12.334 53.517,7.211 57.556,9.945 54.089,15.068"/><polygon points="60.529,2.691 59.001,6.56 54.422,4.752 55.95,0.883"/><polygon points="63.024,17.568 61.665,16.802 60.409,14.443 62.831,10.146 66.152,12.018"/><polygon points="60.089,19.129 57.185,17.164 58.76,14.836 61.665,16.802"/><polygon points="68.63,7.621 66.152,12.018 63.495,10.52 65.974,6.123"/><polygon points="52.677,-0.409 55.95,0.883 54.422,4.752 51.149,3.459"/><polygon points="50.05,12.334 46.961,10.244 48.727,7.634 51.816,9.724"/><polygon points="60.089,19.129 61.665,16.802 63.024,17.568 61.576,20.136"/><polygon points="68.63,7.621 65.974,6.123 66.411,5.014 69.428,6.205"/><polygon points="45.96,6.183 48.973,1.972 51.128,3.514 48.115,7.725"/><polygon points="52.677,-0.409 51.128,3.514 48.973,1.972 51.117,-1.025"/><polygon points="45.579,6.716 47.184,7.864 46.009,9.6 44.329,8.463"/><polygon points="51.946,16.949 49.532,19.619 47.124,17.443 49.538,14.773"/><polygon points="45.678,10.341 49.405,12.864 47.475,15.715 43.748,13.192"/><polygon points="49.532,19.619 46.68,22.774 44.981,21.238 47.833,18.083"/><polygon points="38.856,16.113 41.286,12.717 44.477,15 42.048,18.396"/><polygon points="51.946,16.949 49.538,14.773 50.382,13.525 53.272,15.482"/><polygon points="42.966,24.171 39.837,20.206 42.167,18.368 45.295,22.333"/><polygon points="45.678,10.341 43.748,13.192 41.895,11.866 43.864,9.114"/><polygon points="38.856,16.113 42.048,18.396 39.805,20.166 37.787,17.608"/><polygon points="42.966,24.171 45.295,22.333 46.277,23.22 44.108,25.619"/><polygon points="50.828,33.296 48.464,30.611 50.031,29.232 52.394,31.917"/><polygon points="55.694,30.572 54.098,33.404 52.407,32.451 54.003,29.619"/><polygon points="58.029,26.429 55.731,30.506 52.235,28.535 54.533,24.459"/><polygon points="48.464,30.611 46.115,27.941 48.092,26.201 50.441,28.871"/><polygon points="51.522,34.086 52.428,33.289 53.744,34.03 52.858,35.603"/><polygon points="46.284,24.405 48.327,22.145 50.323,23.95 48.281,26.21"/><polygon points="45.803,24.937 47.151,26.155 45.681,27.449 44.621,26.244"/><polygon points="48.327,22.145 51.527,18.605 54.363,21.169 51.163,24.709"/><polygon points="58.029,26.429 53.876,24.088 54.551,22.235 60.883,21.365"/><polygon points="60.883,21.365 56.977,21.902 54.456,20.195 56.272,17.512 61.182,20.835"/><polygon points="56.272,17.512 54.247,20.505 51.805,18.298 53.941,15.934"/></g><g fill="#888888" stroke="#000000" stroke-width="0.563"><polygon points="41.566,46.739 36.167,51.119 31.997,45.978 37.396,41.598"/><polygon points="24.585,53.122 31.218,47.505 33.813,50.839 27.313,56.344"/><polygon points="27.313,56.344 31.159,53.086 33.407,55.74 29.56,58.997"/><polygon points="45.421,51.492 42.047,54.229 38.192,49.476 41.566,46.739"/><polygon points="29.56,58.997 36.017,53.529 38.75,56.548 32.191,62.103"/><polygon points="24.585,53.122 20.804,48.659 22.728,47.03 26.508,51.494"/><polygon points="25.452,40.589 30.499,36.868 31.792,38.622 26.746,42.344"/><polygon points="34.727,65.098 32.191,62.103 36.005,58.873 38.542,61.868"/><polygon points="34.705,38.28 37.396,41.598 34.356,44.064 31.664,40.746"/><polygon points="20.748,44.058 25.452,40.589 27.632,43.546 22.928,47.015"/><polygon points="45.421,51.492 48.047,54.728 44.994,57.205 42.368,53.968"/><polygon points="44.107,63.519 40.887,60.478 44.092,57.084 46.565,57.415 48.312,59.065"/><polygon points="33.716,37.061 31.792,38.622 30.499,36.868 32.414,35.455"/><polygon points="36.806,67.553 34.727,65.098 36.634,63.483 38.713,65.937"/><polygon points="20.352,44.35 22.349,47.058 20.66,48.489 18.384,45.801"/><polygon points="44.107,63.519 41.806,65.956 38.586,62.916 40.887,60.478"/><polygon points="48.312,59.065 46.565,57.415 48.773,55.624 50.062,57.212"/><polygon points="37.129,67.934 38.74,66.57 40.054,67.811 38.457,69.502"/><polygon points="50.318,35.745 46.89,38.762 44.013,35.492 47.441,32.475"/><polygon points="39.177,42.524 43.715,38.842 46.771,42.609 42.232,46.29"/><polygon points="53.553,39.22 50.773,41.957 48.873,40.027 47.38,38.331 50.318,35.745 51.885,37.526"/><polygon points="42.232,46.29 45.258,43.836 48.528,47.868 45.503,50.322"/><polygon points="39.177,42.524 35.119,37.521 36.976,36.015 41.034,41.018"/><polygon points="44.624,29.275 47.441,32.475 44.497,35.066 41.68,31.865"/><polygon points="53.553,39.22 56.489,42.203 52.228,46.397 49.293,43.414"/><polygon points="35.102,33.473 39.875,29.953 41.749,32.495 36.976,36.015"/><polygon points="44.624,29.275 41.68,31.865 40.131,29.764 43.117,27.562"/><polygon points="48.876,54.48 45.503,50.322 47.967,48.323 51.34,52.481"/><polygon points="35.102,33.473 36.976,36.015 35.119,37.521 33.058,34.98"/><polygon points="59.213,47.52 56.482,50.413 53.727,47.811 56.458,44.919"/><polygon points="56.482,50.413 53.715,53.343 51.111,50.885 53.878,47.954"/><polygon points="59.213,47.52 56.458,44.919 57.832,43.567 60.442,46.219"/><polygon points="49.165,54.837 51.417,53.01 52.798,54.315 50.616,56.626"/></g><g fill="#888888" stroke="#000000" stroke-width="0.563"><polygon points="46.618,-12.234 52.177,-14.719 54.419,-9.705 48.859,-7.22"/><polygon points="64.885,-15.81 60.601,-9.68 56.258,-12.716 60.542,-18.845"/><polygon points="48.859,-7.22 54.419,-9.705 56.067,-6.019 50.507,-3.534"/><polygon points="46.618,-12.234 44.445,-17.093 47.225,-18.336 49.397,-13.476"/><polygon points="54.858,-0.408 56.373,-4.245 61.874,-2.073 60.359,1.764"/><polygon points="50.507,-3.534 57.29,-6.566 54.858,-0.408 51.271,-1.824"/><polygon points="45.022,-20.88 48.077,-18.717 44.445,-17.093 43.631,-18.915"/><polygon points="45.022,-20.88 47.04,-23.732 50.096,-21.569 48.077,-18.717"/><polygon points="60.359,1.764 62.253,-3.032 65.916,-1.586 64.023,3.21"/><polygon points="71.888,-1.297 70.646,2.636 67.915,1.774 69.157,-2.159"/><polygon points="66.721,4.276 64.023,3.21 65.11,0.457 67.809,1.522"/><polygon points="51.158,-29.549 53.947,-27.576 52.47,-25.462 49.657,-27.428"/></g><g fill="#888888" stroke="#000000" stroke-width="0.563"><polygon points="-65.956,8.136 -68.309,1.784 -61.828,0.781 -60.88,6.902 -63.879,7.366"/><polygon points="-67,-7.287 -66.157,-4.4 -71.839,-2.742 -72.682,-5.629"/><polygon points="-67,-7.287 -62.048,-8.732 -60.662,-3.982 -65.614,-2.538"/><polygon points="-57.175,6.328 -60.88,6.902 -61.398,3.561 -57.692,2.988"/><polygon points="-54.847,-4.231 -54.694,-0.658 -60.509,-0.409 -60.662,-3.982"/><polygon points="-54.694,-0.658 -54.561,2.457 -58.26,2.615 -58.394,-0.5"/><polygon points="-62.048,-8.732 -57.858,-9.955 -57.19,-7.668 -61.381,-6.445"/><polygon points="-56.148,6.169 -56.521,3.755 -54.509,3.668 -54.414,5.901"/><polygon points="-54.981,-7.36 -54.863,-4.59 -57.426,-4.48 -57.545,-7.25"/><polygon points="-55.034,-8.589 -56.46,-8.528 -56.953,-10.219 -55.127,-10.752"/><polygon points="-53.8,20.231 -53.644,23.873 -56.867,24.011 -57.023,20.369"/><polygon points="-63.03,27.301 -65.141,23.596 -62.69,22.2 -60.58,25.905"/><polygon points="-55.604,26.768 -59.24,28.434 -60.504,25.677 -56.867,24.011"/><polygon points="-55.604,26.768 -56.867,24.011 -53.644,23.873 -53.56,25.832"/><polygon points="-54.133,12.454 -53.963,16.412 -58.871,16.623 -59.04,12.664"/><polygon points="-62.87,27.583 -60.733,26.366 -59.691,28.641 -61.734,29.577"/><polygon points="-54.277,9.09 -54.133,12.454 -56.587,12.559 -56.731,9.195"/><polygon points="-61.353,7.785 -57.492,7.187 -57.096,9.744 -60.957,10.342"/><polygon points="-68.24,9.835 -65.362,8.769 -64.471,11.171 -67.349,12.238"/><polygon points="-54.295,8.668 -56.441,8.76 -56.704,7.065 -54.379,6.705"/><polygon points="-65.868,23.936 -63.661,27.811 -65.589,28.909 -67.796,25.034"/><polygon points="-64.674,30.924 -68.474,32.664 -69.398,30.647 -65.598,28.906"/><polygon points="-71.604,32.076 -69.508,31.091 -68.733,32.783 -70.823,33.74"/><polygon points="-64.554,30.868 -65.428,28.961 -63.599,27.919 -62.464,29.911"/></g><g fill="#888888" stroke="#000000" stroke-width="0.563"><polygon points="-38.309,37.892 -36.812,40.596 -38.985,41.8 -40.482,39.096"/><polygon points="-35.06,43.76 -38.561,45.699 -40.313,42.535 -36.812,40.596"/><polygon points="-35.06,43.76 -33.677,46.257 -36.623,47.889 -38.006,45.392"/><polygon points="-34.383,50.475 -38.053,53.101 -39.838,50.605 -36.168,47.98"/><polygon points="-38.692,37.202 -40.259,38.07 -41.447,36.602 -39.774,35.248"/><polygon points="-38.053,53.101 -42.504,56.285 -43.911,54.319 -39.459,51.134"/><polygon points="-33.713,49.996 -34.987,48.215 -33.155,47.2 -32.204,48.917"/><polygon points="-48.861,52.143 -51.766,48.325 -49.792,46.823 -46.887,50.641"/><polygon points="-46.569,55.156 -48.861,52.143 -46.082,50.028 -43.789,53.041"/><polygon points="-45.78,56.193 -43.911,54.319 -42.504,56.285 -44.125,57.445 -44.597,57.747"/><polygon points="-44.268,37.856 -47.187,40.219 -50.716,35.859 -47.797,33.496"/><polygon points="-50.939,27.119 -46.367,28.403 -47.797,33.496 -52.369,32.213"/><polygon points="-47.187,40.219 -49.719,42.268 -53.073,38.123 -50.542,36.074"/><polygon points="-57.162,41.234 -59.501,38.16 -55.412,35.049 -53.073,38.123"/><polygon points="-50.939,27.119 -52.931,34.215 -53.698,33.918 -56.402,28.014 -53.116,26.508"/><polygon points="-41.577,35.678 -43.678,33.082 -41.608,31.936 -40.167,34.537"/><polygon points="-59.501,38.16 -61.655,35.33 -58.892,33.228 -56.738,36.058"/><polygon points="-61.128,30.179 -56.402,28.014 -55.067,30.929 -59.793,33.094"/><polygon points="-54.945,44.148 -52.421,42.227 -51.331,43.573 -53.838,45.602"/><polygon points="-62.057,30.604 -60.998,32.916 -62.577,34.117 -64.425,31.689"/><polygon points="-57.071,42.674 -53.978,46.739 -59.873,51.225 -62.966,47.16"/><polygon points="-50.896,50.79 -53.865,53.049 -56.947,48.998 -53.978,46.739"/><polygon points="-65.24,57.37 -62.682,55.655 -59.669,60.15 -62.227,61.864"/><polygon points="-63.973,33.604 -62.249,35.87 -65.102,38.041 -66.826,35.775"/><polygon points="-74.324,40.177 -71.523,41.97 -74.311,43.839 -75.517,42.041"/><polygon points="-50.896,50.79 -48.688,53.691 -52.712,56.753 -54.919,53.852"/><polygon points="-67.956,33.307 -66.826,35.775 -67.106,39.54 -71.936,36.448 -70.743,34.584"/><polygon points="-53.674,63.565 -56.241,59.56 -53.241,57.637 -50.674,61.642"/><polygon points="-48.688,53.691 -46.807,56.164 -48.819,57.695 -50.7,55.222"/><polygon points="-47.796,59.798 -50.674,61.642 -52.081,59.446 -49.203,57.602"/><polygon points="-53.674,63.565 -56.243,65.211 -57.909,62.613 -55.339,60.967"/><polygon points="-60.026,65.149 -58.128,63.876 -56.973,65.679 -58.859,66.888"/></g><g fill="#888888" stroke="#000000" stroke-width="0.563"><polygon points="-26.526,83.216 -23.96,81.512 -21.379,85.399 -23.945,87.102"/><polygon points="-11.344,78.544 -14.545,81.522 -17.707,78.124 -14.506,75.146"/><polygon points="-21.75,90.41 -23.945,87.102 -21.702,85.613 -19.506,88.92"/><polygon points="-28.793,76.478 -27.843,78.24 -29.222,79.155 -30.417,77.354"/><polygon points="-21.75,90.41 -19.506,88.92 -18.775,91.578 -20.634,92.09"/><polygon points="-16.193,69.683 -13.234,68.087 -11.923,70.518 -14.882,72.113"/><polygon points="-16.193,69.683 -14.882,72.113 -15.607,72.788 -17.726,70.51"/><polygon points="-13.234,68.087 -11.479,67.141 -9.661,70.513 -11.415,71.459"/><polygon points="-6.674,71.225 -6.755,76.333 -9.705,76.287 -9.624,71.179"/><polygon points="-6.812,79.937 -7.961,81.006 -11.28,77.438 -9.937,76.188 -6.774,77.538"/><polygon points="-6.597,66.319 -8.985,66.281 -9.188,65.905 -6.568,64.492"/><polygon points="-7.708,57.363 -10.19,59.72 -13.393,56.348 -10.911,53.991"/><polygon points="-6.514,61.118 -9.812,61.066 -11.016,60.505 -7.708,57.363 -6.475,58.66"/><polygon points="-8.029,64.371 -9.812,61.066 -6.514,61.118 -6.553,63.575"/><polygon points="-14.071,50.664 -10.911,53.991 -13.13,56.098 -16.29,52.772"/><polygon points="-14.071,50.664 -16.29,52.772 -17.455,51.607 -15.261,49.412"/><polygon points="-21.918,68.9 -23.567,66.485 -21.1,64.8 -19.45,67.215"/><polygon points="-25.711,59.868 -23.972,61.605 -25.968,62.968 -27.122,61.28"/><polygon points="-28.555,59.18 -26.191,57.565 -25.365,58.391 -27.581,60.608"/><polygon points="-21.005,54.028 -24.293,57.318 -26.896,54.718 -23.608,51.428"/><polygon points="-30.453,50.263 -24.979,48.044 -23.924,50.647 -29.399,52.865"/><polygon points="-30.745,50.381 -29.116,53.387 -31.432,54.968 -33.334,52.184 -30.904,50.445"/><polygon points="-24.979,48.044 -20.518,46.236 -19.564,48.589 -24.025,50.397"/><polygon points="-17.566,50.587 -20.792,53.815 -22.791,51.818 -19.564,48.589"/><polygon points="-17.356,47.206 -18.744,48.524 -19.564,48.589 -20.518,46.236 -18.9,45.581"/><polygon points="-17.123,50.144 -18.744,48.524 -17.356,47.206 -15.812,48.831"/><polygon points="-27.465,62.195 -31.008,64.614 -33.786,60.546 -30.244,58.127"/><polygon points="-39.62,63.491 -35.97,61.068 -33.996,64.04 -37.647,66.464"/><polygon points="-37.647,66.464 -34.453,64.343 -31.678,68.522 -34.873,70.642"/><polygon points="-39.62,63.491 -41.055,61.329 -38.535,59.656 -37.1,61.818"/><polygon points="-32.941,54.177 -30.244,58.127 -33.148,60.11 -35.846,56.16"/><polygon points="-40.606,57.387 -37.268,54.999 -35.705,57.184 -39.043,59.572"/><polygon points="-31.963,75.025 -34.873,70.642 -31.675,68.519 -28.765,72.902"/><polygon points="-41.227,57.831 -40.108,59.396 -41.656,60.424 -42.685,58.874"/><polygon points="-32.941,54.177 -35.846,56.16 -36.877,54.719 -33.984,52.649"/><polygon points="-22.854,72.366 -27.585,74.917 -28.768,72.724 -24.038,70.172"/><polygon points="-22.8,72.337 -23.966,70.176 -22.635,69.268 -21.148,71.446"/></g><g fill="#888888" stroke="#000000" stroke-width="0.563"><polygon points="16.218,63.496 14.309,57.388 17.858,56.278 19.767,62.386"/><polygon points="12.514,49.016 15.614,54.813 12.579,56.437 9.478,50.639"/><polygon points="9.478,50.639 12.234,55.792 8.111,57.998 5.355,52.845"/><polygon points="12.514,49.016 15.048,47.66 16.786,50.91 14.252,52.266"/><polygon points="19.588,48.461 22.475,51.869 19.688,54.23 16.801,50.821"/><polygon points="23.358,61.263 19.767,62.386 18.693,58.949 22.284,57.826"/><polygon points="26.822,57.002 26.283,57.458 23.264,57.736 20.041,53.931 22.475,51.869"/><polygon points="18.982,47.744 17.05,49.38 15.89,47.21 17.706,46.238"/><polygon points="1.182,55.077 5.355,52.845 6.983,55.889 2.811,58.121"/><polygon points="-2.1,56.832 1.182,55.077 2.434,57.417 -0.848,59.172"/><polygon points="2.944,62.91 5.522,59.499 8.55,61.787 5.972,65.199"/><polygon points="27.107,60.091 26.283,57.458 26.822,57.002 28.95,59.515"/><polygon points="2.944,62.91 0.555,61.105 2.811,58.121 5.199,59.926"/><polygon points="-2.1,56.832 -0.848,59.172 -1.268,59.727 -3.856,57.771"/><polygon points="15.492,64.561 20.516,62.99 21.383,65.762 16.359,67.333"/><polygon points="20.516,62.99 23.997,61.902 26.033,68.413 22.552,69.501"/><polygon points="23.997,61.902 27.024,60.955 28.16,64.588 25.133,65.535"/><polygon points="31.674,75.088 27.329,78.62 25.514,76.386 29.858,72.855"/><polygon points="14.894,71.941 12.054,69.795 13.428,67.976 16.269,70.123"/><polygon points="23.791,78.665 25.514,76.386 27.329,78.62 25.596,80.029"/><polygon points="31.066,62.013 32.799,64.06 29.93,66.49 28.197,64.443"/><polygon points="32.799,64.06 35.045,66.712 32.053,69.246 29.807,66.594"/><polygon points="30.632,61.501 28.481,63.323 27.677,60.751 29.511,60.178"/><polygon points="36.078,71.507 31.674,75.088 29.738,72.707 34.142,69.126"/><polygon points="36.078,71.507 34.142,69.126 35.859,67.673 37.872,70.049"/><polygon points="5.721,66.012 3.504,68.945 -0.493,65.925 1.724,62.991"/><polygon points="-5.85,69.716 -1.454,69.785 -1.561,76.538 -5.957,76.468"/><polygon points="1.724,62.991 -0.705,66.204 -2.303,64.716 -3.657,60.819 -2.989,59.43"/><polygon points="-2.989,59.43 -3.657,60.819 -5.709,60.786 -5.677,58.745 -4.633,58.187"/><polygon points="-5.77,64.661 -5.709,60.786 -3.657,60.819 -3.718,64.694"/><polygon points="-6.044,81.943 -5.957,76.468 -1.448,76.539 -1.535,82.014"/><polygon points="-6.118,86.624 -6.049,82.278 -4.028,82.31 -4.097,86.656"/><polygon points="23.42,81.798 22.524,80.695 23.478,79.431 24.956,80.548"/></g><g fill="#888888" stroke="#000000" stroke-width="0.563"><polygon points="-56.245,-77.324 -52.969,-74.51 -55.927,-71.066 -59.204,-73.88"/><polygon points="-52.969,-74.51 -50.315,-72.23 -54.356,-67.525 -57.01,-69.805"/><polygon points="-50.315,-72.23 -46.596,-69.035 -49.089,-66.133 -52.808,-69.328"/><polygon points="-47.193,-61.503 -47.267,-63.919 -41.321,-64.503 -40.946,-64.181 -40.87,-61.696"/><polygon points="-46.596,-69.035 -44.096,-66.887 -46.589,-63.986 -49.089,-66.133"/><polygon points="-55.311,-32.554 -56.367,-41.06 -52.089,-41.591 -51.033,-33.085"/><polygon points="-55.311,-32.554 -58.664,-32.138 -59.519,-39.027 -56.167,-39.443"/><polygon points="-63.865,-33.699 -67.777,-37.027 -63.543,-42.004 -59.631,-38.675"/><polygon points="-67.777,-37.027 -71.843,-40.486 -66.551,-46.707 -62.485,-43.248"/><polygon points="-63.538,-33.42 -59.97,-37.614 -59.281,-32.061 -61.602,-31.773"/><polygon points="-75.433,-46.159 -73.976,-51.551 -68.721,-50.13 -70.178,-44.739"/><polygon points="-36.457,-49.626 -36.092,-43.734 -44.666,-43.202 -45.032,-49.093"/><polygon points="-36.457,-49.626 -41.858,-49.29 -42.138,-53.801 -36.737,-54.137"/><polygon points="-75.478,-45.993 -70.397,-44.62 -73.044,-41.508 -76.008,-44.03"/><polygon points="-42.445,-34.152 -46.572,-33.639 -47.46,-40.787 -43.333,-41.299"/><polygon points="-36.092,-43.734 -35.768,-38.517 -39.368,-38.294 -39.692,-43.51"/><polygon points="-38.775,-34.607 -42.445,-34.152 -42.889,-37.726 -39.219,-38.181"/><polygon points="-36.994,-58.268 -36.737,-54.137 -40.107,-53.927 -40.364,-58.059"/><polygon points="-37.85,-34.722 -38.181,-37.395 -35.708,-37.548 -35.55,-35.008"/><polygon points="-37.021,-58.708 -40.076,-58.46 -40.152,-60.918 -37.252,-61.007 -37.159,-60.927"/></g><g fill="#888888" stroke="#000000" stroke-width="0.563"><polygon points="-65.351,-32.337 -71.442,-25.177 -76.43,-21.456 -76.603,-21.478 -79.716,-22.203 -68.683,-35.171"/><polygon points="-72.258,-6.586 -73.194,-9.796 -66.667,-11.7 -65.731,-8.491"/><polygon points="-84.083,-40.468 -79.689,-41.502 -78.368,-35.894 -82.762,-34.859"/><polygon points="-74.755,-40.338 -71.491,-37.561 -75.035,-33.396 -78.298,-36.172"/><polygon points="-62.585,-28.629 -71.442,-25.177 -65.351,-32.337 -63.375,-30.656"/><polygon points="-59.902,-21.746 -67.178,-18.91 -68.478,-22.247 -61.203,-25.082"/><polygon points="-58.334,-17.723 -63.791,-15.596 -65.359,-19.619 -59.902,-21.746"/><polygon points="-65.731,-8.491 -66.199,-10.096 -58.782,-12.26 -58.314,-10.655"/><polygon points="-58.334,-17.723 -56.952,-14.176 -59.736,-13.091 -61.119,-16.638"/><polygon points="-58.314,-10.655 -58.876,-12.583 -56.666,-13.444 -55.858,-11.371"/></g><g fill="#888888" stroke="#000000" stroke-width="0.563"><polygon points="5.14,-63.361 8.199,-73.452 11.873,-72.338 8.814,-62.247"/><polygon points="0.671,-64.716 2.965,-72.284 7.434,-70.929 5.14,-63.361"/><polygon points="0.671,-64.716 -3.103,-65.86 -1.736,-70.37 2.038,-69.226"/><polygon points="-6.287,-78.368 -6.185,-83.075 0.429,-82.931 0.327,-78.224"/><polygon points="-6.459,-70.459 -6.381,-74.056 -1.676,-73.954 -1.755,-70.357"/><polygon points="-6.483,-69.356 -3.222,-69.285 -4.163,-66.181 -6.536,-66.9"/><polygon points="-6.185,-83.075 -6.089,-87.452 -3.093,-87.387 -3.188,-83.01"/><polygon points="20.761,-58.626 17.319,-59.669 18.39,-63.205 21.833,-62.161"/><polygon points="21.581,-58.377 22.398,-61.07 24.973,-60.133 24.06,-57.626"/><polygon points="-3.709,-90.898 -4.21,-88.507 -6.066,-88.548 -6.004,-91.379"/><polygon points="-5.938,-94.401 -1.552,-94.305 -2.163,-91.391 -5.986,-92.193"/></g><g fill="#888888" stroke="#000000" stroke-width="0.563"><polygon points="-42.87,-66.889 -47.033,-70.465 -40.583,-77.973 -36.42,-74.397"/><polygon points="-25.586,-72.438 -24.285,-68.098 -27.38,-67.17 -28.681,-71.51"/><polygon points="-30.1,-62.821 -33.956,-62.074 -35.145,-68.208 -31.289,-68.956"/><polygon points="-38.925,-63.5 -35.295,-67.725 -34.191,-62.028 -36.656,-61.55"/><polygon points="-25.804,-63.654 -30.1,-62.821 -30.694,-65.888 -26.398,-66.721"/><polygon points="-25.792,-63.656 -26.385,-66.715 -24.078,-67.406 -23.109,-64.176"/><polygon points="-51.413,-74.228 -55.09,-77.387 -52.056,-80.919 -48.379,-77.76"/><polygon points="-8.004,-91.408 -8.119,-86.104 -15.503,-86.265 -15.388,-91.568"/><polygon points="-8.214,-81.752 -8.332,-76.337 -16.794,-76.521 -16.676,-81.935"/><polygon points="-24.913,-72.978 -26.684,-78.885 -18.724,-81.272 -16.953,-75.364"/><polygon points="-7.875,-97.354 -8.004,-91.408 -11.696,-91.488 -11.567,-97.434"/><polygon points="-8.466,-70.17 -11.703,-70.241 -16.609,-73.63 -16.953,-75.364 -16.794,-76.521 -8.332,-76.337"/><polygon points="-23.429,-68.029 -24.913,-72.978 -21.236,-74.08 -19.752,-69.131"/><polygon points="-7.866,-97.773 -11.297,-97.848 -11.634,-100.228 -7.8,-100.77"/><polygon points="-11.212,-66.482 -15.473,-65.656 -16.239,-69.605 -11.978,-70.43"/><polygon points="-15.473,-65.656 -19.517,-64.872 -20.222,-68.509 -16.178,-69.293"/><polygon points="-10.983,-66.526 -11.703,-70.241 -8.466,-70.17 -8.534,-67.001"/><polygon points="-23.204,-67.277 -20.552,-68.072 -19.917,-64.794 -22.32,-64.329"/></g><g fill="#888888" stroke="#000000" stroke-width="0.563"><polygon points="74.032,28.699 71.83,32.635 66.751,29.793 68.953,25.858"/><polygon points="72.438,46.259 68.634,45.745 69.227,41.356 73.032,41.871"/><polygon points="81.101,35.382 78.892,39.181 75.829,37.401 78.039,33.601"/><polygon points="72.438,46.259 73.032,41.871 76.242,43.738 74.606,46.552"/><polygon points="60.402,43.327 65.349,38.458 64.44,45.177 61.883,44.831"/><polygon points="60.133,43.053 57.691,40.573 63.356,34.996 65.798,37.477"/><polygon points="55.091,33.27 56.761,30.308 60.604,32.474 58.934,35.436"/><polygon points="56.761,30.308 58.646,26.964 63.714,29.821 61.83,33.164"/><polygon points="68.953,25.858 66.751,29.793 63.323,27.875 62.703,24.795 63.74,22.941"/><polygon points="58.646,26.964 60.301,24.027 62.836,25.455 61.18,28.393"/><polygon points="54.582,34.174 57.139,35.615 54.941,37.778 53.421,36.234"/><polygon points="63.74,22.941 62.703,24.795 60.552,23.582 61.591,21.739"/><polygon points="73.78,24.76 76.09,20.38 79.235,22.039 76.924,26.419"/><polygon points="76.09,20.38 78.181,16.416 83.214,19.072 81.123,23.035"/><polygon points="63.27,18.761 65.483,14.833 68.348,16.448 66.134,20.376"/><polygon points="74.857,21.002 73.158,24.224 70.712,22.934 72.412,19.712"/><polygon points="76.85,17.225 74.857,21.002 70.093,18.489 72.085,14.712"/><polygon points="69.27,25.119 65.004,22.731 66.377,20.276 70.644,22.664"/><polygon points="69.823,25.428 70.868,23.559 72.934,24.649 71.908,26.594"/><polygon points="63.27,18.761 66.134,20.376 64.861,22.652 61.984,21.042"/><polygon points="79.028,13.096 76.85,17.225 73.968,15.705 76.147,11.576"/><polygon points="72.058,7.377 75.801,9.08 74.135,12.74 70.392,11.036"/><polygon points="72.058,7.377 70.392,11.036 68.291,9.852 70.171,6.518"/><polygon points="79.028,13.096 76.147,11.576 77.028,9.639 80.111,11.042"/><polygon points="93.968,36.008 91.052,40.67 87.868,38.678 90.784,34.016"/><polygon points="84.039,47.338 83.748,43.213 87.913,42.92 88.204,47.045"/><polygon points="88.204,47.045 87.913,42.92 92.04,42.629 92.331,46.754"/><polygon points="88.178,32.386 90.784,34.016 88.908,37.015 86.302,35.384"/><polygon points="81.24,36.735 84.337,38.535 81.627,43.195 78.531,41.394"/><polygon points="96.515,46.459 92.331,46.754 92.052,42.798 96.236,42.503"/><polygon points="78.561,47.087 78.694,46.103 81.795,43.292 83.716,42.75 84.039,47.338 81.657,47.506"/><polygon points="76.526,44.842 78.531,41.394 80.699,42.655 78.694,46.103"/><polygon points="76.526,44.842 78.694,46.103 78.561,47.087 75.464,46.668"/><polygon points="103.107,43.862 100.564,43.854 99.643,42.9 101.145,40.499 103.114,41.73"/><polygon points="90.401,32.833 92.655,29.231 96.307,31.516 94.053,35.118"/><polygon points="100.35,39.058 97.684,37.39 98.588,35.945 101.254,37.613"/></g><g fill="#888888" stroke="#000000" stroke-width="0.563"><polygon points="73.769,70.508 67.809,68.493 70.282,61.174 76.243,63.189"/><polygon points="55.063,53.081 61.579,59.233 56.77,64.326 50.254,58.174"/><polygon points="71.774,76.412 65.814,74.397 67.809,68.493 73.769,70.508"/><polygon points="50.254,58.174 54.598,62.275 49.5,67.675 45.156,63.573"/><polygon points="55.063,53.081 59.228,48.67 62.485,51.746 58.321,56.157"/><polygon points="69.7,82.549 64.932,80.938 67.006,74.8 71.774,76.412"/><polygon points="46.922,78.547 50.736,74.964 54.226,78.679 50.413,82.262"/><polygon points="76.243,63.189 72.666,61.98 75.088,54.814 78.664,56.023"/><polygon points="64.553,47.211 69.039,47.818 68.181,54.164 63.694,53.557"/><polygon points="46.922,78.547 43.666,75.08 48.951,70.115 52.207,73.582"/><polygon points="41.798,67.129 45.156,63.573 48.313,66.554 44.956,70.111"/><polygon points="64.141,47.155 63.403,52.613 59.228,48.67 61.053,46.737"/><polygon points="53.287,85.322 50.413,82.262 57.641,75.472 60.516,78.532"/><polygon points="43.666,75.08 41.328,72.592 43.971,70.11 46.308,72.598"/><polygon points="69.7,82.549 68.266,86.792 61.767,84.596 63.201,80.353"/><polygon points="56.652,88.904 53.287,85.322 58.22,80.689 61.585,84.271"/><polygon points="69.039,47.818 73.117,48.369 72.273,54.608 68.196,54.057"/><polygon points="73.117,48.369 77.108,48.909 76.719,51.785 72.728,51.245"/><polygon points="40.759,68.23 42.748,70.108 40.754,71.981 38.99,70.103"/><polygon points="79.98,52.128 78.664,56.023 76.084,55.151 77.4,51.257"/><polygon points="68.266,86.792 66.995,90.554 62.982,89.198 64.253,85.436"/><polygon points="59.766,92.219 56.652,88.904 59.868,85.883 62.982,89.198"/><polygon points="80.147,51.636 77.893,50.874 78.14,49.049 80.895,49.421"/><polygon points="66.995,90.554 65.81,94.061 63.82,93.389 65.005,89.882"/><polygon points="62.356,94.976 59.897,92.359 61.402,90.945 63.861,93.562"/><polygon points="62.97,95.629 64.099,94.568 65.481,95.035 64.669,97.438"/></g><g fill="#888888" stroke="#000000" stroke-width="0.563"><polygon points="-56.253,67.593 -53.837,71.363 -55.525,73.306 -59.204,70.109 -57.979,68.699"/><polygon points="-53.554,83.72 -57.336,79.916 -54.999,77.592 -51.217,81.397"/><polygon points="-57.336,79.916 -59.249,77.991 -55.169,73.936 -53.256,75.861"/><polygon points="-49.819,83.769 -51.182,81.457 -47.331,79.188 -45.969,81.5"/><polygon points="-61.295,72.516 -59.204,70.109 -57.024,72.003 -59.115,74.41"/><polygon points="-48.453,62.594 -46.184,66.134 -50.069,68.624 -52.338,65.084"/><polygon points="-39.431,76.685 -42.969,79.449 -46.852,74.477 -43.315,71.713"/><polygon points="-61.654,72.929 -59.848,74.498 -61.293,75.934 -62.879,74.339"/><polygon points="-48.453,62.594 -45.849,60.925 -44.261,63.403 -46.864,65.072"/><polygon points="-41.709,61.791 -39.522,65.086 -42.089,66.791 -44.277,63.496"/><polygon points="-36.093,70.251 -37.851,71.418 -39.421,71.503 -42.409,67.003 -39.522,65.086"/><polygon points="-42.313,60.882 -44.025,62.018 -45.052,60.415 -43.348,59.322"/><polygon points="-35.894,73.923 -37.851,71.418 -36.093,70.251 -34.42,72.771"/><polygon points="-62.568,88.92 -66.408,86.715 -64.269,82.989 -60.428,85.194"/><polygon points="-61.802,76.557 -59.154,79.222 -60.74,80.799 -63.389,78.134"/><polygon points="-67.303,79.43 -65.313,77.14 -63.334,78.86 -65.323,81.149"/><polygon points="-69.886,82.403 -67.303,79.43 -64.665,81.721 -67.249,84.695"/><polygon points="-32.214,76.094 -30.701,78.372 -33.035,79.921 -34.548,77.643"/><polygon points="-32.823,75.177 -34.051,75.993 -35.261,74.443 -33.976,73.439"/></g><g stroke="#888888" stroke-width="0.563" stroke-linecap="butt"><g fill="#888888" stroke="#000000" stroke-width="0.563"/></g><g fill="#888888" stroke="#000000" stroke-width="0.563"><polygon points="-68.385,77.625 -71.512,74.908 -67.208,69.955 -64.081,72.672"/><polygon points="-64.081,72.672 -66.687,70.408 -64.278,67.636 -64.964,66.614 -63.44,66.447 -60.723,68.808"/><polygon points="-63.879,60.838 -61.306,64.674 -64.05,66.514 -66.623,62.677"/><polygon points="-60.723,68.808 -63.44,66.447 -61.148,64.911 -59.488,67.387"/><polygon points="-63.879,60.838 -66.623,62.677 -67.696,60.888 -64.95,59.24"/><polygon points="-71.715,81.458 -73.065,80.285 -73.179,77.88 -70.991,75.361 -68.385,77.625"/><polygon points="-74.216,81.577 -73.065,80.285 -71.715,81.458 -72.864,82.781"/><polygon points="-69.769,52.052 -67.319,55.706 -69.492,57.163 -71.942,53.509"/><polygon points="-67.05,59.567 -68.484,57.179 -66.999,56.183 -65.396,58.575"/></g><g fill="#888888" stroke="#000000" stroke-width="0.563"><polygon points="29.132,80.774 31.169,84.707 28.197,86.246 26.16,82.313"/><polygon points="29.132,80.774 26.16,82.313 25.322,81.282 28.188,78.952"/><polygon points="39.881,72.219 42.679,75.198 39.648,78.046 36.85,75.067"/><polygon points="30.819,76.814 34.879,73.513 37.092,76.236 33.032,79.536"/><polygon points="42.679,75.198 45.517,78.22 40.66,82.783 37.822,79.761"/><polygon points="32.849,86.211 30.009,80.728 32.462,79.458 35.302,84.941"/><polygon points="30.514,77.061 32.462,79.458 30.009,80.728 28.822,78.437"/><polygon points="39.881,72.219 36.85,75.067 35.305,73.167 38.404,70.647"/><polygon points="48.22,81.096 44.338,84.743 41.636,81.866 45.517,78.22"/><polygon points="35.091,90.541 32.849,86.211 38.023,83.531 40.266,87.86"/><polygon points="48.22,81.096 50.724,83.762 48.761,85.605 46.257,82.94"/><polygon points="46.732,89.999 43.69,92.33 40.266,87.86 43.308,85.53"/><polygon points="50.334,87.24 49.134,85.674 50.933,83.984 52.461,85.611"/><polygon points="46.744,90.998 51.049,87.7 52.816,90.006 48.511,93.304"/><polygon points="55.422,88.763 57.606,91.088 54.841,93.686 52.657,91.36"/></g><g stroke="#888888" stroke-width="0.563" stroke-linecap="butt"><g fill="#888888" stroke="#000000" stroke-width="0.563"/></g><g fill="#888888" stroke="#000000" stroke-width="0.563"><polygon points="70.316,83.224 74.917,84.779 73.389,89.299 68.789,87.745"/><polygon points="72.808,75.853 73.782,72.969 77.479,74.219 76.505,77.102"/><polygon points="76.718,70.005 76.344,72.713 74.122,71.962 74.87,69.75"/><polygon points="96.301,48.479 100.593,48.176 101.052,54.684 96.76,54.986"/><polygon points="96.301,48.479 96.76,54.986 92.46,55.289 92.001,48.782"/><polygon points="109.729,53.757 107.005,56.867 102.423,52.854 105.147,49.744"/><polygon points="92.001,48.782 92.46,55.289 88.459,55.572 88,49.064"/><polygon points="78.365,59.408 79.76,55.28 87.789,57.993 86.394,62.121"/><polygon points="79.76,55.28 80.758,52.328 85.056,53.781 84.059,56.733"/><polygon points="83.942,49.35 84.172,52.6 81.025,51.537 81.711,49.508"/><polygon points="77.036,63.34 78.365,59.408 82.969,60.964 81.641,64.896"/><polygon points="75.827,66.917 77.036,63.34 80.135,64.387 78.926,67.965"/><polygon points="75.827,66.917 78.926,67.965 78.718,69.474 75.131,68.978"/></g><g stroke="#888888" stroke-width="0.563" stroke-linecap="butt"><g fill="#888888" stroke="#000000" stroke-width="0.563"/></g><g stroke="#888888" stroke-width="0.563" stroke-linecap="butt"><g fill="#888888" stroke="#000000" stroke-width="0.563"/></g><g stroke="#888888" stroke-width="0.563" stroke-linecap="butt"><g fill="#888888" stroke="#000000" stroke-width="0.563"/></g><g stroke="#888888" stroke-width="0.563" stroke-linecap="butt"><g fill="#888888" stroke="#000000" stroke-width="0.563"/></g><g stroke="#888888" stroke-width="0.563" stroke-linecap="butt"><g fill="#888888" stroke="#000000" stroke-width="0.563"/></g><g stroke="#888888" stroke-width="0.563" stroke-linecap="butt"><g fill="#888888" stroke="#000000" stroke-width="0.563"/></g><g stroke="#888888" stroke-width="0.563" stroke-linecap="butt"><g fill="#888888" stroke="#000000" stroke-width="0.563"/></g><g stroke="#888888" stroke-width="0.563" stroke-linecap="butt"><g fill="#888888" stroke="#000000" stroke-width="0.563"/></g><g stroke="#888888" stroke-width="0.563" stroke-linecap="butt"><g fill="#888888" stroke="#000000" stroke-width="0.563"/></g><g stroke="#888888" stroke-width="0.563" stroke-linecap="butt"><g fill="#888888" stroke="#000000" stroke-width="0.563"/></g></g></svg>