<svg xmlns="http://www.w3.org/2000/svg" width="200" height="200" stroke="#000000" stroke-width="1" fill="none">
	<g transform="translate(50, 50)">
		<!-- <circle r="50" cx="50" cy="50" /> -->
		<!-- <path d="M 50,0 A 50,50 0,0,0 0,50 Q0,105 47, 132.3 Q50,133.3 53, 132.3 Q100,105 100, 50 A 50,50 0,0,0 0,50" fill="#FFDBAC" fill-opacity="0" /> -->
		<path
			d="M 50,0
			A 50,50 0,0,0 0,50
			Q0,83.3 8, 100
			Q15,116.6 45,132
			Q50,133.3 53, 132.3
			Q100,105 92, 100
			Q100,83.3 100, 50
			A 50,50 0,0,0 0,50"
			fill="#FFDBAC"
			fill-opacity="0"
			/>
		<line x1="0" x2="100" y1="50" y2="50" />
		<line x1="50" x2="50" y1="0" y2="133.3" />

		<line x1="-50" x2="150" transform="translate(0, 66.6)" opacity="0.5" />
		<line x1="-50" x2="150" transform="translate(0, 83.3)" opacity="0.5" />
		<line x1="-50" x2="150" transform="translate(0, 100)" opacity="0.5" />
		<line x1="-50" x2="150" transform="translate(0, 116.6)" opacity="0.5" />
		<line x1="-50" x2="150" transform="translate(0, 133.3)" opacity="0.5" />

		<g id="eyes" transform="translate(50 83.3)">
			<!-- <circle r="14" cx="0" cy="-14" /> -->
			<!-- <circle r="14" cx="-28" cy="-14" fill="white" /> -->
			<!-- <circle r="7" cx="-28" cy="-14" fill="gray" />
			<circle r="4" cx="-28" cy="-14" fill="black" /> -->
			<!-- <circle r="14" cx="28" cy="-14" fill="white" />
			<circle r="7" cx="28" cy="-14" fill="gray" />
			<circle r="4" cx="28" cy="-14" fill="black" /> -->
			<g id="eyelids" transform="translate(0 -14)">
				<path d="M -14,0 A 3,2 15,0,0 -42,0 l 0.5,2 A 3,2 0,0,0 -14,0" fill="white" />
				<path d="M -14,0 A 3,2 15,0,0 -42,0 l 0.5,2 A 3,2 0,0,0 -14,0" fill="white" transform="scale(-1,1)" />
			</g>
			<!-- <circle r="7" cx="-28" cy="-14" fill="lime" />
			<circle r="4" cx="-28" cy="-14" fill="black" />
			<ellipse rx="1.5" ry="0.75" cx="-31" cy="-15" fill="white" stroke="none" /> -->

		</g>

	</g>
	<!-- <svg id="ears" width="150" height="115" x="10" y="40">
	<path fill="#f7d4cb" stroke-width="1" d="M5 45
		q5,10, 35,30
		l 70, 0
		q30,-20, 35,-30
		l -30, 5
		l -80, 0
		l -30, -5
		"/>
	</svg>
	<svg id="face" width="100" height="115" stroke-width="0.5" fill="none" x="35" y="40">
		<path fill="#f7d4cb" stroke-width="1" d="m50 2
		q30,0, 40,30
		q5, 15, -2, 45
		q-2,5, -5, 10
		q-5,10, -20, 18
		q -13, 10, -26, 0
		M50 2 q-30,0, -40,30
		q-5, 15, 2,45
		q2,5, 5, 10
		q5,10, 20, 18
		"/>
		<g id="eyes">
			<path fill="none" stroke="#751200" stroke-width="4" d="M20, 55, q10, -5, 20, 1"/>
			<path fill="none" stroke="#751200" stroke-width="4" d="M80, 55, q-10, -5, -20,1"/>
			<ellipse cx="30" cy="65" fill="#58f868" rx="8" ry="10"/>
			<ellipse cx="30" cy="65" fill="#105828" rx="5" ry="6.25"/>
			<ellipse cx="30" cy="65" fill="black" stroke="#777" rx="3" ry="3.75"/>
			<ellipse cx="70" cy="65" fill="#58f868" rx="8" ry="10"/>
			<ellipse cx="70" cy="65" fill="#105828" rx="5" ry="6.25"/>
			<ellipse cx="70" cy="65" fill="black" stroke="#777" rx="3" ry="3.75"/>
		</g>
		<g id="mouth">
			<path fill="none" stroke-width="1" d="M40, 90, Q50, 91, 60, 90"/>
		</g>
		<g id="nose">
			<path fill="none" stroke-width="1" d="M48, 65, q-5, 14, 2, 15"/>
		</g>
	</svg> -->
<!--<polygon id="barracks" points="30, 74, 30, 108, 68, 108, 68, 104, 73, 104, 73, 78, 68, 78, 68, 74" fill="#A4878E"/>-->
</svg>