<svg width="1536" height="1820" viewBox="0 0 200 200" xmlns="http://www.w3.org/2000/svg" xmlns:xlink="http://www.w3.org/1999/xlink" xmlns:dc="http://purl.org/dc/elements/1.1/" xmlns:rdf="http://www.w3.org/1999/02/22-rdf-syntax-ns#"><defs><clipPath id="shield_136135914"><path d="M 10,40 h180 v120 h-180 Z"/></clipPath><radialGradient id="spotlight" cx="35%" cy="35%" r="100%">
            <stop stop-color="#fff" stop-opacity=".3" offset="0"/>
            <stop stop-color="#fff" stop-opacity=".15" offset=".2"/>
            <stop stop-color="#000" stop-opacity="0" offset=".7"/>
          </radialGradient><g id="lozenge" author="Azgaar" license="https://creativecommons.org/publicdomain/zero/1.0">
    <polygon points="100 60 135 100 100 140 65 100"/>
  </g><pattern id="lozengy-sanguine-tenné" width="0.125" height="0.125" viewBox="0 0 50 50"><rect width="50" height="50" fill="#b63a3a"/><polygon points="25,0 50,25 25,50 0,25" fill="#c0c0c0"/></pattern></defs> <g clip-path="url(#shield_136135914)"><rect class="field" x="0" y="0" width="200" height="200" fill="url(#lozengy-sanguine-tenné)"/><g class="ordinary" i="0" fill="#522d5b" stroke="none" stroke-width="1"><path d="M 7 0 L 89 82 L 82 89 L 0 7 L 0 28 L 72 100 L 0 172 L 0 193 L 82 111 L 89 118 L 7 200 L 28 200 L 100 128 L 172 200 L 193 200 L 111 118 L 118 111 L 200 193 L 200 172 L 128 100 L 200 28 L 200 7 L 118 89 L 111 82 L 193 0 L 172 0 L 100 72 L 28 0 L 7 0 z M 100 93 L 107 100 L 100 107 L 93 100 L 100 93 z"/></g><g class="charge" i="0" charge="lozenge" fill="#fafafa" stroke="#000"><use xlink:href="#lozenge" xmlns:xlink="http://www.w3.org/1999/xlink" transform="translate(51 51) scale(0.49)"/></g></g> <path class="grad" d="M 10,40 h180 v120 h-180 Z" fill="url(#spotlight)" stroke="#333333" stroke-width="1" style="pointer-events: none;"/></svg>