<?xml version="1.0" encoding="UTF-8" standalone="no"?>
<svg
   xmlns:dc="http://purl.org/dc/elements/1.1/"
   xmlns:cc="http://creativecommons.org/ns#"
   xmlns:rdf="http://www.w3.org/1999/02/22-rdf-syntax-ns#"
   xmlns:svg="http://www.w3.org/2000/svg"
   xmlns="http://www.w3.org/2000/svg"
   xmlns:xlink="http://www.w3.org/1999/xlink"
   xmlns:sodipodi="http://sodipodi.sourceforge.net/DTD/sodipodi-0.dtd"
   xmlns:inkscape="http://www.inkscape.org/namespaces/inkscape"
   width="1536"
   height="1820"
   viewBox="0 0 200 200"
   version="1.1"
   id="svg36"
   sodipodi:docname="aileni.svg"
   inkscape:version="0.92.4 (5da689c313, 2019-01-14)">
  <metadata
     id="metadata40">
    <rdf:RDF>
      <cc:Work
         rdf:about="">
        <dc:format>image/svg+xml</dc:format>
        <dc:type
           rdf:resource="http://purl.org/dc/dcmitype/StillImage" />
        <dc:title></dc:title>
      </cc:Work>
    </rdf:RDF>
  </metadata>
  <sodipodi:namedview
     pagecolor="#ffffff"
     bordercolor="#666666"
     borderopacity="1"
     objecttolerance="10"
     gridtolerance="10"
     guidetolerance="10"
     inkscape:pageopacity="0"
     inkscape:pageshadow="2"
     inkscape:window-width="1920"
     inkscape:window-height="1017"
     id="namedview38"
     showgrid="false"
     inkscape:zoom="0.36676308"
     inkscape:cx="770.07009"
     inkscape:cy="873.84382"
     inkscape:window-x="1912"
     inkscape:window-y="-8"
     inkscape:window-maximized="1"
     inkscape:current-layer="svg36" />
  <defs
     id="defs20">
    <clipPath
       id="shield_136135914">
      <path
         d="M 10,40 h180 v120 h-180 Z"
         id="path2" />
    </clipPath>
    <radialGradient
       id="spotlight"
       cx="35%"
       cy="35%"
       r="100%">
      <stop
         stop-color="#fff"
         stop-opacity=".3"
         offset="0"
         id="stop5" />
      <stop
         stop-color="#fff"
         stop-opacity=".15"
         offset=".2"
         id="stop7" />
      <stop
         stop-color="#000"
         stop-opacity="0"
         offset=".7"
         id="stop9" />
    </radialGradient>
    <g
       id="lozenge"
       author="Azgaar"
       license="https://creativecommons.org/publicdomain/zero/1.0">
      <polygon
         points="100 60 135 100 100 140 65 100"
         id="polygon12" />
    </g>
    <pattern
       id="lozengy-sanguine-tenné"
       width="0.125"
       height="0.125"
       viewBox="0 0 50 50">
      <rect
         width="50"
         height="50"
         fill="#b63a3a"
         id="rect15" />
      <polygon
         points="25,0 50,25 25,50 0,25"
         fill="#c0c0c0"
         id="polygon17" />
    </pattern>
  </defs>
  <g
     clip-path="url(#shield_136135914)"
     id="g32">
    <rect
       class="field"
       x="0"
       y="0"
       width="200"
       height="200"
       id="rect22"
       fill="url(#lozengy-sanguine-tenné)" />
    <g
       class="ordinary"
       i="0"
       id="g26"
       stroke-width="1"
       stroke="none"
       fill="#522d5b">
      <path
         d="M 7 0 L 89 82 L 82 89 L 0 7 L 0 28 L 72 100 L 0 172 L 0 193 L 82 111 L 89 118 L 7 200 L 28 200 L 100 128 L 172 200 L 193 200 L 111 118 L 118 111 L 200 193 L 200 172 L 128 100 L 200 28 L 200 7 L 118 89 L 111 82 L 193 0 L 172 0 L 100 72 L 28 0 L 7 0 z M 100 93 L 107 100 L 100 107 L 93 100 L 100 93 z"
         id="path24" />
    </g>
    <g
       class="charge"
       i="0"
       charge="lozenge"
       id="g30"
       stroke="#000"
       fill="#fafafa">
      <use
         xlink:href="#lozenge"
         transform="translate(51 51) scale(0.49)"
         id="use28" />
    </g>
  </g>
  <path
     class="grad"
     d="M 10,40 h180 v120 h-180 Z"
     style="pointer-events: none;"
     id="path34"
     stroke-width="1"
     stroke="#333333"
     fill="url(#spotlight)" />
</svg>
