<svg width="1536" height="1820" viewBox="0 0 200 200" xmlns="http://www.w3.org/2000/svg" xmlns:xlink="http://www.w3.org/1999/xlink" xmlns:dc="http://purl.org/dc/elements/1.1/" xmlns:rdf="http://www.w3.org/1999/02/22-rdf-syntax-ns#"><defs><clipPath id="shield_947050766"><path d="M 10,40 h180 v120 h-180 Z"/></clipPath><radialGradient id="spotlight" cx="35%" cy="35%" r="100%">
            <stop stop-color="#fff" stop-opacity=".3" offset="0"/>
            <stop stop-color="#fff" stop-opacity=".15" offset=".2"/>
            <stop stop-color="#000" stop-opacity="0" offset=".7"/>
          </radialGradient><g id="crescent" stroke-width=".5" author="Azgaar" license="https://creativecommons.org/publicdomain/zero/1.0">
    <path d="M84 65c-32 15-24 68 16 68s48-53 16-68c18 20 2 41-16 41S67 85 84 65z"/>
    <path fill="none" d="M84 65c-26 15-14 56 16 56s42-41 16-56"/>
  </g></defs> <g clip-path="url(#shield_947050766)"><rect class="field" x="0" y="0" width="200" height="200" fill="#333333"/><g class="ordinary" i="0" fill="#26c061" stroke="none" stroke-width="1"><rect x="75" y="0" width="50" height="200"/></g><g class="charge" i="0" charge="crescent" fill="#333333" stroke="#000"><use xlink:href="#crescent" xmlns:xlink="http://www.w3.org/1999/xlink" transform="translate(51 51) scale(0.49)"/></g></g> <path class="grad" d="M 10,40 h180 v120 h-180 Z" fill="url(#spotlight)" stroke="#333333" stroke-width="1" style="pointer-events: none;"/></svg>